<svg width="333" height="65" viewBox="0 0 333 65" fill="none" xmlns="http://www.w3.org/2000/svg">
<path d="M95.06 44.1744C91.9659 44.1744 88.9986 42.9459 86.8107 40.7589C84.6228 38.5719 83.3936 35.6056 83.3936 32.5128C83.3936 29.4199 84.6228 26.4538 86.8107 24.2668C88.9986 22.0799 91.9659 20.8513 95.06 20.8513C96.6375 20.8657 98.194 21.2157 99.6256 21.8783C101.057 22.5408 102.331 23.5006 103.363 24.6937L108.514 20.5054C106.156 17.6543 102.963 15.6129 99.3855 14.6675C95.8075 13.7221 92.0232 13.9203 88.5636 15.2341C85.104 16.5479 82.1426 18.9113 80.0952 21.9929C78.0477 25.0746 77.0168 28.7198 77.1472 32.4168C77.0083 36.1172 78.033 39.7681 80.0773 42.8562C82.1217 45.9443 85.0828 48.3143 88.5444 49.6331C92.006 50.9519 95.794 51.153 99.376 50.2084C102.958 49.2637 106.154 47.2207 108.514 44.3665L103.363 40.1785C102.349 41.4035 101.082 42.3947 99.6488 43.0844C98.2157 43.7741 96.6503 44.146 95.06 44.1744V44.1744Z" fill="#0F161F"/>
<path d="M202.73 14.8186L193.466 41.331L184.24 14.8186H177.129L189.506 50.1683H197.502L209.879 14.8186H202.73Z" fill="#0F161F"/>
<path d="M155.756 44.0973V35.1446H170.402V29.0738H155.756V20.8896H171.67V14.8186H149.222V50.1683H171.901V44.0973H155.756Z" fill="#0F161F"/>
<path d="M293.599 29.8425L288.756 28.6897C285.835 27.8828 284.912 26.4228 284.912 24.5401C284.975 23.8929 285.165 23.2646 285.471 22.6914C285.778 22.1181 286.196 21.6112 286.7 21.2003C287.204 20.7894 287.784 20.4826 288.408 20.2974C289.031 20.1122 289.685 20.0522 290.332 20.1213C291.812 20.0036 293.283 20.4427 294.456 21.3525C295.629 22.2623 296.421 23.5772 296.675 25.0396L302.671 22.9646C301.799 20.25 300.031 17.9114 297.658 16.3305C295.284 14.7497 292.444 14.02 289.602 14.2609C286.76 14.5017 284.083 15.6988 282.01 17.6565C279.936 19.6142 278.588 22.217 278.185 25.0396C278.185 30.2652 281.683 33.3773 287.295 34.9527L292.139 36.1823C293.246 36.2812 294.282 36.7736 295.058 37.5702C295.833 38.3667 296.298 39.4147 296.367 40.5242C296.367 42.9833 294.368 44.7891 290.755 44.7891C289.817 44.884 288.87 44.7886 287.971 44.5087C287.071 44.2287 286.237 43.77 285.519 43.1599C284.801 42.5499 284.214 41.8012 283.792 40.9587C283.371 40.1162 283.124 39.1975 283.067 38.2573L276.84 40.3706C277.404 43.5174 279.134 46.3363 281.684 48.2659C284.234 50.1955 287.418 51.0942 290.601 50.7832C292.135 50.9251 293.681 50.7586 295.149 50.2933C296.617 49.828 297.977 49.0735 299.149 48.0743C300.32 47.0751 301.28 45.8515 301.971 44.4756C302.662 43.0997 303.07 41.5993 303.171 40.0631C303.082 37.4906 302.063 35.0376 300.303 33.1584C298.543 31.2792 296.161 30.1012 293.599 29.8425Z" fill="#0F161F"/>
<path d="M133.653 36.8738C135.772 36.0125 137.587 34.5407 138.867 32.6454C140.147 30.7502 140.835 28.5173 140.841 26.2306C140.909 24.6824 140.65 23.1374 140.082 21.6955C139.514 20.2536 138.65 18.947 137.545 17.8604C136.439 16.7737 135.118 15.9312 133.666 15.3874C132.215 14.8436 130.665 14.6106 129.117 14.7035H115.279V50.0915H121.814V37.8344H126.811L134.307 50.0915H141.61L133.653 36.8738ZM121.852 31.5331V21.1587H128.848C130.225 21.1587 131.545 21.7051 132.518 22.6779C133.491 23.6507 134.038 24.97 134.038 26.3458C134.038 27.7215 133.491 29.0408 132.518 30.0136C131.545 30.9864 130.225 31.5331 128.848 31.5331H121.852Z" fill="#0F161F"/>
<path d="M221.564 44.0973V35.1831H236.209V29.1124H221.564V20.9281H237.478V14.8572H215.029V50.1683H237.708V44.0973H221.564Z" fill="#0F161F"/>
<path d="M316.855 44.0973V35.1831H331.501V29.1124H316.855V20.9281H332.769V14.8572H310.282V50.1683H333V44.0973H316.855Z" fill="#0F161F"/>
<path d="M264.578 36.874C266.704 36.0187 268.528 34.5493 269.815 32.6536C271.102 30.7579 271.795 28.522 271.805 26.2309C271.867 24.6808 271.603 23.1349 271.03 21.693C270.458 20.251 269.59 18.9451 268.482 17.859C267.373 16.773 266.05 15.9312 264.596 15.3877C263.143 14.8442 261.591 14.6114 260.042 14.7038H246.204V50.0917H252.739V37.8346H257.736L265.424 50.0917H272.727L264.578 36.874ZM252.777 31.5333V21.159H259.812C261.14 21.1792 262.407 21.7236 263.336 22.6737C264.265 23.6238 264.781 24.9025 264.77 26.2309C264.812 26.9122 264.714 27.595 264.482 28.2369C264.25 28.8789 263.888 29.4663 263.42 29.9632C262.952 30.4601 262.387 30.8557 261.759 31.1257C261.132 31.3958 260.456 31.5346 259.773 31.5333H252.777Z" fill="#0F161F"/>
<path d="M34.0187 29.7271L13.8381 18.2C12.4352 17.3904 10.8438 16.9643 9.2239 16.9646C7.60399 16.9649 6.01269 17.3914 4.61007 18.2015C3.20745 19.0115 2.043 20.1765 1.23373 21.5792C0.424448 22.9819 -0.00103708 24.573 1.89823e-06 26.1922V49.4769C-0.00103708 51.0962 0.424448 52.687 1.23373 54.0897C2.043 55.4924 3.20745 56.6574 4.61007 57.4675C6.01269 58.2775 7.60399 58.7043 9.2239 58.7046C10.8438 58.7048 12.4352 58.2787 13.8381 57.4691L34.0187 45.942C35.4795 45.1506 36.6994 43.9796 37.5495 42.5525C38.3995 41.1255 38.8482 39.4953 38.8482 37.8345C38.8482 36.1736 38.3995 34.5437 37.5495 33.1166C36.6994 31.6896 35.4795 30.5186 34.0187 29.7271V29.7271Z" fill="#00B3B8"/>
<path d="M56.0828 40.1785L52.7001 38.2573C50.8653 37.1984 48.7838 36.6408 46.6651 36.6408C44.5464 36.6408 42.465 37.1984 40.6301 38.2573L24.7547 47.4019V17.5469L40.6301 26.7302C42.465 27.7892 44.5464 28.3466 46.6651 28.3466C48.7838 28.3466 50.8653 27.7892 52.7001 26.7302L56.0828 24.7706C57.0414 24.2227 57.8381 23.4311 58.3922 22.4763C58.9464 21.5215 59.2381 20.4373 59.2381 19.3335C59.2381 18.2297 58.9464 17.1455 58.3922 16.1907C57.8381 15.2359 57.0414 14.4446 56.0828 13.8967L33.9032 1.10154C32.6536 0.380382 31.2364 0.000556923 29.7935 6.11787e-07C28.3506 -0.0005557 26.9329 0.378297 25.6828 1.09849C24.4326 1.81868 23.3939 2.85491 22.671 4.10315C21.9481 5.35139 21.5664 6.76774 21.5642 8.21004V12.0524L18.22 10.1312C16.9682 9.41328 15.5502 9.03532 14.107 9.03532C12.6638 9.03532 11.2457 9.41328 9.99392 10.1312C8.73696 10.8521 7.69398 11.8934 6.97137 13.149C6.24877 14.4046 5.87252 15.8294 5.881 17.278V47.7094C5.89111 49.8871 6.76103 51.9727 8.30153 53.5126C9.84202 55.0524 11.9284 55.922 14.107 55.9321C15.5543 55.9453 16.9774 55.5599 18.22 54.8179L21.5642 52.8967V56.7391C21.5557 58.1876 21.932 59.6124 22.6546 60.868C23.3772 62.1236 24.4203 63.165 25.6773 63.8858C26.9293 64.6053 28.3461 64.9891 29.7903 65C31.2352 64.9944 32.6532 64.6102 33.9032 63.8858L56.0828 51.0907C57.0406 50.5375 57.8359 49.7421 58.3888 48.7844C58.9418 47.8267 59.233 46.7404 59.233 45.6346C59.233 44.5288 58.9418 43.4425 58.3888 42.4848C57.8359 41.527 57.0406 40.7317 56.0828 40.1785V40.1785ZM24.7547 8.21004C24.7491 7.32478 24.977 6.45356 25.4157 5.68451C25.8543 4.91545 26.4882 4.2757 27.2533 3.8297C28.0283 3.39553 28.9019 3.16741 29.7903 3.16741C30.6787 3.16741 31.5523 3.39553 32.3273 3.8297L54.5068 16.6248C54.9768 16.9039 55.3661 17.3002 55.6364 17.7751C55.9068 18.2501 56.049 18.7871 56.049 19.3335C56.049 19.88 55.9068 20.417 55.6364 20.8919C55.3661 21.3668 54.9768 21.7634 54.5068 22.0424L51.1241 23.9636C49.7723 24.7575 48.2329 25.1761 46.6651 25.1761C45.0973 25.1761 43.5579 24.7575 42.2061 23.9636L24.7547 13.8967V8.21004ZM16.644 52.0897C15.8825 52.5431 15.0126 52.7825 14.1262 52.7825C13.2398 52.7825 12.3699 52.5431 11.6084 52.0897C10.8362 51.6486 10.1947 51.0109 9.7491 50.2415C9.30348 49.4721 9.06963 48.5984 9.07142 47.7094V17.278C9.06963 16.3889 9.30348 15.5153 9.7491 14.7459C10.1947 13.9765 10.8362 13.3387 11.6084 12.8976C12.3699 12.4442 13.2398 12.2048 14.1262 12.2048C15.0126 12.2048 15.8825 12.4442 16.644 12.8976L21.5642 15.7409V49.2464L16.644 52.0897ZM54.5068 48.2474L32.3273 61.1961C31.5573 61.6733 30.6727 61.9341 29.7668 61.9508C28.861 61.9675 27.9674 61.7396 27.1803 61.2911C26.3932 60.8426 25.7417 60.1901 25.2945 59.4025C24.8473 58.6149 24.621 57.7212 24.6394 56.8158V51.1291L42.0908 41.0622C43.449 40.2872 44.9859 39.8797 46.5498 39.8797C48.1137 39.8797 49.6506 40.2872 51.0088 41.0622L54.3915 43.0218C54.8621 43.2957 55.2526 43.6882 55.5241 44.1602C55.7955 44.6321 55.9384 45.1669 55.9384 45.7113C55.9384 46.2557 55.7955 46.7907 55.5241 47.2626C55.2526 47.7346 54.8621 48.1271 54.3915 48.401L54.5068 48.2474Z" fill="#0F161F"/>
</svg>
