<svg width="126" height="24" viewBox="0 0 126 24" fill="none" xmlns="http://www.w3.org/2000/svg">
<path d="M35.8871 16.311C33.4453 16.2812 31.6983 14.5676 31.6983 12.0027C31.6983 9.44364 33.4453 7.70021 35.8871 7.70021C37.1146 7.70021 38.2506 8.28041 39.0224 9.14574L40.9651 7.59807C39.7406 6.14971 37.9038 5.23047 35.9002 5.23047C32.077 5.23047 29.1245 7.94563 29.1245 12.0027C29.1245 16.0656 32.077 18.7765 35.9002 18.7765C37.9038 18.7765 39.7406 17.8572 40.9651 16.4074L39.0224 14.8683C38.2462 15.7308 37.1102 16.3252 35.8871 16.311Z" fill="white"/>
<path d="M76.5184 5.47681L73.0334 15.2622L69.5455 5.47681H66.8613L71.5332 18.5235H74.551L79.2228 5.47681H76.5184Z" fill="white"/>
<path d="M58.7975 16.2826V12.9873H64.3268V10.7473H58.7975V7.72148H64.8056V5.47729H56.3208V18.524H64.8941V16.2826H58.7975Z" fill="white"/>
<path d="M110.825 11.0248C110.825 11.0248 109.449 10.7156 108.997 10.595C107.887 10.3028 107.572 9.76659 107.572 9.06439C107.572 8.21467 108.386 7.43445 109.622 7.43445C111.289 7.43445 111.877 8.53668 112.008 9.24313L114.282 8.4842C113.964 7.04718 112.728 5.22998 109.606 5.22998C107.125 5.22998 105.037 6.9649 105.037 9.24313C105.037 11.178 106.357 12.3313 108.479 12.913C108.931 13.0378 110.307 13.3584 110.307 13.3584C111.325 13.5585 111.899 14.2251 111.899 14.9642C111.899 15.8707 111.138 16.536 109.773 16.536C107.923 16.536 107.016 15.4012 106.904 14.1358L104.561 14.9146C104.837 16.7035 106.382 18.7604 109.751 18.7604C112.804 18.7604 114.487 16.7729 114.487 14.8011C114.487 12.9967 113.209 11.4788 110.825 11.0248Z" fill="white"/>
<path d="M45.9962 11.6466V7.81933H48.6541C49.6481 7.81933 50.5186 8.63927 50.5186 9.69185C50.5186 10.6962 49.8483 11.6466 48.6339 11.6466H45.9962ZM50.4474 13.6269C51.9172 13.0184 53.1708 11.5601 53.1708 9.69185C53.1708 7.40652 51.553 5.46875 48.7427 5.46875H43.5195V18.5225H45.9788V13.9987H47.8707L50.697 18.5225H53.458L50.4474 13.6269Z" fill="white"/>
<path d="M83.6368 16.2819V12.9965H89.1661V10.7552H83.6368V7.72929H89.6449V5.48511H81.1602V18.5233H89.7334V16.2819H83.6368Z" fill="white"/>
<path d="M119.598 16.2904V12.9951H125.126V10.7552H119.598V7.72929H125.605V5.48511H117.121V18.5318H125.694V16.2904H119.598Z" fill="white"/>
<path d="M95.4162 11.6466V7.81933H98.0741C99.068 7.81933 99.9386 8.63927 99.9386 9.69185C99.9386 10.6962 99.2697 11.6466 98.0539 11.6466H95.4162ZM99.8674 13.6269C101.337 13.0184 102.591 11.5601 102.591 9.69185C102.591 7.40652 100.973 5.46875 98.1627 5.46875H92.9409V18.5225H95.4002V13.9987H97.2906L100.117 18.5225H102.878L99.8674 13.6269Z" fill="white"/>
<path opacity="0.4" d="M12.8432 10.9797L5.23188 6.6828C2.90612 5.37062 0 7.0105 0 9.63628V18.2301C0 20.8544 2.90612 22.4943 5.23188 21.1821L12.8432 16.8853C15.1675 15.573 15.1675 12.2918 12.8432 10.9797Z" fill="white"/>
<path d="M20.5708 17.8505L12.2036 22.5729C11.6058 22.9105 10.8935 22.9105 10.2971 22.5729C9.70079 22.2367 9.34388 21.6338 9.34388 20.96V18.8619L15.9382 15.1396C16.9755 14.5552 18.2639 14.5552 19.3012 15.1396L20.5708 15.8559C20.9394 16.0644 21.1598 16.4376 21.1598 16.8532C21.1598 17.2703 20.9394 17.6419 20.5708 17.8505ZM6.28832 19.235C5.69056 19.5712 4.97817 19.5712 4.38186 19.2336C3.7841 18.8974 3.42863 18.2944 3.42863 17.6207V6.37987C3.42863 5.70746 3.7841 5.10315 4.38041 4.76695C4.6793 4.59814 5.00719 4.51444 5.33364 4.51444C5.66154 4.51444 5.98945 4.59814 6.28832 4.76695L8.14545 5.81528V18.1853L6.28832 19.235ZM9.34388 3.03912C9.34388 2.36672 9.70079 1.7624 10.2971 1.4262C10.8935 1.08858 11.6058 1.08858 12.2036 1.4262L20.5708 6.14865C20.9394 6.35718 21.1598 6.73026 21.1598 7.1459C21.1598 7.56296 20.9394 7.93464 20.5708 8.14317L19.3012 8.85955C18.2639 9.44542 16.9755 9.44542 15.9382 8.85955L9.34388 5.13862V5.1372V3.03912ZM21.17 14.8417L19.9005 14.1238C18.4932 13.3309 16.7462 13.3309 15.3389 14.1253L9.34388 17.5086V6.49052L15.3389 9.87524C16.0426 10.2724 16.8319 10.471 17.6197 10.4696C18.4075 10.4696 19.1968 10.2724 19.9005 9.87524L21.17 9.15886C21.9144 8.73897 22.3583 7.9857 22.3583 7.1459C22.3583 6.30611 21.9144 5.55426 21.17 5.13437L12.8027 0.410505C11.8307 -0.137069 10.6699 -0.137072 9.6979 0.41192C8.7258 0.959494 8.14545 1.94257 8.14545 3.03912V4.46196L6.88609 3.75124C5.91399 3.20226 4.75329 3.20368 3.7812 3.75267C2.80911 4.30024 2.22876 5.28332 2.22876 6.37987V17.6207C2.22876 18.7186 2.80911 19.7003 3.7812 20.2493C4.26869 20.5245 4.80117 20.6606 5.33509 20.6606C5.86757 20.6606 6.40149 20.5245 6.88754 20.2493L8.14545 19.5386V20.96C8.14545 22.0565 8.7258 23.0396 9.6979 23.5886C10.184 23.8624 10.7164 24 11.2504 24C11.7828 24 12.3168 23.8624 12.8027 23.5886L21.17 18.8662C21.9144 18.4449 22.3583 17.693 22.3583 16.8532C22.3583 16.0134 21.9144 15.2616 21.17 14.8417Z" fill="white"/>
</svg>
