<svg width="226" height="48" viewBox="0 0 226 48" fill="none" xmlns="http://www.w3.org/2000/svg">
<g clip-path="url(#clip0_26_443)">
<path d="M43.2214 0H24C10.734 0 0 10.7519 0 24V43.2036C0 45.8603 2.1575 48 4.79643 48H24C37.266 48 48 37.2481 48 24V4.79643C48 2.13967 45.8425 0 43.2036 0H43.2214Z" fill="#8DC21F"/>
<path d="M16.7619 28.9523H14.7845L13.9371 26.6029H9.48785L8.64039 28.9523H6.85718L10.7944 18.2856H12.7718L16.7619 28.9523ZM13.478 25.2138L12.2245 21.8698C12.0126 21.3382 11.8537 20.7894 11.7301 20.2235H11.6948C11.5889 20.7551 11.4123 21.321 11.1828 21.9212L9.9469 25.231H13.4604L13.478 25.2138Z" fill="white"/>
<path d="M25.1429 24.3764C25.1429 25.8033 24.7891 26.9132 24.0983 27.7235C23.4075 28.5162 22.4135 28.9214 21.1162 28.9214C20.6613 28.9214 20.2738 28.8862 19.9537 28.8157V32.7618H18.2858V20.7298H19.8526C19.8526 21.3993 19.8189 21.8925 19.7515 22.2448H19.7852C20.257 21.135 21.0994 20.5713 22.2787 20.5713C23.1885 20.5713 23.8961 20.906 24.3847 21.5578C24.8733 22.2096 25.126 23.1609 25.126 24.3764H25.1429ZM23.3907 24.5526C23.3907 22.8614 22.8853 22.0334 21.8744 22.0334C21.3015 22.0334 20.8298 22.3505 20.4591 22.9671C20.1222 23.5132 19.9537 24.165 19.9537 24.9225V27.4064C20.2907 27.5121 20.695 27.565 21.1668 27.565C22.6494 27.565 23.3907 26.5608 23.3907 24.5526Z" fill="white"/>
<path d="M32 20.6041L31.9048 22.3381C31.7334 22.3023 31.5619 22.2845 31.3905 22.2845C30 22.2845 29.3143 23.3928 29.3143 25.6273V28.9522H27.4286V20.765H29.2191C29.2191 21.3728 29.1619 21.9806 29.0477 22.5705H29.0857C29.581 21.1225 30.5524 20.4611 31.981 20.5862L32 20.6041Z" fill="white"/>
<path d="M35.8096 18.6135C35.8096 18.9124 35.6998 19.1762 35.4804 19.3872C35.261 19.5982 34.9867 19.7037 34.6759 19.7037C34.365 19.7037 34.0724 19.5982 33.853 19.3872C33.6336 19.1762 33.5238 18.9124 33.5238 18.6135C33.5238 18.3146 33.6336 18.0509 33.853 17.8399C34.0724 17.6289 34.3467 17.5234 34.6759 17.5234C35.005 17.5234 35.261 17.6289 35.4804 17.8399C35.6998 18.0509 35.8096 18.3146 35.8096 18.6135ZM35.5536 28.952H33.7433V20.8993H35.5536V28.952Z" fill="white"/>
<path d="M39.6191 28.9522H38.0953V16.7617H39.6191V28.9522Z" fill="white"/>
<path d="M151.704 12.4962C150.861 11.5295 149.825 11.0461 148.577 11.0461C147.33 11.0461 146.293 11.5295 145.45 12.4962C144.607 13.445 144.202 14.6445 144.202 16.0409C144.202 17.4373 144.624 18.6009 145.45 19.5676C146.276 20.5344 147.33 21.0177 148.577 21.0177C149.825 21.0177 150.861 20.5344 151.704 19.5676C152.548 18.6009 152.969 17.4193 152.969 16.0409C152.969 14.6624 152.548 13.4629 151.704 12.4962ZM160.559 14.3759V6.85693H163.809V32.7617H160.559V17.2761H156.114C155.851 19.1738 155.007 20.7671 153.584 22.0561C152.179 23.345 150.492 23.9895 148.577 23.9895C146.486 23.9895 144.694 23.2197 143.183 21.6622C141.69 20.1047 140.952 18.2429 140.952 16.0588C140.952 13.8747 141.708 11.9949 143.183 10.4374C144.677 8.89781 146.469 8.1101 148.577 8.1101C150.422 8.1101 152.038 8.70088 153.426 9.88244C154.814 11.064 155.675 12.5678 156.026 14.3759H160.542H160.559Z" fill="#273547"/>
<path d="M198.095 14.921V17.722H193.794V24.5923H190.514V6.97603H193.794V14.921H198.095ZM177.145 26.2306H193.794V36.5714H190.478V28.9083H177.145V26.2483V26.2306ZM181.554 13.7583C180.747 12.948 179.833 12.5604 178.812 12.5604C177.79 12.5604 176.876 12.9656 176.07 13.7583C175.263 14.551 174.851 15.5199 174.851 16.6298C174.851 17.7396 175.245 18.6733 176.07 19.466C176.876 20.2587 177.79 20.6639 178.812 20.6639C179.833 20.6639 180.747 20.2587 181.554 19.466C182.36 18.6556 182.772 17.722 182.772 16.6298C182.772 15.5375 182.36 14.5687 181.554 13.7583ZM187.647 9.45993V12.1376H183.686C184.349 12.7366 184.887 13.4412 185.299 14.2163C185.711 15.0091 185.926 15.8546 185.926 16.7707C185.926 18.5852 185.227 20.153 183.848 21.4742C182.468 22.7778 180.783 23.4473 178.812 23.4473C176.84 23.4473 175.156 22.7955 173.776 21.4742C172.396 20.153 171.715 18.5852 171.715 16.7707C171.715 15.8546 171.93 15.0091 172.342 14.2163C172.754 13.4236 173.292 12.7366 173.937 12.1376H169.905V9.45993H177.073V6.09521H180.658V9.45993H187.647Z" fill="#273547"/>
<path d="M216.021 27.2906V24.7106H222.309V6.47146H225.524V29.4764H222.309V27.2906H216.021ZM212.051 29.4943V33.7585H225.524V36.5714H208.801V29.4943H212.033H212.051ZM213.228 15.3044C213.983 14.5519 214.37 13.6381 214.37 12.581C214.37 11.524 213.983 10.6102 213.228 9.83979C212.472 9.08729 211.577 8.71104 210.523 8.71104C209.469 8.71104 208.59 9.08729 207.835 9.83979C207.062 10.5923 206.676 11.506 206.676 12.581C206.676 13.656 207.062 14.5519 207.835 15.3044C208.608 16.0569 209.504 16.4331 210.523 16.4331C211.541 16.4331 212.472 16.0569 213.228 15.3044ZM215.511 7.99437C216.881 9.26645 217.566 10.7894 217.566 12.5989C217.566 14.4085 216.881 15.9135 215.511 17.2035C214.141 18.4756 212.472 19.1206 210.523 19.1206C208.573 19.1206 206.904 18.4756 205.534 17.2035C204.182 15.9314 203.496 14.3906 203.496 12.5989C203.496 10.8073 204.182 9.24854 205.534 7.99437C206.887 6.72229 208.555 6.09521 210.523 6.09521C212.49 6.09521 214.141 6.72229 215.511 7.99437ZM207.87 23.4385L201.143 23.4744V20.8585H206.693C208.942 20.8585 211.471 20.7689 214.282 20.6077C217.092 20.4464 219.27 20.2673 220.834 20.0881V22.6323C219.92 22.7756 218.656 22.901 217.057 23.0264C215.459 23.1519 213.79 23.2594 212.086 23.3489V27.631H208.784V23.4564H207.87V23.4385Z" fill="#273547"/>
<path d="M111.054 18.5192H110.983C111.285 16.9815 111.392 15.2423 111.392 14.089H108.19V32.762H111.499V25.2562C111.499 19.2881 113.331 16.3956 117.191 17.073L117.333 13.7595C113.705 13.3384 111.819 15.938 111.054 18.5375" fill="#273547"/>
<path d="M134.095 6.09521H131.048V32.7619H134.095V6.09521Z" fill="#273547"/>
<path d="M124.19 14.4761H121.143V32.7618H124.19V14.4761Z" fill="#273547"/>
<path d="M122.667 6.85693C121.413 6.85693 120.381 7.86646 120.381 9.1236C120.381 10.3807 121.413 11.4284 122.667 11.4284C123.92 11.4284 124.952 10.3807 124.952 9.1236C124.952 7.86646 123.92 6.85693 122.667 6.85693Z" fill="#273547"/>
<path d="M94.2571 29.8233C92.9944 29.8233 91.9482 29.6813 90.9921 29.3797V23.4008C90.9921 20.2251 92.7058 16.4106 96.0429 16.4106C98.8388 16.4106 100.138 18.6283 100.138 22.5315C100.138 27.7298 97.7926 29.8055 94.2571 29.8055M96.8546 13.7139C93.9143 13.7139 91.6776 15.2397 90.6314 17.759L90.5592 17.7235C90.7757 16.6945 90.8478 15.0622 90.8478 14.051H87.619V41.1424H90.9741V32.1474C92.0564 32.3248 92.9403 32.3603 94.0947 32.3603C100.083 32.3603 103.619 28.6878 103.619 22.2476C103.619 16.7122 101.166 13.7316 96.8365 13.7316" fill="#273547"/>
<path d="M69.6869 24.1567L72.9024 15.2251C73.3874 13.9543 73.7467 12.6472 74.0521 11.4309H74.124C74.4293 12.738 74.7527 13.9361 75.2377 15.1887L78.5071 24.1567H69.6869ZM72.3635 7.61865L63.238 32.7615H66.723L68.8067 26.8797H79.4412L81.507 32.7615H85.3332L76.1359 7.61865H72.3635Z" fill="#273547"/>
</g>
<defs>
<clipPath id="clip0_26_443">
<rect width="225.524" height="48" fill="white"/>
</clipPath>
</defs>
</svg>
