<svg width="164" height="84" viewBox="0 0 164 84" fill="none" xmlns="http://www.w3.org/2000/svg">
<path d="M77.5034 12.7536C75.6031 12.7536 73.8991 13.5659 72.7055 14.8467V-0.000244141H34V38.4956H49.3911C47.8284 37.3085 46.8233 35.4419 46.8233 33.341C46.8233 29.7483 49.7445 26.843 53.3567 26.843C56.9689 26.843 59.89 29.7483 59.89 33.341C59.89 35.4497 58.877 37.3085 57.3222 38.4956H72.7133V23.6487C73.9069 24.9373 75.6109 25.7418 77.5113 25.7418C81.1235 25.7418 84.0446 22.8364 84.0446 19.2438C84.0446 15.6511 81.1235 12.7458 77.5113 12.7458L77.5034 12.7536Z" fill="#FF601F"/>
<path d="M107.19 43.5032C107.19 41.6028 106.351 39.8988 105.027 38.7052H120.369V-0.000244141H80.5902V15.3909C81.8169 13.8282 83.7457 12.8231 85.9248 12.8231C89.6371 12.8231 92.6393 15.7442 92.6393 19.3564C92.6393 22.9686 89.6371 25.8898 85.9248 25.8898C83.7457 25.8898 81.825 24.8768 80.5902 23.322V38.7131H95.9321C94.6004 39.9067 93.7692 41.6107 93.7692 43.511C93.7692 47.1232 96.7714 50.0444 100.484 50.0444C104.196 50.0444 107.198 47.1232 107.198 43.511L107.19 43.5032Z" fill="#145681"/>
<path d="M76.8656 71.2454C78.7659 71.2454 80.4699 70.4332 81.6635 69.1523V83.9993H120.369V45.5034H104.978C106.533 46.6905 107.546 48.5572 107.546 50.6581C107.546 54.2507 104.617 57.1561 101.012 57.1561C97.408 57.1561 94.4789 54.2507 94.4789 50.6581C94.4789 48.5494 95.4919 46.6905 97.0467 45.5034H81.6556V60.3504C80.462 59.0617 78.758 58.2573 76.8577 58.2573C73.2455 58.2573 70.3243 61.1626 70.3243 64.7553C70.3243 68.3479 73.2534 71.2532 76.8577 71.2532L76.8656 71.2454Z" fill="#AD51BC"/>
<path d="M46.7539 39.3741C46.7539 41.3234 47.5661 43.0714 48.847 44.2958H34V83.9999H72.4959V68.2117C71.3087 69.8147 69.4421 70.8458 67.3412 70.8458C63.7486 70.8458 60.8432 67.8412 60.8432 64.1438C60.8432 60.4465 63.7486 57.4419 67.3412 57.4419C69.4499 57.4419 71.3087 58.481 72.4959 60.084V44.2958H57.6489C58.9376 43.0714 59.742 41.3234 59.742 39.3741C59.742 35.6687 56.8367 32.6721 53.244 32.6721C49.6514 32.6721 46.746 35.6767 46.746 39.3741H46.7539Z" fill="#FCE05B"/>
<path d="M83.066 40.0617L111.296 49.2345L119.673 26.7907L92.2859 17.0894L83.066 40.0617Z" fill="white"/>
<path d="M72.4733 56.2917L91.6079 70.4483L103.553 53.1636L84.1586 40.237L72.4733 56.2917Z" fill="#53B9C1"/>
<path d="M101.141 52.3029C101.141 52.3029 98.1259 47.8366 97.018 47.1124C95.9101 46.3883 92.047 45.4128 91.8634 44.3814C91.8634 44.3814 89.2066 49.7743 95.92 54.4393L97.6913 55.9013L101.141 52.303L101.141 52.3029Z" fill="#E0AD9D"/>
<path d="M104.206 42.3841L88.4913 25.2644L76.2164 35.4153L91.5847 53.0057L104.206 42.3841Z" fill="#FCF577"/>
<path d="M86.1467 33.8502C86.0848 33.6189 86.0653 33.3606 86.0889 33.0791C86.2116 31.6102 87.4283 29.9651 88.0194 29.5316C88.9048 28.882 91.5952 30.0422 91.8991 30.1763L91.9157 30.1862C93.5652 31.4263 93.186 33.3297 93.1817 33.3487L93.1803 33.3536C92.7218 34.9026 91.9248 35.827 90.8115 36.1016C89.1875 36.5022 87.331 35.3646 86.5423 34.5536C86.3777 34.3844 86.2551 34.1828 86.1784 33.9551C86.1669 33.9205 86.1562 33.8857 86.1466 33.8498L86.1467 33.8502ZM91.8215 30.328C90.8199 29.8904 88.7674 29.1935 88.1202 29.6686C87.5505 30.0866 86.3772 31.6743 86.2585 33.0932C86.2113 33.6581 86.348 34.1095 86.6647 34.4352C87.427 35.2192 89.2158 36.3202 90.7714 35.9366C91.8211 35.6777 92.5767 34.794 93.0167 33.31C93.0307 33.235 93.3389 31.4748 91.8219 30.3279L91.8215 30.328Z" fill="#F4764E"/>
<path d="M91.1782 39.293C91.1162 39.0618 91.0967 38.803 91.1204 38.5219C91.2431 37.053 92.4598 35.408 93.0508 34.9744C93.9366 34.3243 96.6267 35.485 96.9306 35.6192L96.9472 35.6291C98.5984 36.8705 98.2175 38.7725 98.2132 38.7916L98.2118 38.7965C97.7533 40.3455 96.9563 41.2699 95.843 41.5444C94.2186 41.9452 92.3625 40.8075 91.5736 39.9961C91.4091 39.8268 91.2865 39.6253 91.2098 39.3975C91.1984 39.3634 91.1876 39.3282 91.1781 39.2926L91.1782 39.293ZM96.8529 35.7709C95.8514 35.3333 93.7993 34.6363 93.1516 35.1115C92.5819 35.5294 91.4086 37.1172 91.29 38.5361C91.2428 39.1009 91.3795 39.5524 91.6962 39.8781C92.4585 40.6621 94.2473 41.7631 95.803 41.3799C96.8527 41.121 97.6083 40.2373 98.0483 38.7533C98.0623 38.6783 98.3706 36.9185 96.8535 35.7712L96.8529 35.7709Z" fill="#F4764E"/>
<path d="M80.422 38.1241C80.36 37.8929 80.3406 37.6345 80.3642 37.353C80.4869 35.8841 81.704 34.239 82.2946 33.8055C83.1801 33.1559 85.8704 34.3161 86.1744 34.4502L86.191 34.4601C87.8405 35.7002 87.4613 37.6036 87.457 37.6227L87.4556 37.6275C86.9971 39.1765 86.2001 40.1009 85.0868 40.3755C83.4623 40.7762 81.6063 39.6385 80.8174 38.8271C80.6529 38.6579 80.5303 38.4563 80.4536 38.2286C80.4422 38.1944 80.4314 38.1592 80.4219 38.1237L80.422 38.1241ZM86.0967 34.6019C85.9386 34.5336 83.188 33.3609 82.395 33.9426C81.8253 34.3606 80.652 35.9483 80.5335 37.3677C80.4863 37.9325 80.623 38.384 80.9397 38.7097C81.7019 39.4937 83.4908 40.5947 85.0463 40.2111C86.0961 39.9522 86.8516 39.0685 87.2917 37.5845C87.3058 37.5085 87.6128 35.7487 86.0968 34.6023L86.0967 34.6019Z" fill="#F4764E"/>
<path d="M86.0451 44.4472C85.9831 44.2159 85.9636 43.9572 85.9873 43.6761C86.11 42.2072 87.3271 40.562 87.9177 40.1286C88.8186 39.4677 91.6761 40.7198 91.7975 40.7733L91.8141 40.7832C93.4615 42.0221 93.0844 43.9267 93.0801 43.9457L93.0788 43.951C92.6203 45.5 91.8233 46.4244 90.71 46.699C89.0856 47.0997 87.2295 45.962 86.4407 45.1506C86.2761 44.9814 86.1535 44.7798 86.0768 44.5521C86.0654 44.5179 86.0546 44.4827 86.0451 44.4472ZM91.7199 40.925C90.7187 40.4873 88.6665 39.7899 88.0186 40.2656C87.4489 40.6836 86.2751 42.2714 86.157 43.6907C86.1098 44.2555 86.2465 44.707 86.5632 45.0326C87.3255 45.8167 89.1143 46.9177 90.6699 46.534C91.7196 46.2752 92.4752 45.3915 92.9152 43.9075C92.9292 43.8324 93.2375 42.0727 91.7204 40.9253L91.7199 40.925Z" fill="#F4764E"/>
<path d="M100.072 51.6667C100.072 51.6667 99.3612 46.2674 99.4364 44.7602C99.5113 43.253 96.8657 44.4078 97.3561 49.4378C97.7938 53.928 100.073 51.6666 100.073 51.6666L100.072 51.6667Z" fill="#E0AD9D"/>
<path d="M99.2501 45.4932C99.0853 45.497 98.9458 45.2256 98.9375 44.8867C98.9296 44.5478 99.0564 44.27 99.2208 44.2663C99.3856 44.2624 99.5251 44.5339 99.5334 44.8727C99.5413 45.2117 99.4145 45.4895 99.2501 45.4932Z" fill="#CE9586"/>
<path d="M106.952 26.283C106.952 26.283 121.312 18.6012 136.731 22.3707C147.256 24.944 158.884 32.2862 156.904 52.716C155.483 67.3789 139.962 80.369 125.955 77.3685C112.725 74.5346 105.31 69.5212 96.5126 55.5448L101.276 51.1871C101.276 51.1871 120.108 71.1526 134.849 64.2905C151.589 56.4977 144.33 39.2129 137.903 34.5345C132.492 30.5964 120.636 28.6415 109.075 33.2313L106.952 26.2824L106.952 26.283Z" fill="#FDE386"/>
<path d="M120.16 45.5687C120.16 45.5687 117.383 44.4218 116.589 46.2212C115.794 48.0212 119.934 49.2879 119.934 49.2879L120.16 45.5682L120.16 45.5687Z" fill="#E0AD9D"/>
<path d="M130.388 63.5706C130.388 63.5706 130.444 67.6616 129.04 68.1802C127.637 68.6993 126.617 66.5868 128.915 62.4864L130.388 63.5702L130.388 63.5706Z" fill="#E0AD9D"/>
<path d="M135.033 34.2646C135.033 34.2646 136.455 30.4285 135.306 29.4697C134.157 28.5105 132.489 30.1599 133.282 34.793L135.033 34.2646Z" fill="#E0AD9D"/>
<path d="M150.466 50.7423C151.021 47.4826 149.417 31.2541 134.552 32.3029C115.786 33.6275 114.25 57.7811 125.784 63.5044C137.048 69.094 147.936 65.5933 150.465 50.742L150.466 50.7423Z" fill="#E0AD9D"/>
<path d="M122.317 44.9116C122.311 44.8915 122.307 44.87 122.308 44.8478C122.371 43.0008 122.985 41.5186 123.489 40.6006C124.037 39.6038 124.564 39.0491 124.586 39.0262C124.655 38.9543 124.77 38.952 124.841 39.021C124.913 39.0901 124.916 39.2042 124.847 39.276C124.826 39.2977 122.785 41.4684 122.669 44.8606C122.665 44.9601 122.582 45.038 122.482 45.0347C122.405 45.0321 122.341 44.9812 122.318 44.9121L122.317 44.9116Z" fill="#893620"/>
<path d="M122.561 43.9843C122.063 43.7192 121.742 43.2881 121.84 42.598C121.987 41.5599 122.741 41.1069 123.523 40.9225C123.116 41.7151 122.722 42.7515 122.561 43.9843Z" fill="#893620"/>
<path d="M121.622 56.3919C121.513 56.0721 121.371 55.5773 121.27 54.9496C121.102 53.9158 121.02 52.3136 121.579 50.5521C121.609 50.4571 121.711 50.4048 121.805 50.4346C121.9 50.4647 121.953 50.5658 121.923 50.6608C120.894 53.9024 122.093 56.6249 122.105 56.6521C122.146 56.743 122.106 56.8497 122.015 56.8906C121.924 56.9315 121.818 56.8911 121.777 56.8003C121.771 56.7875 121.707 56.6441 121.622 56.3913L121.622 56.3919Z" fill="#893620"/>
<path d="M121.527 51.4506C120.97 51.5337 120.522 51.8324 120.384 52.5153C120.176 53.5428 120.735 54.2222 121.409 54.6577C121.291 53.7742 121.267 52.666 121.527 51.4506Z" fill="#893620"/>
<path d="M122.963 56.6914C122.752 55.8114 122.964 54.7164 123.203 53.1276C123.446 51.5084 123.932 50.2815 124.366 50.9266C124.617 51.3 124.536 52.3342 124.369 53.5541C124.08 55.6722 123.304 58.1207 122.963 56.6914Z" fill="#893620"/>
<path d="M125.877 39.7854C125.384 40.5444 125.137 41.6333 124.831 43.2102C124.518 44.8173 124.645 46.15 125.269 45.6873C125.63 45.4198 125.821 44.4041 126.072 43.1988C126.509 41.1058 126.676 38.5528 125.877 39.785L125.877 39.7854Z" fill="#893620"/>
<path d="M135.648 31.9633C131.206 32.454 128.028 42.0647 132.88 48.4228C134.574 50.6416 148.89 52.5945 150.296 51.658C153.747 49.3595 149.482 30.4344 135.648 31.9629L135.648 31.9633Z" fill="#893620"/>
<path d="M129.773 65.5984C125.751 63.6485 130.24 48.7475 133.314 49.1166C140.667 49.9983 148.948 51.9211 150.594 51.6284C152.347 56.6817 142.297 71.6704 129.773 65.5988L129.773 65.5984Z" fill="#893620"/>
<path d="M145.333 31.9585C144.468 31.8095 141.981 32.4828 141.463 35.1482C141.105 36.9889 143.528 40.3891 145.571 41.0097C146.886 41.4091 149.852 40.2257 150.118 38.4998C150.565 35.5948 147.107 32.264 145.333 31.9582L145.333 31.9585Z" fill="#298F91"/>
<path d="M144.373 33.0213C146.153 29.4468 148.306 26.4823 151.203 20.779C151.662 19.8757 154.534 18.1018 157.18 22.224C157.622 22.9148 158.63 25.4487 158.451 27.2854C158.393 27.8927 159.475 26.5625 160.642 26.2101C161.81 25.8578 164.342 28.0237 163.692 29.6407C161.795 34.3538 152.456 37.9149 149.735 38.9255C149.57 38.9868 149.409 39.0383 149.252 39.0807C147.321 39.2866 143.41 34.9528 144.372 33.0204L144.373 33.0213Z" fill="#893620"/>
<path d="M139.221 67.4175C138.356 67.2684 136.238 65.8014 136.642 63.116C136.921 61.2619 140.343 58.8691 142.476 58.9681C143.849 59.0319 146.247 61.1398 145.92 62.8553C145.369 65.7423 140.996 67.7231 139.222 67.4174L139.221 67.4175Z" fill="#298F91"/>
<path d="M138.672 66.0946C139.153 70.0587 137.471 73.9813 138.292 80.3249C138.422 81.3299 143.251 83.5545 147.125 80.5563C147.773 80.0535 148.812 77.9882 149.794 78.7106C150.777 79.4334 154.981 77.6679 154.909 75.9261C154.7 70.8503 147.927 64.1888 145.701 62.3255C145.566 62.2125 145.432 62.11 145.299 62.0179C143.548 61.1777 138.412 63.9515 138.671 66.0947L138.672 66.0946Z" fill="#893620"/>
<path d="M131.674 62.0317C133.687 61.5947 129.998 67.1878 125.94 64.903C124.094 63.8635 129.663 62.469 131.674 62.0317Z" fill="#893620"/>
<path d="M135.334 36.4301C137.084 37.5156 136.127 30.4322 130.891 31.8048C129.18 32.2535 133.584 35.3446 135.334 36.4301Z" fill="#893620"/>
<g clip-path="url(#clip0_59_2550)">
<path d="M105.543 35.852C104.4 35.9411 106.54 30.7964 108.521 30.4352L109.302 32.6956C108.518 33.499 106.222 35.7989 105.543 35.852Z" fill="#CE9586"/>
<path d="M101.114 23.6968L101.674 24.1499C101.798 24.2498 101.811 24.4303 101.703 24.5529C101.595 24.6755 101.407 24.6936 101.284 24.5936C101.235 24.5542 101.204 24.5025 101.19 24.4465L101.019 23.7549C101.012 23.725 101.032 23.6944 101.063 23.6861C101.081 23.6811 101.101 23.6859 101.114 23.6968Z" fill="#89AADB"/>
<path d="M101.183 24.6615C101.117 24.4894 101.801 24.1285 101.913 24.3114L110.738 38.7719C110.849 38.9547 110.783 39.1949 110.59 39.3081C110.397 39.4217 110.149 39.3655 110.038 39.1829L101.213 24.7226C101.201 24.7031 101.191 24.6826 101.183 24.6615Z" fill="#DB5D31"/>
<path d="M107.2 26.5192C107.2 26.5192 101.634 26.8788 100.705 28.1695C99.7491 29.4959 101.327 35.1542 102.725 35.0648C105.053 34.9164 109.282 32.6076 109.282 32.6076L107.2 26.5192Z" fill="#E0AD9D"/>
</g>
<path d="M52.9118 27.3248C52.9118 27.3248 57.5467 30.0742 58.8576 30.2557C60.1688 30.4368 64.0783 29.6681 64.6848 30.5216C64.6848 30.5216 64.7824 24.5107 56.7195 23.1619L54.4932 22.5969L52.9121 27.3244L52.9118 27.3248Z" fill="#E0AD9D"/>
<path d="M52.6432 51.4159C52.6432 51.4159 56.1823 47.3519 57.3703 46.7686C58.5584 46.1853 62.512 45.6895 62.8203 44.6887C62.8203 44.6887 64.7979 50.3661 57.5639 54.1749L55.6268 55.4095L52.643 51.4162L52.6432 51.4159Z" fill="#E0AD9D"/>
<path d="M42.7433 29.8853L43.2609 49.8471L69.6799 49.3979L68.7576 29.1534L42.7433 29.8853Z" fill="white"/>
<path d="M61.4917 35.7834C61.4917 35.7834 65.0052 36.7821 65.2923 37.2633C65.5793 37.7445 62.1824 41.693 61.6382 41.4588C61.0941 41.2246 60.318 36.384 61.4914 35.7837L61.4917 35.7834Z" fill="#53B9C1"/>
<path d="M48.2006 42.1054C48.9439 42.5686 51.647 41.4792 51.647 41.4792C51.647 41.4792 51.7244 38.2981 51.2399 38.2283C50.7553 38.1585 48.225 37.6759 47.7913 38.4054C47.3578 39.1354 47.4109 41.6125 48.2004 42.1048L48.2006 42.1054Z" fill="#893620"/>
<path d="M56.4951 35.0872C56.4951 35.0872 61.7384 37.794 62.1143 38.427C62.4903 39.0599 58.0149 44.239 57.3005 43.93C56.5863 43.6206 54.9512 35.873 56.4949 35.0876L56.4951 35.0872Z" fill="#53B9C1"/>
<path d="M50.8151 35.3871C50.8151 35.3871 57.8275 38.2689 58.2044 38.9009C58.5813 39.533 51.6624 44.9884 50.9473 44.6805C50.2323 44.3727 49.2729 36.1758 50.8151 35.3871Z" fill="#53B9C1"/>
<path d="M53.7818 50.9156C53.7818 50.9156 55.148 45.6435 55.2579 44.1388C55.368 42.6337 57.8523 44.1035 56.7507 49.0359C55.7671 53.4384 53.7818 50.9156 53.7818 50.9156Z" fill="#E0AD9D"/>
<path d="M54.15 27.4429C54.15 27.4429 57.0999 32.0205 57.6765 33.4151C58.2526 34.8095 60.1511 32.6348 57.5585 28.297C55.2441 24.4248 54.15 27.4429 54.15 27.4429Z" fill="#E0AD9D"/>
<path d="M58.7777 53.3324C58.7777 53.3324 49.0774 66.4141 33.5267 69.5949C22.911 71.7663 9.26115 70.0972 2.32033 50.7806C-2.66121 36.9167 5.82018 18.5398 19.7665 15.2665C32.9382 12.1748 41.7851 13.5389 55.7109 22.4153L53.2668 28.3907C53.2668 28.3907 27.7089 18.3878 17.3141 30.8906C5.5094 45.0898 19.4586 57.615 27.2688 59.0978C33.8431 60.346 45.3977 57.0472 53.8891 47.9565L58.7775 53.3318L58.7777 53.3324Z" fill="#AECFFF"/>
<path d="M38.5948 41.5405C38.5948 41.5405 41.5956 41.3909 41.5443 39.4242C41.4937 37.4573 37.2095 38.0807 37.2095 38.0807L38.5945 41.5403L38.5948 41.5405Z" fill="#E0AD9D"/>
<path d="M30.7994 58.9674C30.7994 58.9674 31.1531 63.0434 32.6017 63.4193C34.0503 63.7953 34.8533 61.5914 32.157 57.7417L30.7994 58.9674Z" fill="#E0AD9D"/>
<path d="M22.2806 28.2888C22.2806 28.2888 20.4821 24.614 21.5296 23.5451C22.5772 22.4763 24.4015 23.9505 24.076 28.6391L22.2809 28.2885L22.2806 28.2888Z" fill="#E0AD9D"/>
<path d="M8.98511 49.8141C9.87607 52.9985 18.2608 66.9855 31.2521 59.6846C47.6529 50.4674 38.7192 27.9746 25.8456 27.729C13.2737 27.4892 4.92548 35.3068 8.98549 49.8143L8.98511 49.8141Z" fill="#E0AD9D"/>
<path d="M37.374 49.3807C37.332 49.4534 37.2434 49.4892 37.1605 49.4613C37.0661 49.4299 37.0153 49.3275 37.0467 49.2332C37.056 49.2051 37.9738 46.3702 36.6294 43.2535C36.5897 43.1621 36.632 43.056 36.7238 43.0165C36.8152 42.9768 36.9212 43.019 36.9607 43.1108C37.6927 44.8077 37.7713 46.4102 37.7076 47.4557C37.6387 48.5907 37.3989 49.3176 37.3888 49.3482C37.3849 49.36 37.3796 49.3709 37.3738 49.381L37.374 49.3807Z" fill="#893620"/>
<path d="M37.1018 43.999C37.6649 44.0263 38.1397 44.2784 38.3461 44.9444C38.6562 45.9458 38.1681 46.6778 37.5401 47.1785C37.5695 46.2877 37.4826 45.1827 37.1018 43.999Z" fill="#893620"/>
<path d="M35.16 37.7557C35.1329 37.8025 35.0853 37.8365 35.0278 37.8443C34.929 37.8578 34.8382 37.7883 34.8251 37.6898C34.37 34.3262 32.1219 32.3704 32.0996 32.351C32.024 32.2863 32.0147 32.1725 32.0794 32.0969C32.144 32.0212 32.2579 32.012 32.3335 32.0766C32.3581 32.0973 32.9383 32.5963 33.5824 33.5335C34.1759 34.3966 34.9346 35.8099 35.1823 37.6416C35.188 37.6829 35.1792 37.7223 35.16 37.7557Z" fill="#893620"/>
<path d="M34.845 36.8076C35.3137 36.4938 35.5904 36.0327 35.4237 35.3561C35.1731 34.3381 34.3775 33.9627 33.581 33.8573C34.0658 34.6056 34.561 35.5973 34.8447 36.8074L34.845 36.8076Z" fill="#893620"/>
<path d="M31.3077 32.6821C31.8736 33.3878 32.1508 34.4686 32.6134 36.007C33.0849 37.5749 33.1699 38.8917 32.5021 38.4942C32.1156 38.264 31.7473 37.294 31.3769 36.1199C30.7334 34.0812 30.3886 31.5361 31.3077 32.6821Z" fill="#893620"/>
<path d="M35.8976 49.2121C36.0187 48.3157 35.7763 47.2255 35.3794 45.6686C34.9752 44.082 34.2916 42.9309 33.9244 43.6163C33.7121 44.0126 33.9739 45.0121 34.2614 46.2094C34.7614 48.2881 35.7008 50.6681 35.8972 49.2119L35.8976 49.2121Z" fill="#893620"/>
<path d="M21.5292 41.182C21.5292 41.182 34.3631 48.0742 32.391 50.6994C30.4186 53.3243 25.1538 50.2357 25.1538 50.2357C25.1538 50.2357 34.6138 57.3226 32.9866 58.7332C29.2901 61.9374 20.8616 64.5352 13.3855 57.6788C5.35967 50.3182 5.72882 39.5311 10.8019 33.2179C15.9773 26.7769 22.9337 26.9964 24.1141 27.6429C25.318 28.3025 21.9842 34.3946 21.9842 34.3946C21.9842 34.3946 28.5338 38.309 28.9495 41.088C29.3652 43.8669 21.5294 41.1816 21.5294 41.1816L21.5292 41.182Z" fill="#893620"/>
<defs>
<clipPath id="clip0_59_2550">
<rect width="18" height="8" fill="white" transform="translate(105.473 22) rotate(69.0803)"/>
</clipPath>
</defs>
</svg>
