<svg width="94" height="104" viewBox="0 0 94 104" fill="none" xmlns="http://www.w3.org/2000/svg">
<g clip-path="url(#clip0_59_2554)">
<path d="M27.9816 55.4908C28.086 54.8812 27.9605 54.2775 27.6194 53.7569L24.7788 49.4087L16.5489 53.3372C15.4094 53.8812 14.9662 55.0113 15.5629 55.8566L21.5384 64.321L23.2067 68.2835L28.1153 66.6375L26.7554 62.6504L27.9805 55.4908H27.9816Z" fill="#FFEACA"/>
<path d="M20.5091 38.7192C18.9921 38.9982 21.2571 51.2997 21.2571 51.2997L24.7788 49.4087C23.2583 43.6513 22.0249 38.4402 20.5091 38.7192Z" fill="#FFEACA"/>
<path d="M27.5151 54.3783L24.5068 52.4544C24.3873 52.3771 24.2325 52.3806 24.1153 52.4627L20.1574 55.2376C20.0601 55.3056 20.0038 55.4182 20.0074 55.5366C20.0109 55.655 20.0742 55.764 20.175 55.8261C21.2207 56.4686 22.3157 56.4193 23.1493 56.2083C22.5549 57.4276 22.9066 58.8613 23.2806 59.6116C23.3427 59.7347 23.4658 59.8063 23.5947 59.8063C23.6475 59.8063 23.7003 59.7945 23.7507 59.7699C23.9242 59.6832 23.9957 59.4733 23.9101 59.2986C23.862 59.2002 22.746 56.8859 24.5725 55.6151C24.7296 55.5061 24.7706 55.2915 24.6639 55.1321C24.5584 54.9727 24.3439 54.9281 24.1821 55.0301C24.1774 55.0336 23.6745 55.3502 22.9664 55.526C22.2653 55.7007 21.6229 55.6819 21.0484 55.4721L24.3251 53.1743L27.1341 54.9715C27.2982 55.0758 27.5151 55.0278 27.6194 54.8648C27.7238 54.7007 27.6769 54.4838 27.5127 54.3794L27.5151 54.3783Z" fill="#F6AD3C"/>
<path d="M21.5314 51.0782C21.4095 50.927 21.1879 50.9035 21.0367 51.0254C20.8854 51.1474 20.862 51.3689 20.9839 51.5202C21.3204 51.9375 22.2184 53.1521 22.331 53.7629C22.3626 53.9329 22.5103 54.0513 22.6768 54.0513C22.6979 54.0513 22.719 54.0489 22.7413 54.0454C22.9324 54.0102 23.059 53.8273 23.0238 53.6363C22.8585 52.7406 21.6674 51.2458 21.5314 51.0782Z" fill="#F6AD3C"/>
<path d="M18.9592 52.0407C18.8209 52.1767 18.8186 52.3994 18.9545 52.5378C19.9956 53.5976 20.8854 54.7394 20.896 55.029C20.8901 55.2236 21.0425 55.3854 21.2371 55.3913C21.2406 55.3913 21.2441 55.3913 21.2477 55.3913C21.4364 55.3913 21.5935 55.2412 21.5994 55.0501C21.6216 54.3279 20.1081 52.7077 19.4563 52.0442C19.3203 51.9059 19.0976 51.9035 18.9592 52.0395V52.0407Z" fill="#F6AD3C"/>
<path d="M22.0085 55.9422C21.815 55.9586 21.6708 56.1263 21.6872 56.3197C21.6872 56.3303 21.699 56.5753 21.5219 56.7101C21.3965 56.8062 21.0718 56.9235 20.2875 56.682C19.9299 56.1849 18.3085 53.9738 17.2616 53.2587C17.101 53.1497 16.8818 53.1907 16.7728 53.3513C16.6637 53.5119 16.7048 53.73 16.8654 53.8402C17.9181 54.5589 19.7646 57.1591 19.7822 57.1849C19.8256 57.2459 19.8877 57.2916 19.958 57.315C20.3824 57.4569 20.7564 57.5272 21.0788 57.5272C21.4399 57.5272 21.7341 57.4381 21.9604 57.2611C22.3379 56.9645 22.4071 56.4967 22.3883 56.267C22.3719 56.0735 22.2019 55.927 22.0085 55.9434V55.9422Z" fill="#F6AD3C"/>
<path d="M19.1152 55.9446C18.9182 55.9376 18.7588 56.0911 18.7529 56.2857C18.7306 57.0091 18.4399 57.2131 18.2898 57.2693C17.4692 56.7688 17.2535 55.6785 17.2511 55.6679C17.216 55.4768 17.0331 55.3502 16.842 55.3854C16.6509 55.4206 16.5243 55.6034 16.5595 55.7945C16.5712 55.8567 16.8537 57.3268 18.0741 57.954C18.1234 57.9798 18.1796 57.9927 18.2347 57.9927C18.2406 57.9927 18.2476 57.9927 18.2535 57.9927C18.6521 57.9716 19.4165 57.5906 19.4552 56.3069C19.461 56.1122 19.3086 55.9505 19.114 55.9446H19.1152Z" fill="#F6AD3C"/>
<path d="M56.4896 4.86414C45.5984 4.86414 36.8387 11.7376 34.0297 21.896C31.2208 32.0544 23.0448 50.3701 44.5574 54.7922C55.9737 57.1392 67.519 57.1345 75.9869 51.7769C85.8382 45.5447 83.769 35.4249 80.0081 22.4048C76.5239 10.3425 67.8426 4.86414 56.4896 4.86414Z" fill="#2E1E0C"/>
<path d="M44.7122 48.5436C44.718 47.1543 45.0522 46.3536 45.0592 46.3384C45.1635 46.0992 45.0545 45.8202 44.8153 45.7147C44.575 45.6092 44.2948 45.7182 44.1893 45.9585C44.1248 46.1039 42.6547 49.5834 45.5457 54.9528C45.6313 55.1122 45.7954 55.2025 45.9642 55.2025C46.0404 55.2025 46.1178 55.1838 46.1893 55.1462C46.4203 55.022 46.507 54.7336 46.3828 54.5038C44.9924 51.9223 44.7075 49.839 44.7133 48.5459L44.7122 48.5436Z" fill="#513A21"/>
<path d="M65.6081 46.3853C65.369 46.492 65.2611 46.7721 65.3666 47.0113C65.825 48.043 65.8473 49.7687 65.4229 51.5143C65.002 53.2482 64.2318 54.6316 63.4123 55.1228C63.1872 55.2576 63.1145 55.5495 63.2494 55.7746C63.3385 55.9235 63.4956 56.0056 63.6573 56.0056C63.7406 56.0056 63.825 55.9833 63.9012 55.9376C66.0982 54.6199 67.4288 49.3103 66.2353 46.6256C66.1286 46.3864 65.8485 46.2786 65.6093 46.3841L65.6081 46.3853Z" fill="#513A21"/>
<path d="M71.4335 70.9929C71.4335 67.6458 63.2259 58.784 63.2259 58.784L56.0007 54.1814L48.6712 58.9118C48.6712 58.9118 40.5679 67.8182 40.5679 71.4818C40.5679 71.4818 42.1728 75.592 42.5491 80.8699C42.9266 86.1479 41.5632 101.871 41.5632 101.871L70.3772 102.944C70.3772 102.944 67.8098 87.2792 69.6949 79.7386C71.58 72.1981 71.4323 70.9917 71.4323 70.9917L71.4335 70.9929Z" fill="#F4E44C"/>
<path d="M60.0429 40.4005C60.0429 40.4005 51.9596 37.6466 52.4989 40.901C53.0381 44.1555 53.3969 55.1685 51.6008 58.6727C52.4989 60.1745 57.3489 63.4289 60.4028 58.4218C59.6842 56.92 58.4274 48.6597 60.0441 40.3993L60.0429 40.4005Z" fill="#FFEACA"/>
<path d="M68.308 14.7646C62.5834 25.9664 40.5948 21.8187 36.9594 31.0087C36.4529 32.2889 36.7155 33.7802 36.7155 35.2139C36.7155 48.8343 47.8868 50.3818 56.5646 50.3818C65.2423 50.3818 76.4136 48.8343 76.4136 35.2139C76.4136 26.7015 73.5168 19.1961 68.3092 14.7646H68.308Z" fill="#FFEACA"/>
<path d="M66.1943 9.93102C61.3654 8.09512 56.3254 8.08926 51.6208 9.91343C47.3171 11.5829 43.419 14.6955 40.3498 18.9159C36.7695 23.8386 34.6463 29.8399 34.3732 35.8142C34.0719 42.3981 36.0051 48.4849 39.9641 53.4158C40.0579 53.5331 40.1951 53.5929 40.3346 53.5929C40.4389 53.5929 40.5433 53.5589 40.6312 53.4885C40.8352 53.3244 40.868 53.0254 40.7039 52.8214C36.8914 48.0723 35.0297 42.207 35.3204 35.8575C35.5854 30.0673 37.644 24.2489 41.1165 19.4751C44.0779 15.4035 47.8294 12.4035 51.9631 10.7997C56.445 9.06114 61.2493 9.06817 65.8555 10.8197C66.1005 10.9134 66.3748 10.7892 66.4674 10.5442C66.5612 10.2991 66.4381 10.0248 66.1919 9.93219L66.1943 9.93102Z" fill="#513A21"/>
<path d="M65.5225 13.1609C65.3021 13.019 65.009 13.0811 64.866 13.3015C64.0676 14.5349 61.4603 16.5185 53.5704 18.9675C48.7884 20.4517 44.303 21.3955 44.2584 21.4048C44.0017 21.4588 43.8376 21.7096 43.8915 21.9664C43.9384 22.1903 44.1353 22.3439 44.3557 22.3439C44.3874 22.3439 44.4202 22.3404 44.453 22.3333C45.194 22.1786 62.642 18.4869 65.6632 13.8162C65.8062 13.5958 65.7429 13.3027 65.5225 13.1597V13.1609Z" fill="#513A21"/>
<path d="M71.8204 16.5068C71.6715 16.291 71.3761 16.2371 71.1604 16.386C70.9446 16.5349 70.8907 16.8303 71.0396 17.046C72.9576 19.8269 74.7337 24.6745 75.6739 29.6957C76.7806 35.6043 76.6575 41.1964 75.3304 45.4415C73.9447 49.873 71.3139 52.8472 67.5108 54.2822C67.2658 54.3748 67.1415 54.6491 67.2342 54.8942C67.3057 55.0841 67.4862 55.2013 67.6785 55.2013C67.7336 55.2013 67.791 55.1919 67.8461 55.1708C71.9365 53.6269 74.7595 50.4498 76.2366 45.7252C77.6095 41.3348 77.7419 35.5797 76.6071 29.5222C75.6446 24.3779 73.811 19.3919 71.8216 16.5079L71.8204 16.5068Z" fill="#513A21"/>
<path d="M56.0676 33.4531C56.8929 32.3546 56.9632 30.5984 56.2657 28.5081C56.1825 28.2595 55.914 28.1247 55.6655 28.208C55.4169 28.2912 55.2821 28.5597 55.3653 28.8082C55.9527 30.5679 55.9316 32.0533 55.3091 32.8821C54.921 33.398 54.3102 33.6441 53.4896 33.6113C53.3102 33.6043 53.139 33.7004 53.0535 33.8599C52.9679 34.0193 52.9796 34.2139 53.0851 34.3616C54.4755 36.3077 55.5494 36.7087 55.6666 36.7474C55.717 36.7638 55.7674 36.772 55.8179 36.772C56.0172 36.772 56.2047 36.6465 56.2704 36.4484C56.3536 36.1999 56.2223 35.9326 55.9738 35.8493C55.9668 35.847 55.3173 35.5973 54.3841 34.4906C55.0863 34.3476 55.6596 33.997 56.0687 33.4519L56.0676 33.4531Z" fill="#632D05"/>
<path d="M48.043 37.9083C49.1597 35.2123 47.8794 32.1214 45.1834 31.0047C42.4874 29.888 39.3966 31.1683 38.2798 33.8643C37.1631 36.5603 38.4434 39.6511 41.1394 40.7679C43.8354 41.8846 46.9263 40.6043 48.043 37.9083Z" fill="#F9C78D"/>
<path d="M69.1392 41.1695C72.0574 41.1695 74.423 38.8039 74.423 35.8857C74.423 32.9676 72.0574 30.6019 69.1392 30.6019C66.2211 30.6019 63.8555 32.9676 63.8555 35.8857C63.8555 38.8039 66.2211 41.1695 69.1392 41.1695Z" fill="#F9C78D"/>
<path d="M47.3617 27.521C46.3886 27.521 45.6008 28.31 45.6008 29.2819C45.6008 30.2537 46.3898 31.0427 47.3617 31.0427C48.3336 31.0427 49.1226 30.2537 49.1226 29.2819C49.1226 28.31 48.3336 27.521 47.3617 27.521Z" fill="#632D05"/>
<path d="M65.7768 30.506C66.455 29.8091 66.4398 28.6943 65.7429 28.016C65.0459 27.3378 63.9311 27.353 63.2528 28.0499C62.5746 28.7469 62.5898 29.8617 63.2867 30.5399C63.9837 31.2182 65.0985 31.203 65.7768 30.506Z" fill="#632D05"/>
<path d="M49.5834 38.7099C48.5787 47.5553 63.6562 47.7569 63.1205 38.1073C60.4393 40.2515 52.5318 40.0511 49.5834 38.7099Z" fill="white"/>
<path d="M63.3139 37.6736C63.1509 37.6009 62.9622 37.6255 62.8238 37.7357C61.6972 38.6372 59.3713 39.1847 56.4439 39.2398C53.7909 39.2891 51.1765 38.9116 49.7803 38.2773C49.6419 38.214 49.4825 38.221 49.35 38.2961C49.2176 38.3711 49.1296 38.5048 49.112 38.656C48.8248 41.1859 49.7604 43.2973 51.7463 44.5998C52.9867 45.4134 54.5142 45.8226 56.0582 45.8226C57.499 45.8226 58.9527 45.4662 60.1966 44.7487C62.5519 43.3911 63.7594 41.023 63.5953 38.0804C63.5859 37.9033 63.4768 37.7462 63.3151 37.6736H63.3139ZM59.7218 43.9269C57.4791 45.22 54.3431 45.1696 52.2668 43.8073C50.7604 42.819 49.9737 41.2656 50.0136 39.3887C53.1672 40.4649 59.5518 40.5939 62.6515 38.9713C62.5472 41.1472 61.5261 42.8882 59.723 43.928L59.7218 43.9269Z" fill="#632D05"/>
<path d="M49.9854 41.323L50.9232 39.1788L49.5833 38.7098L49.9854 41.323Z" fill="#632D05"/>
<path d="M62.4498 40.9209L63.1203 38.1073L61.2434 39.1788L62.4498 40.9209Z" fill="#632D05"/>
<path d="M65.1192 22.3802C64.1168 22.2876 63.0899 22.848 62.5002 23.8069C62.397 23.9746 62.4498 24.1938 62.6174 24.297C62.7851 24.4001 63.0043 24.3474 63.1075 24.1797C63.5494 23.4611 64.3314 23.0226 65.0547 23.0883C65.6386 23.1422 66.0946 23.5232 66.3396 24.161C66.3936 24.3028 66.5284 24.3896 66.6726 24.3896C66.7148 24.3896 66.7582 24.3814 66.8004 24.3661C66.9844 24.2958 67.0759 24.0895 67.0043 23.9066C66.662 23.0156 65.975 22.4587 65.1204 22.3802H65.1192Z" fill="#632D05"/>
<path d="M61.3232 60.7512C59.4404 62.4242 56.8401 63.1393 54.3665 62.6633C52.2234 62.2507 50.5024 61.0291 49.6443 59.3139C49.527 59.0795 49.241 58.9845 49.0077 59.1017C48.7732 59.219 48.6782 59.5039 48.7955 59.7383C49.7873 61.7208 51.7521 63.1264 54.1883 63.5954C54.7522 63.7044 55.3208 63.7571 55.8882 63.7571C58.1016 63.7571 60.2821 62.9482 61.9551 61.4617C62.1509 61.287 62.1685 60.9869 61.995 60.7911C61.8203 60.5953 61.5202 60.5777 61.3244 60.7512H61.3232Z" fill="#DBCD44"/>
<path d="M28.7553 65.2425C28.0496 63.2343 26.6826 65.0784 24.6755 65.783C22.6673 66.4887 20.7798 65.7877 21.4844 67.7959L29.3204 90.1057C29.8573 91.6344 31.2606 92.611 32.7847 92.679C33.263 92.7001 33.753 92.6321 34.2325 92.4645C36.2408 91.7599 37.2959 89.5606 36.5913 87.5523L28.7553 65.2425Z" fill="#F4E44C"/>
<path d="M28.2277 67.4337C28.1972 67.463 25.0893 70.3422 22.4234 69.1957C22.1819 69.0925 21.9029 69.2039 21.7997 69.4442C21.6966 69.6846 21.8079 69.9648 22.0483 70.0679C22.5852 70.2989 23.162 70.4138 23.7693 70.4138C24.7001 70.4138 25.7013 70.1441 26.7341 69.6095C27.9839 68.9624 28.842 68.1582 28.8784 68.1253C29.0695 67.946 29.0777 67.6458 28.8983 67.4548C28.7189 67.2637 28.4188 67.2555 28.2277 67.4348V67.4337Z" fill="#DBCD44"/>
<path d="M85.4099 70.0612H26.9089C25.4863 70.0612 24.364 71.0374 24.473 72.18L26.91 97.8631H85.4087L87.8469 72.18C87.956 71.0365 86.8336 70.0612 85.4111 70.0612H85.4099Z" fill="#EDEDED"/>
<path d="M85.63 96.7511H26.6898V98.9753H85.63V96.7511Z" fill="#616A6A"/>
<path d="M90.7241 98.9752H20.4849C18.9984 98.9752 17.7932 99.9711 17.7932 101.199C17.7932 102.428 18.9984 103.424 20.4849 103.424H90.7229C92.2094 103.424 93.4146 102.428 93.4146 101.199C93.4146 99.9711 92.2094 98.9752 90.7229 98.9752H90.7241Z" fill="#966226"/>
<path d="M55.6039 87.8545C59.289 87.8545 62.2763 86.6097 62.2763 85.0743C62.2763 83.5388 59.289 82.2941 55.6039 82.2941C51.9188 82.2941 48.9314 83.5388 48.9314 85.0743C48.9314 86.6097 51.9188 87.8545 55.6039 87.8545Z" fill="#616A6A" fill-opacity="0.24"/>
<path d="M26.9432 23.2596C31.6155 16.5529 29.9663 7.32853 23.2597 2.65627C16.5531 -2.01599 7.32865 -0.366808 2.65639 6.33982C-2.01587 13.0464 -0.366686 22.2709 6.33994 26.9431C13.0466 31.6154 22.271 29.9662 26.9432 23.2596Z" fill="#333333"/>
<path d="M11.4105 25.5255L20.066 33.3662L23.9664 22.359L11.4105 25.5255Z" fill="#333333"/>
<path d="M13.1265 19.415L19.3345 15.9953C20.1732 15.5335 20.1732 14.3303 19.3345 13.8685L13.1265 10.4488C12.3178 10.0045 11.3268 10.5886 11.3268 11.5122V18.3492C11.3268 19.2727 12.3178 19.8568 13.1265 19.4125V19.415Z" fill="#FF3F33"/>
</g>
<defs>
<clipPath id="clip0_59_2554">
<rect width="93.703" height="104" fill="white"/>
</clipPath>
</defs>
</svg>
