<svg width="103" height="103" viewBox="0 0 103 103" fill="none" xmlns="http://www.w3.org/2000/svg">
<path d="M35.203 47.3282C34.1544 47.3282 33.3047 48.1843 33.3047 49.2402C33.3047 50.2962 34.1544 51.1522 35.203 51.1522C36.2517 51.1522 37.1018 50.2962 37.1018 49.2402C37.1018 48.1843 36.2517 47.3282 35.203 47.3282Z" fill="#FAFAFA"/>
<path d="M53.9585 47.1287C52.8296 47.1287 51.9141 48.0503 51.9141 49.1875C51.9141 50.3246 52.8296 51.2462 53.9585 51.2462C55.0874 51.2462 56.0029 50.3246 56.0029 49.1875C56.0029 48.0503 55.0874 47.1287 53.9585 47.1287Z" fill="#FAFAFA"/>
<path d="M71.6493 54.2057C71.6493 54.2057 71.6958 58.9723 66.8865 58.9723H65.423V55.8841H66.3059C66.3059 55.8841 68.3269 56.0713 68.3039 52.9364C68.3039 52.9364 67.9087 54.2057 65.0748 54.2057C65.0748 54.2057 61.0554 53.9141 61.0554 49.9654V48.4682C61.0554 48.4682 61.1483 44.3739 65.5624 44.0464C65.5624 44.0464 67.3047 43.8592 68.3734 45.3097V44.3039H71.6493V54.2057ZM53.9578 54.2057C50.9681 54.2057 48.5449 51.9591 48.5449 49.1876C48.5449 46.4158 50.9681 44.1695 53.9578 44.1695C56.9475 44.1695 59.3711 46.4158 59.3711 49.1876C59.3711 51.9591 56.9475 54.2057 53.9578 54.2057ZM46.3031 44.4675V53.849H43.0736V44.5611C43.0736 43.2977 41.5172 42.947 41.5172 42.947V39.6717C46.6748 39.8821 46.3031 44.4675 46.3031 44.4675V44.4675ZM40.495 49.6611C40.4716 54.0732 35.9415 54.1997 35.9415 54.1997C34.1899 54.1997 33.2 53.03 33.2 53.03V53.8254H29.9011V40.1239C29.8869 40.1217 29.8862 40.119 29.9011 40.1161V40.1239C30.1055 40.1572 33.2 40.1161 33.2 40.1161V45.3565C33.9762 44.0243 36.2202 44.0464 36.2202 44.0464C41.1057 44.5049 40.495 49.6611 40.495 49.6611V49.6611ZM70.9341 28.3251H30.5478C26.4742 28.3251 23.1719 31.6505 23.1719 35.7526V59.8893C23.1719 63.9915 26.4742 67.3169 30.5478 67.3169H44.8121L49.6637 78.8268C49.6637 78.8268 49.9976 79.8251 50.8064 79.8251H50.8068C51.6153 79.8251 51.9491 78.8268 51.9491 78.8268L56.8011 67.3169H70.9341C75.0078 67.3169 78.3105 63.9915 78.3105 59.8893V35.7526C78.3105 31.6505 75.0078 28.3251 70.9341 28.3251" fill="#FAFAFA"/>
<path d="M66.5136 47.1756C65.41 47.1756 64.5156 48.0762 64.5156 49.1875C64.5156 50.2989 65.41 51.1995 66.5136 51.1995C67.6172 51.1995 68.5116 50.2989 68.5116 49.1875C68.5116 48.0762 67.6172 47.1756 66.5136 47.1756Z" fill="#FAFAFA"/>
</svg>
