<svg width="52" height="52" viewBox="0 0 52 52" fill="none" xmlns="http://www.w3.org/2000/svg">
<path d="M45.3391 14.0296V37.9704C45.3391 38.8016 45.0414 39.5148 44.446 40.1102C43.8497 40.7065 43.1182 41.0046 42.2516 41.0046H9.75156C8.8849 41.0046 8.15343 40.7065 7.55716 40.1102C6.96176 39.5148 6.66406 38.8016 6.66406 37.9704V14.0296C6.66406 13.1985 6.96176 12.4852 7.55716 11.8898C8.15343 11.2936 8.8849 10.9954 9.75156 10.9954H42.2516C43.1182 10.9954 43.8497 11.2936 44.446 11.8898C45.0414 12.4852 45.3391 13.1985 45.3391 14.0296ZM8.39696 19.3375H43.6062V14.0829C43.6062 13.7224 43.4614 13.4065 43.172 13.1352C42.8834 12.8648 42.5766 12.7296 42.2516 12.7296H9.75156C9.42656 12.7296 9.11976 12.8648 8.83116 13.1352C8.5417 13.4065 8.39696 13.7224 8.39696 14.0829V19.3375ZM8.39696 23.8329V37.9171C8.39696 38.2777 8.5417 38.5936 8.83116 38.8648C9.11976 39.1352 9.42656 39.2704 9.75156 39.2704H42.2516C42.5766 39.2704 42.8834 39.1352 43.172 38.8648C43.4614 38.5936 43.6062 38.2777 43.6062 37.9171V23.8329H8.39696ZM8.39696 39.2704V12.7296V39.2704Z" fill="#111921" stroke="#111921" stroke-width="0.8"/>
</svg>
