<?xml version="1.0" encoding="utf-8"?>
<!-- Generator: Adobe Illustrator 27.3.1, SVG Export Plug-In . SVG Version: 6.00 Build 0)  -->
<svg version="1.1" id="레이어_1" xmlns="http://www.w3.org/2000/svg" xmlns:xlink="http://www.w3.org/1999/xlink" x="0px"
	 y="0px" viewBox="0 0 100 100" style="enable-background:new 0 0 100 100;" xml:space="preserve">
<style type="text/css">
	.st0{fill:#00BABB;}
	.st1{fill:#148484;}
	.st2{fill:#FFFFFF;}
</style>
<g>
	<path class="st0" d="M50.31,96.35c-3.51-2.99-34.6-30.28-34.6-57.24c0-19.08,15.52-34.6,34.6-34.6c19.08,0,34.6,15.52,34.6,34.6
		C84.91,66.07,53.81,93.36,50.31,96.35z"/>
	<path class="st1" d="M50.31,5c18.8,0,34.1,15.3,34.1,34.1c0,26.05-29.37,52.5-34.1,56.59c-4.73-4.09-34.1-30.54-34.1-56.59
		C16.21,20.3,31.5,5,50.31,5 M50.31,4c-19.39,0-35.1,15.72-35.1,35.1c0,29,35.1,57.9,35.1,57.9s35.1-28.9,35.1-57.9
		C85.41,19.72,69.69,4,50.31,4L50.31,4z"/>
</g>
<g>
	<circle class="st2" cx="50.55" cy="39.34" r="20.46"/>
</g>
<g>
	<circle class="st1" cx="50.55" cy="39.34" r="9.3"/>
</g>
</svg>
