<svg width="103" height="103" viewBox="0 0 103 103" fill="none" xmlns="http://www.w3.org/2000/svg">
<path d="M51.4994 42.9096C46.7718 42.9096 42.9093 46.7721 42.9093 51.4997C42.9093 56.2272 46.7718 60.0897 51.4994 60.0897C56.2269 60.0897 60.0894 56.2272 60.0894 51.4997C60.0894 46.7721 56.2269 42.9096 51.4994 42.9096ZM77.2594 51.4997C77.2594 47.9389 77.2896 44.4184 77.0884 40.8677C76.8872 36.7437 75.9518 33.0924 72.9342 30.0748C69.9166 27.0573 66.2654 26.1218 62.1414 25.9206C58.5806 25.7195 55.0601 25.7497 51.5094 25.7497C47.9487 25.7497 44.4282 25.7195 40.8775 25.9206C36.7535 26.1218 33.1022 27.0573 30.0846 30.0748C27.067 33.0924 26.1316 36.7437 25.9304 40.8677C25.7292 44.4285 25.7594 47.949 25.7594 51.4997C25.7594 55.0503 25.7292 58.5809 25.9304 62.1316C26.1316 66.2556 27.067 69.9069 30.0846 72.9245C33.1022 75.942 36.7535 76.8775 40.8775 77.0787C44.4382 77.2798 47.9587 77.2497 51.5094 77.2497C55.0702 77.2497 58.5907 77.2798 62.1414 77.0787C66.2654 76.8775 69.9267 75.942 72.9342 72.9245C75.9518 69.9069 76.8872 66.2556 77.0884 62.1316C77.2997 58.5809 77.2594 55.0604 77.2594 51.4997ZM51.4994 64.7166C44.1868 64.7166 38.2824 58.8123 38.2824 51.4997C38.2824 44.1871 44.1868 38.2827 51.4994 38.2827C58.812 38.2827 64.7164 44.1871 64.7164 51.4997C64.7164 58.8123 58.812 64.7166 51.4994 64.7166ZM65.2595 40.8275C63.5496 40.8275 62.1715 39.4495 62.1715 37.7395C62.1715 36.0295 63.5496 34.6515 65.2595 34.6515C66.9695 34.6515 68.3475 36.0295 68.3475 37.7395C68.3475 39.4495 66.9695 40.8275 65.2595 40.8275Z" fill="#FAFAFA"/>
</svg>
