<svg width="52" height="52" viewBox="0 0 52 52" fill="none" xmlns="http://www.w3.org/2000/svg">
<path d="M23.1296 23.8875C21.3599 23.8875 19.8792 23.2917 18.6875 22.1C17.4958 20.9083 16.9 19.4094 16.9 17.6033C16.9 15.8344 17.4958 14.3542 18.6875 13.1625C19.8792 11.9708 21.3599 11.375 23.1296 11.375C24.8985 11.375 26.3878 11.9708 27.5977 13.1625C28.8076 14.3542 29.4125 15.8344 29.4125 17.6033C29.4125 19.4094 28.8076 20.9083 27.5977 22.1C26.3878 23.2917 24.8985 23.8875 23.1296 23.8875ZM9.6421 39.3783C9.17237 39.3783 8.8023 39.234 8.5319 38.9454C8.26063 38.6568 8.125 38.2776 8.125 37.8079V36.1829C8.125 35.2079 8.36897 34.3685 8.8569 33.6648C9.34397 32.9602 10.075 32.373 11.05 31.9033C13.0719 30.9647 14.9946 30.2519 16.8181 29.7648C18.6424 29.2769 20.7463 29.0329 23.1296 29.0329H24.05C23.9417 29.3579 23.8606 29.6556 23.8069 29.926C23.7523 30.1973 23.689 30.4772 23.6171 30.7658H23.1296C20.8901 30.7658 18.8946 30.9738 17.1431 31.3898C15.3924 31.8049 13.6322 32.4818 11.8625 33.4204C11.1042 33.8537 10.5807 34.2871 10.2921 34.7204C10.0026 35.1537 9.8579 35.6412 9.8579 36.1829V37.5908H23.725C23.7969 37.8803 23.8962 38.1875 24.0227 38.5125C24.1492 38.8375 24.2849 39.1261 24.4296 39.3783H9.6421ZM23.1296 22.1C24.3932 22.1 25.4583 21.6753 26.325 20.826C27.1917 19.9775 27.625 18.9033 27.625 17.6033C27.625 16.3397 27.1917 15.2746 26.325 14.4079C25.4583 13.5412 24.3932 13.1079 23.1296 13.1079C21.8651 13.1079 20.7996 13.5412 19.9329 14.4079C19.0662 15.2746 18.6329 16.3397 18.6329 17.6033C18.6329 18.9033 19.0662 19.9775 19.9329 20.826C20.7996 21.6753 21.8651 22.1 23.1296 22.1ZM37.5921 36.1283C38.711 36.1283 39.6409 35.7491 40.3819 34.9908C41.122 34.2325 41.4921 33.3116 41.4921 32.2283C41.4921 31.145 41.122 30.2241 40.3819 29.4658C39.6409 28.7075 38.711 28.3283 37.5921 28.3283C36.5088 28.3283 35.597 28.7075 34.8569 29.4658C34.1159 30.2241 33.7454 31.145 33.7454 32.2283C33.7454 33.3116 34.1246 34.2325 34.8829 34.9908C35.6412 35.7491 36.5443 36.1283 37.5921 36.1283ZM36.725 37.8625C36.075 37.7542 35.4432 37.5284 34.8296 37.1852C34.2151 36.842 33.6912 36.4178 33.2579 35.9125L31.4171 36.6158C31.2724 36.6522 31.1367 36.6344 31.0102 36.5625C30.8837 36.4897 30.7844 36.3991 30.7125 36.2908L30.6579 36.075C30.5496 35.9667 30.5136 35.8492 30.55 35.7227C30.5864 35.5962 30.6588 35.4787 30.7671 35.3704L32.3375 34.125C32.1208 33.5833 32.0125 32.9602 32.0125 32.2556C32.0125 31.5519 32.1208 30.911 32.3375 30.3329L30.7671 28.9783C30.6588 28.9064 30.5955 28.7889 30.5773 28.626C30.5591 28.4639 30.586 28.3287 30.6579 28.2204L30.7671 28.0579C30.839 27.9496 30.9383 27.8685 31.0648 27.8148C31.1913 27.7602 31.3265 27.7511 31.4704 27.7875L33.2579 28.5454C33.6557 28.0037 34.1705 27.5704 34.8023 27.2454C35.4341 26.9204 36.075 26.7037 36.725 26.5954L36.9421 24.5375C36.9776 24.3928 37.0496 24.2662 37.1579 24.1579C37.2662 24.0496 37.411 23.9954 37.5921 23.9954H37.8079C37.9526 23.9954 38.0883 24.0496 38.2148 24.1579C38.3413 24.2662 38.4046 24.3746 38.4046 24.4829L38.5671 26.5954C39.2171 26.7037 39.858 26.9204 40.4898 27.2454C41.1216 27.5704 41.6542 27.9855 42.0875 28.4908L43.875 27.8408C44.0197 27.8053 44.1554 27.8144 44.2819 27.8681C44.4076 27.9227 44.5068 28.0042 44.5796 28.1125L44.6875 28.275C44.7594 28.4189 44.7776 28.545 44.7421 28.6533C44.7057 28.7616 44.6333 28.8522 44.525 28.925L42.9546 30.3329C43.2068 30.911 43.3329 31.5428 43.3329 32.2283C43.3329 32.9147 43.2068 33.5469 42.9546 34.125L44.5796 35.3704C44.6879 35.4787 44.7421 35.6139 44.7421 35.776C44.7421 35.9389 44.7057 36.0746 44.6329 36.1829L44.5796 36.3454C44.4713 36.4537 44.3629 36.5352 44.2546 36.5898C44.1463 36.6435 44.0197 36.6522 43.875 36.6158L42.0875 35.9125C41.6178 36.4178 41.0761 36.842 40.4625 37.1852C39.8489 37.5284 39.2171 37.7542 38.5671 37.8625L38.4046 39.9204C38.4046 40.0651 38.3413 40.1917 38.2148 40.3C38.0883 40.4083 37.9526 40.4625 37.8079 40.4625H37.5921C37.4474 40.4625 37.3117 40.4083 37.1852 40.3C37.0587 40.1917 36.9776 40.0651 36.9421 39.9204L36.725 37.8625Z" fill="white" stroke="white" stroke-width="0.8"/>
</svg>
