<svg width="52" height="52" viewBox="0 0 52 52" fill="none" xmlns="http://www.w3.org/2000/svg">
<path d="M30.0593 19.3924C30.0593 19.2841 30.0953 19.1757 30.1672 19.0674C30.24 18.9591 30.3483 18.8685 30.4922 18.7957C31.5755 18.2905 32.7494 17.8935 34.0139 17.6049C35.2775 17.3155 36.5775 17.1707 37.9139 17.1707C38.6358 17.1707 39.3127 17.2071 39.9445 17.2799C40.5763 17.3519 41.2354 17.478 41.9218 17.6582C42.0665 17.6582 42.1931 17.7306 42.3014 17.8753C42.4097 18.0201 42.4639 18.1826 42.4639 18.3628C42.4639 18.6514 42.3824 18.859 42.2195 18.9855C42.0574 19.1121 41.8317 19.1393 41.5422 19.0674C40.965 18.9591 40.3783 18.8776 39.782 18.823C39.1866 18.7693 38.5639 18.7424 37.9139 18.7424C36.7222 18.7424 35.5483 18.8598 34.3922 19.0947C33.2369 19.3287 32.1358 19.6446 31.0889 20.0424C30.8358 20.1863 30.601 20.1954 30.3843 20.0697C30.1676 19.9432 30.0593 19.7174 30.0593 19.3924ZM30.0593 31.1457C30.0593 31.0374 30.0953 30.9204 30.1672 30.7947C30.24 30.6682 30.3483 30.5685 30.4922 30.4957C31.54 29.9904 32.7139 29.6022 34.0139 29.3309C35.3139 29.0605 36.6139 28.9253 37.9139 28.9253C38.6358 28.9253 39.3036 28.9613 39.9172 29.0332C40.5317 29.106 41.1999 29.2143 41.9218 29.3582C42.0665 29.3946 42.1931 29.4852 42.3014 29.6299C42.4097 29.7738 42.4639 29.9181 42.4639 30.0628C42.4639 30.3514 42.3733 30.5681 42.1922 30.7128C42.0119 30.8575 41.7953 30.8935 41.5422 30.8207C40.965 30.7124 40.3783 30.6313 39.782 30.5776C39.1866 30.523 38.5639 30.4957 37.9139 30.4957C36.7222 30.4957 35.5574 30.6222 34.4195 30.8753C33.2824 31.1284 32.2082 31.4534 31.1968 31.8503C30.8718 32.0306 30.601 32.0488 30.3843 31.9049C30.1676 31.7602 30.0593 31.5071 30.0593 31.1457ZM30.0593 25.2957C30.0593 25.1874 30.0953 25.0704 30.1672 24.9447C30.24 24.8182 30.3483 24.7185 30.4922 24.6457C31.5755 24.1041 32.7494 23.7071 34.0139 23.4549C35.2775 23.2018 36.5775 23.0753 37.9139 23.0753C38.6358 23.0753 39.3036 23.1113 39.9172 23.1832C40.5317 23.256 41.1999 23.3644 41.9218 23.5082C42.0665 23.5082 42.1931 23.5806 42.3014 23.7253C42.4097 23.8701 42.4639 24.0325 42.4639 24.2128C42.4639 24.5014 42.3733 24.709 42.1922 24.8355C42.0119 24.9621 41.7953 24.9894 41.5422 24.9174C40.965 24.8091 40.3783 24.7276 39.782 24.673C39.1866 24.6193 38.5639 24.5924 37.9139 24.5924C36.7222 24.5924 35.5574 24.7185 34.4195 24.9707C33.2824 25.2238 32.2082 25.567 31.1968 26.0003C30.8718 26.1806 30.601 26.1897 30.3843 26.0276C30.1676 25.8647 30.0593 25.6207 30.0593 25.2957ZM13.9172 35.0457C15.9036 35.0457 17.8176 35.2806 19.6593 35.7503C21.501 36.22 23.3426 36.9602 25.1843 37.9707V16.2503C23.5957 15.0587 21.8082 14.156 19.8218 13.5424C17.8354 12.928 15.8672 12.6207 13.9172 12.6207C12.5817 12.6207 11.4264 12.7113 10.4514 12.8924C9.47639 13.0727 8.37485 13.3795 7.14679 13.8128C6.82179 13.9212 6.58692 14.0746 6.44219 14.273C6.29832 14.4715 6.22639 14.6973 6.22639 14.9503V35.0457C6.22639 35.4071 6.37069 35.6779 6.65929 35.8582C6.94789 36.0394 7.25469 36.0758 7.57969 35.9674C8.30249 35.6779 9.20555 35.4522 10.2889 35.2901C11.3722 35.1272 12.5817 35.0457 13.9172 35.0457ZM26.9172 37.9707C28.7233 36.9602 30.5381 36.22 32.3616 35.7503C34.1851 35.2806 36.09 35.0457 38.0764 35.0457C39.4119 35.0457 40.6305 35.1272 41.732 35.2901C42.8335 35.4522 43.7275 35.6416 44.4139 35.8582C44.7389 36.003 45.0457 35.9852 45.3343 35.8049C45.6229 35.6238 45.7672 35.3347 45.7672 34.9378V14.9503C45.7672 14.6973 45.6953 14.4806 45.5514 14.3003C45.4067 14.1201 45.1718 13.9576 44.8468 13.8128C43.6551 13.3795 42.5627 13.0727 41.5695 12.8924C40.5763 12.7113 39.4119 12.6207 38.0764 12.6207C36.09 12.6207 34.1309 12.928 32.1991 13.5424C30.2673 14.156 28.5067 15.0587 26.9172 16.2503V37.9707ZM26.0514 40.0299C25.8347 40.0299 25.6181 40.0117 25.4014 39.9753C25.1847 39.9389 25.004 39.8666 24.8593 39.7582C23.1979 38.8196 21.4373 38.0977 19.5774 37.5924C17.7184 37.0863 15.8317 36.8332 13.9172 36.8332C12.8703 36.8332 11.8502 36.9147 10.857 37.0776C9.86379 37.2397 8.86192 37.4832 7.85139 37.8082C7.02025 38.1332 6.25282 38.0249 5.54909 37.4832C4.84449 36.9415 4.49219 36.2196 4.49219 35.3174V14.9503C4.49219 14.3723 4.64559 13.8397 4.95239 13.3526C5.26005 12.8647 5.68472 12.5124 6.22639 12.2957C7.45359 11.7905 8.71719 11.4295 10.0172 11.2128C11.3172 10.9962 12.6172 10.8878 13.9172 10.8878C16.0839 10.8878 18.1964 11.2037 20.2547 11.8355C22.313 12.4673 24.2453 13.3973 26.0514 14.6253C27.8203 13.3973 29.7252 12.4673 31.7662 11.8355C33.8063 11.2037 35.9097 10.8878 38.0764 10.8878C39.3764 10.8878 40.6764 11.0053 41.9764 11.2401C43.2764 11.475 44.54 11.8269 45.7672 12.2957C46.3089 12.5124 46.7335 12.8647 47.0412 13.3526C47.348 13.8397 47.5014 14.3723 47.5014 14.9503V35.3174C47.5014 36.256 47.1131 36.9779 46.3366 37.4832C45.5601 37.9893 44.7385 38.0617 43.8718 37.7003C42.9332 37.4117 41.9764 37.195 41.0014 37.0503C40.0264 36.9056 39.0514 36.8332 38.0764 36.8332C36.1619 36.8332 34.293 37.0863 32.4695 37.5924C30.646 38.0977 28.9036 38.8196 27.2422 39.7582C27.0619 39.8666 26.8726 39.9389 26.6741 39.9753C26.4756 40.0117 26.2681 40.0299 26.0514 40.0299Z" fill="#111921" stroke="#111921" stroke-width="0.8"/>
</svg>
