<svg width="944" height="525" viewBox="0 0 944 525" fill="none" xmlns="http://www.w3.org/2000/svg">
<path opacity="0.1" d="M472 130H944V509C944 517.837 936.837 525 928 525H472V130Z" fill="#004170"/>
<path opacity="0.1" d="M0 130H472V525H16C7.16344 525 0 517.837 0 509V130Z" fill="#930E14"/>
<path opacity="0.3" d="M630 70H944V409H630V70Z" fill="#1D1919"/>
<path d="M315 509V120" stroke="white" stroke-dasharray="2 2"/>
<path d="M630 409L630 120" stroke="white" stroke-dasharray="2 2"/>
<rect width="629" height="60" transform="translate(315 405)" fill="#E3DDD7"/>
<path d="M465.894 435.314C463.284 434.504 462.168 432.56 462.168 430.562V428.87H459.756V430.364C459.756 432.614 458.64 434.828 455.868 435.746L457.11 437.618C459 436.952 460.278 435.674 460.998 434.054C461.7 435.458 462.906 436.574 464.652 437.15L465.894 435.314ZM463.752 442.712C461.628 442.712 460.494 442.28 460.494 441.344C460.494 440.426 461.628 439.994 463.752 439.994C465.858 439.994 466.992 440.426 466.992 441.344C466.992 442.28 465.858 442.712 463.752 442.712ZM463.752 438.158C460.296 438.158 458.136 439.346 458.136 441.344C458.136 443.36 460.296 444.548 463.752 444.548C467.19 444.548 469.35 443.36 469.35 441.344C469.35 439.346 467.19 438.158 463.752 438.158ZM469.17 431.822V427.988H466.794V437.78H469.17V433.784H471.366V431.822H469.17ZM482.183 435.314C479.573 434.504 478.457 432.56 478.457 430.562V428.87H476.045V430.364C476.045 432.614 474.929 434.828 472.157 435.746L473.399 437.618C475.289 436.952 476.567 435.674 477.287 434.054C477.989 435.458 479.195 436.574 480.941 437.15L482.183 435.314ZM480.041 442.712C477.917 442.712 476.783 442.28 476.783 441.344C476.783 440.426 477.917 439.994 480.041 439.994C482.147 439.994 483.281 440.426 483.281 441.344C483.281 442.28 482.147 442.712 480.041 442.712ZM480.041 438.158C476.585 438.158 474.425 439.346 474.425 441.344C474.425 443.36 476.585 444.548 480.041 444.548C483.479 444.548 485.639 443.36 485.639 441.344C485.639 439.346 483.479 438.158 480.041 438.158ZM485.459 431.822V427.988H483.083V437.78H485.459V433.784H487.655V431.822H485.459ZM497.157 435.476C495.519 435.782 494.061 435.854 491.685 435.872V434.144H496.563V428.906H489.309V430.814H494.223V432.38H489.327V437.78H490.605C493.755 437.78 495.465 437.726 497.391 437.366L497.157 435.476ZM491.217 440.822H500.181V444.566H502.557V438.932H491.217V440.822ZM500.181 427.988V430.256H497.517V432.164H500.181V433.802H497.517V435.692H500.181V438.194H502.557V427.97L500.181 427.988ZM524.27 439.566C523.08 439.566 522.247 438.597 522.247 437.237C522.247 435.911 523.08 434.942 524.27 434.942C525.443 434.942 526.293 435.911 526.293 437.237C526.293 438.597 525.443 439.566 524.27 439.566ZM524.27 433.769C522.383 433.769 521.006 435.197 521.006 437.237C521.006 439.311 522.383 440.722 524.27 440.722C526.157 440.722 527.534 439.311 527.534 437.237C527.534 435.197 526.157 433.769 524.27 433.769ZM524.95 429.451H523.573V431.61H520.479V432.749H528.044V431.61H524.95V429.451ZM532.073 428.992V435.435H530.118V429.349H528.809V443.51H530.118V436.574H532.073V444.241H533.416V428.992H532.073ZM547.049 442.915H540.045V441.011H547.049V442.915ZM547.049 439.923H540.045V438.07H538.668V444.037H548.426V438.07H547.049V439.923ZM542.136 435.639H538.022V433.225H542.136V435.639ZM547.032 429.026V432.766H543.513V429.808H542.136V432.137H538.022V429.808H536.645V436.778H543.513V433.905H547.032V437.356H548.443V429.026H547.032ZM563.735 436.489C561.491 435.826 560.012 434.143 560.012 432.29V431.984H563.378V430.862H560.012V428.924H558.618V430.862H555.235V431.984H558.618V432.29C558.618 434.33 557.088 436.166 554.827 436.863L555.524 437.968C557.309 437.356 558.686 436.098 559.332 434.483C560.012 435.928 561.355 437.033 563.089 437.577L563.735 436.489ZM561.797 443.153C559.519 443.153 558.159 442.541 558.159 441.487C558.159 440.433 559.519 439.821 561.797 439.821C564.041 439.821 565.418 440.433 565.418 441.487C565.418 442.541 564.041 443.153 561.797 443.153ZM561.797 438.733C558.652 438.733 556.765 439.719 556.765 441.487C556.765 443.238 558.652 444.224 561.797 444.224C564.908 444.224 566.812 443.238 566.812 441.487C566.812 439.719 564.908 438.733 561.797 438.733ZM566.642 432.953V429.009H565.248V438.359H566.642V434.109H568.903V432.953H566.642ZM571.333 435.095C573.9 434.891 576.161 434.109 577.096 432.698C578.031 434.109 580.275 434.891 582.825 435.095L583.25 434.041C580.411 433.854 578.116 432.919 577.878 431.406H582.57V430.352H577.793V428.907H576.399V430.352H571.605V431.406H576.314C576.076 432.919 573.747 433.854 570.925 434.041L571.333 435.095ZM583.964 436.846V435.775H570.211V436.846H576.382V438.257H571.843V439.294H580.836V440.586H571.894V444.088H582.672V443.034H573.254V441.589H582.213V438.257H577.793V436.846H583.964ZM591.488 439.974H600.277V444.275H601.688V438.835H591.488V439.974ZM597.03 434.67C597.132 434.313 597.2 433.939 597.2 433.514C597.2 433.106 597.132 432.732 597.03 432.375H600.277V434.67H597.03ZM593.273 436.013C591.794 436.013 590.689 434.976 590.689 433.514C590.689 432.086 591.794 431.049 593.273 431.049C594.769 431.049 595.874 432.086 595.874 433.514C595.874 434.976 594.769 436.013 593.273 436.013ZM600.277 429.026V431.253H596.435C595.721 430.386 594.599 429.859 593.273 429.859C591.029 429.859 589.363 431.372 589.363 433.514C589.363 435.673 591.029 437.203 593.273 437.203C594.599 437.203 595.704 436.676 596.418 435.809H600.277V438.002H601.688V429.009L600.277 429.026ZM613.484 435.707C611.172 436.115 609.217 436.2 606.548 436.2V434.092H612.005V429.961H605.137V431.1H610.628V433.021H605.171V437.339H606.378C609.2 437.339 611.206 437.254 613.62 436.846L613.484 435.707ZM611.478 443.17C609.2 443.17 607.823 442.541 607.823 441.47C607.823 440.399 609.2 439.77 611.478 439.77C613.756 439.77 615.116 440.399 615.116 441.47C615.116 442.541 613.756 443.17 611.478 443.17ZM611.478 438.682C608.367 438.682 606.463 439.702 606.463 441.47C606.463 443.238 608.367 444.241 611.478 444.241C614.572 444.241 616.493 443.238 616.493 441.47C616.493 439.702 614.572 438.682 611.478 438.682ZM618.601 432.545V431.389H616.34V429.026H614.946V438.24H616.34V435.758H618.601V434.602H616.34V432.545H618.601ZM623.054 446.349L624.023 445.89C622.544 443.476 621.847 440.603 621.847 437.713C621.847 434.823 622.544 431.967 624.023 429.536L623.054 429.094C621.49 431.627 620.555 434.381 620.555 437.713C620.555 441.062 621.49 443.799 623.054 446.349ZM629.903 430.454H628.56V433.361C628.56 435.979 627.302 438.716 625.211 439.94L626.078 440.977C627.591 440.042 628.696 438.325 629.24 436.302C629.784 438.155 630.804 439.77 632.249 440.654L633.048 439.566C631.042 438.342 629.903 435.758 629.903 433.31V430.454ZM633.915 434.483H631.399V435.639H633.915V443.51H635.224V429.349H633.915V434.483ZM637.009 429.009V444.258H638.335V429.009H637.009ZM652.937 434.534H643.961V433.004H652.444V431.95H643.961V430.505H652.852V429.417H642.567V435.622H652.937V434.534ZM642.295 440.773H651.373V444.275H652.767V439.668H642.295V440.773ZM640.748 437.067V438.189H654.552V437.067H640.748ZM661.157 436.37C661.769 436.37 662.279 435.877 662.279 435.197C662.279 434.483 661.769 433.99 661.157 433.99C660.545 433.99 660.035 434.483 660.035 435.197C660.035 435.877 660.545 436.37 661.157 436.37ZM661.157 443.221C661.769 443.221 662.279 442.745 662.279 442.048C662.279 441.334 661.769 440.841 661.157 440.841C660.545 440.841 660.035 441.334 660.035 442.048C660.035 442.745 660.545 443.221 661.157 443.221ZM676.49 436.965H672.699V431.661H676.49V436.965ZM671.305 436.965H668.976V438.104H680.213V436.965H677.884V431.661H680.247V430.539H668.942V431.661H671.305V436.965ZM667.718 441.147V442.303H681.539V441.147H667.718ZM690.701 441.232V438.359H695.58V437.237H686.196V434.772H695.223V430.131H684.785V431.27H693.863V433.65H684.819V438.359H689.29V441.232H683.085V442.371H696.94V441.232H690.701ZM704.776 432.936V434.075H707.071V438.223H708.397V429.349H707.071V432.936H704.776ZM705.966 436.54C704.062 435.724 702.991 433.922 702.991 432.239V431.389H705.609V430.25H698.843V431.389H701.648V432.256C701.648 434.075 700.526 436.047 698.554 436.897L699.285 437.968C700.764 437.305 701.818 436.047 702.345 434.568C702.872 435.894 703.875 436.999 705.269 437.611L705.966 436.54ZM701.104 440.144H709.961V444.275H711.355V439.022H701.104V440.144ZM710.012 429.026V438.342H711.355V429.026H710.012ZM726.109 437.237H717.048V434.823H725.616V433.718H717.048V431.457H725.956V430.335H715.637V438.359H726.109V437.237ZM713.852 441.147V442.286H727.69V441.147H713.852ZM729.627 446.23C731.157 445.584 732.109 444.309 732.109 442.677C732.109 441.538 731.616 440.841 730.8 440.841C730.171 440.841 729.627 441.266 729.627 441.929C729.627 442.643 730.171 443.017 730.766 443.017C730.834 443.017 730.885 443.017 730.953 443C730.953 444.003 730.324 444.836 729.253 445.312L729.627 446.23ZM738.84 433.803C738.84 432.29 739.945 431.202 741.441 431.202C742.92 431.202 744.025 432.29 744.025 433.803C744.025 435.316 742.92 436.404 741.441 436.404C739.945 436.404 738.84 435.316 738.84 433.803ZM748.428 432.528V435.061H745.147C745.283 434.67 745.351 434.245 745.351 433.803C745.351 433.344 745.283 432.919 745.147 432.528H748.428ZM748.428 436.183V440.28H749.839V429.026H748.428V431.406H744.552C743.838 430.522 742.75 429.978 741.441 429.978C739.197 429.978 737.514 431.576 737.514 433.803C737.514 436.03 739.197 437.628 741.441 437.628C742.75 437.628 743.855 437.084 744.569 436.183H748.428ZM741.492 442.779V439.124H740.081V443.918H750.264V442.779H741.492ZM766.464 436.557H764.203C764.628 434.364 764.628 432.749 764.628 431.321V429.995H754.394V431.117H763.268V431.321C763.268 432.749 763.268 434.364 762.792 436.557H752.677V437.696H758.831V444.275H760.242V437.696H766.464V436.557ZM771.053 433.956H778.839V436.761H771.053V433.956ZM775.643 441.164V437.883H780.199V430.097H778.839V432.817H771.053V430.097H769.676V437.883H774.232V441.164H768.044V442.303H781.865V441.164H775.643ZM794.188 432.052C794.188 433.888 794.188 436.03 793.61 438.954L795.004 439.107C795.582 436.03 795.582 433.939 795.582 432.052V430.539H784.889V431.678H794.188V432.052ZM790.193 440.977V435.52H788.799V440.977H783.444V442.116H797.231V440.977H790.193ZM799.593 446.349C801.174 443.799 802.109 441.062 802.109 437.713C802.109 434.381 801.174 431.627 799.593 429.094L798.641 429.536C800.103 431.967 800.817 434.823 800.817 437.713C800.817 440.603 800.103 443.476 798.641 445.89L799.593 446.349Z" fill="#564B41"/>
<path d="M511.488 429.264V444.275H512.746V429.264H511.488Z" fill="#564B41" fill-opacity="0.3"/>
<rect width="314" height="60" transform="translate(630 345)" fill="#EF9A96"/>
<path d="M671.784 369.248H669.39V371.642C669.39 374.792 668.13 378.014 665.322 379.31L666.798 381.218C668.652 380.282 669.894 378.554 670.614 376.43C671.298 378.428 672.504 380.048 674.322 380.93L675.726 379.04C672.99 377.816 671.784 374.774 671.784 371.642V369.248ZM677.094 367.952V373.154H673.908V375.062H677.094V384.584H679.47V367.952H677.094ZM687.947 369.248H685.553V371.66C685.553 374.738 684.293 377.906 681.503 379.22L682.925 381.146C684.797 380.228 686.039 378.482 686.759 376.376C687.443 378.356 688.613 379.958 690.341 380.84L691.781 378.968C689.117 377.654 687.947 374.648 687.947 371.66V369.248ZM697.235 374.342H694.823V367.97H692.447V384.548H694.823V376.322H697.235V374.342ZM706.593 375.476C704.955 375.782 703.497 375.854 701.121 375.872V374.144H705.999V368.906H698.745V370.814H703.659V372.38H698.763V377.78H700.041C703.191 377.78 704.901 377.726 706.827 377.366L706.593 375.476ZM700.653 380.822H709.617V384.566H711.993V378.932H700.653V380.822ZM709.617 367.988V370.256H706.953V372.164H709.617V373.802H706.953V375.692H709.617V378.194H711.993V367.97L709.617 367.988ZM735.066 371.729H738.449V370.573H730.204V371.729H733.689V373.667C733.689 376.251 731.853 379.141 729.677 380.229L730.493 381.334C732.21 380.45 733.689 378.512 734.386 376.285C735.083 378.325 736.511 380.11 738.211 380.96L739.01 379.838C736.8 378.801 735.066 376.098 735.066 373.667V371.729ZM744.178 375.163H741.662V369.026H740.268V384.258H741.662V376.336H744.178V375.163ZM746.217 370.658V371.78H751.946C751.657 375.401 749.617 378.325 745.52 380.28L746.268 381.419C751.334 378.937 753.357 375.061 753.357 370.658H746.217ZM756.434 369.009V384.258H757.828V369.009H756.434ZM765.606 376.421C767.969 376.013 770.213 374.738 771.148 372.936C772.066 374.738 774.327 376.013 776.69 376.421L777.234 375.316C774.548 374.925 771.913 373.174 771.913 371.168V371.083H776.69V369.961H765.555V371.083H770.366V371.168C770.366 373.174 767.731 374.925 765.079 375.316L765.606 376.421ZM778.033 377.696H764.263V378.835H770.417V384.258H771.811V378.835H778.05L778.033 377.696ZM787.229 381.181V377.271H791.87V376.149H782.775V371.372H791.717V370.233H781.381V377.271H785.818V381.181H779.613V382.337H793.468V381.181H787.229ZM800.924 379.974H809.713V384.275H811.124V378.835H800.924V379.974ZM806.466 374.67C806.568 374.313 806.636 373.939 806.636 373.514C806.636 373.106 806.568 372.732 806.466 372.375H809.713V374.67H806.466ZM802.709 376.013C801.23 376.013 800.125 374.976 800.125 373.514C800.125 372.086 801.23 371.049 802.709 371.049C804.205 371.049 805.31 372.086 805.31 373.514C805.31 374.976 804.205 376.013 802.709 376.013ZM809.713 369.026V371.253H805.871C805.157 370.386 804.035 369.859 802.709 369.859C800.465 369.859 798.799 371.372 798.799 373.514C798.799 375.673 800.465 377.203 802.709 377.203C804.035 377.203 805.14 376.676 805.854 375.809H809.713V378.002H811.124V369.009L809.713 369.026ZM822.92 375.707C820.608 376.115 818.653 376.2 815.984 376.2V374.092H821.441V369.961H814.573V371.1H820.064V373.021H814.607V377.339H815.814C818.636 377.339 820.642 377.254 823.056 376.846L822.92 375.707ZM820.914 383.17C818.636 383.17 817.259 382.541 817.259 381.47C817.259 380.399 818.636 379.77 820.914 379.77C823.192 379.77 824.552 380.399 824.552 381.47C824.552 382.541 823.192 383.17 820.914 383.17ZM820.914 378.682C817.803 378.682 815.899 379.702 815.899 381.47C815.899 383.238 817.803 384.241 820.914 384.241C824.008 384.241 825.929 383.238 825.929 381.47C825.929 379.702 824.008 378.682 820.914 378.682ZM828.037 372.545V371.389H825.776V369.026H824.382V378.24H825.776V375.758H828.037V374.602H825.776V372.545H828.037ZM832.49 386.349L833.459 385.89C831.98 383.476 831.283 380.603 831.283 377.713C831.283 374.823 831.98 371.967 833.459 369.536L832.49 369.094C830.926 371.627 829.991 374.381 829.991 377.713C829.991 381.062 830.926 383.799 832.49 386.349ZM847.329 369.026H845.935V380.178H847.329V369.026ZM844.133 376.897C841.889 376.149 840.308 374.296 840.308 372.239V371.406H843.759V370.284H835.395V371.406H838.88V372.239C838.88 374.415 837.333 376.404 835.021 377.203L835.752 378.291C837.554 377.645 838.965 376.268 839.611 374.534C840.308 376.132 841.702 377.39 843.453 378.002L844.133 376.897ZM838.914 382.779V379.124H837.52V383.918H847.788V382.779H838.914ZM857.8 381.232V378.359H862.679V377.237H853.295V374.772H862.322V370.131H851.884V371.27H860.962V373.65H851.918V378.359H856.389V381.232H850.184V382.371H864.039V381.232H857.8ZM865.958 386.23C867.488 385.584 868.44 384.309 868.44 382.677C868.44 381.538 867.947 380.841 867.131 380.841C866.502 380.841 865.958 381.266 865.958 381.929C865.958 382.643 866.502 383.017 867.097 383.017C867.165 383.017 867.216 383.017 867.284 383C867.284 384.003 866.655 384.836 865.584 385.312L865.958 386.23ZM886.12 369.026H884.726V380.178H886.12V369.026ZM882.924 376.897C880.68 376.149 879.099 374.296 879.099 372.239V371.406H882.55V370.284H874.186V371.406H877.671V372.239C877.671 374.415 876.124 376.404 873.812 377.203L874.543 378.291C876.345 377.645 877.756 376.268 878.402 374.534C879.099 376.132 880.493 377.39 882.244 378.002L882.924 376.897ZM877.705 382.779V379.124H876.311V383.918H886.579V382.779H877.705ZM898.035 370.624H894.227V368.924H892.833V370.624H889.042V371.746H898.035V370.624ZM891.218 375.282C891.218 374.279 892.136 373.616 893.53 373.616C894.924 373.616 895.859 374.279 895.859 375.282C895.859 376.302 894.924 376.965 893.53 376.965C892.136 376.965 891.218 376.302 891.218 375.282ZM897.185 375.282C897.185 373.616 895.706 372.528 893.53 372.528C891.371 372.528 889.892 373.616 889.892 375.282C889.892 376.965 891.371 378.036 893.53 378.036C895.706 378.036 897.185 376.965 897.185 375.282ZM890.929 380.518H899.429V384.275H900.823V379.379H890.929V380.518ZM903.084 373.225H900.823V369.026H899.429V378.546H900.823V374.381H903.084V373.225ZM905.157 386.349C906.738 383.799 907.673 381.062 907.673 377.713C907.673 374.381 906.738 371.627 905.157 369.094L904.205 369.536C905.667 371.967 906.381 374.823 906.381 377.713C906.381 380.603 905.667 383.476 904.205 385.89L905.157 386.349Z" fill="#930E14"/>
<path d="M720.924 369.264V384.275H722.182V369.264H720.924Z" fill="#930E14" fill-opacity="0.3"/>
<path d="M0 465H944V509C944 517.837 936.837 525 928 525H16C7.16347 525 0 517.837 0 509V465Z" fill="#9BCCEC"/>
<path d="M354.223 492.974H347.653V490.526H354.223V492.974ZM356.563 488.672H345.313V494.846H356.563V488.672ZM347.581 499.454H345.205V504.26H356.815V502.37H347.581V499.454ZM343.459 496.16V498.032H349.993V500.858H352.369V498.032H358.471V496.16H343.459ZM363.743 499.004C362.843 499.004 362.195 498.284 362.195 497.042C362.195 495.8 362.843 495.062 363.743 495.062C364.643 495.062 365.291 495.8 365.291 497.042C365.291 498.284 364.643 499.004 363.743 499.004ZM363.743 493.082C361.619 493.082 360.107 494.72 360.107 497.042C360.107 499.346 361.619 500.984 363.743 500.984C365.867 500.984 367.379 499.346 367.379 497.042C367.379 494.72 365.867 493.082 363.743 493.082ZM364.913 488.42H362.573V490.472H359.747V492.362H367.667V490.472H364.913V488.42ZM371.735 487.952V494.72H370.475V488.276H368.261V503.846H370.475V496.628H371.735V504.53H373.985V487.952H371.735ZM384.514 495.476C382.876 495.782 381.418 495.854 379.042 495.872V494.144H383.92V488.906H376.666V490.814H381.58V492.38H376.684V497.78H377.962C381.112 497.78 382.822 497.726 384.748 497.366L384.514 495.476ZM378.574 500.822H387.538V504.566H389.914V498.932H378.574V500.822ZM387.538 487.988V490.256H384.874V492.164H387.538V493.802H384.874V495.692H387.538V498.194H389.914V487.97L387.538 487.988ZM419.642 488.186V504.368H421.118V488.186H419.642ZM412.604 489.428C410.21 489.428 408.5 491.624 408.5 495.062C408.5 498.5 410.21 500.696 412.604 500.696C414.998 500.696 416.708 498.5 416.708 495.062C416.708 491.624 414.998 489.428 412.604 489.428ZM412.604 490.76C414.17 490.76 415.286 492.452 415.286 495.062C415.286 497.69 414.17 499.382 412.604 499.382C411.02 499.382 409.904 497.69 409.904 495.062C409.904 492.452 411.02 490.76 412.604 490.76ZM428.191 499.364C426.931 499.364 426.049 498.338 426.049 496.898C426.049 495.494 426.931 494.468 428.191 494.468C429.433 494.468 430.333 495.494 430.333 496.898C430.333 498.338 429.433 499.364 428.191 499.364ZM428.191 493.226C426.193 493.226 424.735 494.738 424.735 496.898C424.735 499.094 426.193 500.588 428.191 500.588C430.189 500.588 431.647 499.094 431.647 496.898C431.647 494.738 430.189 493.226 428.191 493.226ZM428.911 488.654H427.453V490.94H424.177V492.146H432.187V490.94H428.911V488.654ZM436.453 488.168V494.99H434.383V488.546H432.997V503.54H434.383V496.196H436.453V504.314H437.875V488.168H436.453ZM449.015 495.8C447.143 496.106 445.595 496.178 442.607 496.178V493.73H448.079V489.158H441.113V490.364H446.639V492.596H441.167V497.384H442.319C445.541 497.384 447.179 497.33 449.159 496.988L449.015 495.8ZM442.967 500.192H452.291V504.35H453.785V498.986H442.967V500.192ZM452.291 488.204V490.58H449.141V491.786H452.291V493.946H449.141V495.134H452.291V498.122H453.785V488.204H452.291ZM461.488 494.252C460.426 494.252 459.58 495.098 459.58 496.16C459.58 497.222 460.426 498.068 461.488 498.068C462.55 498.068 463.396 497.222 463.396 496.16C463.396 495.098 462.55 494.252 461.488 494.252ZM480.784 493.064H471.154V489.986H480.64V488.798H469.678V494.252H480.784V493.064ZM469.462 500.372H479.182V504.422H480.676V499.184H469.462V500.372ZM467.842 496.052V497.24H482.458V496.052H467.842ZM493.653 495.962C491.313 495.134 489.729 493.118 489.729 491.012V490.418H493.275V489.212H484.653V490.418H488.253V491.03C488.253 493.316 486.579 495.458 484.185 496.322L484.959 497.474C486.849 496.79 488.325 495.314 489.027 493.46C489.729 495.116 491.115 496.466 492.915 497.114L493.653 495.962ZM488.379 499.598H495.993V502.928H488.379V499.598ZM486.939 504.116H497.433V498.428H486.939V504.116ZM495.939 488.186V492.236H492.753V493.46H495.939V497.636H497.433V488.186H495.939ZM508.951 495.8C507.079 496.106 505.531 496.178 502.543 496.178V493.73H508.015V489.158H501.049V490.364H506.575V492.596H501.103V497.384H502.255C505.477 497.384 507.115 497.33 509.095 496.988L508.951 495.8ZM502.903 500.192H512.227V504.35H513.721V498.986H502.903V500.192ZM512.227 488.204V490.58H509.077V491.786H512.227V493.946H509.077V495.134H512.227V498.122H513.721V488.204H512.227ZM520.056 506.546L521.082 506.06C519.516 503.504 518.778 500.462 518.778 497.402C518.778 494.342 519.516 491.318 521.082 488.744L520.056 488.276C518.4 490.958 517.41 493.874 517.41 497.402C517.41 500.948 518.4 503.846 520.056 506.546ZM524.788 490.148H523.312V500.138H524.338C526.084 500.138 527.938 500.048 530.116 499.634L529.972 498.356C528.046 498.734 526.336 498.842 524.788 498.86V490.148ZM534.796 488.186V494.756H532.51V488.546H531.124V503.504H532.51V495.98H534.796V504.314H536.218V488.186H534.796ZM552.056 488.186H550.58V500.03H552.056V488.186ZM548.528 496.232C546.134 495.35 544.496 493.154 544.496 490.724V489.086H543.02V490.724C543.02 493.244 541.4 495.584 538.97 496.52L539.744 497.726C541.634 496.934 543.092 495.368 543.776 493.406C544.496 495.242 545.918 496.7 547.754 497.402L548.528 496.232ZM543.146 502.766V498.932H541.67V503.972H552.542V502.766H543.146ZM555.493 506.42C557.113 505.736 558.121 504.386 558.121 502.658C558.121 501.452 557.599 500.714 556.735 500.714C556.069 500.714 555.493 501.164 555.493 501.866C555.493 502.622 556.069 503.018 556.699 503.018C556.771 503.018 556.825 503.018 556.897 503C556.897 504.062 556.231 504.944 555.097 505.448L555.493 506.42ZM577.488 494.342C574.554 493.91 571.674 491.912 571.674 489.662V488.762H570.126V489.662C570.126 491.966 567.282 493.91 564.348 494.342L564.942 495.53C567.462 495.098 569.892 493.712 570.9 491.75C571.944 493.694 574.374 495.098 576.876 495.53L577.488 494.342ZM578.19 497.276H563.61V498.5H570.126V504.35H571.602V498.5H578.208L578.19 497.276ZM592.823 492.686H583.337V488.528H581.861V493.874H592.823V492.686ZM587.171 503.126C584.633 503.126 583.139 502.46 583.139 501.344C583.139 500.192 584.633 499.544 587.171 499.544C589.709 499.544 591.203 500.192 591.203 501.344C591.203 502.46 589.691 503.126 587.171 503.126ZM587.171 498.392C583.733 498.392 581.645 499.454 581.645 501.344C581.645 503.216 583.733 504.278 587.171 504.278C590.609 504.278 592.697 503.216 592.697 501.344C592.697 499.454 590.609 498.392 587.171 498.392ZM579.899 495.746V496.952H594.497V495.746H579.899ZM596.997 506.546C598.671 503.846 599.661 500.948 599.661 497.402C599.661 493.874 598.671 490.958 596.997 488.276L595.989 488.744C597.537 491.318 598.293 494.342 598.293 497.402C598.293 500.462 597.537 503.504 595.989 506.06L596.997 506.546Z" fill="#004170"/>
<path d="M398.844 489.264V504.275H400.102V489.264H398.844Z" fill="#004170" fill-opacity="0.3"/>
<path d="M24 380C679 317 923 180 923 180" stroke="url(#paint0_linear_1_2909)" stroke-width="2" stroke-dasharray="6 6"/>
<circle cx="12" cy="12" r="12" transform="matrix(-1 0 0 1 170 354)" fill="#9BCCEC"/>
<circle cx="12" cy="12" r="12" transform="matrix(-0.999695 0.0247143 0.0247143 0.999695 466.082 304.889)" fill="#9BCCEC"/>
<circle cx="12" cy="12" r="12" transform="matrix(-0.999695 0.0247143 0.0247143 0.999695 501.996 301)" fill="#E3DDD7"/>
<circle cx="12" cy="12" r="12" transform="matrix(-0.998842 0.0481069 0.0481069 0.998842 763.129 232.53)" fill="#9BCCEC"/>
<circle cx="12" cy="12" r="12" transform="matrix(-0.998842 0.0481069 0.0481069 0.998842 834.035 208.09)" fill="#EF9A96"/>
<circle cx="12" cy="12" r="12" transform="matrix(-0.998842 0.0481069 0.0481069 0.998842 798.652 221.808)" fill="#E3DDD7"/>
<path d="M865.688 164.192V165.904H867.896V169.408H870.008V160.64H867.896V164.192H865.688ZM866.568 167.36C864.328 166.624 863.304 164.896 863.24 163.216H866.104V161.52H858.184V163.216H861.08C861.016 165.056 859.944 166.928 857.608 167.744L858.68 169.408C860.392 168.832 861.56 167.632 862.2 166.144C862.84 167.44 863.944 168.48 865.544 169.008L866.568 167.36ZM865.032 173.792C863.096 173.792 862.088 173.392 862.088 172.56C862.088 171.728 863.096 171.328 865.032 171.328C866.952 171.328 867.96 171.728 867.96 172.56C867.96 173.392 866.952 173.792 865.032 173.792ZM865.032 169.728C861.896 169.728 859.976 170.768 859.976 172.56C859.976 174.352 861.896 175.392 865.032 175.392C868.152 175.392 870.072 174.352 870.072 172.56C870.072 170.768 868.152 169.728 865.032 169.728ZM881.975 169.28H884.087V160.64H881.975V163.328H879.287V165.04H881.975V169.28ZM880.631 167.152C878.295 166.4 877.335 164.608 877.335 162.624V161.408H875.191V162.72C875.191 164.752 874.151 166.752 871.639 167.552L872.743 169.248C874.487 168.656 875.655 167.472 876.311 165.968C876.935 167.28 877.975 168.288 879.527 168.816L880.631 167.152ZM879.111 173.76C877.175 173.76 876.167 173.36 876.167 172.528C876.167 171.68 877.175 171.28 879.111 171.28C881.031 171.28 882.039 171.68 882.039 172.528C882.039 173.36 881.031 173.76 879.111 173.76ZM879.111 169.648C875.975 169.648 874.055 170.704 874.055 172.528C874.055 174.32 875.975 175.376 879.111 175.376C882.231 175.376 884.151 174.32 884.151 172.528C884.151 170.704 882.231 169.648 879.111 169.648ZM899.039 169.648H901.151V160.64H899.039V163.008H897.311V164.704H899.039V165.776H897.311V167.456H899.039V169.648ZM892.398 163.296H893.775V167.296C893.311 167.312 892.846 167.344 892.398 167.344V163.296ZM897.151 167.04C896.719 167.088 896.271 167.136 895.807 167.184V163.296H896.975V161.616H889.198V163.296H890.367V167.392C889.822 167.392 889.311 167.392 888.83 167.392L889.054 169.104C891.375 169.104 894.543 169.056 897.279 168.592L897.151 167.04ZM896.159 173.792C894.223 173.792 893.231 173.408 893.231 172.64C893.231 171.856 894.223 171.488 896.159 171.488C898.111 171.488 899.103 171.856 899.103 172.64C899.103 173.408 898.111 173.792 896.159 173.792ZM896.159 169.888C893.023 169.888 891.118 170.896 891.118 172.64C891.118 174.368 893.023 175.376 896.159 175.376C899.311 175.376 901.215 174.368 901.215 172.64C901.215 170.896 899.311 169.888 896.159 169.888ZM903.581 162.144V163.856H908.397C908.013 167.12 906.189 169.456 902.765 171.216L903.949 172.832C908.845 170.352 910.525 166.56 910.525 162.144H903.581ZM916.509 166.256H914.445V160.624H912.333V175.344H914.445V168H916.509V166.256Z" fill="#004170"/>
<circle cx="6" cy="6" r="6" transform="matrix(-1 0 0 1 931 173)" fill="#004170"/>
<path d="M34.748 357.192V358.904H36.956V362.408H39.068V353.64H36.956V357.192H34.748ZM35.628 360.36C33.388 359.624 32.364 357.896 32.3 356.216H35.164V354.52H27.244V356.216H30.14C30.076 358.056 29.004 359.928 26.668 360.744L27.74 362.408C29.452 361.832 30.62 360.632 31.26 359.144C31.9 360.44 33.004 361.48 34.604 362.008L35.628 360.36ZM34.092 366.792C32.156 366.792 31.148 366.392 31.148 365.56C31.148 364.728 32.156 364.328 34.092 364.328C36.012 364.328 37.02 364.728 37.02 365.56C37.02 366.392 36.012 366.792 34.092 366.792ZM34.092 362.728C30.956 362.728 29.036 363.768 29.036 365.56C29.036 367.352 30.956 368.392 34.092 368.392C37.212 368.392 39.132 367.352 39.132 365.56C39.132 363.768 37.212 362.728 34.092 362.728ZM41.3548 357.368V361.912H42.6188C45.5628 361.912 47.4348 361.848 49.4828 361.464L49.3068 359.768C47.4668 360.104 45.8508 360.2 43.4508 360.216V358.936H48.0588V354.504H41.3388V356.2H45.9788V357.368H41.3548ZM47.5788 366.776C45.6588 366.776 44.6668 366.408 44.6668 365.592C44.6668 364.776 45.6588 364.408 47.5788 364.408C49.4988 364.408 50.4908 364.776 50.4908 365.592C50.4908 366.408 49.4988 366.776 47.5788 366.776ZM47.5788 362.792C44.5068 362.792 42.5868 363.816 42.5868 365.592C42.5868 367.352 44.5068 368.392 47.5788 368.392C50.6508 368.392 52.5708 367.352 52.5708 365.592C52.5708 363.816 50.6508 362.792 47.5788 362.792ZM54.3788 357.336V355.624H52.4268V353.64H50.3148V362.52H52.4268V360.44H54.3788V358.728H52.4268V357.336H54.3788ZM68.0985 362.648H70.2105V353.64H68.0985V356.008H66.3705V357.704H68.0985V358.776H66.3705V360.456H68.0985V362.648ZM61.4585 356.296H62.8345V360.296C62.3705 360.312 61.9065 360.344 61.4585 360.344V356.296ZM66.2105 360.04C65.7785 360.088 65.3305 360.136 64.8665 360.184V356.296H66.0345V354.616H58.2585V356.296H59.4265V360.392C58.8825 360.392 58.3705 360.392 57.8905 360.392L58.1145 362.104C60.4345 362.104 63.6025 362.056 66.3385 361.592L66.2105 360.04ZM65.2185 366.792C63.2825 366.792 62.2905 366.408 62.2905 365.64C62.2905 364.856 63.2825 364.488 65.2185 364.488C67.1705 364.488 68.1625 364.856 68.1625 365.64C68.1625 366.408 67.1705 366.792 65.2185 366.792ZM65.2185 362.888C62.0825 362.888 60.1785 363.896 60.1785 365.64C60.1785 367.368 62.0825 368.376 65.2185 368.376C68.3705 368.376 70.2745 367.368 70.2745 365.64C70.2745 363.896 68.3705 362.888 65.2185 362.888ZM72.6413 355.144V356.856H77.4573C77.0733 360.12 75.2493 362.456 71.8253 364.216L73.0093 365.832C77.9053 363.352 79.5853 359.56 79.5853 355.144H72.6413ZM85.5693 359.256H83.5053V353.624H81.3933V368.344H83.5053V361H85.5693V359.256Z" fill="#930E14"/>
<circle cx="6" cy="6" r="6" transform="matrix(-1 0 0 1 29 374)" fill="#930E14"/>
<path d="M0 86C0 77.1634 7.16344 70 16 70H472V130H0V86Z" fill="#004170"/>
<path d="M209.315 98.84C205.135 98.26 203.015 95.86 203.015 93.72V92.84H200.195V93.72C200.195 95.88 198.095 98.26 193.895 98.84L194.895 100.96C198.115 100.48 200.435 98.98 201.615 97C202.795 98.98 205.095 100.48 208.315 100.96L209.315 98.84ZM209.915 102.32H193.275V104.46H200.215V110.74H202.855V104.46H209.915V102.32ZM226.173 96.88H216.093V92.62H213.453V98.98H226.173V96.88ZM219.633 108.66C217.173 108.66 215.913 108.22 215.913 107.26C215.913 106.3 217.173 105.86 219.633 105.86C222.093 105.86 223.353 106.3 223.353 107.26C223.353 108.22 222.093 108.66 219.633 108.66ZM219.633 103.84C215.653 103.84 213.253 105.1 213.253 107.26C213.253 109.42 215.653 110.68 219.633 110.68C223.613 110.68 226.033 109.42 226.033 107.26C226.033 105.1 223.613 103.84 219.633 103.84ZM211.373 100.54V102.64H228.033V100.54H211.373ZM233.271 113.04L235.111 112.26C233.431 109.34 232.671 105.98 232.671 102.68C232.671 99.42 233.431 96.04 235.111 93.12L233.271 92.34C231.391 95.42 230.291 98.7 230.291 102.68C230.291 106.7 231.391 109.94 233.271 113.04ZM246.71 96.74V98.88H249.47V103.26H252.11V92.3H249.47V96.74H246.71ZM247.81 100.7C245.01 99.78 243.73 97.62 243.65 95.52H247.23V93.4H237.33V95.52H240.95C240.87 97.82 239.53 100.16 236.61 101.18L237.95 103.26C240.09 102.54 241.55 101.04 242.35 99.18C243.15 100.8 244.53 102.1 246.53 102.76L247.81 100.7ZM245.89 108.74C243.47 108.74 242.21 108.24 242.21 107.2C242.21 106.16 243.47 105.66 245.89 105.66C248.29 105.66 249.55 106.16 249.55 107.2C249.55 108.24 248.29 108.74 245.89 108.74ZM245.89 103.66C241.97 103.66 239.57 104.96 239.57 107.2C239.57 109.44 241.97 110.74 245.89 110.74C249.79 110.74 252.19 109.44 252.19 107.2C252.19 104.96 249.79 103.66 245.89 103.66ZM261.948 93.72H259.308V96.4C259.308 99.98 257.788 103.54 254.568 104.92L256.148 107.1C258.348 106.06 259.848 104.08 260.668 101.62C261.488 103.88 262.908 105.7 265.028 106.66L266.528 104.52C263.408 103.18 261.948 99.82 261.948 96.4V93.72ZM267.428 92.28V110.76H270.068V92.28H267.428ZM274.907 113.04C276.807 109.94 277.907 106.7 277.907 102.68C277.907 98.7 276.807 95.42 274.907 92.34L273.087 93.12C274.767 96.04 275.527 99.42 275.527 102.68C275.527 105.98 274.767 109.34 273.087 112.26L274.907 113.04Z" fill="white"/>
<path d="M472 70H944V130H472V70Z" fill="#930E14"/>
<path d="M646.831 93.92H642.731V92.2H640.071V93.92H635.991V96H646.831V93.92ZM639.411 99.96C639.411 99.04 640.211 98.58 641.411 98.58C642.591 98.58 643.411 99.04 643.411 99.96C643.411 100.9 642.591 101.36 641.411 101.36C640.211 101.36 639.411 100.9 639.411 99.96ZM645.931 99.96C645.931 97.96 644.071 96.58 641.411 96.58C638.771 96.58 636.891 97.96 636.891 99.96C636.891 101.98 638.771 103.36 641.411 103.36C644.071 103.36 645.931 101.98 645.931 99.96ZM638.211 106.72H647.851V110.74H650.491V104.6H638.211V106.72ZM652.931 97.04H650.491V92.32H647.851V103.84H650.491V99.22H652.931V97.04ZM665.85 98.9H667.29V103.56H669.79V92.3H667.29V96.78H665.85V92.64H663.39V102.98H665.85V98.9ZM663.37 100.48C660.95 99.5 659.95 97.52 659.95 95.54V93.4H657.41V95.54C657.41 97.62 656.41 99.9 653.83 101.02L655.23 103.06C656.93 102.34 658.07 101.02 658.73 99.46C659.39 100.78 660.45 101.88 661.97 102.48L663.37 100.48ZM663.55 108.74C661.15 108.74 659.83 108.26 659.83 107.28C659.83 106.3 661.15 105.82 663.55 105.82C665.91 105.82 667.23 106.3 667.23 107.28C667.23 108.26 665.91 108.74 663.55 108.74ZM663.55 103.84C659.67 103.84 657.19 105.14 657.19 107.28C657.19 109.44 659.67 110.72 663.55 110.72C667.41 110.72 669.87 109.44 669.87 107.28C669.87 105.14 667.41 103.84 663.55 103.84ZM684.288 99.06H676.708V97.16H684.288V99.06ZM686.888 93H684.288V95.1H676.708V93H674.088V101.16H686.888V93ZM688.868 102.9H672.188V105H679.148V110.74H681.788V105H688.868V102.9ZM696.118 99.96C699.598 99.62 701.858 98.34 702.838 96.58C703.798 98.34 706.078 99.62 709.538 99.96L710.458 97.88C707.018 97.6 705.218 96.4 704.758 95.16H709.658V93.06H696.038V95.16H700.918C700.458 96.4 698.658 97.6 695.218 97.88L696.118 99.96ZM702.798 108.76C700.318 108.76 699.078 108.38 699.078 107.48C699.078 106.6 700.318 106.2 702.798 106.2C705.278 106.2 706.518 106.6 706.518 107.48C706.518 108.38 705.278 108.76 702.798 108.76ZM702.798 104.22C698.798 104.22 696.418 105.4 696.418 107.48C696.418 109.56 698.798 110.72 702.798 110.72C706.798 110.72 709.198 109.56 709.198 107.48C709.198 105.4 706.798 104.22 702.798 104.22ZM704.138 101.12V98.92H701.498V101.12H694.518V103.22H711.158V101.12H704.138ZM723.476 93.92H719.356V92.16H716.696V93.92H712.596V95.98H723.456L723.476 93.92ZM716.036 99.74C716.036 98.86 716.856 98.4 718.036 98.4C719.216 98.4 720.036 98.86 720.036 99.74C720.036 100.62 719.216 101.08 718.036 101.08C716.856 101.08 716.036 100.62 716.036 99.74ZM722.556 99.74C722.556 97.78 720.696 96.48 718.036 96.48C715.376 96.48 713.516 97.78 713.516 99.74C713.516 101.68 715.376 103 718.036 103C720.696 103 722.556 101.68 722.556 99.74ZM724.496 108.46H717.756V107.16H724.496V108.46ZM724.496 105.18H717.756V103.78H715.136V110.5H727.116V103.78H724.496V105.18ZM729.556 96.72H727.116V92.32H724.476V103.1H727.116V98.88H729.556V96.72ZM734.535 113.04L736.375 112.26C734.695 109.34 733.935 105.98 733.935 102.68C733.935 99.42 734.695 96.04 736.375 93.12L734.535 92.34C732.655 95.42 731.555 98.7 731.555 102.68C731.555 106.7 732.655 109.94 734.535 113.04ZM754.033 98.84C749.853 98.26 747.733 95.86 747.733 93.72V92.84H744.913V93.72C744.913 95.88 742.813 98.26 738.613 98.84L739.613 100.96C742.833 100.48 745.153 98.98 746.333 97C747.513 98.98 749.813 100.48 753.033 100.96L754.033 98.84ZM754.633 102.32H737.993V104.46H744.933V110.74H747.573V104.46H754.633V102.32ZM763.212 93.72H760.572V96.4C760.572 99.98 759.052 103.54 755.832 104.92L757.412 107.1C759.612 106.06 761.112 104.08 761.932 101.62C762.752 103.88 764.172 105.7 766.292 106.66L767.792 104.52C764.672 103.18 763.212 99.82 763.212 96.4V93.72ZM768.692 92.28V110.76H771.332V92.28H768.692ZM776.17 113.04C778.07 109.94 779.17 106.7 779.17 102.68C779.17 98.7 778.07 95.42 776.17 92.34L774.35 93.12C776.03 96.04 776.79 99.42 776.79 102.68C776.79 105.98 776.03 109.34 774.35 112.26L776.17 113.04Z" fill="white"/>
<rect width="314" height="70" transform="translate(630)" fill="#1D1919"/>
<path d="M696.248 35.0078V40.9805C696.026 41.2741 695.679 41.5964 695.206 41.9473C694.741 42.291 694.121 42.5882 693.348 42.8389C692.574 43.0895 691.611 43.2148 690.458 43.2148C689.477 43.2148 688.578 43.0501 687.762 42.7207C686.946 42.3841 686.24 41.8936 685.646 41.249C685.059 40.6045 684.604 39.8203 684.281 38.8965C683.959 37.9655 683.798 36.9056 683.798 35.7168V34.6318C683.798 33.4502 683.945 32.3975 684.239 31.4736C684.539 30.5426 684.969 29.7549 685.528 29.1104C686.086 28.4658 686.759 27.9788 687.547 27.6494C688.342 27.3128 689.241 27.1445 690.243 27.1445C691.525 27.1445 692.585 27.3594 693.423 27.7891C694.268 28.2116 694.92 28.7988 695.378 29.5508C695.836 30.3027 696.127 31.1621 696.248 32.1289H693.606C693.52 31.5846 693.351 31.0977 693.101 30.668C692.857 30.2383 692.506 29.9017 692.048 29.6582C691.597 29.4076 691.01 29.2822 690.286 29.2822C689.663 29.2822 689.115 29.4004 688.643 29.6367C688.17 29.873 687.776 30.2204 687.461 30.6787C687.153 31.137 686.92 31.6956 686.763 32.3545C686.605 33.0133 686.527 33.7653 686.527 34.6104V35.7168C686.527 36.5762 686.616 37.3389 686.795 38.0049C686.981 38.6709 687.246 39.2331 687.59 39.6914C687.941 40.1497 688.367 40.4971 688.868 40.7334C689.37 40.9626 689.935 41.0771 690.566 41.0771C691.182 41.0771 691.686 41.027 692.08 40.9268C692.474 40.8193 692.786 40.694 693.015 40.5508C693.251 40.4004 693.434 40.2572 693.563 40.1211V37.0166H690.308V35.0078H696.248ZM702.188 26.5V43H699.589V26.5H702.188ZM704.97 37.3174V37.0703C704.97 36.2324 705.092 35.4554 705.335 34.7393C705.579 34.016 705.93 33.3893 706.388 32.8594C706.854 32.3223 707.419 31.9069 708.085 31.6133C708.758 31.3125 709.518 31.1621 710.363 31.1621C711.215 31.1621 711.974 31.3125 712.64 31.6133C713.313 31.9069 713.883 32.3223 714.348 32.8594C714.814 33.3893 715.168 34.016 715.411 34.7393C715.655 35.4554 715.777 36.2324 715.777 37.0703V37.3174C715.777 38.1553 715.655 38.9323 715.411 39.6484C715.168 40.3646 714.814 40.9912 714.348 41.5283C713.883 42.0583 713.317 42.4736 712.651 42.7744C711.985 43.068 711.229 43.2148 710.384 43.2148C709.532 43.2148 708.769 43.068 708.096 42.7744C707.43 42.4736 706.864 42.0583 706.399 41.5283C705.933 40.9912 705.579 40.3646 705.335 39.6484C705.092 38.9323 704.97 38.1553 704.97 37.3174ZM707.559 37.0703V37.3174C707.559 37.8402 707.613 38.3343 707.72 38.7998C707.828 39.2653 707.996 39.6735 708.225 40.0244C708.454 40.3753 708.748 40.651 709.106 40.8516C709.464 41.0521 709.89 41.1523 710.384 41.1523C710.864 41.1523 711.279 41.0521 711.63 40.8516C711.988 40.651 712.282 40.3753 712.511 40.0244C712.74 39.6735 712.909 39.2653 713.016 38.7998C713.131 38.3343 713.188 37.8402 713.188 37.3174V37.0703C713.188 36.5547 713.131 36.0677 713.016 35.6094C712.909 35.1439 712.737 34.7321 712.5 34.374C712.271 34.016 711.978 33.7367 711.619 33.5361C711.269 33.3285 710.85 33.2246 710.363 33.2246C709.876 33.2246 709.453 33.3285 709.095 33.5361C708.744 33.7367 708.454 34.016 708.225 34.374C707.996 34.7321 707.828 35.1439 707.72 35.6094C707.613 36.0677 707.559 36.5547 707.559 37.0703ZM718.397 26.5H720.986V40.5186L720.739 43H718.397V26.5ZM728.57 37.0811V37.3066C728.57 38.166 728.474 38.9574 728.28 39.6807C728.094 40.3968 727.808 41.0199 727.421 41.5498C727.041 42.0798 726.569 42.4915 726.003 42.7852C725.444 43.0716 724.796 43.2148 724.059 43.2148C723.335 43.2148 722.705 43.0788 722.168 42.8066C721.631 42.5345 721.18 42.1478 720.814 41.6465C720.456 41.1452 720.166 40.5472 719.944 39.8525C719.722 39.1579 719.565 38.3916 719.472 37.5537V36.834C719.565 35.9889 719.722 35.2227 719.944 34.5352C720.166 33.8405 720.456 33.2425 720.814 32.7412C721.18 32.2327 721.627 31.8424 722.157 31.5703C722.694 31.2982 723.321 31.1621 724.037 31.1621C724.782 31.1621 725.437 31.3053 726.003 31.5918C726.576 31.8783 727.052 32.2865 727.432 32.8164C727.811 33.3392 728.094 33.9622 728.28 34.6855C728.474 35.4089 728.57 36.2074 728.57 37.0811ZM725.981 37.3066V37.0811C725.981 36.5583 725.938 36.0677 725.852 35.6094C725.767 35.1439 725.623 34.7357 725.423 34.3848C725.229 34.0339 724.964 33.7581 724.628 33.5576C724.298 33.3499 723.887 33.2461 723.393 33.2461C722.934 33.2461 722.54 33.3249 722.211 33.4824C721.881 33.64 721.606 33.8548 721.384 34.127C721.162 34.3991 720.986 34.7142 720.857 35.0723C720.736 35.4303 720.653 35.8171 720.61 36.2324V38.1768C720.675 38.7139 720.811 39.208 721.018 39.6592C721.233 40.1032 721.534 40.4613 721.921 40.7334C722.308 40.9984 722.805 41.1309 723.414 41.1309C723.894 41.1309 724.298 41.0342 724.628 40.8408C724.957 40.6475 725.219 40.3789 725.412 40.0352C725.613 39.6842 725.756 39.276 725.842 38.8105C725.935 38.3451 725.981 37.8438 725.981 37.3066ZM737.754 40.6689V35.126C737.754 34.7106 737.679 34.3525 737.529 34.0518C737.378 33.751 737.149 33.5182 736.841 33.3535C736.541 33.1888 736.161 33.1064 735.703 33.1064C735.28 33.1064 734.915 33.1781 734.607 33.3213C734.299 33.4645 734.059 33.6579 733.887 33.9014C733.715 34.1449 733.629 34.4206 733.629 34.7285H731.051C731.051 34.2702 731.162 33.8262 731.384 33.3965C731.606 32.9668 731.929 32.5837 732.351 32.2471C732.774 31.9105 733.278 31.6455 733.866 31.4521C734.453 31.2588 735.112 31.1621 735.842 31.1621C736.716 31.1621 737.489 31.3089 738.163 31.6025C738.843 31.8962 739.376 32.3402 739.763 32.9346C740.157 33.5218 740.354 34.2594 740.354 35.1475V40.3145C740.354 40.8444 740.39 41.3206 740.461 41.7432C740.54 42.1585 740.651 42.5202 740.794 42.8281V43H738.141C738.019 42.7207 737.923 42.3662 737.851 41.9365C737.787 41.4997 737.754 41.0771 737.754 40.6689ZM738.13 35.9316L738.152 37.5322H736.293C735.814 37.5322 735.391 37.5788 735.026 37.6719C734.661 37.7578 734.356 37.8867 734.113 38.0586C733.869 38.2305 733.687 38.4382 733.565 38.6816C733.443 38.9251 733.382 39.2008 733.382 39.5088C733.382 39.8167 733.454 40.0996 733.597 40.3574C733.74 40.6081 733.948 40.805 734.22 40.9482C734.499 41.0915 734.836 41.1631 735.23 41.1631C735.76 41.1631 736.222 41.0557 736.616 40.8408C737.017 40.6188 737.332 40.3503 737.561 40.0352C737.79 39.7129 737.912 39.4085 737.926 39.1221L738.764 40.2715C738.678 40.5651 738.531 40.8802 738.324 41.2168C738.116 41.5534 737.844 41.8757 737.507 42.1836C737.178 42.4844 736.78 42.7314 736.315 42.9248C735.857 43.1182 735.327 43.2148 734.725 43.2148C733.966 43.2148 733.289 43.0645 732.695 42.7637C732.1 42.4557 731.635 42.0439 731.298 41.5283C730.962 41.0055 730.793 40.4147 730.793 39.7559C730.793 39.14 730.908 38.5957 731.137 38.123C731.374 37.6432 731.717 37.2422 732.168 36.9199C732.627 36.5977 733.185 36.3542 733.844 36.1895C734.503 36.0176 735.255 35.9316 736.1 35.9316H738.13ZM746.273 26.5V43H743.673V26.5H746.273ZM763.953 38.9717C763.953 38.6494 763.903 38.363 763.803 38.1123C763.71 37.8617 763.542 37.6325 763.298 37.4248C763.055 37.2171 762.711 37.0166 762.267 36.8232C761.83 36.6227 761.271 36.4186 760.591 36.2109C759.846 35.9818 759.159 35.7275 758.528 35.4482C757.905 35.1618 757.361 34.8324 756.896 34.46C756.43 34.0804 756.069 33.6471 755.811 33.1602C755.553 32.666 755.424 32.0967 755.424 31.4521C755.424 30.8148 755.556 30.2347 755.821 29.7119C756.094 29.1891 756.477 28.738 756.971 28.3584C757.472 27.9717 758.063 27.6745 758.743 27.4668C759.424 27.252 760.176 27.1445 760.999 27.1445C762.159 27.1445 763.158 27.3594 763.996 27.7891C764.841 28.2188 765.489 28.7952 765.941 29.5186C766.399 30.2419 766.628 31.0404 766.628 31.9141H763.953C763.953 31.3984 763.842 30.9437 763.62 30.5498C763.405 30.1488 763.076 29.8337 762.632 29.6045C762.195 29.3753 761.64 29.2607 760.967 29.2607C760.33 29.2607 759.8 29.3574 759.377 29.5508C758.955 29.7441 758.639 30.0055 758.432 30.335C758.224 30.6644 758.12 31.0368 758.12 31.4521C758.12 31.7458 758.188 32.0143 758.324 32.2578C758.46 32.4941 758.668 32.7161 758.947 32.9238C759.227 33.1243 759.578 33.3141 760 33.4932C760.423 33.6722 760.92 33.8441 761.493 34.0088C762.36 34.2666 763.115 34.5531 763.76 34.8682C764.404 35.1761 764.942 35.527 765.371 35.9209C765.801 36.3148 766.123 36.7624 766.338 37.2637C766.553 37.7578 766.66 38.32 766.66 38.9502C766.66 39.609 766.528 40.2035 766.263 40.7334C765.998 41.2562 765.618 41.7038 765.124 42.0762C764.637 42.4414 764.05 42.7243 763.362 42.9248C762.682 43.1182 761.923 43.2148 761.085 43.2148C760.333 43.2148 759.592 43.1146 758.861 42.9141C758.138 42.7135 757.479 42.4092 756.885 42.001C756.291 41.5856 755.818 41.07 755.467 40.4541C755.116 39.8311 754.941 39.1042 754.941 38.2734H757.637C757.637 38.7819 757.723 39.2152 757.895 39.5732C758.074 39.9313 758.321 40.2249 758.636 40.4541C758.951 40.6761 759.316 40.8408 759.732 40.9482C760.154 41.0557 760.605 41.1094 761.085 41.1094C761.715 41.1094 762.242 41.0199 762.664 40.8408C763.094 40.6618 763.416 40.4111 763.631 40.0889C763.846 39.7666 763.953 39.3942 763.953 38.9717ZM775.92 27.3594V43H773.245V27.3594H775.92ZM780.829 27.3594V29.5078H768.379V27.3594H780.829ZM793.569 40.8623V43H785.265V40.8623H793.569ZM786.028 27.3594V43H783.331V27.3594H786.028ZM792.484 33.8906V35.9961H785.265V33.8906H792.484ZM793.515 27.3594V29.5078H785.265V27.3594H793.515ZM802.302 29.4434L797.629 43H794.804L800.69 27.3594H802.495L802.302 29.4434ZM806.212 43L801.528 29.4434L801.324 27.3594H803.139L809.048 43H806.212ZM805.986 37.1992V39.3369H797.478V37.1992H805.986ZM812.334 27.3594H814.741L819.263 39.4229L823.775 27.3594H826.181L820.208 43H818.296L812.334 27.3594ZM811.239 27.3594H813.527L813.924 37.8008V43H811.239V27.3594ZM824.989 27.3594H827.287V43H824.591V37.8008L824.989 27.3594ZM842.766 27.3594V43H840.091V27.3594H842.766ZM847.675 27.3594V29.5078H835.225V27.3594H847.675ZM851.746 33.5898V43H849.157V31.377H851.628L851.746 33.5898ZM855.302 31.3018L855.28 33.708C855.123 33.6794 854.951 33.6579 854.765 33.6436C854.586 33.6292 854.407 33.6221 854.228 33.6221C853.784 33.6221 853.393 33.6865 853.057 33.8154C852.72 33.9372 852.437 34.1162 852.208 34.3525C851.986 34.5817 851.814 34.861 851.692 35.1904C851.571 35.5199 851.499 35.8887 851.478 36.2969L850.887 36.3398C850.887 35.6094 850.958 34.9326 851.102 34.3096C851.245 33.6865 851.46 33.1387 851.746 32.666C852.04 32.1934 852.405 31.8245 852.842 31.5596C853.286 31.2946 853.798 31.1621 854.378 31.1621C854.536 31.1621 854.704 31.1764 854.883 31.2051C855.069 31.2337 855.209 31.266 855.302 31.3018ZM863.53 40.6689V35.126C863.53 34.7106 863.455 34.3525 863.304 34.0518C863.154 33.751 862.925 33.5182 862.617 33.3535C862.316 33.1888 861.937 33.1064 861.478 33.1064C861.056 33.1064 860.69 33.1781 860.382 33.3213C860.075 33.4645 859.835 33.6579 859.663 33.9014C859.491 34.1449 859.405 34.4206 859.405 34.7285H856.827C856.827 34.2702 856.938 33.8262 857.16 33.3965C857.382 32.9668 857.704 32.5837 858.127 32.2471C858.549 31.9105 859.054 31.6455 859.641 31.4521C860.229 31.2588 860.887 31.1621 861.618 31.1621C862.492 31.1621 863.265 31.3089 863.938 31.6025C864.618 31.8962 865.152 32.3402 865.539 32.9346C865.933 33.5218 866.13 34.2594 866.13 35.1475V40.3145C866.13 40.8444 866.165 41.3206 866.237 41.7432C866.316 42.1585 866.427 42.5202 866.57 42.8281V43H863.917C863.795 42.7207 863.698 42.3662 863.627 41.9365C863.562 41.4997 863.53 41.0771 863.53 40.6689ZM863.906 35.9316L863.927 37.5322H862.069C861.589 37.5322 861.167 37.5788 860.801 37.6719C860.436 37.7578 860.132 37.8867 859.888 38.0586C859.645 38.2305 859.462 38.4382 859.34 38.6816C859.219 38.9251 859.158 39.2008 859.158 39.5088C859.158 39.8167 859.229 40.0996 859.373 40.3574C859.516 40.6081 859.724 40.805 859.996 40.9482C860.275 41.0915 860.612 41.1631 861.006 41.1631C861.535 41.1631 861.997 41.0557 862.391 40.8408C862.792 40.6188 863.107 40.3503 863.337 40.0352C863.566 39.7129 863.687 39.4085 863.702 39.1221L864.54 40.2715C864.454 40.5651 864.307 40.8802 864.099 41.2168C863.892 41.5534 863.619 41.8757 863.283 42.1836C862.953 42.4844 862.556 42.7314 862.09 42.9248C861.632 43.1182 861.102 43.2148 860.501 43.2148C859.742 43.2148 859.065 43.0645 858.47 42.7637C857.876 42.4557 857.41 42.0439 857.074 41.5283C856.737 41.0055 856.569 40.4147 856.569 39.7559C856.569 39.14 856.684 38.5957 856.913 38.123C857.149 37.6432 857.493 37.2422 857.944 36.9199C858.402 36.5977 858.961 36.3542 859.62 36.1895C860.279 36.0176 861.031 35.9316 861.876 35.9316H863.906ZM874.025 41.1523C874.447 41.1523 874.827 41.07 875.163 40.9053C875.507 40.7334 875.783 40.4971 875.99 40.1963C876.205 39.8955 876.323 39.5482 876.345 39.1543H878.783C878.769 39.9062 878.547 40.5902 878.117 41.2061C877.688 41.8219 877.118 42.3125 876.409 42.6777C875.7 43.0358 874.916 43.2148 874.057 43.2148C873.169 43.2148 872.395 43.0645 871.737 42.7637C871.078 42.4557 870.53 42.0332 870.093 41.4961C869.656 40.959 869.327 40.3395 869.105 39.6377C868.89 38.9359 868.782 38.1839 868.782 37.3818V37.0059C868.782 36.2038 868.89 35.4518 869.105 34.75C869.327 34.041 869.656 33.418 870.093 32.8809C870.53 32.3438 871.078 31.9248 871.737 31.624C872.395 31.3161 873.165 31.1621 874.046 31.1621C874.977 31.1621 875.793 31.3483 876.495 31.7207C877.197 32.0859 877.749 32.598 878.15 33.2568C878.558 33.9085 878.769 34.6676 878.783 35.5342H876.345C876.323 35.1045 876.216 34.7178 876.023 34.374C875.836 34.0231 875.571 33.7438 875.228 33.5361C874.891 33.3285 874.487 33.2246 874.014 33.2246C873.491 33.2246 873.058 33.332 872.714 33.5469C872.37 33.7546 872.102 34.041 871.908 34.4062C871.715 34.7643 871.575 35.1689 871.489 35.6201C871.411 36.0641 871.371 36.526 871.371 37.0059V37.3818C871.371 37.8617 871.411 38.3271 871.489 38.7783C871.568 39.2295 871.704 39.6341 871.898 39.9922C872.098 40.3431 872.37 40.626 872.714 40.8408C873.058 41.0485 873.495 41.1523 874.025 41.1523ZM883.821 26.5V43H881.221V26.5H883.821ZM891.04 31.377L885.98 36.9844L883.209 39.8203L882.532 37.6289L884.627 35.04L887.914 31.377H891.04ZM888.472 43L884.702 37.543L886.335 35.7275L891.469 43H888.472Z" fill="white"/>
<defs>
<linearGradient id="paint0_linear_1_2909" x1="-58.3181" y1="343.815" x2="975.978" y2="343.815" gradientUnits="userSpaceOnUse">
<stop stop-color="#930E14"/>
<stop offset="1" stop-color="#004170"/>
</linearGradient>
</defs>
</svg>
