<svg width="1194" height="525" viewBox="0 0 1194 525" fill="none" xmlns="http://www.w3.org/2000/svg">
<path opacity="0.1" d="M597 120H1194V509C1194 517.837 1186.84 525 1178 525H597V120Z" fill="#004170"/>
<path opacity="0.1" d="M0 120H597V525H16C7.16346 525 0 517.837 0 509V120Z" fill="#930E14"/>
<path d="M796 70H1194V480H796V70Z" fill="#212121" fill-opacity="0.3"/>
<rect width="796" height="60" transform="translate(398 405)" fill="#E3DDD7"/>
<path d="M632.394 435.314C629.784 434.504 628.668 432.56 628.668 430.562V428.87H626.256V430.364C626.256 432.614 625.14 434.828 622.368 435.746L623.61 437.618C625.5 436.952 626.778 435.674 627.498 434.054C628.2 435.458 629.406 436.574 631.152 437.15L632.394 435.314ZM630.252 442.712C628.128 442.712 626.994 442.28 626.994 441.344C626.994 440.426 628.128 439.994 630.252 439.994C632.358 439.994 633.492 440.426 633.492 441.344C633.492 442.28 632.358 442.712 630.252 442.712ZM630.252 438.158C626.796 438.158 624.636 439.346 624.636 441.344C624.636 443.36 626.796 444.548 630.252 444.548C633.69 444.548 635.85 443.36 635.85 441.344C635.85 439.346 633.69 438.158 630.252 438.158ZM635.67 431.822V427.988H633.294V437.78H635.67V433.784H637.866V431.822H635.67ZM648.683 435.314C646.073 434.504 644.957 432.56 644.957 430.562V428.87H642.545V430.364C642.545 432.614 641.429 434.828 638.657 435.746L639.899 437.618C641.789 436.952 643.067 435.674 643.787 434.054C644.489 435.458 645.695 436.574 647.441 437.15L648.683 435.314ZM646.541 442.712C644.417 442.712 643.283 442.28 643.283 441.344C643.283 440.426 644.417 439.994 646.541 439.994C648.647 439.994 649.781 440.426 649.781 441.344C649.781 442.28 648.647 442.712 646.541 442.712ZM646.541 438.158C643.085 438.158 640.925 439.346 640.925 441.344C640.925 443.36 643.085 444.548 646.541 444.548C649.979 444.548 652.139 443.36 652.139 441.344C652.139 439.346 649.979 438.158 646.541 438.158ZM651.959 431.822V427.988H649.583V437.78H651.959V433.784H654.155V431.822H651.959ZM663.657 435.476C662.019 435.782 660.561 435.854 658.185 435.872V434.144H663.063V428.906H655.809V430.814H660.723V432.38H655.827V437.78H657.105C660.255 437.78 661.965 437.726 663.891 437.366L663.657 435.476ZM657.717 440.822H666.681V444.566H669.057V438.932H657.717V440.822ZM666.681 427.988V430.256H664.017V432.164H666.681V433.802H664.017V435.692H666.681V438.194H669.057V427.97L666.681 427.988ZM690.77 439.566C689.58 439.566 688.747 438.597 688.747 437.237C688.747 435.911 689.58 434.942 690.77 434.942C691.943 434.942 692.793 435.911 692.793 437.237C692.793 438.597 691.943 439.566 690.77 439.566ZM690.77 433.769C688.883 433.769 687.506 435.197 687.506 437.237C687.506 439.311 688.883 440.722 690.77 440.722C692.657 440.722 694.034 439.311 694.034 437.237C694.034 435.197 692.657 433.769 690.77 433.769ZM691.45 429.451H690.073V431.61H686.979V432.749H694.544V431.61H691.45V429.451ZM698.573 428.992V435.435H696.618V429.349H695.309V443.51H696.618V436.574H698.573V444.241H699.916V428.992H698.573ZM713.549 442.915H706.545V441.011H713.549V442.915ZM713.549 439.923H706.545V438.07H705.168V444.037H714.926V438.07H713.549V439.923ZM708.636 435.639H704.522V433.225H708.636V435.639ZM713.532 429.026V432.766H710.013V429.808H708.636V432.137H704.522V429.808H703.145V436.778H710.013V433.905H713.532V437.356H714.943V429.026H713.532ZM730.235 436.489C727.991 435.826 726.512 434.143 726.512 432.29V431.984H729.878V430.862H726.512V428.924H725.118V430.862H721.735V431.984H725.118V432.29C725.118 434.33 723.588 436.166 721.327 436.863L722.024 437.968C723.809 437.356 725.186 436.098 725.832 434.483C726.512 435.928 727.855 437.033 729.589 437.577L730.235 436.489ZM728.297 443.153C726.019 443.153 724.659 442.541 724.659 441.487C724.659 440.433 726.019 439.821 728.297 439.821C730.541 439.821 731.918 440.433 731.918 441.487C731.918 442.541 730.541 443.153 728.297 443.153ZM728.297 438.733C725.152 438.733 723.265 439.719 723.265 441.487C723.265 443.238 725.152 444.224 728.297 444.224C731.408 444.224 733.312 443.238 733.312 441.487C733.312 439.719 731.408 438.733 728.297 438.733ZM733.142 432.953V429.009H731.748V438.359H733.142V434.109H735.403V432.953H733.142ZM737.833 435.095C740.4 434.891 742.661 434.109 743.596 432.698C744.531 434.109 746.775 434.891 749.325 435.095L749.75 434.041C746.911 433.854 744.616 432.919 744.378 431.406H749.07V430.352H744.293V428.907H742.899V430.352H738.105V431.406H742.814C742.576 432.919 740.247 433.854 737.425 434.041L737.833 435.095ZM750.464 436.846V435.775H736.711V436.846H742.882V438.257H738.343V439.294H747.336V440.586H738.394V444.088H749.172V443.034H739.754V441.589H748.713V438.257H744.293V436.846H750.464ZM757.988 439.974H766.777V444.275H768.188V438.835H757.988V439.974ZM763.53 434.67C763.632 434.313 763.7 433.939 763.7 433.514C763.7 433.106 763.632 432.732 763.53 432.375H766.777V434.67H763.53ZM759.773 436.013C758.294 436.013 757.189 434.976 757.189 433.514C757.189 432.086 758.294 431.049 759.773 431.049C761.269 431.049 762.374 432.086 762.374 433.514C762.374 434.976 761.269 436.013 759.773 436.013ZM766.777 429.026V431.253H762.935C762.221 430.386 761.099 429.859 759.773 429.859C757.529 429.859 755.863 431.372 755.863 433.514C755.863 435.673 757.529 437.203 759.773 437.203C761.099 437.203 762.204 436.676 762.918 435.809H766.777V438.002H768.188V429.009L766.777 429.026ZM779.984 435.707C777.672 436.115 775.717 436.2 773.048 436.2V434.092H778.505V429.961H771.637V431.1H777.128V433.021H771.671V437.339H772.878C775.7 437.339 777.706 437.254 780.12 436.846L779.984 435.707ZM777.978 443.17C775.7 443.17 774.323 442.541 774.323 441.47C774.323 440.399 775.7 439.77 777.978 439.77C780.256 439.77 781.616 440.399 781.616 441.47C781.616 442.541 780.256 443.17 777.978 443.17ZM777.978 438.682C774.867 438.682 772.963 439.702 772.963 441.47C772.963 443.238 774.867 444.241 777.978 444.241C781.072 444.241 782.993 443.238 782.993 441.47C782.993 439.702 781.072 438.682 777.978 438.682ZM785.101 432.545V431.389H782.84V429.026H781.446V438.24H782.84V435.758H785.101V434.602H782.84V432.545H785.101ZM789.554 446.349L790.523 445.89C789.044 443.476 788.347 440.603 788.347 437.713C788.347 434.823 789.044 431.967 790.523 429.536L789.554 429.094C787.99 431.627 787.055 434.381 787.055 437.713C787.055 441.062 787.99 443.799 789.554 446.349ZM796.403 430.454H795.06V433.361C795.06 435.979 793.802 438.716 791.711 439.94L792.578 440.977C794.091 440.042 795.196 438.325 795.74 436.302C796.284 438.155 797.304 439.77 798.749 440.654L799.548 439.566C797.542 438.342 796.403 435.758 796.403 433.31V430.454ZM800.415 434.483H797.899V435.639H800.415V443.51H801.724V429.349H800.415V434.483ZM803.509 429.009V444.258H804.835V429.009H803.509ZM819.437 434.534H810.461V433.004H818.944V431.95H810.461V430.505H819.352V429.417H809.067V435.622H819.437V434.534ZM808.795 440.773H817.873V444.275H819.267V439.668H808.795V440.773ZM807.248 437.067V438.189H821.052V437.067H807.248ZM827.657 436.37C828.269 436.37 828.779 435.877 828.779 435.197C828.779 434.483 828.269 433.99 827.657 433.99C827.045 433.99 826.535 434.483 826.535 435.197C826.535 435.877 827.045 436.37 827.657 436.37ZM827.657 443.221C828.269 443.221 828.779 442.745 828.779 442.048C828.779 441.334 828.269 440.841 827.657 440.841C827.045 440.841 826.535 441.334 826.535 442.048C826.535 442.745 827.045 443.221 827.657 443.221ZM842.99 436.965H839.199V431.661H842.99V436.965ZM837.805 436.965H835.476V438.104H846.713V436.965H844.384V431.661H846.747V430.539H835.442V431.661H837.805V436.965ZM834.218 441.147V442.303H848.039V441.147H834.218ZM857.201 441.232V438.359H862.08V437.237H852.696V434.772H861.723V430.131H851.285V431.27H860.363V433.65H851.319V438.359H855.79V441.232H849.585V442.371H863.44V441.232H857.201ZM871.276 432.936V434.075H873.571V438.223H874.897V429.349H873.571V432.936H871.276ZM872.466 436.54C870.562 435.724 869.491 433.922 869.491 432.239V431.389H872.109V430.25H865.343V431.389H868.148V432.256C868.148 434.075 867.026 436.047 865.054 436.897L865.785 437.968C867.264 437.305 868.318 436.047 868.845 434.568C869.372 435.894 870.375 436.999 871.769 437.611L872.466 436.54ZM867.604 440.144H876.461V444.275H877.855V439.022H867.604V440.144ZM876.512 429.026V438.342H877.855V429.026H876.512ZM892.609 437.237H883.548V434.823H892.116V433.718H883.548V431.457H892.456V430.335H882.137V438.359H892.609V437.237ZM880.352 441.147V442.286H894.19V441.147H880.352ZM896.127 446.23C897.657 445.584 898.609 444.309 898.609 442.677C898.609 441.538 898.116 440.841 897.3 440.841C896.671 440.841 896.127 441.266 896.127 441.929C896.127 442.643 896.671 443.017 897.266 443.017C897.334 443.017 897.385 443.017 897.453 443C897.453 444.003 896.824 444.836 895.753 445.312L896.127 446.23ZM905.34 433.803C905.34 432.29 906.445 431.202 907.941 431.202C909.42 431.202 910.525 432.29 910.525 433.803C910.525 435.316 909.42 436.404 907.941 436.404C906.445 436.404 905.34 435.316 905.34 433.803ZM914.928 432.528V435.061H911.647C911.783 434.67 911.851 434.245 911.851 433.803C911.851 433.344 911.783 432.919 911.647 432.528H914.928ZM914.928 436.183V440.28H916.339V429.026H914.928V431.406H911.052C910.338 430.522 909.25 429.978 907.941 429.978C905.697 429.978 904.014 431.576 904.014 433.803C904.014 436.03 905.697 437.628 907.941 437.628C909.25 437.628 910.355 437.084 911.069 436.183H914.928ZM907.992 442.779V439.124H906.581V443.918H916.764V442.779H907.992ZM932.964 436.557H930.703C931.128 434.364 931.128 432.749 931.128 431.321V429.995H920.894V431.117H929.768V431.321C929.768 432.749 929.768 434.364 929.292 436.557H919.177V437.696H925.331V444.275H926.742V437.696H932.964V436.557ZM937.553 433.956H945.339V436.761H937.553V433.956ZM942.143 441.164V437.883H946.699V430.097H945.339V432.817H937.553V430.097H936.176V437.883H940.732V441.164H934.544V442.303H948.365V441.164H942.143ZM960.688 432.052C960.688 433.888 960.688 436.03 960.11 438.954L961.504 439.107C962.082 436.03 962.082 433.939 962.082 432.052V430.539H951.389V431.678H960.688V432.052ZM956.693 440.977V435.52H955.299V440.977H949.944V442.116H963.731V440.977H956.693ZM966.093 446.349C967.674 443.799 968.609 441.062 968.609 437.713C968.609 434.381 967.674 431.627 966.093 429.094L965.141 429.536C966.603 431.967 967.317 434.823 967.317 437.713C967.317 440.603 966.603 443.476 965.141 445.89L966.093 446.349Z" fill="#564B41"/>
<path d="M677.988 429.264V444.275H679.246V429.264H677.988Z" fill="#564B41" fill-opacity="0.3"/>
<rect width="398" height="60" transform="translate(796 345)" fill="#EF9A96"/>
<path d="M879.784 369.248H877.39V371.642C877.39 374.792 876.13 378.014 873.322 379.31L874.798 381.218C876.652 380.282 877.894 378.554 878.614 376.43C879.298 378.428 880.504 380.048 882.322 380.93L883.726 379.04C880.99 377.816 879.784 374.774 879.784 371.642V369.248ZM885.094 367.952V373.154H881.908V375.062H885.094V384.584H887.47V367.952H885.094ZM895.947 369.248H893.553V371.66C893.553 374.738 892.293 377.906 889.503 379.22L890.925 381.146C892.797 380.228 894.039 378.482 894.759 376.376C895.443 378.356 896.613 379.958 898.341 380.84L899.781 378.968C897.117 377.654 895.947 374.648 895.947 371.66V369.248ZM905.235 374.342H902.823V367.97H900.447V384.548H902.823V376.322H905.235V374.342ZM914.593 375.476C912.955 375.782 911.497 375.854 909.121 375.872V374.144H913.999V368.906H906.745V370.814H911.659V372.38H906.763V377.78H908.041C911.191 377.78 912.901 377.726 914.827 377.366L914.593 375.476ZM908.653 380.822H917.617V384.566H919.993V378.932H908.653V380.822ZM917.617 367.988V370.256H914.953V372.164H917.617V373.802H914.953V375.692H917.617V378.194H919.993V367.97L917.617 367.988ZM943.066 371.729H946.449V370.573H938.204V371.729H941.689V373.667C941.689 376.251 939.853 379.141 937.677 380.229L938.493 381.334C940.21 380.45 941.689 378.512 942.386 376.285C943.083 378.325 944.511 380.11 946.211 380.96L947.01 379.838C944.8 378.801 943.066 376.098 943.066 373.667V371.729ZM952.178 375.163H949.662V369.026H948.268V384.258H949.662V376.336H952.178V375.163ZM954.217 370.658V371.78H959.946C959.657 375.401 957.617 378.325 953.52 380.28L954.268 381.419C959.334 378.937 961.357 375.061 961.357 370.658H954.217ZM964.434 369.009V384.258H965.828V369.009H964.434ZM973.606 376.421C975.969 376.013 978.213 374.738 979.148 372.936C980.066 374.738 982.327 376.013 984.69 376.421L985.234 375.316C982.548 374.925 979.913 373.174 979.913 371.168V371.083H984.69V369.961H973.555V371.083H978.366V371.168C978.366 373.174 975.731 374.925 973.079 375.316L973.606 376.421ZM986.033 377.696H972.263V378.835H978.417V384.258H979.811V378.835H986.05L986.033 377.696ZM995.229 381.181V377.271H999.87V376.149H990.775V371.372H999.717V370.233H989.381V377.271H993.818V381.181H987.613V382.337H1001.47V381.181H995.229ZM1008.92 379.974H1017.71V384.275H1019.12V378.835H1008.92V379.974ZM1014.47 374.67C1014.57 374.313 1014.64 373.939 1014.64 373.514C1014.64 373.106 1014.57 372.732 1014.47 372.375H1017.71V374.67H1014.47ZM1010.71 376.013C1009.23 376.013 1008.12 374.976 1008.12 373.514C1008.12 372.086 1009.23 371.049 1010.71 371.049C1012.2 371.049 1013.31 372.086 1013.31 373.514C1013.31 374.976 1012.2 376.013 1010.71 376.013ZM1017.71 369.026V371.253H1013.87C1013.16 370.386 1012.03 369.859 1010.71 369.859C1008.46 369.859 1006.8 371.372 1006.8 373.514C1006.8 375.673 1008.46 377.203 1010.71 377.203C1012.03 377.203 1013.14 376.676 1013.85 375.809H1017.71V378.002H1019.12V369.009L1017.71 369.026ZM1030.92 375.707C1028.61 376.115 1026.65 376.2 1023.98 376.2V374.092H1029.44V369.961H1022.57V371.1H1028.06V373.021H1022.61V377.339H1023.81C1026.64 377.339 1028.64 377.254 1031.06 376.846L1030.92 375.707ZM1028.91 383.17C1026.64 383.17 1025.26 382.541 1025.26 381.47C1025.26 380.399 1026.64 379.77 1028.91 379.77C1031.19 379.77 1032.55 380.399 1032.55 381.47C1032.55 382.541 1031.19 383.17 1028.91 383.17ZM1028.91 378.682C1025.8 378.682 1023.9 379.702 1023.9 381.47C1023.9 383.238 1025.8 384.241 1028.91 384.241C1032.01 384.241 1033.93 383.238 1033.93 381.47C1033.93 379.702 1032.01 378.682 1028.91 378.682ZM1036.04 372.545V371.389H1033.78V369.026H1032.38V378.24H1033.78V375.758H1036.04V374.602H1033.78V372.545H1036.04ZM1040.49 386.349L1041.46 385.89C1039.98 383.476 1039.28 380.603 1039.28 377.713C1039.28 374.823 1039.98 371.967 1041.46 369.536L1040.49 369.094C1038.93 371.627 1037.99 374.381 1037.99 377.713C1037.99 381.062 1038.93 383.799 1040.49 386.349ZM1055.33 369.026H1053.94V380.178H1055.33V369.026ZM1052.13 376.897C1049.89 376.149 1048.31 374.296 1048.31 372.239V371.406H1051.76V370.284H1043.4V371.406H1046.88V372.239C1046.88 374.415 1045.33 376.404 1043.02 377.203L1043.75 378.291C1045.55 377.645 1046.97 376.268 1047.61 374.534C1048.31 376.132 1049.7 377.39 1051.45 378.002L1052.13 376.897ZM1046.91 382.779V379.124H1045.52V383.918H1055.79V382.779H1046.91ZM1065.8 381.232V378.359H1070.68V377.237H1061.29V374.772H1070.32V370.131H1059.88V371.27H1068.96V373.65H1059.92V378.359H1064.39V381.232H1058.18V382.371H1072.04V381.232H1065.8ZM1073.96 386.23C1075.49 385.584 1076.44 384.309 1076.44 382.677C1076.44 381.538 1075.95 380.841 1075.13 380.841C1074.5 380.841 1073.96 381.266 1073.96 381.929C1073.96 382.643 1074.5 383.017 1075.1 383.017C1075.17 383.017 1075.22 383.017 1075.28 383C1075.28 384.003 1074.66 384.836 1073.58 385.312L1073.96 386.23ZM1094.12 369.026H1092.73V380.178H1094.12V369.026ZM1090.92 376.897C1088.68 376.149 1087.1 374.296 1087.1 372.239V371.406H1090.55V370.284H1082.19V371.406H1085.67V372.239C1085.67 374.415 1084.12 376.404 1081.81 377.203L1082.54 378.291C1084.34 377.645 1085.76 376.268 1086.4 374.534C1087.1 376.132 1088.49 377.39 1090.24 378.002L1090.92 376.897ZM1085.7 382.779V379.124H1084.31V383.918H1094.58V382.779H1085.7ZM1106.04 370.624H1102.23V368.924H1100.83V370.624H1097.04V371.746H1106.04V370.624ZM1099.22 375.282C1099.22 374.279 1100.14 373.616 1101.53 373.616C1102.92 373.616 1103.86 374.279 1103.86 375.282C1103.86 376.302 1102.92 376.965 1101.53 376.965C1100.14 376.965 1099.22 376.302 1099.22 375.282ZM1105.19 375.282C1105.19 373.616 1103.71 372.528 1101.53 372.528C1099.37 372.528 1097.89 373.616 1097.89 375.282C1097.89 376.965 1099.37 378.036 1101.53 378.036C1103.71 378.036 1105.19 376.965 1105.19 375.282ZM1098.93 380.518H1107.43V384.275H1108.82V379.379H1098.93V380.518ZM1111.08 373.225H1108.82V369.026H1107.43V378.546H1108.82V374.381H1111.08V373.225ZM1113.16 386.349C1114.74 383.799 1115.67 381.062 1115.67 377.713C1115.67 374.381 1114.74 371.627 1113.16 369.094L1112.2 369.536C1113.67 371.967 1114.38 374.823 1114.38 377.713C1114.38 380.603 1113.67 383.476 1112.2 385.89L1113.16 386.349Z" fill="#930E14"/>
<path d="M928.924 369.264V384.275H930.182V369.264H928.924Z" fill="#930E14" fill-opacity="0.3"/>
<path d="M0 465H1194V509C1194 517.837 1186.84 525 1178 525H16C7.16342 525 0 517.837 0 509V465Z" fill="#9BCCEC"/>
<path d="M479.223 492.974H472.653V490.526H479.223V492.974ZM481.563 488.672H470.313V494.846H481.563V488.672ZM472.581 499.454H470.205V504.26H481.815V502.37H472.581V499.454ZM468.459 496.16V498.032H474.993V500.858H477.369V498.032H483.471V496.16H468.459ZM488.743 499.004C487.843 499.004 487.195 498.284 487.195 497.042C487.195 495.8 487.843 495.062 488.743 495.062C489.643 495.062 490.291 495.8 490.291 497.042C490.291 498.284 489.643 499.004 488.743 499.004ZM488.743 493.082C486.619 493.082 485.107 494.72 485.107 497.042C485.107 499.346 486.619 500.984 488.743 500.984C490.867 500.984 492.379 499.346 492.379 497.042C492.379 494.72 490.867 493.082 488.743 493.082ZM489.913 488.42H487.573V490.472H484.747V492.362H492.667V490.472H489.913V488.42ZM496.735 487.952V494.72H495.475V488.276H493.261V503.846H495.475V496.628H496.735V504.53H498.985V487.952H496.735ZM509.514 495.476C507.876 495.782 506.418 495.854 504.042 495.872V494.144H508.92V488.906H501.666V490.814H506.58V492.38H501.684V497.78H502.962C506.112 497.78 507.822 497.726 509.748 497.366L509.514 495.476ZM503.574 500.822H512.538V504.566H514.914V498.932H503.574V500.822ZM512.538 487.988V490.256H509.874V492.164H512.538V493.802H509.874V495.692H512.538V498.194H514.914V487.97L512.538 487.988ZM544.642 488.186V504.368H546.118V488.186H544.642ZM537.604 489.428C535.21 489.428 533.5 491.624 533.5 495.062C533.5 498.5 535.21 500.696 537.604 500.696C539.998 500.696 541.708 498.5 541.708 495.062C541.708 491.624 539.998 489.428 537.604 489.428ZM537.604 490.76C539.17 490.76 540.286 492.452 540.286 495.062C540.286 497.69 539.17 499.382 537.604 499.382C536.02 499.382 534.904 497.69 534.904 495.062C534.904 492.452 536.02 490.76 537.604 490.76ZM553.191 499.364C551.931 499.364 551.049 498.338 551.049 496.898C551.049 495.494 551.931 494.468 553.191 494.468C554.433 494.468 555.333 495.494 555.333 496.898C555.333 498.338 554.433 499.364 553.191 499.364ZM553.191 493.226C551.193 493.226 549.735 494.738 549.735 496.898C549.735 499.094 551.193 500.588 553.191 500.588C555.189 500.588 556.647 499.094 556.647 496.898C556.647 494.738 555.189 493.226 553.191 493.226ZM553.911 488.654H552.453V490.94H549.177V492.146H557.187V490.94H553.911V488.654ZM561.453 488.168V494.99H559.383V488.546H557.997V503.54H559.383V496.196H561.453V504.314H562.875V488.168H561.453ZM574.015 495.8C572.143 496.106 570.595 496.178 567.607 496.178V493.73H573.079V489.158H566.113V490.364H571.639V492.596H566.167V497.384H567.319C570.541 497.384 572.179 497.33 574.159 496.988L574.015 495.8ZM567.967 500.192H577.291V504.35H578.785V498.986H567.967V500.192ZM577.291 488.204V490.58H574.141V491.786H577.291V493.946H574.141V495.134H577.291V498.122H578.785V488.204H577.291ZM586.488 494.252C585.426 494.252 584.58 495.098 584.58 496.16C584.58 497.222 585.426 498.068 586.488 498.068C587.55 498.068 588.396 497.222 588.396 496.16C588.396 495.098 587.55 494.252 586.488 494.252ZM605.784 493.064H596.154V489.986H605.64V488.798H594.678V494.252H605.784V493.064ZM594.462 500.372H604.182V504.422H605.676V499.184H594.462V500.372ZM592.842 496.052V497.24H607.458V496.052H592.842ZM618.653 495.962C616.313 495.134 614.729 493.118 614.729 491.012V490.418H618.275V489.212H609.653V490.418H613.253V491.03C613.253 493.316 611.579 495.458 609.185 496.322L609.959 497.474C611.849 496.79 613.325 495.314 614.027 493.46C614.729 495.116 616.115 496.466 617.915 497.114L618.653 495.962ZM613.379 499.598H620.993V502.928H613.379V499.598ZM611.939 504.116H622.433V498.428H611.939V504.116ZM620.939 488.186V492.236H617.753V493.46H620.939V497.636H622.433V488.186H620.939ZM633.951 495.8C632.079 496.106 630.531 496.178 627.543 496.178V493.73H633.015V489.158H626.049V490.364H631.575V492.596H626.103V497.384H627.255C630.477 497.384 632.115 497.33 634.095 496.988L633.951 495.8ZM627.903 500.192H637.227V504.35H638.721V498.986H627.903V500.192ZM637.227 488.204V490.58H634.077V491.786H637.227V493.946H634.077V495.134H637.227V498.122H638.721V488.204H637.227ZM645.056 506.546L646.082 506.06C644.516 503.504 643.778 500.462 643.778 497.402C643.778 494.342 644.516 491.318 646.082 488.744L645.056 488.276C643.4 490.958 642.41 493.874 642.41 497.402C642.41 500.948 643.4 503.846 645.056 506.546ZM649.788 490.148H648.312V500.138H649.338C651.084 500.138 652.938 500.048 655.116 499.634L654.972 498.356C653.046 498.734 651.336 498.842 649.788 498.86V490.148ZM659.796 488.186V494.756H657.51V488.546H656.124V503.504H657.51V495.98H659.796V504.314H661.218V488.186H659.796ZM677.056 488.186H675.58V500.03H677.056V488.186ZM673.528 496.232C671.134 495.35 669.496 493.154 669.496 490.724V489.086H668.02V490.724C668.02 493.244 666.4 495.584 663.97 496.52L664.744 497.726C666.634 496.934 668.092 495.368 668.776 493.406C669.496 495.242 670.918 496.7 672.754 497.402L673.528 496.232ZM668.146 502.766V498.932H666.67V503.972H677.542V502.766H668.146ZM680.493 506.42C682.113 505.736 683.121 504.386 683.121 502.658C683.121 501.452 682.599 500.714 681.735 500.714C681.069 500.714 680.493 501.164 680.493 501.866C680.493 502.622 681.069 503.018 681.699 503.018C681.771 503.018 681.825 503.018 681.897 503C681.897 504.062 681.231 504.944 680.097 505.448L680.493 506.42ZM702.488 494.342C699.554 493.91 696.674 491.912 696.674 489.662V488.762H695.126V489.662C695.126 491.966 692.282 493.91 689.348 494.342L689.942 495.53C692.462 495.098 694.892 493.712 695.9 491.75C696.944 493.694 699.374 495.098 701.876 495.53L702.488 494.342ZM703.19 497.276H688.61V498.5H695.126V504.35H696.602V498.5H703.208L703.19 497.276ZM717.823 492.686H708.337V488.528H706.861V493.874H717.823V492.686ZM712.171 503.126C709.633 503.126 708.139 502.46 708.139 501.344C708.139 500.192 709.633 499.544 712.171 499.544C714.709 499.544 716.203 500.192 716.203 501.344C716.203 502.46 714.691 503.126 712.171 503.126ZM712.171 498.392C708.733 498.392 706.645 499.454 706.645 501.344C706.645 503.216 708.733 504.278 712.171 504.278C715.609 504.278 717.697 503.216 717.697 501.344C717.697 499.454 715.609 498.392 712.171 498.392ZM704.899 495.746V496.952H719.497V495.746H704.899ZM721.997 506.546C723.671 503.846 724.661 500.948 724.661 497.402C724.661 493.874 723.671 490.958 721.997 488.276L720.989 488.744C722.537 491.318 723.293 494.342 723.293 497.402C723.293 500.462 722.537 503.504 720.989 506.06L721.997 506.546Z" fill="#004170"/>
<path d="M523.844 489.264V504.275H525.102V489.264H523.844Z" fill="#004170" fill-opacity="0.3"/>
<path d="M23 381C716.198 338.764 1177 179 1177 179" stroke="url(#paint0_linear_1_3690)" stroke-width="2" stroke-dasharray="6 6"/>
<circle cx="12" cy="12" r="12" transform="matrix(-1 0 0 1 211 356)" fill="#9BCCEC"/>
<circle cx="12" cy="12" r="12" transform="matrix(-0.999695 0.0247143 0.0247143 0.999695 591.086 304.889)" fill="#9BCCEC"/>
<circle cx="12" cy="12" r="12" transform="matrix(-0.999695 0.0247143 0.0247143 0.999695 627 301)" fill="#E3DDD7"/>
<circle cx="12" cy="12" r="12" transform="matrix(-0.999265 -0.0383238 -0.0383238 0.999265 971.59 228.455)" fill="#9BCCEC"/>
<circle cx="12" cy="12" r="12" transform="matrix(-0.999265 -0.0383238 -0.0383238 0.999265 1044.34 210.23)" fill="#EF9A96"/>
<circle cx="12" cy="12" r="12" transform="matrix(-0.999265 -0.0383238 -0.0383238 0.999265 1007.91 220.841)" fill="#E3DDD7"/>
<path d="M34.748 357.192V358.904H36.956V362.408H39.068V353.64H36.956V357.192H34.748ZM35.628 360.36C33.388 359.624 32.364 357.896 32.3 356.216H35.164V354.52H27.244V356.216H30.14C30.076 358.056 29.004 359.928 26.668 360.744L27.74 362.408C29.452 361.832 30.62 360.632 31.26 359.144C31.9 360.44 33.004 361.48 34.604 362.008L35.628 360.36ZM34.092 366.792C32.156 366.792 31.148 366.392 31.148 365.56C31.148 364.728 32.156 364.328 34.092 364.328C36.012 364.328 37.02 364.728 37.02 365.56C37.02 366.392 36.012 366.792 34.092 366.792ZM34.092 362.728C30.956 362.728 29.036 363.768 29.036 365.56C29.036 367.352 30.956 368.392 34.092 368.392C37.212 368.392 39.132 367.352 39.132 365.56C39.132 363.768 37.212 362.728 34.092 362.728ZM41.3548 357.368V361.912H42.6188C45.5628 361.912 47.4348 361.848 49.4828 361.464L49.3068 359.768C47.4668 360.104 45.8508 360.2 43.4508 360.216V358.936H48.0588V354.504H41.3388V356.2H45.9788V357.368H41.3548ZM47.5788 366.776C45.6588 366.776 44.6668 366.408 44.6668 365.592C44.6668 364.776 45.6588 364.408 47.5788 364.408C49.4988 364.408 50.4908 364.776 50.4908 365.592C50.4908 366.408 49.4988 366.776 47.5788 366.776ZM47.5788 362.792C44.5068 362.792 42.5868 363.816 42.5868 365.592C42.5868 367.352 44.5068 368.392 47.5788 368.392C50.6508 368.392 52.5708 367.352 52.5708 365.592C52.5708 363.816 50.6508 362.792 47.5788 362.792ZM54.3788 357.336V355.624H52.4268V353.64H50.3148V362.52H52.4268V360.44H54.3788V358.728H52.4268V357.336H54.3788ZM68.0985 362.648H70.2105V353.64H68.0985V356.008H66.3705V357.704H68.0985V358.776H66.3705V360.456H68.0985V362.648ZM61.4585 356.296H62.8345V360.296C62.3705 360.312 61.9065 360.344 61.4585 360.344V356.296ZM66.2105 360.04C65.7785 360.088 65.3305 360.136 64.8665 360.184V356.296H66.0345V354.616H58.2585V356.296H59.4265V360.392C58.8825 360.392 58.3705 360.392 57.8905 360.392L58.1145 362.104C60.4345 362.104 63.6025 362.056 66.3385 361.592L66.2105 360.04ZM65.2185 366.792C63.2825 366.792 62.2905 366.408 62.2905 365.64C62.2905 364.856 63.2825 364.488 65.2185 364.488C67.1705 364.488 68.1625 364.856 68.1625 365.64C68.1625 366.408 67.1705 366.792 65.2185 366.792ZM65.2185 362.888C62.0825 362.888 60.1785 363.896 60.1785 365.64C60.1785 367.368 62.0825 368.376 65.2185 368.376C68.3705 368.376 70.2745 367.368 70.2745 365.64C70.2745 363.896 68.3705 362.888 65.2185 362.888ZM72.6413 355.144V356.856H77.4573C77.0733 360.12 75.2493 362.456 71.8253 364.216L73.0093 365.832C77.9053 363.352 79.5853 359.56 79.5853 355.144H72.6413ZM85.5693 359.256H83.5053V353.624H81.3933V368.344H83.5053V361H85.5693V359.256Z" fill="#930E14"/>
<circle cx="6" cy="6" r="6" transform="matrix(-1 0 0 1 29 374)" fill="#930E14"/>
<path d="M1115.36 164.192V165.904H1117.57V169.408H1119.68V160.64H1117.57V164.192H1115.36ZM1116.24 167.36C1114 166.624 1112.97 164.896 1112.91 163.216H1115.77V161.52H1107.85V163.216H1110.75C1110.69 165.056 1109.61 166.928 1107.28 167.744L1108.35 169.408C1110.06 168.832 1111.23 167.632 1111.87 166.144C1112.51 167.44 1113.61 168.48 1115.21 169.008L1116.24 167.36ZM1114.7 173.792C1112.77 173.792 1111.76 173.392 1111.76 172.56C1111.76 171.728 1112.77 171.328 1114.7 171.328C1116.62 171.328 1117.63 171.728 1117.63 172.56C1117.63 173.392 1116.62 173.792 1114.7 173.792ZM1114.7 169.728C1111.57 169.728 1109.65 170.768 1109.65 172.56C1109.65 174.352 1111.57 175.392 1114.7 175.392C1117.82 175.392 1119.74 174.352 1119.74 172.56C1119.74 170.768 1117.82 169.728 1114.7 169.728ZM1131.64 169.28H1133.76V160.64H1131.64V163.328H1128.96V165.04H1131.64V169.28ZM1130.3 167.152C1127.96 166.4 1127 164.608 1127 162.624V161.408H1124.86V162.72C1124.86 164.752 1123.82 166.752 1121.31 167.552L1122.41 169.248C1124.16 168.656 1125.32 167.472 1125.98 165.968C1126.6 167.28 1127.64 168.288 1129.2 168.816L1130.3 167.152ZM1128.78 173.76C1126.84 173.76 1125.84 173.36 1125.84 172.528C1125.84 171.68 1126.84 171.28 1128.78 171.28C1130.7 171.28 1131.71 171.68 1131.71 172.528C1131.71 173.36 1130.7 173.76 1128.78 173.76ZM1128.78 169.648C1125.64 169.648 1123.72 170.704 1123.72 172.528C1123.72 174.32 1125.64 175.376 1128.78 175.376C1131.9 175.376 1133.82 174.32 1133.82 172.528C1133.82 170.704 1131.9 169.648 1128.78 169.648ZM1148.71 169.648H1150.82V160.64H1148.71V163.008H1146.98V164.704H1148.71V165.776H1146.98V167.456H1148.71V169.648ZM1142.07 163.296H1143.44V167.296C1142.98 167.312 1142.52 167.344 1142.07 167.344V163.296ZM1146.82 167.04C1146.39 167.088 1145.94 167.136 1145.48 167.184V163.296H1146.64V161.616H1138.87V163.296H1140.04V167.392C1139.49 167.392 1138.98 167.392 1138.5 167.392L1138.72 169.104C1141.04 169.104 1144.21 169.056 1146.95 168.592L1146.82 167.04ZM1145.83 173.792C1143.89 173.792 1142.9 173.408 1142.9 172.64C1142.9 171.856 1143.89 171.488 1145.83 171.488C1147.78 171.488 1148.77 171.856 1148.77 172.64C1148.77 173.408 1147.78 173.792 1145.83 173.792ZM1145.83 169.888C1142.69 169.888 1140.79 170.896 1140.79 172.64C1140.79 174.368 1142.69 175.376 1145.83 175.376C1148.98 175.376 1150.88 174.368 1150.88 172.64C1150.88 170.896 1148.98 169.888 1145.83 169.888ZM1153.25 162.144V163.856H1158.07C1157.68 167.12 1155.86 169.456 1152.44 171.216L1153.62 172.832C1158.52 170.352 1160.2 166.56 1160.2 162.144H1153.25ZM1166.18 166.256H1164.12V160.624H1162V175.344H1164.12V168H1166.18V166.256Z" fill="#004170"/>
<circle cx="6" cy="6" r="6" transform="matrix(-1 0 0 1 1180.67 173)" fill="#004170"/>
<path d="M398 465V130" stroke="white" stroke-dasharray="2 2"/>
<path d="M796 378.882L796 130" stroke="white" stroke-dasharray="2 2"/>
<path d="M0 86C0 77.1634 7.16344 70 16 70H597V130H0V86Z" fill="#004170"/>
<path d="M271.815 98.84C267.635 98.26 265.515 95.86 265.515 93.72V92.84H262.695V93.72C262.695 95.88 260.595 98.26 256.395 98.84L257.395 100.96C260.615 100.48 262.935 98.98 264.115 97C265.295 98.98 267.595 100.48 270.815 100.96L271.815 98.84ZM272.415 102.32H255.775V104.46H262.715V110.74H265.355V104.46H272.415V102.32ZM288.673 96.88H278.593V92.62H275.953V98.98H288.673V96.88ZM282.133 108.66C279.673 108.66 278.413 108.22 278.413 107.26C278.413 106.3 279.673 105.86 282.133 105.86C284.593 105.86 285.853 106.3 285.853 107.26C285.853 108.22 284.593 108.66 282.133 108.66ZM282.133 103.84C278.153 103.84 275.753 105.1 275.753 107.26C275.753 109.42 278.153 110.68 282.133 110.68C286.113 110.68 288.533 109.42 288.533 107.26C288.533 105.1 286.113 103.84 282.133 103.84ZM273.873 100.54V102.64H290.533V100.54H273.873ZM295.771 113.04L297.611 112.26C295.931 109.34 295.171 105.98 295.171 102.68C295.171 99.42 295.931 96.04 297.611 93.12L295.771 92.34C293.891 95.42 292.791 98.7 292.791 102.68C292.791 106.7 293.891 109.94 295.771 113.04ZM309.21 96.74V98.88H311.97V103.26H314.61V92.3H311.97V96.74H309.21ZM310.31 100.7C307.51 99.78 306.23 97.62 306.15 95.52H309.73V93.4H299.83V95.52H303.45C303.37 97.82 302.03 100.16 299.11 101.18L300.45 103.26C302.59 102.54 304.05 101.04 304.85 99.18C305.65 100.8 307.03 102.1 309.03 102.76L310.31 100.7ZM308.39 108.74C305.97 108.74 304.71 108.24 304.71 107.2C304.71 106.16 305.97 105.66 308.39 105.66C310.79 105.66 312.05 106.16 312.05 107.2C312.05 108.24 310.79 108.74 308.39 108.74ZM308.39 103.66C304.47 103.66 302.07 104.96 302.07 107.2C302.07 109.44 304.47 110.74 308.39 110.74C312.29 110.74 314.69 109.44 314.69 107.2C314.69 104.96 312.29 103.66 308.39 103.66ZM324.448 93.72H321.808V96.4C321.808 99.98 320.288 103.54 317.068 104.92L318.648 107.1C320.848 106.06 322.348 104.08 323.168 101.62C323.988 103.88 325.408 105.7 327.528 106.66L329.028 104.52C325.908 103.18 324.448 99.82 324.448 96.4V93.72ZM329.928 92.28V110.76H332.568V92.28H329.928ZM337.407 113.04C339.307 109.94 340.407 106.7 340.407 102.68C340.407 98.7 339.307 95.42 337.407 92.34L335.587 93.12C337.267 96.04 338.027 99.42 338.027 102.68C338.027 105.98 337.267 109.34 335.587 112.26L337.407 113.04Z" fill="white"/>
<path d="M597 70H1194V130H597V70Z" fill="#930E14"/>
<path d="M834.331 93.92H830.231V92.2H827.571V93.92H823.491V96H834.331V93.92ZM826.911 99.96C826.911 99.04 827.711 98.58 828.911 98.58C830.091 98.58 830.911 99.04 830.911 99.96C830.911 100.9 830.091 101.36 828.911 101.36C827.711 101.36 826.911 100.9 826.911 99.96ZM833.431 99.96C833.431 97.96 831.571 96.58 828.911 96.58C826.271 96.58 824.391 97.96 824.391 99.96C824.391 101.98 826.271 103.36 828.911 103.36C831.571 103.36 833.431 101.98 833.431 99.96ZM825.711 106.72H835.351V110.74H837.991V104.6H825.711V106.72ZM840.431 97.04H837.991V92.32H835.351V103.84H837.991V99.22H840.431V97.04ZM853.35 98.9H854.79V103.56H857.29V92.3H854.79V96.78H853.35V92.64H850.89V102.98H853.35V98.9ZM850.87 100.48C848.45 99.5 847.45 97.52 847.45 95.54V93.4H844.91V95.54C844.91 97.62 843.91 99.9 841.33 101.02L842.73 103.06C844.43 102.34 845.57 101.02 846.23 99.46C846.89 100.78 847.95 101.88 849.47 102.48L850.87 100.48ZM851.05 108.74C848.65 108.74 847.33 108.26 847.33 107.28C847.33 106.3 848.65 105.82 851.05 105.82C853.41 105.82 854.73 106.3 854.73 107.28C854.73 108.26 853.41 108.74 851.05 108.74ZM851.05 103.84C847.17 103.84 844.69 105.14 844.69 107.28C844.69 109.44 847.17 110.72 851.05 110.72C854.91 110.72 857.37 109.44 857.37 107.28C857.37 105.14 854.91 103.84 851.05 103.84ZM871.788 99.06H864.208V97.16H871.788V99.06ZM874.388 93H871.788V95.1H864.208V93H861.588V101.16H874.388V93ZM876.368 102.9H859.688V105H866.648V110.74H869.288V105H876.368V102.9ZM883.618 99.96C887.098 99.62 889.358 98.34 890.338 96.58C891.298 98.34 893.578 99.62 897.038 99.96L897.958 97.88C894.518 97.6 892.718 96.4 892.258 95.16H897.158V93.06H883.538V95.16H888.418C887.958 96.4 886.158 97.6 882.718 97.88L883.618 99.96ZM890.298 108.76C887.818 108.76 886.578 108.38 886.578 107.48C886.578 106.6 887.818 106.2 890.298 106.2C892.778 106.2 894.018 106.6 894.018 107.48C894.018 108.38 892.778 108.76 890.298 108.76ZM890.298 104.22C886.298 104.22 883.918 105.4 883.918 107.48C883.918 109.56 886.298 110.72 890.298 110.72C894.298 110.72 896.698 109.56 896.698 107.48C896.698 105.4 894.298 104.22 890.298 104.22ZM891.638 101.12V98.92H888.998V101.12H882.018V103.22H898.658V101.12H891.638ZM910.976 93.92H906.856V92.16H904.196V93.92H900.096V95.98H910.956L910.976 93.92ZM903.536 99.74C903.536 98.86 904.356 98.4 905.536 98.4C906.716 98.4 907.536 98.86 907.536 99.74C907.536 100.62 906.716 101.08 905.536 101.08C904.356 101.08 903.536 100.62 903.536 99.74ZM910.056 99.74C910.056 97.78 908.196 96.48 905.536 96.48C902.876 96.48 901.016 97.78 901.016 99.74C901.016 101.68 902.876 103 905.536 103C908.196 103 910.056 101.68 910.056 99.74ZM911.996 108.46H905.256V107.16H911.996V108.46ZM911.996 105.18H905.256V103.78H902.636V110.5H914.616V103.78H911.996V105.18ZM917.056 96.72H914.616V92.32H911.976V103.1H914.616V98.88H917.056V96.72ZM922.035 113.04L923.875 112.26C922.195 109.34 921.435 105.98 921.435 102.68C921.435 99.42 922.195 96.04 923.875 93.12L922.035 92.34C920.155 95.42 919.055 98.7 919.055 102.68C919.055 106.7 920.155 109.94 922.035 113.04ZM941.533 98.84C937.353 98.26 935.233 95.86 935.233 93.72V92.84H932.413V93.72C932.413 95.88 930.313 98.26 926.113 98.84L927.113 100.96C930.333 100.48 932.653 98.98 933.833 97C935.013 98.98 937.313 100.48 940.533 100.96L941.533 98.84ZM942.133 102.32H925.493V104.46H932.433V110.74H935.073V104.46H942.133V102.32ZM950.712 93.72H948.072V96.4C948.072 99.98 946.552 103.54 943.332 104.92L944.912 107.1C947.112 106.06 948.612 104.08 949.432 101.62C950.252 103.88 951.672 105.7 953.792 106.66L955.292 104.52C952.172 103.18 950.712 99.82 950.712 96.4V93.72ZM956.192 92.28V110.76H958.832V92.28H956.192ZM963.67 113.04C965.57 109.94 966.67 106.7 966.67 102.68C966.67 98.7 965.57 95.42 963.67 92.34L961.85 93.12C963.53 96.04 964.29 99.42 964.29 102.68C964.29 105.98 963.53 109.34 961.85 112.26L963.67 113.04Z" fill="white"/>
<rect width="398" height="70" transform="translate(796)" fill="#1D1919"/>
<path d="M904.248 35.0078V40.9805C904.026 41.2741 903.679 41.5964 903.206 41.9473C902.741 42.291 902.121 42.5882 901.348 42.8389C900.574 43.0895 899.611 43.2148 898.458 43.2148C897.477 43.2148 896.578 43.0501 895.762 42.7207C894.946 42.3841 894.24 41.8936 893.646 41.249C893.059 40.6045 892.604 39.8203 892.281 38.8965C891.959 37.9655 891.798 36.9056 891.798 35.7168V34.6318C891.798 33.4502 891.945 32.3975 892.239 31.4736C892.539 30.5426 892.969 29.7549 893.528 29.1104C894.086 28.4658 894.759 27.9788 895.547 27.6494C896.342 27.3128 897.241 27.1445 898.243 27.1445C899.525 27.1445 900.585 27.3594 901.423 27.7891C902.268 28.2116 902.92 28.7988 903.378 29.5508C903.836 30.3027 904.127 31.1621 904.248 32.1289H901.606C901.52 31.5846 901.351 31.0977 901.101 30.668C900.857 30.2383 900.506 29.9017 900.048 29.6582C899.597 29.4076 899.01 29.2822 898.286 29.2822C897.663 29.2822 897.115 29.4004 896.643 29.6367C896.17 29.873 895.776 30.2204 895.461 30.6787C895.153 31.137 894.92 31.6956 894.763 32.3545C894.605 33.0133 894.527 33.7653 894.527 34.6104V35.7168C894.527 36.5762 894.616 37.3389 894.795 38.0049C894.981 38.6709 895.246 39.2331 895.59 39.6914C895.941 40.1497 896.367 40.4971 896.868 40.7334C897.37 40.9626 897.935 41.0771 898.566 41.0771C899.182 41.0771 899.686 41.027 900.08 40.9268C900.474 40.8193 900.786 40.694 901.015 40.5508C901.251 40.4004 901.434 40.2572 901.563 40.1211V37.0166H898.308V35.0078H904.248ZM910.188 26.5V43H907.589V26.5H910.188ZM912.97 37.3174V37.0703C912.97 36.2324 913.092 35.4554 913.335 34.7393C913.579 34.016 913.93 33.3893 914.388 32.8594C914.854 32.3223 915.419 31.9069 916.085 31.6133C916.758 31.3125 917.518 31.1621 918.363 31.1621C919.215 31.1621 919.974 31.3125 920.64 31.6133C921.313 31.9069 921.883 32.3223 922.348 32.8594C922.814 33.3893 923.168 34.016 923.411 34.7393C923.655 35.4554 923.777 36.2324 923.777 37.0703V37.3174C923.777 38.1553 923.655 38.9323 923.411 39.6484C923.168 40.3646 922.814 40.9912 922.348 41.5283C921.883 42.0583 921.317 42.4736 920.651 42.7744C919.985 43.068 919.229 43.2148 918.384 43.2148C917.532 43.2148 916.769 43.068 916.096 42.7744C915.43 42.4736 914.864 42.0583 914.399 41.5283C913.933 40.9912 913.579 40.3646 913.335 39.6484C913.092 38.9323 912.97 38.1553 912.97 37.3174ZM915.559 37.0703V37.3174C915.559 37.8402 915.613 38.3343 915.72 38.7998C915.828 39.2653 915.996 39.6735 916.225 40.0244C916.454 40.3753 916.748 40.651 917.106 40.8516C917.464 41.0521 917.89 41.1523 918.384 41.1523C918.864 41.1523 919.279 41.0521 919.63 40.8516C919.988 40.651 920.282 40.3753 920.511 40.0244C920.74 39.6735 920.909 39.2653 921.016 38.7998C921.131 38.3343 921.188 37.8402 921.188 37.3174V37.0703C921.188 36.5547 921.131 36.0677 921.016 35.6094C920.909 35.1439 920.737 34.7321 920.5 34.374C920.271 34.016 919.978 33.7367 919.619 33.5361C919.269 33.3285 918.85 33.2246 918.363 33.2246C917.876 33.2246 917.453 33.3285 917.095 33.5361C916.744 33.7367 916.454 34.016 916.225 34.374C915.996 34.7321 915.828 35.1439 915.72 35.6094C915.613 36.0677 915.559 36.5547 915.559 37.0703ZM926.397 26.5H928.986V40.5186L928.739 43H926.397V26.5ZM936.57 37.0811V37.3066C936.57 38.166 936.474 38.9574 936.28 39.6807C936.094 40.3968 935.808 41.0199 935.421 41.5498C935.041 42.0798 934.569 42.4915 934.003 42.7852C933.444 43.0716 932.796 43.2148 932.059 43.2148C931.335 43.2148 930.705 43.0788 930.168 42.8066C929.631 42.5345 929.18 42.1478 928.814 41.6465C928.456 41.1452 928.166 40.5472 927.944 39.8525C927.722 39.1579 927.565 38.3916 927.472 37.5537V36.834C927.565 35.9889 927.722 35.2227 927.944 34.5352C928.166 33.8405 928.456 33.2425 928.814 32.7412C929.18 32.2327 929.627 31.8424 930.157 31.5703C930.694 31.2982 931.321 31.1621 932.037 31.1621C932.782 31.1621 933.437 31.3053 934.003 31.5918C934.576 31.8783 935.052 32.2865 935.432 32.8164C935.811 33.3392 936.094 33.9622 936.28 34.6855C936.474 35.4089 936.57 36.2074 936.57 37.0811ZM933.981 37.3066V37.0811C933.981 36.5583 933.938 36.0677 933.852 35.6094C933.767 35.1439 933.623 34.7357 933.423 34.3848C933.229 34.0339 932.964 33.7581 932.628 33.5576C932.298 33.3499 931.887 33.2461 931.393 33.2461C930.934 33.2461 930.54 33.3249 930.211 33.4824C929.881 33.64 929.606 33.8548 929.384 34.127C929.162 34.3991 928.986 34.7142 928.857 35.0723C928.736 35.4303 928.653 35.8171 928.61 36.2324V38.1768C928.675 38.7139 928.811 39.208 929.018 39.6592C929.233 40.1032 929.534 40.4613 929.921 40.7334C930.308 40.9984 930.805 41.1309 931.414 41.1309C931.894 41.1309 932.298 41.0342 932.628 40.8408C932.957 40.6475 933.219 40.3789 933.412 40.0352C933.613 39.6842 933.756 39.276 933.842 38.8105C933.935 38.3451 933.981 37.8438 933.981 37.3066ZM945.754 40.6689V35.126C945.754 34.7106 945.679 34.3525 945.529 34.0518C945.378 33.751 945.149 33.5182 944.841 33.3535C944.541 33.1888 944.161 33.1064 943.703 33.1064C943.28 33.1064 942.915 33.1781 942.607 33.3213C942.299 33.4645 942.059 33.6579 941.887 33.9014C941.715 34.1449 941.629 34.4206 941.629 34.7285H939.051C939.051 34.2702 939.162 33.8262 939.384 33.3965C939.606 32.9668 939.929 32.5837 940.351 32.2471C940.774 31.9105 941.278 31.6455 941.866 31.4521C942.453 31.2588 943.112 31.1621 943.842 31.1621C944.716 31.1621 945.489 31.3089 946.163 31.6025C946.843 31.8962 947.376 32.3402 947.763 32.9346C948.157 33.5218 948.354 34.2594 948.354 35.1475V40.3145C948.354 40.8444 948.39 41.3206 948.461 41.7432C948.54 42.1585 948.651 42.5202 948.794 42.8281V43H946.141C946.019 42.7207 945.923 42.3662 945.851 41.9365C945.787 41.4997 945.754 41.0771 945.754 40.6689ZM946.13 35.9316L946.152 37.5322H944.293C943.814 37.5322 943.391 37.5788 943.026 37.6719C942.661 37.7578 942.356 37.8867 942.113 38.0586C941.869 38.2305 941.687 38.4382 941.565 38.6816C941.443 38.9251 941.382 39.2008 941.382 39.5088C941.382 39.8167 941.454 40.0996 941.597 40.3574C941.74 40.6081 941.948 40.805 942.22 40.9482C942.499 41.0915 942.836 41.1631 943.23 41.1631C943.76 41.1631 944.222 41.0557 944.616 40.8408C945.017 40.6188 945.332 40.3503 945.561 40.0352C945.79 39.7129 945.912 39.4085 945.926 39.1221L946.764 40.2715C946.678 40.5651 946.531 40.8802 946.324 41.2168C946.116 41.5534 945.844 41.8757 945.507 42.1836C945.178 42.4844 944.78 42.7314 944.315 42.9248C943.857 43.1182 943.327 43.2148 942.725 43.2148C941.966 43.2148 941.289 43.0645 940.695 42.7637C940.1 42.4557 939.635 42.0439 939.298 41.5283C938.962 41.0055 938.793 40.4147 938.793 39.7559C938.793 39.14 938.908 38.5957 939.137 38.123C939.374 37.6432 939.717 37.2422 940.168 36.9199C940.627 36.5977 941.185 36.3542 941.844 36.1895C942.503 36.0176 943.255 35.9316 944.1 35.9316H946.13ZM954.273 26.5V43H951.673V26.5H954.273ZM971.953 38.9717C971.953 38.6494 971.903 38.363 971.803 38.1123C971.71 37.8617 971.542 37.6325 971.298 37.4248C971.055 37.2171 970.711 37.0166 970.267 36.8232C969.83 36.6227 969.271 36.4186 968.591 36.2109C967.846 35.9818 967.159 35.7275 966.528 35.4482C965.905 35.1618 965.361 34.8324 964.896 34.46C964.43 34.0804 964.069 33.6471 963.811 33.1602C963.553 32.666 963.424 32.0967 963.424 31.4521C963.424 30.8148 963.556 30.2347 963.821 29.7119C964.094 29.1891 964.477 28.738 964.971 28.3584C965.472 27.9717 966.063 27.6745 966.743 27.4668C967.424 27.252 968.176 27.1445 968.999 27.1445C970.159 27.1445 971.158 27.3594 971.996 27.7891C972.841 28.2188 973.489 28.7952 973.941 29.5186C974.399 30.2419 974.628 31.0404 974.628 31.9141H971.953C971.953 31.3984 971.842 30.9437 971.62 30.5498C971.405 30.1488 971.076 29.8337 970.632 29.6045C970.195 29.3753 969.64 29.2607 968.967 29.2607C968.33 29.2607 967.8 29.3574 967.377 29.5508C966.955 29.7441 966.639 30.0055 966.432 30.335C966.224 30.6644 966.12 31.0368 966.12 31.4521C966.12 31.7458 966.188 32.0143 966.324 32.2578C966.46 32.4941 966.668 32.7161 966.947 32.9238C967.227 33.1243 967.578 33.3141 968 33.4932C968.423 33.6722 968.92 33.8441 969.493 34.0088C970.36 34.2666 971.115 34.5531 971.76 34.8682C972.404 35.1761 972.942 35.527 973.371 35.9209C973.801 36.3148 974.123 36.7624 974.338 37.2637C974.553 37.7578 974.66 38.32 974.66 38.9502C974.66 39.609 974.528 40.2035 974.263 40.7334C973.998 41.2562 973.618 41.7038 973.124 42.0762C972.637 42.4414 972.05 42.7243 971.362 42.9248C970.682 43.1182 969.923 43.2148 969.085 43.2148C968.333 43.2148 967.592 43.1146 966.861 42.9141C966.138 42.7135 965.479 42.4092 964.885 42.001C964.291 41.5856 963.818 41.07 963.467 40.4541C963.116 39.8311 962.941 39.1042 962.941 38.2734H965.637C965.637 38.7819 965.723 39.2152 965.895 39.5732C966.074 39.9313 966.321 40.2249 966.636 40.4541C966.951 40.6761 967.316 40.8408 967.732 40.9482C968.154 41.0557 968.605 41.1094 969.085 41.1094C969.715 41.1094 970.242 41.0199 970.664 40.8408C971.094 40.6618 971.416 40.4111 971.631 40.0889C971.846 39.7666 971.953 39.3942 971.953 38.9717ZM983.92 27.3594V43H981.245V27.3594H983.92ZM988.829 27.3594V29.5078H976.379V27.3594H988.829ZM1001.57 40.8623V43H993.265V40.8623H1001.57ZM994.028 27.3594V43H991.331V27.3594H994.028ZM1000.48 33.8906V35.9961H993.265V33.8906H1000.48ZM1001.51 27.3594V29.5078H993.265V27.3594H1001.51ZM1010.3 29.4434L1005.63 43H1002.8L1008.69 27.3594H1010.49L1010.3 29.4434ZM1014.21 43L1009.53 29.4434L1009.32 27.3594H1011.14L1017.05 43H1014.21ZM1013.99 37.1992V39.3369H1005.48V37.1992H1013.99ZM1020.33 27.3594H1022.74L1027.26 39.4229L1031.77 27.3594H1034.18L1028.21 43H1026.3L1020.33 27.3594ZM1019.24 27.3594H1021.53L1021.92 37.8008V43H1019.24V27.3594ZM1032.99 27.3594H1035.29V43H1032.59V37.8008L1032.99 27.3594ZM1050.77 27.3594V43H1048.09V27.3594H1050.77ZM1055.68 27.3594V29.5078H1043.23V27.3594H1055.68ZM1059.75 33.5898V43H1057.16V31.377H1059.63L1059.75 33.5898ZM1063.3 31.3018L1063.28 33.708C1063.12 33.6794 1062.95 33.6579 1062.76 33.6436C1062.59 33.6292 1062.41 33.6221 1062.23 33.6221C1061.78 33.6221 1061.39 33.6865 1061.06 33.8154C1060.72 33.9372 1060.44 34.1162 1060.21 34.3525C1059.99 34.5817 1059.81 34.861 1059.69 35.1904C1059.57 35.5199 1059.5 35.8887 1059.48 36.2969L1058.89 36.3398C1058.89 35.6094 1058.96 34.9326 1059.1 34.3096C1059.24 33.6865 1059.46 33.1387 1059.75 32.666C1060.04 32.1934 1060.41 31.8245 1060.84 31.5596C1061.29 31.2946 1061.8 31.1621 1062.38 31.1621C1062.54 31.1621 1062.7 31.1764 1062.88 31.2051C1063.07 31.2337 1063.21 31.266 1063.3 31.3018ZM1071.53 40.6689V35.126C1071.53 34.7106 1071.45 34.3525 1071.3 34.0518C1071.15 33.751 1070.92 33.5182 1070.62 33.3535C1070.32 33.1888 1069.94 33.1064 1069.48 33.1064C1069.06 33.1064 1068.69 33.1781 1068.38 33.3213C1068.07 33.4645 1067.83 33.6579 1067.66 33.9014C1067.49 34.1449 1067.4 34.4206 1067.4 34.7285H1064.83C1064.83 34.2702 1064.94 33.8262 1065.16 33.3965C1065.38 32.9668 1065.7 32.5837 1066.13 32.2471C1066.55 31.9105 1067.05 31.6455 1067.64 31.4521C1068.23 31.2588 1068.89 31.1621 1069.62 31.1621C1070.49 31.1621 1071.26 31.3089 1071.94 31.6025C1072.62 31.8962 1073.15 32.3402 1073.54 32.9346C1073.93 33.5218 1074.13 34.2594 1074.13 35.1475V40.3145C1074.13 40.8444 1074.17 41.3206 1074.24 41.7432C1074.32 42.1585 1074.43 42.5202 1074.57 42.8281V43H1071.92C1071.79 42.7207 1071.7 42.3662 1071.63 41.9365C1071.56 41.4997 1071.53 41.0771 1071.53 40.6689ZM1071.91 35.9316L1071.93 37.5322H1070.07C1069.59 37.5322 1069.17 37.5788 1068.8 37.6719C1068.44 37.7578 1068.13 37.8867 1067.89 38.0586C1067.64 38.2305 1067.46 38.4382 1067.34 38.6816C1067.22 38.9251 1067.16 39.2008 1067.16 39.5088C1067.16 39.8167 1067.23 40.0996 1067.37 40.3574C1067.52 40.6081 1067.72 40.805 1068 40.9482C1068.28 41.0915 1068.61 41.1631 1069.01 41.1631C1069.54 41.1631 1070 41.0557 1070.39 40.8408C1070.79 40.6188 1071.11 40.3503 1071.34 40.0352C1071.57 39.7129 1071.69 39.4085 1071.7 39.1221L1072.54 40.2715C1072.45 40.5651 1072.31 40.8802 1072.1 41.2168C1071.89 41.5534 1071.62 41.8757 1071.28 42.1836C1070.95 42.4844 1070.56 42.7314 1070.09 42.9248C1069.63 43.1182 1069.1 43.2148 1068.5 43.2148C1067.74 43.2148 1067.06 43.0645 1066.47 42.7637C1065.88 42.4557 1065.41 42.0439 1065.07 41.5283C1064.74 41.0055 1064.57 40.4147 1064.57 39.7559C1064.57 39.14 1064.68 38.5957 1064.91 38.123C1065.15 37.6432 1065.49 37.2422 1065.94 36.9199C1066.4 36.5977 1066.96 36.3542 1067.62 36.1895C1068.28 36.0176 1069.03 35.9316 1069.88 35.9316H1071.91ZM1082.02 41.1523C1082.45 41.1523 1082.83 41.07 1083.16 40.9053C1083.51 40.7334 1083.78 40.4971 1083.99 40.1963C1084.21 39.8955 1084.32 39.5482 1084.34 39.1543H1086.78C1086.77 39.9062 1086.55 40.5902 1086.12 41.2061C1085.69 41.8219 1085.12 42.3125 1084.41 42.6777C1083.7 43.0358 1082.92 43.2148 1082.06 43.2148C1081.17 43.2148 1080.4 43.0645 1079.74 42.7637C1079.08 42.4557 1078.53 42.0332 1078.09 41.4961C1077.66 40.959 1077.33 40.3395 1077.1 39.6377C1076.89 38.9359 1076.78 38.1839 1076.78 37.3818V37.0059C1076.78 36.2038 1076.89 35.4518 1077.1 34.75C1077.33 34.041 1077.66 33.418 1078.09 32.8809C1078.53 32.3438 1079.08 31.9248 1079.74 31.624C1080.4 31.3161 1081.17 31.1621 1082.05 31.1621C1082.98 31.1621 1083.79 31.3483 1084.5 31.7207C1085.2 32.0859 1085.75 32.598 1086.15 33.2568C1086.56 33.9085 1086.77 34.6676 1086.78 35.5342H1084.34C1084.32 35.1045 1084.22 34.7178 1084.02 34.374C1083.84 34.0231 1083.57 33.7438 1083.23 33.5361C1082.89 33.3285 1082.49 33.2246 1082.01 33.2246C1081.49 33.2246 1081.06 33.332 1080.71 33.5469C1080.37 33.7546 1080.1 34.041 1079.91 34.4062C1079.72 34.7643 1079.58 35.1689 1079.49 35.6201C1079.41 36.0641 1079.37 36.526 1079.37 37.0059V37.3818C1079.37 37.8617 1079.41 38.3271 1079.49 38.7783C1079.57 39.2295 1079.7 39.6341 1079.9 39.9922C1080.1 40.3431 1080.37 40.626 1080.71 40.8408C1081.06 41.0485 1081.49 41.1523 1082.02 41.1523ZM1091.82 26.5V43H1089.22V26.5H1091.82ZM1099.04 31.377L1093.98 36.9844L1091.21 39.8203L1090.53 37.6289L1092.63 35.04L1095.91 31.377H1099.04ZM1096.47 43L1092.7 37.543L1094.33 35.7275L1099.47 43H1096.47Z" fill="white"/>
<defs>
<linearGradient id="paint0_linear_1_3690" x1="66.682" y1="343.815" x2="1100.98" y2="343.815" gradientUnits="userSpaceOnUse">
<stop stop-color="#930E14"/>
<stop offset="1" stop-color="#004170"/>
</linearGradient>
</defs>
</svg>
