<svg width="560" height="312" viewBox="0 0 560 312" fill="none" xmlns="http://www.w3.org/2000/svg">
<path opacity="0.1" d="M280 77.1187H560V301.949C560 307.191 555.75 311.441 550.508 311.441H280V77.1187Z" fill="#004170"/>
<path opacity="0.1" d="M0 77.1187H280V311.441H9.49152C4.2495 311.441 0 307.191 0 301.949V77.1187Z" fill="#930E14"/>
<path opacity="0.3" d="M373.729 41.5254H560V242.627H373.729V41.5254Z" fill="#1D1919"/>
<path d="M186.864 301.949V71.1864" stroke="white" stroke-width="0.59322" stroke-dasharray="1.19 1.19"/>
<path d="M373.729 242.627L373.729 71.1864" stroke="white" stroke-width="0.59322" stroke-dasharray="1.19 1.19"/>
<rect width="373.136" height="35.5932" transform="translate(186.864 240.254)" fill="#E3DDD7"/>
<path d="M276.378 257.491C274.829 257.011 274.167 255.858 274.167 254.672V253.669H272.736V254.555C272.736 255.89 272.074 257.203 270.43 257.748L271.167 258.858C272.288 258.463 273.046 257.705 273.473 256.744C273.89 257.577 274.605 258.239 275.641 258.581L276.378 257.491ZM275.107 261.88C273.847 261.88 273.174 261.624 273.174 261.068C273.174 260.524 273.847 260.268 275.107 260.268C276.356 260.268 277.029 260.524 277.029 261.068C277.029 261.624 276.356 261.88 275.107 261.88ZM275.107 259.178C273.057 259.178 271.775 259.883 271.775 261.068C271.775 262.264 273.057 262.969 275.107 262.969C277.146 262.969 278.428 262.264 278.428 261.068C278.428 259.883 277.146 259.178 275.107 259.178ZM278.321 255.42V253.145H276.912V258.954H278.321V256.584H279.624V255.42H278.321ZM286.04 257.491C284.492 257.011 283.83 255.858 283.83 254.672V253.669H282.399V254.555C282.399 255.89 281.737 257.203 280.093 257.748L280.83 258.858C281.951 258.463 282.709 257.705 283.136 256.744C283.552 257.577 284.268 258.239 285.304 258.581L286.04 257.491ZM284.77 261.88C283.51 261.88 282.837 261.624 282.837 261.068C282.837 260.524 283.51 260.268 284.77 260.268C286.019 260.268 286.692 260.524 286.692 261.068C286.692 261.624 286.019 261.88 284.77 261.88ZM284.77 259.178C282.72 259.178 281.438 259.883 281.438 261.068C281.438 262.264 282.72 262.969 284.77 262.969C286.809 262.969 288.091 262.264 288.091 261.068C288.091 259.883 286.809 259.178 284.77 259.178ZM287.984 255.42V253.145H286.574V258.954H287.984V256.584H289.287V255.42H287.984ZM294.924 257.587C293.952 257.769 293.087 257.812 291.678 257.822V256.797H294.571V253.69H290.268V254.822H293.183V255.751H290.279V258.954H291.037C292.906 258.954 293.92 258.922 295.062 258.709L294.924 257.587ZM291.4 260.759H296.718V262.98H298.127V259.638H291.4V260.759ZM296.718 253.145V254.491H295.137V255.623H296.718V256.594H295.137V257.716H296.718V259.2H298.127V253.135L296.718 253.145ZM311.008 260.014C310.302 260.014 309.808 259.439 309.808 258.632C309.808 257.846 310.302 257.271 311.008 257.271C311.704 257.271 312.208 257.846 312.208 258.632C312.208 259.439 311.704 260.014 311.008 260.014ZM311.008 256.575C309.888 256.575 309.072 257.422 309.072 258.632C309.072 259.862 309.888 260.699 311.008 260.699C312.127 260.699 312.944 259.862 312.944 258.632C312.944 257.422 312.127 256.575 311.008 256.575ZM311.411 254.013H310.594V255.294H308.759V255.97H313.247V255.294H311.411V254.013ZM315.637 253.741V257.563H314.477V253.953H313.7V262.353H314.477V258.239H315.637V262.787H316.433V253.741H315.637ZM324.521 262H320.366V260.871H324.521V262ZM324.521 260.226H320.366V259.126H319.549V262.666H325.337V259.126H324.521V260.226ZM321.606 257.684H319.166V256.252H321.606V257.684ZM324.51 253.761V255.98H322.423V254.225H321.606V255.607H319.166V254.225H318.349V258.36H322.423V256.656H324.51V258.703H325.348V253.761H324.51ZM334.419 258.188C333.088 257.795 332.211 256.797 332.211 255.697V255.516H334.208V254.85H332.211V253.701H331.384V254.85H329.377V255.516H331.384V255.697C331.384 256.908 330.476 257.997 329.135 258.41L329.548 259.066C330.607 258.703 331.424 257.956 331.807 256.998C332.211 257.856 333.007 258.511 334.036 258.834L334.419 258.188ZM333.27 262.142C331.918 262.142 331.111 261.779 331.111 261.153C331.111 260.528 331.918 260.165 333.27 260.165C334.601 260.165 335.418 260.528 335.418 261.153C335.418 261.779 334.601 262.142 333.27 262.142ZM333.27 259.52C331.404 259.52 330.285 260.104 330.285 261.153C330.285 262.192 331.404 262.777 333.27 262.777C335.115 262.777 336.245 262.192 336.245 261.153C336.245 260.104 335.115 259.52 333.27 259.52ZM336.144 256.091V253.751H335.317V259.298H336.144V256.777H337.485V256.091H336.144ZM338.926 257.361C340.449 257.24 341.79 256.777 342.345 255.939C342.9 256.777 344.231 257.24 345.744 257.361L345.996 256.736C344.312 256.625 342.95 256.071 342.809 255.173H345.592V254.548H342.759V253.691H341.932V254.548H339.088V255.173H341.881C341.74 256.071 340.358 256.625 338.684 256.736L338.926 257.361ZM346.419 258.4V257.765H338.261V258.4H341.922V259.237H339.229V259.852H344.564V260.619H339.259V262.696H345.653V262.071H340.066V261.214H345.381V259.237H342.759V258.4H346.419ZM350.882 260.256H356.096V262.807H356.933V259.58H350.882V260.256ZM354.17 257.109C354.231 256.898 354.271 256.676 354.271 256.424C354.271 256.182 354.231 255.96 354.17 255.748H356.096V257.109H354.17ZM351.941 257.906C351.064 257.906 350.408 257.291 350.408 256.424C350.408 255.576 351.064 254.961 351.941 254.961C352.829 254.961 353.484 255.576 353.484 256.424C353.484 257.291 352.829 257.906 351.941 257.906ZM356.096 253.761V255.082H353.817C353.393 254.568 352.728 254.255 351.941 254.255C350.61 254.255 349.622 255.153 349.622 256.424C349.622 257.704 350.61 258.612 351.941 258.612C352.728 258.612 353.383 258.299 353.807 257.785H356.096V259.086H356.933V253.751L356.096 253.761ZM363.931 257.724C362.56 257.967 361.4 258.017 359.817 258.017V256.766H363.054V254.316H358.98V254.992H362.237V256.131H359V258.693H359.716C361.39 258.693 362.58 258.642 364.012 258.4L363.931 257.724ZM362.741 262.152C361.39 262.152 360.573 261.779 360.573 261.143C360.573 260.508 361.39 260.135 362.741 260.135C364.093 260.135 364.899 260.508 364.899 261.143C364.899 261.779 364.093 262.152 362.741 262.152ZM362.741 259.489C360.896 259.489 359.766 260.094 359.766 261.143C359.766 262.192 360.896 262.787 362.741 262.787C364.577 262.787 365.716 262.192 365.716 261.143C365.716 260.094 364.577 259.489 362.741 259.489ZM366.967 255.849V255.163H365.626V253.761H364.799V259.227H365.626V257.755H366.967V257.069H365.626V255.849H366.967ZM369.608 264.038L370.183 263.765C369.306 262.333 368.892 260.629 368.892 258.914C368.892 257.2 369.306 255.506 370.183 254.064L369.608 253.802C368.68 255.304 368.126 256.938 368.126 258.914C368.126 260.901 368.68 262.525 369.608 264.038ZM373.671 254.608H372.875V256.333C372.875 257.886 372.128 259.509 370.888 260.236L371.402 260.851C372.3 260.296 372.955 259.278 373.278 258.077C373.601 259.177 374.206 260.135 375.063 260.659L375.537 260.014C374.347 259.288 373.671 257.755 373.671 256.303V254.608ZM376.051 256.998H374.559V257.684H376.051V262.353H376.828V253.953H376.051V256.998ZM377.887 253.751V262.797H378.673V253.751H377.887ZM387.335 257.029H382.011V256.121H387.043V255.496H382.011V254.639H387.285V253.993H381.184V257.674H387.335V257.029ZM381.022 260.73H386.407V262.807H387.234V260.074H381.022V260.73ZM380.105 258.531V259.197H388.293V258.531H380.105ZM392.212 258.118C392.575 258.118 392.877 257.825 392.877 257.422C392.877 256.998 392.575 256.706 392.212 256.706C391.849 256.706 391.546 256.998 391.546 257.422C391.546 257.825 391.849 258.118 392.212 258.118ZM392.212 262.182C392.575 262.182 392.877 261.9 392.877 261.486C392.877 261.063 392.575 260.77 392.212 260.77C391.849 260.77 391.546 261.063 391.546 261.486C391.546 261.9 391.849 262.182 392.212 262.182ZM401.308 258.471H399.059V255.324H401.308V258.471ZM398.232 258.471H396.85V259.146H403.516V258.471H402.135V255.324H403.536V254.659H396.83V255.324H398.232V258.471ZM396.104 260.952V261.637H404.303V260.952H396.104ZM409.738 261.002V259.298H412.632V258.632H407.065V257.17H412.42V254.417H406.228V255.092H411.614V256.504H406.249V259.298H408.901V261.002H405.22V261.678H413.439V261.002H409.738ZM418.087 256.081V256.756H419.449V259.217H420.235V253.953H419.449V256.081H418.087ZM418.793 258.219C417.664 257.735 417.028 256.666 417.028 255.667V255.163H418.581V254.487H414.568V255.163H416.232V255.677C416.232 256.756 415.566 257.926 414.396 258.43L414.83 259.066C415.707 258.672 416.332 257.926 416.645 257.049C416.958 257.835 417.553 258.491 418.38 258.854L418.793 258.219ZM415.909 260.357H421.163V262.807H421.99V259.691H415.909V260.357ZM421.193 253.761V259.288H421.99V253.761H421.193ZM430.743 258.632H425.368V257.2H430.45V256.545H425.368V255.203H430.652V254.538H424.531V259.298H430.743V258.632ZM423.472 260.952V261.627H431.681V260.952H423.472ZM432.83 263.967C433.737 263.584 434.302 262.827 434.302 261.859C434.302 261.184 434.009 260.77 433.525 260.77C433.152 260.77 432.83 261.022 432.83 261.416C432.83 261.839 433.152 262.061 433.505 262.061C433.546 262.061 433.576 262.061 433.616 262.051C433.616 262.646 433.243 263.14 432.608 263.422L432.83 263.967ZM438.295 256.595C438.295 255.697 438.95 255.052 439.838 255.052C440.715 255.052 441.371 255.697 441.371 256.595C441.371 257.493 440.715 258.138 439.838 258.138C438.95 258.138 438.295 257.493 438.295 256.595ZM443.983 255.839V257.341H442.036C442.117 257.109 442.157 256.857 442.157 256.595C442.157 256.323 442.117 256.071 442.036 255.839H443.983ZM443.983 258.007V260.437H444.82V253.761H443.983V255.173H441.683C441.26 254.649 440.614 254.326 439.838 254.326C438.507 254.326 437.508 255.274 437.508 256.595C437.508 257.916 438.507 258.864 439.838 258.864C440.614 258.864 441.27 258.541 441.694 258.007H443.983ZM439.868 261.92V259.752H439.031V262.595H445.072V261.92H439.868ZM454.682 258.229H453.341C453.593 256.928 453.593 255.97 453.593 255.123V254.336H447.522V255.002H452.786V255.123C452.786 255.97 452.786 256.928 452.504 258.229H446.503V258.904H450.154V262.807H450.991V258.904H454.682V258.229ZM457.404 256.686H462.023V258.35H457.404V256.686ZM460.127 260.962V259.015H462.83V254.397H462.023V256.01H457.404V254.397H456.587V259.015H459.29V260.962H455.619V261.637H463.818V260.962H460.127ZM471.129 255.556C471.129 256.645 471.129 257.916 470.786 259.651L471.613 259.741C471.956 257.916 471.956 256.676 471.956 255.556V254.659H465.612V255.334H471.129V255.556ZM468.759 260.851V257.614H467.932V260.851H464.755V261.526H472.934V260.851H468.759ZM474.335 264.038C475.273 262.525 475.827 260.901 475.827 258.914C475.827 256.938 475.273 255.304 474.335 253.802L473.77 254.064C474.637 255.506 475.061 257.2 475.061 258.914C475.061 260.629 474.637 262.333 473.77 263.765L474.335 264.038Z" fill="#564B41"/>
<path d="M303.425 253.902V262.807H304.171V253.902H303.425Z" fill="#564B41" fill-opacity="0.3"/>
<rect width="186.271" height="35.5932" transform="translate(373.729 204.661)" fill="#EF9A96"/>
<path d="M398.516 218.3H397.096V219.72C397.096 221.588 396.348 223.5 394.682 224.269L395.558 225.4C396.658 224.845 397.395 223.82 397.822 222.56C398.228 223.745 398.943 224.706 400.021 225.23L400.854 224.108C399.231 223.382 398.516 221.578 398.516 219.72V218.3ZM401.666 217.531V220.617H399.776V221.749H401.666V227.397H403.075V217.531H401.666ZM408.104 218.3H406.684V219.73C406.684 221.556 405.936 223.436 404.281 224.215L405.125 225.358C406.235 224.813 406.972 223.777 407.399 222.528C407.805 223.703 408.499 224.653 409.524 225.176L410.378 224.066C408.798 223.286 408.104 221.503 408.104 219.73V218.3ZM413.614 221.322H412.183V217.542H410.773V227.376H412.183V222.496H413.614V221.322ZM419.165 221.994C418.194 222.176 417.329 222.218 415.919 222.229V221.204H418.813V218.097H414.51V219.229H417.425V220.158H414.52V223.361H415.279C417.147 223.361 418.162 223.329 419.304 223.115L419.165 221.994ZM415.642 225.166H420.959V227.387H422.369V224.044H415.642V225.166ZM420.959 217.552V218.898H419.379V220.029H420.959V221.001H419.379V222.122H420.959V223.607H422.369V217.542L420.959 217.552ZM436.056 219.771H438.063V219.086H433.172V219.771H435.239V220.921C435.239 222.454 434.15 224.168 432.859 224.814L433.343 225.469C434.362 224.945 435.239 223.795 435.653 222.474C436.066 223.684 436.913 224.743 437.922 225.247L438.396 224.582C437.085 223.967 436.056 222.363 436.056 220.921V219.771ZM441.462 221.809H439.969V218.168H439.142V227.204H439.969V222.504H441.462V221.809ZM442.671 219.136V219.802H446.07C445.898 221.95 444.688 223.684 442.258 224.844L442.701 225.52C445.707 224.047 446.907 221.748 446.907 219.136H442.671ZM448.732 218.158V227.204H449.559V218.158H448.732ZM454.173 222.555C455.575 222.313 456.906 221.556 457.461 220.487C458.006 221.556 459.347 222.313 460.749 222.555L461.071 221.899C459.478 221.667 457.915 220.629 457.915 219.439V219.388H460.749V218.723H454.143V219.388H456.997V219.439C456.997 220.629 455.434 221.667 453.861 221.899L454.173 222.555ZM461.545 223.311H453.377V223.987H457.027V227.204H457.854V223.987H461.555L461.545 223.311ZM467 225.379V223.059H469.753V222.393H464.358V219.56H469.663V218.884H463.531V223.059H466.163V225.379H462.482V226.064H470.701V225.379H467ZM475.124 224.663H480.338V227.214H481.175V223.987H475.124V224.663ZM478.412 221.516C478.472 221.304 478.513 221.082 478.513 220.83C478.513 220.588 478.472 220.366 478.412 220.155H480.338V221.516H478.412ZM476.183 222.313C475.306 222.313 474.65 221.698 474.65 220.83C474.65 219.983 475.306 219.368 476.183 219.368C477.07 219.368 477.726 219.983 477.726 220.83C477.726 221.698 477.07 222.313 476.183 222.313ZM480.338 218.168V219.489H478.059C477.635 218.975 476.97 218.662 476.183 218.662C474.852 218.662 473.864 219.56 473.864 220.83C473.864 222.111 474.852 223.019 476.183 223.019C476.97 223.019 477.625 222.706 478.049 222.192H480.338V223.493H481.175V218.158L480.338 218.168ZM488.173 222.131C486.801 222.373 485.642 222.424 484.058 222.424V221.173H487.296V218.723H483.221V219.398H486.479V220.538H483.242V223.099H483.958C485.632 223.099 486.822 223.049 488.254 222.807L488.173 222.131ZM486.983 226.558C485.632 226.558 484.815 226.185 484.815 225.55C484.815 224.915 485.632 224.542 486.983 224.542C488.334 224.542 489.141 224.915 489.141 225.55C489.141 226.185 488.334 226.558 486.983 226.558ZM486.983 223.896C485.137 223.896 484.008 224.501 484.008 225.55C484.008 226.599 485.137 227.194 486.983 227.194C488.818 227.194 489.958 226.599 489.958 225.55C489.958 224.501 488.818 223.896 486.983 223.896ZM491.209 220.256V219.57H489.867V218.168H489.04V223.634H489.867V222.162H491.209V221.476H489.867V220.256H491.209ZM493.85 228.444L494.425 228.172C493.547 226.74 493.134 225.036 493.134 223.321C493.134 221.607 493.547 219.913 494.425 218.47L493.85 218.208C492.922 219.711 492.367 221.345 492.367 223.321C492.367 225.308 492.922 226.932 493.85 228.444ZM502.653 218.168H501.826V224.784H502.653V218.168ZM500.757 222.837C499.426 222.393 498.488 221.294 498.488 220.074V219.58H500.535V218.914H495.573V219.58H497.641V220.074C497.641 221.365 496.723 222.545 495.351 223.019L495.785 223.664C496.854 223.281 497.691 222.464 498.074 221.435C498.488 222.383 499.315 223.13 500.353 223.493L500.757 222.837ZM497.661 226.327V224.158H496.834V227.002H502.925V226.327H497.661ZM508.864 225.409V223.704H511.759V223.039H506.192V221.577H511.547V218.823H505.355V219.499H510.74V220.911H505.375V223.704H508.027V225.409H504.346V226.084H512.565V225.409H508.864ZM513.704 228.374C514.612 227.991 515.176 227.234 515.176 226.266C515.176 225.59 514.884 225.177 514.4 225.177C514.027 225.177 513.704 225.429 513.704 225.822C513.704 226.246 514.027 226.468 514.38 226.468C514.42 226.468 514.45 226.468 514.491 226.458C514.491 227.053 514.118 227.547 513.482 227.829L513.704 228.374ZM525.664 218.168H524.837V224.784H525.664V218.168ZM523.768 222.837C522.437 222.393 521.499 221.294 521.499 220.074V219.58H523.546V218.914H518.585V219.58H520.652V220.074C520.652 221.365 519.734 222.545 518.363 223.019L518.796 223.664C519.865 223.281 520.702 222.464 521.086 221.435C521.499 222.383 522.326 223.13 523.365 223.493L523.768 222.837ZM520.672 226.327V224.158H519.845V227.002H525.936V226.327H520.672ZM532.733 219.116H530.474V218.107H529.647V219.116H527.398V219.782H532.733V219.116ZM528.689 221.879C528.689 221.284 529.233 220.891 530.06 220.891C530.887 220.891 531.442 221.284 531.442 221.879C531.442 222.484 530.887 222.878 530.06 222.878C529.233 222.878 528.689 222.484 528.689 221.879ZM532.229 221.879C532.229 220.891 531.351 220.245 530.06 220.245C528.78 220.245 527.902 220.891 527.902 221.879C527.902 222.878 528.78 223.513 530.06 223.513C531.351 223.513 532.229 222.878 532.229 221.879ZM528.517 224.985H533.56V227.214H534.387V224.31H528.517V224.985ZM535.728 220.659H534.387V218.168H533.56V223.815H534.387V221.345H535.728V220.659ZM536.957 228.444C537.895 226.932 538.45 225.308 538.45 223.321C538.45 221.345 537.895 219.711 536.957 218.208L536.393 218.47C537.26 219.913 537.684 221.607 537.684 223.321C537.684 225.036 537.26 226.74 536.393 228.172L536.957 228.444Z" fill="#930E14"/>
<path d="M427.667 218.309V227.214H428.413V218.309H427.667Z" fill="#930E14" fill-opacity="0.3"/>
<path d="M0 275.847H560V301.949C560 307.191 555.75 311.441 550.508 311.441H9.49151C4.24948 311.441 0 307.191 0 301.949V275.847Z" fill="#9BCCEC"/>
<path d="M210.132 291.696H206.235V290.244H210.132V291.696ZM211.52 289.144H204.847V292.807H211.52V289.144ZM206.192 295.54H204.782V298.392H211.67V297.27H206.192V295.54ZM203.747 293.586V294.697H207.623V296.373H209.032V294.697H212.652V293.586H203.747ZM215.78 295.274C215.246 295.274 214.862 294.846 214.862 294.11C214.862 293.373 215.246 292.935 215.78 292.935C216.314 292.935 216.698 293.373 216.698 294.11C216.698 294.846 216.314 295.274 215.78 295.274ZM215.78 291.76C214.52 291.76 213.623 292.732 213.623 294.11C213.623 295.476 214.52 296.448 215.78 296.448C217.04 296.448 217.937 295.476 217.937 294.11C217.937 292.732 217.04 291.76 215.78 291.76ZM216.474 288.995H215.086V290.212H213.409V291.333H218.108V290.212H216.474V288.995ZM220.521 288.717V292.732H219.773V288.909H218.46V298.146H219.773V293.864H220.521V298.552H221.856V288.717H220.521ZM228.101 293.181C227.13 293.362 226.265 293.405 224.855 293.416V292.39H227.749V289.283H223.446V290.415H226.361V291.344H223.457V294.547H224.215C226.083 294.547 227.098 294.515 228.24 294.302L228.101 293.181ZM224.578 296.352H229.895V298.573H231.305V295.231H224.578V296.352ZM229.895 288.739V290.084H228.315V291.216H229.895V292.188H228.315V293.309H229.895V294.793H231.305V288.728L229.895 288.739ZM248.94 288.856V298.456H249.816V288.856H248.94ZM244.765 289.593C243.345 289.593 242.331 290.896 242.331 292.935C242.331 294.975 243.345 296.277 244.765 296.277C246.185 296.277 247.2 294.975 247.2 292.935C247.2 290.896 246.185 289.593 244.765 289.593ZM244.765 290.383C245.694 290.383 246.356 291.387 246.356 292.935C246.356 294.494 245.694 295.498 244.765 295.498C243.826 295.498 243.163 294.494 243.163 292.935C243.163 291.387 243.826 290.383 244.765 290.383ZM254.011 295.487C253.264 295.487 252.741 294.878 252.741 294.024C252.741 293.191 253.264 292.583 254.011 292.583C254.748 292.583 255.282 293.191 255.282 294.024C255.282 294.878 254.748 295.487 254.011 295.487ZM254.011 291.846C252.826 291.846 251.961 292.743 251.961 294.024C251.961 295.327 252.826 296.213 254.011 296.213C255.197 296.213 256.062 295.327 256.062 294.024C256.062 292.743 255.197 291.846 254.011 291.846ZM254.439 289.134H253.574V290.49H251.63V291.205H256.382V290.49H254.439V289.134ZM258.913 288.845V292.892H257.685V289.07H256.862V297.964H257.685V293.608H258.913V298.424H259.756V288.845H258.913ZM266.365 293.373C265.255 293.554 264.336 293.597 262.564 293.597V292.145H265.81V289.433H261.677V290.148H264.956V291.472H261.709V294.313H262.393C264.304 294.313 265.276 294.28 266.45 294.078L266.365 293.373ZM262.777 295.978H268.308V298.445H269.195V295.263H262.777V295.978ZM268.308 288.867V290.276H266.44V290.992H268.308V292.273H266.44V292.978H268.308V294.75H269.195V288.867H268.308ZM273.764 292.455C273.134 292.455 272.632 292.956 272.632 293.586C272.632 294.216 273.134 294.718 273.764 294.718C274.394 294.718 274.896 294.216 274.896 293.586C274.896 292.956 274.394 292.455 273.764 292.455ZM285.211 291.75H279.498V289.924H285.125V289.219H278.623V292.455H285.211V291.75ZM278.494 296.085H284.26V298.488H285.147V295.38H278.494V296.085ZM277.533 293.522V294.227H286.204V293.522H277.533ZM292.845 293.469C291.457 292.978 290.517 291.782 290.517 290.533V290.18H292.62V289.465H287.506V290.18H289.641V290.543C289.641 291.899 288.648 293.17 287.228 293.683L287.687 294.366C288.808 293.96 289.684 293.085 290.1 291.985C290.517 292.967 291.339 293.768 292.407 294.152L292.845 293.469ZM289.716 295.626H294.233V297.601H289.716V295.626ZM288.862 298.306H295.087V294.932H288.862V298.306ZM294.201 288.856V291.259H292.311V291.985H294.201V294.462H295.087V288.856H294.201ZM301.92 293.373C300.81 293.554 299.891 293.597 298.119 293.597V292.145H301.365V289.433H297.233V290.148H300.511V291.472H297.265V294.313H297.948C299.859 294.313 300.831 294.28 302.006 294.078L301.92 293.373ZM298.332 295.978H303.864V298.445H304.75V295.263H298.332V295.978ZM303.864 288.867V290.276H301.995V290.992H303.864V292.273H301.995V292.978H303.864V294.75H304.75V288.867H303.864ZM308.508 299.748L309.116 299.459C308.187 297.943 307.749 296.138 307.749 294.323C307.749 292.508 308.187 290.714 309.116 289.187L308.508 288.909C307.525 290.5 306.938 292.23 306.938 294.323C306.938 296.427 307.525 298.146 308.508 299.748ZM311.315 290.02H310.439V295.946H311.048C312.084 295.946 313.183 295.893 314.475 295.647L314.39 294.889C313.247 295.113 312.233 295.177 311.315 295.188V290.02ZM317.252 288.856V292.754H315.896V289.07H315.073V297.943H315.896V293.48H317.252V298.424H318.095V288.856H317.252ZM327.491 288.856H326.615V295.882H327.491V288.856ZM325.398 293.629C323.978 293.106 323.006 291.803 323.006 290.362V289.39H322.131V290.362C322.131 291.857 321.17 293.245 319.728 293.8L320.187 294.515C321.309 294.046 322.173 293.117 322.579 291.953C323.006 293.042 323.85 293.907 324.939 294.323L325.398 293.629ZM322.205 297.505V295.231H321.33V298.221H327.779V297.505H322.205ZM329.53 299.673C330.491 299.267 331.089 298.466 331.089 297.441C331.089 296.726 330.779 296.288 330.266 296.288C329.871 296.288 329.53 296.555 329.53 296.971C329.53 297.42 329.871 297.655 330.245 297.655C330.288 297.655 330.32 297.655 330.363 297.644C330.363 298.274 329.968 298.797 329.295 299.096L329.53 299.673ZM342.578 292.508C340.837 292.252 339.129 291.066 339.129 289.732V289.198H338.21V289.732C338.21 291.098 336.523 292.252 334.783 292.508L335.135 293.213C336.63 292.956 338.072 292.134 338.67 290.97C339.289 292.124 340.73 292.956 342.215 293.213L342.578 292.508ZM342.994 294.248H334.345V294.975H338.21V298.445H339.086V294.975H343.005L342.994 294.248ZM351.674 291.526H346.047V289.059H345.172V292.23H351.674V291.526ZM348.322 297.719C346.816 297.719 345.93 297.324 345.93 296.662C345.93 295.978 346.816 295.594 348.322 295.594C349.827 295.594 350.713 295.978 350.713 296.662C350.713 297.324 349.817 297.719 348.322 297.719ZM348.322 294.91C346.282 294.91 345.043 295.54 345.043 296.662C345.043 297.772 346.282 298.402 348.322 298.402C350.361 298.402 351.6 297.772 351.6 296.662C351.6 295.54 350.361 294.91 348.322 294.91ZM344.008 293.341V294.056H352.668V293.341H344.008ZM354.151 299.748C355.144 298.146 355.731 296.427 355.731 294.323C355.731 292.23 355.144 290.5 354.151 288.909L353.553 289.187C354.471 290.714 354.92 292.508 354.92 294.323C354.92 296.138 354.471 297.943 353.553 299.459L354.151 299.748Z" fill="#004170"/>
<path d="M236.603 289.496V298.4H237.349V289.496H236.603Z" fill="#004170" fill-opacity="0.3"/>
<path d="M14.2373 225.424C402.797 188.051 547.542 106.78 547.542 106.78" stroke="url(#paint0_linear_1_2123)" stroke-width="1.18644" stroke-dasharray="3.56 3.56"/>
<circle cx="7.11864" cy="7.11864" r="7.11864" transform="matrix(-1 0 0 1 100.848 210)" fill="#9BCCEC"/>
<circle cx="7.11864" cy="7.11864" r="7.11864" transform="matrix(-0.999695 0.0247143 0.0247143 0.999695 276.489 180.866)" fill="#9BCCEC"/>
<circle cx="7.11864" cy="7.11864" r="7.11864" transform="matrix(-0.999695 0.0247143 0.0247143 0.999695 297.794 178.559)" fill="#E3DDD7"/>
<circle cx="7.11864" cy="7.11864" r="7.11864" transform="matrix(-0.998842 0.0481069 0.0481069 0.998842 452.704 137.941)" fill="#9BCCEC"/>
<circle cx="7.11864" cy="7.11864" r="7.11864" transform="matrix(-0.998842 0.0481069 0.0481069 0.998842 494.767 123.443)" fill="#EF9A96"/>
<circle cx="7.11864" cy="7.11864" r="7.11864" transform="matrix(-0.998842 0.0481069 0.0481069 0.998842 473.777 131.581)" fill="#E3DDD7"/>
<path d="M513.544 97.5037V98.5193H514.854V100.598H516.107V95.3966H514.854V97.5037H513.544ZM514.066 99.3831C512.737 98.9465 512.13 97.9214 512.092 96.9248H513.791V95.9187H509.092V96.9248H510.81C510.772 98.0163 510.136 99.1268 508.751 99.6109L509.387 100.598C510.402 100.256 511.095 99.5444 511.475 98.6617C511.854 99.4305 512.509 100.047 513.458 100.361L514.066 99.3831ZM513.155 103.199C512.006 103.199 511.408 102.961 511.408 102.468C511.408 101.974 512.006 101.737 513.155 101.737C514.294 101.737 514.892 101.974 514.892 102.468C514.892 102.961 514.294 103.199 513.155 103.199ZM513.155 100.788C511.294 100.788 510.155 101.405 510.155 102.468C510.155 103.531 511.294 104.148 513.155 104.148C515.005 104.148 516.144 103.531 516.144 102.468C516.144 101.405 515.005 100.788 513.155 100.788ZM523.205 100.522H524.458V95.3966H523.205V96.9912H521.611V98.0068H523.205V100.522ZM522.408 99.2597C521.022 98.8136 520.453 97.7505 520.453 96.5736V95.8522H519.181V96.6305C519.181 97.836 518.564 99.0224 517.074 99.497L517.729 100.503C518.763 100.152 519.456 99.4495 519.845 98.5573C520.216 99.3356 520.833 99.9336 521.753 100.247L522.408 99.2597ZM521.506 103.18C520.358 103.18 519.76 102.942 519.76 102.449C519.76 101.946 520.358 101.708 521.506 101.708C522.645 101.708 523.243 101.946 523.243 102.449C523.243 102.942 522.645 103.18 521.506 103.18ZM521.506 100.74C519.646 100.74 518.507 101.367 518.507 102.449C518.507 103.512 519.646 104.138 521.506 104.138C523.357 104.138 524.496 103.512 524.496 102.449C524.496 101.367 523.357 100.74 521.506 100.74ZM533.328 100.74H534.581V95.3966H533.328V96.8014H532.303V97.8075H533.328V98.4434H532.303V99.44H533.328V100.74ZM529.389 96.9722H530.205V99.3451C529.93 99.3546 529.655 99.3736 529.389 99.3736V96.9722ZM532.208 99.1932C531.952 99.2217 531.686 99.2502 531.411 99.2787V96.9722H532.104V95.9756H527.491V96.9722H528.184V99.4021C527.861 99.4021 527.557 99.4021 527.272 99.4021L527.405 100.418C528.782 100.418 530.661 100.389 532.284 100.114L532.208 99.1932ZM531.62 103.199C530.471 103.199 529.883 102.971 529.883 102.515C529.883 102.05 530.471 101.832 531.62 101.832C532.777 101.832 533.366 102.05 533.366 102.515C533.366 102.971 532.777 103.199 531.62 103.199ZM531.62 100.883C529.759 100.883 528.63 101.481 528.63 102.515C528.63 103.54 529.759 104.138 531.62 104.138C533.489 104.138 534.619 103.54 534.619 102.515C534.619 101.481 533.489 100.883 531.62 100.883ZM536.023 96.2888V97.3044H538.88C538.652 99.2407 537.57 100.626 535.539 101.671L536.241 102.629C539.146 101.158 540.142 98.9085 540.142 96.2888H536.023ZM543.692 98.7282H542.468V95.3871H541.215V104.119H542.468V99.7627H543.692V98.7282Z" fill="#004170"/>
<circle cx="3.55932" cy="3.55932" r="3.55932" transform="matrix(-1 0 0 1 552.288 102.627)" fill="#004170"/>
<path d="M21.0201 211.995V213.011H22.3299V215.09H23.5828V209.888H22.3299V211.995H21.0201ZM21.5421 213.875C20.2133 213.438 19.6059 212.413 19.5679 211.416H21.2669V210.41H16.5686V211.416H18.2865C18.2486 212.508 17.6126 213.618 16.2269 214.102L16.8628 215.09C17.8784 214.748 18.5713 214.036 18.9509 213.153C19.3306 213.922 19.9855 214.539 20.9347 214.852L21.5421 213.875ZM20.6309 217.69C19.4825 217.69 18.8845 217.453 18.8845 216.959C18.8845 216.466 19.4825 216.229 20.6309 216.229C21.7699 216.229 22.3679 216.466 22.3679 216.959C22.3679 217.453 21.7699 217.69 20.6309 217.69ZM20.6309 215.279C18.7706 215.279 17.6316 215.896 17.6316 216.959C17.6316 218.022 18.7706 218.639 20.6309 218.639C22.4818 218.639 23.6208 218.022 23.6208 216.959C23.6208 215.896 22.4818 215.279 20.6309 215.279ZM24.9394 212.1V214.795H25.6892C27.4356 214.795 28.5461 214.757 29.7611 214.53L29.6566 213.523C28.5651 213.723 27.6065 213.78 26.1828 213.789V213.03H28.9163V210.401H24.9299V211.407H27.6824V212.1H24.9394ZM28.6316 217.681C27.4926 217.681 26.9041 217.462 26.9041 216.978C26.9041 216.494 27.4926 216.276 28.6316 216.276C29.7705 216.276 30.359 216.494 30.359 216.978C30.359 217.462 29.7705 217.681 28.6316 217.681ZM28.6316 215.317C26.8092 215.317 25.6702 215.925 25.6702 216.978C25.6702 218.022 26.8092 218.639 28.6316 218.639C30.4539 218.639 31.5929 218.022 31.5929 216.978C31.5929 215.925 30.4539 215.317 28.6316 215.317ZM32.6655 212.081V211.065H31.5075V209.888H30.2546V215.156H31.5075V213.922H32.6655V212.907H31.5075V212.081H32.6655ZM40.8043 215.232H42.0572V209.888H40.8043V211.293H39.7792V212.299H40.8043V212.935H39.7792V213.932H40.8043V215.232ZM36.8653 211.464H37.6816V213.837C37.4063 213.846 37.1311 213.865 36.8653 213.865V211.464ZM39.6843 213.685C39.428 213.713 39.1623 213.742 38.887 213.77V211.464H39.5799V210.467H34.967V211.464H35.6599V213.894C35.3372 213.894 35.0334 213.894 34.7487 213.894L34.8816 214.909C36.2579 214.909 38.1372 214.881 39.7602 214.606L39.6843 213.685ZM39.0958 217.69C37.9473 217.69 37.3589 217.462 37.3589 217.007C37.3589 216.542 37.9473 216.323 39.0958 216.323C40.2538 216.323 40.8423 216.542 40.8423 217.007C40.8423 217.462 40.2538 217.69 39.0958 217.69ZM39.0958 215.374C37.2355 215.374 36.106 215.972 36.106 217.007C36.106 218.032 37.2355 218.63 39.0958 218.63C40.9657 218.63 42.0951 218.032 42.0951 217.007C42.0951 215.972 40.9657 215.374 39.0958 215.374ZM43.4991 210.78V211.796H46.3561C46.1283 213.732 45.0463 215.118 43.0151 216.162L43.7175 217.121C46.6219 215.65 47.6185 213.4 47.6185 210.78H43.4991ZM51.1683 213.22H49.9439V209.879H48.691V218.611H49.9439V214.254H51.1683V213.22Z" fill="#930E14"/>
<circle cx="3.55932" cy="3.55932" r="3.55932" transform="matrix(-1 0 0 1 17.2035 221.865)" fill="#930E14"/>
<path d="M0 51.0169C0 45.7749 4.2495 41.5254 9.49152 41.5254H280V77.1186H0V51.0169Z" fill="#004170"/>
<path d="M124.17 58.2949C121.69 57.9508 120.432 56.5271 120.432 55.2576V54.7356H118.759V55.2576C118.759 56.539 117.514 57.9508 115.022 58.2949L115.615 59.5525C117.526 59.2678 118.902 58.378 119.602 57.2034C120.302 58.378 121.666 59.2678 123.576 59.5525L124.17 58.2949ZM124.526 60.3593H114.654V61.6288H118.771V65.3542H120.337V61.6288H124.526V60.3593ZM134.17 57.1322H128.191V54.6051H126.625V58.378H134.17V57.1322ZM130.291 64.1203C128.831 64.1203 128.084 63.8593 128.084 63.2898C128.084 62.7203 128.831 62.4593 130.291 62.4593C131.75 62.4593 132.498 62.7203 132.498 63.2898C132.498 63.8593 131.75 64.1203 130.291 64.1203ZM130.291 61.261C127.93 61.261 126.506 62.0085 126.506 63.2898C126.506 64.5712 127.93 65.3186 130.291 65.3186C132.652 65.3186 134.087 64.5712 134.087 63.2898C134.087 62.0085 132.652 61.261 130.291 61.261ZM125.391 59.3034V60.5491H135.274V59.3034H125.391ZM138.381 66.7186L139.473 66.2559C138.476 64.5237 138.025 62.5305 138.025 60.5729C138.025 58.639 138.476 56.6339 139.473 54.9017L138.381 54.439C137.266 56.2661 136.614 58.2119 136.614 60.5729C136.614 62.9576 137.266 64.8796 138.381 66.7186ZM146.353 57.0491V58.3186H147.991V60.9169H149.557V54.4152H147.991V57.0491H146.353ZM147.006 59.3983C145.345 58.8525 144.586 57.5712 144.538 56.3254H146.662V55.0678H140.789V56.3254H142.936C142.889 57.6898 142.094 59.078 140.362 59.683L141.157 60.9169C142.426 60.4898 143.292 59.6 143.767 58.4966C144.242 59.4576 145.06 60.2288 146.247 60.6203L147.006 59.3983ZM145.867 64.1678C144.431 64.1678 143.684 63.8712 143.684 63.2542C143.684 62.6373 144.431 62.3407 145.867 62.3407C147.291 62.3407 148.038 62.6373 148.038 63.2542C148.038 63.8712 147.291 64.1678 145.867 64.1678ZM145.867 61.1542C143.542 61.1542 142.118 61.9254 142.118 63.2542C142.118 64.583 143.542 65.3542 145.867 65.3542C148.181 65.3542 149.604 64.583 149.604 63.2542C149.604 61.9254 148.181 61.1542 145.867 61.1542ZM155.393 55.2576H153.827V56.8474C153.827 58.9712 152.925 61.083 151.015 61.9017L151.952 63.1949C153.258 62.578 154.147 61.4034 154.634 59.9441C155.12 61.2847 155.963 62.3644 157.22 62.9339L158.11 61.6644C156.259 60.8695 155.393 58.8763 155.393 56.8474V55.2576ZM158.644 54.4034V65.3661H160.21V54.4034H158.644ZM163.08 66.7186C164.207 64.8796 164.86 62.9576 164.86 60.5729C164.86 58.2119 164.207 56.2661 163.08 54.439L162.001 54.9017C162.997 56.6339 163.448 58.639 163.448 60.5729C163.448 62.5305 162.997 64.5237 162.001 66.2559L163.08 66.7186Z" fill="white"/>
<path d="M280 41.5254H560V77.1186H280V41.5254Z" fill="#930E14"/>
<path d="M383.713 55.3763H381.281V54.3559H379.703V55.3763H377.283V56.6102H383.713V55.3763ZM379.312 58.9593C379.312 58.4135 379.786 58.1407 380.498 58.1407C381.198 58.1407 381.685 58.4135 381.685 58.9593C381.685 59.5169 381.198 59.7898 380.498 59.7898C379.786 59.7898 379.312 59.5169 379.312 58.9593ZM383.18 58.9593C383.18 57.7729 382.076 56.9542 380.498 56.9542C378.932 56.9542 377.817 57.7729 377.817 58.9593C377.817 60.1576 378.932 60.9763 380.498 60.9763C382.076 60.9763 383.18 60.1576 383.18 58.9593ZM378.6 62.9695H384.319V65.3542H385.885V61.7119H378.6V62.9695ZM387.332 57.2271H385.885V54.4271H384.319V61.261H385.885V58.5203H387.332V57.2271ZM394.996 58.3305H395.85V61.0949H397.333V54.4152H395.85V57.0729H394.996V54.6169H393.536V60.7508H394.996V58.3305ZM393.524 59.2678C392.089 58.6864 391.496 57.5119 391.496 56.3373V55.0678H389.989V56.3373C389.989 57.5712 389.396 58.9237 387.865 59.5881L388.696 60.7983C389.704 60.3712 390.38 59.5881 390.772 58.6627C391.163 59.4458 391.792 60.0983 392.694 60.4542L393.524 59.2678ZM393.631 64.1678C392.207 64.1678 391.424 63.883 391.424 63.3017C391.424 62.7203 392.207 62.4356 393.631 62.4356C395.031 62.4356 395.814 62.7203 395.814 63.3017C395.814 63.883 395.031 64.1678 393.631 64.1678ZM393.631 61.261C391.329 61.261 389.858 62.0322 389.858 63.3017C389.858 64.583 391.329 65.3424 393.631 65.3424C395.921 65.3424 397.38 64.583 397.38 63.3017C397.38 62.0322 395.921 61.261 393.631 61.261ZM405.934 58.4254H401.437V57.2983H405.934V58.4254ZM407.476 54.8305H405.934V56.0763H401.437V54.8305H399.883V59.6712H407.476V54.8305ZM408.651 60.7034H398.756V61.9491H402.884V65.3542H404.451V61.9491H408.651V60.7034ZM412.951 58.9593C415.016 58.7576 416.356 57.9983 416.938 56.9542C417.507 57.9983 418.86 58.7576 420.912 58.9593L421.458 57.7254C419.417 57.5593 418.35 56.8474 418.077 56.1119H420.983V54.8661H412.904V56.1119H415.799C415.526 56.8474 414.458 57.5593 412.417 57.7254L412.951 58.9593ZM416.914 64.1796C415.443 64.1796 414.707 63.9542 414.707 63.4203C414.707 62.8983 415.443 62.661 416.914 62.661C418.385 62.661 419.121 62.8983 419.121 63.4203C419.121 63.9542 418.385 64.1796 416.914 64.1796ZM416.914 61.4864C414.541 61.4864 413.129 62.1864 413.129 63.4203C413.129 64.6542 414.541 65.3424 416.914 65.3424C419.287 65.3424 420.711 64.6542 420.711 63.4203C420.711 62.1864 419.287 61.4864 416.914 61.4864ZM417.709 59.6474V58.3424H416.143V59.6474H412.002V60.8932H421.873V59.6474H417.709ZM429.181 55.3763H426.737V54.3322H425.159V55.3763H422.727V56.5983H429.169L429.181 55.3763ZM424.767 58.8288C424.767 58.3068 425.254 58.0339 425.954 58.0339C426.654 58.0339 427.14 58.3068 427.14 58.8288C427.14 59.3508 426.654 59.6237 425.954 59.6237C425.254 59.6237 424.767 59.3508 424.767 58.8288ZM428.635 58.8288C428.635 57.6661 427.532 56.8949 425.954 56.8949C424.376 56.8949 423.272 57.6661 423.272 58.8288C423.272 59.9796 424.376 60.7627 425.954 60.7627C427.532 60.7627 428.635 59.9796 428.635 58.8288ZM429.786 64.0017H425.788V63.2305H429.786V64.0017ZM429.786 62.0559H425.788V61.2254H424.233V65.2119H431.34V61.2254H429.786V62.0559ZM432.788 57.0373H431.34V54.4271H429.774V60.822H431.34V58.3186H432.788V57.0373ZM435.741 66.7186L436.832 66.2559C435.836 64.5237 435.385 62.5305 435.385 60.5729C435.385 58.639 435.836 56.6339 436.832 54.9017L435.741 54.439C434.626 56.2661 433.973 58.2119 433.973 60.5729C433.973 62.9576 434.626 64.8796 435.741 66.7186ZM447.308 58.2949C444.828 57.9508 443.571 56.5271 443.571 55.2576V54.7356H441.898V55.2576C441.898 56.539 440.652 57.9508 438.16 58.2949L438.754 59.5525C440.664 59.2678 442.04 58.378 442.74 57.2034C443.44 58.378 444.804 59.2678 446.715 59.5525L447.308 58.2949ZM447.664 60.3593H437.793V61.6288H441.91V65.3542H443.476V61.6288H447.664V60.3593ZM452.753 55.2576H451.187V56.8474C451.187 58.9712 450.285 61.083 448.375 61.9017L449.312 63.1949C450.617 62.578 451.507 61.4034 451.993 59.9441C452.48 61.2847 453.322 62.3644 454.58 62.9339L455.47 61.6644C453.619 60.8695 452.753 58.8763 452.753 56.8474V55.2576ZM456.004 54.4034V65.3661H457.57V54.4034H456.004ZM460.44 66.7186C461.567 64.8796 462.22 62.9576 462.22 60.5729C462.22 58.2119 461.567 56.2661 460.44 54.439L459.36 54.9017C460.357 56.6339 460.808 58.639 460.808 60.5729C460.808 62.5305 460.357 64.5237 459.36 66.2559L460.44 66.7186Z" fill="white"/>
<rect width="186.271" height="41.5254" transform="translate(373.729)" fill="#1D1919"/>
<path d="M413.238 20.0401V23.5694C413.107 23.7429 412.902 23.9333 412.623 24.1407C412.348 24.3438 411.982 24.5194 411.524 24.6675C411.067 24.8156 410.498 24.8897 409.817 24.8897C409.237 24.8897 408.706 24.7923 408.224 24.5977C407.741 24.3988 407.324 24.1089 406.973 23.7281C406.626 23.3472 406.358 22.8838 406.167 22.3379C405.977 21.7878 405.881 21.1615 405.881 20.459V19.8179C405.881 19.1197 405.968 18.4976 406.142 17.9517C406.319 17.4016 406.573 16.9361 406.903 16.5552C407.233 16.1743 407.631 15.8866 408.097 15.6919C408.566 15.493 409.098 15.3936 409.69 15.3936C410.448 15.3936 411.074 15.5205 411.569 15.7744C412.068 16.0241 412.453 16.3711 412.724 16.8155C412.995 17.2598 413.166 17.7676 413.238 18.3389H411.677C411.626 18.0173 411.527 17.7295 411.379 17.4756C411.235 17.2217 411.027 17.0228 410.756 16.8789C410.49 16.7308 410.143 16.6568 409.715 16.6568C409.347 16.6568 409.024 16.7266 408.744 16.8662C408.465 17.0059 408.232 17.2111 408.046 17.482C407.864 17.7528 407.726 18.0829 407.633 18.4722C407.54 18.8615 407.494 19.3059 407.494 19.8052V20.459C407.494 20.9668 407.547 21.4175 407.652 21.8111C407.762 22.2046 407.919 22.5368 408.122 22.8076C408.33 23.0785 408.581 23.2837 408.878 23.4234C409.174 23.5588 409.508 23.6265 409.88 23.6265C410.244 23.6265 410.543 23.5969 410.775 23.5376C411.008 23.4742 411.192 23.4001 411.328 23.3155C411.467 23.2266 411.575 23.142 411.651 23.0616V21.2271H409.728V20.0401H413.238ZM416.748 15.0127V24.7627H415.212V15.0127H416.748ZM418.392 21.4048V21.2588C418.392 20.7637 418.464 20.3046 418.608 19.8814C418.752 19.454 418.959 19.0837 419.23 18.7705C419.505 18.4532 419.839 18.2077 420.233 18.0342C420.631 17.8565 421.079 17.7676 421.579 17.7676C422.082 17.7676 422.531 17.8565 422.924 18.0342C423.322 18.2077 423.659 18.4532 423.934 18.7705C424.209 19.0837 424.418 19.454 424.562 19.8814C424.706 20.3046 424.778 20.7637 424.778 21.2588V21.4048C424.778 21.8999 424.706 22.3591 424.562 22.7823C424.418 23.2054 424.209 23.5757 423.934 23.8931C423.659 24.2062 423.324 24.4517 422.931 24.6294C422.537 24.8029 422.091 24.8897 421.591 24.8897C421.088 24.8897 420.637 24.8029 420.239 24.6294C419.846 24.4517 419.511 24.2062 419.236 23.8931C418.961 23.5757 418.752 23.2054 418.608 22.7823C418.464 22.3591 418.392 21.8999 418.392 21.4048ZM419.922 21.2588V21.4048C419.922 21.7137 419.954 22.0057 420.017 22.2808C420.081 22.5559 420.18 22.7971 420.315 23.0044C420.451 23.2118 420.624 23.3747 420.836 23.4932C421.048 23.6117 421.299 23.6709 421.591 23.6709C421.875 23.6709 422.12 23.6117 422.328 23.4932C422.539 23.3747 422.713 23.2118 422.848 23.0044C422.984 22.7971 423.083 22.5559 423.147 22.2808C423.214 22.0057 423.248 21.7137 423.248 21.4048V21.2588C423.248 20.9541 423.214 20.6664 423.147 20.3955C423.083 20.1205 422.982 19.8771 422.842 19.6656C422.706 19.454 422.533 19.2889 422.321 19.1704C422.114 19.0477 421.866 18.9864 421.579 18.9864C421.291 18.9864 421.041 19.0477 420.83 19.1704C420.622 19.2889 420.451 19.454 420.315 19.6656C420.18 19.8771 420.081 20.1205 420.017 20.3955C419.954 20.6664 419.922 20.9541 419.922 21.2588ZM426.326 15.0127H427.856V23.2964L427.71 24.7627H426.326V15.0127ZM432.338 21.2652V21.3985C432.338 21.9063 432.281 22.3739 432.166 22.8013C432.056 23.2245 431.887 23.5926 431.659 23.9058C431.434 24.2189 431.155 24.4623 430.821 24.6358C430.491 24.805 430.108 24.8897 429.672 24.8897C429.244 24.8897 428.872 24.8093 428.554 24.6485C428.237 24.4877 427.971 24.2591 427.755 23.9629C427.543 23.6667 427.372 23.3133 427.241 22.9029C427.109 22.4924 427.016 22.0396 426.961 21.5445V21.1192C427.016 20.6198 427.109 20.167 427.241 19.7608C427.372 19.3503 427.543 18.9969 427.755 18.7007C427.971 18.4003 428.235 18.1696 428.548 18.0088C428.866 17.848 429.236 17.7676 429.659 17.7676C430.099 17.7676 430.486 17.8522 430.821 18.0215C431.159 18.1908 431.441 18.432 431.665 18.7451C431.889 19.0541 432.056 19.4222 432.166 19.8496C432.281 20.277 432.338 20.7489 432.338 21.2652ZM430.808 21.3985V21.2652C430.808 20.9562 430.783 20.6664 430.732 20.3955C430.681 20.1205 430.596 19.8793 430.478 19.6719C430.364 19.4645 430.207 19.3016 430.008 19.1831C429.813 19.0604 429.57 18.9991 429.278 18.9991C429.007 18.9991 428.775 19.0456 428.58 19.1387C428.385 19.2318 428.222 19.3588 428.091 19.5196C427.96 19.6804 427.856 19.8666 427.78 20.0782C427.708 20.2897 427.659 20.5183 427.634 20.7637V21.9126C427.672 22.23 427.753 22.522 427.875 22.7886C428.002 23.051 428.18 23.2626 428.409 23.4234C428.637 23.5799 428.931 23.6582 429.291 23.6582C429.574 23.6582 429.813 23.6011 430.008 23.4868C430.203 23.3726 430.357 23.2139 430.471 23.0108C430.59 22.8034 430.675 22.5622 430.725 22.2871C430.78 22.0121 430.808 21.7159 430.808 21.3985ZM437.765 23.3853V20.1099C437.765 19.8645 437.72 19.6529 437.631 19.4751C437.543 19.2974 437.407 19.1599 437.225 19.0625C437.047 18.9652 436.823 18.9165 436.552 18.9165C436.303 18.9165 436.087 18.9589 435.905 19.0435C435.723 19.1281 435.581 19.2424 435.48 19.3863C435.378 19.5301 435.327 19.6931 435.327 19.875H433.804C433.804 19.6042 433.869 19.3418 434.001 19.0879C434.132 18.834 434.322 18.6076 434.572 18.4087C434.821 18.2098 435.12 18.0533 435.467 17.939C435.814 17.8247 436.203 17.7676 436.635 17.7676C437.151 17.7676 437.608 17.8544 438.006 18.0279C438.408 18.2014 438.723 18.4637 438.952 18.815C439.184 19.162 439.301 19.5978 439.301 20.1226V23.1758C439.301 23.489 439.322 23.7704 439.364 24.0201C439.411 24.2655 439.476 24.4792 439.561 24.6612V24.7627H437.993C437.921 24.5977 437.864 24.3882 437.822 24.1343C437.784 23.8762 437.765 23.6265 437.765 23.3853ZM437.987 20.586L438 21.5318H436.901C436.618 21.5318 436.368 21.5593 436.152 21.6143C435.937 21.6651 435.757 21.7412 435.613 21.8428C435.469 21.9444 435.361 22.0671 435.289 22.211C435.217 22.3548 435.181 22.5178 435.181 22.6997C435.181 22.8817 435.224 23.0489 435.308 23.2012C435.393 23.3493 435.516 23.4657 435.676 23.5503C435.841 23.635 436.04 23.6773 436.273 23.6773C436.586 23.6773 436.859 23.6138 437.092 23.4868C437.329 23.3557 437.515 23.197 437.65 23.0108C437.786 22.8203 437.858 22.6405 437.866 22.4712L438.361 23.1504C438.311 23.3239 438.224 23.5101 438.101 23.709C437.978 23.9079 437.818 24.0983 437.619 24.2803C437.424 24.458 437.189 24.604 436.914 24.7183C436.643 24.8326 436.33 24.8897 435.975 24.8897C435.526 24.8897 435.126 24.8008 434.775 24.6231C434.424 24.4411 434.149 24.1978 433.95 23.8931C433.751 23.5842 433.651 23.2351 433.651 22.8457C433.651 22.4818 433.719 22.1602 433.855 21.8809C433.994 21.5974 434.197 21.3604 434.464 21.17C434.735 20.9795 435.065 20.8356 435.454 20.7383C435.843 20.6367 436.288 20.586 436.787 20.586H437.987ZM442.798 15.0127V24.7627H441.262V15.0127H442.798ZM453.246 22.3824C453.246 22.1919 453.216 22.0227 453.157 21.8745C453.102 21.7264 453.003 21.591 452.859 21.4683C452.715 21.3456 452.512 21.2271 452.249 21.1128C451.991 20.9943 451.661 20.8737 451.259 20.751C450.819 20.6156 450.413 20.4654 450.04 20.3003C449.672 20.1311 449.351 19.9364 449.075 19.7163C448.8 19.4921 448.587 19.236 448.434 18.9483C448.282 18.6563 448.206 18.3199 448.206 17.939C448.206 17.5624 448.284 17.2196 448.441 16.9107C448.601 16.6018 448.828 16.3352 449.12 16.1109C449.416 15.8824 449.765 15.7067 450.167 15.584C450.569 15.4571 451.014 15.3936 451.5 15.3936C452.186 15.3936 452.776 15.5205 453.271 15.7744C453.771 16.0284 454.154 16.369 454.42 16.7964C454.691 17.2238 454.826 17.6957 454.826 18.2119H453.246C453.246 17.9073 453.18 17.6385 453.049 17.4058C452.922 17.1688 452.727 16.9826 452.465 16.8472C452.207 16.7118 451.879 16.6441 451.481 16.6441C451.105 16.6441 450.791 16.7012 450.542 16.8155C450.292 16.9297 450.106 17.0842 449.983 17.2788C449.86 17.4735 449.799 17.6936 449.799 17.939C449.799 18.1125 449.839 18.2712 449.92 18.4151C450 18.5547 450.123 18.6859 450.288 18.8086C450.453 18.9271 450.66 19.0393 450.91 19.1451C451.16 19.2508 451.454 19.3524 451.792 19.4497C452.304 19.6021 452.751 19.7714 453.132 19.9576C453.512 20.1395 453.83 20.3469 454.084 20.5796C454.338 20.8124 454.528 21.0769 454.655 21.3731C454.782 21.6651 454.845 21.9973 454.845 22.3697C454.845 22.759 454.767 23.1102 454.611 23.4234C454.454 23.7323 454.23 23.9968 453.938 24.2168C453.65 24.4326 453.303 24.5998 452.897 24.7183C452.495 24.8326 452.046 24.8897 451.551 24.8897C451.107 24.8897 450.669 24.8304 450.237 24.7119C449.81 24.5935 449.42 24.4136 449.069 24.1724C448.718 23.927 448.439 23.6223 448.231 23.2583C448.024 22.8902 447.92 22.4606 447.92 21.9698H449.513C449.513 22.2702 449.564 22.5262 449.666 22.7378C449.772 22.9494 449.918 23.1229 450.104 23.2583C450.29 23.3895 450.506 23.4868 450.751 23.5503C451.001 23.6138 451.268 23.6455 451.551 23.6455C451.923 23.6455 452.234 23.5926 452.484 23.4868C452.738 23.3811 452.928 23.2329 453.055 23.0425C453.182 22.8521 453.246 22.632 453.246 22.3824ZM460.317 15.5205V24.7627H458.736V15.5205H460.317ZM463.218 15.5205V16.7901H455.861V15.5205H463.218ZM470.746 23.4995V24.7627H465.839V23.4995H470.746ZM466.29 15.5205V24.7627H464.697V15.5205H466.29ZM470.105 19.3799V20.6241H465.839V19.3799H470.105ZM470.714 15.5205V16.7901H465.839V15.5205H470.714ZM475.906 16.752L473.145 24.7627H471.476L474.954 15.5205H476.02L475.906 16.752ZM478.217 24.7627L475.449 16.752L475.329 15.5205H476.401L479.893 24.7627H478.217ZM478.083 21.335V22.5982H473.056V21.335H478.083ZM481.835 15.5205H483.257L485.929 22.649L488.595 15.5205H490.017L486.488 24.7627H485.358L481.835 15.5205ZM481.187 15.5205H482.539L482.774 21.6905V24.7627H481.187V15.5205ZM489.312 15.5205H490.671V24.7627H489.077V21.6905L489.312 15.5205ZM499.817 15.5205V24.7627H498.237V15.5205H499.817ZM502.718 15.5205V16.7901H495.361V15.5205H502.718ZM505.123 19.2022V24.7627H503.594V17.8946H505.054L505.123 19.2022ZM507.225 17.8501L507.212 19.272C507.119 19.2551 507.017 19.2424 506.907 19.2339C506.801 19.2255 506.696 19.2212 506.59 19.2212C506.327 19.2212 506.097 19.2593 505.898 19.3355C505.699 19.4074 505.532 19.5132 505.396 19.6529C505.265 19.7883 505.164 19.9533 505.092 20.148C505.02 20.3426 504.977 20.5606 504.965 20.8018L504.616 20.8272C504.616 20.3955 504.658 19.9956 504.743 19.6275C504.827 19.2593 504.954 18.9356 505.123 18.6563C505.297 18.377 505.513 18.159 505.771 18.0025C506.033 17.8459 506.336 17.7676 506.679 17.7676C506.772 17.7676 506.871 17.7761 506.977 17.793C507.087 17.8099 507.17 17.829 507.225 17.8501ZM512.087 23.3853V20.1099C512.087 19.8645 512.042 19.6529 511.953 19.4751C511.864 19.2974 511.729 19.1599 511.547 19.0625C511.369 18.9652 511.145 18.9165 510.874 18.9165C510.625 18.9165 510.409 18.9589 510.227 19.0435C510.045 19.1281 509.903 19.2424 509.801 19.3863C509.7 19.5301 509.649 19.6931 509.649 19.875H508.126C508.126 19.6042 508.191 19.3418 508.322 19.0879C508.454 18.834 508.644 18.6076 508.894 18.4087C509.143 18.2098 509.442 18.0533 509.789 17.939C510.136 17.8247 510.525 17.7676 510.957 17.7676C511.473 17.7676 511.93 17.8544 512.328 18.0279C512.73 18.2014 513.045 18.4637 513.274 18.815C513.506 19.162 513.623 19.5978 513.623 20.1226V23.1758C513.623 23.489 513.644 23.7704 513.686 24.0201C513.733 24.2655 513.798 24.4792 513.883 24.6612V24.7627H512.315C512.243 24.5977 512.186 24.3882 512.144 24.1343C512.106 23.8762 512.087 23.6265 512.087 23.3853ZM512.309 20.586L512.321 21.5318H511.223C510.94 21.5318 510.69 21.5593 510.474 21.6143C510.258 21.6651 510.079 21.7412 509.935 21.8428C509.791 21.9444 509.683 22.0671 509.611 22.211C509.539 22.3548 509.503 22.5178 509.503 22.6997C509.503 22.8817 509.545 23.0489 509.63 23.2012C509.715 23.3493 509.837 23.4657 509.998 23.5503C510.163 23.635 510.362 23.6773 510.595 23.6773C510.908 23.6773 511.181 23.6138 511.414 23.4868C511.651 23.3557 511.837 23.197 511.972 23.0108C512.108 22.8203 512.18 22.6405 512.188 22.4712L512.683 23.1504C512.633 23.3239 512.546 23.5101 512.423 23.709C512.3 23.9079 512.14 24.0983 511.941 24.2803C511.746 24.458 511.511 24.604 511.236 24.7183C510.965 24.8326 510.652 24.8897 510.297 24.8897C509.848 24.8897 509.448 24.8008 509.097 24.6231C508.746 24.4411 508.471 24.1978 508.272 23.8931C508.073 23.5842 507.973 23.2351 507.973 22.8457C507.973 22.4818 508.041 22.1602 508.176 21.8809C508.316 21.5974 508.519 21.3604 508.786 21.17C509.057 20.9795 509.387 20.8356 509.776 20.7383C510.165 20.6367 510.61 20.586 511.109 20.586H512.309ZM518.288 23.6709C518.538 23.6709 518.762 23.6223 518.961 23.5249C519.164 23.4234 519.327 23.2837 519.45 23.106C519.577 22.9283 519.646 22.723 519.659 22.4903H521.1C521.092 22.9346 520.96 23.3387 520.706 23.7027C520.453 24.0666 520.116 24.3565 519.697 24.5723C519.278 24.7839 518.815 24.8897 518.307 24.8897C517.782 24.8897 517.325 24.8008 516.936 24.6231C516.547 24.4411 516.223 24.1914 515.965 23.8741C515.707 23.5567 515.512 23.1906 515.381 22.7759C515.254 22.3612 515.19 21.9169 515.19 21.4429V21.2207C515.19 20.7468 515.254 20.3024 515.381 19.8877C515.512 19.4688 515.707 19.1006 515.965 18.7832C516.223 18.4659 516.547 18.2183 516.936 18.0406C517.325 17.8586 517.78 17.7676 518.301 17.7676C518.851 17.7676 519.333 17.8776 519.748 18.0977C520.163 18.3135 520.489 18.6161 520.726 19.0054C520.967 19.3905 521.092 19.8391 521.1 20.3511H519.659C519.646 20.0972 519.583 19.8687 519.469 19.6656C519.359 19.4582 519.202 19.2932 518.999 19.1704C518.8 19.0477 518.561 18.9864 518.282 18.9864C517.973 18.9864 517.717 19.0498 517.514 19.1768C517.31 19.2995 517.152 19.4688 517.038 19.6846C516.923 19.8962 516.841 20.1353 516.79 20.4019C516.743 20.6643 516.72 20.9372 516.72 21.2207V21.4429C516.72 21.7264 516.743 22.0015 516.79 22.2681C516.837 22.5347 516.917 22.7738 517.031 22.9854C517.15 23.1927 517.31 23.3599 517.514 23.4868C517.717 23.6096 517.975 23.6709 518.288 23.6709ZM524.077 15.0127V24.7627H522.541V15.0127H524.077ZM528.342 17.8946L525.353 21.208L523.715 22.8838L523.315 21.5889L524.553 20.0591L526.495 17.8946H528.342ZM526.825 24.7627L524.597 21.5381L525.562 20.4654L528.596 24.7627H526.825Z" fill="white"/>
<defs>
<linearGradient id="paint0_linear_1_2123" x1="-34.5955" y1="203.958" x2="578.97" y2="203.958" gradientUnits="userSpaceOnUse">
<stop stop-color="#930E14"/>
<stop offset="1" stop-color="#004170"/>
</linearGradient>
</defs>
</svg>
