<svg width="134" height="50" viewBox="0 0 134 50" fill="none" xmlns="http://www.w3.org/2000/svg">
<g clip-path="url(#clip0_106_5376)">
<g clip-path="url(#clip1_106_5376)">
<path d="M102.563 14.8869V13.8286H106.342V14.3391C106.342 16.4744 104.86 18.1801 102.631 18.1801C100.403 18.1801 98.8213 16.4744 98.8213 14.115C98.8213 11.7556 100.409 10.0498 102.631 10.0498C104.163 10.0498 105.271 10.691 105.893 12.0544L104.723 12.5213C104.349 11.6373 103.627 11.1081 102.631 11.1081C101.137 11.1081 100.079 12.3656 100.079 14.115C100.079 15.8643 101.137 17.1218 102.631 17.1218C104.125 17.1218 104.928 15.9452 104.997 14.8869H102.557H102.563Z" fill="white"/>
<path d="M107.599 18.0307V10H108.857V18.0307H107.599Z" fill="white"/>
<path d="M113.015 18.1801C111.259 18.1801 110.014 17.0097 110.014 15.1795C110.014 13.3492 111.253 12.1788 113.015 12.1788C114.777 12.1788 116.015 13.3492 116.015 15.1795C116.015 17.0097 114.777 18.1801 113.015 18.1801ZM113.015 13.2434C111.956 13.2434 111.278 14.0589 111.278 15.1857C111.278 16.3125 111.956 17.128 113.015 17.128C114.073 17.128 114.752 16.3125 114.752 15.1857C114.752 14.0589 114.073 13.2434 113.015 13.2434Z" fill="white"/>
<path d="M120.292 18.1801C119.489 18.1801 118.829 17.9062 118.381 17.4269L118.363 17.9747H117.13V10H118.387V12.9259C118.823 12.459 119.483 12.1851 120.286 12.1851C121.811 12.1851 123.019 13.343 123.019 15.1857C123.019 17.0284 121.811 18.1863 120.286 18.1863L120.292 18.1801ZM120.131 13.2434C119.228 13.2434 118.406 13.8659 118.406 15.1857C118.406 16.5055 119.228 17.128 120.131 17.128C120.971 17.128 121.768 16.4806 121.768 15.1857C121.768 13.8908 120.977 13.2434 120.131 13.2434Z" fill="white"/>
<path d="M127.906 17.9248L127.887 17.5077C127.458 17.9373 126.854 18.1801 126.107 18.1801C124.694 18.1801 123.859 17.5389 123.859 16.3436C123.859 14.4635 126.138 14.0651 127.8 14.6378V14.4947C127.8 13.4861 127.121 13.2745 126.518 13.2434C125.895 13.2122 125.26 13.4799 124.712 13.9468L123.99 13.1437C124.824 12.3718 125.69 12.1601 126.599 12.1913C127.688 12.2348 129.058 12.7391 129.058 14.4075V17.931H127.9L127.906 17.9248ZM127.806 16.1257V15.5965C126.343 15.2541 125.123 15.3538 125.123 16.3498C125.123 16.9474 125.683 17.1404 126.325 17.1404C127.097 17.1404 127.806 16.7109 127.806 16.1257Z" fill="white"/>
<path d="M130.527 18.0307V10H131.784V18.0307H130.527Z" fill="white"/>
<path d="M103.21 23.2538C102.998 22.4196 102.37 22.0461 101.623 22.0461C100.876 22.0461 100.334 22.4321 100.334 23.0297C100.334 23.7892 101.093 24.2001 102.264 24.4491C103.714 24.7666 104.679 25.5697 104.679 26.8147C104.679 28.3462 103.359 29.1306 101.884 29.1306C100.116 29.1306 99.0702 28.1656 98.8149 26.684L100.072 26.4723C100.278 27.5493 100.888 28.0785 101.872 28.0785C102.693 28.0785 103.415 27.7112 103.415 26.821C103.415 26.0054 102.544 25.6755 101.635 25.4701C99.9604 25.0965 99.0764 24.2623 99.0764 23.0733C99.0764 21.8842 100.222 20.9878 101.666 20.9878C102.886 20.9878 104.094 21.6477 104.492 22.9177L103.204 23.2538H103.21Z" fill="white"/>
<path d="M108.707 22.2017V28.9687H107.45V22.2017H105.184V21.1434H111.179V22.2017H108.707Z" fill="white"/>
<path d="M112.193 28.9749V21.1497H116.918V22.208H113.451V24.4242H116.813V25.4825H113.451V27.9228H117.018V28.9812H112.193V28.9749Z" fill="white"/>
<path d="M123.586 28.9749L122.845 26.9019H119.738L118.998 28.9749H117.684L120.573 21.1497H122.017L124.906 28.9749H123.592H123.586ZM120.112 25.8436H122.459L121.289 22.5628L120.112 25.8436Z" fill="white"/>
<path d="M132.799 28.9749V22.7247L130.683 28.9251H129.263L127.147 22.7247V28.9749H125.908V21.1497H127.726L129.973 27.7236L132.22 21.1497H134.038V28.9749H132.799Z" fill="white"/>
<path d="M102.345 33.0774V39.8443H101.087V33.0774H98.8213V32.019H104.816V33.0774H102.345Z" fill="white"/>
<path d="M108.576 35.2314C107.337 35.0259 106.485 35.5053 106.485 36.5947V39.8444H105.227V34.2042H106.46L106.478 34.7707C106.908 34.2104 107.555 33.868 108.788 34.0486L108.583 35.2252L108.576 35.2314Z" fill="white"/>
<path d="M113.152 39.7448L113.133 39.3277C112.704 39.7572 112.1 40 111.353 40C109.94 40 109.105 39.3588 109.105 38.1635C109.105 36.2835 111.384 35.885 113.046 36.4578V36.3146C113.046 35.3061 112.368 35.0944 111.764 35.0633C111.141 35.0322 110.506 35.2999 109.958 35.7668L109.236 34.9637C110.07 34.1917 110.936 33.9801 111.845 34.0112C112.934 34.0548 114.304 34.559 114.304 36.2274V39.751H113.146L113.152 39.7448ZM113.052 37.9456V37.4165C111.589 37.0741 110.369 37.1737 110.369 38.1698C110.369 38.7674 110.93 38.9604 111.571 38.9604C112.343 38.9604 113.052 38.5308 113.052 37.9456Z" fill="white"/>
<path d="M118.425 40C116.669 40 115.424 38.8297 115.424 36.9994C115.424 35.1691 116.663 33.9988 118.425 33.9988C119.602 33.9988 120.498 34.5093 120.946 35.4617L119.801 35.9286C119.546 35.387 119.097 35.0571 118.431 35.0571C117.373 35.0571 116.694 35.8726 116.694 36.9994C116.694 38.1262 117.373 38.9417 118.431 38.9417C119.104 38.9417 119.539 38.5869 119.801 38.0141L120.946 38.481C120.479 39.4771 119.608 39.9938 118.425 39.9938V40Z" fill="white"/>
<path d="M121.961 39.8444V31.8137H123.218V36.4578L125.304 34.1482H126.835L124.277 36.931L127.041 39.8382H125.466L123.218 37.4414V39.8382H121.961V39.8444Z" fill="white"/>
<path d="M57.9891 17.5016C56.6755 15.2293 54.7768 13.3306 52.4983 12.0108C50.2945 10.7346 47.7297 10 44.9968 10C42.2638 10 39.7052 10.7346 37.4952 12.0108V24.9969H29.9937C29.9937 27.7298 30.7282 30.2884 32.0044 32.4984C33.3242 34.7707 35.2167 36.6694 37.4952 37.9892C39.699 39.2654 42.2638 40 44.9968 40C47.7297 40 50.2883 39.2654 52.4983 37.9892V25.0031H59.9999C59.9999 22.2702 59.2653 19.7116 57.9891 17.5016Z" fill="white"/>
<path d="M74.9969 24.9969V39.9938C83.2828 39.9938 89.9938 33.2766 89.9938 24.9969C89.9938 16.7172 83.2828 10 74.9969 10C66.7172 10 60 16.7172 60 24.9969H74.9969Z" fill="white"/>
<path d="M14.9969 24.9969V10C6.71716 10 0 16.7172 0 24.9969C0 33.2766 6.71716 39.9938 14.9969 39.9938C23.2828 39.9938 29.9938 33.2766 29.9938 24.9969H14.9969Z" fill="white"/>
</g>
</g>
<defs>
<clipPath id="clip0_106_5376">
<rect width="134" height="50" fill="white"/>
</clipPath>
<clipPath id="clip1_106_5376">
<rect width="134.044" height="30" fill="white" transform="translate(0 10)"/>
</clipPath>
</defs>
</svg>
