<svg width="135" height="30" viewBox="0 0 135 30" fill="none" xmlns="http://www.w3.org/2000/svg">
<g clip-path="url(#clip0_106_5284)">
<path d="M102.563 4.88691V3.8286H106.342V4.33908C106.342 6.47437 104.86 8.18012 102.631 8.18012C100.403 8.18012 98.8215 6.47438 98.8215 4.11496C98.8215 1.75555 100.409 0.0498047 102.631 0.0498047C104.163 0.0498047 105.271 0.691017 105.894 2.05437L104.723 2.52127C104.35 1.63727 103.628 1.10812 102.631 1.10812C101.137 1.10812 100.079 2.36564 100.079 4.11496C100.079 5.86429 101.137 7.12181 102.631 7.12181C104.126 7.12181 104.929 5.94522 104.997 4.88691H102.557H102.563Z" fill="#1D1919"/>
<path d="M107.599 8.03071V0H108.857V8.03071H107.599Z" fill="#1D1919"/>
<path d="M113.015 8.18008C111.26 8.18008 110.015 7.00971 110.015 5.17946C110.015 3.3492 111.253 2.17883 113.015 2.17883C114.777 2.17883 116.016 3.3492 116.016 5.17946C116.016 7.00971 114.777 8.18008 113.015 8.18008ZM113.015 3.24337C111.957 3.24337 111.278 4.05889 111.278 5.18568C111.278 6.31247 111.957 7.12799 113.015 7.12799C114.074 7.12799 114.752 6.31247 114.752 5.18568C114.752 4.05889 114.074 3.24337 113.015 3.24337Z" fill="#1D1919"/>
<path d="M120.293 8.18012C119.49 8.18012 118.83 7.9062 118.381 7.42685L118.363 7.97468H117.13V0H118.388V2.92592C118.823 2.45902 119.483 2.1851 120.286 2.1851C121.812 2.1851 123.019 3.34302 123.019 5.18572C123.019 7.02843 121.812 8.18635 120.286 8.18635L120.293 8.18012ZM120.131 3.24341C119.228 3.24341 118.406 3.86595 118.406 5.18572C118.406 6.5055 119.228 7.12803 120.131 7.12803C120.971 7.12803 121.768 6.4806 121.768 5.18572C121.768 3.89085 120.977 3.24341 120.131 3.24341Z" fill="#1D1919"/>
<path d="M127.906 7.92482L127.888 7.50772C127.458 7.93727 126.854 8.18006 126.107 8.18006C124.694 8.18006 123.86 7.53885 123.86 6.34358C123.86 4.46352 126.138 4.0651 127.801 4.63783V4.49465C127.801 3.48614 127.122 3.27448 126.518 3.24335C125.896 3.21223 125.261 3.47992 124.713 3.94682L123.991 3.14375C124.825 2.3718 125.69 2.16014 126.599 2.19127C127.688 2.23485 129.058 2.7391 129.058 4.4075V7.93105H127.9L127.906 7.92482ZM127.807 6.1257V5.59654C126.344 5.25414 125.124 5.35375 125.124 6.34981C125.124 6.94744 125.684 7.14043 126.325 7.14043C127.097 7.14043 127.807 6.71088 127.807 6.1257Z" fill="#1D1919"/>
<path d="M130.527 8.03071V0H131.785V8.03071H130.527Z" fill="#1D1919"/>
<path d="M103.21 13.2538C102.999 12.4196 102.37 12.0461 101.623 12.0461C100.876 12.0461 100.334 12.4321 100.334 13.0297C100.334 13.7892 101.094 14.2001 102.264 14.4491C103.715 14.7666 104.679 15.5697 104.679 16.8147C104.679 18.3462 103.36 19.1306 101.884 19.1306C100.116 19.1306 99.0704 18.1656 98.8152 16.684L100.073 16.4723C100.278 17.5493 100.888 18.0785 101.872 18.0785C102.694 18.0785 103.416 17.7112 103.416 16.821C103.416 16.0054 102.544 15.6755 101.635 15.4701C99.9607 15.0965 99.0766 14.2623 99.0766 13.0733C99.0766 11.8842 100.222 10.9878 101.666 10.9878C102.887 10.9878 104.094 11.6477 104.493 12.9177L103.204 13.2538H103.21Z" fill="#1D1919"/>
<path d="M108.707 12.2017V18.9687H107.45V12.2017H105.184V11.1434H111.179V12.2017H108.707Z" fill="#1D1919"/>
<path d="M112.194 18.9749V11.1497H116.919V12.208H113.451V14.4242H116.813V15.4825H113.451V17.9228H117.018V18.9812H112.194V18.9749Z" fill="#1D1919"/>
<path d="M123.586 18.9749L122.845 16.9019H119.739L118.998 18.9749H117.684L120.573 11.1497H122.017L124.906 18.9749H123.592H123.586ZM120.112 15.8436H122.459L121.289 12.5628L120.112 15.8436Z" fill="#1D1919"/>
<path d="M132.799 18.9749V12.7247L130.683 18.9251H129.263L127.147 12.7247V18.9749H125.908V11.1497H127.726L129.973 17.7236L132.22 11.1497H134.038V18.9749H132.799Z" fill="#1D1919"/>
<path d="M102.345 23.0774V29.8443H101.088V23.0774H98.8215V22.019H104.817V23.0774H102.345Z" fill="#1D1919"/>
<path d="M108.577 25.2314C107.338 25.0259 106.485 25.5053 106.485 26.5947V29.8444H105.227V24.2042H106.46L106.479 24.7707C106.908 24.2104 107.556 23.868 108.788 24.0486L108.583 25.2252L108.577 25.2314Z" fill="#1D1919"/>
<path d="M113.152 29.7448L113.134 29.3277C112.704 29.7572 112.1 30 111.353 30C109.94 30 109.106 29.3588 109.106 28.1635C109.106 26.2835 111.384 25.885 113.046 26.4578V26.3146C113.046 25.3061 112.368 25.0944 111.764 25.0633C111.141 25.0322 110.506 25.2999 109.959 25.7668L109.236 24.9637C110.071 24.1917 110.936 23.9801 111.845 24.0112C112.934 24.0548 114.304 24.559 114.304 26.2274V29.751H113.146L113.152 29.7448ZM113.053 27.9456V27.4165C111.59 27.0741 110.369 27.1737 110.369 28.1698C110.369 28.7674 110.93 28.9604 111.571 28.9604C112.343 28.9604 113.053 28.5308 113.053 27.9456Z" fill="#1D1919"/>
<path d="M118.425 30C116.67 30 115.425 28.8297 115.425 26.9994C115.425 25.1691 116.663 23.9988 118.425 23.9988C119.602 23.9988 120.498 24.5093 120.946 25.4617L119.801 25.9286C119.546 25.387 119.098 25.0571 118.431 25.0571C117.373 25.0571 116.695 25.8726 116.695 26.9994C116.695 28.1262 117.373 28.9417 118.431 28.9417C119.104 28.9417 119.54 28.5869 119.801 28.0141L120.946 28.481C120.48 29.4771 119.608 29.9938 118.425 29.9938V30Z" fill="#1D1919"/>
<path d="M121.961 29.8444V21.8137H123.219V26.4578L125.304 24.1482H126.836L124.277 26.931L127.041 29.8382H125.466L123.219 27.4414V29.8382H121.961V29.8444Z" fill="#1D1919"/>
<path d="M57.9893 7.50156C56.6758 5.2293 54.777 3.33057 52.4986 2.01079C50.2948 0.734592 47.7299 0 44.997 0C42.2641 0 39.7055 0.734592 37.4955 2.01079V14.9969H29.9939C29.9939 17.7298 30.7285 20.2884 32.0047 22.4984C33.3245 24.7707 35.217 26.6694 37.4955 27.9892C39.6992 29.2654 42.2641 30 44.997 30C47.7299 30 50.2886 29.2654 52.4986 27.9892V15.0031H60.0001C60.0001 12.2702 59.2655 9.71156 57.9893 7.50156Z" fill="#1D1919"/>
<path d="M74.9969 14.9969V29.9938C83.2828 29.9938 89.9938 23.2766 89.9938 14.9969C89.9938 6.71716 83.2828 0 74.9969 0C66.7172 0 60 6.71716 60 14.9969H74.9969Z" fill="#930E14"/>
<path d="M14.9969 14.9969V0C6.71716 0 0 6.71716 0 14.9969C0 23.2766 6.71716 29.9938 14.9969 29.9938C23.2828 29.9938 29.9938 23.2766 29.9938 14.9969H14.9969Z" fill="#004170"/>
</g>
<defs>
<clipPath id="clip0_106_5284">
<rect width="134.044" height="30" fill="white"/>
</clipPath>
</defs>
</svg>
