<svg width="106" height="106" viewBox="0 0 106 106" fill="none" xmlns="http://www.w3.org/2000/svg">
<g filter="url(#filter0_bd_103_5376)">
<ellipse cx="46.9776" cy="45" rx="42.9776" ry="43" fill="url(#paint0_radial_103_5376)" shape-rendering="crispEdges"/>
<path d="M89.4552 45C89.4552 68.4724 70.4371 87.5 46.9776 87.5C23.5181 87.5 4.5 68.4724 4.5 45C4.5 21.5277 23.5181 2.5 46.9776 2.5C70.4371 2.5 89.4552 21.5277 89.4552 45Z" stroke="url(#paint1_linear_103_5376)" stroke-opacity="0.4" shape-rendering="crispEdges"/>
<path d="M89.4552 45C89.4552 68.4724 70.4371 87.5 46.9776 87.5C23.5181 87.5 4.5 68.4724 4.5 45C4.5 21.5277 23.5181 2.5 46.9776 2.5C70.4371 2.5 89.4552 21.5277 89.4552 45Z" stroke="url(#paint2_linear_103_5376)" stroke-opacity="0.1" shape-rendering="crispEdges"/>
</g>
<path d="M61.4978 41.9299C63.8605 43.2947 63.8605 46.7052 61.4978 48.07L42.3776 59.1148C40.014 60.4801 37.0588 58.7744 37.0588 56.0447L37.0588 33.9552C37.0588 31.2255 40.014 29.5198 42.3776 30.8851L61.4978 41.9299Z" fill="#930E14"/>
<defs>
<filter id="filter0_bd_103_5376" x="-11" y="-13" width="116.955" height="119" filterUnits="userSpaceOnUse" color-interpolation-filters="sRGB">
<feFlood flood-opacity="0" result="BackgroundImageFix"/>
<feGaussianBlur in="BackgroundImageFix" stdDeviation="7.5"/>
<feComposite in2="SourceAlpha" operator="in" result="effect1_backgroundBlur_103_5376"/>
<feColorMatrix in="SourceAlpha" type="matrix" values="0 0 0 0 0 0 0 0 0 0 0 0 0 0 0 0 0 0 127 0" result="hardAlpha"/>
<feOffset dx="6" dy="8"/>
<feGaussianBlur stdDeviation="5"/>
<feComposite in2="hardAlpha" operator="out"/>
<feColorMatrix type="matrix" values="0 0 0 0 0 0 0 0 0 0 0 0 0 0 0 0 0 0 0.06 0"/>
<feBlend mode="normal" in2="effect1_backgroundBlur_103_5376" result="effect2_dropShadow_103_5376"/>
<feBlend mode="normal" in="SourceGraphic" in2="effect2_dropShadow_103_5376" result="shape"/>
</filter>
<radialGradient id="paint0_radial_103_5376" cx="0" cy="0" r="1" gradientUnits="userSpaceOnUse" gradientTransform="translate(20.5 10) rotate(52.9975) scale(86.4002 86.3553)">
<stop stop-color="white" stop-opacity="0.4"/>
<stop offset="1" stop-color="white" stop-opacity="0.3"/>
</radialGradient>
<linearGradient id="paint1_linear_103_5376" x1="21" y1="9" x2="78" y2="76" gradientUnits="userSpaceOnUse">
<stop stop-color="white" stop-opacity="0.2"/>
<stop offset="1" stop-color="white" stop-opacity="0"/>
</linearGradient>
<linearGradient id="paint2_linear_103_5376" x1="4.5" y1="44" x2="90" y2="44" gradientUnits="userSpaceOnUse">
<stop stop-color="#F7F7F7"/>
<stop offset="1" stop-color="#F6F6F6" stop-opacity="0"/>
</linearGradient>
</defs>
</svg>
