<svg width="157" height="73" viewBox="0 0 157 73" fill="none" xmlns="http://www.w3.org/2000/svg">
<g clip-path="url(#clip0_59_2551)">
<path d="M140.296 61.4106L139.329 59.2171L134.852 49.0541L134.845 49.0424C134.834 49.0479 134.822 49.0525 134.81 49.0587H134.807C134.616 49.1441 134.424 49.2278 134.233 49.31C128.709 51.7005 122.969 53.5907 117.16 54.9341C111.259 56.2985 105.417 57.0702 99.7956 57.2253C99.6505 57.23 99.5047 57.2323 99.3604 57.237C99.5815 56.9957 99.7987 56.7545 100.011 56.5094C100.382 56.0852 100.743 55.6531 101.092 55.2141C102.509 53.4325 103.75 51.5307 104.807 49.5295C107.191 45.0193 108.636 40.0064 109.046 34.7461C109.551 28.2773 108.513 22.3833 105.96 17.2246C103.616 12.4886 99.9786 8.47009 95.4389 5.60415C92.9064 4.00558 90.139 2.77776 87.2234 1.94628C87.2226 1.94551 87.2218 1.94551 87.2211 1.94551C86.8689 1.84545 86.5152 1.75005 86.16 1.66163C85.5325 1.50495 84.8981 1.36689 84.2589 1.24589C82.4657 0.908492 80.629 0.715359 78.769 0.6727C72.744 0.532311 66.9298 1.97188 61.9565 4.83628C61.5416 5.07517 61.1336 5.32337 60.7333 5.58165C56.7846 8.12494 53.5503 11.5796 51.3288 15.6416C48.6692 20.5009 47.4391 26.1203 47.671 32.3455C47.9184 38.9802 49.6178 45.0007 52.7242 50.2361C53.3664 51.3181 54.0668 52.3645 54.8246 53.372C55.7352 54.5866 56.7288 55.7447 57.803 56.8445L57.8054 56.8468C57.5463 56.8049 57.288 56.7592 57.0282 56.7126H57.0274C55.8221 56.4947 54.6105 56.231 53.3967 55.9199C48.4358 54.6502 43.4865 52.6158 38.6861 49.8731C34.0168 47.2058 29.4895 43.8667 25.2072 39.9319C25.0374 39.776 24.8675 39.6186 24.6984 39.4611C24.5208 39.2967 24.344 39.1299 24.1679 38.9624L24.1547 38.9492C24.1493 38.9438 24.1431 38.9383 24.1376 38.9329C24.0205 38.822 23.905 38.7111 23.7878 38.5986L23.7785 38.6079L22.8074 39.617H22.8067L16.4504 46.2254C16.4496 46.2254 16.4496 46.2261 16.4496 46.2261L15.6383 47.0708H15.6375L14.3981 48.3599C14.9813 48.9207 15.5677 49.4729 16.1603 50.0143C16.3162 50.1578 16.4729 50.299 16.6296 50.4409C16.9429 50.7248 17.257 51.0048 17.5727 51.2825C17.8892 51.5601 18.2056 51.8363 18.5236 52.1085C18.8416 52.3815 19.1612 52.6514 19.4808 52.9183C19.9617 53.3193 20.4441 53.7141 20.9296 54.1034C21.416 54.492 21.9031 54.8744 22.394 55.2506C22.7206 55.5011 23.0487 55.7493 23.3775 55.9952C26.1737 58.0808 29.0412 59.9656 31.9653 61.6363C32.6967 62.0544 33.432 62.4593 34.1712 62.8502C39.3407 65.5889 44.6678 67.6684 50.0374 69.0436C51.7981 69.4942 53.558 69.8681 55.3133 70.1651C55.7926 70.2466 56.2704 70.3218 56.7489 70.3908C59.6172 70.8074 62.4715 71.0168 65.2909 71.0168C65.8649 71.0168 66.4373 71.0075 67.009 70.9896C67.199 70.9842 67.3898 70.9772 67.5798 70.9702C67.7187 70.9648 67.8575 70.9586 67.9956 70.9516C68.1166 70.9462 68.2368 70.94 68.3562 70.9338C68.3741 70.933 68.3927 70.9322 68.4105 70.9299C68.5556 70.9221 68.7006 70.9136 68.8449 70.9043C68.9442 70.8981 69.0434 70.8919 69.1419 70.8849C69.2878 70.8748 69.4351 70.864 69.5802 70.8539C69.7655 70.8399 69.9501 70.8244 70.1347 70.8081C70.151 70.8066 70.1658 70.8058 70.1821 70.8035C70.3488 70.7895 70.514 70.774 70.68 70.7569C70.9383 70.7321 71.195 70.705 71.4518 70.6755C71.5751 70.6631 71.6992 70.6484 71.8225 70.6328C71.8977 70.6251 71.973 70.6158 72.0482 70.6057C72.1072 70.5987 72.1661 70.5917 72.2258 70.5832C72.3779 70.5646 72.5291 70.5444 72.6811 70.5235C72.8145 70.5056 72.9472 70.4878 73.0798 70.4676C73.0922 70.4661 73.1054 70.4638 73.1194 70.4622C73.4777 70.4102 73.8353 70.3544 74.1905 70.2954C74.2533 70.2854 74.3162 70.2745 74.3774 70.2644C74.5318 70.2388 74.6861 70.2117 74.8405 70.1838C75.0282 70.1496 75.2159 70.1147 75.4028 70.079C75.4137 70.0775 75.4238 70.0752 75.4331 70.0736C75.599 70.0426 75.7635 70.0092 75.9271 69.9759C76.1901 69.9231 76.4538 69.8673 76.7152 69.8099C76.7951 69.7928 76.8757 69.775 76.9548 69.7564C77.058 69.7339 77.1612 69.7106 77.2635 69.6866C77.5234 69.6269 77.7824 69.5648 78.04 69.5012C78.1687 69.4686 78.2967 69.4368 78.4262 69.4035C78.5542 69.3701 78.6829 69.3375 78.8117 69.3034C78.9342 69.2708 79.0568 69.2383 79.1801 69.2041C79.1894 69.2026 79.1987 69.1995 79.208 69.1972C79.2251 69.1925 79.243 69.1879 79.26 69.1832C79.2786 69.1785 79.298 69.1731 79.3166 69.1677C79.4035 69.1444 79.4904 69.1196 79.5772 69.094C79.7044 69.0583 79.8316 69.0211 79.9581 68.9846H79.9596C80.0589 68.9559 80.1582 68.9265 80.2582 68.897C80.2652 68.8947 80.2738 68.8923 80.2807 68.89C80.2862 68.8885 80.2924 68.8861 80.2978 68.8846L80.3358 68.8729C80.3358 68.8729 80.3358 68.8737 80.3366 68.8729H80.3381C80.3381 68.8729 80.342 68.8737 80.3436 68.8745C80.3436 68.8745 80.3441 68.8745 80.3451 68.8745L80.3475 68.8753C80.3475 68.8753 80.3477 68.8753 80.3482 68.8753H80.349L80.3498 68.876C80.3754 68.8822 80.4025 68.8885 80.4273 68.8939C80.5119 68.9148 80.5964 68.9342 80.681 68.9536C80.7663 68.973 80.8501 68.9932 80.9354 69.0126C81.1045 69.0521 81.2759 69.0893 81.4465 69.1273C82.7022 69.405 83.9828 69.6478 85.2897 69.8564H85.2905C85.6163 69.9084 85.9444 69.9588 86.274 70.0069H86.2748C87.2637 70.1512 88.2666 70.2753 89.2811 70.38C89.6193 70.4149 89.9598 70.4482 90.3019 70.4785C90.8138 70.525 91.3288 70.5661 91.8477 70.6018C92.365 70.6375 92.8878 70.6693 93.4121 70.6957C93.9357 70.7213 94.4647 70.743 94.9944 70.76C96.6899 70.8128 98.4157 70.8159 100.169 70.7663C101.41 70.7321 102.658 70.6724 103.909 70.5879C104.534 70.546 105.161 70.4971 105.789 70.4428C106.207 70.4064 106.627 70.3668 107.045 70.3257C107.674 70.2629 108.303 70.1938 108.934 70.1186C109.143 70.0938 109.354 70.0674 109.565 70.0418C111.036 69.8572 112.512 69.64 113.989 69.3887C118.207 68.6728 122.438 67.6901 126.636 66.4491C127.057 66.325 127.475 66.1986 127.894 66.069C128.942 65.7464 129.988 65.4074 131.03 65.0522C131.238 64.9816 131.447 64.9095 131.655 64.8373C132.071 64.6931 132.488 64.5465 132.902 64.3968C135.393 63.5002 137.865 62.5136 140.306 61.4378L140.295 61.4106H140.296ZM95.542 33.6943C95.3939 35.5938 95.0448 37.4189 94.5104 39.1524C94.5104 39.1532 94.5096 39.1532 94.5096 39.154C92.5698 45.4203 88.1689 50.5092 81.8405 53.7412C81.4884 53.9212 81.1316 54.0949 80.7678 54.2624C80.7058 54.2919 80.6437 54.3198 80.5817 54.3477C80.5794 54.3493 80.5755 54.3516 80.5724 54.3524C80.3536 54.4517 80.1334 54.5486 79.9115 54.6433C79.8937 54.6502 79.8759 54.6588 79.8572 54.6665H79.8565C77.02 53.7327 74.4659 52.5584 72.2227 51.1537C68.8379 49.0347 66.1969 46.4014 64.3726 43.3261C64.2974 43.1996 64.2229 43.0709 64.1515 42.9421C63.7009 42.1456 63.3022 41.3149 62.954 40.4516C62.8229 40.1274 62.6996 39.7985 62.5832 39.4665C61.7704 37.1365 61.3081 34.5855 61.2057 31.8413C61.0296 27.1178 62.1527 23.6809 63.7862 21.1857C63.8785 21.0454 63.9716 20.9073 64.0678 20.7731C64.1624 20.6382 64.2594 20.5063 64.3579 20.3775C64.4075 20.3132 64.4564 20.2496 64.506 20.186C64.6053 20.0603 64.7061 19.937 64.8077 19.816C64.9101 19.6958 65.0125 19.5786 65.1164 19.4631C65.2204 19.3483 65.3251 19.2358 65.4306 19.1265C66.4885 18.0313 67.631 17.2006 68.7169 16.5754C71.4572 14.9962 74.7063 14.2136 77.9748 14.2136C81.5823 14.2136 85.2137 15.1676 88.21 17.0586C88.8057 17.4348 89.4161 17.8715 90.018 18.3803C90.1273 18.4726 90.2367 18.5672 90.3445 18.6642H90.3453C90.426 18.7371 90.5074 18.81 90.5881 18.886C90.5881 18.8868 90.5888 18.8868 90.5888 18.8868C90.6695 18.962 90.7502 19.038 90.8308 19.1171C90.8836 19.1683 90.9371 19.2211 90.9914 19.2754C91.0977 19.3816 91.2039 19.491 91.3094 19.6035C91.4141 19.7152 91.5181 19.8292 91.622 19.9463C91.622 19.9463 91.622 19.9466 91.622 19.9471C91.7259 20.0634 91.8283 20.1829 91.9291 20.3046C91.9803 20.3667 92.03 20.428 92.0804 20.4908C92.2301 20.6777 92.3774 20.8708 92.5225 21.0702C92.5954 21.1702 92.6668 21.2711 92.7366 21.3734C92.7366 21.3742 92.7373 21.3742 92.7373 21.3742C92.8079 21.4766 92.8777 21.5813 92.9468 21.6868C93.0383 21.828 93.1283 21.9722 93.2182 22.1196C93.2632 22.1941 93.3066 22.2685 93.3501 22.3438C93.4369 22.4935 93.5223 22.6455 93.606 22.8014C93.8558 23.2691 94.09 23.7639 94.3018 24.2859C94.3724 24.4597 94.4406 24.6373 94.5065 24.8172C94.5725 24.998 94.6361 25.1818 94.6973 25.3687C94.7586 25.5549 94.8176 25.7449 94.8726 25.938C95.4939 28.0912 95.7801 30.6515 95.5428 33.6928L95.542 33.6943ZM90.0164 18.3803C90.1258 18.4726 90.2352 18.5672 90.343 18.6642C90.2344 18.5665 90.125 18.4726 90.0164 18.3803ZM91.3078 19.6035C91.4126 19.7152 91.5165 19.8292 91.6204 19.9463C91.5173 19.8292 91.4133 19.7152 91.3078 19.6035ZM93.3493 22.3438C93.4362 22.4935 93.5215 22.6455 93.6053 22.8014C93.5223 22.6455 93.437 22.4935 93.3493 22.3438ZM94.301 24.2859C94.3716 24.4597 94.4398 24.6373 94.5058 24.8172C94.4406 24.6373 94.3716 24.4597 94.301 24.2859ZM94.6966 25.3687C94.7579 25.5549 94.8168 25.7449 94.8719 25.938C94.816 25.7449 94.7579 25.5549 94.6966 25.3687Z" fill="#3D3B3B"/>
<path d="M23.2473 38.1091L23.2379 38.1192L23.2317 38.1269L21.8651 39.6604L21.6603 39.8907L16.3325 45.8724L15.4212 46.8946L14.167 48.3024L11.2436 45.6947L10.5254 45.0533L10.2198 44.7803L9.54888 44.1823L8.33425 43.0995L8.2784 43.0506L7.79131 42.6163L7.77192 42.5984L1.76235 37.242C-0.11312 35.5705 -0.276778 32.6952 1.39393 30.8197L4.42198 27.4202C6.09423 25.5439 8.97104 25.3787 10.8481 27.0502L12.8531 28.838L17.0066 32.5424L17.1733 32.6921L23.248 38.1091H23.2473Z" fill="#F0F0F0"/>
<path d="M25.2221 39.9172C25.2166 39.9219 25.212 39.9265 25.2058 39.9319C22.2126 42.5737 19.7283 45.2303 18.0537 47.3252C17.7582 47.6937 17.4883 48.0458 17.2455 48.3762C16.7825 49.0037 16.4171 49.5567 16.1588 50.0136C16.1441 50.0392 16.1309 50.064 16.1162 50.0888L11.3523 45.8128L11.2344 45.708L10.6845 45.2132L10.5177 45.0643L10.2129 44.7905L9.54429 44.1901L8.27614 43.0507H8.27769L7.76965 42.5986C7.76965 42.5986 7.76965 42.5978 7.77043 42.5978C8.06594 42.1386 8.43282 41.6166 8.85321 41.0558C11.1002 38.0572 14.8449 33.9658 17.0051 32.5417L17.1718 32.6914L21.973 36.9908L22.8525 37.7726L22.951 37.861L23.2372 38.1185L23.5599 38.4102V38.4117L23.7763 38.6064L24.0074 38.8158L24.1525 38.9469L24.7086 39.451L25.2213 39.9156L25.2221 39.9172Z" fill="#C4C4C4"/>
<g opacity="0.72">
<path opacity="0.68" d="M16.1837 47.2314C15.4709 46.531 20.998 40.5136 24.0082 38.8181L24.7094 39.4534C21.3175 41.5817 16.6444 47.6828 16.1837 47.2321V47.2314Z" fill="#43454F"/>
<path opacity="0.68" d="M15.1435 46.12C14.4416 45.4289 19.8214 39.552 22.8533 37.7734L22.9526 37.8619L23.5607 38.411C20.175 40.6006 15.5996 46.5698 15.1435 46.12Z" fill="#43454F"/>
<path opacity="0.68" d="M12.314 44.2428C11.9153 44.7376 11.5516 45.2255 11.2436 45.6948C11.2405 45.6994 11.2382 45.7033 11.2351 45.708L10.6852 45.2131L10.5184 45.0642C10.5184 45.0642 10.5231 45.0564 10.5246 45.0525C10.8023 44.5887 11.1513 44.0815 11.5461 43.5579C13.8451 40.5112 17.7147 36.8658 18.3034 37.4165C18.6881 37.7756 14.8232 41.1279 12.314 44.2412V44.2428Z" fill="#43454F"/>
<path opacity="0.68" d="M11.1863 43.2353C10.7954 43.7736 10.4618 44.2948 10.2191 44.7804C10.2175 44.7842 10.2152 44.7866 10.2136 44.7904L9.54504 44.1901C9.54504 44.1901 9.5466 44.1847 9.54892 44.1816C9.73352 43.7177 10.0492 43.1639 10.4549 42.5644C12.5917 39.3998 17.1889 34.9524 17.8326 35.5543C18.253 35.949 13.6016 39.9117 11.1863 43.2345V43.2353Z" fill="#43454F"/>
</g>
<path d="M154.681 48.4585C154.198 48.951 153.479 49.5994 152.556 50.4379L149.801 52.9028L140.295 61.4107L140.234 61.4642C138.56 61.0516 138.625 60.3442 138.75 59.664C138.815 59.3149 138.895 58.9729 138.764 58.6805C138.376 57.8172 137.45 58.2112 136.511 57.4294C135.33 56.4443 137.552 56.3094 136.919 54.8962C136.286 53.4845 134.504 54.8303 133.822 53.5823C133.288 52.605 134.621 51.5982 134.23 49.3101C134.23 49.3055 134.23 49.3016 134.229 49.2969L134.672 49.0728L134.806 49.0588L134.85 49.0542L147.713 47.6999L151.165 47.3369C155.379 46.8933 156.207 46.9018 154.681 48.4592L154.681 48.4585Z" fill="#EFAEA6"/>
<path d="M157.095 47.1306C157.1 47.3812 157.018 47.6255 156.822 47.8031L149.898 52.868C149.87 52.8936 149.836 52.9044 149.801 52.9029C149.72 52.8998 149.634 52.8269 149.618 52.7206C149.552 52.3041 149.48 51.8837 149.404 51.5052C149.32 51.0933 149.233 50.7311 149.144 50.4752C148.79 49.4537 147.575 49.5723 147.476 47.9016C147.47 47.8078 147.524 47.7302 147.604 47.7217L147.715 47.6992L156.023 46.0192C156.621 45.9563 157.083 46.5598 157.095 47.1299V47.1306Z" fill="#3B3B4C"/>
<path opacity="0.09" d="M80.3366 68.8699C76.2987 70.083 72.0219 70.788 67.5791 70.9687C66.8189 70.999 66.0565 71.0145 65.2902 71.0145C60.2781 71.0145 55.1574 70.3529 50.0367 69.0421C43.8991 67.4714 37.819 64.9793 31.9645 61.6348C26.4607 58.4896 21.153 54.5867 16.1588 50.0136C16.144 50.0392 16.1308 50.064 16.1161 50.0888L11.3522 45.8128L11.2343 45.7081L10.6844 45.2132L10.5176 45.0643L10.2128 44.7905L9.5442 44.1902L8.27604 43.0508H8.27759L7.76956 42.5986C7.76956 42.5986 7.76956 42.5978 7.77033 42.5978L1.76076 37.2413C-0.114707 35.5698 -0.278365 32.6946 1.39234 30.8191C0.982032 32.4115 3.97363 36.3485 8.85311 41.0566C9.3658 41.5522 9.90021 42.0556 10.4532 42.5652C10.6937 42.787 10.938 43.0104 11.1847 43.2346C11.3041 43.3416 11.4235 43.4502 11.5445 43.558C11.7966 43.7853 12.0526 44.0133 12.3124 44.2421C13.3029 45.1147 14.3415 46.002 15.4196 46.894C15.4909 46.9522 15.5623 47.0119 15.6352 47.0708C16.1626 47.5052 16.6994 47.9403 17.2446 48.3754C24.859 54.4502 34.1099 60.5202 42.4246 63.9035C61.5679 71.6916 75.3927 67.3124 75.3927 67.3124C75.3927 67.3124 80.7035 68.9575 80.3358 68.8691L80.3366 68.8699Z" fill="#1F1F39"/>
<path opacity="0.2" d="M99.7009 56.86C99.6707 56.8639 99.6521 56.8654 99.6451 56.8662C97.7246 57.0074 93.0592 57.949 80.7655 54.2624C80.7609 54.2616 80.757 54.2593 80.7523 54.2585C80.6833 54.2942 80.6275 54.3221 80.5802 54.347C80.19 54.5471 80.4638 54.4082 79.8557 54.6658C85.1835 56.3334 91.1892 58.2422 99.3589 57.2354L99.7002 56.8592L99.7009 56.86Z" fill="#1F1F39"/>
<path opacity="0.09" d="M80.3366 68.8699C79.4648 69.1321 79.2275 69.1949 78.334 69.409C74.8622 68.8148 61.9232 62.246 57.0259 56.7119C57.2857 56.7592 57.5448 56.8042 57.8038 56.8461C63.0075 61.4324 72.8285 66.187 75.582 67.3124C78.3355 68.4386 80.5367 68.9164 80.3374 68.8691L80.3366 68.8699Z" fill="#1F1F39"/>
<path opacity="0.09" d="M157.095 47.1304C157.1 47.3809 157.018 47.6253 156.822 47.8029L149.898 52.8677C149.87 52.8933 149.836 52.9042 149.801 52.9026L140.295 61.4105L140.307 61.4369C127.288 67.1727 113.409 70.3977 100.17 70.7646C93.4796 70.9507 87.1877 70.3923 81.4465 69.1241C81.2751 69.0869 81.1052 69.0489 80.9361 69.0093C80.7655 68.9706 80.5972 68.931 80.4281 68.8907C114.93 71.8171 138.327 59.9934 138.327 59.9934C138.327 59.9934 138.481 59.8748 138.751 59.663C138.907 59.5436 139.101 59.3923 139.329 59.2163C141.676 57.3982 147.476 52.9135 149.404 51.5042C149.672 51.3087 149.865 51.1722 149.964 51.1102C150.514 50.7658 152.766 49.5147 154.682 48.4575C155.668 47.9138 156.565 47.4213 157.096 47.1296L157.095 47.1304Z" fill="#1F1F39"/>
<path opacity="0.07" d="M95.5413 33.6934C96.2789 24.2354 91.9602 19.4265 88.2077 17.0577C85.2122 15.166 81.58 14.2127 77.9733 14.2127C74.7048 14.2127 71.4557 14.9953 68.7146 16.5745C65.1064 18.6524 60.8738 22.9874 61.205 31.8404C61.3601 36.0226 62.3506 39.755 64.15 42.9412C58.6524 36.1211 54.4655 12.8554 77.5211 12.1053C95.3497 11.5259 100.647 27.0564 94.5097 39.1531C95.0457 37.4188 95.3947 35.5937 95.5428 33.6926L95.5413 33.6934Z" fill="#1F1F39"/>
<path d="M92.12 23.5832C92.1025 30.1403 88.7584 34.6723 86.1405 37.8677C85.1834 39.0382 84.3228 40.0291 83.7606 40.8744C83.4713 41.3063 83.259 41.7012 83.1523 42.0633C83.1061 42.2141 83.0805 42.3598 83.0743 42.4982C83.0559 42.884 82.8958 43.2225 82.6332 43.5107C82.3132 43.8616 81.8413 44.1385 81.2863 44.3437C81.2679 44.3498 81.2484 44.356 81.2289 44.3642C80.1836 44.7376 78.8541 44.8628 77.6827 44.7356H77.6786C77.5339 44.7202 77.3944 44.7017 77.259 44.6781C76.7276 44.5909 76.2434 44.4473 75.8536 44.2473C75.2617 43.9446 74.8853 43.5159 74.8853 42.9588C74.8853 42.9383 74.8853 42.9168 74.8853 42.8952C74.9181 42.2664 74.718 41.5914 74.359 40.8569C72.4746 37.005 66.2048 31.5784 66.2028 23.3247C66.2028 21.4598 66.4931 19.7426 67.0326 18.1998C67.128 17.9269 67.2316 17.6592 67.3414 17.3976C69.5008 12.2839 74.5129 9.2885 80.5119 9.46596C80.5765 9.46596 80.6391 9.46699 80.7016 9.47007C88.8384 9.79731 92.1364 17.3022 92.12 23.5832Z" fill="#F2E040"/>
<path opacity="0.75" fill-rule="evenodd" clip-rule="evenodd" d="M80.3176 28.7156C80.6766 29.0467 80.9018 29.5444 80.928 30.1762C80.928 30.1762 80.928 30.1761 80.928 30.1762C80.9617 30.9843 80.6878 31.6488 80.2083 32.1638C80.0412 32.3433 79.8509 32.5028 79.6427 32.6439C79.3361 32.5669 79.0683 32.4537 78.8416 32.3123C79.1858 32.1432 79.4779 31.9366 79.7037 31.6941C80.0607 31.3107 80.2651 30.8246 80.2393 30.2048C80.2193 29.7246 80.0539 29.4101 79.8502 29.2222C79.6446 29.0326 79.3742 28.9471 79.096 28.9697C78.5544 29.0139 77.9382 29.4857 77.8999 30.5069C77.874 31.2007 78.1383 31.7673 78.6248 32.1587C78.6923 32.2129 78.7646 32.2642 78.8416 32.3123M78.0821 32.602C77.4906 32.073 77.1793 31.3321 77.211 30.4813C77.2609 29.1503 78.1127 28.3583 79.04 28.2827C79.4963 28.2455 79.9606 28.3861 80.3176 28.7156M78.0821 32.602C77.5481 32.7569 76.957 32.8413 76.356 32.8609C76.2667 32.4835 76.1723 32.1223 76.0725 31.782C75.834 30.9688 75.5594 30.2565 75.2399 29.7234C74.9282 29.2034 74.5287 28.7793 74.0104 28.685C73.2105 28.5394 72.5801 28.6786 72.1615 29.0715C71.7487 29.4589 71.6165 30.0235 71.6566 30.57C71.697 31.1195 71.9121 31.696 72.2551 32.1761C72.5984 32.6566 73.0859 33.0618 73.6857 33.2331C74.3374 33.4193 75.0671 33.5288 75.8052 33.5507C76.0789 34.8191 76.3016 36.2505 76.4811 37.6817C76.7397 39.743 76.9071 41.7893 77.0099 43.3214C77.0613 44.0871 77.0964 44.7237 77.1187 45.1687C77.1299 45.3912 77.1378 45.5657 77.143 45.6844C77.1456 45.7438 77.1474 45.7892 77.1487 45.8197L77.15 45.8542L77.1505 45.8654C77.1505 45.8655 77.1505 45.8655 77.4949 45.8526L77.1505 45.8655C77.1576 46.0557 77.3176 46.2042 77.5078 46.197C77.698 46.1899 77.8465 46.0299 77.8393 45.8397L77.4949 45.8526C77.8393 45.8397 77.8393 45.8396 77.8393 45.8395L77.8389 45.8274L77.8375 45.792C77.8362 45.7608 77.8343 45.7147 77.8317 45.6546C77.8265 45.5344 77.8185 45.3583 77.8072 45.1342C77.7847 44.6859 77.7494 44.0454 77.6977 43.2752C77.5944 41.7355 77.426 39.6749 77.1651 37.5959C76.9912 36.2094 76.7754 34.8081 76.5088 33.5447C77.1495 33.5144 77.7799 33.4153 78.3543 33.2402C78.5104 33.1926 78.6635 33.1391 78.8123 33.0792C79.388 33.3485 80.0891 33.4757 80.8759 33.443M81.8861 32.6602C81.5612 32.707 81.2143 32.739 80.8473 32.7543C80.397 32.773 79.9943 32.7322 79.6427 32.6439M75.6455 32.8544C75.029 32.8233 74.4218 32.7265 73.8751 32.5703L73.875 32.5702C73.4579 32.4512 73.0907 32.1598 72.816 31.7753C72.5409 31.3904 72.3745 30.9336 72.3441 30.5195C72.3135 30.1024 72.4212 29.7731 72.6332 29.5742C72.8392 29.3808 73.2183 29.2415 73.8869 29.3632C74.1028 29.4025 74.3649 29.6045 74.6486 30.0779C74.9245 30.5381 75.1794 31.1865 75.411 31.976C75.4927 32.2545 75.5708 32.5482 75.6455 32.8544Z" fill="white"/>
<g opacity="0.65">
<path d="M73.3128 14.2206C73.439 14.1539 73.5939 14.0585 73.7631 13.9528C73.9324 13.8472 74.1181 13.7302 74.3222 13.6133C74.5264 13.4963 74.749 13.3784 74.9972 13.2737C75.2444 13.1691 75.5173 13.0768 75.8138 13.0152L75.823 13.0132C76.4723 12.8798 77.1104 13.285 77.2468 13.918C77.3833 14.5509 76.9678 15.1715 76.3185 15.3049C76.3144 15.3049 76.3031 15.3079 76.299 15.309C76.0876 15.349 75.8271 15.4567 75.5265 15.6259C75.3757 15.7101 75.2157 15.8085 75.0393 15.9162C74.8618 16.024 74.6689 16.1429 74.434 16.265C73.8544 16.5666 73.1333 16.3522 72.8245 15.788C72.5168 15.2259 72.7322 14.5293 73.3046 14.2247L73.3138 14.2195L73.3128 14.2206Z" fill="white"/>
<path d="M69.0884 23.976C69.0094 23.3923 68.9633 22.7953 68.9663 22.1901C68.9684 21.5849 69.0217 20.9714 69.1346 20.3652C69.2464 19.7589 69.4197 19.1619 69.6434 18.5905C69.867 18.0191 70.1409 17.4744 70.4435 16.9595C70.7636 16.4148 71.4755 16.226 72.0335 16.5378C72.5895 16.8487 72.7834 17.539 72.4674 18.0817C71.9668 18.9434 71.614 19.8358 71.4509 20.7673C71.2837 21.6977 71.3031 22.6712 71.4447 23.6611V23.6642C71.536 24.2981 71.0816 24.8839 70.4312 24.9721C69.7808 25.0603 69.1797 24.6182 69.0884 23.9842V23.975V23.976Z" fill="white"/>
</g>
<path opacity="0.14" d="M86.1404 37.8678C88.7583 34.6724 92.1025 30.1404 92.1199 23.5833C92.1363 17.3023 88.8373 9.79741 80.7016 9.47017C80.64 9.46709 80.5764 9.46606 80.5128 9.46606C92.0614 22.0887 90.217 26.8157 86.1415 37.8689L86.1404 37.8678Z" fill="#EA4F26"/>
<path d="M83.974 43.2359C83.971 43.3857 83.9658 43.5386 83.9607 43.6935C83.9412 44.1889 83.9074 44.6998 83.8715 45.1624C83.8591 45.3204 83.8458 45.4733 83.8335 45.6179C83.772 46.3308 83.7135 46.8427 83.7135 46.8427C83.7135 46.9309 83.7104 47.0171 83.7043 47.1033C83.695 47.2561 83.6755 47.4079 83.6489 47.5557C83.6129 47.7577 83.5617 47.9547 83.496 48.1465C83.4201 48.3712 83.3237 48.5876 83.2108 48.7938C82.7584 49.6155 82.0311 50.2771 81.1459 50.6639C81.0576 50.7029 80.9674 50.7388 80.8771 50.7716C80.397 50.945 79.8769 51.0404 79.3333 51.0414H79.0183C78.4695 51.0414 77.9443 50.945 77.4601 50.7685C77.1975 50.6731 76.9472 50.5531 76.7113 50.4126C75.7357 49.8309 75.0176 48.8902 74.7571 47.7824C74.7202 47.6275 74.6925 47.4685 74.675 47.3074C74.6586 47.1566 74.6494 47.0038 74.6494 46.8489C74.6494 46.8489 74.6463 46.7955 74.6412 46.6991C74.633 46.5504 74.6207 46.3001 74.6073 45.9851C74.5919 45.6312 74.5745 45.1963 74.5591 44.7347C74.5519 44.4905 74.5447 44.2392 74.5386 43.9889C74.5283 43.5478 74.5232 43.1087 74.5263 42.7169C74.5283 42.4666 74.5335 42.2348 74.5437 42.0347C74.5632 41.647 74.5981 41.3731 74.6576 41.2982C74.9479 40.9289 83.1401 40.9094 83.7217 41.2931C83.9412 41.4377 83.9935 42.2635 83.974 43.237V43.2359Z" fill="#62626B"/>
<path opacity="0.6" d="M83.9116 44.6925C82.5503 44.3386 75.8394 43.7056 74.5797 43.5189C74.592 43.361 74.6054 43.2081 74.6177 43.0635L83.891 43.9467C83.8992 44.1908 83.9054 44.4422 83.9116 44.6925Z" fill="#1F1F3B"/>
<path opacity="0.6" d="M83.6972 46.8262C81.901 46.4631 75.7543 45.8804 74.6013 45.707C74.6116 45.5542 74.63 45.4024 74.6567 45.2546L83.6634 46.1122C83.6705 46.261 83.6829 46.5113 83.6972 46.8262Z" fill="#1F1F3B"/>
<path d="M74.0861 42.6155L74.0717 42.7334C74.0328 43.0586 74.2831 43.353 74.6318 43.391L83.737 44.3799C84.0858 44.4178 84.3997 44.185 84.4386 43.8598L84.453 43.7418C84.492 43.4166 84.2417 43.1222 83.8929 43.0842L74.7878 42.0954C74.439 42.0574 74.1251 42.2903 74.0861 42.6155Z" fill="#808089"/>
<path d="M74.076 44.8196L74.0616 44.9376C74.0227 45.2627 74.2709 45.5571 74.6156 45.5941L83.6294 46.5737C83.9741 46.6117 84.2859 46.3778 84.3249 46.0526L84.3393 45.9346C84.3783 45.6095 84.13 45.3151 83.7854 45.2781L74.7715 44.2985C74.4268 44.2605 74.115 44.4944 74.076 44.8196Z" fill="#808089"/>
<path opacity="0.6" d="M83.495 48.1465C83.4191 48.3711 83.3227 48.5876 83.2098 48.7938C81.1438 48.4501 76.2015 47.9701 74.7571 47.7823C74.7202 47.6274 74.6925 47.4684 74.675 47.3074L83.496 48.1475L83.495 48.1465Z" fill="#1F1F3B"/>
<path d="M74.0144 46.8652L74 46.9832C73.961 47.3084 74.2093 47.6028 74.5539 47.6397L83.5678 48.6194C83.9125 48.6573 84.2243 48.4235 84.2633 48.0983L84.2776 47.9803C84.3166 47.6551 84.0684 47.3607 83.7237 47.3238L74.7099 46.3441C74.3652 46.3062 74.0533 46.5401 74.0144 46.8652Z" fill="#808089"/>
<path fill-rule="evenodd" clip-rule="evenodd" d="M117.693 31.6101C117.716 31.2682 118.012 31.0097 118.354 31.0327L132.952 32.0154C133.294 32.0384 133.552 32.3343 133.529 32.6762C133.506 33.0181 133.211 33.2766 132.869 33.2536L118.271 32.2709C117.929 32.2479 117.67 31.952 117.693 31.6101Z" fill="white" stroke="white" stroke-linecap="round" stroke-linejoin="round"/>
<path fill-rule="evenodd" clip-rule="evenodd" d="M114.093 31.3674C114.116 31.0255 114.412 30.767 114.754 30.79L115.686 30.8528C116.028 30.8759 116.287 31.1717 116.264 31.5136C116.241 31.8556 115.945 32.1141 115.603 32.091L114.671 32.0282C114.329 32.0052 114.07 31.7093 114.093 31.3674Z" fill="white" stroke="white" stroke-linecap="round" stroke-linejoin="round"/>
<path fill-rule="evenodd" clip-rule="evenodd" d="M129.365 10.1237C129.478 10.4474 129.307 10.8011 128.983 10.9136L115.164 15.717C114.84 15.8295 114.486 15.6583 114.374 15.3347C114.261 15.011 114.432 14.6573 114.756 14.5448L128.575 9.74135C128.899 9.62884 129.253 9.80004 129.365 10.1237Z" fill="white" stroke="white" stroke-linecap="round" stroke-linejoin="round"/>
<path fill-rule="evenodd" clip-rule="evenodd" d="M113.02 15.8049C113.133 16.1286 112.962 16.4823 112.638 16.5949L111.756 16.902C111.432 17.0147 111.078 16.8436 110.966 16.5199C110.853 16.1963 111.024 15.8426 111.348 15.73L112.23 15.4228C112.554 15.3102 112.908 15.4813 113.02 15.8049Z" fill="white" stroke="white" stroke-linecap="round" stroke-linejoin="round"/>
<path fill-rule="evenodd" clip-rule="evenodd" d="M114.708 -8.33368C114.939 -8.08019 114.92 -7.68775 114.667 -7.45713L103.845 2.3887C103.591 2.61932 103.199 2.60077 102.968 2.34729C102.737 2.0938 102.756 1.70135 103.009 1.47074L113.832 -8.37509C114.085 -8.60571 114.478 -8.58717 114.708 -8.33368Z" fill="white" stroke="white" stroke-linecap="round" stroke-linejoin="round"/>
<path fill-rule="evenodd" clip-rule="evenodd" d="M101.908 3.31147C102.139 3.5649 102.12 3.95735 101.867 4.18803L101.176 4.81706C100.922 5.04774 100.53 5.0293 100.299 4.77587C100.069 4.52244 100.087 4.12999 100.34 3.89931L101.031 3.27027C101.285 3.0396 101.677 3.05804 101.908 3.31147Z" fill="white" stroke="white" stroke-linecap="round" stroke-linejoin="round"/>
<path fill-rule="evenodd" clip-rule="evenodd" d="M38.6462 31.859C38.657 32.2015 38.3881 32.488 38.0456 32.4988L25.8969 32.8819C25.5544 32.8927 25.268 32.6238 25.2572 32.2813C25.2463 31.9388 25.5153 31.6523 25.8578 31.6415L38.0065 31.2584C38.349 31.2476 38.6354 31.5165 38.6462 31.859Z" fill="white" stroke="white" stroke-linecap="round" stroke-linejoin="round"/>
<path fill-rule="evenodd" clip-rule="evenodd" d="M42.2521 31.7413C42.2632 32.0838 41.9945 32.3705 41.652 32.3816L40.7181 32.4118C40.3756 32.4229 40.0889 32.1542 40.0778 31.8117C40.0668 31.4692 40.3354 31.1825 40.6779 31.1715L41.6118 31.1412C41.9543 31.1301 42.241 31.3988 42.2521 31.7413Z" fill="white" stroke="white" stroke-linecap="round" stroke-linejoin="round"/>
<path fill-rule="evenodd" clip-rule="evenodd" d="M26.6592 9.99297C26.7964 9.67897 27.1622 9.53569 27.4763 9.67295L40.8814 15.5328C41.1954 15.6701 41.3387 16.0359 41.2015 16.3499C41.0642 16.6639 40.6984 16.8072 40.3844 16.6699L26.9792 10.8101C26.6652 10.6728 26.5219 10.307 26.6592 9.99297Z" fill="white" stroke="white" stroke-linecap="round" stroke-linejoin="round"/>
<path fill-rule="evenodd" clip-rule="evenodd" d="M42.5146 16.9237C42.6519 16.6097 43.0178 16.4666 43.3318 16.6039L44.1881 16.9786C44.502 17.1159 44.6452 17.4818 44.5078 17.7958C44.3705 18.1097 44.0046 18.2529 43.6906 18.1155L42.8344 17.7409C42.5204 17.6035 42.3772 17.2377 42.5146 16.9237Z" fill="white" stroke="white" stroke-linecap="round" stroke-linejoin="round"/>
<path fill-rule="evenodd" clip-rule="evenodd" d="M39.291 -8.86915C39.5274 -9.1172 39.9202 -9.12661 40.1683 -8.89017L50.7587 1.20464C51.0068 1.44109 51.0162 1.83386 50.7797 2.08191C50.5433 2.32997 50.1505 2.33938 49.9024 2.10293L39.312 -7.99187C39.064 -8.22832 39.0545 -8.62109 39.291 -8.86915Z" fill="white" stroke="white" stroke-linecap="round" stroke-linejoin="round"/>
<path fill-rule="evenodd" clip-rule="evenodd" d="M51.8166 3.07085C52.053 2.82276 52.4458 2.81331 52.6938 3.04973L53.3702 3.69428C53.6183 3.9307 53.6277 4.32346 53.3913 4.57155C53.1549 4.81963 52.7621 4.82909 52.514 4.59267L51.8377 3.94812C51.5896 3.7117 51.5802 3.31893 51.8166 3.07085Z" fill="white" stroke="white" stroke-linecap="round" stroke-linejoin="round"/>
<path d="M60.16 10.9317C63.3641 10.4196 63.8222 8.9458 64.4168 4.37988C64.8317 8.71178 65.3624 10.3549 68.62 10.8487C65.7781 12.0843 64.7798 12.5325 64.2725 17.5399C63.5724 12.4686 62.9483 12.0204 60.16 10.9317Z" fill="white"/>
</g>
<defs>
<clipPath id="clip0_59_2551">
<rect width="157" height="73" fill="white"/>
</clipPath>
</defs>
</svg>
