<svg width="560" height="293" viewBox="0 0 560 293" fill="none" xmlns="http://www.w3.org/2000/svg">
    <path opacity=".1" d="M280 43.782h280v240.8a8.145 8.145 0 0 1-8.145 8.145H280V43.782z" fill="#020072"/>
    <path opacity=".1" d="M0 43.782h280v248.945H8.145A8.145 8.145 0 0 1 0 284.582v-240.8z" fill="#970707"/>
    <path opacity=".08" d="M373.673 18.327H560v208.727H373.673V18.327z" fill="#000001"/>
    <path fill="#69289C" d="M187.854 190.909h372.145v50.909H187.854z"/>
    <path d="M290.637 215.451c-1.329-.412-1.897-1.402-1.897-2.419v-.862h-1.228v.761c0 1.145-.568 2.272-1.979 2.74l.632.953a3.247 3.247 0 0 0 1.979-1.815c.358.715.972 1.283 1.861 1.577l.632-.935zm-1.091 3.766c-1.081 0-1.658-.22-1.658-.696 0-.468.577-.688 1.658-.688 1.073 0 1.65.22 1.65.688 0 .476-.577.696-1.65.696zm0-2.318c-1.759 0-2.859.605-2.859 1.622 0 1.026 1.1 1.631 2.859 1.631 1.751 0 2.85-.605 2.85-1.631 0-1.017-1.099-1.622-2.85-1.622zm2.759-3.226v-1.952h-1.21v4.985h1.21v-2.034h1.118v-.999h-1.118zm6.624 1.778c-1.328-.412-1.897-1.402-1.897-2.419v-.862h-1.228v.761c0 1.145-.568 2.272-1.979 2.74l.632.953a3.25 3.25 0 0 0 1.98-1.815c.357.715.971 1.283 1.86 1.577l.632-.935zm-1.09 3.766c-1.082 0-1.659-.22-1.659-.696 0-.468.577-.688 1.659-.688 1.072 0 1.649.22 1.649.688 0 .476-.577.696-1.649.696zm0-2.318c-1.76 0-2.859.605-2.859 1.622 0 1.026 1.099 1.631 2.859 1.631 1.75 0 2.85-.605 2.85-1.631 0-1.017-1.1-1.622-2.85-1.622zm2.758-3.226v-1.952h-1.21v4.985h1.21v-2.034h1.118v-.999h-1.118zm5.956 1.86c-.834.156-1.576.193-2.786.202v-.88h2.483v-2.666h-3.693v.971h2.502v.797h-2.492v2.749h.65c1.604 0 2.474-.027 3.455-.21l-.119-.963zm-3.024 2.722h4.563v1.906h1.21v-2.868h-5.773v.962zm4.563-6.534v1.155h-1.356v.971h1.356v.834h-1.356v.962h1.356v1.274h1.21v-5.205l-1.21.009zm12.264 5.895c-.606 0-1.03-.494-1.03-1.186 0-.675.424-1.168 1.03-1.168.597 0 1.03.493 1.03 1.168 0 .692-.433 1.186-1.03 1.186zm0-2.952c-.961 0-1.662.727-1.662 1.766 0 1.056.701 1.774 1.662 1.774.96 0 1.661-.718 1.661-1.774 0-1.039-.701-1.766-1.661-1.766zm.346-2.198h-.701v1.099h-1.575v.58h3.851v-.58h-1.575v-1.099zm3.626-.234v3.28h-.995v-3.098h-.666v7.209h.666v-3.531h.995v3.904h.684v-7.764h-.684zm7.624 7.088h-3.565v-.969h3.565v.969zm0-1.523h-3.565v-.943h-.701v3.038h4.967v-3.038h-.701v.943zm-2.501-2.181h-2.094v-1.229h2.094v1.229zm2.493-3.366v1.904h-1.792v-1.506h-.701v1.186h-2.094v-1.186h-.701v3.548h3.496v-1.462h1.792v1.756h.718v-4.24h-.718zm8.503 3.799c-1.142-.337-1.895-1.194-1.895-2.138v-.155h1.713v-.572h-1.713v-.986h-.71v.986h-1.722v.572h1.722v.155c0 1.039-.779 1.974-1.93 2.328l.355.563c.909-.312 1.61-.952 1.939-1.774.346.735 1.029 1.298 1.912 1.575l.329-.554zm-.986 3.393c-1.16 0-1.853-.312-1.853-.848 0-.537.693-.849 1.853-.849 1.142 0 1.843.312 1.843.849 0 .536-.701.848-1.843.848zm0-2.251c-1.602 0-2.562.502-2.562 1.403 0 .891.96 1.393 2.562 1.393 1.583 0 2.553-.502 2.553-1.393 0-.901-.97-1.403-2.553-1.403zm2.466-2.942v-2.008h-.71v4.76h.71v-2.164h1.151v-.588h-1.151zm2.388 1.09c1.307-.103 2.458-.502 2.934-1.22.476.718 1.618 1.117 2.917 1.22l.216-.536c-1.445-.095-2.614-.571-2.735-1.342h2.389v-.536h-2.432v-.736h-.71v.736h-2.44v.536h2.397c-.121.771-1.307 1.247-2.744 1.342l.208.536zm6.43.892v-.545h-7.001v.545h3.141v.718h-2.31v.528h4.578v.658h-4.552v1.783h5.487v-.537h-4.795v-.736h4.561v-1.696h-2.25v-.718h3.141zm3.83 1.592h4.475v2.19h.718v-2.77h-5.193v.58zm2.822-2.7c.052-.182.086-.372.086-.588 0-.208-.034-.399-.086-.58h1.653v1.168h-1.653zm-1.913.684c-.753 0-1.315-.528-1.315-1.272 0-.727.562-1.255 1.315-1.255.762 0 1.324.528 1.324 1.255 0 .744-.562 1.272-1.324 1.272zm3.566-3.557v1.133h-1.956c-.364-.441-.935-.709-1.61-.709-1.142 0-1.99.77-1.99 1.861 0 1.099.848 1.878 1.99 1.878.675 0 1.238-.269 1.601-.71h1.965v1.116h.718v-4.578l-.718.009zm6.724 3.401c-1.177.208-2.173.251-3.531.251v-1.073h2.778v-2.103h-3.497v.58h2.796v.978h-2.778v2.198h.614c1.437 0 2.458-.043 3.687-.251l-.069-.58zm-1.021 3.799c-1.16 0-1.861-.32-1.861-.865 0-.545.701-.866 1.861-.866 1.159 0 1.852.321 1.852.866 0 .545-.693.865-1.852.865zm0-2.284c-1.584 0-2.554.519-2.554 1.419s.97 1.411 2.554 1.411c1.575 0 2.553-.511 2.553-1.411s-.978-1.419-2.553-1.419zm3.626-3.125v-.588h-1.151v-1.203h-.71v4.69h.71v-1.263h1.151v-.589h-1.151v-1.047h1.151zm2.267 7.028.493-.234c-.753-1.229-1.108-2.692-1.108-4.163s.355-2.925 1.108-4.163l-.493-.225c-.797 1.29-1.273 2.692-1.273 4.388 0 1.705.476 3.099 1.273 4.397zm3.486-8.092h-.683v1.48c0 1.332-.641 2.726-1.705 3.349l.441.528c.77-.476 1.333-1.35 1.61-2.38.277.943.796 1.765 1.532 2.215l.407-.553c-1.022-.624-1.602-1.939-1.602-3.185v-1.454zm2.043 2.051h-1.281v.588h1.281v4.007h.666v-7.209h-.666v2.614zm1.575-2.787v7.763h.675v-7.763h-.675zm8.109 2.813h-4.57v-.779h4.319v-.537h-4.319v-.735h4.526v-.554h-5.236v3.159h5.28v-.554zm-5.418 3.176h4.621v1.783h.71v-2.346h-5.331v.563zm-.788-1.887v.572h7.028v-.572h-7.028zm10.391-.355c.311 0 .571-.25.571-.597 0-.363-.26-.614-.571-.614-.312 0-.572.251-.572.614 0 .347.26.597.572.597zm0 3.488c.311 0 .571-.242.571-.597 0-.363-.26-.614-.571-.614-.312 0-.572.251-.572.614 0 .355.26.597.572.597zm7.806-3.185h-1.93v-2.7h1.93v2.7zm-2.64 0h-1.186v.58h5.721v-.58h-1.186v-2.7h1.203v-.571h-5.755v.571h1.203v2.7zm-1.826 2.129v.589h7.036v-.589h-7.036zm11.7.044v-1.463h2.484v-.571h-4.777v-1.255h4.595v-2.363h-5.314v.58h4.622v1.212h-4.604v2.397h2.276v1.463h-3.159v.58h7.053v-.58h-3.176zm7.165-4.224v.58h1.169v2.112h.675v-4.518h-.675v1.826h-1.169zm.606 1.835c-.969-.415-1.514-1.333-1.514-2.19v-.432h1.332v-.58h-3.444v.58h1.428v.441a2.63 2.63 0 0 1-1.575 2.363l.372.545c.753-.338 1.29-.978 1.558-1.731a2.803 2.803 0 0 0 1.488 1.549l.355-.545zm-2.475 1.835h4.509v2.103h.71v-2.674h-5.219v.571zm4.535-5.66v4.742h.684v-4.742h-.684zm8.195 4.18h-4.613v-1.229h4.362v-.563h-4.362v-1.151h4.535v-.571h-5.253v4.085h5.331v-.571zm-6.24 1.99v.58h7.045v-.58h-7.045zm8.031 2.588c.779-.329 1.264-.978 1.264-1.809 0-.58-.251-.934-.667-.934-.32 0-.597.216-.597.554 0 .363.277.553.58.553.034 0 .06 0 .095-.008 0 .51-.32.934-.865 1.177l.19.467zm4.69-6.326c0-.771.563-1.324 1.325-1.324.752 0 1.315.553 1.315 1.324 0 .77-.563 1.324-1.315 1.324-.762 0-1.325-.554-1.325-1.324zm4.882-.649v1.289h-1.671c.069-.199.104-.415.104-.64 0-.234-.035-.45-.104-.649h1.671zm0 1.86v2.086h.718v-5.729h-.718v1.211h-1.974c-.363-.45-.917-.727-1.583-.727-1.143 0-2 .814-2 1.948 0 1.133.857 1.947 2 1.947.666 0 1.228-.277 1.592-.736h1.965zm-3.532 3.358v-1.86h-.718v2.44h5.184v-.58h-4.466zm12.713-3.167h-1.151c.217-1.117.217-1.939.217-2.666v-.675h-5.21v.571h4.517v.104c0 .727 0 1.549-.242 2.666h-5.15v.58h3.133v3.349h.719v-3.349h3.167v-.58zm2.336-1.324h3.964v1.428h-3.964v-1.428zm2.337 3.669v-1.67h2.32v-3.964h-.693v1.385h-3.964v-1.385h-.701v3.964h2.32v1.67h-3.15v.58h7.036v-.58h-3.168zm9.442-4.639c0 .935 0 2.025-.295 3.514l.71.078c.294-1.567.294-2.631.294-3.592v-.77h-5.444v.58h4.735v.19zm-2.034 4.544v-2.778h-.71v2.778h-2.726v.58h7.019v-.58h-3.583zm4.785 2.735c.805-1.298 1.281-2.692 1.281-4.397 0-1.696-.476-3.098-1.281-4.388l-.485.225c.745 1.238 1.108 2.692 1.108 4.163s-.363 2.934-1.108 4.163l.485.234z" fill="#fff"/>
    <path d="M313.848 212.371v7.642h.641v-7.642h-.641z" fill="#fff" fill-opacity=".5"/>
    <path fill="#E46E00" d="M373.673 140H560v50.909H373.673z"/>
    <path d="M408.181 161.454h-1.218v1.218c0 1.604-.642 3.244-2.071 3.904l.751.971c.944-.476 1.576-1.356 1.943-2.437.348 1.017.962 1.842 1.888 2.291l.714-.962c-1.393-.624-2.007-2.172-2.007-3.767v-1.218zm2.704-.66v2.648h-1.622v.971h1.622v4.848h1.209v-8.467h-1.209zm5.525.66h-1.219v1.227c0 1.567-.642 3.18-2.062 3.849l.724.981c.953-.468 1.585-1.356 1.952-2.429.348 1.008.944 1.824 1.823 2.273l.734-.953c-1.357-.669-1.952-2.199-1.952-3.721v-1.227zm4.728 2.593h-1.228v-3.244h-1.209v8.44h1.209v-4.188h1.228v-1.008zm4.764.577c-.833.156-1.576.193-2.785.202v-.88h2.483v-2.667h-3.693v.972h2.502v.797h-2.493v2.749h.651c1.604 0 2.474-.027 3.455-.211l-.12-.962zm-3.024 2.722h4.564v1.906h1.21v-2.868h-5.774v.962zm4.564-6.534v1.155h-1.356v.971h1.356v.834h-1.356v.962h1.356v1.274h1.21v-5.205l-1.21.009zm12.956 1.905h1.722v-.589h-4.197v.589h1.774v.986c0 1.316-.935 2.787-2.043 3.341l.416.562c.874-.45 1.627-1.436 1.982-2.57.355 1.039 1.082 1.947 1.947 2.38l.407-.571c-1.125-.528-2.008-1.904-2.008-3.142v-.986zm4.639 1.748h-1.281v-3.124h-.71v7.754h.71v-4.033h1.281v-.597zm1.038-2.294v.572h2.916c-.147 1.843-1.185 3.332-3.271 4.327l.381.58c2.579-1.264 3.609-3.237 3.609-5.479h-3.635zm5.201-.839v7.763h.71v-7.763h-.71zm4.67 3.773c1.203-.207 2.345-.857 2.821-1.774.467.917 1.618 1.567 2.821 1.774l.277-.562c-1.367-.199-2.709-1.091-2.709-2.112v-.043h2.432v-.571h-5.668v.571h2.449v.043c0 1.021-1.342 1.913-2.692 2.112l.269.562zm6.326.649h-7.01v.58h3.133v2.761h.71v-2.761h3.176l-.009-.58zm4.682 1.775v-1.991h2.362v-.571h-4.63v-2.432h4.552v-.58h-5.262v3.583h2.259v1.991h-3.159v.588h7.054v-.588h-3.176zm6.971-.615h4.475v2.19h.718v-2.77h-5.193v.58zm2.822-2.7c.052-.182.086-.372.086-.589 0-.207-.034-.398-.086-.58h1.653v1.169h-1.653zm-1.913.684c-.753 0-1.315-.528-1.315-1.273 0-.727.562-1.255 1.315-1.255.762 0 1.324.528 1.324 1.255 0 .745-.562 1.273-1.324 1.273zm3.566-3.557v1.133h-1.956c-.364-.441-.935-.709-1.61-.709-1.142 0-1.991.77-1.991 1.86 0 1.099.849 1.878 1.991 1.878.675 0 1.238-.268 1.601-.709h1.965v1.116h.718v-4.578l-.718.009zm6.724 3.401c-1.177.207-2.173.251-3.531.251v-1.073h2.778v-2.103h-3.497v.579h2.796v.978h-2.778v2.199h.614c1.437 0 2.458-.044 3.687-.251l-.069-.58zm-1.022 3.799c-1.159 0-1.86-.32-1.86-.865 0-.546.701-.866 1.86-.866 1.16 0 1.852.32 1.852.866 0 .545-.692.865-1.852.865zm0-2.285c-1.583 0-2.553.52-2.553 1.42 0 .9.97 1.41 2.553 1.41 1.575 0 2.553-.51 2.553-1.41 0-.9-.978-1.42-2.553-1.42zm3.627-3.124v-.588h-1.151v-1.203h-.71v4.69h.71v-1.263h1.151v-.589h-1.151v-1.047h1.151zm2.266 7.028.494-.234c-.753-1.229-1.108-2.692-1.108-4.163s.355-2.925 1.108-4.163l-.494-.225c-.796 1.29-1.272 2.692-1.272 4.388 0 1.705.476 3.098 1.272 4.397zm7.555-8.819h-.71v5.677h.71v-5.677zm-1.627 4.007c-1.143-.381-1.947-1.325-1.947-2.372v-.424h1.756v-.571h-4.258v.571h1.775v.424c0 1.108-.788 2.121-1.965 2.527l.372.554a3.256 3.256 0 0 0 1.965-1.912c.355.813 1.064 1.454 1.956 1.765l.346-.562zm-2.657 2.994v-1.861h-.71v2.441h5.228v-.58h-4.518zm9.614-.787v-1.463h2.484v-.571h-4.777v-1.255h4.596v-2.363h-5.314v.58h4.621v1.212h-4.604v2.397h2.276v1.463h-3.159v.579h7.054v-.579h-3.177zm4.154 2.544c.779-.329 1.263-.978 1.263-1.809 0-.58-.251-.935-.666-.935-.32 0-.597.217-.597.554 0 .364.277.554.58.554.034 0 .06 0 .095-.008 0 .51-.32.934-.865 1.177l.19.467zm10.264-8.758h-.71v5.677h.71v-5.677zm-1.627 4.007c-1.143-.381-1.948-1.325-1.948-2.372v-.424h1.757v-.571h-4.258v.571h1.774v.424c0 1.108-.787 2.121-1.964 2.527l.372.554a3.258 3.258 0 0 0 1.965-1.912c.354.813 1.064 1.454 1.956 1.765l.346-.562zm-2.657 2.994v-1.861h-.71v2.441h5.227v-.58h-4.517zm10.35-6.188h-1.939v-.865h-.709v.865h-1.93v.571h4.578v-.571zm-3.471 2.371c0-.51.468-.848 1.178-.848.709 0 1.185.338 1.185.848 0 .52-.476.857-1.185.857-.71 0-1.178-.337-1.178-.857zm3.038 0c0-.848-.753-1.402-1.86-1.402-1.1 0-1.853.554-1.853 1.402 0 .857.753 1.402 1.853 1.402 1.107 0 1.86-.545 1.86-1.402zm-3.185 2.666h4.328v1.913h.709v-2.493h-5.037v.58zm6.188-3.713h-1.151v-2.137h-.709v4.846h.709v-2.12h1.151v-.589zm1.056 6.682c.804-1.299 1.28-2.692 1.28-4.397 0-1.696-.476-3.098-1.28-4.388l-.485.225c.744 1.238 1.108 2.692 1.108 4.163s-.364 2.934-1.108 4.163l.485.234z" fill="#fff"/>
    <path d="M433.198 161.462v7.642h.641v-7.642h-.641z" fill="#fff" fill-opacity=".5"/>
    <path d="M0 241.818h560v42.764a8.145 8.145 0 0 1-8.145 8.145H8.145A8.145 8.145 0 0 1 0 284.582v-42.764z" fill="#72A100"/>
    <path d="M219.991 265.169h-3.345v-1.246h3.345v1.246zm1.191-2.19h-5.727v3.143h5.727v-3.143zm-4.573 5.489H215.4v2.446h5.91v-.962h-4.701v-1.484zm-2.098-1.677v.953h3.326v1.438h1.21v-1.438h3.106v-.953h-7.642zm10.327 1.448c-.459 0-.789-.367-.789-.999 0-.633.33-1.008.789-1.008.458 0 .788.375.788 1.008 0 .632-.33.999-.788.999zm0-3.015c-1.082 0-1.851.834-1.851 2.016 0 1.173.769 2.007 1.851 2.007 1.081 0 1.851-.834 1.851-2.007 0-1.182-.77-2.016-1.851-2.016zm.595-2.374h-1.191v1.045h-1.439v.962h4.032v-.962h-1.402v-1.045zm3.473-.238v3.446h-.641v-3.281h-1.127v7.927h1.127v-3.675h.641v4.023h1.146v-8.44h-1.146zm6.506 3.831c-.834.155-1.576.192-2.786.201v-.88h2.483v-2.666h-3.693v.971h2.502v.797h-2.493v2.749h.651c1.604 0 2.474-.027 3.455-.21l-.119-.962zm-3.024 2.721h4.563v1.906h1.21v-2.868h-5.773v.962zm4.563-6.534v1.155h-1.356v.971h1.356v.834h-1.356v.963h1.356v1.273h1.21v-5.205l-1.21.009zm16.344.101v8.238h.752v-8.238h-.752zm-3.583.633c-1.219 0-2.089 1.118-2.089 2.868 0 1.75.87 2.868 2.089 2.868 1.219 0 2.089-1.118 2.089-2.868 0-1.75-.87-2.868-2.089-2.868zm0 .678c.797 0 1.366.861 1.366 2.19 0 1.338-.569 2.199-1.366 2.199-.806 0-1.374-.861-1.374-2.199 0-1.329.568-2.19 1.374-2.19zm7.935 4.38c-.641 0-1.09-.522-1.09-1.256 0-.714.449-1.237 1.09-1.237.632 0 1.091.523 1.091 1.237 0 .734-.459 1.256-1.091 1.256zm0-3.125c-1.017 0-1.759.77-1.759 1.869 0 1.118.742 1.879 1.759 1.879s1.76-.761 1.76-1.879c0-1.099-.743-1.869-1.76-1.869zm.367-2.327h-.743v1.163h-1.667v.614h4.077v-.614h-1.667v-1.163zm3.839-.248v3.473h-1.054v-3.28h-.705v7.633h.705v-3.739h1.054v4.133h.724v-8.22h-.724zm6.396 3.885c-.953.156-1.741.193-3.262.193v-1.246h2.785v-2.328h-3.546v.614h2.813v1.136h-2.786v2.438h.587c1.64 0 2.474-.028 3.482-.202l-.073-.605zm-3.079 2.236h4.747v2.117h.76v-2.731h-5.507v.614zm4.747-6.103v1.21h-1.604v.614h1.604v1.1h-1.604v.604h1.604v1.522h.76v-5.05h-.76zm14.605 2.475h-4.903v-1.567h4.829v-.605h-5.58v2.776h5.654v-.604zm-5.764 3.72h4.948v2.062h.761v-2.667h-5.709v.605zm-.825-2.199v.605h7.441v-.605h-7.441zm13.14-.046c-1.191-.422-1.998-1.448-1.998-2.52v-.302h1.806v-.614h-4.39v.614h1.833v.311c0 1.164-.852 2.254-2.071 2.694l.394.587a3.485 3.485 0 0 0 2.071-2.044 3.388 3.388 0 0 0 1.979 1.86l.376-.586zm-2.685 1.851h3.876v1.695h-3.876v-1.695zm-.733 2.3h5.342v-2.896h-5.342v2.896zm4.582-8.11v2.062h-1.622v.623h1.622v2.126h.76v-4.811h-.76zm6.624 3.876c-.953.156-1.741.193-3.262.193v-1.246h2.786v-2.328h-3.546v.614h2.813v1.136h-2.786v2.438h.587c1.64 0 2.474-.028 3.482-.202l-.074-.605zm-3.079 2.236h4.747v2.117h.761v-2.731h-5.508v.614zm4.747-6.103v1.21h-1.603v.614h1.603v1.1h-1.603v.604h1.603v1.522h.761v-5.05h-.761zm3.986 9.338.522-.247c-.797-1.301-1.173-2.85-1.173-4.408 0-1.558.376-3.097 1.173-4.408l-.522-.238c-.843 1.365-1.347 2.85-1.347 4.646 0 1.805.504 3.281 1.347 4.655zm2.409-8.348h-.752v5.086h.523c.888 0 1.832-.046 2.941-.257l-.073-.65c-.981.192-1.851.247-2.639.256v-4.435zm5.095-.999v3.345h-1.164v-3.161h-.706v7.615h.706v-3.831h1.164v4.243h.724v-8.211h-.724zm8.787 0h-.752v6.03h.752v-6.03zm-1.796 4.096c-1.219-.449-2.053-1.567-2.053-2.804v-.834h-.751v.834c0 1.283-.825 2.475-2.062 2.951l.394.614a3.69 3.69 0 0 0 2.053-2.199 3.54 3.54 0 0 0 2.025 2.034l.394-.596zm-2.74 3.327v-1.952h-.752v2.566h5.535v-.614h-4.783zm6.285 1.86c.825-.348 1.338-1.035 1.338-1.915 0-.614-.265-.99-.705-.99-.339 0-.633.229-.633.587 0 .385.294.586.614.586.037 0 .065 0 .101-.009 0 .541-.339.99-.916 1.246l.201.495zm11.198-6.149c-1.494-.22-2.96-1.237-2.96-2.382v-.458h-.788v.458c0 1.173-1.448 2.162-2.941 2.382l.302.605c1.283-.22 2.52-.925 3.033-1.924.532.989 1.769 1.704 3.042 1.924l.312-.605zm.357 1.494h-7.422v.623h3.317v2.978h.751v-2.978h3.364l-.01-.623zm7.45-2.337h-4.83v-2.117h-.751v2.722h5.581v-.605zm-2.878 5.315c-1.292 0-2.052-.339-2.052-.907 0-.587.76-.916 2.052-.916s2.053.329 2.053.916c0 .568-.77.907-2.053.907zm0-2.41c-1.75 0-2.813.541-2.813 1.503 0 .953 1.063 1.494 2.813 1.494 1.751 0 2.814-.541 2.814-1.494 0-.962-1.063-1.503-2.814-1.503zm-3.702-1.347v.614h7.432v-.614h-7.432zm8.705 5.498c.852-1.374 1.356-2.85 1.356-4.655 0-1.796-.504-3.281-1.356-4.646l-.513.238c.788 1.311 1.173 2.85 1.173 4.408 0 1.558-.385 3.107-1.173 4.408l.513.247z" fill="#fff"/>
    <path d="M242.707 263.28v7.642h.641v-7.642h-.641z" fill="#fff" fill-opacity=".5"/>
    <circle cx="274.145" cy="267.782" r=".764" fill="#fff"/>
    <path d="M8.7 150.691C340.627 138.472 551.39 73.818 551.39 73.818" stroke="url(#efc0c0orna)" stroke-width="1.018" stroke-dasharray="3.05 3.05"/>
    <circle cx="6.109" cy="6.109" r="6.109" transform="matrix(-1 0 0 1 100.718 140)" fill="#72A100"/>
    <circle cx="6.109" cy="6.109" r="6.109" transform="scale(-1 1) rotate(1.416 -5063.092 -11182.98)" fill="#72A100"/>
    <circle cx="6.109" cy="6.109" r="6.109" transform="scale(-1 1) rotate(1.416 -4992.13 -11923.63)" fill="#69289C"/>
    <circle cx="6.109" cy="6.109" r="6.109" transform="scale(-1 1) rotate(-4.099 1060.843 6413.845)" fill="#72A100"/>
    <circle cx="6.109" cy="6.109" r="6.109" transform="scale(-1 1) rotate(-4.099 929.803 6931.313)" fill="#E46E00"/>
    <circle cx="6.109" cy="6.109" r="6.109" transform="scale(-1 1) rotate(-4.099 1005.988 6672.205)" fill="#69289C"/>
    <path d="M15.644 138.443v.871h1.124v1.784h1.076v-4.463h-1.076v1.808h-1.124zm.448 1.613c-1.14-.375-1.661-1.255-1.694-2.11h1.458v-.863h-4.032v.863H13.3c-.033.937-.579 1.89-1.768 2.305l.546.847a2.93 2.93 0 0 0 1.792-1.661c.325.659.888 1.189 1.702 1.458l.521-.839zm-.782 3.274c-.985 0-1.498-.203-1.498-.627s.513-.627 1.498-.627c.978 0 1.491.203 1.491.627s-.513.627-1.49.627zm0-2.069c-1.596 0-2.574.53-2.574 1.442 0 .912.978 1.442 2.574 1.442 1.589 0 2.566-.53 2.566-1.442 0-.912-.977-1.442-2.566-1.442zm3.698-2.729v2.314h.643c1.5 0 2.452-.033 3.495-.228l-.09-.864c-.937.171-1.76.22-2.981.228v-.651h2.346v-2.257H19v.864h2.362v.594h-2.354zm3.168 4.79c-.977 0-1.482-.187-1.482-.603 0-.415.505-.603 1.482-.603.978 0 1.483.188 1.483.603 0 .416-.505.603-1.483.603zm0-2.028c-1.563 0-2.541.521-2.541 1.425 0 .896.977 1.426 2.541 1.426s2.542-.53 2.542-1.426c0-.904-.978-1.425-2.542-1.425zm3.462-2.778v-.871h-.994v-1.01H23.57v4.52h1.076v-1.059h.993v-.871h-.994v-.709h.994zm6.985 2.704h1.075v-4.585h-1.075v1.205h-.88v.864h.88v.545h-.88v.856h.88v1.115zm-3.38-3.233h.7v2.036c-.236.008-.473.025-.7.025v-2.061zm2.419 1.906c-.22.024-.448.049-.684.065v-1.971h.594v-.856h-3.959v.856h.595v2.085h-.782l.114.872c1.181 0 2.794-.025 4.187-.261l-.065-.79zm-.505 3.437c-.986 0-1.491-.195-1.491-.586 0-.399.505-.587 1.49-.587.994 0 1.5.188 1.5.587 0 .391-.506.586-1.5.586zm0-1.987c-1.597 0-2.566.513-2.566 1.401 0 .879.97 1.401 2.566 1.401 1.604 0 2.574-.522 2.574-1.401 0-.888-.97-1.401-2.574-1.401zm3.778-3.943v.872h2.452c-.195 1.661-1.124 2.851-2.867 3.747l.603.822c2.492-1.262 3.348-3.193 3.348-5.441h-3.535zm6.582 2.094h-1.05v-2.868H39.39v7.494h1.075v-3.739h1.051v-.887z" fill="#970707"/>
    <circle cx="3.055" cy="3.055" r="3.055" transform="matrix(-1 0 0 1 12.264 147.636)" fill="#970707"/>
    <path d="M520.178 65.643v.872h1.124v1.784h1.075v-4.464h-1.075v1.808h-1.124zm.448 1.613c-1.14-.375-1.662-1.255-1.694-2.11h1.458v-.863h-4.032v.863h1.474c-.033.937-.578 1.89-1.768 2.305l.546.848a2.93 2.93 0 0 0 1.792-1.662c.326.66.888 1.189 1.703 1.458l.521-.84zm-.782 3.274c-.986 0-1.499-.203-1.499-.627 0-.423.513-.627 1.499-.627.977 0 1.491.204 1.491.627 0 .424-.514.627-1.491.627zm0-2.069c-1.597 0-2.574.53-2.574 1.442 0 .912.977 1.442 2.574 1.442 1.588 0 2.566-.53 2.566-1.442 0-.912-.978-1.442-2.566-1.442zm8.625-.228h1.076v-4.398h-1.076v1.368h-1.368v.872h1.368v2.158zm-.684-1.083c-1.189-.383-1.678-1.295-1.678-2.305v-.62h-1.091v.669c0 1.034-.53 2.052-1.809 2.46l.562.863a2.964 2.964 0 0 0 1.817-1.67 2.716 2.716 0 0 0 1.637 1.45l.562-.847zm-.774 3.364c-.985 0-1.498-.204-1.498-.627 0-.432.513-.636 1.498-.636.978 0 1.491.204 1.491.636 0 .423-.513.627-1.491.627zm0-2.093c-1.596 0-2.574.537-2.574 1.466 0 .912.978 1.45 2.574 1.45 1.589 0 2.566-.538 2.566-1.45 0-.929-.977-1.466-2.566-1.466zm10.145 0h1.076v-4.586h-1.076v1.205h-.879v.864h.879v.546h-.879v.855h.879v1.116zm-3.38-3.234h.7v2.036c-.236.008-.472.025-.7.025v-2.061zm2.419 1.906c-.22.024-.448.049-.684.065v-1.971h.595v-.855h-3.959v.855h.594v2.085h-.781l.114.872c1.181 0 2.793-.025 4.186-.26l-.065-.791zm-.505 3.437c-.985 0-1.49-.195-1.49-.586 0-.4.505-.587 1.49-.587.994 0 1.499.188 1.499.587 0 .39-.505.586-1.499.586zm0-1.987c-1.596 0-2.566.513-2.566 1.4 0 .88.97 1.402 2.566 1.402 1.605 0 2.574-.521 2.574-1.401 0-.888-.969-1.401-2.574-1.401zm3.779-3.943v.872h2.452c-.196 1.662-1.124 2.85-2.867 3.747l.602.823c2.493-1.263 3.348-3.193 3.348-5.442h-3.535zm6.582 2.094H545v-2.867h-1.075v7.493H545v-3.738h1.051v-.888z" fill="#020072"/>
    <circle cx="3.055" cy="3.055" r="3.055" transform="matrix(-1 0 0 1 553.428 70.764)" fill="#020072"/>
    <path d="M187.391 241.818V43.782M373.163 190.909V43.782" stroke="#fff" stroke-width=".509" stroke-dasharray="1.02 1.02"/>
    <path d="M0 26.473a8.145 8.145 0 0 1 8.145-8.146H280v25.455H0v-17.31z" fill="#020072"/>
    <path d="M126.415 29.882c-2.128-.295-3.208-1.517-3.208-2.607v-.448h-1.435v.448c0 1.1-1.069 2.312-3.208 2.607l.51 1.08c1.639-.245 2.82-1.009 3.421-2.017.6 1.008 1.771 1.772 3.411 2.016l.509-1.08zm.305 1.771h-8.471v1.09h3.533v3.197h1.344v-3.197h3.594v-1.09zm8.277-2.769h-5.131v-2.169h-1.344v3.238h6.475v-1.069zm-3.329 5.997c-1.253 0-1.894-.224-1.894-.713 0-.488.641-.712 1.894-.712 1.252 0 1.894.224 1.894.712 0 .49-.642.713-1.894.713zm0-2.454c-2.026 0-3.248.642-3.248 1.741 0 1.1 1.222 1.742 3.248 1.742 2.026 0 3.258-.642 3.258-1.742s-1.232-1.74-3.258-1.74zm-4.205-1.68v1.07h8.481v-1.07h-8.481zm11.148 6.364.937-.397c-.856-1.487-1.243-3.197-1.243-4.877 0-1.66.387-3.38 1.243-4.867l-.937-.397c-.957 1.568-1.517 3.238-1.517 5.264 0 2.046.56 3.696 1.517 5.274zm6.841-8.298v1.09h1.405v2.229h1.344v-5.58h-1.344v2.26h-1.405zm.56 2.016c-1.425-.469-2.077-1.568-2.117-2.637h1.822v-1.08h-5.04v1.08h1.843c-.041 1.17-.723 2.362-2.209 2.881l.682 1.059c1.089-.366 1.832-1.13 2.24-2.077.407.825 1.11 1.486 2.128 1.823l.651-1.05zm-.977 4.093c-1.232 0-1.874-.255-1.874-.784 0-.53.642-.784 1.874-.784 1.222 0 1.863.254 1.863.784s-.641.784-1.863.784zm0-2.586c-1.996 0-3.218.662-3.218 1.802 0 1.14 1.222 1.802 3.218 1.802 1.985 0 3.207-.662 3.207-1.802 0-1.14-1.222-1.802-3.207-1.802zm8.175-5.06h-1.344v1.364c0 1.822-.774 3.635-2.413 4.337l.804 1.11c1.12-.53 1.884-1.538 2.301-2.79.418 1.15 1.141 2.077 2.22 2.566l.764-1.09c-1.589-.682-2.332-2.392-2.332-4.133v-1.365zm2.79-.734v9.408h1.344v-9.408H156zm3.807 10.569c.967-1.578 1.527-3.228 1.527-5.274 0-2.026-.56-3.696-1.527-5.264l-.926.397c.855 1.486 1.242 3.207 1.242 4.867 0 1.68-.387 3.39-1.242 4.877l.926.397z" fill="#fff"/>
    <path d="M279.979 18.327h280v25.455h-280V18.327z" fill="#970707"/>
    <path d="M388.838 27.377h-2.087v-.875h-1.354v.875h-2.077v1.059h5.518v-1.059zm-3.777 3.075c0-.468.407-.703 1.018-.703.601 0 1.018.235 1.018.703 0 .479-.417.713-1.018.713-.611 0-1.018-.234-1.018-.713zm3.319 0c0-1.018-.947-1.72-2.301-1.72-1.344 0-2.301.702-2.301 1.72 0 1.028.957 1.73 2.301 1.73 1.354 0 2.301-.702 2.301-1.73zm-3.93 3.442h4.907v2.046h1.344v-3.126h-6.251v1.08zm7.494-4.928h-1.243v-2.414h-1.344v5.875h1.344v-2.352h1.243v-1.11zm6.576.946h.733v2.373h1.273v-5.733h-1.273v2.281h-.733v-2.107h-1.252v5.264h1.252v-2.078zm-1.262.805c-1.232-.5-1.741-1.507-1.741-2.515v-1.09h-1.294v1.09c0 1.059-.509 2.22-1.822 2.79l.713 1.038c.865-.366 1.445-1.038 1.781-1.832.336.671.876 1.232 1.65 1.537l.713-1.018zm.091 4.205c-1.222 0-1.894-.244-1.894-.743 0-.5.672-.744 1.894-.744 1.202 0 1.874.245 1.874.744 0 .498-.672.743-1.874.743zm0-2.495c-1.975 0-3.238.662-3.238 1.752 0 1.1 1.263 1.761 3.238 1.761 1.965 0 3.218-.662 3.218-1.761 0-1.09-1.253-1.752-3.218-1.752zm10.558-2.433h-3.859v-.967h3.859v.967zm1.324-3.085h-1.324v1.069h-3.859v-1.07h-1.334v4.155h6.517v-4.154zm1.008 5.04h-8.492v1.069h3.543v2.922h1.344v-2.922h3.605v-1.07zm3.69-1.497c1.772-.173 2.923-.825 3.421-1.72.489.895 1.65 1.547 3.411 1.72l.469-1.059c-1.752-.142-2.668-.753-2.902-1.385h2.494V26.94h-6.933v1.07h2.484c-.234.63-1.151 1.242-2.902 1.384l.458 1.059zm3.401 4.48c-1.262 0-1.894-.193-1.894-.652 0-.448.632-.651 1.894-.651 1.263 0 1.894.203 1.894.651 0 .459-.631.652-1.894.652zm0-2.311c-2.036 0-3.248.6-3.248 1.66 0 1.058 1.212 1.659 3.248 1.659 2.036 0 3.258-.6 3.258-1.66 0-1.059-1.222-1.66-3.258-1.66zm.682-1.578v-1.13h-1.344v1.13h-3.553v1.069h8.471v-1.07h-3.574zm9.845-3.666h-2.097v-.896h-1.354v.896h-2.088v1.049h5.529l.01-1.049zm-3.787 2.963c0-.448.417-.682 1.018-.682s1.018.234 1.018.682c0 .448-.417.682-1.018.682s-1.018-.234-1.018-.682zm3.319 0c0-.998-.947-1.66-2.301-1.66s-2.301.662-2.301 1.66c0 .988.947 1.66 2.301 1.66s2.301-.672 2.301-1.66zm.988 4.44h-3.432v-.652h3.432v.651zm0-1.67h-3.432v-.713h-1.333v3.431h6.098v-3.431h-1.333v.712zm2.576-4.307h-1.243v-2.25h-1.344v5.487h1.344v-2.138h1.243v-1.1zm2.534 8.308.937-.397c-.855-1.487-1.242-3.197-1.242-4.877 0-1.66.387-3.38 1.242-4.867l-.937-.397c-.957 1.568-1.517 3.238-1.517 5.264 0 2.046.56 3.696 1.517 5.274zm9.927-7.23c-2.128-.294-3.208-1.516-3.208-2.606v-.448h-1.435v.448c0 1.1-1.069 2.312-3.208 2.607l.51 1.08c1.639-.245 2.82-1.009 3.421-2.017.6 1.008 1.771 1.772 3.411 2.016l.509-1.08zm.305 1.773h-8.471v1.089h3.533v3.197h1.344v-3.197h3.594v-1.09zm4.367-4.379h-1.344v1.365c0 1.822-.774 3.635-2.413 4.337l.805 1.11c1.12-.53 1.883-1.538 2.301-2.79.417 1.15 1.14 2.077 2.219 2.566l.764-1.09c-1.588-.682-2.332-2.392-2.332-4.133v-1.365zm2.79-.733v9.408h1.344v-9.408h-1.344zm3.807 10.569c.968-1.578 1.528-3.228 1.528-5.274 0-2.026-.56-3.696-1.528-5.264l-.926.397c.855 1.486 1.242 3.207 1.242 4.867 0 1.68-.387 3.39-1.242 4.877l.926.397z" fill="#fff"/>
    <path fill="#000" d="M373.673 0H560v18.327H373.673z"/>
    <path d="M429.036 8.835v2.487a2.148 2.148 0 0 1-.434.403 2.716 2.716 0 0 1-.774.372c-.322.104-.723.156-1.204.156-.408 0-.783-.069-1.123-.206a2.462 2.462 0 0 1-.881-.613 2.796 2.796 0 0 1-.568-.98 4.016 4.016 0 0 1-.202-1.324v-.452c0-.492.061-.93.184-1.315.125-.388.304-.716.537-.985a2.24 2.24 0 0 1 .841-.608c.331-.14.705-.21 1.123-.21.534 0 .975.089 1.324.268.352.176.624.42.815.734.191.313.311.67.362 1.073h-1.101a1.704 1.704 0 0 0-.21-.608 1.061 1.061 0 0 0-.438-.42c-.188-.105-.433-.157-.734-.157-.26 0-.488.049-.685.147a1.29 1.29 0 0 0-.492.434c-.128.191-.225.424-.291.698a4.093 4.093 0 0 0-.098.94v.46c0 .359.037.677.112.954.077.277.188.511.331.702.146.191.323.336.532.434.209.096.445.144.707.144.257 0 .467-.021.631-.063.164-.045.294-.097.389-.157.099-.062.175-.122.229-.179V9.671h-1.356v-.836h2.474zm2.474-3.544v6.873h-1.082V5.29h1.082zm1.159 4.506v-.103c0-.35.051-.673.152-.971.102-.302.248-.563.439-.783.194-.224.429-.397.707-.52.28-.125.596-.187.948-.187.355 0 .671.062.949.188.28.122.517.295.711.519.194.22.342.481.443.783.102.298.152.622.152.97v.104c0 .349-.05.672-.152.97-.101.299-.249.56-.443.784-.194.22-.429.393-.707.519a2.316 2.316 0 0 1-.944.183c-.355 0-.672-.061-.953-.183a2.058 2.058 0 0 1-.707-.52 2.332 2.332 0 0 1-.443-.782 3.01 3.01 0 0 1-.152-.971zm1.078-.103v.103c0 .217.023.423.068.617.044.194.114.364.21.51.095.146.218.261.367.345.149.083.326.125.532.125.2 0 .373-.042.519-.125.149-.084.272-.199.367-.345.096-.146.166-.316.21-.51.048-.194.072-.4.072-.617v-.103c0-.215-.024-.418-.072-.609a1.555 1.555 0 0 0-.214-.514 1.033 1.033 0 0 0-.367-.35 1.01 1.01 0 0 0-.524-.13c-.203 0-.379.044-.528.13-.146.084-.267.2-.362.35-.096.149-.166.32-.21.514-.045.191-.068.394-.068.609zm4.515-4.403h1.078v5.839l-.103 1.034h-.975V5.29zm4.237 4.407v.094c0 .358-.04.688-.121.989a2.25 2.25 0 0 1-.358.778 1.66 1.66 0 0 1-.59.515c-.233.12-.503.18-.81.18-.301 0-.564-.058-.788-.171a1.568 1.568 0 0 1-.563-.483 2.7 2.7 0 0 1-.363-.747 4.99 4.99 0 0 1-.197-.958v-.3c.039-.352.105-.67.197-.957a2.7 2.7 0 0 1 .363-.748c.152-.211.338-.374.559-.487.224-.114.485-.17.783-.17.31 0 .583.06.819.179.238.119.437.29.595.51.158.218.276.477.353.778.081.302.121.634.121.998zm-1.078.094v-.094c0-.218-.018-.422-.054-.613a1.603 1.603 0 0 0-.179-.51.894.894 0 0 0-.331-.344.947.947 0 0 0-.514-.13c-.191 0-.355.033-.493.098a.984.984 0 0 0-.344.269 1.302 1.302 0 0 0-.219.393 2.19 2.19 0 0 0-.103.484v.81c.027.223.083.43.17.617.089.185.214.334.376.447.161.11.368.166.621.166.2 0 .369-.04.506-.12a.888.888 0 0 0 .327-.336c.083-.146.143-.317.179-.51.038-.194.058-.403.058-.627zm4.904 1.4V8.885a.999.999 0 0 0-.094-.448.657.657 0 0 0-.287-.29.977.977 0 0 0-.474-.103c-.176 0-.328.03-.456.09a.73.73 0 0 0-.3.24.58.58 0 0 0-.107.345h-1.074c0-.19.046-.376.138-.555a1.49 1.49 0 0 1 .403-.478c.176-.14.386-.25.631-.331.245-.081.519-.121.823-.121.364 0 .686.06.967.183.283.122.505.307.666.555.164.245.246.552.246.922v2.152c0 .22.015.42.045.595.033.173.079.324.139.452v.072h-1.105a1.904 1.904 0 0 1-.121-.443 3.595 3.595 0 0 1-.04-.528zm.156-1.973.009.667h-.774c-.2 0-.376.02-.528.058a1.08 1.08 0 0 0-.38.161.687.687 0 0 0-.228.26.756.756 0 0 0-.076.344c0 .129.029.247.089.354.06.104.146.186.26.246a.91.91 0 0 0 .42.09 1.185 1.185 0 0 0 .971-.47.726.726 0 0 0 .152-.38l.349.478a1.663 1.663 0 0 1-.183.394c-.087.14-.2.274-.34.402a1.688 1.688 0 0 1-1.159.43 1.85 1.85 0 0 1-.846-.188 1.504 1.504 0 0 1-.581-.514 1.329 1.329 0 0 1-.211-.739c0-.256.048-.483.143-.68.099-.2.242-.367.43-.5.191-.135.424-.237.698-.305.274-.072.588-.108.94-.108h.845zm3.392-3.928v6.873h-1.083V5.29h1.083zm7.364 5.195a.974.974 0 0 0-.062-.358.698.698 0 0 0-.211-.287 1.722 1.722 0 0 0-.429-.25 5.729 5.729 0 0 0-.698-.255 7.716 7.716 0 0 1-.859-.318 3.233 3.233 0 0 1-.68-.412 1.754 1.754 0 0 1-.452-.541 1.509 1.509 0 0 1-.161-.711c0-.266.055-.508.165-.725.113-.218.273-.406.479-.564.209-.161.455-.285.738-.371.284-.09.597-.135.94-.135.483 0 .899.09 1.248.269.352.179.622.419.81.72.191.301.286.634.286.998h-1.114c0-.215-.046-.404-.138-.568a.944.944 0 0 0-.412-.394c-.182-.095-.413-.143-.694-.143-.265 0-.486.04-.662.12a.886.886 0 0 0-.394.327.858.858 0 0 0-.129.466c0 .122.028.234.085.335a.93.93 0 0 0 .259.278c.117.083.263.162.439.237.176.074.383.146.622.214.361.108.675.227.944.358.268.129.492.275.671.439.179.164.313.35.403.56.089.205.134.44.134.702 0 .274-.055.522-.166.742-.11.218-.268.405-.474.56-.203.152-.447.27-.734.353-.283.08-.599.121-.948.121a3.49 3.49 0 0 1-.927-.125 2.738 2.738 0 0 1-.823-.38 1.983 1.983 0 0 1-.591-.645 1.822 1.822 0 0 1-.219-.908h1.123c0 .212.036.392.108.541.074.15.177.272.308.367.132.093.284.161.457.206.176.045.364.067.564.067.262 0 .481-.037.657-.112a.866.866 0 0 0 .403-.313.815.815 0 0 0 .134-.465zm4.985-4.837v6.515h-1.115V5.649h1.115zm2.044 0v.895h-5.185v-.895h5.185zm5.307 5.624v.89h-3.459v-.89h3.459zm-3.141-5.624v6.515h-1.123V5.649h1.123zm2.689 2.72v.877h-3.007V8.37h3.007zm.43-2.72v.895h-3.437v-.895h3.437zm3.659.868-1.946 5.647h-1.177l2.452-6.515h.752l-.081.868zm1.629 5.647-1.951-5.647-.085-.868h.756l2.461 6.515h-1.181zm-.094-2.417v.89h-3.544v-.89h3.544zm2.644-4.098h1.003l1.883 5.025 1.88-5.025h1.002l-2.488 6.515h-.796l-2.484-6.515zm-.456 0h.953l.166 4.349v2.166h-1.119V5.649zm5.727 0h.958v6.515h-1.123V9.998l.165-4.35zm7.405 0v6.515h-1.114V5.649h1.114zm2.045 0v.895h-5.186v-.895h5.186zm1.696 2.595v3.92h-1.079V7.322h1.029l.05.922zm1.481-.953-.009 1.002a2.814 2.814 0 0 0-.439-.036c-.185 0-.347.027-.488.08a.916.916 0 0 0-.568.574c-.051.137-.08.29-.089.46l-.246.018c0-.304.029-.586.089-.845.06-.26.149-.488.269-.685.122-.197.274-.35.456-.46.185-.111.398-.166.64-.166a1.332 1.332 0 0 1 .385.058zm3.427 3.902v-2.31a.986.986 0 0 0-.094-.447.66.66 0 0 0-.286-.29.984.984 0 0 0-.475-.103c-.176 0-.328.03-.456.09a.743.743 0 0 0-.3.24.58.58 0 0 0-.107.345h-1.074c0-.19.046-.376.138-.555a1.49 1.49 0 0 1 .403-.478c.176-.14.386-.25.631-.331.245-.081.519-.121.823-.121.364 0 .686.06.967.183.283.122.505.307.667.555.164.245.246.552.246.922v2.152c0 .22.015.42.044.595.033.173.079.324.139.452v.072h-1.105a1.904 1.904 0 0 1-.121-.443 3.595 3.595 0 0 1-.04-.528zm.156-1.974.009.667h-.774c-.2 0-.376.02-.528.058a1.08 1.08 0 0 0-.38.161.705.705 0 0 0-.228.26.756.756 0 0 0-.076.344c0 .129.03.247.089.354.06.104.146.186.26.246a.91.91 0 0 0 .42.09 1.18 1.18 0 0 0 .971-.47.726.726 0 0 0 .152-.38l.349.478a1.624 1.624 0 0 1-.183.394c-.087.14-.2.274-.34.402a1.688 1.688 0 0 1-1.159.43 1.85 1.85 0 0 1-.846-.188 1.504 1.504 0 0 1-.581-.514 1.337 1.337 0 0 1-.211-.739c0-.256.048-.483.144-.68.098-.2.241-.367.429-.5.191-.135.424-.237.698-.305a3.74 3.74 0 0 1 .94-.108h.845zm4.215 2.175c.176 0 .334-.034.474-.103a.898.898 0 0 0 .345-.295.81.81 0 0 0 .148-.434h1.015a1.512 1.512 0 0 1-.277.854c-.179.257-.416.461-.711.613-.296.15-.622.224-.98.224-.37 0-.692-.063-.967-.188a1.904 1.904 0 0 1-.684-.528 2.317 2.317 0 0 1-.412-.774 3.178 3.178 0 0 1-.134-.94v-.156c0-.334.044-.647.134-.94.092-.295.23-.555.412-.778.181-.224.41-.399.684-.524.275-.128.595-.192.962-.192.388 0 .728.077 1.02.232.293.153.522.366.689.64.17.272.258.588.264.949h-1.015a1.077 1.077 0 0 0-.135-.483.884.884 0 0 0-.331-.35.941.941 0 0 0-.505-.13c-.218 0-.399.046-.542.135a.899.899 0 0 0-.335.358c-.081.15-.139.318-.175.506a3.282 3.282 0 0 0-.049.577v.156c0 .2.016.394.049.582.033.188.09.357.17.506a.995.995 0 0 0 .34.353c.143.087.325.13.546.13zm4.081-6.103v6.873h-1.083V5.29h1.083zm3.007 2.031-2.108 2.336-1.154 1.181-.282-.913.872-1.078 1.369-1.526h1.303zm-1.07 4.842-1.57-2.273.68-.757 2.138 3.03h-1.248z" fill="#fff"/>
    <defs>
        <linearGradient id="efc0c0orna" x1="-13.7" y1="165.201" x2="512.7" y2="165.201" gradientUnits="userSpaceOnUse">
            <stop stop-color="#970707"/>
            <stop offset="1" stop-color="#020072"/>
        </linearGradient>
    </defs>
</svg>
