<svg width="560" height="406" viewBox="0 0 560 406" fill="none" xmlns="http://www.w3.org/2000/svg">
    <rect width="560" height="405.745" rx="8.145" fill="#E7F4F4"/>
    <mask id="137x7dilba" style="mask-type:alpha" maskUnits="userSpaceOnUse" x="0" y="0" width="560" height="406">
        <rect width="560" height="405.745" rx="8.145" fill="#E7F4F4"/>
    </mask>
    <g mask="url(#137x7dilba)">
        <path opacity=".49" fill-rule="evenodd" clip-rule="evenodd" d="M247.311 116.393c-.952 1.604-2.912 2.699-5.172 2.699s-4.22-1.1-5.172-2.699c-.25-.422-.973-.422-1.227 0-.952 1.604-2.912 2.699-5.173 2.699-2.26 0-4.22-1.1-5.172-2.699-.25-.422-.972-.422-1.227 0-.952 1.604-2.912 2.699-5.172 2.699-2.261 0-4.221-1.1-5.173-2.699-.249-.422-.972-.422-1.227 0-.952 1.604-2.912 2.699-5.172 2.699s-4.22-1.1-5.172-2.699c-.25-.422-.973-.422-1.227 0-.952 1.604-2.912 2.699-5.173 2.699-2.26 0-4.22-1.1-5.172-2.699-.249-.422-.972-.422-1.227 0-.952 1.604-2.912 2.699-5.172 2.699-2.261 0-4.221-1.1-5.173-2.699-.249-.422-.972-.422-1.227 0-.952 1.604-2.912 2.699-5.172 2.699s-4.22-1.1-5.172-2.699c-.25-.422-.973-.422-1.227 0-.952 1.604-2.912 2.699-5.173 2.699-2.26 0-4.22-1.1-5.172-2.699-.249-.422-.972-.422-1.227 0-.952 1.604-2.912 2.699-5.172 2.699-2.261 0-4.221-1.1-5.173-2.699-.249-.422-.972-.422-1.226 0-.952 1.604-2.912 2.699-5.173 2.699-2.26 0-4.22-1.1-5.172-2.699-.25-.422-.973-.422-1.227 0-.952 1.604-2.912 2.699-5.172 2.699-2.261 0-4.221-1.1-5.173-2.699-.127-.213-.371-.315-.616-.315-.244 0-.489.102-.616.315-.952 1.604-2.912 2.699-5.172 2.699-2.261 0-4.221-1.1-5.173-2.699-.249-.422-.972-.422-1.226 0-.952 1.604-2.912 2.699-5.173 2.699-2.26 0-4.22-1.1-5.172-2.699-.25-.422-.973-.422-1.227 0-.952 1.604-2.912 2.699-5.172 2.699s-4.22-1.1-5.173-2.699c-.25-.422-.972-.422-1.227 0-.952 1.604-2.912 2.699-5.172 2.699s-4.22-1.1-5.172-2.699c-.25-.422-.973-.422-1.227 0-.952 1.604-2.912 2.699-5.173 2.699-2.26 0-4.22-1.1-5.172-2.699-.25-.422-.972-.422-1.227 0-.952 1.604-2.912 2.699-5.172 2.699s-4.22-1.1-5.173-2.699c-.25-.422-.972-.422-1.227 0-.952 1.604-2.912 2.699-5.172 2.699s-4.22-1.1-5.172-2.699c-.25-.422-.973-.422-1.227 0-.952 1.604-2.912 2.699-5.173 2.699-2.26 0-4.22-1.1-5.172-2.699-.25-.422-.972-.422-1.227 0-.952 1.604-2.912 2.699-5.172 2.699s-4.22-1.1-5.173-2.699c-.25-.422-.972-.422-1.227 0-.951 1.604-2.912 2.699-5.172 2.699s-4.22-1.1-5.172-2.699c-.25-.422-.973-.422-1.227 0-.952 1.604-2.912 2.699-5.173 2.699-2.26 0-4.18-1.1-5.131-2.699-.127-.213-.372-.315-.616-.315v290.177h763.636V116.073c-.245 0-.489.102-.616.315v.006c-.952 1.603-2.912 2.698-5.173 2.698-2.26 0-4.22-1.1-5.172-2.698-.25-.423-.972-.423-1.227 0-.952 1.603-2.912 2.698-5.172 2.698-2.261 0-4.221-1.1-5.173-2.698-.249-.423-.972-.423-1.227 0-.952 1.603-2.912 2.698-5.172 2.698s-4.22-1.1-5.172-2.698c-.25-.423-.973-.423-1.227 0-.952 1.603-2.912 2.698-5.173 2.698-2.26 0-4.22-1.1-5.172-2.698-.249-.423-.972-.423-1.227 0-.952 1.603-2.912 2.698-5.172 2.698-2.261 0-4.221-1.1-5.173-2.698-.249-.423-.972-.423-1.226 0-.953 1.603-2.912 2.698-5.173 2.698-2.26 0-4.22-1.1-5.172-2.698-.25-.423-.973-.423-1.227 0-.952 1.603-2.912 2.698-5.173 2.698-2.26 0-4.22-1.1-5.172-2.698-.249-.423-.972-.423-1.227 0-.952 1.603-2.912 2.698-5.172 2.698-2.261 0-4.22-1.1-5.173-2.698-.249-.423-.972-.423-1.226 0-.952 1.603-2.912 2.698-5.173 2.698-2.26 0-4.22-1.1-5.172-2.698-.25-.423-.973-.423-1.227 0-.952 1.603-2.912 2.698-5.172 2.698-2.261 0-4.221-1.1-5.173-2.698-.249-.423-.972-.423-1.227 0-.952 1.603-2.912 2.698-5.172 2.698s-4.22-1.1-5.172-2.698c-.128-.214-.372-.316-.616-.316-.245 0-.489.102-.616.316-.952 1.603-2.912 2.698-5.173 2.698-2.26 0-4.22-1.1-5.172-2.698-.25-.423-.972-.423-1.227 0-.952 1.603-2.912 2.698-5.172 2.698-2.261 0-4.221-1.1-5.173-2.698-.249-.423-.972-.423-1.227 0-.952 1.603-2.912 2.698-5.172 2.698s-4.22-1.1-5.172-2.698c-.25-.423-.973-.423-1.227 0-.952 1.603-2.912 2.698-5.173 2.698-2.26 0-4.22-1.1-5.172-2.698-.25-.423-.972-.423-1.227 0-.952 1.603-2.912 2.698-5.172 2.698-2.261 0-4.221-1.1-5.173-2.698-.249-.423-.972-.423-1.227 0-.952 1.603-2.912 2.698-5.172 2.698s-4.22-1.1-5.172-2.698c-.25-.423-.973-.423-1.227 0-.952 1.603-2.912 2.698-5.173 2.698-2.26 0-4.22-1.1-5.172-2.698-.249-.423-.972-.423-1.227 0-.952 1.603-2.912 2.698-5.172 2.698-2.261 0-4.221-1.1-5.173-2.698-.249-.423-.972-.423-1.226 0-.953 1.603-2.913 2.698-5.173 2.698-2.26 0-4.22-1.1-5.172-2.698-.25-.423-.973-.423-1.227 0-.952 1.603-2.912 2.698-5.172 2.698-2.261 0-4.221-1.1-5.173-2.698-.249-.423-.972-.423-1.227 0-.952 1.603-2.912 2.698-5.172 2.698-2.261 0-4.18-1.1-5.132-2.698-.127-.214-.371-.316-.616-.316v-.005c-.244 0-.488.102-.616.315v.006c-.952 1.603-2.912 2.698-5.172 2.698s-4.22-1.1-5.172-2.698c-.25-.423-.973-.423-1.227 0-.952 1.603-2.912 2.698-5.173 2.698-2.26 0-4.22-1.1-5.172-2.698-.249-.423-.972-.423-1.227 0-.952 1.603-2.912 2.698-5.172 2.698-2.261 0-4.221-1.1-5.173-2.698-.249-.423-.972-.423-1.227 0-.952 1.603-2.912 2.698-5.172 2.698s-4.22-1.1-5.172-2.698c-.25-.423-.973-.423-1.227 0-.952 1.603-2.912 2.698-5.173 2.698-2.26 0-4.22-1.1-5.172-2.698-.249-.423-.972-.423-1.227 0-.952 1.603-2.912 2.698-5.172 2.698-2.261 0-4.221-1.1-5.173-2.698-.249-.423-.972-.423-1.226 0-.952 1.603-2.912 2.698-5.173 2.698-2.26 0-4.22-1.1-5.172-2.698-.25-.423-.973-.423-1.227 0-.952 1.603-2.912 2.698-5.172 2.698-2.261 0-4.221-1.1-5.173-2.698-.249-.423-.972-.423-1.227 0-.952 1.603-2.912 2.698-5.172 2.698s-4.22-1.1-5.172-2.698c-.25-.423-.973-.423-1.227 0-.952 1.603-2.912 2.698-5.173 2.698-2.26 0-4.22-1.1-5.172-2.698-.25-.423-.972-.423-1.227 0-.952 1.603-2.912 2.698-5.172 2.698-2.261 0-4.221-1.1-5.173-2.698-.127-.214-.371-.316-.616-.316-.244 0-.488.102-.616.316-.952 1.603-2.912 2.698-5.172 2.698s-4.22-1.1-5.172-2.698c-.25-.423-.973-.423-1.227 0-.952 1.603-2.912 2.698-5.173 2.698-2.26 0-4.22-1.1-5.172-2.698-.25-.423-.972-.423-1.227 0-.952 1.603-2.912 2.698-5.172 2.698-2.261 0-4.221-1.1-5.173-2.698-.249-.423-.972-.423-1.227 0-.952 1.603-2.912 2.698-5.172 2.698s-4.22-1.1-5.172-2.698c-.25-.423-.973-.423-1.227 0-.952 1.603-2.912 2.698-5.173 2.698-2.26 0-4.22-1.1-5.172-2.698-.249-.423-.972-.423-1.227 0-.952 1.603-2.912 2.698-5.172 2.698-2.261 0-4.221-1.1-5.173-2.698-.249-.423-.972-.423-1.227 0-.952 1.603-2.912 2.698-5.172 2.698s-4.22-1.1-5.172-2.698c-.25-.423-.973-.423-1.227 0-.952 1.603-2.912 2.698-5.173 2.698-2.26 0-4.22-1.1-5.172-2.698-.249-.423-.972-.423-1.227 0-.952 1.603-2.912 2.698-5.172 2.698-2.261 0-4.221-1.1-5.173-2.698-.249-.423-.972-.423-1.226 0-.952 1.603-2.912 2.698-5.173 2.698-2.26 0-4.22-1.1-5.172-2.698-.25-.423-.972-.423-1.227 0-.952 1.603-2.912 2.698-5.172 2.698-2.261 0-4.18-1.1-5.132-2.698-.127-.214-.371-.316-.616-.316v-.005c-.244 0-.488.102-.616.315v.005z" fill="#55A1A1"/>
    </g>
    <path opacity=".5" d="M116.073 119.127h311.064M116.073 343.127h311.064M116.073 287.127h311.064M116.573 231.127h311.063" stroke="#fff" stroke-width=".305" stroke-linecap="round" stroke-linejoin="round" stroke-dasharray="1.02 1.02"/>
    <path d="M116.073 63.127h311.064" stroke="#fff" stroke-width=".305" stroke-linecap="round" stroke-linejoin="round" stroke-dasharray="1.02 1.02"/>
    <path d="M116.073 175.127h311.064" stroke="#020072" stroke-width=".305" stroke-linecap="round" stroke-linejoin="round" stroke-dasharray="1.02 1.02"/>
    <path d="M387.419 55.064v119.169" stroke="#020072" stroke-width=".662" stroke-linecap="round" stroke-linejoin="round" stroke-dasharray="1.02 1.02"/>
    <path d="M387.419 352.8V173.6" stroke="#970707" stroke-width=".662" stroke-linecap="round" stroke-linejoin="round" stroke-dasharray="1.02 1.02"/>
    <path d="m383.896 352.042 3.455 5.993 3.462-5.993h-6.917z" fill="#970707"/>
    <path d="m390.859 55.864-3.462-5.992-3.455 5.992h6.917zM378.439 41.34v.763h.984v1.56h.941v-3.905h-.941v1.582h-.984zm.392 1.411c-.998-.328-1.454-1.097-1.482-1.846h1.275v-.755h-3.528v.755h1.291c-.029.82-.507 1.654-1.547 2.017l.477.742a2.562 2.562 0 0 0 1.568-1.455c.286.578.777 1.041 1.49 1.276l.456-.734zm-.684 2.865c-.862 0-1.311-.178-1.311-.548 0-.371.449-.55 1.311-.55.855 0 1.304.179 1.304.55 0 .37-.449.548-1.304.548zm0-1.81c-1.397 0-2.252.463-2.252 1.262 0 .798.855 1.261 2.252 1.261 1.39 0 2.245-.463 2.245-1.261 0-.799-.855-1.262-2.245-1.262zm3.52-2.388v2.025h.563c1.312 0 2.146-.029 3.058-.2l-.078-.756c-.82.15-1.54.193-2.609.2v-.57h2.053v-1.974h-2.994v.755h2.067v.52h-2.06zm2.773 4.191c-.855 0-1.297-.164-1.297-.527 0-.364.442-.528 1.297-.528s1.297.164 1.297.528c0 .363-.442.527-1.297.527zm0-1.775c-1.369 0-2.224.457-2.224 1.248 0 .784.855 1.247 2.224 1.247 1.368 0 2.223-.463 2.223-1.247 0-.791-.855-1.248-2.223-1.248zm3.029-2.43v-.763h-.87v-.883h-.94v3.955h.94v-.926h.87v-.763h-.87v-.62h.87zm5.067 2.366h.941v-4.012h-.941v1.054h-.77v.756h.77v.478h-.77v.748h.77v.976zm-2.958-2.83h.613v1.783c-.207.007-.413.021-.613.021v-1.803zm2.117 1.669c-.193.021-.392.042-.599.057V40.94h.52v-.748h-3.463v.748h.52v1.824h-.684l.099.763c1.034 0 2.445-.021 3.664-.228l-.057-.691zm-.442 3.007c-.863 0-1.304-.17-1.304-.513 0-.35.441-.513 1.304-.513.869 0 1.311.164 1.311.513 0 .342-.442.513-1.311.513zm0-1.739c-1.397 0-2.245.45-2.245 1.226 0 .77.848 1.226 2.245 1.226 1.404 0 2.252-.456 2.252-1.226 0-.777-.848-1.226-2.252-1.226zm3.591-3.45v.763h2.146c-.171 1.454-.984 2.495-2.509 3.279l.527.72c2.181-1.105 2.93-2.794 2.93-4.761h-3.094zm5.759 1.832h-.919v-2.508h-.941v6.557h.941v-3.272h.919v-.777z" fill="#020072"/>
    <path d="M378.439 361.519v.763h.984v1.561h.941v-3.906h-.941v1.582h-.984zm.392 1.411c-.998-.327-1.454-1.097-1.482-1.846h1.275v-.755h-3.528v.755h1.291c-.029.82-.507 1.654-1.547 2.017l.477.742a2.563 2.563 0 0 0 1.568-1.454c.286.577.777 1.04 1.49 1.275l.456-.734zm-.684 2.866c-.862 0-1.311-.179-1.311-.549 0-.371.449-.549 1.311-.549.855 0 1.304.178 1.304.549 0 .37-.449.549-1.304.549zm0-1.811c-1.397 0-2.252.463-2.252 1.262 0 .798.855 1.261 2.252 1.261 1.39 0 2.245-.463 2.245-1.261 0-.799-.855-1.262-2.245-1.262zm7.832-.199h.941v-3.849h-.941v1.197h-1.197v.763h1.197v1.889zm-.598-.948c-1.041-.335-1.469-1.134-1.469-2.017v-.542h-.955v.584c0 .906-.463 1.797-1.582 2.153l.492.755a2.59 2.59 0 0 0 1.589-1.461 2.375 2.375 0 0 0 1.433 1.269l.492-.741zm-.678 2.943c-.862 0-1.311-.178-1.311-.549 0-.377.449-.555 1.311-.555.856 0 1.305.178 1.305.555 0 .371-.449.549-1.305.549zm0-1.831c-1.396 0-2.252.47-2.252 1.282 0 .799.856 1.269 2.252 1.269 1.39 0 2.246-.47 2.246-1.269 0-.812-.856-1.282-2.246-1.282zm7.833 0h.941v-4.013h-.941v1.055h-.77v.755h.77v.478h-.77v.748h.77v.977zm-2.958-2.83h.613v1.782c-.207.007-.413.021-.613.021v-1.803zm2.117 1.668c-.193.021-.392.043-.599.057v-1.725h.52v-.748h-3.463v.748h.52v1.825h-.684l.099.762c1.034 0 2.445-.021 3.664-.228l-.057-.691zm-.442 3.008c-.863 0-1.304-.172-1.304-.514 0-.349.441-.513 1.304-.513.869 0 1.311.164 1.311.513 0 .342-.442.514-1.311.514zm0-1.74c-1.397 0-2.245.449-2.245 1.226 0 .77.848 1.226 2.245 1.226 1.404 0 2.252-.456 2.252-1.226 0-.777-.848-1.226-2.252-1.226zm3.591-3.449v.762h2.146c-.171 1.454-.984 2.495-2.509 3.279l.527.72c2.181-1.105 2.93-2.794 2.93-4.761h-3.094zm5.759 1.832h-.919v-2.509h-.941v6.557h.941v-3.272h.919v-.776z" fill="#970707"/>
    <path d="m263.864 62.243-12.975-14.389 5.267 294.962 24.152-7.708 14.902-6.167 26.722-22.096 5.652-27.749 16.958-11.819 18.186-17.568 21.382-20.364-29.291-84.883-15.93-14.388-12.815-19.092-15.961-13.796-28.649-26.336-1.798 3.469-5.139-8.993-9.121-8.222-1.542 5.139z" fill="#CBE8E8"/>
    <path d="m277.74 70.978-2.57 6.167 3.983-3.726-1.413-2.44z" fill="#A0CBCB"/>
    <path opacity=".4" d="m272.601 66.354 1.927-1.028 4.624 8.094-3.982 3.725-2.569-10.791z" fill="#A0CBCB"/>
    <path opacity=".4" d="m354.82 144.462-7.708 7.195 27.235 79.356 9.764-1.413-29.291-85.138z" fill="#81AEAE"/>
    <path d="m321.931 306.845-12.333 1.542 14.902-31.346 3.084 2.055-5.653 27.749z" fill="#B4CBCB"/>
    <path opacity=".4" d="m295.274 328.873-10.437-6.619-6.618 12.982h1.782l15.273-6.363z" fill="#6F8787"/>
    <path d="m261.165 59.31-1.019 4.835 2.8-3.054-1.781-1.782z" fill="#A0CBCB"/>
    <path d="M239.274 54.473c1.867 1.612 5.6 4.887 5.6 5.09l-15.273 12.982-1.018-8.654 2.545 5.854 8.146-15.272z" fill="#CBE8E8"/>
    <path d="m270.031 335.108-13.36 7.708-47.433-30.998-30.546-24.691-16.291-112 21.3-47.109 30.318-41.11 2.313-6.166 12.333-16.958.771 7.195 9.763-16.444 4.625 5.652 7.194-12.332 9.25 15.93 5.138-6.68 7.195 9.249 2.569 10.791 6.166-6.166 28.263 30.832 14.439 16.298 9.199 17.103 13.875 16.444 27.071 79.217-36.321 34.862-13.36 11.306-14.903 31.346-24.665 13.874-6.681 12.847h-8.222z" fill="#fff"/>
    <path opacity=".5" d="m384.202 229.459-9.764 1.414-36.318 34.605 6.423 1.799 39.659-37.818z" fill="#709696"/>
    <path opacity=".8" d="M338.118 265.479c-4.539 3.854-13.618 11.459-13.618 11.562l3.084 2.055 17.086-11.819-6.552-1.798z" fill="#8EADAD"/>
    <path opacity=".9" d="m326.075 110.982-2.055 6.552 9.475 17.936 5.781-4.754-13.201-19.734z" fill="#93C2C2"/>
    <path opacity=".6" d="m332.183 281.782-10.182 25.2 5.6-28 17.055-11.71-12.473 14.51z" fill="#578181"/>
    <mask id="bszque002b" style="mask-type:alpha" maskUnits="userSpaceOnUse" x="162" y="47" width="223" height="296">
        <path opacity=".6" fill-rule="evenodd" clip-rule="evenodd" d="m281.375 71.022.089-.171 28.648 26.335 15.961 13.796.001.001v-.001l.398.594 12.417 18.498 15.93 14.388v.001l29.249 85.016.132-.019-.105.1.014.04-.066.01-39.473 37.64.085.023.015.005-.045.03-12.442 14.474-10.182 25.2 5.257-26.287-5.327 26.151-26.721 22.096-14.902 6.166-23.001 7.341-.637.367-.169-.11-.345.11-.006-.34-46.913-30.657-30.545-24.691-16.291-112 21.3-47.109 30.318-41.11 2.312-6.166 12.333-16.958.771 7.194 9.764-16.444 4.624 5.653 7.07-12.119-.004-.214.078.087.051-.087.233.401 11.312 12.545 2.842-3.695.001-.001h.001l9.12 8.222 4.531 7.93 2.278-2.278.039.043z" fill="#718CB4"/>
    </mask>
    <g mask="url(#bszque002b)">
        <path opacity=".4" fill-rule="evenodd" clip-rule="evenodd" d="M247.311 116.393c-.952 1.604-2.912 2.699-5.173 2.699-2.26 0-4.22-1.1-5.172-2.699-.249-.422-.972-.422-1.227 0-.952 1.604-2.912 2.699-5.172 2.699-2.261 0-4.221-1.1-5.173-2.699-.249-.422-.972-.422-1.226 0-.952 1.604-2.912 2.699-5.173 2.699-2.26 0-4.22-1.1-5.172-2.699-.25-.422-.973-.422-1.227 0-.952 1.604-2.912 2.699-5.172 2.699-2.261 0-4.221-1.1-5.173-2.699-.249-.422-.972-.422-1.227 0-.952 1.604-2.912 2.699-5.172 2.699s-4.22-1.1-5.172-2.699c-.25-.422-.973-.422-1.227 0-.952 1.604-2.912 2.699-5.173 2.699-2.26 0-4.22-1.1-5.172-2.699-.25-.422-.972-.422-1.227 0-.952 1.604-2.912 2.699-5.172 2.699-2.261 0-4.221-1.1-5.173-2.699-.249-.422-.972-.422-1.227 0-.952 1.604-2.912 2.699-5.172 2.699s-4.22-1.1-5.172-2.699c-.25-.422-.973-.422-1.227 0-.952 1.604-2.912 2.699-5.173 2.699-2.26 0-4.22-1.1-5.172-2.699-.249-.422-.972-.422-1.227 0-.952 1.604-2.912 2.699-5.172 2.699-2.261 0-4.221-1.1-5.173-2.699-.249-.422-.972-.422-1.227 0-.952 1.604-2.912 2.699-5.172 2.699s-4.22-1.1-5.172-2.699c-.128-.213-.372-.315-.616-.315-.245 0-.489.102-.616.315-.952 1.604-2.912 2.699-5.173 2.699-2.26 0-4.22-1.1-5.172-2.699-.249-.422-.972-.422-1.227 0-.952 1.604-2.912 2.699-5.172 2.699-2.261 0-4.22-1.1-5.173-2.699-.25-.422-.972-.422-1.227 0-.952 1.604-2.912 2.699-5.172 2.699s-4.22-1.1-5.172-2.699c-.25-.422-.973-.422-1.227 0-.952 1.604-2.912 2.699-5.173 2.699-2.26 0-4.22-1.1-5.172-2.699-.25-.422-.972-.422-1.227 0-.952 1.604-2.912 2.699-5.172 2.699s-4.22-1.1-5.173-2.699c-.249-.422-.972-.422-1.227 0-.951 1.604-2.911 2.699-5.172 2.699-2.26 0-4.22-1.1-5.172-2.699-.25-.422-.973-.422-1.227 0-.952 1.604-2.912 2.699-5.172 2.699s-4.22-1.1-5.173-2.699c-.25-.422-.972-.422-1.227 0-.952 1.604-2.912 2.699-5.172 2.699s-4.22-1.1-5.172-2.699c-.25-.422-.973-.422-1.227 0-.952 1.604-2.912 2.699-5.173 2.699-2.26 0-4.22-1.1-5.172-2.699-.25-.422-.973-.422-1.227 0-.952 1.604-2.912 2.699-5.172 2.699s-4.22-1.1-5.173-2.699c-.25-.422-.972-.422-1.227 0-.952 1.604-2.912 2.699-5.172 2.699s-4.18-1.1-5.132-2.699c-.127-.213-.371-.315-.616-.315v290.177h763.636V116.073c-.244 0-.489.102-.616.315v.006c-.952 1.603-2.912 2.698-5.172 2.698-2.261 0-4.221-1.1-5.173-2.698-.249-.423-.972-.423-1.226 0-.952 1.603-2.912 2.698-5.173 2.698-2.26 0-4.22-1.1-5.172-2.698-.25-.423-.973-.423-1.227 0-.952 1.603-2.912 2.698-5.172 2.698-2.261 0-4.221-1.1-5.173-2.698-.249-.423-.972-.423-1.227 0-.952 1.603-2.912 2.698-5.172 2.698s-4.22-1.1-5.172-2.698c-.25-.423-.973-.423-1.227 0-.952 1.603-2.912 2.698-5.173 2.698-2.26 0-4.22-1.1-5.172-2.698-.25-.423-.972-.423-1.227 0-.952 1.603-2.912 2.698-5.172 2.698-2.261 0-4.221-1.1-5.173-2.698-.249-.423-.972-.423-1.227 0-.952 1.603-2.912 2.698-5.172 2.698s-4.22-1.1-5.172-2.698c-.25-.423-.973-.423-1.227 0-.952 1.603-2.912 2.698-5.173 2.698-2.26 0-4.22-1.1-5.172-2.698-.249-.423-.972-.423-1.227 0-.952 1.603-2.912 2.698-5.172 2.698-2.261 0-4.221-1.1-5.173-2.698-.249-.423-.972-.423-1.227 0-.952 1.603-2.912 2.698-5.172 2.698s-4.22-1.1-5.172-2.698c-.25-.423-.973-.423-1.227 0-.952 1.603-2.912 2.698-5.173 2.698-2.26 0-4.22-1.1-5.172-2.698-.127-.214-.372-.316-.616-.316s-.489.102-.616.316c-.952 1.603-2.912 2.698-5.172 2.698-2.261 0-4.221-1.1-5.173-2.698-.249-.423-.972-.423-1.227 0-.952 1.603-2.912 2.698-5.172 2.698s-4.22-1.1-5.172-2.698c-.25-.423-.973-.423-1.227 0-.952 1.603-2.912 2.698-5.173 2.698-2.26 0-4.22-1.1-5.172-2.698-.249-.423-.972-.423-1.227 0-.952 1.603-2.912 2.698-5.172 2.698-2.261 0-4.221-1.1-5.173-2.698-.249-.423-.972-.423-1.226 0-.952 1.603-2.912 2.698-5.173 2.698-2.26 0-4.22-1.1-5.172-2.698-.25-.423-.973-.423-1.227 0-.952 1.603-2.912 2.698-5.172 2.698-2.261 0-4.221-1.1-5.173-2.698-.249-.423-.972-.423-1.227 0-.952 1.603-2.912 2.698-5.172 2.698s-4.22-1.1-5.172-2.698c-.25-.423-.973-.423-1.227 0-.952 1.603-2.912 2.698-5.173 2.698-2.26 0-4.22-1.1-5.172-2.698-.25-.423-.972-.423-1.227 0-.952 1.603-2.912 2.698-5.172 2.698-2.261 0-4.221-1.1-5.173-2.698-.249-.423-.972-.423-1.227 0-.952 1.603-2.912 2.698-5.172 2.698s-4.22-1.1-5.172-2.698c-.25-.423-.973-.423-1.227 0-.952 1.603-2.912 2.698-5.173 2.698-2.26 0-4.179-1.1-5.131-2.698-.128-.214-.372-.316-.616-.316v-.005c-.244 0-.489.102-.616.315v.006c-.952 1.603-2.912 2.698-5.172 2.698-2.261 0-4.221-1.1-5.173-2.698-.249-.423-.972-.423-1.227 0-.952 1.603-2.912 2.698-5.172 2.698s-4.22-1.1-5.172-2.698c-.25-.423-.973-.423-1.227 0-.952 1.603-2.912 2.698-5.173 2.698-2.26 0-4.22-1.1-5.172-2.698-.25-.423-.972-.423-1.227 0-.952 1.603-2.912 2.698-5.172 2.698-2.261 0-4.221-1.1-5.173-2.698-.249-.423-.972-.423-1.227 0-.952 1.603-2.912 2.698-5.172 2.698s-4.22-1.1-5.172-2.698c-.25-.423-.973-.423-1.227 0-.952 1.603-2.912 2.698-5.173 2.698-2.26 0-4.22-1.1-5.172-2.698-.249-.423-.972-.423-1.227 0-.952 1.603-2.912 2.698-5.172 2.698-2.261 0-4.221-1.1-5.173-2.698-.249-.423-.972-.423-1.227 0-.952 1.603-2.912 2.698-5.172 2.698s-4.22-1.1-5.172-2.698c-.25-.423-.973-.423-1.227 0-.952 1.603-2.912 2.698-5.173 2.698-2.26 0-4.22-1.1-5.172-2.698-.249-.423-.972-.423-1.227 0-.952 1.603-2.912 2.698-5.172 2.698-2.261 0-4.221-1.1-5.173-2.698-.249-.423-.972-.423-1.226 0-.952 1.603-2.912 2.698-5.173 2.698-2.26 0-4.22-1.1-5.172-2.698-.127-.214-.372-.316-.616-.316-.245 0-.489.102-.616.316-.952 1.603-2.912 2.698-5.173 2.698-2.26 0-4.22-1.1-5.172-2.698-.249-.423-.972-.423-1.227 0-.952 1.603-2.912 2.698-5.172 2.698-2.261 0-4.221-1.1-5.173-2.698-.249-.423-.972-.423-1.226 0-.952 1.603-2.912 2.698-5.173 2.698-2.26 0-4.22-1.1-5.172-2.698-.25-.423-.973-.423-1.227 0-.952 1.603-2.912 2.698-5.172 2.698-2.261 0-4.221-1.1-5.173-2.698-.249-.423-.972-.423-1.227 0-.952 1.603-2.912 2.698-5.172 2.698s-4.22-1.1-5.172-2.698c-.25-.423-.973-.423-1.227 0-.952 1.603-2.912 2.698-5.173 2.698-2.26 0-4.22-1.1-5.172-2.698-.25-.423-.972-.423-1.227 0-.952 1.603-2.912 2.698-5.172 2.698-2.261 0-4.221-1.1-5.173-2.698-.249-.423-.972-.423-1.227 0-.952 1.603-2.912 2.698-5.172 2.698s-4.22-1.1-5.172-2.698c-.25-.423-.973-.423-1.227 0-.952 1.603-2.912 2.698-5.173 2.698-2.26 0-4.22-1.1-5.172-2.698-.249-.423-.972-.423-1.227 0-.952 1.603-2.912 2.698-5.172 2.698-2.261 0-4.221-1.1-5.173-2.698-.249-.423-.972-.423-1.227 0-.952 1.603-2.912 2.698-5.172 2.698s-4.18-1.1-5.132-2.698c-.127-.214-.371-.316-.615-.316v-.005c-.245 0-.489.102-.616.315v.005z" fill="#55A1A1"/>
    </g>
    <path d="m240.045 284.862 14.312 13.892 12.087-15.574-7.76 1.885-21.956-191.393 11.289 192.071-7.972-.881z" fill="#00BABB"/>
    <path d="M187.51 60.246h1.754c.36 0 .669.053.928.161.261.108.461.267.601.478.14.212.21.471.21.78 0 .251-.043.468-.129.649a1.218 1.218 0 0 1-.359.449 1.861 1.861 0 0 1-.54.284l-.307.162h-1.525l-.006-.756h1.134c.17 0 .311-.03.423-.09a.593.593 0 0 0 .252-.253.779.779 0 0 0 .087-.375.851.851 0 0 0-.084-.39.567.567 0 0 0-.255-.253.942.942 0 0 0-.43-.087h-.785v3.946h-.969v-4.705zm2.63 4.705-1.073-2.098 1.025-.006 1.085 2.058v.046h-1.037zm4.767-.756v.756h-2.505v-.756h2.505zm-2.188-3.95v4.706h-.97v-4.705h.97zm1.861 1.917v.737h-2.178v-.737h2.178zm.323-1.916v.759h-2.501v-.76h2.501zm1.012 0h.821l1.208 3.454 1.209-3.454h.821l-1.7 4.705h-.659l-1.7-4.705zm-.443 0h.818l.148 3.367v1.338h-.966v-4.705zm4.127 0h.821v4.705h-.97v-1.338l.149-3.367zm4.828 3.949v.756h-2.505v-.756h2.505zm-2.188-3.95v4.706h-.969v-4.705h.969zm1.861 1.917v.737h-2.178v-.737h2.178zm.324-1.916v.759h-2.502v-.76h2.502zm1.011 0h.821l1.208 3.454 1.209-3.454h.821l-1.7 4.705h-.659l-1.7-4.705zm-.443 0h.818l.148 3.367v1.338h-.966v-4.705zm4.127 0h.821v4.705h-.97v-1.338l.149-3.367zm3.513 2.64h-1.209l-.006-.666h1.014c.179 0 .326-.023.44-.068a.533.533 0 0 0 .255-.203c.058-.09.087-.2.087-.33a.668.668 0 0 0-.084-.355.462.462 0 0 0-.255-.198 1.334 1.334 0 0 0-.443-.061h-.672v3.946h-.969v-4.705h1.641c.274 0 .518.025.734.077.217.052.402.13.552.236.151.106.266.24.346.4.08.16.12.35.12.57 0 .193-.044.372-.133.536a.983.983 0 0 1-.41.4c-.185.104-.428.161-.727.172l-.281.249zm-.042 2.065h-1.432l.378-.756h1.054c.17 0 .309-.027.416-.081a.556.556 0 0 0 .24-.227.678.678 0 0 0 .077-.326.845.845 0 0 0-.071-.359.476.476 0 0 0-.22-.232.824.824 0 0 0-.4-.084h-.934l.006-.666h1.164l.222.262c.287-.005.518.046.692.152a.936.936 0 0 1 .385.404 1.2 1.2 0 0 1 .122.533c0 .301-.065.556-.197.763a1.2 1.2 0 0 1-.578.462c-.252.103-.56.155-.924.155zm5.584-.756v.756h-2.505v-.756h2.505zm-2.188-3.95v4.706h-.97v-4.705h.97zm1.861 1.917v.737h-2.178v-.737h2.178zm.323-1.916v.759h-2.501v-.76h2.501zm.569 0h1.755c.36 0 .669.053.927.161.261.108.461.267.601.478.14.212.21.471.21.78 0 .251-.043.468-.129.649a1.215 1.215 0 0 1-.358.449 1.861 1.861 0 0 1-.54.284l-.307.162h-1.525l-.007-.756h1.134c.171 0 .312-.03.424-.09a.593.593 0 0 0 .252-.253.779.779 0 0 0 .087-.375.851.851 0 0 0-.084-.39.567.567 0 0 0-.255-.253.945.945 0 0 0-.43-.087h-.785v3.946h-.97v-4.705zm2.631 4.705-1.073-2.098 1.024-.006 1.086 2.058v.046h-1.037z" fill="#020072"/>
    <path d="M231.865 81.997v5.44h-1.074v-4.202l-1.29.41v-.846l2.248-.802h.116zm5.421 2.248v.94c0 .408-.043.76-.13 1.055a1.92 1.92 0 0 1-.377.724 1.48 1.48 0 0 1-.578.413c-.223.09-.472.135-.745.135-.219 0-.423-.028-.612-.082a1.544 1.544 0 0 1-.511-.265 1.695 1.695 0 0 1-.388-.451 2.366 2.366 0 0 1-.246-.657 4.004 4.004 0 0 1-.085-.872v-.94c0-.407.043-.757.13-1.047.09-.294.215-.534.377-.72.164-.187.358-.323.581-.41.224-.09.473-.135.746-.135.219 0 .421.029.608.086.189.055.359.14.511.257.151.117.281.268.388.452.106.181.188.399.246.652.057.251.085.54.085.865zm-1.077 1.082V84.1c0-.197-.011-.368-.034-.515a1.527 1.527 0 0 0-.093-.373.768.768 0 0 0-.157-.253.57.57 0 0 0-.212-.142.75.75 0 0 0-.265-.045.711.711 0 0 0-.324.071.599.599 0 0 0-.235.228 1.22 1.22 0 0 0-.149.41 3.295 3.295 0 0 0-.049.619v1.227c0 .196.01.369.03.518.022.149.055.277.097.384.045.104.097.19.157.257a.572.572 0 0 0 .212.142.783.783 0 0 0 .586-.026.62.62 0 0 0 .238-.231 1.2 1.2 0 0 0 .149-.418c.033-.172.049-.38.049-.626zm1.793-1.988v-.287c0-.206.045-.394.135-.563.089-.169.221-.305.395-.406a1.25 1.25 0 0 1 .641-.153c.261 0 .479.05.653.153a.989.989 0 0 1 .395.406c.089.17.134.357.134.563v.287c0 .201-.045.387-.134.556a.993.993 0 0 1-.392.406 1.258 1.258 0 0 1-.645.153c-.258 0-.476-.05-.652-.153a1.014 1.014 0 0 1-.395-.406 1.164 1.164 0 0 1-.135-.556zm.712-.287v.287c0 .087.017.17.049.25.035.077.087.14.157.19.072.047.159.071.261.071a.448.448 0 0 0 .261-.07.454.454 0 0 0 .149-.191.663.663 0 0 0 .048-.25v-.287a.606.606 0 0 0-.052-.254.426.426 0 0 0-.414-.265.435.435 0 0 0-.41.265.655.655 0 0 0-.049.254zm1.883 3.341v-.287c0-.204.045-.39.135-.56.092-.169.225-.304.399-.406.176-.102.392-.153.648-.153.259 0 .475.051.649.153.174.102.306.237.396.407.089.169.134.355.134.559v.287c0 .204-.045.39-.134.56a.993.993 0 0 1-.392.406 1.258 1.258 0 0 1-.645.153c-.259 0-.476-.051-.653-.153a1.039 1.039 0 0 1-.402-.407 1.172 1.172 0 0 1-.135-.559zm.716-.287v.287c0 .09.02.174.06.254a.445.445 0 0 0 .414.261.484.484 0 0 0 .28-.071.357.357 0 0 0 .138-.19.783.783 0 0 0 .041-.254v-.287a.598.598 0 0 0-.053-.25.433.433 0 0 0-.414-.265.44.44 0 0 0-.261.075.438.438 0 0 0-.152.19.598.598 0 0 0-.053.25zm.731-3.322-2.651 4.243-.522-.276 2.651-4.243.522.276zM248.491 314.275h.104c.438 0 .813-.052 1.127-.158a2.01 2.01 0 0 0 .782-.47c.204-.205.355-.454.454-.75.098-.299.147-.638.147-1.017v-1.509c0-.288-.029-.542-.087-.76a1.515 1.515 0 0 0-.241-.542 1.019 1.019 0 0 0-.361-.328.925.925 0 0 0-.448-.109.832.832 0 0 0-.465.131c-.135.084-.25.199-.345.345a1.837 1.837 0 0 0-.213.503 2.38 2.38 0 0 0-.071.585c0 .204.024.399.071.585.048.182.119.344.213.487.095.138.214.249.356.333.142.08.31.121.503.121.186 0 .352-.035.498-.104.149-.073.275-.168.377-.285a1.23 1.23 0 0 0 .241-.388c.058-.142.087-.286.087-.432l.52.284c0 .256-.055.507-.164.755a2.332 2.332 0 0 1-1.132 1.159 1.895 1.895 0 0 1-.821.181c-.372 0-.701-.068-.99-.202a2.167 2.167 0 0 1-.732-.569 2.575 2.575 0 0 1-.449-.853 3.51 3.51 0 0 1-.153-1.056c0-.386.062-.749.186-1.088.128-.339.308-.638.541-.897a2.53 2.53 0 0 1 .848-.607c.332-.149.7-.224 1.105-.224a2.45 2.45 0 0 1 1.958.902c.237.285.419.625.546 1.023.132.397.197.838.197 1.323v.547c0 .518-.056.999-.169 1.444-.11.445-.275.848-.498 1.208a3.401 3.401 0 0 1-.82.919c-.325.255-.702.45-1.132.585-.43.135-.912.203-1.444.203h-.126v-1.275zm10.675-3.483v1.378c0 .598-.063 1.114-.191 1.548-.128.43-.312.784-.552 1.061-.237.273-.52.475-.848.607a2.927 2.927 0 0 1-1.094.197 3.22 3.22 0 0 1-.897-.121 2.255 2.255 0 0 1-.749-.388 2.476 2.476 0 0 1-.569-.662 3.42 3.42 0 0 1-.361-.962 5.913 5.913 0 0 1-.125-1.28v-1.378c0-.598.063-1.11.191-1.537.131-.43.315-.782.552-1.055.241-.274.525-.474.853-.602a2.93 2.93 0 0 1 1.094-.197c.321 0 .618.042.892.126.277.08.526.206.749.377.222.172.412.392.569.662.156.266.277.585.361.957.083.368.125.791.125 1.269zm-1.58 1.586v-1.799c0-.288-.017-.54-.049-.755a2.26 2.26 0 0 0-.137-.547 1.162 1.162 0 0 0-.23-.372.835.835 0 0 0-.312-.208 1.112 1.112 0 0 0-.388-.065c-.178 0-.337.034-.476.104a.888.888 0 0 0-.344.333c-.095.15-.168.35-.219.602a4.96 4.96 0 0 0-.071.908v1.799c0 .288.015.541.044.76.033.219.08.406.142.563.066.153.142.279.23.378a.837.837 0 0 0 .311.207c.121.044.252.066.394.066.175 0 .33-.035.465-.104a.914.914 0 0 0 .35-.339c.098-.157.171-.361.219-.612.047-.252.071-.558.071-.919zm2.63-2.915v-.421c0-.303.066-.578.197-.826a1.49 1.49 0 0 1 .58-.596c.255-.149.569-.224.94-.224.383 0 .702.075.958.224.258.149.452.348.579.596.131.248.197.523.197.826v.421c0 .295-.066.567-.197.815a1.455 1.455 0 0 1-.574.596c-.255.149-.571.224-.946.224-.379 0-.698-.075-.957-.224a1.496 1.496 0 0 1-.58-.596 1.72 1.72 0 0 1-.197-.815zm1.045-.421v.421c0 .128.024.25.071.366a.685.685 0 0 0 .23.279c.105.07.233.104.382.104a.645.645 0 0 0 .383-.104.652.652 0 0 0 .219-.279.966.966 0 0 0 .071-.366v-.421a.894.894 0 0 0-.076-.372.625.625 0 0 0-.608-.388.637.637 0 0 0-.601.388.96.96 0 0 0-.071.372zm2.762 4.9v-.421c0-.299.065-.573.196-.821.135-.247.33-.446.586-.596.258-.149.576-.224.951-.224.379 0 .697.075.952.224a1.5 1.5 0 0 1 .579.596c.132.248.197.522.197.821v.421c0 .299-.065.572-.197.82a1.449 1.449 0 0 1-.574.596c-.255.15-.57.225-.946.225-.379 0-.698-.075-.957-.225a1.518 1.518 0 0 1-.591-.596 1.727 1.727 0 0 1-.196-.82zm1.05-.421v.421c0 .131.029.255.087.372a.727.727 0 0 0 .241.279.654.654 0 0 0 .366.104c.175 0 .312-.035.41-.104a.529.529 0 0 0 .203-.279c.04-.117.06-.241.06-.372v-.421a.884.884 0 0 0-.077-.367.641.641 0 0 0-.607-.388.649.649 0 0 0-.383.109.664.664 0 0 0-.224.279.884.884 0 0 0-.076.367zm1.071-4.873-3.888 6.224-.765-.405 3.888-6.224.765.405z" fill="#1B3939"/>
    <path d="m170.645 173.618-1.279 3.9h-1.031l1.748-4.705h.656l-.094.805zm1.064 3.9-1.283-3.9-.104-.805h.663l1.758 4.705h-1.034zm-.059-1.751v.759h-2.485v-.759h2.485zm5.358-2.954v4.705h-.969l-1.891-3.154v3.154h-.969v-4.705h.969l1.894 3.157v-3.157h.966zm2.815.805-1.28 3.9h-1.031l1.749-4.705h.656l-.094.805zm1.063 3.9-1.283-3.9-.103-.805h.662l1.758 4.705h-1.034zm-.058-1.751v.759h-2.485v-.759h2.485zm4.553.995v.756h-2.369v-.756h2.369zm-2.055-3.949v4.705h-.97v-4.705h.97zm2.391 0 .983 2.146.982-2.146h1.057l-1.548 2.992v1.713h-.983v-1.713l-1.551-2.992h1.06zm6.854 3.949v.756h-3.335v-.756h3.335zm-.048-3.409-2.857 4.165h-.682v-.556l2.88-4.149h.659v.54zm-.333-.54v.759h-3.202v-.759h3.202zm4.156 3.949v.756h-2.505v-.756h2.505zm-2.188-3.949v4.705h-.969v-4.705h.969zm1.861 1.916v.737h-2.178v-.737h2.178zm.324-1.916v.759h-2.502v-.759h2.502zM186.967 285.278v.756h-2.504v-.756h2.504zm-2.187-3.949v4.705h-.97v-4.705h.97zm1.861 1.916v.737h-2.178v-.737h2.178zm.323-1.916v.759h-2.501v-.759h2.501zm2.266 3.723 1.108-3.723h1.079l-1.638 4.705h-.711l.162-.982zm-1.022-3.723 1.106 3.723.168.982h-.718l-1.629-4.705h1.073zm5.316.805-1.279 3.9h-1.031l1.748-4.705h.656l-.094.805zm1.063 3.9-1.283-3.9-.103-.805h.663l1.758 4.705h-1.035zm-.058-1.751v.759h-2.485v-.759h2.485zm4.553.995v.756h-2.368v-.756h2.368zm-2.055-3.949v4.705h-.969v-4.705h.969zm5.1 0h.966v3.109c0 .362-.078.667-.233.914a1.435 1.435 0 0 1-.636.559c-.27.125-.58.188-.931.188a2.23 2.23 0 0 1-.937-.188 1.45 1.45 0 0 1-.64-.559c-.153-.247-.23-.552-.23-.914v-3.109h.97v3.109c0 .211.033.383.1.517a.641.641 0 0 0 .288.294c.127.062.276.094.449.094a.987.987 0 0 0 .449-.094.62.62 0 0 0 .284-.294c.067-.134.101-.306.101-.517v-3.109zm3.606.805-1.28 3.9h-1.031l1.749-4.705h.656l-.094.805zm1.063 3.9-1.283-3.9-.103-.805h.662l1.758 4.705h-1.034zm-.058-1.751v.759h-2.485v-.759h2.485zm3.232-2.954v4.705h-.967v-4.705h.967zm1.447 0v.759h-3.839v-.759h3.839zm3.71 3.949v.756h-2.504v-.756h2.504zm-2.188-3.949v4.705h-.969v-4.705h.969zm1.862 1.916v.737h-2.178v-.737h2.178zm.323-1.916v.759h-2.501v-.759h2.501zM249.474 352.803h.967c-.02.317-.107.598-.262.844a1.57 1.57 0 0 1-.643.575c-.274.138-.604.207-.989.207a2.03 2.03 0 0 1-.811-.155 1.733 1.733 0 0 1-.614-.453 2.026 2.026 0 0 1-.385-.711 3.079 3.079 0 0 1-.132-.933v-.327c0-.345.045-.656.135-.934.093-.28.224-.518.395-.714.172-.196.378-.347.617-.452.239-.106.506-.159.801-.159.392 0 .723.071.992.214.272.142.482.338.631.588.15.25.241.534.271.853h-.969a1.248 1.248 0 0 0-.114-.482.638.638 0 0 0-.294-.3c-.129-.069-.301-.104-.517-.104a.941.941 0 0 0-.423.091.782.782 0 0 0-.304.275 1.341 1.341 0 0 0-.184.465 3.205 3.205 0 0 0-.058.653v.333c0 .243.018.457.055.643.036.183.092.338.168.465a.77.77 0 0 0 .297.284.96.96 0 0 0 .443.094c.202 0 .369-.032.501-.097a.669.669 0 0 0 .3-.288c.071-.127.113-.285.126-.475zm1.603-3.144h1.755c.36 0 .669.054.927.162.261.107.461.267.601.478.14.211.21.471.21.779a1.5 1.5 0 0 1-.129.649 1.212 1.212 0 0 1-.359.45 1.864 1.864 0 0 1-.539.284l-.307.161h-1.525l-.007-.756h1.134a.89.89 0 0 0 .424-.09.6.6 0 0 0 .252-.252.78.78 0 0 0 .087-.375.851.851 0 0 0-.084-.391.566.566 0 0 0-.255-.252.949.949 0 0 0-.43-.087h-.785v3.945h-.97v-4.705zm2.631 4.705-1.073-2.097 1.024-.006 1.086 2.058v.045h-1.037zm4.766-.756v.756h-2.504v-.756h2.504zm-2.188-3.949v4.705h-.969v-4.705h.969zm1.862 1.916v.737h-2.178v-.737h2.178zm.323-1.916v.76h-2.501v-.76h2.501zm2.482.805-1.28 3.9h-1.031l1.748-4.705h.656l-.093.805zm1.063 3.9-1.283-3.9-.103-.805h.662l1.758 4.705h-1.034zm-.058-1.751v.759h-2.485v-.759h2.485zm3.231-2.954v4.705h-.966v-4.705h.966zm1.448 0v.76h-3.839v-.76h3.839zm3.71 3.949v.756h-2.505v-.756h2.505zm-2.188-3.949v4.705h-.969v-4.705h.969zm1.861 1.916v.737h-2.178v-.737h2.178zm.324-1.916v.76h-2.502v-.76h2.502zM352.079 230.173l-1.28 3.9h-1.031l1.748-4.705h.656l-.093.805zm1.063 3.9-1.283-3.9-.103-.805h.662l1.758 4.705h-1.034zm-.058-1.751v.759h-2.485v-.759h2.485zm3.361.074h-1.199v-.756h1.199c.185 0 .336-.03.452-.091a.578.578 0 0 0 .255-.258.947.947 0 0 0 0-.763.663.663 0 0 0-.255-.291.838.838 0 0 0-.452-.109h-.863v3.945h-.97v-4.705h1.833c.368 0 .684.067.946.2.265.132.468.314.608.547.14.232.21.498.21.798 0 .304-.07.566-.21.788-.14.222-.343.393-.608.514-.262.121-.578.181-.946.181zm4.265 0h-1.199v-.756h1.199c.185 0 .336-.03.453-.091a.578.578 0 0 0 .255-.258.947.947 0 0 0 0-.763.663.663 0 0 0-.255-.291.844.844 0 0 0-.453-.109h-.863v3.945h-.969v-4.705h1.832c.369 0 .684.067.947.2.265.132.468.314.608.547.14.232.21.498.21.798 0 .304-.07.566-.21.788-.14.222-.343.393-.608.514-.263.121-.578.181-.947.181zm5.458.921v.756H363.8v-.756h2.368zm-2.055-3.949v4.705h-.969v-4.705h.969zm2.391 0 .983 2.146.982-2.146h1.057l-1.548 2.993v1.712h-.982v-1.712l-1.552-2.993h1.06z" fill="#970707"/>
    <path d="M279.963 112.277h.966v3.109c0 .362-.077.667-.232.915a1.444 1.444 0 0 1-.637.559 2.186 2.186 0 0 1-.931.187c-.351 0-.663-.062-.937-.187a1.463 1.463 0 0 1-.64-.559c-.153-.248-.229-.553-.229-.915v-3.109h.969v3.109c0 .211.034.384.101.517a.625.625 0 0 0 .287.294 1 1 0 0 0 .449.094.978.978 0 0 0 .45-.094.62.62 0 0 0 .284-.294c.067-.133.1-.306.1-.517v-3.109zm5.594 0v4.705h-.97l-1.89-3.154v3.154h-.97v-4.705h.97l1.894 3.158v-3.158h.966zm2.288 4.705h-1.025l.007-.756h1.018c.254 0 .468-.057.643-.171.174-.116.306-.285.394-.507.091-.222.136-.49.136-.805v-.229c0-.242-.026-.454-.078-.637a1.26 1.26 0 0 0-.223-.462.929.929 0 0 0-.365-.281 1.2 1.2 0 0 0-.498-.097h-1.053v-.76h1.053c.315 0 .603.054.863.162.263.105.49.257.682.456.192.198.339.435.443.71.105.274.158.579.158.915v.223c0 .334-.053.639-.158.914a1.965 1.965 0 0 1-1.125 1.167 2.31 2.31 0 0 1-.872.158zm-.475-4.705v4.705h-.97v-4.705h.97zm6.492 3.949v.756h-2.505v-.756h2.505zm-2.188-3.949v4.705h-.969v-4.705h.969zm1.862 1.917v.736h-2.179v-.736h2.179zm.323-1.917v.76h-2.502v-.76h2.502zm.568 0h1.755c.36 0 .669.054.928.162.26.108.461.267.601.478.14.211.21.471.21.779 0 .252-.043.469-.13.649a1.22 1.22 0 0 1-.358.45 1.87 1.87 0 0 1-.54.284l-.307.162h-1.525l-.007-.757h1.135a.89.89 0 0 0 .423-.09.59.59 0 0 0 .252-.252.78.78 0 0 0 .087-.375.851.851 0 0 0-.084-.391.566.566 0 0 0-.255-.252.946.946 0 0 0-.43-.087h-.785v3.945h-.97v-4.705zm2.631 4.705-1.073-2.097 1.024-.006 1.086 2.058v.045h-1.037zm4.059-1.231a.62.62 0 0 0-.039-.226.427.427 0 0 0-.136-.187 1.17 1.17 0 0 0-.281-.172 3.945 3.945 0 0 0-.469-.174 6.026 6.026 0 0 1-.607-.233 2.47 2.47 0 0 1-.504-.3 1.354 1.354 0 0 1-.343-.404 1.114 1.114 0 0 1-.123-.534c0-.196.044-.373.13-.533.086-.161.207-.299.362-.413.155-.117.338-.206.549-.269.213-.062.447-.093.701-.093.347 0 .65.062.908.187.259.125.459.296.601.514.145.218.217.466.217.746h-.963a.732.732 0 0 0-.087-.362.593.593 0 0 0-.259-.248.911.911 0 0 0-.433-.091.997.997 0 0 0-.42.078.557.557 0 0 0-.252.203.502.502 0 0 0-.084.285c0 .079.019.152.058.216a.647.647 0 0 0 .181.181c.08.056.178.109.294.159.116.049.251.098.404.145.256.077.482.165.675.262.197.097.36.205.492.326.131.121.23.258.297.41.067.153.1.327.1.521a1.136 1.136 0 0 1-.465.96 1.627 1.627 0 0 1-.54.255 2.622 2.622 0 0 1-.701.087c-.233 0-.462-.03-.688-.09a2.108 2.108 0 0 1-.618-.282 1.417 1.417 0 0 1-.439-.478 1.371 1.371 0 0 1-.165-.688h.973c0 .146.022.27.068.371a.61.61 0 0 0 .19.246.808.808 0 0 0 .298.136c.116.028.243.042.381.042.168 0 .306-.024.414-.071a.519.519 0 0 0 .242-.197.516.516 0 0 0 .081-.285zm3.732-3.474v4.705h-.966v-4.705h.966zm1.448 0v.76h-3.839v-.76h3.839zm2.117.805-1.28 3.9h-1.031l1.748-4.705h.656l-.093.805zm1.063 3.9-1.283-3.9-.104-.805h.663l1.758 4.705h-1.034zm-.058-1.751v.759h-2.486v-.759h2.486zm5.357-2.954v4.705h-.969l-1.891-3.154v3.154h-.969v-4.705h.969l1.894 3.158v-3.158h.966zm2.288 4.705h-1.024l.006-.756h1.018c.255 0 .469-.057.643-.171.175-.116.306-.285.395-.507.09-.222.135-.49.135-.805v-.229a2.34 2.34 0 0 0-.077-.637 1.276 1.276 0 0 0-.223-.462.929.929 0 0 0-.365-.281 1.206 1.206 0 0 0-.498-.097h-1.053v-.76h1.053c.315 0 .602.054.863.162.263.105.49.257.682.456.191.198.339.435.442.71.106.274.159.579.159.915v.223c0 .334-.053.639-.159.914a2.037 2.037 0 0 1-.442.711c-.19.196-.417.348-.682.456a2.315 2.315 0 0 1-.873.158zm-.475-4.705v4.705h-.969v-4.705h.969z" fill="#020072"/>
    <circle cx="228.387" cy="64.036" r="2.774" fill="#020072"/>
    <circle cx="162.643" cy="175.356" r="2.774" fill="#970707"/>
    <circle cx="179.012" cy="287.39" r="2.774" fill="#970707"/>
    <circle cx="257.512" cy="342.816" r="2.774" fill="#970707"/>
    <circle cx="374.411" cy="231.356" r="2.774" fill="#970707"/>
    <circle cx="323.502" cy="118.8" r="2.774" fill="#020072"/>
    <path d="M530.982 231.126h-13.236v112.057h13.236V231.126z" fill="#000"/>
    <path d="M524.106 259.754h-1.832a1.55 1.55 0 0 1-.288-.326 2.121 2.121 0 0 1-.268-.576 2.991 2.991 0 0 1-.11-.872c0-.299.05-.573.149-.821.101-.248.249-.461.443-.64.193-.179.43-.316.711-.413.28-.097.6-.146.959-.146h.311c.359 0 .679.045.959.136.28.093.517.224.711.394.194.173.342.378.443.617.101.242.152.511.152.808 0 .399-.066.726-.197.983a1.436 1.436 0 0 1-.543.594 1.946 1.946 0 0 1-.789.259v-.866c.164-.024.307-.071.43-.142a.736.736 0 0 0 .291-.304c.071-.129.107-.297.107-.504a.99.99 0 0 0-.104-.462.91.91 0 0 0-.3-.336 1.455 1.455 0 0 0-.488-.207 2.904 2.904 0 0 0-.666-.068h-.317c-.252 0-.476.026-.672.077a1.482 1.482 0 0 0-.491.223.985.985 0 0 0-.301.366c-.066.146-.1.312-.1.497 0 .168.014.307.042.417.03.112.066.202.107.268a.767.767 0 0 0 .119.155h.883v-.934h.649v1.823zm2.53 1.813h-4.963v-.857h4.963v.857zm-3.25.795h.067c.257 0 .493.036.708.11.218.073.406.179.566.319.159.14.283.312.371.514.091.203.136.433.136.692 0 .263-.045.495-.136.698a1.438 1.438 0 0 1-.371.517c-.16.14-.348.247-.566.32a2.19 2.19 0 0 1-.708.11h-.067c-.255 0-.491-.037-.708-.11a1.675 1.675 0 0 1-.566-.32 1.436 1.436 0 0 1-.371-.514 1.71 1.71 0 0 1-.133-.695c0-.258.044-.49.133-.695.088-.204.212-.377.371-.517.162-.14.35-.246.566-.319a2.18 2.18 0 0 1 .708-.11zm.067.853h-.067c-.153 0-.297.015-.43.045-.134.03-.251.077-.352.139a.695.695 0 0 0-.24.242.74.74 0 0 0-.084.362c0 .138.028.257.084.356.059.099.138.18.24.242.101.065.218.112.352.142.133.03.277.046.43.046h.067c.151 0 .292-.016.424-.046.133-.03.251-.077.352-.142a.676.676 0 0 0 .333-.604.666.666 0 0 0-.333-.598 1.156 1.156 0 0 0-.352-.139 1.908 1.908 0 0 0-.424-.045zm3.183 3.176v.857h-4.191l-.772-.084v-.773h4.963zm-3.179 3.106h-.068c-.261 0-.5-.029-.718-.087a1.703 1.703 0 0 1-.565-.256 1.219 1.219 0 0 1-.369-.426 1.285 1.285 0 0 1-.129-.592c0-.215.042-.403.126-.562.084-.157.203-.29.356-.397.155-.108.337-.194.546-.259.211-.065.441-.113.691-.145h.185c.252.032.482.08.691.145.209.065.391.151.546.259.155.107.275.24.359.397.084.157.126.343.126.556 0 .228-.044.427-.132.598a1.139 1.139 0 0 1-.369.426 1.669 1.669 0 0 1-.562.256 2.75 2.75 0 0 1-.714.087zm-.068-.857h.068c.148 0 .288-.011.42-.035.133-.024.251-.063.352-.116a.627.627 0 0 0 .239-.22.648.648 0 0 0 .087-.349.795.795 0 0 0-.067-.343.665.665 0 0 0-.188-.232.93.93 0 0 0-.281-.143 1.772 1.772 0 0 0-.349-.064h-.504a1.5 1.5 0 0 0-.449.106.72.72 0 0 0-.314.249.75.75 0 0 0-.116.433c0 .138.027.253.081.346a.6.6 0 0 0 .232.22c.102.054.219.091.353.113.133.024.279.035.436.035zm-.973 3.536h1.613c.118 0 .22-.021.307-.062a.441.441 0 0 0 .2-.187.65.65 0 0 0 .071-.32.725.725 0 0 0-.058-.301.428.428 0 0 0-.404-.261v-.857c.144 0 .281.035.41.104.132.069.248.167.349.294.104.129.185.283.243.462.058.181.087.383.087.607 0 .265-.045.501-.136.708a1.074 1.074 0 0 1-.4.491c-.179.121-.404.181-.676.181h-1.525c-.175 0-.324.011-.449.032-.123.024-.23.059-.32.104h-.055v-.869c.088-.041.2-.073.336-.094.138-.022.274-.032.407-.032zm1.386.119-.507.007v-.54c0-.134-.014-.251-.042-.352a.662.662 0 0 0-.116-.249.48.48 0 0 0-.181-.146.556.556 0 0 0-.469.01.443.443 0 0 0-.165.175.608.608 0 0 0-.058.271c0 .151.03.282.091.394a.77.77 0 0 0 .226.262.479.479 0 0 0 .252.1l-.368.246a1.469 1.469 0 0 1-.282-.136 1.248 1.248 0 0 1-.491-.575 1.198 1.198 0 0 1-.084-.465c0-.227.045-.429.136-.608.09-.179.214-.32.372-.423a.949.949 0 0 1 .536-.155c.185 0 .349.034.491.103a.943.943 0 0 1 .359.307c.099.136.173.304.223.504.052.203.077.434.077.695v.575zm2.834 2.546h-4.963v-.856h4.963v.856zm-3.742 5.255a.658.658 0 0 0 .243-.042.452.452 0 0 0 .197-.146c.06-.069.118-.167.174-.294.059-.125.119-.286.181-.485.069-.219.147-.424.233-.614a2.37 2.37 0 0 1 .301-.5c.114-.143.245-.254.394-.333a1.1 1.1 0 0 1 .523-.12c.194 0 .371.041.53.123.16.084.296.202.411.355.116.153.205.333.268.54.062.209.094.44.094.692 0 .349-.064.65-.191.904-.127.257-.3.455-.517.595-.218.14-.462.21-.734.21v-.885a.787.787 0 0 0 .388-.094c.112-.06.2-.153.265-.278a.99.99 0 0 0 .097-.465c0-.181-.027-.332-.081-.453a.615.615 0 0 0-.219-.268.577.577 0 0 0-.311-.087.444.444 0 0 0-.232.061.7.7 0 0 0-.191.184 1.701 1.701 0 0 0-.165.304 5.707 5.707 0 0 0-.149.427 4.425 4.425 0 0 1-.258.678 1.98 1.98 0 0 1-.323.488c-.121.132-.257.23-.407.294a1.254 1.254 0 0 1-.514.101c-.203 0-.384-.04-.543-.12a1.152 1.152 0 0 1-.407-.343 1.598 1.598 0 0 1-.256-.536 2.571 2.571 0 0 1-.087-.695c0-.228.03-.454.091-.678a2.05 2.05 0 0 1 .278-.605c.125-.181.282-.325.471-.433a1.36 1.36 0 0 1 .673-.161v.892a.92.92 0 0 0-.382.071.68.68 0 0 0-.255.207.912.912 0 0 0-.142.316 1.62 1.62 0 0 0-.045.391c0 .181.024.33.074.446a.58.58 0 0 0 .213.265.543.543 0 0 0 .31.091zm3.484 3.729h-4.705v-.886h4.705v.886zm0 1.46h-.701v-3.79h.701v3.79zm-4.007 3.843h-.698v-2.502h.698v2.502zm4.007-2.23h-4.705v-.889h4.705v.889zm-1.942 1.903h-.682v-2.175h.682v2.175zm1.942.317h-.701v-2.492h.701v2.492zm-.714 2.63-3.991-1.341v-.94l4.705 1.758v.601l-.714-.078zm-3.991 1.122 3.991-1.348.714-.081v.604l-4.705 1.768v-.943zm1.748-.062h-.701v-2.524h.701v2.524zm2.957 2.01v.769l-3.542 1.286 3.542 1.283v.773l-4.705-1.749v-.617l4.705-1.745zm0-.388v.753l-3.254.136h-1.451v-.889h4.705zm0 4.13v.756h-4.705v-.888h1.451l3.254.132zm0 5.432h-4.705v-.885h4.705v.885zm0 1.461h-.701v-3.791h.701v3.791zm-1.923 1.286h-2.782v-.853h3.496v.808l-.714.045zm.737 1.063-.795-.013a.985.985 0 0 0-.029-.672.653.653 0 0 0-.152-.249.676.676 0 0 0-.246-.149 1.081 1.081 0 0 0-.323-.058l.023-.184c.222 0 .428.023.617.068.19.045.356.111.498.197a.943.943 0 0 1 .329.323.906.906 0 0 1 .107.604.512.512 0 0 1-.029.133zm-2.776 2.417h1.613c.118 0 .22-.02.307-.061a.444.444 0 0 0 .2-.188.648.648 0 0 0 .071-.32.72.72 0 0 0-.058-.3.429.429 0 0 0-.404-.262v-.856c.144 0 .281.034.41.103.132.069.248.167.349.294.104.129.185.283.243.462.058.181.087.384.087.608 0 .265-.045.501-.136.707a1.082 1.082 0 0 1-.4.492c-.179.12-.404.181-.676.181h-1.525c-.175 0-.324.01-.449.032-.123.024-.23.058-.32.103h-.055v-.869c.088-.041.2-.072.336-.094.138-.021.274-.032.407-.032zm1.386.12-.507.006v-.54c0-.133-.014-.251-.042-.352a.669.669 0 0 0-.116-.249.478.478 0 0 0-.181-.145.556.556 0 0 0-.236-.049.466.466 0 0 0-.233.059.447.447 0 0 0-.165.174.612.612 0 0 0-.058.272.78.78 0 0 0 .317.656.496.496 0 0 0 .252.1l-.368.245a1.46 1.46 0 0 1-.282-.135 1.276 1.276 0 0 1-.277-.233 1.168 1.168 0 0 1-.298-.808c0-.226.045-.429.136-.608.09-.178.214-.319.372-.423a.956.956 0 0 1 .536-.155c.185 0 .349.035.491.103a.951.951 0 0 1 .359.307c.099.136.173.304.223.505a2.8 2.8 0 0 1 .077.694v.576zm-1.522 3.076c0 .121.024.228.071.323a.572.572 0 0 0 .501.32v.805a1.137 1.137 0 0 1-.636-.201 1.362 1.362 0 0 1-.446-.517 1.563 1.563 0 0 1-.162-.717c0-.27.045-.504.136-.705.09-.2.216-.367.378-.501a1.69 1.69 0 0 1 .562-.297c.214-.065.442-.097.685-.097h.104c.243 0 .472.032.685.097.213.067.401.166.562.297.162.134.288.301.378.501.091.201.136.434.136.702 0 .282-.055.53-.165.743-.11.215-.265.383-.465.504a1.377 1.377 0 0 1-.708.191v-.805a.766.766 0 0 0 .336-.084.617.617 0 0 0 .239-.22.626.626 0 0 0 .091-.346.668.668 0 0 0-.091-.362.63.63 0 0 0-.248-.223 1.24 1.24 0 0 0-.349-.109 2.592 2.592 0 0 0-.401-.029h-.104c-.142 0-.278.009-.407.029a1.24 1.24 0 0 0-.349.109.642.642 0 0 0-.242.223.69.69 0 0 0-.091.369zm4.36 3.002h-4.967v-.853h4.967v.853zm-1.471 2.191-1.709-1.522-.837-.824.662-.272.802.637 1.082.95v1.031zm-3.496-.873 1.629-1.082.552.568-2.181 1.503v-.989zM451.564 98.763c9.841 0 17.818-7.978 17.818-17.818 0-9.84-7.977-17.818-17.818-17.818-9.84 0-17.818 7.977-17.818 17.818 0 9.84 7.978 17.818 17.818 17.818z" fill="#fff"/>
    <path d="M446.622 78.237h-.682v3.779h.397c.622 0 1.311-.033 2.112-.179l-.073-.582c-.649.119-1.225.165-1.754.178v-3.196zm3.488-.688v2.375h-.708v-2.256h-.642v5.559h.642v-2.74h.708v3.038h.648v-5.977h-.648zm6.71.006h-.682v4.368h.682v-4.368zm-1.304 2.886c-.92-.318-1.442-1.119-1.442-1.966v-.596h-.695v.596c0 .874-.523 1.727-1.463 2.072l.351.549c.701-.265 1.198-.808 1.469-1.476a2.425 2.425 0 0 0 1.43 1.363l.35-.542zm-1.912 2.415v-1.343h-.689v1.9h4.077v-.557h-3.388z" fill="#000"/>
    <path d="M451.564 159.854c9.841 0 17.818-7.977 17.818-17.818 0-9.841-7.977-17.818-17.818-17.818-9.84 0-17.818 7.977-17.818 17.818 0 9.841 7.978 17.818 17.818 17.818z" fill="#fff"/>
    <path d="M450.844 140.843c-1.204-.172-2.104-.92-2.104-1.694v-.318h-.722v.318c0 .788-.886 1.522-2.104 1.694l.265.55c.992-.159 1.82-.656 2.203-1.351.391.689 1.205 1.192 2.198 1.351l.264-.55zm.232 1.112h-5.4v.556h2.342v2.111h.682v-2.111h2.376v-.556zm5.612-1.727h-3.402v-1.476h-.682v2.025h4.084v-.549zm-2.105 3.845c-.873 0-1.363-.205-1.363-.569 0-.378.49-.569 1.363-.569.874 0 1.37.191 1.37.569 0 .364-.496.569-1.37.569zm0-1.675c-1.277 0-2.058.404-2.058 1.106 0 .695.781 1.098 2.058 1.098 1.284 0 2.058-.403 2.058-1.098 0-.702-.774-1.106-2.058-1.106zm-2.687-1.019v.556h5.407v-.556h-5.407z" fill="#000"/>
    <path d="M451.564 220.944c9.841 0 17.818-7.977 17.818-17.818 0-9.84-7.977-17.818-17.818-17.818-9.84 0-17.818 7.978-17.818 17.818 0 9.841 7.978 17.818 17.818 17.818z" fill="#D6E8E8"/>
    <path d="M446.099 200.313h-1.423v-.616h-.681v.616h-1.423v.542h3.527v-.542zm-2.561 1.892c0-.357.318-.569.794-.569.477 0 .801.212.801.569 0 .351-.324.563-.801.563-.476 0-.794-.212-.794-.563zm2.244 0c0-.655-.589-1.092-1.45-1.092-.86 0-1.449.437-1.449 1.092 0 .649.589 1.086 1.449 1.086.861 0 1.45-.437 1.45-1.086zm-2.482 2.105h3.249v1.396h.682v-1.945H443.3v.549zm4.778-2.978h-.847v-1.602h-.682v3.739h.682v-1.575h.847v-.562zm4.487.49h.629v1.581h.648v-3.666h-.648v1.529h-.629v-1.423h-.642v3.368h.642v-1.389zm-.781.648c-.774-.304-1.165-.96-1.165-1.621v-.755h-.662v.755c0 .681-.403 1.429-1.204 1.793l.357.523c.576-.251.966-.715 1.185-1.264.225.476.595.874 1.125 1.079l.364-.51zm.066 2.714c-.84 0-1.343-.206-1.343-.57 0-.37.503-.575 1.343-.575.841 0 1.344.205 1.344.575 0 .364-.503.57-1.344.57zm0-1.668c-1.244 0-2.025.41-2.025 1.098 0 .682.781 1.092 2.025 1.092 1.244 0 2.025-.41 2.025-1.092 0-.688-.781-1.098-2.025-1.098zm7.22-1.489h-2.733v-.761h2.733v.761zm.682-2.065h-.682v.754h-2.733v-.754h-.682v2.614h4.097v-2.614zm.668 3.263H455v.549h2.349v1.939h.682v-1.939h2.389v-.549z" fill="#000"/>
    <path d="M451.564 282.036c9.841 0 17.818-7.978 17.818-17.818 0-9.841-7.977-17.819-17.818-17.819-9.84 0-17.818 7.978-17.818 17.819 0 9.84 7.978 17.818 17.818 17.818z" fill="#D6E8E8"/>
    <path d="M448.038 263.634h-1.436v-1.773h1.436v1.773zm1.906-1.257v.728H448.7v-.728h1.244zm-1.244 1.277h1.244v1.529h.682v-4.362h-.682v1H448.7v-.503h-2.766v2.859h2.766v-.523zm-1.277 2.475v-1.343h-.689v1.899h4.031v-.556h-3.342zm8.027-2.607c-.893-.311-1.403-1.053-1.403-1.794v-.033h1.244v-.556h-3.196v.556h1.264v.04c0 .801-.543 1.595-1.469 1.912l.35.537a2.452 2.452 0 0 0 1.476-1.41 2.394 2.394 0 0 0 1.397 1.284l.337-.536zm.715 2.654h-2.528v-.642h2.528v.642zm0-1.178h-2.528v-.649h-.675v2.376h3.885v-2.376h-.682v.649zm-.007-4.177v1.397h-1.052v.562h1.052v1.304h.689v-3.263h-.689z" fill="#000"/>
    <path d="M451.564 343.127c9.841 0 17.818-7.978 17.818-17.818 0-9.841-7.977-17.818-17.818-17.818-9.84 0-17.818 7.977-17.818 17.818 0 9.84 7.978 17.818 17.818 17.818z" fill="#D6E8E8"/>
    <path d="M444.657 323.07h1.264v-.562h-3.25v.562h1.304v.576c0 .993-.609 2.125-1.522 2.561l.39.543c.689-.337 1.218-1.052 1.483-1.886.271.754.781 1.416 1.449 1.734l.377-.536c-.906-.43-1.495-1.489-1.495-2.416v-.576zm3.468 1.198h-.934v-2.356h-.681v5.977h.681v-3.058h.934v-.563zm5.843.47c-1.178-.198-2.138-1.085-2.138-2.012v-.45h-.721v.45c0 .92-.96 1.814-2.144 2.012l.291.569c.973-.192 1.82-.787 2.217-1.581.384.794 1.231 1.389 2.21 1.581l.285-.569zm-2.164 1.847v-1.397h-.682v1.397h-2.336v.562h5.414v-.562h-2.396zm5.367-4.19h-.689v.987c0 1.118-.582 2.27-1.515 2.726l.43.543c.682-.351 1.171-1.046 1.436-1.893.258.801.741 1.456 1.416 1.794l.404-.55c-.913-.423-1.482-1.509-1.482-2.62v-.987zm2.111-.496v1.966h-1.278v.556h1.278v3.474h.688v-5.996h-.688zM438.097 53.383h1.661v-.599h-2.381v4.141h.428c.905 0 1.568-.028 2.345-.178l-.065-.606c-.662.136-1.247.171-1.988.178v-2.936zm3.856-1.369v2.545h-.763v-2.41h-.691v5.988h.691v-2.98h.763v3.293h.698v-6.436h-.698zm6.478.008v3.456h.734v-3.456h-.734zm-3.471 3.756v2.601h4.205v-2.601h-.727v.712h-2.751v-.712h-.727zm.727 1.282h2.751v.727h-2.751v-.727zm.007-4.746c-.983 0-1.71.613-1.71 1.496 0 .884.727 1.497 1.71 1.497.984 0 1.704-.613 1.704-1.497 0-.883-.72-1.496-1.704-1.496zm0 .606c.577 0 .991.356.991.89 0 .542-.414.891-.991.891-.584 0-.991-.349-.991-.89 0-.535.407-.891.991-.891z" fill="#000"/>
    <path d="M453.256 52.171v6.25h.52v-6.25h-.52z" fill="#000" fill-opacity=".6"/>
    <path d="M460.575 53.64v.598h1.14v1.618h.734v-3.834h-.734v1.617h-1.14zm.37 1.432c-.962-.335-1.511-1.133-1.511-1.939v-.085h1.34v-.592h-3.442v.592h1.361v.093c0 .883-.577 1.739-1.575 2.095l.378.584c.762-.27 1.304-.84 1.589-1.546.271.62.784 1.126 1.497 1.375l.363-.577zm-.634 2.822c-.919 0-1.44-.228-1.44-.648 0-.42.521-.649 1.44-.649.905 0 1.433.228 1.433.649 0 .42-.528.648-1.433.648zm0-1.867c-1.347 0-2.174.456-2.174 1.219 0 .77.827 1.219 2.174 1.219 1.34 0 2.167-.45 2.167-1.22 0-.762-.827-1.218-2.167-1.218zm5.737-3.47h-.734v1.054c0 1.24-.67 2.473-1.696 2.936l.434.613c.777-.377 1.347-1.14 1.64-2.074.292.87.855 1.583 1.596 1.932l.428-.585c-1.012-.456-1.668-1.639-1.668-2.822v-1.055zm2.181-.543v6.458h.741v-6.458h-.741z" fill="#020072"/>
    <rect x="475.492" y="307.491" width="35.636" height="35.636" rx="6.109" fill="#D6E8E8"/>
    <path d="M489.513 318.991h1.264v-.562h-3.249v.562h1.303v.576c0 .993-.609 2.125-1.522 2.561l.391.543c.688-.337 1.217-1.052 1.482-1.886.271.754.781 1.416 1.449 1.734l.378-.536c-.907-.43-1.496-1.489-1.496-2.416v-.576zm3.468 1.198h-.933v-2.356h-.682v5.976h.682v-3.057h.933v-.563zm3.355-1.588c.854 0 1.416.291 1.416.768 0 .483-.562.774-1.416.774-.861 0-1.423-.291-1.423-.774 0-.477.562-.768 1.423-.768zm0 2.091c1.257 0 2.118-.516 2.118-1.323 0-.801-.861-1.317-2.118-1.317-1.264 0-2.125.516-2.125 1.317 0 .807.861 1.323 2.125 1.323zm2.72.51h-5.42v.562h1.323v2.045h.695v-2.045h1.363v2.045h.695v-2.045h1.351l-.007-.562zm-11.211 6.214h-1.422v-.616h-.682v.616h-1.423v.542h3.527v-.542zm-2.561 1.892c0-.357.318-.569.794-.569.477 0 .801.212.801.569 0 .351-.324.563-.801.563-.476 0-.794-.212-.794-.563zm2.244 0c0-.655-.589-1.092-1.45-1.092-.86 0-1.449.437-1.449 1.092 0 .649.589 1.086 1.449 1.086.861 0 1.45-.437 1.45-1.086zm-2.482 2.105h3.25v1.396h.681v-1.945h-3.931v.549zm4.778-2.978h-.847v-1.602h-.681v3.739h.681v-1.575h.847v-.562zm4.977 2.813h.681v-4.415h-.681v.728h-1.589v.543h1.589v.589h-1.589v.543h1.589v2.012zm-.927-1.602c-.827.146-1.549.192-2.323.198v-2.6h-.682v3.163h.464c.887 0 1.681-.04 2.607-.205l-.066-.556zm-1.588 2.495v-1.284h-.682v1.84h4.031v-.556h-3.349zm6.28-4.097h.986v-.562h-2.7v.562h1.052v.43c0 1.066-.397 2.145-1.244 2.674l.41.503c.576-.364.96-1.006 1.172-1.76.211.695.582 1.284 1.145 1.615l.397-.497c-.834-.483-1.218-1.515-1.218-2.535v-.43zm1.429.887h-.88v.556h.88v3.031h.642v-5.572h-.642v1.985zm1.205-2.104v5.976h.649v-5.976h-.649z" fill="#000"/>
    <rect x="475.492" y="246.4" width="35.636" height="35.636" rx="6.109" fill="#D6E8E8"/>
    <path d="M486.476 257.225h-.689v.987c0 1.118-.582 2.27-1.515 2.726l.43.543c.682-.351 1.171-1.046 1.436-1.893.258.801.741 1.456 1.416 1.794l.404-.55c-.913-.423-1.482-1.509-1.482-2.62v-.987zm2.111-.496v1.966h-1.278v.556h1.278v3.474h.688v-5.996h-.688zm7.067 1.588c-1.197-.119-2.071-.708-2.071-1.376v-.172h-.702v.172c0 .668-.873 1.257-2.071 1.376l.232.523c.992-.119 1.806-.529 2.19-1.125.384.596 1.198 1.006 2.191 1.125l.231-.523zm.285 1.39v-.542h-5.414v.542h2.356v.503h-1.714v.517h3.422v.443h-3.408v1.496h4.248v-.523h-3.573v-.49h3.401v-1.443h-1.687v-.503h2.369zm5.082.874h.682v-3.839h-.682v1.377h-.9v.556h.9v.629h-.913v.549h.913v.728zm-.94-3.236h-1.29v-.656h-.682v.656h-1.343v.542h3.315v-.542zm-2.369 1.919c0-.364.298-.596.741-.596.437 0 .735.232.735.596 0 .377-.298.602-.735.602-.443 0-.741-.225-.741-.602zm2.111 0c0-.662-.562-1.112-1.37-1.112-.814 0-1.376.45-1.376 1.112 0 .668.562 1.118 1.376 1.118.808 0 1.37-.45 1.37-1.118zm-.099 2.932c-.821 0-1.304-.179-1.304-.516 0-.338.483-.51 1.304-.51.807 0 1.291.172 1.291.51 0 .337-.484.516-1.291.516zm0-1.549c-1.251 0-2.018.384-2.018 1.033 0 .655.767 1.039 2.018 1.039 1.238 0 2.012-.384 2.012-1.039 0-.649-.774-1.033-2.012-1.033zm-14.069 9.146h-.675v1.813h4.169v-.556h-3.494v-1.257zm1.701-.986v-.795h1.747v-.549h-3.408v-1.522h-.682v2.071h1.661v.795h-2.363v.556h5.407v-.556h-2.362zm8.298-1.49c-1.197-.119-2.071-.708-2.071-1.376v-.172h-.702v.172c0 .668-.873 1.257-2.071 1.376l.232.523c.992-.119 1.806-.529 2.19-1.125.384.596 1.198 1.006 2.191 1.125l.231-.523zm.285 1.39v-.542h-5.414v.542h2.356v.503h-1.714v.517h3.422v.443h-3.408v1.496h4.248v-.523h-3.573v-.49h3.401v-1.443h-1.687v-.503h2.369zm5.082.874h.682v-3.839h-.682v1.377h-.9v.556h.9v.629h-.913v.549h.913v.728zm-.94-3.236h-1.29v-.656h-.682v.656h-1.343v.542h3.315v-.542zm-2.369 1.919c0-.364.298-.596.741-.596.437 0 .735.232.735.596 0 .377-.298.602-.735.602-.443 0-.741-.225-.741-.602zm2.111 0c0-.662-.562-1.112-1.37-1.112-.814 0-1.376.45-1.376 1.112 0 .668.562 1.118 1.376 1.118.808 0 1.37-.45 1.37-1.118zm-.099 2.932c-.821 0-1.304-.179-1.304-.516 0-.338.483-.51 1.304-.51.807 0 1.291.172 1.291.51 0 .337-.484.516-1.291.516zm0-1.549c-1.251 0-2.018.384-2.018 1.033 0 .655.767 1.039 2.018 1.039 1.238 0 2.012-.384 2.012-1.039 0-.649-.774-1.033-2.012-1.033z" fill="#000"/>
    <rect x="475.492" y="184.8" width="35.636" height="35.636" rx="6.109" fill="#D6E8E8"/>
    <path d="M492.59 197.346c-1.204-.172-2.104-.92-2.104-1.694v-.318h-.722v.318c0 .787-.886 1.522-2.104 1.694l.265.549c.992-.158 1.82-.655 2.203-1.35.391.689 1.205 1.192 2.198 1.35l.264-.549zm.232 1.112h-5.4v.556h2.342v2.111h.682v-2.111h2.376v-.556zm4.606-1.198h.622v1.648h.649v-3.772h-.649v1.562h-.622v-1.45h-.636v3.461h.636v-1.449zm-.841-1.449h-1.151v-.616h-.669v.616h-1.158v.536h2.978v-.536zm-2.151 1.826c0-.324.265-.536.669-.536.397 0 .675.212.675.536 0 .325-.278.536-.675.536-.404 0-.669-.211-.669-.536zm1.953 0c0-.615-.53-1.032-1.284-1.032-.748 0-1.277.417-1.277 1.032 0 .622.529 1.033 1.277 1.033.754 0 1.284-.411 1.284-1.033zm.324 2.965c-.854 0-1.343-.192-1.343-.549 0-.357.489-.543 1.343-.543.86 0 1.337.186 1.337.543 0 .357-.477.549-1.337.549zm0-1.608c-1.264 0-2.025.384-2.025 1.059 0 .675.761 1.065 2.025 1.065 1.264 0 2.019-.39 2.019-1.065 0-.675-.755-1.059-2.019-1.059zm-5.023 8.821h.682v-3.673h-.682v1.019h-.867v.55h.867v.542h-.867v.55h.867v1.012zm-2.912-2.693h.761v1.8c-.258.013-.509.02-.761.026v-1.826zm2.092 1.694c-.219.026-.444.053-.675.06v-1.754h.536v-.556h-3.151v.556h.543v1.84h-.701l.079.562c.96 0 2.283-.02 3.408-.212l-.039-.496zm-.49 2.78c-.854 0-1.33-.206-1.33-.57 0-.377.476-.575 1.33-.575.854 0 1.337.198 1.337.575 0 .364-.483.57-1.337.57zm0-1.675c-1.251 0-2.012.404-2.012 1.105 0 .689.761 1.092 2.012 1.092s2.019-.403 2.019-1.092c0-.701-.768-1.105-2.019-1.105zm3.553-3.15v.556h2.092c-.139 1.377-.927 2.429-2.389 3.177l.377.522c1.952-.986 2.693-2.521 2.693-4.255h-2.773zm5.242 1.727h-.907v-2.362h-.681v5.976h.681v-3.044h.907v-.57z" fill="#000"/>
    <rect x="475.492" y="63.127" width="35.636" height="96.727" rx="6.109" fill="#D6E8E8"/>
    <rect x="479.056" y="66.182" width="28.509" height="90.618" rx="4.582" fill="#fff"/>
    <path d="M491.551 74.614c0 .715 0 1.562-.231 2.734l.688.073c.232-1.238.232-2.065.232-2.807v-.589h-4.256v.556h3.567v.033zm-1.429 3.488v-2.104h-.688v2.104h-2.012v.563h5.4v-.563h-2.7zm7.676-3.448c0 .728 0 1.535-.211 2.627l.681.08c.212-1.158.212-1.96.212-2.707v-.629h-4.302v.556h3.62v.073zm-.761 3.448V76.17h-.675v1.932h-.801V76.17h-.675v1.932h-1.244v.563h5.401v-.563h-2.006zm-9.192 4.95h-1.422v-.616h-.682v.616h-1.423v.542h3.527v-.542zm-2.561 1.893c0-.358.318-.57.794-.57.477 0 .801.212.801.57 0 .35-.324.562-.801.562-.476 0-.794-.212-.794-.562zm2.244 0c0-.656-.589-1.092-1.45-1.092-.86 0-1.449.436-1.449 1.092 0 .648.589 1.085 1.449 1.085.861 0 1.45-.437 1.45-1.085zm-2.482 2.104h3.25v1.397h.681V86.5h-3.931v.55zm4.778-2.978h-.847v-1.602h-.681v3.74h.681v-1.575h.847v-.563zm4.255 1.191c-.887-.31-1.396-1.059-1.396-1.8v-.1h1.244v-.548h-3.197v.549h1.265v.1c0 .813-.543 1.6-1.47 1.925l.351.536a2.452 2.452 0 0 0 1.476-1.41 2.327 2.327 0 0 0 1.396 1.278l.331-.53zm-1.853 1.496h2.588v1.072h-2.588v-1.072zm-.668 1.615h3.924v-2.158h-3.924v2.158zm3.243-5.91v1.456h-1.059v.556h1.059v1.469h.681v-3.481h-.681zm3.765 1.218h.986v-.563h-2.7v.563h1.052v.43c0 1.065-.397 2.144-1.244 2.673l.41.503c.576-.364.96-1.006 1.172-1.76.211.695.582 1.284 1.145 1.615l.397-.496c-.834-.484-1.218-1.516-1.218-2.535v-.43zm1.429.886h-.88v.556h.88v3.031h.642v-5.572h-.642v1.985zm1.205-2.104v5.976h.649v-5.976h-.649zM490.631 135.781v.556h1.053v1.224h.688v-3.064h-.688v1.284h-1.053zm.318 1.217c-.88-.278-1.396-.939-1.396-1.614v-.067h1.251v-.549h-3.197v.549h1.257v.06c0 .708-.542 1.449-1.456 1.754l.331.529a2.395 2.395 0 0 0 1.476-1.31c.258.536.748.966 1.416 1.178l.318-.53zm-1.787 2.879v-.529h3.21v-1.516h-3.891v.536h3.216v.477h-3.21v1.568h4.084v-.536h-3.409zm5.347-4.116h1.542v-.556h-2.21v3.845h.397c.84 0 1.456-.026 2.177-.165l-.059-.563c-.616.126-1.159.159-1.847.166v-2.727zm3.581-1.271v2.363h-.709v-2.237h-.641v5.559h.641v-2.766h.709v3.057h.648v-5.976h-.648zm-6.4 12.68h.682v-3.673h-.682v1.019h-.867v.549h.867v.543h-.867v.549h.867v1.013zm-2.912-2.694h.761v1.8c-.258.014-.509.02-.761.027v-1.827zm2.092 1.695a7.665 7.665 0 0 1-.675.059v-1.754h.536v-.556h-3.151v.556h.543v1.84h-.701l.079.563c.96 0 2.283-.02 3.408-.212l-.039-.496zm-.49 2.779c-.854 0-1.33-.205-1.33-.569 0-.377.476-.576 1.33-.576.854 0 1.337.199 1.337.576 0 .364-.483.569-1.337.569zm0-1.674c-1.251 0-2.012.403-2.012 1.105 0 .688.761 1.092 2.012 1.092s2.019-.404 2.019-1.092c0-.702-.768-1.105-2.019-1.105zm3.553-3.151v.556h2.092c-.139 1.377-.927 2.429-2.389 3.177l.377.523c1.952-.986 2.693-2.522 2.693-4.256h-2.773zm5.242 1.728h-.907v-2.363h-.681v5.976h.681v-3.044h.907v-.569z" fill="#000"/>
    <rect x="116.074" y="325.309" width="35.636" height="35.636" rx="6.109" fill="#A01717"/>
    <path d="M121.164 336.413h.769l1.286 3.541 1.283-3.541h.773l-1.749 4.705h-.617l-1.745-4.705zm-.388 0h.753l.136 3.254v1.451h-.889v-4.705zm4.13 0h.756v4.705h-.888v-1.451l.132-3.254zm3.723.714-1.341 3.991h-.941l1.758-4.705h.601l-.077.714zm1.121 3.991-1.347-3.991-.081-.714h.604l1.768 4.705h-.944zm-.061-1.749v.702h-2.524v-.702h2.524zm4.084.527a.657.657 0 0 0-.042-.242.45.45 0 0 0-.145-.197 1.143 1.143 0 0 0-.294-.175 4.246 4.246 0 0 0-.485-.181 5.42 5.42 0 0 1-.614-.232 2.437 2.437 0 0 1-.501-.301 1.293 1.293 0 0 1-.333-.394 1.115 1.115 0 0 1-.119-.524c0-.194.041-.37.123-.53.084-.159.202-.296.355-.41.153-.116.333-.206.54-.268.209-.063.439-.094.691-.094.349 0 .651.063.905.191.256.127.455.299.595.517.14.217.21.462.21.733h-.886a.79.79 0 0 0-.093-.388.643.643 0 0 0-.278-.265 1.003 1.003 0 0 0-.466-.097c-.181 0-.331.027-.452.081a.605.605 0 0 0-.268.22.566.566 0 0 0-.088.31c0 .086.021.164.062.233a.7.7 0 0 0 .184.191c.082.058.183.113.304.164.123.05.265.099.426.149.259.078.485.164.679.259.196.094.359.202.488.323a1.186 1.186 0 0 1 .394.921c0 .202-.04.383-.119.543-.08.159-.194.295-.343.407a1.587 1.587 0 0 1-.536.255 2.577 2.577 0 0 1-.695.087c-.229 0-.455-.03-.679-.09a2.07 2.07 0 0 1-.604-.278 1.418 1.418 0 0 1-.433-.472 1.348 1.348 0 0 1-.162-.672h.892c0 .149.024.276.071.381.05.104.119.189.207.256a.936.936 0 0 0 .317.142c.12.03.251.045.391.045.181 0 .329-.025.446-.074a.547.547 0 0 0 .355-.524zm3.729-3.483v4.705h-.885v-4.705h.885zm1.461 0v.701h-3.791v-.701h3.791zm3.842 4.007v.698h-2.501v-.698h2.501zm-2.23-4.007v4.705h-.888v-4.705h.888zm1.904 1.942v.682h-2.175v-.682h2.175zm.316-1.942v.701h-2.491v-.701h2.491zm.76 0h1.709c.358 0 .665.053.921.161.257.108.454.267.592.478.137.212.206.471.206.779 0 .244-.043.455-.129.634a1.243 1.243 0 0 1-.365.449c-.155.12-.338.215-.549.284l-.278.142h-1.509l-.007-.701h1.128a.956.956 0 0 0 .456-.097.637.637 0 0 0 .271-.268.807.807 0 0 0 .094-.391.852.852 0 0 0-.091-.407.608.608 0 0 0-.274-.268 1.017 1.017 0 0 0-.466-.094h-.821v4.004h-.888v-4.705zm2.656 4.705-1.089-2.107.94-.004 1.102 2.065v.046h-.953zm-16.059 6.835-.681-.165.261-2.375h2.589v.707h-1.881l-.123 1.099c.067-.041.164-.082.291-.123.129-.043.275-.064.436-.064.224 0 .425.036.601.109.177.072.327.175.45.311.124.135.218.301.281.497.064.194.097.414.097.66 0 .215-.033.417-.097.607a1.448 1.448 0 0 1-.288.501 1.382 1.382 0 0 1-.488.343 1.8 1.8 0 0 1-.691.122c-.201 0-.394-.029-.579-.087a1.614 1.614 0 0 1-.494-.262 1.325 1.325 0 0 1-.353-.426 1.38 1.38 0 0 1-.142-.579h.844a.872.872 0 0 0 .116.369.63.63 0 0 0 .246.232.762.762 0 0 0 .358.081.605.605 0 0 0 .54-.265.892.892 0 0 0 .129-.297c.028-.114.042-.239.042-.375 0-.131-.016-.251-.048-.359a.786.786 0 0 0-.149-.284.66.66 0 0 0-.252-.184.87.87 0 0 0-.349-.065c-.179 0-.317.027-.414.081a1.195 1.195 0 0 0-.252.191zm3.148 1.748c0-.129.044-.238.132-.327a.487.487 0 0 1 .359-.132c.151 0 .27.044.359.132a.447.447 0 0 1 .132.327.44.44 0 0 1-.132.323.494.494 0 0 1-.359.129.494.494 0 0 1-.359-.129.44.44 0 0 1-.132-.323zm5.047-2.34v.792c0 .362-.036.671-.11.927a1.677 1.677 0 0 1-.316.631 1.266 1.266 0 0 1-.495.358 1.72 1.72 0 0 1-.64.113c-.187 0-.361-.023-.523-.071a1.322 1.322 0 0 1-.436-.226 1.43 1.43 0 0 1-.33-.394c-.09-.16-.16-.35-.21-.572a3.72 3.72 0 0 1-.071-.766v-.792c0-.362.037-.67.11-.924.075-.254.182-.462.32-.624a1.21 1.21 0 0 1 .494-.352c.192-.075.405-.113.64-.113.19 0 .364.024.524.071a1.265 1.265 0 0 1 .762.611c.091.157.16.347.207.569.05.219.074.473.074.762zm-.853.908v-1.027a3.07 3.07 0 0 0-.032-.472 1.542 1.542 0 0 0-.087-.346.69.69 0 0 0-.146-.229.528.528 0 0 0-.2-.133.715.715 0 0 0-.249-.042.657.657 0 0 0-.301.068.548.548 0 0 0-.222.207 1.112 1.112 0 0 0-.139.378 2.964 2.964 0 0 0-.046.569v1.027c0 .181.01.34.029.475.022.136.052.252.091.349a.844.844 0 0 0 .145.239.556.556 0 0 0 .201.136.705.705 0 0 0 .248.042.628.628 0 0 0 .301-.068.567.567 0 0 0 .223-.213 1.16 1.16 0 0 0 .136-.385c.032-.159.048-.351.048-.575z" fill="#fff"/>
    <rect x="116.074" y="269.309" width="35.636" height="35.636" rx="6.109" fill="#DE006F"/>
    <path d="m131.818 288.197 1.173-3.784h.986l-1.661 4.705h-.656l.158-.921zm-1.082-3.784 1.166 3.784.168.921h-.662l-1.655-4.705h.983zm5.946-.013v4.718h-.857v-3.72l-1.134.375v-.692l1.894-.681h.097z" fill="#fff"/>
    <rect x="116.074" y="213.309" width="35.636" height="35.636" rx="6.109" fill="#009DB4"/>
    <path d="M132.901 231.57h.888a1.829 1.829 0 0 1-.261.837 1.564 1.564 0 0 1-.63.568c-.27.138-.596.207-.98.207-.295 0-.561-.051-.798-.155a1.716 1.716 0 0 1-.604-.449 2.048 2.048 0 0 1-.381-.704 3.014 3.014 0 0 1-.133-.928v-.359c0-.342.045-.651.136-.927.09-.276.22-.511.388-.705.17-.196.373-.346.61-.452a1.96 1.96 0 0 1 .802-.158c.383 0 .707.071.972.213.265.14.471.333.618.578.146.246.234.528.265.847h-.889a1.389 1.389 0 0 0-.129-.504.678.678 0 0 0-.304-.313c-.134-.074-.311-.11-.533-.11-.173 0-.324.032-.456.097a.829.829 0 0 0-.323.29 1.4 1.4 0 0 0-.194.479 2.993 2.993 0 0 0-.065.659v.365c0 .239.02.454.059.643.038.19.099.35.181.482a.826.826 0 0 0 .316.3c.13.069.284.104.462.104.218 0 .395-.035.53-.104a.7.7 0 0 0 .314-.304c.073-.133.119-.299.139-.497zm4.786.876v.672H134.5v-.576l1.529-1.651a5.46 5.46 0 0 0 .378-.472 1.63 1.63 0 0 0 .197-.362.89.89 0 0 0 .061-.313.862.862 0 0 0-.077-.378.579.579 0 0 0-.226-.255.662.662 0 0 0-.359-.091.68.68 0 0 0-.656.407 1.075 1.075 0 0 0-.084.437h-.856c0-.278.064-.532.193-.76.13-.23.315-.415.556-.552.242-.138.528-.207.86-.207.323 0 .597.054.821.161.224.106.394.257.51.453.117.196.175.429.175.701 0 .151-.025.299-.075.446a2.023 2.023 0 0 1-.21.436 3.816 3.816 0 0 1-.316.433c-.123.147-.26.296-.411.449l-.918 1.022h2.095z" fill="#fff"/>
    <rect x="116.074" y="157.309" width="35.636" height="35.636" rx="6.109" fill="#006098"/>
    <path d="M132.901 175.57h.888a1.829 1.829 0 0 1-.261.837 1.564 1.564 0 0 1-.63.568c-.27.138-.596.207-.98.207-.295 0-.561-.051-.798-.155a1.716 1.716 0 0 1-.604-.449 2.048 2.048 0 0 1-.381-.704 3.014 3.014 0 0 1-.133-.928v-.359c0-.342.045-.651.136-.927.09-.276.22-.511.388-.705.17-.196.373-.346.61-.452a1.96 1.96 0 0 1 .802-.158c.383 0 .707.071.972.213.265.14.471.333.618.578.146.246.234.528.265.847h-.889a1.389 1.389 0 0 0-.129-.504.678.678 0 0 0-.304-.313c-.134-.074-.311-.11-.533-.11-.173 0-.324.032-.456.097a.829.829 0 0 0-.323.29 1.4 1.4 0 0 0-.194.479 2.993 2.993 0 0 0-.065.659v.365c0 .239.02.454.059.643.038.19.099.35.181.482a.826.826 0 0 0 .316.3c.13.069.284.104.462.104.218 0 .395-.035.53-.104a.7.7 0 0 0 .314-.304c.073-.133.119-.299.139-.497zm3.797-3.17v4.718h-.857v-3.72l-1.134.375v-.692l1.894-.681h.097z" fill="#fff"/>
    <rect x="116.074" y="101.309" width="35.636" height="35.636" rx="6.109" fill="#BE8A3A"/>
    <path d="m131.973 117.127-1.341 3.991h-.94l1.758-4.705h.601l-.078.714zm1.122 3.991-1.348-3.991-.081-.714h.605l1.767 4.705h-.943zm-.062-1.749v.702h-2.524v-.702h2.524zm4.699 1.077v.672h-3.187v-.576l1.529-1.651a5.46 5.46 0 0 0 .378-.472 1.59 1.59 0 0 0 .197-.362.892.892 0 0 0-.016-.691.579.579 0 0 0-.226-.255.662.662 0 0 0-.359-.091.68.68 0 0 0-.656.407 1.075 1.075 0 0 0-.084.437h-.856c0-.278.064-.532.194-.76.129-.23.314-.415.555-.552.242-.138.528-.207.86-.207.323 0 .597.054.821.161.224.106.394.257.51.453.117.196.175.429.175.701a1.4 1.4 0 0 1-.074.446c-.05.146-.12.292-.21.436a3.83 3.83 0 0 1-.317.433c-.123.147-.26.296-.411.449l-.917 1.022h2.094z" fill="#fff"/>
    <path d="M400.654 63.127h-13.236v280h13.236v-280z" fill="#72A200"/>
    <path d="M427.127 231.127h-13.236v112h13.236v-112z" fill="#EB7E00"/>
    <path d="M413.891 175.127h-13.237v168h13.237v-168z" fill="#80379B"/>
    <path d="M420.485 275.326h-.88v.88c0 1.158-.463 2.343-1.495 2.819l.542.702c.682-.345 1.139-.98 1.403-1.761.252.735.695 1.33 1.364 1.655l.516-.695c-1.006-.45-1.45-1.569-1.45-2.72v-.88zm1.953-.477v1.913h-1.172v.701h1.172v3.501h.873v-6.115h-.873zm-1.999 9.477h-.88v.886c0 1.132-.463 2.297-1.489 2.78l.523.708c.688-.337 1.145-.979 1.409-1.754.252.728.682 1.317 1.317 1.642l.53-.689c-.98-.483-1.41-1.588-1.41-2.687v-.886zm3.415 1.872h-.887v-2.342h-.873v6.095h.873v-3.025h.887v-.728zm-2.548 9.417c-.602.113-1.138.139-2.012.146v-.635h1.794V293.2h-2.667v.701h1.806v.576h-1.8v1.986h.47c1.158 0 1.787-.02 2.495-.153l-.086-.695zm-2.184 1.966h3.296v1.377h.874v-2.072h-4.17v.695zm3.296-4.719v.834h-.98v.702h.98V295h-.98v.695h.98v.92h.874v-3.759l-.874.006zM408.552 249.556c-.96-.298-1.37-1.013-1.37-1.747v-.622h-.887v.549c0 .827-.41 1.641-1.429 1.979l.456.688a2.346 2.346 0 0 0 1.43-1.31c.258.516.701.926 1.343 1.138l.457-.675zm-.788 2.72c-.781 0-1.198-.159-1.198-.503 0-.338.417-.496 1.198-.496.775 0 1.192.158 1.192.496 0 .344-.417.503-1.192.503zm0-1.674c-1.27 0-2.065.436-2.065 1.171 0 .741.795 1.178 2.065 1.178 1.264 0 2.059-.437 2.059-1.178 0-.735-.795-1.171-2.059-1.171zm1.992-2.33v-1.41h-.873v3.601h.873v-1.47h.808v-.721h-.808zm-1.204 10.284c-.96-.298-1.37-1.013-1.37-1.747v-.622h-.887v.549c0 .827-.41 1.641-1.429 1.979l.456.688a2.346 2.346 0 0 0 1.43-1.31c.258.516.701.926 1.343 1.138l.457-.675zm-.788 2.72c-.781 0-1.198-.159-1.198-.503 0-.338.417-.496 1.198-.496.775 0 1.192.158 1.192.496 0 .344-.417.503-1.192.503zm0-1.674c-1.27 0-2.065.436-2.065 1.171 0 .741.795 1.178 2.065 1.178 1.264 0 2.059-.437 2.059-1.178 0-.735-.795-1.171-2.059-1.171zm1.992-2.33v-1.41h-.873v3.601h.873v-1.47h.808v-.721h-.808zm-1.687 10.343c-.602.113-1.139.139-2.012.146v-.635h1.793V265.2h-2.667v.701h1.807v.576h-1.8v1.986h.47c1.158 0 1.787-.02 2.495-.153l-.086-.695zm-2.184 1.966h3.296v1.377h.873v-2.072h-4.169v.695zm3.296-4.719v.834h-.98v.702h.98V267h-.98v.695h.98v.92h.873v-3.759l-.873.006zM395.673 192.695h-2.416v-.9h2.416v.9zm.86-1.582h-4.136v2.27h4.136v-2.27zm-3.302 3.965h-.874v1.767h4.269v-.695h-3.395v-1.072zm-1.516-1.212v.689h2.403v1.039h.873v-1.039h2.244v-.689h-5.52zm1.47 10.046c-.331 0-.57-.265-.57-.721 0-.457.239-.728.57-.728.33 0 .569.271.569.728 0 .456-.239.721-.569.721zm0-2.177c-.781 0-1.337.602-1.337 1.456 0 .847.556 1.449 1.337 1.449.78 0 1.336-.602 1.336-1.449 0-.854-.556-1.456-1.336-1.456zm.43-1.714h-.861v.754h-1.039v.695h2.912v-.695h-1.012v-.754zm2.508-.172v2.488h-.463v-2.369h-.814v5.724h.814v-2.653h.463v2.905h.827v-6.095h-.827zm-1.291 11.766c-.602.112-1.138.139-2.011.146v-.636h1.793v-1.926h-2.667v.702h1.807v.576h-1.8v1.985h.469c1.159 0 1.787-.02 2.496-.152l-.087-.695zm-2.184 1.966h3.296v1.376h.874v-2.071h-4.17v.695zm3.296-4.719v.834h-.979v.701h.979v.602h-.979v.695h.979v.92h.874v-3.759l-.874.007zM91.636 98.763c9.841 0 17.818-7.977 17.818-17.818 0-9.84-7.977-17.818-17.818-17.818-9.84 0-17.818 7.978-17.818 17.818 0 9.84 7.978 17.818 17.818 17.818z" fill="#fff"/>
    <path d="M87.356 81.593c-.51 0-.86-.556-.86-1.503 0-.926.35-1.489.86-1.489.516 0 .867.563.867 1.49 0 .946-.351 1.502-.867 1.502zm2.667-4.05v2.23h-1.165c-.093-1.099-.702-1.787-1.502-1.787-.88 0-1.51.82-1.51 2.104 0 1.298.63 2.112 1.51 2.112.82 0 1.43-.715 1.509-1.873h1.158v3.21h.688v-5.997h-.688zm5.658.615h-1.417v-.655h-.681v.655H92.18v.53h3.5v-.53zm-.973 1.754c0 .304-.311.49-.781.49-.47 0-.781-.186-.781-.49 0-.311.311-.497.78-.497.47 0 .782.186.782.497zm-2.21 0c0 .595.582.999 1.429.999.847 0 1.423-.404 1.423-1 0-.602-.576-1.005-1.423-1.005-.847 0-1.43.403-1.43 1.006zm3.361 1.198c-1.277.145-2.726.152-3.884.152l.092.55c.47 0 .986 0 1.516-.02v1.62h.681v-1.654c.543-.026 1.099-.08 1.635-.159l-.04-.49zm.371-3.554v5.976h.682v-5.976h-.682z" fill="#000"/>
    <path d="M91.636 159.855c9.841 0 17.818-7.978 17.818-17.819 0-9.84-7.977-17.818-17.818-17.818-9.84 0-17.818 7.978-17.818 17.818 0 9.841 7.978 17.819 17.818 17.819z" fill="#fff"/>
    <path d="M89.791 140.519h-2.694v-1.072h2.694v1.072zm.669-1.614h-4.031v2.157h4.03v-2.157zm-3.376 3.871h-.681v1.728h4.156v-.556h-3.475v-1.172zm-1.343-1.125v.549h2.422v1.119h.682V142.2h2.316v-.549h-5.42zm10.496 2.336h-2.528v-.628h2.528v.628zm0-1.164h-2.528v-.636h-.676v2.35h3.885v-2.35h-.681v.636zm-1.913-1.668h-1.41v-.841h1.41v.841zm1.913-2.522v1.43h-1.245v-1.119h-.668v.841h-1.41v-.847h-.675v2.773h2.753v-1.092h1.245v1.297h.681v-3.276l-.681-.007z" fill="#000"/>
    <path d="M91.636 220.945c9.841 0 17.818-7.978 17.818-17.818 0-9.841-7.977-17.818-17.818-17.818-9.84 0-17.818 7.977-17.818 17.818 0 9.84 7.978 17.818 17.818 17.818z" fill="#D6E8E8"/>
    <path d="M89.262 198.57c-.914-.305-1.417-1.039-1.417-1.794v-.106h1.251v-.555h-3.21v.555h1.271v.106c0 .821-.523 1.582-1.47 1.9l.358.536a2.411 2.411 0 0 0 1.463-1.364c.258.57.734 1.026 1.403 1.245l.35-.523zm-2.78 1.601h3.25v1.536h.681v-2.085h-3.931v.549zm4.778-2.918h-.847v-1.529h-.681v3.607h.681v-1.516h.847v-.562zm4.752.357h-2.694v-1.072h2.694v1.072zm.668-1.615h-4.03v2.158h4.03v-2.158zm-3.375 3.872h-.682v1.727h4.156v-.556h-3.474v-1.171zm-1.344-1.125v.549h2.422v1.119h.682v-1.119h2.317v-.549h-5.42zm-3.864 8.312h-1.463v-.761h1.463v.761zm.675-2.072h-.675v.788h-1.463v-.788h-.681v2.614h2.819v-2.614zm-1.536 4.606h3.177v-1.528h-3.858v.529h3.183v.496h-3.17v1.569h4.044v-.536h-3.376v-.53zm3.177-3.633v-1.224h-.681v3.064h.681v-1.277h.84v-.563h-.84zm3.66 2.217h1.178v1.284h-1.178v-1.284zm-.1-2.376h1.377v1.827h-1.377v-1.827zm1.953 3.66v-1.284h.96v-.549h-.861v-1.827h.88v-.549h-4.494v.549h.88v1.827h-.86v.549h.96v1.284h-1.423v.563h5.42v-.563h-1.462z" fill="#000"/>
    <path d="M91.636 282.036c9.841 0 17.818-7.977 17.818-17.818 0-9.84-7.977-17.818-17.818-17.818-9.84 0-17.818 7.978-17.818 17.818 0 9.841 7.978 17.818 17.818 17.818z" fill="#D6E8E8"/>
    <path d="M82.909 259.886h-1.377v-1.952h1.377v1.952zm-2.059 0h-.86v.556h4.46v-.556h-.866v-1.952h.88v-.549H79.97v.549h.88v1.952zm-1.33 1.615v.563h5.427v-.563H79.52zm9.265.033v-1.019h1.866v-.549h-3.58v-.834h3.448v-1.893h-4.13v.549h3.455v.801h-3.441v1.926h1.7v1.019h-2.356v.563h5.414v-.563h-2.376zm5.651-3.203v.562h.788v1.536h.635v-3.481h-.635v1.383h-.788zm.47 1.39a1.746 1.746 0 0 1-1.118-1.628v-.258h.953v-.55h-2.647v.55h1.026v.258c0 .695-.391 1.423-1.179 1.753l.358.523c.569-.238.953-.681 1.165-1.211.205.477.569.874 1.098 1.086l.344-.523zm-1.932 1.542h3.368v1.535h.682v-2.085h-4.05v.55zm3.402-4.441v3.647h.648v-3.647h-.648zm6.624 3.157h-3.448v-.821h3.269v-.536h-3.27v-.768h3.403v-.549h-4.097v3.223H103v-.549zm-4.811 1.529v.556h5.42v-.556h-5.42zm-9.397 9.026v-1.125h1.767v-.543H87.11v-.781h3.262v-.536h-3.262v-.721h3.395v-.556h-4.09v3.137h1.687v1.125h-2.356v.563h5.414v-.563h-2.37zm4.546-.437h-.682v1.688h4.176v-.549h-3.494v-1.139zm1.674-.906v-.57h1.807v-.522h-3.501v-.556H96.7v-1.556h-4.064v.523h3.389v.543H92.65v1.568h1.68v.57h-2.375v.549h5.427v-.549h-2.37z" fill="#000"/>
    <path d="M91.636 343.127c9.841 0 17.818-7.978 17.818-17.818 0-9.841-7.977-17.818-17.818-17.818-9.84 0-17.818 7.977-17.818 17.818 0 9.84 7.978 17.818 17.818 17.818z" fill="#D6E8E8"/>
    <path d="M82.955 318.508v.556h2.025c-.02.331-.08.642-.159.94l-2.177.132.099.582 1.866-.172c-.35.735-.98 1.357-1.992 1.873l.37.53c2.125-1.086 2.675-2.661 2.675-4.441h-2.707zm3.944-.596v2.35h-1.257v.562h1.257v3.071h.688v-5.983H86.9zm2.984 2.747h2.085v-2.217h-2.786v.556h2.098v1.112h-2.085v2.369h.51c1.052 0 1.945-.033 2.971-.212l-.073-.556c-.946.152-1.773.199-2.72.205v-1.257zm3.217-2.76v6.003h.688v-6.003H93.1zm3.586 4.057c-.51 0-.86-.556-.86-1.502 0-.927.35-1.489.86-1.489.517 0 .867.562.867 1.489 0 .946-.35 1.502-.867 1.502zm2.667-4.05v2.23H98.19c-.093-1.099-.702-1.787-1.503-1.787-.88 0-1.509.821-1.509 2.105 0 1.297.63 2.111 1.51 2.111.82 0 1.429-.715 1.508-1.873h1.159v3.21h.688v-5.996h-.689zm-9.377 9v5.996h.689v-5.996h-.689zm-3.911.496v4.077h2.872v-4.077h-.681v1.522H86.74v-1.522h-.675zm.675 2.065h1.516v1.463H86.74v-1.463zm8.411-.953v.562h1.086v2.211h.681v-4.368h-.681v1.595H95.15zm.37 1.396c-.893-.311-1.402-1.059-1.402-1.793v-.205h1.244v-.55h-3.197v.55h1.264v.205c0 .807-.542 1.595-1.469 1.919l.351.536a2.444 2.444 0 0 0 1.476-1.416 2.3 2.3 0 0 0 1.396 1.284l.338-.53zm-1.793 2.31v-1.31h-.681v1.866h4.023v-.556h-3.342z" fill="#000"/>
    <rect x="31.564" y="63.127" width="35.636" height="279.491" rx="6.109" fill="#D6E8E8"/>
    <rect x="35.128" y="67.2" width="28.509" height="107.927" rx="4.582" fill="#fff"/>
    <path d="M44.12 123.582h2.952v-.649h-2.184v-1.575h1.787v-.649h-1.787v-1.356h2.11v-.642H44.12v4.871zm4.1 0h.768v-2.098h1.8v-.642h-1.8v-1.489h2.118v-.642h-2.885v4.871zm3.882 0h2.826v-.649h-2.059v-4.222h-.767v4.871zM43.981 220.309h2.952v-.649h-2.184v-1.575h1.787v-.649h-1.787v-1.356h2.11v-.642h-2.878v4.871zm5.49.086c1.066 0 1.715-.636 1.715-1.417 0-.714-.417-1.072-.993-1.317l-.669-.284c-.397-.159-.787-.318-.787-.735 0-.39.324-.629.82-.629.43 0 .768.166 1.073.437l.403-.49a2.087 2.087 0 0 0-1.476-.615c-.926 0-1.601.576-1.601 1.343 0 .709.523 1.079.993 1.278l.675.291c.45.199.78.337.78.781 0 .41-.33.688-.92.688-.47 0-.946-.225-1.296-.576l-.45.53a2.43 2.43 0 0 0 1.733.715zm2.77-.086h2.825v-.649h-2.058v-4.222h-.768v4.871zM438.556 351.091c0 .77 0 1.682-.249 2.944l.741.078c.249-1.333.249-2.224.249-3.022v-.634h-4.583v.598h3.842v.036zm-1.539 3.756v-2.266h-.742v2.266h-2.166v.606h5.815v-.606h-2.907zm8.359-4.989v3.457h.734v-3.457h-.734zm-3.471 3.756v2.602h4.205v-2.602h-.727v.713h-2.751v-.713h-.727zm.727 1.283h2.751v.727h-2.751v-.727zm.007-4.747c-.983 0-1.71.613-1.71 1.497 0 .884.727 1.497 1.71 1.497.984 0 1.704-.613 1.704-1.497 0-.884-.72-1.497-1.704-1.497zm0 .606c.578 0 .991.356.991.891 0 .542-.413.891-.991.891-.584 0-.99-.349-.99-.891 0-.535.406-.891.99-.891zm-7.597 11.463h1.661v-.598h-2.381v4.141h.428c.905 0 1.568-.029 2.345-.179l-.064-.605c-.663.135-1.247.171-1.989.178v-2.937zm3.856-1.368v2.544h-.762v-2.409h-.692v5.987h.692v-2.979h.762v3.293h.699v-6.436h-.699zm6.478.007v3.457h.734v-3.457h-.734zm-3.471 3.756v2.602h4.205v-2.602h-.727v.713h-2.751v-.713h-.727zm.727 1.283h2.751v.727h-2.751v-.727zm.007-4.747c-.983 0-1.71.613-1.71 1.497 0 .884.727 1.497 1.71 1.497.984 0 1.704-.613 1.704-1.497 0-.884-.72-1.497-1.704-1.497zm0 .606c.578 0 .991.356.991.891 0 .542-.413.891-.991.891-.584 0-.99-.349-.99-.891 0-.535.406-.891.99-.891zm-6.064 16.082c.719 0 1.311-.264 1.66-.613v-2.274h-1.789v.677h1.041v1.233c-.185.164-.506.257-.827.257-1.083 0-1.66-.763-1.66-2.01 0-1.233.648-1.988 1.625-1.988.506 0 .826.206 1.083.47l.449-.528a2.097 2.097 0 0 0-1.561-.662c-1.39 0-2.445 1.026-2.445 2.737 0 1.717 1.02 2.701 2.424 2.701zm4.356 0c1.147 0 1.846-.684 1.846-1.525 0-.77-.449-1.155-1.069-1.419l-.72-.306c-.428-.171-.848-.342-.848-.791 0-.421.349-.677.883-.677.464 0 .827.178 1.155.47l.435-.528a2.248 2.248 0 0 0-1.59-.662c-.998 0-1.725.62-1.725 1.446 0 .763.564 1.162 1.07 1.376l.727.314c.484.213.841.363.841.841 0 .442-.357.741-.991.741-.506 0-1.019-.242-1.397-.62l-.485.57c.478.485 1.148.77 1.868.77zm3.748-.093h.827v-4.554h1.547v-.692h-3.913v.692h1.539v4.554z" fill="#000"/>
    <path d="M450.201 350.008v6.25h.52v-6.25h-.52zm0 11v6.25h.52v-6.25h-.52zm.125 11v6.25h.521v-6.25h-.521z" fill="#000" fill-opacity=".6"/>
    <path d="M456.316 351.105h1.361v-.606h-3.5v.606h1.404v.62c0 1.069-.655 2.288-1.639 2.759l.421.584c.741-.363 1.311-1.133 1.596-2.031.292.812.841 1.525 1.561 1.867l.406-.577c-.976-.463-1.61-1.604-1.61-2.602v-.62zm3.734 1.29h-1.005v-2.537h-.734v6.436h.734v-3.293h1.005v-.606zm.933-1.86v.599h2.295c-.128 1.482-.926 2.615-2.615 3.428l.392.584c2.209-1.069 2.979-2.694 2.979-4.611h-3.051zm4.213-.677v6.436h.734v-6.436h-.734zm2.565 3.15c1.062-.157 1.931-.684 2.323-1.397.392.713 1.269 1.24 2.331 1.397l.264-.577c-1.226-.164-2.131-.87-2.174-1.618h1.946v-.592h-4.74v.592h1.96c-.043.748-.948 1.454-2.174 1.618l.264.577zm5.238.471h-5.823v.591h2.523v2.231h.735v-2.231h2.558l.007-.591zm4.005 1.439V353.4h1.903v-.591h-3.727v-1.875h3.67v-.591h-4.404v3.057h1.824v1.518h-2.537v.606h5.83v-.606h-2.559zm7.091-4.433h-1.532v-.663h-.734v.663h-1.532v.585h3.798v-.585zm-2.758 2.039c0-.385.342-.613.855-.613.514 0 .863.228.863.613 0 .377-.349.605-.863.605-.513 0-.855-.228-.855-.605zm2.416 0c0-.706-.634-1.176-1.561-1.176-.926 0-1.56.47-1.56 1.176 0 .698.634 1.168 1.56 1.168.927 0 1.561-.47 1.561-1.168zm-2.672 2.266h3.499v1.504h.734v-2.096h-4.233v.592zm5.145-3.207h-.912v-1.725h-.734v4.027h.734v-1.696h.912v-.606zm6.129.199c-1.275-.164-2.223-.869-2.223-1.61v-.25h-.756v.25c0 .748-.934 1.446-2.224 1.61l.271.571c1.048-.143 1.918-.628 2.331-1.298.42.67 1.29 1.155 2.338 1.298l.263-.571zm-1.169 3.849h-2.9v-.691h2.9v.691zm0-1.254h-2.9v-.656h-.727v2.495h4.362v-2.495h-.735v.656zm-4.347-1.64v.585h5.83v-.585h-5.83zm11.593-1.154v.606h1.168v2.38h.735v-4.704h-.735v1.718h-1.168zm.399 1.504c-.962-.335-1.511-1.141-1.511-1.932v-.221h1.34v-.591h-3.443v.591h1.361v.221c0 .87-.584 1.718-1.582 2.067l.378.577c.763-.263 1.304-.826 1.589-1.525a2.48 2.48 0 0 0 1.504 1.383l.364-.57zm-1.932 2.487v-1.411h-.734v2.01h4.333v-.599h-3.599zm9.258-1.582h.734v-4.134h-.734v1.482h-.969v.599h.969v.677h-.984v.592h.984v.784zm-1.012-3.485h-1.39v-.706h-.734v.706h-1.447v.584h3.571v-.584zm-2.552 2.066c0-.392.321-.641.799-.641.47 0 .791.249.791.641 0 .407-.321.649-.791.649-.478 0-.799-.242-.799-.649zm2.274 0c0-.712-.606-1.197-1.475-1.197-.877 0-1.483.485-1.483 1.197 0 .72.606 1.205 1.483 1.205.869 0 1.475-.485 1.475-1.205zm-.107 3.158c-.884 0-1.404-.193-1.404-.556 0-.364.52-.549 1.404-.549.87 0 1.39.185 1.39.549 0 .363-.52.556-1.39.556zm0-1.668c-1.347 0-2.174.413-2.174 1.112 0 .706.827 1.119 2.174 1.119 1.333 0 2.167-.413 2.167-1.119 0-.699-.834-1.112-2.167-1.112zm-46.891 7.422h-1.532v-.663h-.734v.663h-1.533v.585h3.799v-.585zm-2.758 2.039c0-.385.342-.613.855-.613.513 0 .863.228.863.613 0 .377-.35.605-.863.605s-.855-.228-.855-.605zm2.416 0c0-.706-.634-1.176-1.561-1.176-.926 0-1.561.47-1.561 1.176 0 .698.635 1.168 1.561 1.168.927 0 1.561-.47 1.561-1.168zm-2.673 2.266h3.5v1.504h.734v-2.096h-4.234v.592zm5.146-3.207h-.912v-1.725h-.734v4.027h.734v-1.696H460v-.606zm4.69.527h.677v1.704h.698v-3.949h-.698v1.647h-.677v-1.533h-.692v3.628h.692v-1.497zm-.842.699c-.833-.328-1.254-1.034-1.254-1.747v-.812h-.713v.812c0 .735-.434 1.54-1.297 1.932l.385.563c.62-.271 1.041-.77 1.276-1.361.242.513.641.941 1.211 1.161l.392-.548zm.072 2.922c-.905 0-1.447-.221-1.447-.613 0-.399.542-.62 1.447-.62s1.447.221 1.447.62c0 .392-.542.613-1.447.613zm0-1.796c-1.34 0-2.181.442-2.181 1.183 0 .734.841 1.176 2.181 1.176s2.181-.442 2.181-1.176c0-.741-.841-1.183-2.181-1.183zm7.633-1.604h-2.944v-.819h2.944v.819zm.734-2.224h-.734v.813h-2.944v-.813h-.734v2.816h4.412v-2.816zm.719 3.514h-5.837v.592h2.53v2.088h.735v-2.088h2.572v-.592zm1.269-1.133c1.133-.121 2.017-.577 2.366-1.24.342.663 1.226 1.119 2.359 1.24l.264-.57c-1.198-.121-2.024-.62-2.124-1.19h1.881v-.592h-4.754v.592h1.868c-.107.57-.927 1.069-2.117 1.19l.257.57zm2.352 3.243c-.948 0-1.469-.185-1.469-.563 0-.371.521-.563 1.469-.563.948 0 1.475.192 1.475.563 0 .378-.527.563-1.475.563zm0-1.689c-1.383 0-2.217.406-2.217 1.126 0 .72.834 1.126 2.217 1.126 1.389 0 2.216-.406 2.216-1.126 0-.72-.827-1.126-2.216-1.126zm.37-1.034v-.862h-.734v.862h-2.537v.592h5.823v-.592h-2.552zm7.098-2.537h-1.532v-.67h-.734v.67h-1.532v.591h3.798v-.591zm-2.758 1.96c0-.364.342-.585.855-.585.514 0 .863.221.863.585 0 .371-.349.591-.863.591-.513 0-.855-.22-.855-.591zm2.416 0c0-.677-.627-1.133-1.561-1.133-.926 0-1.56.456-1.56 1.133 0 .684.634 1.14 1.56 1.14.934 0 1.561-.456 1.561-1.14zm.834 3.2h-2.658v-.591h2.658v.591zm0-1.162h-2.658v-.591h-.727v2.338h4.112v-2.338h-.727v.591zm1.639-3.007h-.912v-1.604h-.734v3.756h.734v-1.547h.912v-.605zm5.649.121v.606h1.169v2.38h.734v-4.704h-.734v1.718h-1.169zm.399 1.504c-.962-.335-1.511-1.141-1.511-1.932v-.221h1.34v-.591h-3.442v.591h1.361v.221c0 .87-.584 1.718-1.582 2.067l.377.577a2.627 2.627 0 0 0 1.59-1.525 2.48 2.48 0 0 0 1.504 1.383l.363-.57zm-1.931 2.487v-1.411h-.734v2.01h4.333v-.599h-3.599zm9.257-1.582h.735v-4.134h-.735v1.482h-.969v.599h.969v.677h-.983v.592h.983v.784zm-1.012-3.485h-1.389v-.706h-.735v.706h-1.446v.584h3.57v-.584zm-2.551 2.066c0-.392.321-.641.798-.641.47 0 .791.249.791.641 0 .407-.321.649-.791.649-.477 0-.798-.242-.798-.649zm2.273 0c0-.712-.605-1.197-1.475-1.197-.877 0-1.482.485-1.482 1.197 0 .72.605 1.205 1.482 1.205.87 0 1.475-.485 1.475-1.205zm-.106 3.158c-.884 0-1.405-.193-1.405-.556 0-.364.521-.549 1.405-.549.869 0 1.389.185 1.389.549 0 .363-.52.556-1.389.556zm0-1.668c-1.348 0-2.174.413-2.174 1.112 0 .706.826 1.119 2.174 1.119 1.332 0 2.166-.413 2.166-1.119 0-.699-.834-1.112-2.166-1.112zm-43.673 7.401v4.255h3.022v-4.255h-3.022zm2.302.584v3.079h-1.582v-3.079h1.582zm1.91-1.197v6.457h.741v-6.457h-.741zm7.833 3.157v-.591h-.87c.143-.734.143-1.29.143-1.775v-.492h-4.377v.592h3.657c0 .463-.015.983-.157 1.675h-4.227v.591h2.538v1.055h-1.946v.592h3.806v1.639h.734v-2.231h-1.853v-1.055h2.552zm2.861.499c.763-.228 1.319-.705 1.597-1.326.285.592.841 1.048 1.596 1.262l.328-.57c-.948-.257-1.518-.898-1.561-1.625h1.404v-.592h-1.404v-.748h-.734v.748h-1.397v.592h1.39c-.036.755-.599 1.425-1.554 1.689l.335.57zm1.96-.207h-.734v1.105c-.62.022-1.226.022-1.732.022l.093.605c1.14 0 2.68-.007 4.098-.292l-.057-.534c-.534.085-1.105.135-1.668.164v-1.07zm2.06-3.449v6.457h.741v-6.457h-.741zm5.744 2.951c-.955-.314-1.504-1.098-1.504-1.925v-.691h-.741v.634c0 .927-.549 1.803-1.561 2.153l.392.584c.741-.271 1.269-.827 1.554-1.525a2.536 2.536 0 0 0 1.475 1.347l.385-.577zm-.791 2.915c-.898 0-1.418-.221-1.418-.635 0-.399.52-.627 1.418-.627.898 0 1.418.228 1.418.627 0 .414-.52.635-1.418.635zm0-1.839c-1.326 0-2.145.449-2.145 1.204 0 .763.819 1.212 2.145 1.212 1.333 0 2.145-.449 2.145-1.212 0-.755-.812-1.204-2.145-1.204zm2.074-2.431v-1.596h-.734v3.87h.734v-1.668h.912v-.606h-.912zm3.627-.705c.563 0 .955.292.955.741 0 .456-.392.748-.955.748-.556 0-.955-.292-.955-.748 0-.449.399-.741.955-.741zm0 2.095c.962 0 1.661-.556 1.661-1.354 0-.791-.699-1.347-1.661-1.347-.962 0-1.66.556-1.66 1.347 0 .798.698 1.354 1.66 1.354zm2.074.243c-1.39.206-3.007.228-4.169.228l.085.605c.499 0 1.069-.007 1.675-.028v2.216h.734v-2.259a14.125 14.125 0 0 0 1.725-.221l-.05-.541zm.421-3.222v6.443h.734v-6.443h-.734zm8.015 1.233c0 .77 0 1.682-.25 2.944l.741.078c.25-1.333.25-2.224.25-3.022v-.634h-4.583v.598h3.842v.036zm-1.54 3.756v-2.266h-.741v2.266h-2.167v.606h5.816v-.606h-2.908zm8.125-3.713c0 .784 0 1.653-.228 2.829l.734.086c.228-1.247.228-2.11.228-2.915v-.677h-4.633v.598h3.899v.079zm-.82 3.713v-2.081h-.727v2.081h-.862v-2.081h-.727v2.081h-1.34v.606h5.816v-.606h-2.16zm9.804-4.982h-.734v4.683h.734v-4.683zm-1.333 3.243c-.991-.321-1.575-1.105-1.575-1.924v-.236h1.375v-.591h-3.52v.591h1.397v.236c0 .869-.578 1.703-1.597 2.045l.385.57a2.586 2.586 0 0 0 1.596-1.489c.286.634.827 1.133 1.568 1.375l.371-.577zm-2.131 2.466v-1.454h-.741v2.053h4.39v-.599h-3.649zm8.524-5.089h-1.533v-.663h-.734v.663h-1.532v.585h3.799v-.585zm-2.759 2.039c0-.385.343-.613.856-.613.513 0 .862.228.862.613 0 .377-.349.605-.862.605s-.856-.228-.856-.605zm2.417 0c0-.706-.635-1.176-1.561-1.176-.927 0-1.561.47-1.561 1.176 0 .698.634 1.168 1.561 1.168.926 0 1.561-.47 1.561-1.168zm-2.673 2.266h3.499v1.504h.734v-2.096h-4.233v.592zm5.146-3.207h-.913v-1.725h-.734v4.027h.734v-1.696h.913v-.606z" fill="#970707"/>
    <path d="M250.642 382.31h-1.106l-.006-.546h.966c.163 0 .302-.024.415-.071a.576.576 0 0 0 .262-.212.612.612 0 0 0 .09-.337.671.671 0 0 0-.084-.355.475.475 0 0 0-.256-.2 1.277 1.277 0 0 0-.436-.063h-.725v3.747h-.748v-4.343h1.473c.239 0 .452.023.639.068.189.046.349.118.48.215a.908.908 0 0 1 .301.364c.07.147.105.322.105.525a.967.967 0 0 1-.129.492.969.969 0 0 1-.378.361 1.485 1.485 0 0 1-.624.167l-.239.188zm-.032 1.963h-1.31l.337-.594h.973a.95.95 0 0 0 .423-.083.583.583 0 0 0 .254-.236.712.712 0 0 0 .086-.355.852.852 0 0 0-.074-.367.515.515 0 0 0-.236-.241.884.884 0 0 0-.421-.087h-.841l.006-.546h1.095l.17.206c.239.008.434.061.588.158.155.098.27.224.346.379.075.155.113.322.113.501 0 .277-.061.508-.182.695a1.123 1.123 0 0 1-.516.427 2.079 2.079 0 0 1-.811.143zm2.962-4.582v4.582h-.722v-4.582h.722zm.65 3.004v-.069c0-.232.034-.448.101-.647a1.53 1.53 0 0 1 .293-.522c.129-.149.286-.264.471-.346.187-.084.398-.125.632-.125.237 0 .448.041.633.125.187.082.345.197.474.346.129.147.228.321.295.522.068.199.102.415.102.647v.069c0 .233-.034.448-.102.647a1.54 1.54 0 0 1-.295.522 1.36 1.36 0 0 1-.471.346 1.54 1.54 0 0 1-.63.123c-.236 0-.448-.041-.635-.123a1.36 1.36 0 0 1-.471-.346 1.542 1.542 0 0 1-.296-.522 2.013 2.013 0 0 1-.101-.647zm.719-.069v.069c0 .145.015.282.045.412.029.129.076.242.14.34a.686.686 0 0 0 .244.229c.1.056.218.084.355.084a.68.68 0 0 0 .591-.313 1.05 1.05 0 0 0 .14-.34c.032-.13.048-.267.048-.412v-.069c0-.143-.016-.278-.048-.405a1.027 1.027 0 0 0-.143-.343.683.683 0 0 0-.594-.32.688.688 0 0 0-.352.087.688.688 0 0 0-.241.233 1.044 1.044 0 0 0-.14.343c-.03.127-.045.262-.045.405zm2.747.069v-.069c0-.232.034-.448.102-.647.067-.201.165-.375.292-.522.129-.149.286-.264.471-.346.187-.084.398-.125.633-.125.236 0 .447.041.632.125.187.082.345.197.474.346.13.147.228.321.296.522.067.199.101.415.101.647v.069c0 .233-.034.448-.101.647a1.542 1.542 0 0 1-.296.522 1.36 1.36 0 0 1-.471.346 1.538 1.538 0 0 1-.629.123c-.237 0-.449-.041-.636-.123a1.36 1.36 0 0 1-.471-.346 1.54 1.54 0 0 1-.295-.522 1.986 1.986 0 0 1-.102-.647zm.719-.069v.069c0 .145.015.282.045.412.03.129.076.242.14.34a.689.689 0 0 0 .245.229.709.709 0 0 0 .355.084.685.685 0 0 0 .59-.313c.064-.098.111-.211.14-.34.032-.13.048-.267.048-.412v-.069c0-.143-.016-.278-.048-.405a1.007 1.007 0 0 0-.143-.343.68.68 0 0 0-.593-.32.683.683 0 0 0-.594.32c-.064.099-.11.213-.14.343-.03.127-.045.262-.045.405zm3.603-.924v2.571h-.718v-3.228h.677l.041.657zm-.116.838-.244-.003c0-.223.027-.429.083-.618.056-.189.137-.353.245-.492.107-.141.24-.249.399-.325a1.28 1.28 0 0 1 .558-.116 1.2 1.2 0 0 1 .403.065c.123.042.23.109.319.2a.885.885 0 0 1 .209.352c.05.143.074.316.074.519v2.151h-.718v-2.088a.79.79 0 0 0-.072-.37.4.4 0 0 0-.2-.191.718.718 0 0 0-.307-.06.713.713 0 0 0-.346.078.65.65 0 0 0-.23.212.942.942 0 0 0-.131.31 1.616 1.616 0 0 0-.042.376zm2.002-.191-.337.075c0-.195.026-.379.08-.552.056-.175.136-.328.242-.46a1.13 1.13 0 0 1 .397-.313c.157-.075.337-.113.539-.113.165 0 .313.023.442.068a.815.815 0 0 1 .334.209c.091.096.161.22.209.373.048.151.071.334.071.549v2.088h-.721v-2.091a.816.816 0 0 0-.072-.379.373.373 0 0 0-.197-.185.788.788 0 0 0-.307-.054.657.657 0 0 0-.295.063.585.585 0 0 0-.212.17.757.757 0 0 0-.132.248 1.09 1.09 0 0 0-.041.304zm3.12-2.658v.421c0 .125-.023.255-.069.39a1.603 1.603 0 0 1-.459.701l-.361-.226c.081-.124.147-.254.197-.391.052-.139.077-.295.077-.468v-.427h.615zm1.981 3.708a.359.359 0 0 0-.054-.194.463.463 0 0 0-.206-.161 1.943 1.943 0 0 0-.441-.131 3.796 3.796 0 0 1-.472-.135 1.505 1.505 0 0 1-.364-.193.811.811 0 0 1-.235-.269.834.834 0 0 1 .003-.731.946.946 0 0 1 .247-.31 1.23 1.23 0 0 1 .391-.212c.155-.051.328-.077.519-.077.271 0 .502.045.695.137.195.089.344.212.448.367a.908.908 0 0 1 .155.519h-.719a.458.458 0 0 0-.066-.239.461.461 0 0 0-.191-.182.661.661 0 0 0-.322-.071.709.709 0 0 0-.307.059.42.42 0 0 0-.179.15.376.376 0 0 0-.027.349.36.36 0 0 0 .107.116c.05.034.118.065.203.095.088.03.197.059.328.087.247.052.459.118.636.2.179.079.316.183.411.31a.76.76 0 0 1 .144.477.842.842 0 0 1-.093.394.897.897 0 0 1-.262.307 1.324 1.324 0 0 1-.415.2 1.856 1.856 0 0 1-.537.072c-.292 0-.54-.052-.743-.156a1.175 1.175 0 0 1-.462-.402.948.948 0 0 1-.155-.513h.695a.544.544 0 0 0 .11.319.6.6 0 0 0 .251.17.978.978 0 0 0 .313.051.901.901 0 0 0 .325-.051.473.473 0 0 0 .2-.143.34.34 0 0 0 .069-.209zm4.334-2.354v.525h-1.82v-.525h1.82zm-1.295-.79h.719v3.126a.51.51 0 0 0 .042.23c.03.051.07.086.122.104a.554.554 0 0 0 .182.027 1.086 1.086 0 0 0 .254-.027l.003.549a1.53 1.53 0 0 1-.478.069c-.165 0-.311-.029-.438-.087a.645.645 0 0 1-.298-.289c-.072-.133-.108-.31-.108-.531v-3.171zm3.669 3.371v-1.54a.672.672 0 0 0-.062-.298.447.447 0 0 0-.191-.194.664.664 0 0 0-.317-.068.73.73 0 0 0-.304.059.504.504 0 0 0-.2.161.396.396 0 0 0-.071.23h-.716c0-.127.031-.25.092-.37a.985.985 0 0 1 .269-.319c.117-.093.257-.167.42-.221a1.77 1.77 0 0 1 .549-.08c.243 0 .458.041.645.122a.985.985 0 0 1 .444.37c.109.163.164.368.164.614v1.435c0 .147.01.28.03.397.022.115.053.216.092.301v.048h-.736a1.276 1.276 0 0 1-.081-.295 2.41 2.41 0 0 1-.027-.352zm.105-1.316.006.445h-.516a1.47 1.47 0 0 0-.352.038.722.722 0 0 0-.254.108.463.463 0 0 0-.203.402c0 .086.02.165.06.236.04.07.097.124.173.164.077.04.171.06.28.06a.788.788 0 0 0 .648-.313.493.493 0 0 0 .101-.254l.233.319a1.258 1.258 0 0 1-.349.531 1.133 1.133 0 0 1-.773.287c-.211 0-.399-.042-.564-.126a1.005 1.005 0 0 1-.388-.343.892.892 0 0 1-.14-.492c0-.171.032-.322.096-.453a.875.875 0 0 1 .286-.334c.127-.09.282-.158.465-.203.183-.048.392-.072.627-.072h.564zm1.918-1.265.614 1.071.627-1.071h.79l-.978 1.584 1.017 1.644h-.791l-.656-1.116-.656 1.116h-.794l1.015-1.644-.976-1.584h.788zm2.303 1.65v-.069c0-.232.033-.448.101-.647.068-.201.165-.375.292-.522.13-.149.287-.264.472-.346a1.52 1.52 0 0 1 .632-.125c.237 0 .447.041.632.125.187.082.345.197.475.346.129.147.227.321.295.522.068.199.101.415.101.647v.069c0 .233-.033.448-.101.647a1.556 1.556 0 0 1-.295.522c-.13.147-.287.263-.472.346a1.535 1.535 0 0 1-.629.123 1.56 1.56 0 0 1-.635-.123 1.363 1.363 0 0 1-.472-.346 1.556 1.556 0 0 1-.295-.522 1.986 1.986 0 0 1-.101-.647zm.718-.069v.069c0 .145.015.282.045.412.03.129.077.242.14.34a.697.697 0 0 0 .245.229.712.712 0 0 0 .355.084.685.685 0 0 0 .591-.313c.063-.098.11-.211.14-.34.032-.13.047-.267.047-.412v-.069c0-.143-.015-.278-.047-.405a1.048 1.048 0 0 0-.143-.343.69.69 0 0 0-.594-.32.686.686 0 0 0-.352.087.7.7 0 0 0-.242.233 1.09 1.09 0 0 0-.14.343c-.03.127-.045.262-.045.405zm3.598-.892v2.539h-.719v-3.228h.677l.042.689zm-.128.806-.233-.003c.002-.229.034-.439.095-.63.064-.19.151-.355.263-.492.113-.137.248-.242.406-.316.157-.075.332-.113.525-.113.155 0 .295.022.42.065a.77.77 0 0 1 .325.206.93.93 0 0 1 .209.373c.048.151.072.337.072.558v2.085h-.722v-2.088a.81.81 0 0 0-.069-.367.386.386 0 0 0-.194-.194.722.722 0 0 0-.313-.06.691.691 0 0 0-.331.078.752.752 0 0 0-.248.212 1.042 1.042 0 0 0-.152.31 1.275 1.275 0 0 0-.053.376zm2.678.155v-.069c0-.232.034-.448.102-.647.067-.201.165-.375.292-.522.129-.149.286-.264.471-.346.187-.084.398-.125.633-.125.236 0 .447.041.632.125.187.082.345.197.474.346.13.147.228.321.296.522.067.199.101.415.101.647v.069c0 .233-.034.448-.101.647a1.542 1.542 0 0 1-.296.522 1.36 1.36 0 0 1-.471.346 1.538 1.538 0 0 1-.629.123c-.237 0-.449-.041-.636-.123a1.36 1.36 0 0 1-.471-.346 1.54 1.54 0 0 1-.295-.522 1.986 1.986 0 0 1-.102-.647zm.719-.069v.069c0 .145.015.282.045.412.03.129.076.242.14.34a.689.689 0 0 0 .245.229.709.709 0 0 0 .355.084.685.685 0 0 0 .59-.313c.064-.098.111-.211.14-.34.032-.13.048-.267.048-.412v-.069c0-.143-.016-.278-.048-.405a1.007 1.007 0 0 0-.143-.343.68.68 0 0 0-.593-.32.683.683 0 0 0-.594.32c-.064.099-.11.213-.14.343-.03.127-.045.262-.045.405zm3.604-.924v2.571h-.719v-3.228h.677l.042.657zm-.117.838-.244-.003c0-.223.027-.429.083-.618.056-.189.137-.353.245-.492.107-.141.24-.249.399-.325.162-.077.347-.116.558-.116a1.2 1.2 0 0 1 .403.065c.123.042.23.109.319.2a.885.885 0 0 1 .209.352c.05.143.075.316.075.519v2.151h-.719v-2.088a.79.79 0 0 0-.072-.37.4.4 0 0 0-.2-.191.718.718 0 0 0-.307-.06.713.713 0 0 0-.346.078.65.65 0 0 0-.23.212.963.963 0 0 0-.131.31 1.616 1.616 0 0 0-.042.376zm2.002-.191-.337.075c0-.195.027-.379.08-.552.056-.175.136-.328.242-.46a1.14 1.14 0 0 1 .397-.313c.157-.075.337-.113.54-.113.165 0 .312.023.441.068a.815.815 0 0 1 .334.209.93.93 0 0 1 .209.373c.048.151.071.334.071.549v2.088h-.721v-2.091a.816.816 0 0 0-.072-.379.373.373 0 0 0-.197-.185.788.788 0 0 0-.307-.054.66.66 0 0 0-.295.063.585.585 0 0 0-.212.17.737.737 0 0 0-.131.248 1.054 1.054 0 0 0-.042.304zm3.654 1.572.877-2.876h.77l-1.295 3.72c-.03.08-.069.166-.116.26a1.2 1.2 0 0 1-.188.265.832.832 0 0 1-.284.206.947.947 0 0 1-.411.081.929.929 0 0 1-.185-.018 2.79 2.79 0 0 1-.164-.033l-.003-.549a2.495 2.495 0 0 0 .143.009.85.85 0 0 0 .298-.045.411.411 0 0 0 .194-.137.811.811 0 0 0 .131-.257l.233-.626zm-.495-2.876.766 2.417.129.757-.499.129-1.172-3.303h.776zm7.236.845c-.807-.244-1.338-.849-1.338-1.515v-.085h1.209v-.403h-1.209v-.672h-.501v.672h-1.216v.403h1.216v.085c0 .727-.556 1.363-1.369 1.613l.245.391c.647-.208 1.142-.647 1.38-1.222.245.52.721.923 1.344 1.118l.239-.385zm-1.906 1.253h2.455v1.106h-2.455v-1.106zm-.489 1.509h3.439v-1.906h-3.439v1.906zm4.252-4.02h-.813v-1.387h-.501v3.244h.501v-1.442h.813v-.415zm1.007 1.845c.825-.177 1.686-.721 2.035-1.479.348.752 1.215 1.289 2.052 1.454l.202-.403c-.953-.152-1.998-.904-1.998-1.778v-.116h1.815v-.409h-4.148v.409h1.814v.116c0 .874-1.039 1.638-1.986 1.797l.214.409zm2.285 1.13v-1.326h-.501v1.326h-2.236v.415h4.973v-.415h-2.236z" fill="#fff"/>
</svg>
