<svg width="670" height="260" viewBox="0 0 670 260" fill="none" xmlns="http://www.w3.org/2000/svg">
<path d="M79.1458 48.7841L79.917 48.8441C82.1423 46.3846 85.1588 44.5735 87.9468 42.7568C89.3522 41.8655 90.6805 40.9314 91.9374 40.0573C93.2029 39.1975 94.3369 38.292 95.2538 37.2951C102.958 34.7499 98.9331 33.1845 106.154 31.1535L105.817 31.0421C116.527 25.6032 128.078 21.0984 139.702 17.722C151.362 14.4341 163.043 12.3031 174.075 10.9806L174.057 11.3433C176.286 11.2291 178.511 11.1148 180.733 11.0034C182.956 10.9863 185.169 11.072 187.38 11.092C191.817 10.9977 196.184 11.6376 200.566 11.9375C202.754 12.1175 204.894 12.6059 207.062 12.9173C209.21 13.3229 211.407 13.4886 213.503 14.1056C217.731 15.1825 222.019 16.0481 226.092 17.602C228.146 18.3162 230.231 18.956 232.262 19.7216C234.279 20.5157 236.27 21.367 238.221 22.2839C242.135 24.0978 245.882 26.1945 249.416 28.554C256.477 33.2616 262.608 39.189 266.832 46.2732C268.623 48.8098 268.426 46.7645 270.086 48.9755C270.549 50.0753 271.794 52.4748 271.331 52.6861C270.18 50.6866 270.334 52.0348 269.857 51.4007C271.509 54.8028 272.551 59.5733 273.794 62.7583L273.648 59.8504C274.194 61.0844 274.608 63.1468 274.751 64.3523C274.371 63.9152 274.079 65.7434 273.751 64.755C274.462 66.4376 274.782 67.663 274.905 68.6171C275.042 69.5712 275.048 70.2453 274.974 70.8852C274.762 72.1821 274.625 73.2933 274.931 76.3155C276.31 77.4553 277.13 85.2908 277.056 90.6125L276.268 93.2605C276.879 89.6784 275.445 93.172 276.156 88.7643C275.311 92.3921 275.136 95.8857 274.011 99.2507C274.485 98.668 274.828 98.9336 274.582 100.353C273.862 102.424 273.151 102.41 272.348 104.761L272.74 102.307C271.791 103.735 271.96 105.275 271.474 106.743C270.852 107.052 269.429 110.465 269.12 109.637C268.512 112.985 267.669 113.916 266.507 117.358C268.655 114.205 266.684 118.518 267.249 118.33C267.832 117.027 268.375 115.71 268.886 114.379C266.107 119.715 269.609 112.556 268.623 112.628C270.115 110.197 268.378 116.747 270.146 112.354C269.215 115.039 268.523 116.621 267.784 118.195C267.078 119.789 266.335 121.38 265.264 124.131C266.787 120.932 265.447 125.002 266.572 123.446C264.427 127.413 265.767 124.28 264.604 125.225C263.433 127.371 262.542 127.879 261.922 130.139C259.605 133.372 261.693 129.299 260.331 130.807C260.457 130.027 262.068 127.796 263.273 125.697C264.51 123.608 265.347 121.677 264.253 121.7C265.201 119.898 265.67 117.367 266.921 114.756C265.647 116.964 263.456 119.892 262.325 122.846L263.19 123.506C262.016 125.602 262.433 126.419 261.436 127.862C261.648 126.911 260.397 128.108 259.468 129.813C259.885 129.422 260.257 128.736 260.305 129.019C258.471 132.118 258.831 132.944 256.583 136.646C258.814 133.843 259.471 133.395 261.659 130.81C261.828 131.975 260.485 132.867 259.5 134.578C259.574 134.272 259.777 133.915 259.34 134.323L258.471 136.272C255.698 139.802 257.894 135.212 255.512 138.031C253.544 139.751 253.804 141.082 252.353 142.447C252.484 142.385 252.624 142.322 252.732 142.253C252.467 142.596 252.27 142.836 252.118 143.007C252.138 143.007 252.164 143.002 252.181 143.01C250.867 144.987 249.267 146.972 249.302 147.849C248.945 147.892 248.076 149.537 247.736 150.257C247.094 151.44 245.622 154.356 243.651 155.31L243.74 155.193C241.783 157.436 240.032 158.995 240.224 158.316L236.941 161.82L236.719 160.952C234.031 164.389 234.676 164.377 233.234 167.097C230.806 169.128 227.443 173.464 226.212 175.146C225.955 175.378 225.59 175.758 225.018 176.415L226.486 175.286C224.113 177.743 224.681 177.709 223.133 179.348C223.501 179.054 223.579 179.034 222.63 179.871C222.356 180.137 222.056 180.425 221.699 180.774C221.725 180.637 222.079 180.28 222.453 179.937L221.993 180.065C219.559 181.516 219.434 183.419 217.16 185.281C217.337 185.067 217.634 184.699 217.848 184.493C216.546 185.516 214.149 186.447 214.115 187.375C213.792 187.584 213.472 188.081 213.186 188.595L212.255 189.372C212.629 189.046 212.924 188.803 213.175 188.609C212.792 189.289 212.472 189.98 212.292 189.937C211.287 190.909 210.224 191.817 209.184 192.751C208.53 193.223 207.813 194.031 207.248 194.705L206.522 194.974C205.442 196.059 205.314 195.933 205.385 195.748C200.86 198.653 199.689 201.664 194.845 204.834C194.367 205.946 196.279 204.54 196.596 204.623C196.204 205.531 193.965 207.957 192.871 209.211C190.457 210.336 184.092 214.924 184.395 213.304C180.665 216.186 185.935 212.867 184.318 214.615L183.87 214.924C185.224 214.004 186.429 213.461 187.369 213.158C188.012 213.37 184.872 216.141 183.761 216.803L183.97 215.638C180.736 218.574 182.179 218.917 180.53 221.234C177.614 223.173 178.748 221.359 177.745 221.274L174.954 223.636L174.6 223.173C172.803 224.722 172.689 225.49 169.927 227.284C171.504 225.43 165.656 229.783 167.853 227.238C166.268 228.147 166.493 229.355 165.279 229.264C164.611 230.5 166.796 228.572 167.659 228.198C168.793 228.489 164.645 230.86 162.994 232.317C162.577 232.046 163.868 231.026 161.591 232.263C161.363 232.854 160.18 234.028 158.746 234.52C159.081 235.005 156.381 236.236 155.147 237.016C156.578 236.202 158.795 235.239 158.184 236.254C157.249 237.156 156.395 237.867 153.919 239.419L155.744 238.533C154.084 240.653 151.908 240.376 149.134 242.481C150.194 241.418 150.934 240.878 151.768 239.827C150.571 240.99 148.171 243.006 146.132 244.575L143.198 245.397C143.112 245.954 140.384 247.103 140.687 247.603C137.379 249.165 142.818 245.472 142.892 244.9C138.828 246.986 140.296 247.674 136.057 249.102L137.034 247.903C135.76 248.597 133.394 250.331 133.1 250.188C133.197 250.356 133.792 249.922 134.577 249.465C134.389 250.922 129.164 253.561 130.215 254.327L132.003 253.39C129.447 255.152 127.858 256.855 125.565 257.632C123.768 258.16 126.307 256.304 127.11 255.515C124.511 256.826 125.659 257.803 122.531 259.357C124.236 258.66 124.131 259.203 123.305 260C125.122 259.112 128.95 257.309 128.056 257.215L127.356 257.458C127.37 257.098 128.284 256.472 128.69 256.075C131.118 254.767 130.087 255.941 130.686 255.884C134.777 253.781 130.427 254.653 134.08 252.587L134.671 252.516C136.262 251.233 138.936 249.634 139.033 248.719C141.033 248.491 142.912 245.966 144.866 245.317C146.095 246.58 138.768 249.002 137.151 250.936C139.23 250.133 136.474 252.276 135.868 253.079C137.751 251.69 139.65 250.339 141.507 248.925C142.098 248.834 144.278 248.485 145.026 247.283L144.541 247.54C146.783 245.914 145.78 245.712 147.931 244.649C148.328 244.589 147.851 245.206 147.757 245.4C149.714 244.369 149.108 244.103 150.271 243.195C152.205 242.129 149.728 244.389 151.374 243.546C153.139 241.578 154.824 241.438 156.65 240.178C155.341 239.901 163.205 234.188 158.772 236.148C160.112 234.988 161.403 233.757 162.72 232.569C164.357 232.026 160.529 235.788 162.191 235.614C161.043 236.428 159.878 237.225 158.692 237.982C160.006 238.653 165.479 232.249 168.559 231.74C170.438 230.48 169.878 230.66 173.663 228.569L172.429 228.144C174.349 227.01 175.277 227.044 175.477 227.141C176.474 226.301 177.428 225.619 178.422 224.927C178.265 225.244 177.994 225.633 177.397 226.153C179.099 225.619 179.351 225.147 179.625 224.545C180.17 223.768 181.259 222.936 182.353 222.076L181.622 223.176C182.23 222.574 182.973 221.831 182.927 221.619C183.375 221.257 183.79 220.894 184.155 220.517C183.747 220.603 182.636 220.685 180.913 221.705C185.187 218.823 188.214 216.161 192.122 213.95C192.199 214.295 191.04 215.786 191.488 215.458C193.276 214.147 194.753 212.179 194.296 211.953C194.656 211.607 194.942 211.35 195.196 211.13C195.69 211.059 196.273 210.942 197.104 210.299C197.353 210.219 197.718 210.028 198.298 209.545C198.284 208.408 201.717 205.906 202.14 205C201.337 205.6 200.435 206.42 199.532 207.271C200.478 205.654 201.215 204.115 202.543 203.54C200.458 206.146 205.759 201.855 202.22 205.349C205.551 203.815 203.063 203.563 206.056 201.364L208.085 200.035C208.247 200.744 205.485 202.926 206.039 202.706C206.439 202.323 206.816 201.912 207.202 201.515C206.322 203.018 201.417 206.94 199.012 210.056L205.025 205.131C206.742 203.383 208.556 201.524 210.447 199.667C212.327 197.802 214.318 195.973 216.18 194.082C219.885 190.283 223.47 186.615 225.781 183.096L225.552 183.365C225.607 183.216 225.57 183.087 225.481 182.839L225.849 182.676L226.632 181.165C228.329 180.208 230.846 177.791 233.142 175.869C232.123 176.619 231.459 176.934 231.148 176.814C230.937 176.115 230.931 175.726 232.945 173.827C233.296 174.101 232.145 175.363 233.768 174.084C232.902 174.721 233.299 173.812 234.059 172.881C235.313 171.916 237.09 170.027 237.447 170.296C237.056 170.91 236.55 171.241 236.176 171.564C235.785 172.178 238.435 169.647 237.276 171.481L239.058 169.299C240.409 168.293 238.787 170.513 239.39 170.17C242.212 166.405 242.989 163.914 245.503 160.504C245.554 160.806 246.288 161.475 246.097 161.255C248.419 158.938 249.719 155.173 251.933 152.197C251.827 152.808 250.887 153.834 250.287 154.793C257.651 146.118 263.122 138.54 269.383 129.653L269.886 126.705L271.814 124.528C274.754 119.621 276.822 114.95 278.458 110.206C280.078 105.464 281.309 100.622 282.241 95.2087C282.775 91.8323 283.297 93.3148 283.86 91.7608C284.177 89.8898 284.292 88.3501 284.377 87.0018C284.394 85.6421 284.346 84.4681 284.286 83.3083C284.097 80.9859 283.875 78.7293 283.635 75.1586C283.972 76.127 284.886 77.8209 284.854 74.693C284.557 74.1188 284.069 73.7703 284.097 71.8021L284.486 72.7762C284.646 71.865 284.586 70.9766 284.472 69.854C284.32 68.7314 284.072 67.3802 283.923 65.5063C282.869 58.9477 280.212 52.9718 276.967 48.5756C274.585 43.311 278.213 48.6441 277.947 47.5729C279.321 51.4892 279.221 50.1552 279.924 50.8522C278.916 48.8727 277.536 46.5988 277.713 45.2277C276.199 42.5283 275.573 41.2428 273.44 38.989C274.496 40.1373 274.888 41.4428 273.819 40.423C273.242 39.3089 272.02 37.4465 270.914 35.9439C269.832 34.4271 268.949 33.1959 269.415 33.0274C259.7 21.9897 245.511 13.56 231.217 8.82673C228.655 8.44395 232.982 9.6237 231.548 9.48088C227.863 8.86101 228.889 8.23542 225.947 7.74124L227.246 7.66411C226.207 7.30705 225.15 6.93284 224.041 6.72431C222.93 6.53292 221.799 6.37581 220.673 6.23584C218.428 5.95876 216.194 5.7588 214.1 5.47314C214.912 5.03323 210.784 4.33052 214.303 4.69616C212.278 4.35338 210.207 1.53682 208.502 1.75678L210.427 4.4505C210.27 4.65903 207.439 4.05344 207.696 4.2534C205.991 3.51355 203.865 2.59089 202.62 2.42521C202.086 1.71393 205.199 2.35379 206.911 2.64516C207.322 1.70536 201.195 1.07692 203.814 0.579879C200.066 0.317077 204.283 1.09691 202.014 1.25117L198.787 0.768411L201.26 1.3083C198.515 1.37686 197.541 2.05386 193.982 1.20546C192.716 1.41113 191.462 1.64251 190.211 1.99387C189.857 1.20546 187.495 1.82819 185.586 1.63394L186.792 1.14262C184.235 1.15119 183.247 1.01122 181.636 0.716993C183.07 0.0371351 183.958 0.896956 184.572 0.24852L181.744 0C181.762 0.442765 179.985 0.782694 182.004 1.06264C179.416 1.89103 178.054 2.78799 171.604 3.11078C168.607 2.54804 174.686 2.23096 173.418 1.56824C171.721 1.61681 170.358 1.73392 169.236 2.05386C168.11 2.37665 167.205 2.75371 166.39 3.12506C164.759 3.87062 163.502 4.59618 161.56 4.81328C159.058 4.95611 157.926 5.32175 156.795 5.69881C155.661 6.07302 154.53 6.49007 152.068 7.01568C153.539 6.21013 148.488 7.13565 147.477 6.92427C148.074 6.55863 148.694 6.27583 149.308 5.96447C147.82 6.39009 146.363 6.64433 146.709 6.14157C147.149 6.75002 140.499 8.46966 137.231 9.7094L137.988 10.115C135.445 11.1148 132.015 12.6916 129.235 13.4458C127.233 14.1885 126.533 14.6741 125.967 15.1625C125.399 15.6424 124.965 16.1309 123.562 17.0364C121.688 17.205 121.628 16.5451 121.954 15.7139C123.131 15.5739 124.868 14.6912 126.684 14.1656C129.144 13.023 131.298 11.8775 133.48 10.7777C134.574 10.2321 135.677 9.71226 136.837 9.23807C137.999 8.78674 139.248 8.46109 140.579 8.16972C142.487 6.20728 137.039 9.17523 134.426 9.6437C134.471 9.53515 134.648 9.4466 134.834 9.37233C134.608 9.44374 134.411 9.50087 134.191 9.54372C135.097 9.15809 136.277 8.62677 137.294 8.15258C138.313 7.69839 139.15 7.22421 139.308 6.79858C136.162 7.7898 137.416 8.78959 133.372 9.47516C130.638 10.8092 127.941 10.5121 126.159 11.0006C124.465 12.2374 124.802 13.3629 120.149 14.9683L121.857 13.4172C116.664 15.4996 119.837 15.4225 115.093 17.4192C116.772 16.7594 113.819 18.8589 116.958 17.4821C115.581 18.5447 112.253 20.2129 109.628 21.1613C109.022 21.5784 109.608 21.4755 109.605 21.7783C112.625 20.9956 113.787 19.236 116.401 18.916C116.921 18.3333 117.481 17.8306 118.029 17.2935C120.814 16.5223 121.337 17.0707 119.852 18.0305C120.583 17.6992 121.191 17.3278 121.791 17.2535C122.734 18.2876 118.44 18.0819 117.955 19.4759L119.78 18.6504C120.343 18.8818 119.332 19.4874 117.878 20.1444C116.449 20.8585 114.601 21.6898 113.421 22.2011C110.614 23.0609 108.123 24.0578 107.666 23.5894L111.119 21.6955C109.051 22.1068 106.666 24.0436 104.666 25.1462C104.495 25.1405 104.272 25.189 104.015 25.2747C104.143 25.269 104.226 25.2861 104.255 25.3404C103.812 25.5404 103.395 25.6775 103.001 25.7203C101.21 26.6402 98.7788 28.3398 97.042 29.0682L97.5134 29.4281L97.5848 29.0368C99.2187 28.1941 101.578 27.3229 100.55 28.3369C97.0735 30.5679 95.8966 30.1823 94.7882 30.2508C94.9853 29.6395 95.8566 29.1196 96.8878 28.5855C97.9419 28.0884 99.1645 27.6114 100.027 26.9829C99.2644 26.9172 98.3189 27.3943 97.0535 28.0827C95.8166 28.814 94.294 29.8052 92.3059 30.6736C93.3228 29.0139 96.5764 28.077 97.0135 26.9229C93.9056 28.514 93.4828 29.5938 90.2206 31.2649C90.3977 30.6593 93.4428 28.7854 92.9658 28.4341L90.8062 29.4281C95.7595 26.3859 89.3465 28.974 93.1314 26.4402C91.0947 27.2257 90.9405 28.6283 88.0268 29.7052C88.9694 29.6024 91.4232 28.9768 89.1208 30.7793L86.1615 32.2447C84.7446 32.5903 88.581 29.6395 86.5471 30.4365C85.6016 31.0992 84.7132 31.8505 83.8105 32.5789C84.0562 32.7417 85.5016 31.9333 84.8475 32.8303C83.0335 33.6987 82.7193 35.5383 81.0197 37.1722C79.4714 38.192 78.2174 38.969 77.489 39.0775C74.2468 42.5768 69.4135 45.999 66.6255 49.3583C68.5566 47.1016 65.9342 48.687 64.3317 49.5182C66.8512 47.2587 66.357 46.6046 65.8228 46.3189C64.2575 47.6872 63.8061 49.2554 64.7859 48.8012C61.9208 50.7494 63.3405 50.7694 60.6839 52.3205C59.0071 53.3888 60.8667 51.0379 60.1469 51.2407C57.2989 53.6745 60.064 52.6833 56.9133 55.2485C57.0018 55.0142 57.2532 54.74 56.9076 54.8371C55.1565 56.1768 53.7368 58.1193 53.6825 58.7363C51.2173 59.5504 49.1092 63.461 48.6664 62.3841C45.1786 66.4176 49.6434 62.2213 49.1863 63.2468C48.0094 65.1207 45.0215 67.8144 44.0731 68.6571C44.9101 67.6516 45.5014 66.5575 46.4897 65.7491L45.1729 66.0633C40.3539 70.6938 43.636 70.2996 39.1084 74.8329C40.8452 71.9993 39.3369 73.6103 39.9625 72.005C39.4541 72.8762 36.1976 76.7268 38.5285 74.6787C36.966 76.5183 35.9005 77.818 34.7836 79.0692C33.7838 81.0002 32.6183 83.0198 32.3727 84.351C31.4072 85.7335 30.5016 86.8933 29.7075 87.8788C28.882 88.8357 28.1907 89.6327 27.6508 90.2612C24.6 96.7141 21.0036 102.379 19.0469 109.709L19.2697 109.2C17.273 114.676 21.0236 107.086 19.1012 112.799C18.4499 111.745 17.4244 116.064 16.4703 117.838C14.1308 124.971 14.3793 130.538 13.1138 137.268C12.9253 137.197 12.7368 136.734 12.8453 135.403C12.0226 140.611 12.0483 144.91 12.174 149.714L12.0541 149.512C11.6399 157.279 13.6423 164.406 16.8045 171.898C16.4503 171.327 16.0332 171.293 15.7504 170.847C16.9987 174.798 19.821 180.951 22.2862 182.796C23.1917 185.121 23.7859 185.71 24.4372 186.447C24.7628 186.815 25.1171 187.218 25.5855 187.872C25.8169 188.201 26.0769 188.592 26.3796 189.075C26.7139 189.529 27.0938 190.072 27.5337 190.732C27.6537 191.109 27.0024 190.366 26.6967 190.075C27.6108 191.331 28.4592 192.357 29.3276 193.365C30.2645 194.308 31.2015 195.251 32.307 196.365C33.6381 197.47 34.8864 198.15 35.9434 198.824C37.0089 199.493 37.9829 200.024 39.0027 200.535C40.0082 201.067 41.0166 201.641 42.1621 202.378C43.3475 203.049 44.6701 203.883 46.2755 205.003C45.9641 206.297 42.0421 202.689 41.3394 203.42C42.7962 204.092 44.0788 204.597 45.767 206.02C44.4073 205.74 45.3671 206.134 44.3616 206.04C45.6099 207.288 50.8745 208.202 50.7603 208.302C50.9459 208.134 50.5118 207.742 49.1435 207.025C51.0545 207.311 56.0135 210.422 59.6527 211.499C58.5244 211.013 55.0794 209.328 56.6448 209.331C61.161 211.527 63.1805 210.885 66.5798 211.496C68.6737 212.396 67.8053 212.421 66.4599 212.347C65.1144 212.276 63.3348 211.964 63.5976 212.538C64.2203 213.093 65.78 214.381 63.8176 214.061C67.771 215.569 70.9189 215.601 74.5867 216.215L74.4353 216.435C79.6143 217.403 85.1788 217.035 89.4208 217.809L87.167 217.335C88.0182 217.243 90.592 217.58 92.0345 217.098C91.8517 217.503 95.1739 218.026 93.7942 218.306C94.9625 217.726 97.859 217.546 100.787 217.357C103.704 217.109 106.646 216.826 107.863 216.101C109.225 216.358 108.183 216.952 107.786 217.277C104.583 217.369 103.489 217.06 101.815 217.652C104.486 217.575 106.457 217.84 106.06 218.152C108.708 217.223 114.987 216.409 116.218 215.418C118.178 215.621 120.04 215.641 119.446 216.398C127.441 214.955 115.235 214.827 124.282 213.653C128.49 213.741 120.383 215.107 126.099 214.535L125.068 214.798C129.43 215.912 127.773 213.155 132.383 212.433C133.16 213.278 129.275 213.653 132.58 213.795C136.782 212.838 138.359 211.09 142.607 210.579L142.027 211.11C144.704 210.527 149.942 209.648 152.588 209.014C152.753 209.173 152.359 209.228 151.862 209.385C156.867 208.711 153.819 208.468 157.986 208.268L159.043 207.565C156.952 207.671 152.945 208.039 150.497 209.111C152.942 208.042 146.235 208.748 147.343 207.674L146.9 208.102C139.939 208.065 131.306 209.571 122.734 210.162C117.486 211.859 113.57 210.876 107.86 211.901C107.02 213.053 106.789 212.259 101.83 212.587C104.458 212.381 102.118 211.721 100.47 211.613C99.5101 211.896 98.3332 211.993 97.1535 212.084C96.1365 211.753 90.0149 210.545 87.7069 211.062C84.7646 210.453 88.4381 210.762 89.1037 210.582C87.9525 209.896 86.6414 210.853 85.6987 210.339C85.6987 210.339 85.7615 210.222 86.0758 210.208C81.551 209.685 78.9258 209.056 74.4096 207.839C74.1011 208.322 72.9356 208.205 71.6131 207.851C70.2905 207.482 68.7937 206.977 67.7282 206.874C68.4709 206.771 65.3544 205.617 64.1689 204.986C63.2777 204.986 62.4064 204.917 61.5295 204.849C60.2383 204.697 59.4756 204.249 58.6501 203.735C57.8388 203.189 56.9875 202.538 55.4479 202.015L56.0649 202.529C53.7025 201.924 48.655 198.156 47.1096 196.39C42.3449 193.845 38.5428 190.843 35.3835 187.655C32.347 184.356 29.8475 180.956 27.9307 177.237C24.0773 169.793 21.9663 161.666 21.0493 150.466C20.6323 149.017 20.5523 151.571 19.9953 150.446C19.7582 148.138 19.801 147.601 19.7867 145.484C19.4868 147.358 19.8667 147.055 19.5525 146.818C19.6553 147.903 19.801 148.98 19.9496 150.052C19.8753 150.212 19.8239 149.857 19.681 150.174C19.8382 151.257 20.1438 152.514 20.2209 153.899C19.7639 151.951 18.8812 151.428 19.0955 148.646C19.2154 148.855 19.2583 149.212 19.3583 149.932C19.3411 147.661 18.9612 147.549 19.164 145.83C19.3754 143.733 19.1126 144.244 19.4754 143.981C19.6782 141.816 19.9553 139.657 20.3038 137.511C19.6068 134.163 21.1436 130.287 21.4264 129.287C22.0006 130.099 20.9893 133.581 21.5292 135.246L22.3462 133.009L21.7863 132.792C22.012 131.707 22.2005 130.621 22.4548 129.542L22.5319 129.741C22.3748 129.319 22.2234 128.876 22.5662 128.079C22.6718 127.953 22.8832 127.665 22.8547 128.033C22.8804 127.236 22.9489 126.448 22.9946 125.651C23.306 127.119 23.5917 123.657 24.2172 124.151C25.237 120.461 25.6826 118.064 26.2225 115.793C26.7539 113.525 27.3937 111.385 29.0619 108.415C28.3478 109.317 28.8163 106.006 29.7818 104.135C30.4359 103.104 30.7073 102.899 30.633 103.698C30.9101 102.827 31.1558 101.939 31.4586 101.073C33.9266 98.4823 34.8265 95.2173 37.783 91.141L37.9115 91.5238C38.5857 89.7698 39.4055 87.9074 41.1166 85.685L41.3308 86.4534C43.6189 83.9168 41.7879 83.574 44.3759 80.7688C43.8246 80.3661 42.1249 82.0914 41.3965 82.0229C42.4506 81.6715 45.05 78.5065 44.0959 78.9692C46.2498 75.7956 45.7842 76.9239 46.0984 76.7611L47.2267 74.7758C49.0178 72.762 48.4322 74.6844 48.0923 75.6842C49.1635 73.319 51.3687 71.6136 53.3854 69.6255L52.8227 70.6738C53.6825 69.7797 54.5909 68.9256 55.4793 68.0629C56.7962 65.9519 59.2385 63.541 61.7294 61.5928L60.7439 63.7153C62.6549 62.5355 61.3638 62.7183 61.6866 62.207C63.9775 59.539 64.9373 59.4733 66.6541 58.642C68.4537 56.4568 70.8389 54.9457 73.1185 53.5031C75.4066 52.0606 77.6404 50.7751 79.1486 48.7984M206.642 195.131L207.116 194.862C206.354 195.793 205.956 196.362 206.642 195.131ZM228.786 172.978C226.518 176.02 226.986 174.826 226.629 174.883C229.314 172.307 230.469 170.564 232.882 168.316C232.4 168.593 232.157 168.513 231.937 168.545C232.842 167.599 233.859 166.751 234.493 166.711C234.059 168.502 227.318 173.858 228.786 172.978ZM179.739 224.27C179.802 224.136 179.876 223.99 179.97 223.839L179.988 223.825L179.742 224.27H179.739ZM193.839 211.727C194.165 211.699 194.587 211.473 195.064 211.159C194.647 211.207 194.265 211.279 193.839 211.727ZM221.993 186.89C222.882 186.544 224.156 185.016 225.087 183.916C224.587 184.37 223.704 185.198 221.993 186.89ZM210.327 5.33032C211.487 5.37602 213.706 5.37031 211.795 4.78757C210.798 4.94183 209.07 4.11057 208.199 4.45336C208.09 4.41051 208.073 4.40479 208.01 4.37909C209.104 4.86184 209.996 5.2589 210.327 5.33032ZM103.272 27.7999C103.284 27.3886 103.838 26.6516 103.238 26.663C103.326 26.6287 103.438 26.5802 103.532 26.5402C103.226 26.563 102.969 26.5859 103.126 26.4145C102.292 26.7773 101.415 27.1458 100.898 27.5371C101.187 28.7083 99.6015 29.7624 103.272 27.8028" fill="#E42320"/>
<path d="M345.766 93.6751C346.238 93.5253 346.766 93.234 347.021 93.3074C347.344 93.4004 347.536 93.7643 347.617 94.0593C347.704 94.3756 347.605 94.7473 347.573 95.0963C347.536 95.5188 347.32 95.9646 348.005 96.1819C348.227 96.2524 348.25 96.6878 348.202 96.9666C348.011 98.0585 347.796 99.154 347.516 100.249C346.95 102.473 346.349 104.696 345.739 106.919C345.189 108.922 344.41 110.937 344.093 112.923C343.774 114.918 342.764 116.881 342.335 118.858C342.289 119.069 342.396 119.272 342.356 119.483C342.253 120.009 342.188 120.544 341.959 121.062C341.571 121.942 341.244 122.796 341.085 123.699C340.916 124.651 340.233 125.633 339.801 126.605C339.645 126.956 339.56 127.315 339.452 127.67C339.39 127.872 339.374 128.076 339.289 128.276C338.32 130.554 337.025 132.778 335.412 134.939C334.766 135.804 333.992 136.634 333.243 137.467C333.119 137.605 332.834 137.718 332.614 137.764C332.526 137.782 332.291 137.566 332.332 137.496C332.865 136.595 332.258 135.902 332.148 135.11C332.057 135.601 331.968 136.091 331.898 136.468C329.676 134.519 327.252 132.585 325.605 130.186C325.59 130.164 325.534 130.163 325.363 130.111C325.486 130.355 325.54 130.537 325.655 130.686C326.849 132.223 328.058 133.753 329.251 135.29C330.143 136.439 331.02 137.597 331.824 138.819C331.416 138.536 330.955 138.287 330.608 137.966C328.473 135.983 326.362 133.984 324.246 131.988C323.986 131.742 323.722 131.487 324.496 131.154C323.571 129.931 322.679 128.748 321.784 127.567C321.74 127.509 321.7 127.414 321.628 127.41C320.631 127.339 320.671 126.648 320.412 126.152C318.792 123.042 317.191 119.923 315.59 116.806C315.459 116.552 315.147 116.318 315.692 115.972C315.79 115.911 315.705 115.642 315.655 115.484C314.894 113.084 314.121 110.687 313.358 108.288C313.063 107.36 312.775 106.429 312.498 105.495C312.382 105.105 312.225 104.716 312.884 104.318C313.005 104.245 312.985 103.976 312.957 103.815C312.848 103.175 312.936 103.083 313.797 102.824C313.974 102.771 314.201 102.548 314.234 102.408C314.354 101.891 314.73 101.642 315.447 101.621C315.509 101.429 315.509 101.229 315.638 101.073C315.852 100.817 316.122 100.465 316.421 100.384C316.718 100.304 317.216 100.428 317.388 100.605C317.75 100.977 317.961 101.439 318.223 101.869C318.401 102.161 318.522 102.398 319.054 102.537C319.682 102.702 320.057 103.24 320.496 103.645C320.672 103.807 320.728 104.045 320.839 104.25C321.895 103.777 322.313 103.78 322.649 104.529C323.486 106.396 324.261 108.289 324.95 110.209C325.381 111.41 325.859 112.639 325.863 113.927C325.866 115.578 326.94 116.798 327.399 118.25C328.469 117.98 328.696 118.02 329.057 118.688C329.441 119.397 329.734 120.144 330.112 120.855C330.19 121.002 330.493 121.049 330.663 121.164C330.921 121.34 331.284 121.494 331.371 121.734C331.677 122.585 331.884 123.468 332.128 124.334C332.508 124.317 332.866 124.301 333.272 124.283C333.289 124.252 333.346 124.184 333.356 124.119C333.606 122.71 334.017 121.3 334.392 119.887C335.292 116.494 335.873 113.104 336.574 109.713C337.041 107.45 337.493 105.186 337.955 102.923C338.058 102.419 338.185 102.334 339.101 102.163C339.334 101.045 339.572 99.9158 339.801 98.7869C339.882 98.3882 339.926 97.9988 340.639 97.8164C340.754 97.7871 340.871 97.5728 340.918 97.4416C341.095 96.9358 341.424 96.6485 342.113 96.837C342.309 96.4828 342.399 96.117 342.685 95.854C343.12 95.452 343.487 95.6432 343.812 96.0411C344.036 95.2368 344.192 94.5591 344.432 93.8855C344.506 93.6803 344.776 93.4421 345.029 93.3033C345.15 93.2362 345.472 93.332 345.641 93.4155C345.75 93.4691 345.746 93.6323 345.764 93.6753L345.766 93.6751ZM336.95 125.252C337.106 125 337.327 124.749 337.408 124.496C338.228 121.917 339.081 119.337 339.811 116.758C340.284 115.087 340.566 113.416 340.933 111.744C340.857 111.747 340.78 111.75 340.703 111.753C339.846 114.98 339.003 118.207 338.124 121.434C337.778 122.709 337.35 123.983 336.966 125.263C336.829 125.65 336.681 126.035 336.556 126.421C336.298 127.215 336.054 128.01 335.803 128.805C335.867 128.806 335.932 128.807 335.996 128.808C336.142 128.407 336.326 128.005 336.427 127.604C336.625 126.82 336.778 126.037 336.949 125.252L336.95 125.252ZM325.746 124.925C325.674 124.957 325.601 124.988 325.529 125.02C326.826 127.195 328.124 129.37 329.42 131.545C329.373 131.566 329.324 131.588 329.277 131.609C328.847 131.103 328.417 130.597 327.987 130.091C327.958 130.107 327.93 130.123 327.901 130.138C328.238 130.708 328.576 131.278 328.913 131.847C328.829 131.885 328.745 131.924 328.662 131.962C327.198 129.822 325.734 127.681 324.269 125.542C324.227 125.559 324.186 125.577 324.144 125.594C325.2 127.483 326.255 129.372 327.311 131.26C327.363 131.238 327.415 131.215 327.468 131.193C327.471 131.119 327.473 131.046 327.476 130.972C327.518 130.96 327.56 130.947 327.602 130.935C328.284 131.862 328.966 132.788 329.648 133.714C330.405 132.696 330.226 131.831 329.766 131.072C328.936 129.702 327.964 128.395 327.072 127.052C326.608 126.353 326.186 125.635 325.746 124.926L325.746 124.925ZM343.953 106.951C343.966 106.967 343.979 106.983 343.991 106.999C344.305 105.984 344.634 104.97 344.93 103.954C345.516 101.951 346.091 99.9468 346.646 97.9432C346.701 97.7455 346.686 97.4416 346.524 97.37C345.955 97.1153 345.942 96.6812 345.962 96.2195C345.97 96.0201 346.008 95.8174 346.032 95.6166C345.93 95.6258 345.827 95.6351 345.725 95.6443C345.527 98.9001 344.345 102.191 343.701 105.462C344.491 102.872 345.281 100.281 346.071 97.6904C346.15 97.6898 346.229 97.6893 346.308 97.6888C345.523 100.776 344.737 103.864 343.952 106.951L343.953 106.951ZM333.069 129.687C333.133 129.683 333.197 129.679 333.262 129.675C334.057 128.3 335.741 127.086 335.569 125.534C335.553 125.38 335.652 125.202 335.688 125.036C335.959 123.786 336.229 122.536 336.499 121.286C336.394 121.288 336.291 121.29 336.186 121.293C335.861 122.446 335.531 123.599 335.211 124.752C335 125.51 334.921 126.282 334.566 127.024C334.264 127.652 334.028 128.418 332.81 128.75C332.897 129.064 332.983 129.375 333.069 129.686L333.069 129.687ZM336.14 119.016C336.23 119.012 336.32 119.007 336.409 119.003C337.042 116.166 337.674 113.329 338.307 110.491C338.221 110.494 338.135 110.497 338.049 110.5C337.006 113.352 336.824 116.176 336.139 119.016L336.14 119.016ZM342.033 101.963C341.994 101.964 341.956 101.963 341.917 101.964C341.89 102.013 341.85 102.063 341.838 102.111C341.274 104.317 340.707 106.524 340.155 108.73C339.997 109.36 339.881 109.989 339.747 110.618C339.828 110.615 339.91 110.611 339.99 110.607C340.671 107.726 341.352 104.845 342.033 101.964L342.033 101.963ZM337.229 127.337C336.596 129.038 335.98 130.697 335.364 132.355C336.216 130.708 337.1 129.063 337.229 127.337ZM324.338 127.212C324.223 127.26 324.108 127.308 323.993 127.357C324.453 128.133 324.911 128.909 325.371 129.685C325.47 129.643 325.571 129.601 325.67 129.558C325.226 128.776 324.782 127.994 324.339 127.211L324.338 127.212ZM319.547 120.848C319.447 120.884 319.347 120.92 319.246 120.957C319.582 121.905 320.255 122.713 320.884 123.54C320.438 122.643 319.993 121.745 319.547 120.848ZM317.746 109.966C317.919 111.053 317.944 111.078 318.603 110.909C318.517 109.848 318.451 109.77 317.746 109.966ZM333.276 133.861C333.406 133.152 333.536 132.444 333.666 131.735C333.304 132.46 332.784 133.192 333.276 133.861ZM318.859 108.754C318.769 108.779 318.677 108.806 318.587 108.831C318.812 109.639 319.038 110.446 319.264 111.254C319.32 111.238 319.376 111.222 319.432 111.206C319.242 110.388 319.051 109.57 318.86 108.753L318.859 108.754ZM341.574 114.726C341.63 114.721 341.687 114.717 341.743 114.712C342.035 113.766 342.326 112.82 342.618 111.874C342.549 111.873 342.479 111.874 342.41 111.873C342.131 112.824 341.853 113.775 341.574 114.726ZM331.721 127.321C331.967 127.725 332.17 128.058 332.372 128.391C332.355 127.969 332.995 127.259 331.721 127.321ZM316.058 113.214C316.136 113.185 316.213 113.157 316.291 113.128C315.647 112.839 316.768 111.897 315.469 111.776C315.683 112.298 315.87 112.756 316.057 113.214L316.058 113.214ZM330.347 133.521C329.729 133.92 329.804 134.117 330.765 134.503C330.605 134.127 330.478 133.83 330.347 133.521ZM336.803 123.96C336.764 123.959 336.727 123.958 336.688 123.957C336.454 124.611 336.219 125.265 335.984 125.918C336.051 125.919 336.117 125.922 336.184 125.923C336.39 125.268 336.596 124.615 336.803 123.96Z" fill="#333333"/>
<path d="M373.814 107.944C373.389 108.503 372.794 108.656 372.036 108.503C372.091 108.73 372.13 108.892 372.168 109.053C372.131 109.072 372.094 109.091 372.058 109.11C371.89 108.97 371.714 108.836 371.556 108.689C371.287 108.438 371.128 108.131 370.421 108.355C370.158 108.438 369.704 108.226 369.469 108.051C368.697 107.477 368.008 106.843 367.236 106.268C367.005 106.096 366.614 106.038 366.286 105.94C365.69 105.763 365.094 105.588 364.488 105.425C363.776 105.232 363.081 105.004 362.329 104.881C361.632 104.768 361.181 105.021 361.214 105.557C361.269 106.447 361.324 107.374 361.712 108.155C362.158 109.053 362.9 109.848 363.63 110.62C365.2 112.281 366.841 113.901 368.464 115.531C369.009 116.078 369.593 116.6 370.15 117.14C370.298 117.283 370.482 117.43 370.526 117.609C370.822 118.808 371.185 119.996 371.321 121.231C371.401 121.962 371.113 122.772 370.977 123.547C370.913 123.918 370.702 124.319 370.765 124.654C370.925 125.498 370.321 126.26 369.699 126.973C368.92 127.869 368.073 128.785 367.043 129.53C366.063 130.238 364.826 130.775 363.482 130.897C363.26 130.917 363.036 130.937 362.831 130.955C361.966 132.382 361.003 132.815 359.175 132.548C356.78 132.199 354.924 131.259 353.451 129.985C352.217 128.917 351.153 127.736 349.984 126.624C349.784 126.434 349.417 126.351 349.147 126.202C348.937 126.085 348.677 125.978 348.576 125.807C347.877 124.614 347.192 123.415 346.551 122.197C346.318 121.755 346.608 121.373 347.405 121.167C347.306 120.86 347.215 120.578 347.127 120.295C347.01 119.917 346.895 119.55 347.442 119.15C347.567 119.058 347.536 118.84 347.553 118.681C347.599 118.271 347.8 117.948 348.431 117.794C348.596 117.754 348.748 117.627 348.901 117.536C349.181 117.37 349.456 117.197 349.74 117.034C349.857 116.966 350.028 116.935 350.109 116.856C350.773 116.206 350.797 116.197 351.609 116.481C352.489 115.973 352.794 115.944 353.4 116.48C354.304 117.28 355.141 118.123 356.006 118.948C356.32 119.248 356.586 119.584 356.954 119.844C358.476 120.916 360.025 121.968 361.574 123.019C361.847 123.204 362.172 123.348 362.472 123.511C362.539 123.485 362.605 123.46 362.672 123.434C362.623 123.006 362.587 122.576 362.522 122.151C362.414 121.448 362.29 120.748 362.166 120.048C362.148 119.944 362.115 119.839 362.052 119.753C361.407 118.867 360.765 117.98 360.095 117.108C359.873 116.819 359.646 116.498 359.29 116.318C358.14 115.741 357.455 114.886 356.764 114.02C356.57 113.777 356.201 113.628 355.922 113.429C355.602 113.201 355.284 112.971 354.981 112.73C354.307 112.195 354.047 111.386 353.02 111.074C352.811 111.011 352.716 110.745 352.661 110.547C352.419 109.657 352.224 108.754 351.977 107.866C351.921 107.664 351.687 107.517 351.6 107.321C351.461 107.008 351.214 106.678 351.298 106.351C351.522 105.482 351.898 104.611 352.216 103.741C352.687 102.449 353.336 101.232 354.542 100.051C355.056 99.549 355.515 99.0075 356.169 98.6063C356.788 98.2273 357.517 97.9617 358.182 97.6245C358.575 97.4248 358.98 97.2381 359.045 96.8117C359.068 96.6658 359.512 96.3929 359.774 96.3446C360.364 96.2354 360.964 96.2033 361.549 96.1894C362.068 96.1771 362.517 96.2017 363.046 95.8723C363.342 95.6888 363.887 95.6529 364.276 95.6713C365.095 95.7101 365.886 95.8281 366.691 95.9134C367.402 95.2115 367.507 95.2487 368.491 95.4808C369.306 95.6719 370.164 95.7641 370.63 96.3225C373.696 96.6652 374.06 98.7989 375.252 100.378C375.811 101.116 376.271 101.904 376.805 102.655C377.108 103.082 377.595 103.436 377.198 104.072C377.133 104.176 377.263 104.31 377.248 104.436C377.17 105.058 377.189 105.693 376.929 106.302C376.813 106.573 376.12 106.794 375.474 107.159C375.169 107.932 374.97 108.049 373.814 107.945L373.814 107.944ZM361.685 124.725C358.777 122.76 355.52 121.08 353.632 118.43C353.008 118.699 353.294 118.875 353.481 119.061C355.4 120.964 357.369 122.831 359.923 124.296C360.431 124.588 360.799 125.024 361.686 124.726L361.685 124.725ZM354.643 125.49C354.7 125.457 354.756 125.424 354.813 125.39C354.722 125.265 354.636 125.137 354.539 125.016C353.253 123.412 351.944 121.819 350.695 120.196C350.422 119.841 350.173 119.637 349.5 119.905C349.514 119.982 349.533 120.065 349.541 120.151C349.626 121.002 350.381 121.517 350.994 122.098C352.197 123.237 353.425 124.361 354.644 125.49L354.643 125.49ZM349.149 122.79C348.604 122.991 348.661 123.185 348.789 123.474C349.232 124.483 350.324 125.096 351.135 125.878C352.292 126.997 353.511 128.078 354.73 129.157C355.125 129.508 355.191 129.484 355.817 129.231C353.013 127.444 350.883 125.24 349.15 122.791L349.149 122.79ZM355.528 129.347C355.468 129.431 355.409 129.516 355.349 129.6C356.687 130.454 358.177 131.146 360.095 131.33C360.387 131.358 360.789 131.139 361.14 131.034C360.913 130.861 360.692 130.682 360.451 130.519C360.393 130.48 360.26 130.505 360.174 130.483C359.413 130.293 358.658 130.096 357.895 129.909C357.11 129.716 356.317 129.533 355.528 129.347ZM361.543 128.366C358.951 127.647 357.368 126.167 355.473 124.951C356.326 125.768 357.18 126.586 358.033 127.403C357.985 127.439 357.938 127.474 357.89 127.51C357.515 127.311 357.127 127.124 356.77 126.911C356.43 126.707 356.123 126.476 355.671 126.167C356.654 127.337 358.063 127.927 359.539 128.464C360.108 128.671 360.682 128.731 361.543 128.366ZM354.855 123.246C354.864 123.233 354.871 123.22 354.88 123.208C353.833 121.814 352.786 120.421 351.739 119.028C351.81 118.989 351.882 118.95 351.954 118.911C352.362 119.312 352.77 119.713 353.178 120.114C353.247 120.073 353.315 120.032 353.384 119.991C352.892 119.4 352.401 118.808 351.937 118.252C351.387 118.479 351.045 118.62 350.653 118.783C350.675 118.945 350.619 119.168 350.737 119.284C352.095 120.614 353.478 121.928 354.855 123.246ZM365.62 120.913C365.722 120.912 365.825 120.91 365.928 120.909C365.982 120.682 366.123 120.431 366.073 120.233C365.952 119.753 365.759 119.292 365.566 118.833C365.09 117.698 364.847 116.442 363.263 115.876C363.126 115.827 363.042 115.715 362.943 115.625C362.57 115.285 362.2 114.943 361.829 114.602C361.761 114.636 361.692 114.669 361.624 114.703C363.625 116.47 365.316 118.377 365.619 120.914L365.62 120.913ZM356.245 99.9327C355.262 100.935 354.555 101.946 353.959 102.988C353.816 103.236 353.669 103.525 353.701 103.755C353.909 105.202 354.153 106.64 354.42 108.073C354.476 108.374 354.687 108.638 354.827 108.919C354.715 108.053 354.441 107.249 354.318 106.41C354.217 105.727 354.236 105.007 354.314 104.293C354.38 103.684 354.317 103.113 354.94 102.431C355.593 101.717 355.803 100.824 356.245 99.9327ZM362.492 100.122C361.769 100.469 361.048 100.819 360.321 101.162C359.679 101.464 359.372 101.847 359.359 102.367C359.347 102.894 359.226 103.437 359.185 103.968C359.153 104.371 359.157 104.772 359.178 105.167C359.198 105.548 359.261 105.922 359.305 106.298C359.281 106.293 359.257 106.288 359.232 106.283C359.526 105.057 359.819 103.83 360.115 102.594C359.982 102.651 359.83 102.716 359.536 102.844C360.056 101.593 361.471 101.004 362.492 100.121L362.492 100.122ZM357.372 102.73C356.833 104.22 357.009 105.625 357.126 107.033C357.268 108.752 357.905 110.069 358.929 110.795C357.091 108.43 357.294 105.574 357.372 102.73ZM361.117 98.3054C361.143 98.3411 361.168 98.3761 361.195 98.4117C361.772 98.2014 362.348 97.9918 362.997 97.7561C362.926 97.945 362.895 98.0273 362.847 98.1543C364.71 97.0728 366.321 97.2697 367.942 97.6753C366.955 97.3368 365.917 97.0891 364.867 96.8608C364.652 96.8145 364.342 96.7642 364.157 96.8472C363.13 97.3105 362.127 97.8153 361.116 98.3055L361.117 98.3054ZM364.265 98.3576C364.251 98.4356 364.236 98.5128 364.222 98.5908C366.115 98.8974 367.487 99.7634 368.969 100.53C368.924 100.329 368.892 100.107 368.718 100.011C367.63 99.4103 366.537 98.8128 365.382 98.277C365.146 98.1675 364.644 98.3243 364.265 98.3584L364.265 98.3576ZM370.128 103.884C370.368 104.462 370.555 105.062 370.861 105.611C371.171 106.167 371.204 106.899 372.363 107.143C371.879 105.847 371.149 104.803 370.128 103.884ZM356.716 101.889C356.652 101.878 356.587 101.867 356.523 101.856C356.31 102.262 355.918 102.695 355.916 103.068C355.91 104.278 356.047 105.465 356.131 106.68L356.716 101.889ZM366.016 102.415C365.552 102.242 365.12 102.023 364.617 101.91C363.937 101.757 363.218 101.647 362.485 101.594C362.085 101.565 361.66 101.721 361.729 102.214C363.303 101.863 364.634 102.162 366.016 102.415L366.016 102.415ZM360.588 125.519C360.822 125.583 361.045 125.668 361.292 125.709C362.392 125.887 363.534 125.679 364.692 125.37C365.662 125.111 365.902 124.924 366.179 123.974C364.46 125.595 362.6 125.796 360.588 125.519ZM359.597 100.82C360.672 100.09 361.669 99.4138 362.832 98.6245C362.497 98.6326 362.265 98.5798 362.112 98.6504C360.926 99.198 359.591 100.302 359.598 100.819L359.597 100.82ZM358.298 106.381C358.319 106.378 358.34 106.375 358.361 106.372C358.433 105.02 358.505 103.669 358.577 102.317C358.302 102.505 358.117 102.721 358.106 102.915C358.074 103.442 358.102 103.963 358.133 104.481C358.173 105.117 358.242 105.748 358.298 106.381ZM357.395 128.865C356.401 128.273 355.43 127.694 354.457 127.115C355.414 128.412 355.889 128.682 357.395 128.865ZM359.414 126.055C360.025 126.888 363.975 127.46 364.616 126.795C362.591 127.068 360.887 126.796 359.414 126.055ZM372.441 104.561C371.761 103.337 371.35 101.977 369.967 101.105C370.792 102.257 371.616 103.409 372.441 104.561ZM364.6 122.403C365.199 121.895 364.978 120.564 364.198 119.755C364.335 120.657 364.465 121.512 364.6 122.403ZM359.462 99.2793C357.822 100.163 356.889 101.212 357.088 101.66C357.862 100.884 358.662 100.081 359.462 99.2793ZM362.074 97.3404C360.831 97.1418 360.419 97.3256 359.76 98.3982C360.493 98.0629 361.228 97.7275 362.074 97.3404ZM363.628 102.911C362.538 102.565 361.303 102.805 361.201 103.408C362.039 103.236 362.888 103.062 363.628 102.911ZM359.777 124.732C358.879 124.149 357.981 123.566 357.083 122.983C357.912 123.623 358.394 124.546 359.777 124.732ZM361.882 128.776C362.975 129.239 363.527 129.163 364.027 128.51C363.251 128.606 362.567 128.691 361.882 128.776ZM361.857 116.903C362.199 117.587 362.489 118.167 362.779 118.747C362.848 118.719 362.918 118.69 362.987 118.662C362.848 118.017 362.837 117.317 361.857 116.903ZM362.913 112.237C362.842 112.286 362.771 112.334 362.7 112.382C363.304 112.957 363.908 113.532 364.512 114.108C364.575 114.068 364.637 114.029 364.699 113.99C364.104 113.406 363.508 112.822 362.913 112.238L362.913 112.237ZM364.62 100.57C363.787 100.057 363.551 100.087 362.951 100.72L364.62 100.57ZM373.703 103.304C373.632 103.331 373.562 103.359 373.491 103.387C373.751 103.913 374.012 104.438 374.272 104.965C374.358 104.929 374.442 104.895 374.528 104.859C374.253 104.341 373.978 103.822 373.703 103.304ZM357.727 110.729C357.793 110.697 357.859 110.666 357.925 110.634C357.57 110.116 357.214 109.599 356.859 109.081C356.775 109.121 356.691 109.161 356.607 109.2C356.981 109.71 357.354 110.22 357.727 110.729ZM365.561 122.851C365.481 122.828 365.399 122.805 365.319 122.782C365.075 123.112 364.832 123.442 364.587 123.773C364.677 123.798 364.767 123.822 364.857 123.847C365.091 123.515 365.326 123.183 365.56 122.852L365.561 122.851ZM359.25 109.955C359.309 109.929 359.367 109.903 359.425 109.877C359.196 109.38 358.968 108.882 358.739 108.383C358.667 108.412 358.595 108.439 358.522 108.468C358.765 108.963 359.007 109.459 359.25 109.955ZM367.122 103.524C367.083 103.582 367.043 103.642 367.004 103.701C367.433 103.818 367.862 103.934 368.291 104.051C368.352 103.958 368.414 103.865 368.475 103.772C368.024 103.689 367.573 103.606 367.123 103.523L367.122 103.524ZM357.929 125.793C357.974 125.766 358.019 125.739 358.064 125.711C357.568 125.374 357.073 125.037 356.577 124.699C356.558 124.712 356.541 124.724 356.523 124.738C356.991 125.09 357.46 125.441 357.928 125.794L357.929 125.793Z" fill="#333333"/>
<path d="M86.8203 81.728H83.1683V67.516H77.8443V106.984H83.1683V86.832H86.8203V107.952H92.2763V66.856H86.8203V81.728ZM72.6083 74.82H75.0283V69.672H55.7123V74.82H58.6163V96.292H55.4043L55.6683 101.44H60.4643C65.8323 101.44 71.7283 101.044 76.4363 100.296L75.9083 95.324L72.6083 95.72V74.82ZM67.6803 96.072C66.2283 96.16 64.8203 96.248 63.5003 96.248V74.82H67.6803V96.072ZM132.459 97.656V66.856H126.827V75.876H120.887V80.672H126.827V97.656H132.459ZM122.207 86.172C117.499 86.92 112.571 87.36 108.127 87.36H104.431V82.916H118.995V77.988H104.431V73.852H119.435V68.836H98.799V92.376H107.159C112.879 92.376 118.379 91.848 122.867 91.056L122.207 86.172ZM110.151 95.544H104.563V107.952H133.955V102.848H110.151V95.544ZM160.674 80.584C167.318 80.584 172.07 78.604 172.07 73.72C172.07 68.968 167.318 66.988 160.674 66.988H153.282C146.638 66.988 141.93 68.968 141.93 73.72C141.93 78.604 146.638 80.584 153.282 80.584H160.674ZM154.426 76.228C150.026 76.228 147.518 75.524 147.518 73.808C147.518 72.092 150.026 71.388 154.426 71.388H159.574C163.974 71.388 166.438 72.092 166.438 73.808C166.438 75.48 163.974 76.228 159.574 76.228H154.426ZM176.338 87.448V83.004H137.618V87.448H176.338ZM172.95 108.172V103.684H147.738V101.22H171.85V90.176H141.93V94.576H166.218V96.908H142.15V108.172H172.95ZM220.174 81.728H216.522V67.516H211.55V106.984H216.522V86.832H220.174V107.952H225.322V66.856H220.174V81.728ZM190.034 69.892V75.04H193.994C193.994 82.344 192.322 90.792 188.714 100.604L193.466 102.496C197.162 92.64 198.966 83.752 198.966 73.94V69.892H190.034ZM204.114 75.04C204.114 82.476 202.31 92.464 198.57 102.276L203.366 104.212C207.194 94.312 209.13 83.84 209.13 73.94V69.892H200.198V75.04H204.114ZM239.897 79.088V67.692H234.265V84.192H263.261V79.088H239.897ZM268.057 92.992V87.888H229.337V92.992H268.057ZM264.229 107.952V102.716H239.897V96.072H234.265V107.952H264.229ZM135.1 141.728V126.856H129.468V167.952H135.1V146.832H141.04V141.728H135.1ZM116.092 129.144H110.592V134.732C110.592 144.016 107.688 151.408 100.692 158.844L104.74 162.452C108.304 158.712 110.988 154.752 112.836 150.616L121.812 162.056L126.08 158.58L114.992 144.368C115.74 141.288 116.092 138.076 116.092 134.732V129.144ZM171.411 135.216C171.411 139.308 170.663 146.744 169.563 153.212L175.107 154.092C176.295 147.184 177.087 139.616 177.087 133.544V129.848H146.507V134.996H171.411V135.216ZM161.599 144.456H155.967V159.944H142.635V165.092H181.355V159.944H161.599V144.456ZM213.485 131.608H207.589V135.92H213.485V139.748H207.589V144.06H213.485V150.748H219.117V126.9H213.485V131.608ZM206.885 143.928C202.793 144.588 198.525 144.984 194.389 144.984H190.957V141.464H204.289V128.616H185.501V133.412H198.833V136.712H185.501V149.824H193.377C198.877 149.824 203.541 149.34 207.501 148.592L206.885 143.928ZM213.485 158.096V168.392H219.117V152.992H190.781V158.096H213.485Z" fill="white"/>
<path d="M455.841 88.168H451.017V75.712H448.533V107.788H451.017V90.544H455.841V108.4H458.361V75.172H455.841V88.168ZM442.701 80.212H445.437V77.836H429.669V80.212H432.657V100.516H429.489L429.597 102.892H433.737C437.841 102.892 442.809 102.532 446.769 101.884L446.481 99.616C445.257 99.796 443.997 99.94 442.701 100.048V80.212ZM440.289 100.264C438.417 100.408 436.581 100.48 435.033 100.516V80.212H440.289V100.264ZM491.418 100.732V75.172H488.862V83.344H482.706V85.612H488.862V100.732H491.418ZM484.686 91.984C480.582 92.668 475.398 93.1 471.33 93.1H467.874V87.268H480.834V84.964H467.874V79.456H481.23V77.152H465.282V95.44H470.898C475.794 95.44 481.158 94.972 485.01 94.288L484.686 91.984ZM472.626 99.004H470.07V108.4H492.966V106.024H472.626V99.004ZM514.61 86.188C520.37 86.188 524.006 84.568 524.006 80.788C524.006 77.044 520.37 75.46 514.61 75.46H509.93C504.206 75.46 500.57 77.044 500.57 80.788C500.57 84.568 504.206 86.188 509.93 86.188H514.61ZM510.362 83.992C505.682 83.992 503.126 82.984 503.126 80.788C503.126 78.664 505.682 77.656 510.362 77.656H514.214C518.894 77.656 521.414 78.664 521.414 80.788C521.414 82.912 518.894 83.992 514.214 83.992H510.362ZM527.822 91.228V89.032H496.718V91.228H527.822ZM524.726 108.58V106.384H503.306V102.532H523.826V94.468H500.57V96.628H521.234V100.372H500.75V108.58H524.726ZM566.645 93.892V75.136H563.045V93.892H566.645ZM548.249 92.596C553.217 92.596 557.177 89.968 557.177 84.532V83.956C557.177 78.484 553.217 75.856 548.249 75.856C543.281 75.856 539.285 78.484 539.285 83.956V84.532C539.285 89.968 543.281 92.596 548.249 92.596ZM548.249 89.428C545.189 89.428 542.885 87.772 542.885 84.46V83.992C542.885 80.644 545.189 79.024 548.249 79.024C551.309 79.024 553.613 80.644 553.613 83.992V84.46C553.613 87.772 551.309 89.428 548.249 89.428ZM566.645 108.904V95.98H544.217V99.256H563.045V108.904H566.645ZM596.462 108.544H600.062V75.136H596.462V108.544ZM580.478 75.172V80.068H572.378V83.272H592.25V80.068H584.114V75.172H580.478ZM582.35 86.26C577.634 86.26 573.926 89.32 573.926 94.144V96.088C573.926 100.912 577.634 104.008 582.35 104.008C586.994 104.008 590.738 100.912 590.738 96.088V94.144C590.738 89.32 586.994 86.26 582.35 86.26ZM587.138 95.944C587.138 98.968 585.014 100.804 582.35 100.804C579.65 100.804 577.526 98.968 577.526 95.944V94.288C577.526 91.3 579.65 89.5 582.35 89.5C585.014 89.5 587.138 91.3 587.138 94.288V95.944ZM612.634 85.828V75.856H609.034V89.14H632.254V85.828H612.634ZM636.25 96.052V92.74H604.858V96.052H636.25ZM632.938 108.544V105.196H612.634V98.86H609.034V108.544H632.938ZM506.131 136.532V129.98H511.315V127.82H487.879V129.98H493.027V136.532H487.879V138.692H511.315V136.532H506.131ZM503.611 129.98V136.532H495.547V129.98H503.611ZM515.131 141.536H484.027V143.768H498.319V146.828H487.879V148.988H508.543V152.552H488.059V160.58H512.035V158.42H490.615V154.712H511.135V146.828H500.875V143.768H515.131V141.536ZM545.524 160.4V127.172H542.932V160.4H545.524ZM527.416 155.972C532.096 155.972 535.948 152.84 535.948 144.956V139.988C535.948 132.104 532.096 128.972 527.416 128.972C522.736 128.972 518.884 132.104 518.884 139.988V144.956C518.884 152.84 522.736 155.972 527.416 155.972ZM527.416 153.596C523.996 153.596 521.476 151.112 521.476 144.92V139.988C521.476 133.796 523.996 131.348 527.416 131.348C530.836 131.348 533.392 133.796 533.392 139.988V144.92C533.392 151.112 530.836 153.596 527.416 153.596ZM576.384 131.78H570.264V133.904H576.384V138.008H570.264V140.168H576.384V146.576H578.94V127.208H576.384V131.78ZM570.768 142.076C566.88 142.688 562.416 143.084 558.528 143.084H555.36V138.152H567.42V128.972H552.84V131.24H564.9V135.884H552.84V145.388H558.06C562.848 145.388 567.42 144.92 571.056 144.308L570.768 142.076ZM576.384 151.292V160.724H578.94V148.916H557.232V151.292H576.384Z" fill="white"/>
</svg>
