<svg width="137" height="90" viewBox="0 0 137 90" fill="none" xmlns="http://www.w3.org/2000/svg">
<g clip-path="url(#clip0_59_2549)">
<path d="M111.707 2.54346H28.066V3.93838H111.707V2.54346Z" fill="#D4D4D4" stroke="#D4D4D4" stroke-width="2.45" stroke-miterlimit="10"/>
<path d="M72.5702 3.24103C72.5702 1.682 71.3052 0.416992 69.7462 0.416992C68.1871 0.416992 66.9221 1.682 66.9221 3.24103C66.9221 4.25987 67.4623 5.1488 68.2726 5.64454H67.0213V50.8189H72.471V5.64796H71.2197C72.03 5.15222 72.5702 4.25987 72.5702 3.24445V3.24103Z" fill="#D4D4D4" stroke="#D4D4D4" stroke-width="2.45" stroke-linejoin="round"/>
<path d="M112.452 3.24098C112.452 4.22563 111.652 5.02567 110.667 5.02567C109.683 5.02567 108.883 4.22563 108.883 3.24098C108.883 2.25633 109.683 1.4563 110.667 1.4563C111.652 1.4563 112.452 2.25633 112.452 3.24098Z" fill="#D4D4D4" stroke="#D4D4D4" stroke-width="2.45" stroke-miterlimit="10"/>
<path d="M131.612 56.7748C131.612 57.5783 132.265 58.2313 133.068 58.2313C133.872 58.2313 134.525 57.5783 134.525 56.7748C134.525 55.9714 133.872 55.3184 133.068 55.3184C132.265 55.3184 131.612 55.9714 131.612 56.7748Z" fill="#D4D4D4" stroke="#D4D4D4" stroke-width="2.45" stroke-miterlimit="10"/>
<path d="M83.2373 56.7748C83.2373 57.5783 83.8903 58.2313 84.6938 58.2313C85.4972 58.2313 86.1502 57.5783 86.1502 56.7748C86.1502 55.9714 85.4972 55.3184 84.6938 55.3184C83.8903 55.3184 83.2373 55.9714 83.2373 56.7748Z" fill="#D4D4D4" stroke="#D4D4D4" stroke-width="2.45" stroke-miterlimit="10"/>
<path d="M132.808 57.5816C132.808 70.7787 122.111 72.1531 108.913 72.1531C95.7164 72.1531 85.0186 70.7787 85.0186 57.5816C85.0186 53.937 96.1164 53.3558 107.618 53.3729C119.981 53.39 132.808 54.2618 132.808 57.5816Z" fill="#D4D4D4" stroke="#D4D4D4" stroke-width="2.45" stroke-miterlimit="10"/>
<path d="M131.902 57.0175C131.902 58.3304 121.659 59.3971 109.026 59.3971C96.3934 59.3971 86.1503 58.3304 86.1503 57.0175C86.1503 55.7046 96.3934 54.6379 109.026 54.6379C121.659 54.6379 131.902 55.7046 131.902 57.0175Z" fill="#7E7E7D"/>
<path d="M29.6319 3.24098C29.6319 4.22563 28.8318 5.02567 27.8472 5.02567C26.8625 5.02567 26.0625 4.22563 26.0625 3.24098C26.0625 2.25633 26.8625 1.4563 27.8472 1.4563C28.8318 1.4563 29.6319 2.25633 29.6319 3.24098Z" fill="#D4D4D4" stroke="#D4D4D4" stroke-width="2.45" stroke-miterlimit="10"/>
<path d="M48.7916 56.7746C48.7916 57.578 49.4446 58.231 50.2481 58.231C51.0515 58.231 51.7046 57.578 51.7046 56.7746C51.7046 55.9711 51.0515 55.3181 50.2481 55.3181C49.4446 55.3181 48.7916 55.9711 48.7916 56.7746Z" fill="#D4D4D4" stroke="#D4D4D4" stroke-width="2.45" stroke-miterlimit="10"/>
<path d="M0.417114 56.7746C0.417114 57.578 1.07013 58.231 1.87358 58.231C2.67703 58.231 3.33004 57.578 3.33004 56.7746C3.33004 55.9711 2.67703 55.3181 1.87358 55.3181C1.07013 55.3181 0.417114 55.9711 0.417114 56.7746Z" fill="#D4D4D4" stroke="#D4D4D4" stroke-width="2.45" stroke-miterlimit="10"/>
<path d="M49.9882 57.5816C49.9882 70.7787 39.2904 72.1531 26.0933 72.1531C12.8962 72.1531 2.19836 70.7787 2.19836 57.5816C2.19836 53.937 13.2962 53.3558 24.7975 53.3729C37.1604 53.39 49.9882 54.2618 49.9882 57.5816Z" fill="#D4D4D4" stroke="#D4D4D4" stroke-width="2.45" stroke-miterlimit="10"/>
<path d="M49.0822 57.0175C49.0822 58.3304 38.8391 59.3971 26.2062 59.3971C13.5732 59.3971 3.33008 58.3304 3.33008 57.0175C3.33008 55.7046 13.5732 54.6379 26.2062 54.6379C38.8391 54.6379 49.0822 55.7046 49.0822 57.0175Z" fill="#7E7E7D"/>
<path d="M80.55 89.5828H58.939L69.7462 72.1531L80.55 89.5828Z" fill="#D4D4D4" stroke="#D4D4D4" stroke-width="2.45" stroke-miterlimit="10"/>
<path d="M73.5138 33.2524H65.9785V78.4268H73.5138V33.2524Z" fill="#D4D4D4" stroke="#D4D4D4" stroke-width="2.45" stroke-miterlimit="10"/>
<path d="M1.87695 55.3181L27.6352 5.02563L50.248 55.3181" stroke="#D4D4D4" stroke-width="2.45" stroke-miterlimit="10"/>
<path d="M84.6938 55.3181L110.456 5.02563L133.068 55.3181" stroke="#D4D4D4" stroke-width="2.45" stroke-miterlimit="10"/>
<path d="M131.253 57.5818C128.815 58.6246 119.789 59.3972 109.026 59.3972C99.1046 59.3972 90.6564 58.7408 87.4871 57.8211" stroke="#D4D4D4" stroke-width="2.45" stroke-miterlimit="10" stroke-linecap="round"/>
<path d="M48.7916 57.5818C46.3539 58.6246 37.328 59.3972 26.5652 59.3972C16.6434 59.3972 8.19523 58.7408 5.02588 57.8211" stroke="#D4D4D4" stroke-width="2.45" stroke-miterlimit="10" stroke-linecap="round"/>
<circle cx="16" cy="43" r="16" fill="#FFBE57"/>
<path d="M7.9561 48.7483C7.46954 48.6169 7.09436 48.3416 6.83056 47.9223C6.57407 47.476 6.50788 47.023 6.632 46.5635L10.0051 34.075C10.2168 33.2911 10.6317 32.7216 11.2496 32.3664C11.8947 32.0186 12.6361 31.9578 13.4741 32.1842L17.5288 33.2793C19.1777 33.7247 20.3709 34.569 21.1082 35.8123C21.8725 37.0628 22.0576 38.418 21.6633 39.8777C21.4297 40.7427 20.9809 41.4915 20.3169 42.1243C19.653 42.7571 18.8264 43.1864 17.8373 43.4123C18.1646 43.7037 18.4332 44.0518 18.6429 44.4565C18.8797 44.8685 19.0306 45.3298 19.0957 45.8404L19.6014 49.2834C19.649 49.6443 19.6436 49.9328 19.5851 50.1491C19.4537 50.6357 19.155 50.99 18.6889 51.2122C18.2302 51.4073 17.7711 51.4428 17.3115 51.3187C17.0142 51.2384 16.7387 51.077 16.4852 50.8345C16.2587 50.5993 16.1118 50.2841 16.0445 49.8889L15.5003 45.7829C15.4052 45.0612 15.1644 44.5031 14.7779 44.1086C14.4257 43.6945 13.9523 43.4071 13.3576 43.2465L12.3034 42.9617C11.7627 42.8157 11.4194 43.013 11.2734 43.5536L10.2001 47.5272C10.076 47.9868 9.7908 48.3448 9.34448 48.6013C8.90546 48.8307 8.44267 48.8798 7.9561 48.7483ZM12.922 39.8659L15.3954 40.534C16.0711 40.7165 16.6494 40.6697 17.13 40.3934C17.6377 40.1245 17.9719 39.6927 18.1325 39.098C18.3004 38.4763 18.2291 37.935 17.9185 37.474C17.6423 36.9934 17.1663 36.6618 16.4905 36.4793L14.0171 35.8112C13.6117 35.7017 13.3542 35.8497 13.2447 36.2552L12.4781 39.0935C12.3685 39.4989 12.5165 39.7564 12.922 39.8659Z" fill="white"/>
<circle cx="33.202" cy="47.202" r="16" transform="rotate(-24.5545 33.202 47.202)" fill="#FF8957"/>
<path d="M35.4628 55.2065C34.7242 55.5439 34.021 55.5881 33.3531 55.3392C32.6852 55.0902 32.1826 54.5964 31.8452 53.8578L26.5742 42.3209C26.3532 41.837 26.3383 41.3666 26.5298 40.9097C26.7212 40.4529 27.0717 40.1081 27.581 39.8754C28.0649 39.6543 28.5295 39.6267 28.9747 39.7927C29.4454 39.9471 29.7913 40.2662 30.0124 40.7501L34.463 50.4916C34.8121 51.2556 35.3686 51.4631 36.1327 51.114L39.5326 49.5606C39.9911 49.3512 40.4302 49.3353 40.8499 49.5129C41.2835 49.6534 41.6051 49.9529 41.8145 50.4113C42.0239 50.8698 42.0457 51.3216 41.8797 51.7668C41.7275 52.175 41.4222 52.4838 40.9638 52.6932L35.4628 55.2065Z" fill="white"/>
<circle cx="96.3402" cy="44.3403" r="16" transform="rotate(19.0165 96.3402 44.3403)" fill="#F7508C"/>
<path d="M93.1918 52.616C91.9741 52.1963 90.9042 51.6055 89.9822 50.8435C89.0693 50.055 88.427 49.2117 88.0554 48.3136C87.8737 47.8955 87.8558 47.4748 88.0018 47.0512C88.1569 46.6012 88.4658 46.2634 88.9285 46.0379C89.3913 45.8123 89.8609 45.7817 90.3374 45.9459C90.7874 46.101 91.1165 46.3921 91.3247 46.8193C91.6287 47.3979 92.0838 47.925 92.69 48.4005C93.2962 48.8759 93.9301 49.2277 94.5919 49.4558C95.2802 49.693 95.926 49.7527 96.5293 49.6348C97.1418 49.4905 97.562 49.0875 97.7901 48.4257C97.9817 47.8697 97.8894 47.3641 97.5133 46.9087C97.1728 46.4359 96.4918 45.9198 95.4703 45.3605C93.6473 44.3768 92.3738 43.3456 91.6498 42.2668C90.935 41.1615 90.8147 39.9206 91.2892 38.5441C91.8001 37.0617 92.7752 36.0798 94.2146 35.5986C95.6631 35.0908 97.3138 35.1563 99.1669 35.7949C101.073 36.4518 102.426 37.4662 103.227 38.8379C103.549 39.3636 103.624 39.878 103.45 40.3809C103.304 40.8045 103.005 41.1158 102.551 41.3149C102.133 41.4966 101.699 41.5099 101.249 41.3548C100.905 41.2362 100.619 41.034 100.392 40.7484C99.6047 39.7663 98.6553 39.0837 97.5435 38.7005C96.8817 38.4725 96.2802 38.4132 95.7389 38.5228C95.1977 38.6325 94.8358 38.952 94.6533 39.4814C94.4617 40.0373 94.6553 40.5927 95.2341 41.1476C95.8394 41.7116 96.7714 42.3586 98.0302 43.0886C98.7258 43.4764 99.3717 43.9656 99.9678 44.5561C100.6 45.1292 101.04 45.8288 101.288 46.6548C101.563 47.4899 101.504 48.4766 101.112 49.6149C100.592 51.1238 99.5852 52.1541 98.092 52.7056C96.6253 53.2663 94.9919 53.2364 93.1918 52.616Z" fill="white"/>
<circle cx="121.34" cy="48.3403" r="16" fill="#B242AD"/>
<path d="M116.391 57.9803C115.803 57.9803 115.271 57.7983 114.795 57.4343C114.319 57.0423 114.025 56.5383 113.913 55.9223L111.351 42.2723C111.295 41.7123 111.449 41.2503 111.813 40.8863C112.205 40.5223 112.681 40.3403 113.241 40.3403C113.717 40.3403 114.123 40.4803 114.459 40.7603C114.795 41.0403 115.005 41.4183 115.089 41.8943L116.601 51.0923C116.657 51.4283 116.783 51.5963 116.979 51.5963C117.147 51.5963 117.273 51.4423 117.357 51.1343L119.373 43.7003C119.513 43.1683 119.779 42.7763 120.171 42.5243C120.563 42.2443 120.983 42.1043 121.431 42.1043C121.879 42.1043 122.299 42.2443 122.691 42.5243C123.083 42.7763 123.349 43.1683 123.489 43.7003L125.505 51.1343C125.589 51.4423 125.715 51.5963 125.883 51.5963C126.107 51.5963 126.233 51.4283 126.261 51.0923L127.773 41.8943C127.857 41.4183 128.067 41.0403 128.403 40.7603C128.767 40.4803 129.173 40.3403 129.621 40.3403C130.181 40.3403 130.643 40.5223 131.007 40.8863C131.399 41.2503 131.567 41.7123 131.511 42.2723L128.907 55.9223C128.795 56.5383 128.501 57.0423 128.025 57.4343C127.549 57.7983 127.017 57.9803 126.429 57.9803C125.897 57.9803 125.393 57.8123 124.917 57.4763C124.469 57.1123 124.133 56.6363 123.909 56.0483L121.809 48.6563C121.725 48.3483 121.599 48.1943 121.431 48.1943C121.235 48.1943 121.095 48.3483 121.011 48.6563L118.911 56.0483C118.743 56.6363 118.421 57.1123 117.945 57.4763C117.469 57.8123 116.951 57.9803 116.391 57.9803Z" fill="white"/>
<path d="M50 59.81C50 71.7559 39.2551 73 26 73C12.7449 73 2 71.7559 2 59.81C2 56.511 13.1467 55.9849 24.6985 56.0003C37.1157 56.0158 50 56.805 50 59.81Z" fill="#D4D4D4"/>
<path d="M133 59.81C133 71.7559 122.255 73 109 73C95.7449 73 85 71.7559 85 59.81C85 56.511 96.1467 55.9849 107.699 56.0003C120.116 56.0158 133 56.805 133 59.81Z" fill="#D4D4D4"/>
</g>
<defs>
<clipPath id="clip0_59_2549">
<rect width="137" height="90" fill="white"/>
</clipPath>
</defs>
</svg>
