<svg width="113" height="95" viewBox="0 0 113 95" fill="none" xmlns="http://www.w3.org/2000/svg">
<path d="M111.572 2.94751H1.09778V65.0795H111.572V2.94751Z" fill="#343336"/>
<path d="M106.499 0H6.16558C2.76198 0 0 2.76198 0 6.16558V74.0721C0 77.4757 2.76198 80.2377 6.16558 80.2377H106.499C109.903 80.2377 112.665 77.4757 112.665 74.0721V6.16558C112.665 2.76198 109.903 0 106.499 0ZM107.677 62.7786H4.9876V4.9876H107.677V62.7786Z" fill="#343336"/>
<path d="M107.525 5.39075H4.48022V62.5134H107.525V5.39075Z" fill="white"/>
<path d="M75.0447 92.5037H37.6251L40.1214 80.2377H72.5483L75.0447 92.5037Z" fill="#C6C7C8"/>
<path d="M79.095 92.5038H33.5699V95.0001H79.095V92.5038Z" fill="#9C9E9F"/>
<path d="M0 67.7664V74.0723C0 77.4759 2.76198 80.2379 6.16558 80.2379H106.499C109.903 80.2379 112.665 77.4759 112.665 74.0723V67.7664H0Z" fill="#D9DADB"/>
<path d="M56.3323 77.7415C58.3976 77.7415 60.0718 76.0673 60.0718 74.002C60.0718 71.9368 58.3976 70.2626 56.3323 70.2626C54.2671 70.2626 52.5929 71.9368 52.5929 74.002C52.5929 76.0673 54.2671 77.7415 56.3323 77.7415Z" fill="#58585A"/>
<path opacity="0.06" d="M72.5484 80.2377H40.1215L39.4949 83.3054H73.1699L72.5484 80.2377Z" fill="#1A171B"/>
<g clip-path="url(#clip0_59_2552)">
<path fill-rule="evenodd" clip-rule="evenodd" d="M82.9542 12.1111H71.8456C71.0665 12.1111 70.428 12.902 70.428 13.8543V60.5819C70.428 61.5342 71.0719 62.3251 71.8456 62.3251H82.9542C83.7279 62.3251 84.3718 61.5396 84.3718 60.5819V13.8543C84.3718 12.8966 83.7333 12.1111 82.9542 12.1111Z" fill="#FF6600"/>
<path fill-rule="evenodd" clip-rule="evenodd" d="M82.9542 12.1111H81.0496C80.8439 18.7557 77.9545 44.5164 76.3475 48.826C75.0489 52.3017 74.4916 56.8803 71.9647 60.512C71.6996 60.894 71.3803 61.432 71.0719 62.04C71.2937 62.2229 71.5643 62.3305 71.8457 62.3305H82.9542C83.7334 62.3305 84.3718 61.545 84.3718 60.5873V13.8543C84.3718 12.8966 83.7334 12.1111 82.9542 12.1111Z" fill="#ED5F00"/>
<path fill-rule="evenodd" clip-rule="evenodd" d="M68.7668 15.5759H57.642C56.6356 15.5759 55.8077 16.3077 55.8077 17.2008V60.7056C55.8077 61.5987 56.6356 62.3304 57.642 62.3304H68.7668C69.7732 62.3304 70.6011 61.5987 70.6011 60.7056V17.1954C70.6011 16.3023 69.7786 15.5706 68.7668 15.5706V15.5759Z" fill="#FFCC00"/>
<path fill-rule="evenodd" clip-rule="evenodd" d="M68.7668 15.5759H66.5213C65.7746 25.1582 63.4317 44.9038 62.0411 48.6269C60.7425 52.1026 60.1852 56.6812 57.6583 60.3129C57.3607 60.7433 56.9927 61.3728 56.6519 62.0668C56.9386 62.2282 57.2795 62.3251 57.642 62.3251H68.7668C69.7732 62.3251 70.6011 61.5934 70.6011 60.7002V17.1954C70.6011 16.3023 69.7732 15.5706 68.7668 15.5706V15.5759Z" fill="#FFB01C"/>
<path fill-rule="evenodd" clip-rule="evenodd" d="M30.29 59.0431L39.9917 62.4111C40.8737 62.7178 41.8206 62.3251 42.102 61.5449L55.7861 23.3827C56.0674 22.6025 55.575 21.7094 54.6985 21.4027L44.9968 18.0347C44.1202 17.728 43.1679 18.1208 42.8865 18.9009L29.2024 57.0632C28.9211 57.8487 29.4134 58.7364 30.29 59.0431Z" fill="#4FA3F7"/>
<path fill-rule="evenodd" clip-rule="evenodd" d="M30.2901 59.0431L39.9918 62.4112C40.8738 62.7178 41.8207 62.3251 42.1021 61.5449L55.7862 23.3827C56.0675 22.6026 55.5751 21.7094 54.6986 21.4028L53.7625 21.08C50.4997 27.504 37.584 49.0304 34.3916 52.2371C32.725 53.905 31.145 56.1055 29.235 58.0693C29.4081 58.4997 29.7869 58.8656 30.2901 59.0431Z" fill="#328EEB"/>
<path fill-rule="evenodd" clip-rule="evenodd" d="M97.0766 15.8719H85.9518C84.9454 15.8719 84.1176 16.5983 84.1176 17.486V60.7111C84.1176 61.5988 84.9454 62.3252 85.9518 62.3252H97.0766C98.083 62.3252 98.9109 61.5988 98.9109 60.7111V17.486C98.9109 16.5983 98.083 15.8719 97.0766 15.8719Z" fill="#1375E0"/>
<path fill-rule="evenodd" clip-rule="evenodd" d="M97.0765 15.8718H85.9517C84.9453 15.8718 84.1174 16.5982 84.1174 17.4859V60.711C84.1174 61.5987 84.9453 62.3251 85.9517 62.3251H97.0765C98.0829 62.3251 98.9108 61.5987 98.9108 60.711V17.4859C98.9108 16.5982 98.0829 15.8718 97.0765 15.8718Z" fill="#1375E0"/>
<path fill-rule="evenodd" clip-rule="evenodd" d="M97.0766 15.8719H95.1232C94.5334 24.701 92.0012 46.5018 90.5348 50.4348C89.2362 53.9104 88.6789 58.489 86.152 62.1207L86.0167 62.3252H97.0766C98.083 62.3252 98.9108 61.5988 98.9108 60.7111V17.486C98.9108 16.5983 98.0884 15.8719 97.0766 15.8719Z" fill="#0C6ACF"/>
<path fill-rule="evenodd" clip-rule="evenodd" d="M97.0766 15.8718H95.1232C94.5334 24.7008 92.0012 46.5017 90.5348 50.4347C89.2362 53.9103 88.6789 58.4889 86.152 62.1206L86.0167 62.3251H97.0766C98.083 62.3251 98.9108 61.5987 98.9108 60.711V17.4859C98.9108 16.5982 98.0884 15.8718 97.0766 15.8718Z" fill="#0C6ACF"/>
<path fill-rule="evenodd" clip-rule="evenodd" d="M106.437 12.1111H99.8524C99.2572 12.1111 98.7648 12.8966 98.7648 13.8543V60.5819C98.7648 61.5396 99.2517 62.3251 99.8524 62.3251H106.437C107.033 62.3251 107.525 61.5396 107.525 60.5819V13.8543C107.525 12.8966 107.038 12.1111 106.437 12.1111Z" fill="#4FA3F7"/>
<path fill-rule="evenodd" clip-rule="evenodd" d="M106.437 12.1111H99.8522C99.257 12.1111 98.7646 12.8966 98.7646 13.8543V60.5819C98.7646 61.5396 99.2516 62.3251 99.8522 62.3251H106.437C107.032 62.3251 107.525 61.5396 107.525 60.5819V13.8543C107.525 12.8966 107.038 12.1111 106.437 12.1111Z" fill="#4FA3F7"/>
<path fill-rule="evenodd" clip-rule="evenodd" d="M59.3141 19.3853H67.0949C67.6035 19.3853 68.0202 19.7995 68.0202 20.3053C68.0202 20.811 67.6035 21.2253 67.0949 21.2253H59.3141C58.8054 21.2253 58.3888 20.811 58.3888 20.3053C58.3888 19.7995 58.8054 19.3853 59.3141 19.3853Z" fill="#F7941D"/>
<path fill-rule="evenodd" clip-rule="evenodd" d="M59.3141 22.7587H67.0949C67.6035 22.7587 68.0202 23.1729 68.0202 23.6787C68.0202 24.1844 67.6035 24.5987 67.0949 24.5987H59.3141C58.8054 24.5987 58.3888 24.1844 58.3888 23.6787C58.3888 23.1729 58.8054 22.7587 59.3141 22.7587Z" fill="#F7941D"/>
<path fill-rule="evenodd" clip-rule="evenodd" d="M59.3141 54.3301H67.0949C67.6035 54.3301 68.0202 54.7444 68.0202 55.2501C68.0202 55.7558 67.6035 56.1701 67.0949 56.1701H59.3141C58.8054 56.1701 58.3888 55.7558 58.3888 55.2501C58.3888 54.7444 58.8054 54.3301 59.3141 54.3301Z" fill="#F7941D"/>
<path fill-rule="evenodd" clip-rule="evenodd" d="M59.3141 57.7035H67.0949C67.6035 57.7035 68.0202 58.1178 68.0202 58.6235C68.0202 59.1293 67.6035 59.5435 67.0949 59.5435H59.3141C58.8054 59.5435 58.3888 59.1293 58.3888 58.6235C58.3888 58.1178 58.8054 57.7035 59.3141 57.7035Z" fill="#F7941D"/>
<path fill-rule="evenodd" clip-rule="evenodd" d="M73.5122 54.1149H81.293C81.8016 54.1149 82.2183 54.5291 82.2183 55.0349C82.2183 55.5406 81.8016 55.9549 81.293 55.9549H73.5122C73.0036 55.9549 72.5869 55.5406 72.5869 55.0349C72.5869 54.5291 73.0036 54.1149 73.5122 54.1149Z" fill="#D65703"/>
<path fill-rule="evenodd" clip-rule="evenodd" d="M73.5122 57.4883H81.293C81.8016 57.4883 82.2183 57.9026 82.2183 58.4083C82.2183 58.9141 81.8016 59.3283 81.293 59.3283H73.5122C73.0036 59.3283 72.5869 58.9141 72.5869 58.4083C72.5869 57.9026 73.0036 57.4883 73.5122 57.4883Z" fill="#D65703"/>
<path fill-rule="evenodd" clip-rule="evenodd" d="M73.5122 15.7911H81.293C81.8016 15.7911 82.2183 16.2054 82.2183 16.7112C82.2183 17.2169 81.8016 17.6312 81.293 17.6312H73.5122C73.0036 17.6312 72.5869 17.2169 72.5869 16.7112C72.5869 16.2054 73.0036 15.7911 73.5122 15.7911Z" fill="#D65703"/>
<path fill-rule="evenodd" clip-rule="evenodd" d="M73.5122 19.1647H81.293C81.8016 19.1647 82.2183 19.579 82.2183 20.0847C82.2183 20.5904 81.8016 21.0047 81.293 21.0047H73.5122C73.0036 21.0047 72.5869 20.5904 72.5869 20.0847C72.5869 19.579 73.0036 19.1647 73.5122 19.1647Z" fill="#D65703"/>
<path fill-rule="evenodd" clip-rule="evenodd" d="M87.6237 54.1149H95.4046C95.9132 54.1149 96.3298 54.5291 96.3298 55.0349C96.3298 55.5406 95.9132 55.9549 95.4046 55.9549H87.6237C87.1151 55.9549 86.6985 55.5406 86.6985 55.0349C86.6985 54.5291 87.1151 54.1149 87.6237 54.1149Z" fill="#0156B1"/>
<path fill-rule="evenodd" clip-rule="evenodd" d="M87.6237 57.4883H95.4046C95.9132 57.4883 96.3298 57.9026 96.3298 58.4083C96.3298 58.9141 95.9132 59.3283 95.4046 59.3283H87.6237C87.1151 59.3283 86.6985 58.9141 86.6985 58.4083C86.6985 57.9026 87.1151 57.4883 87.6237 57.4883Z" fill="#0156B1"/>
<path fill-rule="evenodd" clip-rule="evenodd" d="M101.005 57.4883H105.285C105.793 57.4883 106.21 57.9026 106.21 58.4083C106.21 58.9141 105.793 59.3283 105.285 59.3283H101.005C100.496 59.3283 100.08 58.9141 100.08 58.4083C100.08 57.9026 100.496 57.4883 101.005 57.4883Z" fill="#1375E0"/>
<path fill-rule="evenodd" clip-rule="evenodd" d="M34.213 52.0649L41.561 54.6151C42.0426 54.7819 42.2969 55.3092 42.1291 55.788C41.9614 56.2669 41.4311 56.5198 40.9496 56.353L33.6016 53.8027C33.12 53.6359 32.8657 53.1087 33.0335 52.6298C33.2012 52.151 33.7315 51.8981 34.213 52.0649Z" fill="#1375E0"/>
<path fill-rule="evenodd" clip-rule="evenodd" d="M33.0983 55.2501L40.4463 57.8003C40.9278 57.9671 41.1821 58.4944 41.0144 58.9732C40.8467 59.4521 40.3164 59.7049 39.8348 59.5382L32.4869 56.9879C32.0053 56.8211 31.751 56.2939 31.9187 55.815C32.0864 55.3362 32.6167 55.0833 33.0983 55.2501Z" fill="#1375E0"/>
<path fill-rule="evenodd" clip-rule="evenodd" d="M44.9265 21.5588L52.2745 24.109C52.7561 24.2758 53.0104 24.8031 52.8426 25.2819C52.6749 25.7608 52.1446 26.0137 51.6631 25.8469L44.3151 23.2966C43.8335 23.1298 43.5792 22.6026 43.747 22.1237C43.9147 21.6449 44.445 21.392 44.9265 21.5588Z" fill="#1375E0"/>
<path fill-rule="evenodd" clip-rule="evenodd" d="M43.8064 24.744L51.1544 27.2942C51.636 27.461 51.8903 27.9883 51.7225 28.4671C51.5548 28.946 51.0245 29.1988 50.543 29.0321L43.195 26.4818C42.7134 26.315 42.4591 25.7878 42.6268 25.3089C42.7946 24.8301 43.3248 24.5772 43.8064 24.744Z" fill="#1375E0"/>
<path fill-rule="evenodd" clip-rule="evenodd" d="M87.2234 19.3853H95.0042C95.5128 19.3853 95.9295 19.7995 95.9295 20.3053C95.9295 20.811 95.5128 21.2253 95.0042 21.2253H87.2234C86.7147 21.2253 86.2981 20.811 86.2981 20.3053C86.2981 19.7995 86.7147 19.3853 87.2234 19.3853Z" fill="#0156B1"/>
<path fill-rule="evenodd" clip-rule="evenodd" d="M87.2234 22.7587H95.0042C95.5128 22.7587 95.9295 23.1729 95.9295 23.6787C95.9295 24.1844 95.5128 24.5987 95.0042 24.5987H87.2234C86.7147 24.5987 86.2981 24.1844 86.2981 23.6787C86.2981 23.1729 86.7147 22.7587 87.2234 22.7587Z" fill="#0156B1"/>
</g>
<path fill-rule="evenodd" clip-rule="evenodd" d="M17.4393 15.8719H6.31451C5.30809 15.8719 4.48022 16.5983 4.48022 17.486V60.7111C4.48022 61.5988 5.30809 62.3252 6.31451 62.3252H17.4393C18.4457 62.3252 19.2736 61.5988 19.2736 60.7111V17.486C19.2736 16.5983 18.4457 15.8719 17.4393 15.8719Z" fill="#25AE6C"/>
<path fill-rule="evenodd" clip-rule="evenodd" d="M26.8001 12.1111H20.215C19.6198 12.1111 19.1274 12.8966 19.1274 13.8543V60.5819C19.1274 61.5396 19.6144 62.3251 20.215 62.3251H26.8001C27.3953 62.3251 27.8876 61.5396 27.8876 60.5819V13.8543C27.8876 12.8966 27.4007 12.1111 26.8001 12.1111Z" fill="#FF6600"/>
<path fill-rule="evenodd" clip-rule="evenodd" d="M8.08505 54.115H15.8659C16.3745 54.115 16.7912 54.5293 16.7912 55.035C16.7912 55.5408 16.3745 55.955 15.8659 55.955H8.08505C7.57643 55.955 7.15979 55.5408 7.15979 55.035C7.15979 54.5293 7.57643 54.115 8.08505 54.115Z" fill="#1A7A4C"/>
<path fill-rule="evenodd" clip-rule="evenodd" d="M8.08505 57.4882H15.8659C16.3745 57.4882 16.7912 57.9024 16.7912 58.4082C16.7912 58.9139 16.3745 59.3282 15.8659 59.3282H8.08505C7.57643 59.3282 7.15979 58.9139 7.15979 58.4082C7.15979 57.9024 7.57643 57.4882 8.08505 57.4882Z" fill="#1A7A4C"/>
<path fill-rule="evenodd" clip-rule="evenodd" d="M22.4876 57.4882H26.7676C27.2763 57.4882 27.6929 57.9024 27.6929 58.4082C27.6929 58.9139 27.2763 59.3282 26.7676 59.3282H22.4876C21.979 59.3282 21.5624 58.9139 21.5624 58.4082C21.5624 57.9024 21.979 57.4882 22.4876 57.4882Z" fill="#D65703"/>
<path fill-rule="evenodd" clip-rule="evenodd" d="M7.68466 19.3853H15.4655C15.9741 19.3853 16.3908 19.7995 16.3908 20.3053C16.3908 20.811 15.9741 21.2253 15.4655 21.2253H7.68466C7.17604 21.2253 6.7594 20.811 6.7594 20.3053C6.7594 19.7995 7.17604 19.3853 7.68466 19.3853Z" fill="#1A7A4C"/>
<path fill-rule="evenodd" clip-rule="evenodd" d="M7.68466 22.7589H15.4655C15.9741 22.7589 16.3908 23.1732 16.3908 23.6789C16.3908 24.1847 15.9741 24.599 15.4655 24.599H7.68466C7.17604 24.599 6.7594 24.1847 6.7594 23.6789C6.7594 23.1732 7.17604 22.7589 7.68466 22.7589Z" fill="#1A7A4C"/>
<defs>
<clipPath id="clip0_59_2552">
<rect width="78.4036" height="50.4023" fill="white" transform="translate(29.1213 12.1111)"/>
</clipPath>
</defs>
</svg>
