<svg width="258" height="48" viewBox="0 0 258 48" fill="none" xmlns="http://www.w3.org/2000/svg">
<g clip-path="url(#clip0_70_1446)">
<path d="M52.6087 13.5385H59.7689V42H52.5751V24.558H44.8266L52.6087 13.5385Z" fill="#867E70"/>
<path d="M80.6387 24.6041C85.1903 24.8699 88.1804 28.0434 88.2137 32.4463V33.2439C88.1804 38.4776 85.5225 41.7175 80.7051 42H62.6315L65.4555 35.8524H78.9443C80.2898 35.8524 81.137 34.6728 81.137 33.0777C81.137 31.6821 80.0739 30.6021 78.7948 30.6021H70.1899C65.5884 30.6021 62.6149 27.2625 62.6149 22.793V21.9955C62.6481 16.9778 65.6548 13.5385 70.1234 13.5385H88.2303L85.3564 19.6694H71.768C70.4723 19.6694 69.6583 20.7494 69.6915 22.2946C69.6915 23.6902 70.5387 24.6373 72.0172 24.6373H80.6221L80.6387 24.6041Z" fill="#867E70"/>
<path d="M25.6154 13.5385L22.7453 19.6918H13.5045C9.53941 19.7084 7.51539 22.3622 7.44903 27.6697C7.48221 33.1265 9.27396 35.83 12.7911 35.8134H25.6154V42H11.663C4.23052 41.5853 0 36.311 0 27.7526C0 19.1943 4.59551 14.036 12.7911 13.5385H25.6154Z" fill="#867E70"/>
<path d="M47.6573 30.632H40.8144L36.0807 23.861V42H29.1734V13.5385H36.0485L47.6734 30.6486L47.6573 30.632Z" fill="#867E70"/>
<path d="M34.8655 8.20192C34.8655 9.96459 33.4425 11.4038 31.6636 11.4038C29.8848 11.4038 28.4617 9.98076 28.4617 8.20192C28.4617 6.42307 29.9009 5 31.6636 5C33.4263 5 34.8655 6.43924 34.8655 8.20192Z" fill="#EF8200"/>
<path d="M59.7687 8.20192C59.7687 9.96459 58.3295 11.4038 56.5668 11.4038C54.8041 11.4038 53.3649 9.98076 53.3649 8.20192C53.3649 6.42307 54.8041 5 56.5668 5C58.3295 5 59.7687 6.43924 59.7687 8.20192Z" fill="#3EBBD1"/>
<path d="M108.44 15.0903H114.172C114.156 14.9394 114.139 14.7718 114.122 14.5706C114.122 14.3862 114.122 14.185 114.122 14.0005C114.106 13.7826 114.073 13.5814 114.056 13.3969C114.039 13.2125 114.006 13.0113 113.99 12.8269H119.157C119.091 13.3802 119.057 13.9335 119.041 14.47C119.041 15.0065 119.041 15.543 119.041 16.0795V25.9213C119.041 26.4913 119.041 27.1284 119.041 27.8326C119.041 28.52 119.091 29.1906 119.157 29.8445H113.99C114.056 29.308 114.089 28.738 114.106 28.1344C114.122 27.5308 114.139 26.9943 114.139 26.5416H108.556C107.875 27.229 107.061 27.7488 106.147 28.1344C105.216 28.5032 104.203 28.6877 103.073 28.6877C101.943 28.6877 100.863 28.4865 99.9161 28.1009C98.969 27.6985 98.1549 27.162 97.4736 26.4745C96.809 25.7704 96.2939 24.9488 95.9118 24.0099C95.5462 23.071 95.3468 22.0483 95.3468 20.9249C95.3468 19.8016 95.5296 18.8124 95.9118 17.84C96.2939 16.8843 96.809 16.046 97.4736 15.3418C98.1549 14.6376 98.969 14.0676 99.9161 13.6652C100.863 13.2461 101.91 13.0449 103.073 13.0449C104.153 13.0449 105.15 13.2293 106.047 13.5981C106.945 13.967 107.742 14.4867 108.423 15.1239L108.44 15.0903ZM98.537 35.9474C98.537 34.2205 99.4177 32.7618 101.196 31.605C102.973 30.4313 105.565 29.8613 109.005 29.8613C110.65 29.8613 112.129 30.0122 113.425 30.3307C114.737 30.6493 115.834 31.0685 116.731 31.6217C117.645 32.1583 118.343 32.7954 118.825 33.5499C119.307 34.3043 119.539 35.0923 119.539 35.9474C119.539 37.7414 118.609 39.2 116.748 40.3234C114.887 41.4467 112.311 42 109.005 42C105.698 42 102.973 41.4467 101.196 40.3234C99.4177 39.2 98.537 37.7414 98.537 35.9474ZM100.182 20.9082C100.182 21.8639 100.448 22.6854 100.98 23.3393C101.511 24.0099 102.209 24.3285 103.09 24.3285C103.97 24.3285 104.635 23.9931 105.167 23.3393C105.698 22.6686 105.964 21.8639 105.964 20.9082C105.964 19.9525 105.698 19.0639 105.167 18.41C104.635 17.7394 103.954 17.4208 103.09 17.4208C102.226 17.4208 101.511 17.7561 100.98 18.41C100.448 19.0807 100.182 19.9022 100.182 20.9082ZM113.923 35.9474C113.923 35.3103 113.491 34.8073 112.627 34.4552C111.763 34.1031 110.55 33.9187 109.005 33.9187C107.46 33.9187 106.23 34.1031 105.383 34.4552C104.519 34.8073 104.087 35.3103 104.087 35.9474C104.087 36.5845 104.519 37.0875 105.383 37.4396C106.247 37.7917 107.46 37.9761 109.005 37.9761C110.55 37.9761 111.78 37.7917 112.627 37.4396C113.491 37.0875 113.923 36.5845 113.923 35.9474ZM110.683 22.2159H114.139V19.3992H110.65C110.683 19.6507 110.716 19.9022 110.75 20.1537C110.766 20.4052 110.783 20.6567 110.783 20.9082C110.783 21.1429 110.783 21.3776 110.75 21.5956C110.733 21.8135 110.7 22.0315 110.683 22.2159Z" fill="#867E70"/>
<path d="M141.655 17.5567V22.22H143.184V17.0754C143.184 16.3784 143.184 15.6814 143.15 14.9677C143.134 14.2541 143.084 13.5405 143.017 12.8269H148C147.934 13.5405 147.901 14.2541 147.884 14.9677C147.884 15.6814 147.884 16.3784 147.884 17.0754V37.04C147.884 37.7536 147.884 38.4672 147.884 39.1808C147.884 39.8944 147.934 40.5914 148 41.2884H143.017C143.084 40.5914 143.117 39.8778 143.15 39.1808C143.167 38.4672 143.184 37.7536 143.184 37.04V27.4477H141.655V37.9029C141.655 38.6165 141.689 39.3136 141.755 40.0106H136.888C136.922 39.3136 136.955 38.5999 136.988 37.9029C137.005 37.1893 137.021 36.4757 137.021 35.7621V32.1774C136.523 32.6587 136.025 33.2064 135.526 33.7872C135.028 34.368 134.596 34.8825 134.214 35.3306C133.367 34.8161 132.537 34.1191 131.739 33.2396C130.942 32.3434 130.327 31.4472 129.912 30.5345C129.43 31.58 128.783 32.6089 127.952 33.6544C127.122 34.7 126.275 35.5463 125.394 36.177C125.079 35.928 124.763 35.6459 124.464 35.3638C124.148 35.0817 123.833 34.7829 123.534 34.4842C123.218 34.2021 122.903 33.9366 122.587 33.671C122.272 33.4055 121.956 33.14 121.674 32.891C123.235 31.8787 124.564 30.4515 125.66 28.6094C126.756 26.7673 127.304 24.477 127.304 21.7554V18.9009H125.809C125.394 18.9009 125.012 18.9009 124.697 18.9009C124.364 18.9009 123.999 18.9507 123.6 19.0171V14.3869C123.999 14.4533 124.364 14.4865 124.697 14.5031C125.029 14.5031 125.394 14.5031 125.809 14.5031H133.716C134.114 14.5031 134.48 14.5031 134.812 14.5031C135.144 14.5031 135.51 14.4533 135.942 14.3869V19.0171C135.526 18.9507 135.144 18.9175 134.812 18.9009C134.48 18.9009 134.114 18.9009 133.716 18.9009H132.154V21.0915C132.154 23.7137 132.586 25.8711 133.467 27.5306C134.33 29.2068 135.526 30.5179 137.021 31.4638V17.5235C137.021 16.8265 137.021 16.1294 136.988 15.4158C136.971 14.7022 136.938 13.9886 136.888 13.275H141.755C141.689 13.9886 141.655 14.7022 141.655 15.4158V17.5235V17.5567Z" fill="#867E70"/>
<path d="M159.843 34.6049H161.921V28.5891C161.921 28.1441 161.921 27.6331 161.888 27.0398C161.872 26.4465 161.823 25.9355 161.757 25.4905H167.008C166.926 25.9685 166.877 26.5124 166.877 27.1057C166.877 27.6991 166.877 28.1935 166.877 28.5891V34.6049H171.784C172.586 34.6049 173.371 34.6049 174.123 34.6049C174.892 34.6049 175.677 34.5554 176.462 34.4895V39.1538C175.661 39.0879 174.876 39.055 174.123 39.0385C173.354 39.0385 172.569 39.0385 171.784 39.0385H155.231C154.576 39.0385 153.84 39.0385 153.022 39.0385C152.205 39.0385 151.485 39.0879 150.847 39.1538V34.4895C151.419 34.5554 152.041 34.5884 152.728 34.6049C153.415 34.6049 154.02 34.6049 154.56 34.6049H154.953V28.5891C154.953 28.1441 154.953 27.6331 154.92 27.0398C154.904 26.4465 154.854 25.9355 154.805 25.4905H160.023C159.942 25.9355 159.893 26.4465 159.893 27.0233C159.893 27.6002 159.893 28.1276 159.893 28.5891V34.6049H159.843ZM168.954 18.8978H156.752C156.098 18.8978 155.509 18.8978 154.985 18.8978C154.462 18.8978 153.889 18.9473 153.251 19.0132V14.25C153.889 14.3159 154.462 14.3489 154.985 14.3654C155.509 14.3654 156.098 14.3654 156.752 14.3654H174.074C174.074 18.4034 173.976 21.7821 173.763 24.4851C173.551 27.2046 173.305 29.545 172.995 31.5558H167.908C168.055 30.6493 168.186 29.6604 168.3 28.5891C168.431 27.5178 168.529 26.43 168.644 25.3422C168.725 24.2214 168.791 23.1172 168.856 22.0294C168.922 20.9416 168.954 19.8867 168.954 18.8814V18.8978Z" fill="#867E70"/>
<path d="M183.987 32.5393V29.8964H183.254C182.456 29.8964 181.675 29.8964 180.926 29.8964C180.16 29.8964 179.379 29.9469 178.597 30.0143V25.4355C179.395 25.5028 180.177 25.5365 180.926 25.5533C181.691 25.5533 182.473 25.5533 183.254 25.5533H199.555C200.353 25.5533 201.135 25.5533 201.884 25.5533C202.649 25.5533 203.431 25.5028 204.212 25.4355V30.0143C203.414 29.9469 202.633 29.9133 201.884 29.8964C201.118 29.8964 200.337 29.8964 199.555 29.8964H198.757V32.5393H201.509C201.444 32.977 201.411 33.4315 201.395 33.9365C201.395 34.4416 201.395 34.8961 201.395 35.3001V39.0036C201.395 39.4917 201.395 39.9967 201.428 40.5186C201.444 41.0404 201.493 41.5286 201.542 42H196.135C196.2 41.5455 196.233 41.0573 196.249 40.5186C196.249 39.9799 196.249 39.4749 196.249 39.0036V36.8151H184.394C183.857 36.8151 183.303 36.8151 182.733 36.8151C182.147 36.8151 181.593 36.8656 181.04 36.933V32.4215C181.463 32.4888 181.935 32.5225 182.424 32.5225H183.971L183.987 32.5393ZM191.38 24.8799C189.768 24.8799 188.319 24.7453 187.016 24.4591C185.713 24.1729 184.59 23.7689 183.661 23.2302C182.75 22.6915 182.033 22.0518 181.544 21.3112C181.04 20.5705 180.795 19.7456 180.795 18.8534C180.795 17.9612 181.04 17.1364 181.544 16.4125C182.049 15.6887 182.75 15.049 183.661 14.5103C184.59 13.9716 185.713 13.5676 187.016 13.2646C188.319 12.9784 189.768 12.8269 191.38 12.8269C194.637 12.8269 197.21 13.3824 199.099 14.4935C200.988 15.6045 201.933 17.0522 201.933 18.8534C201.933 20.6546 200.988 22.1192 199.099 23.2134C197.21 24.3244 194.637 24.8799 191.38 24.8799ZM186.527 18.8534C186.527 19.4258 186.951 19.8971 187.814 20.2506C188.661 20.6041 189.866 20.7893 191.38 20.7893C192.895 20.7893 194.1 20.6041 194.93 20.2506C195.777 19.8971 196.2 19.4258 196.2 18.8534C196.2 18.2811 195.777 17.8097 194.93 17.473C194.083 17.1364 192.895 16.9512 191.38 16.9512C189.866 16.9512 188.661 17.1195 187.814 17.473C186.951 17.8097 186.527 18.2811 186.527 18.8534ZM193.855 29.8964H188.905V32.5393H193.855V29.8964Z" fill="#867E70"/>
<path d="M220.551 29.0237V26.1792C220.063 26.6979 219.542 27.2501 218.99 27.8525C218.437 28.4548 217.965 29.0404 217.559 29.5591C216.697 29.1074 215.851 28.4715 215.006 27.6182C214.16 26.7816 213.526 25.9115 213.103 25.0414C212.875 25.5267 212.599 26.0454 212.257 26.5808C211.916 27.1162 211.542 27.6349 211.135 28.1202C210.729 28.6389 210.29 29.1074 209.834 29.5424C209.379 29.9774 208.924 30.3456 208.485 30.6467C208.046 30.195 207.493 29.6763 206.875 29.0739C206.241 28.4715 205.59 27.9194 204.924 27.4174C206.664 26.2796 208.029 24.8239 209.005 23.0503C209.981 21.2767 210.469 19.3525 210.469 17.3111V16.1566C210.469 15.7885 210.469 15.3535 210.436 14.8515C210.42 14.3328 210.371 13.8978 210.322 13.5129H215.51C215.445 13.8978 215.412 14.3328 215.396 14.818C215.38 15.3033 215.363 15.755 215.363 16.1232V17.3111C215.363 19.1015 215.851 20.7747 216.811 22.2973C217.77 23.8367 219.038 24.9912 220.583 25.7609V21.9794H219.542C219.201 21.9794 218.843 21.9794 218.453 21.9794C218.079 21.9794 217.721 22.0296 217.396 22.0966V17.2275C217.737 17.2944 218.095 17.3279 218.485 17.3446C218.859 17.3446 219.233 17.3446 219.591 17.3446H220.567V16.3909C220.567 15.8722 220.567 15.3367 220.567 14.7678C220.567 14.1989 220.518 13.697 220.453 13.2452H225.234C225.169 13.881 225.136 14.5169 225.136 15.1359V30.881C225.136 31.5001 225.169 32.1192 225.234 32.7383H220.453C220.518 32.1192 220.551 31.5001 220.567 30.881C220.567 30.2619 220.567 29.6261 220.567 28.9902L220.551 29.0237ZM226.34 41.1546H211.038V35.2314C211.038 34.8465 211.038 34.3278 211.038 33.692C211.038 33.0562 210.989 32.5375 210.924 32.1526H216.111C216.046 32.5375 216.014 33.0394 215.997 33.6753C215.997 34.3111 215.997 34.7963 215.997 35.1644V36.6034H226.372C227.136 36.6034 227.949 36.6034 228.779 36.6034C229.608 36.6034 230.437 36.5532 231.251 36.4863V41.2884C230.454 41.2215 229.641 41.188 228.811 41.1713C227.982 41.1713 227.169 41.1713 226.372 41.1713L226.34 41.1546ZM230.844 16.6084V29.7599C230.844 30.3958 230.844 31.0316 230.844 31.6674C230.844 32.3032 230.893 32.9223 230.958 33.5414H226.144C226.21 32.9223 226.242 32.3032 226.275 31.6674C226.291 31.0316 226.307 30.3958 226.307 29.7599V16.6084C226.307 15.9726 226.307 15.3367 226.307 14.7176C226.307 14.0985 226.258 13.4627 226.193 12.8269H230.974C230.909 13.4627 230.876 14.0985 230.86 14.7176C230.86 15.3367 230.86 15.9726 230.86 16.6084H230.844Z" fill="#867E70"/>
<path d="M240.588 18.8013V22.2864H248.555V26.7673H240.588V30.8664H241.838C243.471 30.8664 245.138 30.8166 246.855 30.7004C248.572 30.6008 250.089 30.4183 251.406 30.1528V34.4676C250.805 34.6336 250.105 34.7829 249.305 34.8825C248.505 34.9821 247.688 35.0651 246.838 35.1314C245.972 35.1978 245.088 35.231 244.205 35.2642C243.321 35.2808 242.488 35.2974 241.688 35.2974H235.687V18.1873C235.687 17.6562 235.687 17.009 235.654 16.2456C235.637 15.4822 235.587 14.835 235.52 14.2707H245.638C246.138 14.2707 246.672 14.2707 247.272 14.2707C247.855 14.2707 248.405 14.2209 248.922 14.1546V18.9175C248.372 18.8677 247.822 18.8511 247.255 18.8179C246.688 18.8013 246.138 18.7847 245.638 18.7847H240.571L240.588 18.8013ZM253.306 37.0565V26.9332H252.589C252.172 26.9332 251.672 26.9332 251.105 26.9332C250.539 26.9332 250.055 26.983 249.655 27.0494V22.0707C250.089 22.1371 250.589 22.1703 251.155 22.1868C251.722 22.1868 252.222 22.1868 252.656 22.1868H253.306V17.0754C253.306 16.3784 253.306 15.6814 253.272 14.9677C253.256 14.2541 253.206 13.5405 253.139 12.8269H258.29C258.223 13.5405 258.19 14.2541 258.173 14.9677C258.173 15.6814 258.173 16.3784 258.173 17.0754V37.04C258.173 37.7536 258.173 38.4672 258.173 39.1808C258.173 39.8944 258.223 40.5914 258.29 41.2884H253.139C253.206 40.5914 253.239 39.8778 253.272 39.1808C253.289 38.4672 253.306 37.7536 253.306 37.04V37.0565Z" fill="#867E70"/>
</g>
<defs>
<clipPath id="clip0_70_1446">
<rect width="258" height="48" fill="white"/>
</clipPath>
</defs>
</svg>
