<svg width="258" height="48" viewBox="0 0 258 48" fill="none" xmlns="http://www.w3.org/2000/svg">
<g clip-path="url(#clip0_311_1016)">
<path d="M85.9087 8.80486H89.2059V27.3927H85.9087V19.1315H80.22V16.4139H85.9087V8.80486ZM84.0246 36.9222C84.8217 36.1432 85.2384 35.183 85.2384 34.0597C85.2384 32.9365 84.8398 31.9582 84.097 31.1611C83.3361 30.3639 82.3759 29.9653 81.2345 29.9653C80.0932 29.9653 79.1511 30.3639 78.354 31.1611C77.5568 31.9582 77.1583 32.9184 77.1583 34.0597C77.1583 35.2011 77.5387 36.1432 78.2996 36.9222C79.0605 37.7194 80.0026 38.0998 81.1258 38.0998C82.2491 38.0998 83.2455 37.7194 84.0426 36.9222M86.4159 38.9332C85.0028 40.2738 83.2817 40.9623 81.2345 40.9623C79.1873 40.9623 77.5025 40.2919 76.0712 38.9332C74.64 37.5744 73.9335 35.962 73.9335 34.0597C73.9335 32.1575 74.6581 30.5088 76.0712 29.1501C77.5025 27.8094 79.2236 27.121 81.2345 27.121C83.2455 27.121 85.0028 27.7913 86.4159 29.1501C87.8291 30.5088 88.5356 32.1394 88.5356 34.0597C88.5356 35.9801 87.8291 37.5744 86.4159 38.9332ZM65.9077 14.1312V11.3231H71.7413V7.86279H75.2379V11.3231H81.1258V14.1312H75.1473C75.1473 15.182 75.3285 16.1603 75.6908 17.0661C76.0531 17.972 76.5423 18.8054 77.1583 19.5844C77.7742 20.3453 78.517 21.0337 79.3866 21.6678C80.2563 22.32 81.2164 22.9179 82.2672 23.4976L80.6186 25.726C80.0026 25.4724 79.3685 25.1281 78.6982 24.7114C78.046 24.2766 77.4119 23.8237 76.7778 23.3165C76.1256 22.7548 75.4915 22.1751 74.9299 21.541C74.3682 20.9069 73.9153 20.3091 73.5892 19.7474C73.2812 20.3272 72.9008 20.9069 72.4297 21.5048C71.9406 22.1026 71.4152 22.6824 70.8174 23.2621C70.1833 23.9143 69.4948 24.4941 68.752 25.0194C68.0273 25.563 67.3027 25.9977 66.5961 26.342L64.549 24.2404C65.6903 23.5882 66.7411 22.8454 67.7013 22.0483C68.6615 21.2511 69.4586 20.3815 70.1108 19.4395C70.6362 18.6604 71.0348 17.8271 71.3428 16.9574C71.6508 16.0878 71.7957 15.1276 71.8319 14.1312H65.9258H65.9077Z" fill="#273547"/>
<path d="M124.388 15.798V18.6786H120.058V26.8493H116.761V8.80493H120.058V15.798H124.388ZM107.123 36.4875H116.67V31.2698H107.123V36.4875ZM103.807 28.5342H120.004V39.2231H103.807V28.5342ZM114.442 23.6245C113.228 23.86 111.434 24.0593 109.097 24.2042C106.742 24.3673 104.912 24.4398 103.644 24.4398L98.0461 24.476V10.1456H110.873V13.0262H101.361V21.7041L104.17 21.6679C105.583 21.6498 107.268 21.5773 109.206 21.4686C111.126 21.3418 112.884 21.1787 114.442 20.9432V23.6245Z" fill="#273547"/>
<path d="M141.146 14.5117C140.277 13.5334 139.208 13.0443 137.94 13.0443C136.671 13.0443 135.584 13.5334 134.733 14.5117C133.881 15.49 133.447 16.6858 133.447 18.0989C133.447 19.512 133.881 20.6896 134.733 21.6679C135.584 22.6462 136.653 23.1535 137.94 23.1535C139.226 23.1535 140.295 22.6643 141.146 21.6679C141.998 20.6896 142.432 19.4939 142.432 18.0989C142.432 16.7039 141.998 15.49 141.146 14.5117ZM150.223 16.414V8.80493H153.556V35.02H150.223V19.3308H145.657C145.386 21.2512 144.516 22.8636 143.067 24.168C141.617 25.4724 139.896 26.1246 137.94 26.1246C135.784 26.1246 133.954 25.3456 132.414 23.7694C130.874 22.1933 130.113 20.3091 130.113 18.0989C130.113 15.8886 130.874 13.9864 132.414 12.4102C133.936 10.8521 135.784 10.055 137.94 10.055C139.824 10.055 141.49 10.6528 142.922 11.8486C144.335 13.0443 145.222 14.5661 145.585 16.3959H150.223V16.414Z" fill="#273547"/>
<path d="M188.903 16.9755V19.856H184.573V26.9216H181.276V8.80477H184.573V16.9755H188.903ZM167.833 28.6065H184.573V39.2411H181.24V31.3602H167.833V28.6065ZM172.272 15.7798C171.475 14.9464 170.551 14.5478 169.518 14.5478C168.486 14.5478 167.562 14.9645 166.746 15.7798C165.931 16.595 165.533 17.5914 165.533 18.7328C165.533 19.8742 165.931 20.8162 166.746 21.6496C167.562 22.4649 168.486 22.8816 169.518 22.8816C170.551 22.8816 171.475 22.4649 172.272 21.6496C173.087 20.8344 173.504 19.856 173.504 18.7328C173.504 17.6096 173.087 16.595 172.272 15.7798ZM178.396 11.3592V14.0949H174.428C175.08 14.7109 175.642 15.4355 176.058 16.2508C176.493 17.0479 176.693 17.9357 176.693 18.8777C176.693 20.7619 175.986 22.3562 174.591 23.7149C173.196 25.0737 171.511 25.744 169.518 25.744C167.525 25.744 165.841 25.0737 164.446 23.7149C163.069 22.3562 162.38 20.7619 162.38 18.8777C162.38 17.9357 162.598 17.066 163.014 16.2508C163.431 15.4355 163.974 14.729 164.609 14.0949H160.569V11.3592H167.779V7.89893H171.384V11.3592H178.414H178.396Z" fill="#273547"/>
<path d="M208.253 29.8565V27.2477H214.703V8.80477H218V32.0668H214.703V29.8565H208.253ZM204.159 32.0849V36.3967H218V39.2411H200.844V32.103H204.159V32.0849ZM205.373 17.7364C206.152 16.9755 206.532 16.0515 206.532 14.9645C206.532 13.8775 206.134 12.9716 205.373 12.2107C204.594 11.4498 203.67 11.0694 202.583 11.0694C201.496 11.0694 200.608 11.4498 199.829 12.2107C199.032 12.9716 198.651 13.8956 198.651 14.9645C198.651 16.0334 199.05 16.9573 199.829 17.7364C200.608 18.4973 201.532 18.8777 202.583 18.8777C203.634 18.8777 204.594 18.4973 205.373 17.7364ZM207.728 10.3447C209.141 11.631 209.848 13.189 209.848 15.0007C209.848 16.8124 209.141 18.3705 207.728 19.6568C206.315 20.9612 204.612 21.5953 202.601 21.5953C200.59 21.5953 198.887 20.9431 197.492 19.6568C196.097 18.3705 195.409 16.8124 195.409 15.0007C195.409 13.189 196.115 11.6129 197.492 10.3447C198.887 9.05841 200.59 8.42432 202.601 8.42432C204.612 8.42432 206.315 9.07653 207.728 10.3447ZM199.883 25.9795L192.999 26.0158V23.3707H198.688C201.007 23.3707 203.597 23.2982 206.478 23.1171C209.359 22.9359 211.605 22.7729 213.199 22.5917V25.1643C212.257 25.3092 210.971 25.436 209.322 25.5628C207.674 25.6897 205.971 25.7984 204.213 25.8889V30.2189H200.826V25.9977H199.902L199.883 25.9795Z" fill="#273547"/>
<path d="M48.7886 0H0V48.7886H48.7886V0Z" fill="#DA0921"/>
<path d="M5.38202 24.4212C5.38202 25.4901 5.52693 27.8996 7.44731 29.8925C9.44016 31.9397 11.8135 32.139 13.136 32.139C14.4586 32.139 15.618 31.9035 16.5963 31.4868C18.1906 30.7802 18.9877 29.7838 19.3863 29.2946L16.7413 27.2655C15.8535 28.0083 14.9296 28.8236 13.1541 28.8236C11.2337 28.8236 9.44017 27.0481 9.44017 24.3125V24.4755C9.44017 21.758 11.2337 19.9826 13.1541 19.9826C14.9296 19.9826 15.8535 20.7978 16.7413 21.5406L19.3863 19.5115C18.9877 19.0224 18.1906 18.0259 16.5963 17.3194C15.618 16.9027 14.4948 16.6853 13.136 16.6853C11.7773 16.6853 9.44016 16.9027 7.44731 18.9318C5.52693 20.9246 5.38202 23.3342 5.38202 24.4031V24.4212Z" fill="white"/>
<path d="M30.9994 27.1751C30.3472 27.7186 29.0066 28.1897 27.5754 28.5339C24.5136 29.2404 24.8397 28.0266 25.2021 26.4686C25.5644 24.8743 25.4557 23.9503 25.1477 22.8452C24.731 21.3053 24.6404 19.6929 26.126 19.8197C28.9703 20.0733 34.1337 24.512 30.9813 27.1751M36.1265 25.291C35.3112 18.8957 19.314 12.0113 21.4337 20.9067C21.5243 21.2872 21.6511 21.6676 21.8323 22.0843C22.1765 22.8996 22.4301 23.588 22.4483 24.983C22.4483 25.5084 22.3577 26.1606 22.2127 26.7584C21.2344 30.5086 21.5424 32.7551 26.6514 31.958C31.9234 31.1427 36.5432 28.2803 36.1627 25.291" fill="white"/>
<path d="M42.2666 17.1567H38.3715V31.6865H42.2666V17.1567Z" fill="white"/>
</g>
<defs>
<clipPath id="clip0_311_1016">
<rect width="258" height="48" fill="white"/>
</clipPath>
</defs>
</svg>
