<svg width="48" height="48" viewBox="0 0 48 48" fill="none" xmlns="http://www.w3.org/2000/svg">
<path d="M34 4H14C8.47715 4 4 8.47715 4 14V34C4 39.5228 8.47715 44 14 44H34C39.5228 44 44 39.5228 44 34V14C44 8.47715 39.5228 4 34 4Z" stroke="white" stroke-width="2.6" stroke-linecap="round" stroke-linejoin="round"/>
<path d="M32 22.7401C32.2468 24.4046 31.9625 26.1045 31.1875 27.5981C30.4125 29.0917 29.1863 30.3029 27.6832 31.0595C26.1802 31.816 24.4769 32.0793 22.8156 31.812C21.1542 31.5447 19.6195 30.7603 18.4297 29.5704C17.2398 28.3806 16.4555 26.8459 16.1881 25.1845C15.9208 23.5232 16.1841 21.8199 16.9406 20.3169C17.6972 18.8138 18.9084 17.5876 20.402 16.8126C21.8956 16.0376 23.5955 15.7533 25.26 16.0001C26.9578 16.2519 28.5297 17.043 29.7434 18.2567C30.9571 19.4704 31.7482 21.0423 32 22.7401Z" stroke="white" stroke-width="2.6" stroke-linecap="round" stroke-linejoin="round"/>
<path d="M35 13H35.02" stroke="white" stroke-width="2.6" stroke-linecap="round" stroke-linejoin="round"/>
</svg>
