<svg width="48" height="48" viewBox="0 0 48 48" fill="none" xmlns="http://www.w3.org/2000/svg">
<path d="M34 4H14C8.47715 4 4 8.47715 4 14V34C4 39.5228 8.47715 44 14 44H34C39.5228 44 44 39.5228 44 34V14C44 8.47715 39.5228 4 34 4Z" stroke="#111921" stroke-width="2.6" stroke-linecap="round" stroke-linejoin="round"/>
<path d="M32 22.74C32.2468 24.4045 31.9625 26.1044 31.1875 27.598C30.4125 29.0916 29.1863 30.3028 27.6833 31.0593C26.1802 31.8159 24.4769 32.0792 22.8156 31.8119C21.1543 31.5445 19.6195 30.7602 18.4297 29.5703C17.2399 28.3805 16.4555 26.8457 16.1882 25.1844C15.9208 23.5231 16.1842 21.8198 16.9407 20.3167C17.6972 18.8137 18.9084 17.5875 20.402 16.8125C21.8956 16.0375 23.5955 15.7532 25.26 16C26.9579 16.2518 28.5297 17.0429 29.7434 18.2566C30.9571 19.4703 31.7483 21.0421 32 22.74Z" stroke="#111921" stroke-width="2.6" stroke-linecap="round" stroke-linejoin="round"/>
<path d="M35 13H35.02" stroke="#111921" stroke-width="2.6" stroke-linecap="round" stroke-linejoin="round"/>
</svg>
