<svg width="560" height="293" viewBox="0 0 560 293" fill="none" xmlns="http://www.w3.org/2000/svg">
<path opacity="0.1" d="M280 43.7822H560V284.582C560 289.081 556.353 292.728 551.855 292.728H280V43.7822Z" fill="#020072"/>
<path opacity="0.1" d="M0 43.7822H280V292.728H8.14545C3.64684 292.728 0 289.081 0 284.582V43.7822Z" fill="#970707"/>
<path opacity="0.08" d="M373.672 18.3271H559.999V227.054H373.672V18.3271Z" fill="#000001"/>
<rect width="372.145" height="50.9091" transform="translate(187.855 190.909)" fill="#69289C"/>
<path d="M290.639 215.45C289.311 215.038 288.742 214.048 288.742 213.031V212.17H287.515V212.93C287.515 214.076 286.946 215.203 285.535 215.67L286.167 216.623C287.13 216.293 287.78 215.643 288.147 214.809C288.504 215.524 289.118 216.092 290.007 216.385L290.639 215.45ZM289.549 219.217C288.468 219.217 287.89 218.997 287.89 218.52C287.89 218.053 288.468 217.833 289.549 217.833C290.621 217.833 291.198 218.053 291.198 218.52C291.198 218.997 290.621 219.217 289.549 219.217ZM289.549 216.898C287.789 216.898 286.69 217.503 286.69 218.52C286.69 219.547 287.789 220.151 289.549 220.151C291.299 220.151 292.399 219.547 292.399 218.52C292.399 217.503 291.299 216.898 289.549 216.898ZM292.307 213.673V211.721H291.098V216.706H292.307V214.671H293.425V213.673H292.307ZM298.932 215.45C297.603 215.038 297.035 214.048 297.035 213.031V212.17H295.807V212.93C295.807 214.076 295.239 215.203 293.828 215.67L294.46 216.623C295.422 216.293 296.073 215.643 296.439 214.809C296.797 215.524 297.411 216.092 298.299 216.385L298.932 215.45ZM297.841 219.217C296.76 219.217 296.183 218.997 296.183 218.52C296.183 218.053 296.76 217.833 297.841 217.833C298.913 217.833 299.491 218.053 299.491 218.52C299.491 218.997 298.913 219.217 297.841 219.217ZM297.841 216.898C296.082 216.898 294.982 217.503 294.982 218.52C294.982 219.547 296.082 220.151 297.841 220.151C299.591 220.151 300.691 219.547 300.691 218.52C300.691 217.503 299.591 216.898 297.841 216.898ZM300.599 213.673V211.721H299.39V216.706H300.599V214.671H301.717V213.673H300.599ZM306.555 215.533C305.721 215.689 304.979 215.725 303.769 215.734V214.855H306.253V212.188H302.56V213.159H305.061V213.957H302.569V216.706H303.22C304.823 216.706 305.694 216.678 306.674 216.495L306.555 215.533ZM303.531 218.254H308.095V220.161H309.304V217.292H303.531V218.254ZM308.095 211.721V212.875H306.738V213.847H308.095V214.681H306.738V215.643H308.095V216.917H309.304V211.712L308.095 211.721ZM320.358 217.615C319.752 217.615 319.328 217.122 319.328 216.429C319.328 215.754 319.752 215.261 320.358 215.261C320.955 215.261 321.388 215.754 321.388 216.429C321.388 217.122 320.955 217.615 320.358 217.615ZM320.358 214.664C319.398 214.664 318.697 215.391 318.697 216.429C318.697 217.485 319.398 218.204 320.358 218.204C321.319 218.204 322.02 217.485 322.02 216.429C322.02 215.391 321.319 214.664 320.358 214.664ZM320.704 212.466H320.003V213.565H318.428V214.145H322.28V213.565H320.704V212.466ZM324.331 212.232V215.512H323.335V212.414H322.669V219.623H323.335V216.092H324.331V219.995H325.014V212.232H324.331ZM331.955 219.32H328.389V218.351H331.955V219.32ZM331.955 217.797H328.389V216.853H327.688V219.891H332.656V216.853H331.955V217.797ZM329.453 215.616H327.359V214.387H329.453V215.616ZM331.946 212.249V214.153H330.155V212.647H329.453V213.833H327.359V212.647H326.658V216.196H330.155V214.733H331.946V216.49H332.664V212.249H331.946ZM340.45 216.049C339.307 215.711 338.554 214.854 338.554 213.911V213.755H340.268V213.184H338.554V212.197H337.845V213.184H336.122V213.755H337.845V213.911C337.845 214.949 337.066 215.884 335.915 216.239L336.269 216.802C337.178 216.49 337.879 215.85 338.208 215.027C338.554 215.763 339.238 216.326 340.121 216.602L340.45 216.049ZM339.463 219.441C338.303 219.441 337.611 219.13 337.611 218.593C337.611 218.056 338.303 217.745 339.463 217.745C340.605 217.745 341.306 218.056 341.306 218.593C341.306 219.13 340.605 219.441 339.463 219.441ZM339.463 217.191C337.862 217.191 336.901 217.693 336.901 218.593C336.901 219.484 337.862 219.986 339.463 219.986C341.047 219.986 342.016 219.484 342.016 218.593C342.016 217.693 341.047 217.191 339.463 217.191ZM341.929 214.248V212.241H341.22V217.001H341.929V214.837H343.081V214.248H341.929ZM344.317 215.339C345.624 215.235 346.775 214.837 347.251 214.119C347.727 214.837 348.87 215.235 350.168 215.339L350.384 214.802C348.939 214.707 347.771 214.231 347.649 213.461H350.038V212.924H347.606V212.189H346.897V212.924H344.456V213.461H346.853C346.732 214.231 345.546 214.707 344.11 214.802L344.317 215.339ZM350.748 216.23V215.685H343.746V216.23H346.888V216.949H344.577V217.477H349.155V218.134H344.603V219.917H350.09V219.381H345.295V218.645H349.856V216.949H347.606V216.23H350.748ZM354.578 217.823H359.052V220.012H359.771V217.243H354.578V217.823ZM357.399 215.123C357.451 214.941 357.486 214.75 357.486 214.534C357.486 214.326 357.451 214.136 357.399 213.954H359.052V215.123H357.399ZM355.487 215.806C354.734 215.806 354.171 215.278 354.171 214.534C354.171 213.807 354.734 213.279 355.487 213.279C356.248 213.279 356.811 213.807 356.811 214.534C356.811 215.278 356.248 215.806 355.487 215.806ZM359.052 212.249V213.383H357.096C356.733 212.942 356.162 212.673 355.487 212.673C354.344 212.673 353.496 213.444 353.496 214.534C353.496 215.633 354.344 216.412 355.487 216.412C356.162 216.412 356.724 216.144 357.088 215.702H359.052V216.819H359.771V212.241L359.052 212.249ZM365.776 215.65C364.599 215.858 363.604 215.901 362.245 215.901V214.828H365.023V212.725H361.527V213.305H364.322V214.283H361.544V216.481H362.159C363.595 216.481 364.617 216.438 365.845 216.23L365.776 215.65ZM364.755 219.45C363.595 219.45 362.894 219.13 362.894 218.584C362.894 218.039 363.595 217.719 364.755 217.719C365.915 217.719 366.607 218.039 366.607 218.584C366.607 219.13 365.915 219.45 364.755 219.45ZM364.755 217.165C363.171 217.165 362.202 217.684 362.202 218.584C362.202 219.484 363.171 219.995 364.755 219.995C366.33 219.995 367.308 219.484 367.308 218.584C367.308 217.684 366.33 217.165 364.755 217.165ZM368.381 214.041V213.452H367.23V212.249H366.521V216.94H367.23V215.676H368.381V215.088H367.23V214.041H368.381ZM370.648 221.068L371.141 220.835C370.388 219.606 370.034 218.143 370.034 216.672C370.034 215.2 370.388 213.746 371.141 212.509L370.648 212.284C369.852 213.573 369.376 214.975 369.376 216.672C369.376 218.377 369.852 219.77 370.648 221.068ZM374.135 212.976H373.451V214.456C373.451 215.789 372.811 217.182 371.746 217.805L372.188 218.333C372.958 217.857 373.52 216.983 373.797 215.953C374.074 216.897 374.594 217.719 375.329 218.169L375.736 217.615C374.715 216.992 374.135 215.676 374.135 214.43V212.976ZM376.177 215.027H374.896V215.616H376.177V219.623H376.844V212.414H376.177V215.027ZM377.752 212.241V220.004H378.428V212.241H377.752ZM385.861 215.053H381.292V214.274H385.61V213.738H381.292V213.002H385.818V212.448H380.582V215.607H385.861V215.053ZM380.443 218.23H385.065V220.012H385.775V217.667H380.443V218.23ZM379.656 216.343V216.914H386.683V216.343H379.656ZM390.046 215.988C390.358 215.988 390.617 215.737 390.617 215.391C390.617 215.027 390.358 214.776 390.046 214.776C389.734 214.776 389.475 215.027 389.475 215.391C389.475 215.737 389.734 215.988 390.046 215.988ZM390.046 219.476C390.358 219.476 390.617 219.233 390.617 218.879C390.617 218.515 390.358 218.264 390.046 218.264C389.734 218.264 389.475 218.515 389.475 218.879C389.475 219.233 389.734 219.476 390.046 219.476ZM397.852 216.291H395.922V213.591H397.852V216.291ZM395.212 216.291H394.027V216.871H399.747V216.291H398.562V213.591H399.765V213.019H394.009V213.591H395.212V216.291ZM393.386 218.42V219.008H400.422V218.42H393.386ZM405.087 218.463V217.001H407.57V216.429H402.793V215.174H407.389V212.812H402.075V213.392H406.696V214.603H402.092V217.001H404.368V218.463H401.209V219.043H408.263V218.463H405.087ZM412.252 214.24V214.82H413.42V216.931H414.095V212.414H413.42V214.24H412.252ZM412.858 216.075C411.888 215.659 411.343 214.742 411.343 213.885V213.452H412.676V212.872H409.231V213.452H410.659V213.894C410.659 214.82 410.088 215.824 409.084 216.256L409.456 216.802C410.209 216.464 410.746 215.824 411.014 215.071C411.283 215.746 411.793 216.308 412.503 216.62L412.858 216.075ZM410.382 217.909H414.891V220.012H415.601V217.338H410.382V217.909ZM414.917 212.249V216.992H415.601V212.249H414.917ZM423.113 216.429H418.5V215.2H422.862V214.638H418.5V213.487H423.035V212.916H417.781V217.001H423.113V216.429ZM416.873 218.42V219H423.918V218.42H416.873ZM424.903 221.008C425.682 220.679 426.167 220.03 426.167 219.199C426.167 218.619 425.916 218.264 425.501 218.264C425.18 218.264 424.903 218.481 424.903 218.818C424.903 219.182 425.18 219.372 425.483 219.372C425.518 219.372 425.544 219.372 425.579 219.363C425.579 219.874 425.258 220.298 424.713 220.54L424.903 221.008ZM429.594 214.681C429.594 213.911 430.156 213.357 430.918 213.357C431.671 213.357 432.233 213.911 432.233 214.681C432.233 215.451 431.671 216.005 430.918 216.005C430.156 216.005 429.594 215.451 429.594 214.681ZM434.475 214.032V215.322H432.805C432.874 215.123 432.908 214.906 432.908 214.681C432.908 214.447 432.874 214.231 432.805 214.032H434.475ZM434.475 215.893V217.979H435.193V212.249H434.475V213.461H432.502C432.138 213.011 431.584 212.734 430.918 212.734C429.776 212.734 428.919 213.547 428.919 214.681C428.919 215.815 429.776 216.628 430.918 216.628C431.584 216.628 432.147 216.351 432.51 215.893H434.475ZM430.944 219.251V217.39H430.226V219.831H435.41V219.251H430.944ZM443.657 216.083H442.506C442.722 214.967 442.722 214.145 442.722 213.418V212.743H437.512V213.314H442.03V213.418C442.03 214.145 442.03 214.967 441.787 216.083H436.638V216.663H439.771V220.012H440.489V216.663H443.657V216.083ZM445.993 214.759H449.957V216.187H445.993V214.759ZM448.33 218.429V216.758H450.649V212.794H449.957V214.179H445.993V212.794H445.292V216.758H447.611V218.429H444.461V219.008H451.497V218.429H448.33ZM457.771 213.79C457.771 214.724 457.771 215.815 457.477 217.303L458.186 217.381C458.481 215.815 458.481 214.75 458.481 213.79V213.019H453.037V213.599H457.771V213.79ZM455.737 218.333V215.555H455.027V218.333H452.301V218.913H459.32V218.333H455.737ZM460.522 221.068C461.327 219.77 461.803 218.377 461.803 216.672C461.803 214.975 461.327 213.573 460.522 212.284L460.038 212.509C460.782 213.746 461.146 215.2 461.146 216.672C461.146 218.143 460.782 219.606 460.038 220.835L460.522 221.068Z" fill="white"/>
<path d="M313.851 212.37V220.012H314.491V212.37H313.851Z" fill="white" fill-opacity="0.5"/>
<rect width="186.327" height="50.9091" transform="translate(373.672 140)" fill="#E46E00"/>
<path d="M408.18 161.453H406.962V162.672C406.962 164.275 406.32 165.916 404.891 166.576L405.642 167.547C406.586 167.07 407.218 166.191 407.585 165.109C407.933 166.127 408.547 166.951 409.473 167.4L410.187 166.438C408.794 165.815 408.18 164.266 408.18 162.672V161.453ZM410.884 160.793V163.442H409.262V164.413H410.884V169.261H412.093V160.793H410.884ZM416.409 161.453H415.19V162.681C415.19 164.248 414.548 165.861 413.128 166.53L413.852 167.51C414.805 167.043 415.437 166.154 415.804 165.082C416.152 166.09 416.748 166.905 417.627 167.354L418.361 166.401C417.004 165.733 416.409 164.202 416.409 162.681V161.453ZM421.137 164.046H419.909V160.802H418.7V169.242H419.909V165.054H421.137V164.046ZM425.902 164.624C425.068 164.779 424.325 164.816 423.116 164.825V163.946H425.599V161.279H421.906V162.25H424.408V163.048H421.915V165.797H422.566C424.17 165.797 425.04 165.769 426.021 165.586L425.902 164.624ZM422.878 167.345H427.441V169.251H428.651V166.383H422.878V167.345ZM427.441 160.812V161.966H426.085V162.938H427.441V163.771H426.085V164.734H427.441V166.007H428.651V160.802L427.441 160.812ZM440.397 162.716H442.119V162.128H437.922V162.716H439.696V163.703C439.696 165.018 438.761 166.49 437.654 167.043L438.069 167.606C438.943 167.156 439.696 166.169 440.051 165.036C440.406 166.074 441.133 166.983 441.998 167.416L442.405 166.844C441.28 166.316 440.397 164.94 440.397 163.703V162.716ZM445.036 164.464H443.755V161.34H443.045V169.095H443.755V165.062H445.036V164.464ZM446.074 162.171V162.742H448.99C448.843 164.586 447.805 166.074 445.719 167.069L446.1 167.649C448.679 166.386 449.709 164.412 449.709 162.171H446.074ZM451.275 161.331V169.095H451.985V161.331H451.275ZM455.945 165.105C457.148 164.897 458.29 164.248 458.766 163.331C459.233 164.248 460.384 164.897 461.587 165.105L461.864 164.542C460.497 164.343 459.156 163.452 459.156 162.431V162.387H461.587V161.816H455.919V162.387H458.368V162.431C458.368 163.452 457.027 164.343 455.676 164.542L455.945 165.105ZM462.271 165.754H455.261V166.334H458.394V169.095H459.104V166.334H462.28L462.271 165.754ZM466.953 167.528V165.538H469.315V164.966H464.685V162.534H469.237V161.955H463.975V165.538H466.234V167.528H463.075V168.117H470.129V167.528H466.953ZM473.924 166.914H478.399V169.103H479.117V166.334H473.924V166.914ZM476.746 164.213C476.798 164.032 476.832 163.841 476.832 163.625C476.832 163.417 476.798 163.227 476.746 163.045H478.399V164.213H476.746ZM474.833 164.897C474.08 164.897 473.518 164.369 473.518 163.625C473.518 162.898 474.08 162.37 474.833 162.37C475.595 162.37 476.157 162.898 476.157 163.625C476.157 164.369 475.595 164.897 474.833 164.897ZM478.399 161.34V162.474H476.443C476.079 162.032 475.508 161.764 474.833 161.764C473.691 161.764 472.842 162.534 472.842 163.625C472.842 164.724 473.691 165.503 474.833 165.503C475.508 165.503 476.071 165.235 476.434 164.793H478.399V165.91H479.117V161.331L478.399 161.34ZM485.123 164.741C483.946 164.949 482.95 164.992 481.592 164.992V163.919H484.37V161.816H480.873V162.396H483.669V163.374H480.891V165.572H481.505C482.942 165.572 483.963 165.529 485.192 165.321L485.123 164.741ZM484.101 168.541C482.942 168.541 482.241 168.22 482.241 167.675C482.241 167.13 482.942 166.81 484.101 166.81C485.261 166.81 485.953 167.13 485.953 167.675C485.953 168.22 485.261 168.541 484.101 168.541ZM484.101 166.256C482.518 166.256 481.548 166.775 481.548 167.675C481.548 168.575 482.518 169.086 484.101 169.086C485.676 169.086 486.654 168.575 486.654 167.675C486.654 166.775 485.676 166.256 484.101 166.256ZM487.728 163.132V162.543H486.577V161.34H485.867V166.031H486.577V164.767H487.728V164.179H486.577V163.132H487.728ZM489.994 170.159L490.488 169.925C489.735 168.696 489.38 167.234 489.38 165.763C489.38 164.291 489.735 162.837 490.488 161.6L489.994 161.375C489.198 162.664 488.722 164.066 488.722 165.763C488.722 167.467 489.198 168.861 489.994 170.159ZM497.549 161.34H496.839V167.017H497.549V161.34ZM495.922 165.347C494.779 164.966 493.975 164.023 493.975 162.976V162.552H495.731V161.981H491.473V162.552H493.248V162.976C493.248 164.084 492.46 165.096 491.283 165.503L491.655 166.057C492.573 165.728 493.291 165.027 493.62 164.144C493.975 164.958 494.684 165.598 495.576 165.91L495.922 165.347ZM493.265 168.342V166.481H492.555V168.921H497.783V168.342H493.265ZM502.879 167.554V166.091H505.363V165.52H500.586V164.265H505.182V161.903H499.868V162.482H504.489V163.694H499.885V166.091H502.161V167.554H499.002V168.134H506.056V167.554H502.879ZM507.033 170.098C507.812 169.77 508.297 169.121 508.297 168.29C508.297 167.71 508.046 167.355 507.63 167.355C507.31 167.355 507.033 167.571 507.033 167.909C507.033 168.272 507.31 168.463 507.613 168.463C507.647 168.463 507.673 168.463 507.708 168.454C507.708 168.965 507.388 169.389 506.843 169.631L507.033 170.098ZM517.297 161.34H516.587V167.017H517.297V161.34ZM515.67 165.347C514.527 164.966 513.722 164.023 513.722 162.976V162.552H515.479V161.981H511.221V162.552H512.996V162.976C512.996 164.084 512.208 165.096 511.031 165.503L511.403 166.057C512.32 165.728 513.039 165.027 513.368 164.144C513.722 164.958 514.432 165.598 515.324 165.91L515.67 165.347ZM513.013 168.342V166.481H512.303V168.921H517.53V168.342H513.013ZM523.363 162.154H521.424V161.288H520.715V162.154H518.785V162.725H523.363V162.154ZM519.893 164.525C519.893 164.014 520.36 163.677 521.07 163.677C521.779 163.677 522.255 164.014 522.255 164.525C522.255 165.044 521.779 165.382 521.07 165.382C520.36 165.382 519.893 165.044 519.893 164.525ZM522.93 164.525C522.93 163.677 522.177 163.123 521.07 163.123C519.97 163.123 519.217 163.677 519.217 164.525C519.217 165.382 519.97 165.927 521.07 165.927C522.177 165.927 522.93 165.382 522.93 164.525ZM519.745 167.191H524.073V169.103H524.782V166.611H519.745V167.191ZM525.933 163.478H524.782V161.34H524.073V166.187H524.782V164.066H525.933V163.478ZM526.989 170.159C527.793 168.861 528.269 167.467 528.269 165.763C528.269 164.066 527.793 162.664 526.989 161.375L526.504 161.6C527.248 162.837 527.612 164.291 527.612 165.763C527.612 167.234 527.248 168.696 526.504 169.925L526.989 170.159Z" fill="white"/>
<path d="M433.197 161.461V169.103H433.838V161.461H433.197Z" fill="white" fill-opacity="0.5"/>
<path d="M0 241.818H560V284.582C560 289.081 556.353 292.727 551.855 292.727H8.14545C3.64684 292.727 0 289.081 0 284.582V241.818Z" fill="#72A100"/>
<path d="M219.991 265.168H216.646V263.922H219.991V265.168ZM221.182 262.978H215.455V266.121H221.182V262.978ZM216.609 268.467H215.4V270.914H221.31V269.952H216.609V268.467ZM214.511 266.79V267.743H217.837V269.182H219.047V267.743H222.153V266.79H214.511ZM224.838 268.238C224.379 268.238 224.049 267.872 224.049 267.239C224.049 266.607 224.379 266.231 224.838 266.231C225.296 266.231 225.626 266.607 225.626 267.239C225.626 267.872 225.296 268.238 224.838 268.238ZM224.838 265.223C223.756 265.223 222.987 266.057 222.987 267.239C222.987 268.412 223.756 269.246 224.838 269.246C225.919 269.246 226.689 268.412 226.689 267.239C226.689 266.057 225.919 265.223 224.838 265.223ZM225.433 262.85H224.242V263.895H222.803V264.857H226.835V263.895H225.433V262.85ZM228.906 262.612V266.057H228.265V262.777H227.138V270.703H228.265V267.029H228.906V271.051H230.052V262.612H228.906ZM235.412 266.442C234.578 266.598 233.836 266.634 232.626 266.644V265.764H235.109V263.097H231.416V264.069H233.918V264.866H231.425V267.615H232.076C233.68 267.615 234.55 267.588 235.531 267.404L235.412 266.442ZM232.388 269.164H236.951V271.07H238.161V268.201H232.388V269.164ZM236.951 262.63V263.785H235.595V264.756H236.951V265.59H235.595V266.552H236.951V267.826H238.161V262.621L236.951 262.63ZM253.295 262.731V270.969H254.047V262.731H253.295ZM249.712 263.363C248.493 263.363 247.623 264.481 247.623 266.231C247.623 267.982 248.493 269.1 249.712 269.1C250.931 269.1 251.801 267.982 251.801 266.231C251.801 264.481 250.931 263.363 249.712 263.363ZM249.712 264.041C250.509 264.041 251.078 264.903 251.078 266.231C251.078 267.569 250.509 268.431 249.712 268.431C248.906 268.431 248.338 267.569 248.338 266.231C248.338 264.903 248.906 264.041 249.712 264.041ZM257.647 268.421C257.006 268.421 256.557 267.899 256.557 267.166C256.557 266.451 257.006 265.929 257.647 265.929C258.279 265.929 258.738 266.451 258.738 267.166C258.738 267.899 258.279 268.421 257.647 268.421ZM257.647 265.297C256.63 265.297 255.888 266.066 255.888 267.166C255.888 268.284 256.63 269.045 257.647 269.045C258.664 269.045 259.407 268.284 259.407 267.166C259.407 266.066 258.664 265.297 257.647 265.297ZM258.014 262.969H257.271V264.133H255.604V264.747H259.681V264.133H258.014V262.969ZM261.853 262.722V266.195H260.799V262.914H260.094V270.547H260.799V266.809H261.853V270.941H262.577V262.722H261.853ZM268.249 266.607C267.296 266.763 266.508 266.799 264.987 266.799V265.553H267.772V263.226H264.226V263.84H267.039V264.976H264.253V267.413H264.84C266.48 267.413 267.314 267.386 268.322 267.212L268.249 266.607ZM265.17 268.843H269.917V270.96H270.677V268.229H265.17V268.843ZM269.917 262.74V263.95H268.313V264.564H269.917V265.663H268.313V266.268H269.917V267.789H270.677V262.74H269.917ZM284.522 265.214H279.619V263.647H284.448V263.042H278.868V265.819H284.522V265.214ZM278.758 268.935H283.706V270.996H284.467V268.33H278.758V268.935ZM277.933 266.735V267.34H285.374V266.735H277.933ZM291.073 266.689C289.882 266.268 289.075 265.242 289.075 264.169V263.867H290.881V263.253H286.491V263.867H288.324V264.179C288.324 265.342 287.472 266.433 286.253 266.873L286.647 267.459C287.609 267.111 288.361 266.36 288.718 265.416C289.075 266.259 289.781 266.946 290.697 267.276L291.073 266.689ZM288.388 268.541H292.264V270.236H288.388V268.541ZM287.655 270.841H292.997V267.945H287.655V270.841ZM292.237 262.731V264.793H290.615V265.416H292.237V267.542H292.997V262.731H292.237ZM298.861 266.607C297.908 266.763 297.12 266.799 295.599 266.799V265.553H298.385V263.226H294.839V263.84H297.652V264.976H294.866V267.413H295.453C297.093 267.413 297.927 267.386 298.935 267.212L298.861 266.607ZM295.782 268.843H300.529V270.96H301.29V268.229H295.782V268.843ZM300.529 262.74V263.95H298.926V264.564H300.529V265.663H298.926V266.268H300.529V267.789H301.29V262.74H300.529ZM304.515 272.078L305.037 271.83C304.24 270.529 303.864 268.98 303.864 267.423C303.864 265.865 304.24 264.325 305.037 263.015L304.515 262.777C303.672 264.142 303.168 265.626 303.168 267.423C303.168 269.228 303.672 270.703 304.515 272.078ZM306.924 263.73H306.172V268.815H306.695C307.583 268.815 308.527 268.77 309.636 268.559L309.563 267.908C308.582 268.101 307.712 268.156 306.924 268.165V263.73ZM312.019 262.731V266.076H310.855V262.914H310.149V270.529H310.855V266.699H312.019V270.941H312.743V262.731H312.019ZM320.806 262.731H320.054V268.76H320.806V262.731ZM319.01 266.827C317.791 266.378 316.957 265.26 316.957 264.023V263.189H316.206V264.023C316.206 265.306 315.381 266.497 314.144 266.974L314.538 267.588C315.5 267.184 316.242 266.387 316.591 265.388C316.957 266.323 317.681 267.065 318.616 267.423L319.01 266.827ZM316.27 270.153V268.201H315.518V270.767H321.053V270.153H316.27ZM322.555 272.014C323.38 271.665 323.893 270.978 323.893 270.098C323.893 269.484 323.628 269.109 323.188 269.109C322.849 269.109 322.555 269.338 322.555 269.695C322.555 270.08 322.849 270.282 323.169 270.282C323.206 270.282 323.234 270.282 323.27 270.272C323.27 270.813 322.931 271.262 322.354 271.519L322.555 272.014ZM333.753 265.865C332.259 265.645 330.793 264.628 330.793 263.482V263.024H330.005V263.482C330.005 264.655 328.557 265.645 327.064 265.865L327.366 266.47C328.649 266.25 329.886 265.544 330.399 264.545C330.931 265.535 332.168 266.25 333.441 266.47L333.753 265.865ZM334.11 267.358H326.688V267.982H330.005V270.96H330.756V267.982H334.12L334.11 267.358ZM341.56 265.022H336.73V262.905H335.979V265.626H341.56V265.022ZM338.682 270.337C337.39 270.337 336.63 269.998 336.63 269.429C336.63 268.843 337.39 268.513 338.682 268.513C339.974 268.513 340.735 268.843 340.735 269.429C340.735 269.998 339.965 270.337 338.682 270.337ZM338.682 267.927C336.932 267.927 335.869 268.467 335.869 269.429C335.869 270.382 336.932 270.923 338.682 270.923C340.433 270.923 341.496 270.382 341.496 269.429C341.496 268.467 340.433 267.927 338.682 267.927ZM334.98 266.58V267.193H342.412V266.58H334.98ZM343.685 272.078C344.537 270.703 345.041 269.228 345.041 267.423C345.041 265.626 344.537 264.142 343.685 262.777L343.172 263.015C343.96 264.325 344.345 265.865 344.345 267.423C344.345 268.98 343.96 270.529 343.172 271.83L343.685 272.078Z" fill="white"/>
<path d="M242.707 263.28V270.922H243.348V263.28H242.707Z" fill="white" fill-opacity="0.5"/>
<circle cx="274.146" cy="267.781" r="0.763636" fill="white"/>
<path d="M8.69973 150.691C340.627 138.473 551.391 73.8184 551.391 73.8184" stroke="url(#paint0_linear_1543_17540)" stroke-width="1.01818" stroke-dasharray="3.05 3.05"/>
<circle cx="6.10909" cy="6.10909" r="6.10909" transform="matrix(-1 0 0 1 100.715 140.001)" fill="#72A100"/>
<circle cx="6.10909" cy="6.10909" r="6.10909" transform="matrix(-0.999695 0.0247143 0.0247143 0.999695 277.922 121.716)" fill="#72A100"/>
<circle cx="6.10909" cy="6.10909" r="6.10909" transform="matrix(-0.999695 0.0247143 0.0247143 0.999695 296.207 119.736)" fill="#69289C"/>
<circle cx="6.10909" cy="6.10909" r="6.10909" transform="matrix(-0.997442 -0.0714841 -0.0714841 0.997442 455.773 92.2412)" fill="#72A100"/>
<circle cx="6.10909" cy="6.10909" r="6.10909" transform="matrix(-0.997442 -0.0714841 -0.0714841 0.997442 493.098 84.1982)" fill="#E46E00"/>
<circle cx="6.10909" cy="6.10909" r="6.10909" transform="matrix(-0.997442 -0.0714841 -0.0714841 0.997442 474.379 88.9814)" fill="#69289C"/>
<path d="M15.6424 138.443V139.315H16.7665V141.099H17.8417V136.635H16.7665V138.443H15.6424ZM16.0904 140.056C14.9501 139.681 14.4288 138.802 14.3962 137.946H15.8542V137.083H11.8222V137.946H13.2966C13.264 138.883 12.7182 139.836 11.529 140.252L12.0747 141.099C12.9463 140.806 13.5409 140.195 13.8667 139.437C14.1926 140.097 14.7546 140.626 15.5691 140.895L16.0904 140.056ZM15.3085 143.331C14.3229 143.331 13.8097 143.127 13.8097 142.703C13.8097 142.28 14.3229 142.076 15.3085 142.076C16.2859 142.076 16.7991 142.28 16.7991 142.703C16.7991 143.127 16.2859 143.331 15.3085 143.331ZM15.3085 141.262C13.712 141.262 12.7345 141.791 12.7345 142.703C12.7345 143.616 13.712 144.145 15.3085 144.145C16.8968 144.145 17.8743 143.616 17.8743 142.703C17.8743 141.791 16.8968 141.262 15.3085 141.262ZM19.0059 138.533V140.846H19.6494C21.1481 140.846 22.1012 140.814 23.1438 140.618L23.0542 139.755C22.1174 139.926 21.2948 139.975 20.0729 139.983V139.331H22.4188V137.075H18.9977V137.938H21.3599V138.533H19.0059ZM22.1745 143.322C21.197 143.322 20.692 143.135 20.692 142.72C20.692 142.304 21.197 142.117 22.1745 142.117C23.1519 142.117 23.6569 142.304 23.6569 142.72C23.6569 143.135 23.1519 143.322 22.1745 143.322ZM22.1745 141.294C20.6105 141.294 19.6331 141.816 19.6331 142.72C19.6331 143.616 20.6105 144.145 22.1745 144.145C23.7384 144.145 24.7158 143.616 24.7158 142.72C24.7158 141.816 23.7384 141.294 22.1745 141.294ZM25.6363 138.517V137.645H24.6425V136.635H23.5673V141.156H24.6425V140.097H25.6363V139.225H24.6425V138.517H25.6363ZM32.6209 141.221H33.6961V136.635H32.6209V137.841H31.7412V138.704H32.6209V139.25H31.7412V140.105H32.6209V141.221ZM29.2405 137.987H29.941V140.024C29.7048 140.032 29.4686 140.048 29.2405 140.048V137.987ZM31.6597 139.893C31.4398 139.918 31.2117 139.942 30.9755 139.958V137.987H31.5701V137.132H27.6114V137.987H28.206V140.072C27.9291 140.072 27.6684 140.072 27.4241 140.072L27.5381 140.944C28.7192 140.944 30.332 140.92 31.7249 140.683L31.6597 139.893ZM31.1547 143.331C30.1691 143.331 29.6641 143.135 29.6641 142.744C29.6641 142.345 30.1691 142.158 31.1547 142.158C32.1484 142.158 32.6535 142.345 32.6535 142.744C32.6535 143.135 32.1484 143.331 31.1547 143.331ZM31.1547 141.343C29.5582 141.343 28.5889 141.856 28.5889 142.744C28.5889 143.624 29.5582 144.145 31.1547 144.145C32.7594 144.145 33.7287 143.624 33.7287 142.744C33.7287 141.856 32.7594 141.343 31.1547 141.343ZM34.9336 137.401V138.272H37.3853C37.1898 139.934 36.2613 141.123 34.5181 142.019L35.1209 142.842C37.6134 141.579 38.4687 139.649 38.4687 137.401H34.9336ZM41.5151 139.494H40.4643V136.627H39.3891V144.121H40.4643V140.382H41.5151V139.494Z" fill="#970707"/>
<circle cx="3.05455" cy="3.05455" r="3.05455" transform="matrix(-1 0 0 1 12.2617 147.637)" fill="#970707"/>
<path d="M520.177 65.6436V66.5151H521.301V68.299H522.376V63.8353H521.301V65.6436H520.177ZM520.625 67.2564C519.485 66.8817 518.963 66.002 518.931 65.1467H520.389V64.2833H516.357V65.1467H517.831C517.798 66.0834 517.253 67.0364 516.063 67.4518L516.609 68.299C517.481 68.0057 518.075 67.3948 518.401 66.6373C518.727 67.2971 519.289 67.8265 520.104 68.0953L520.625 67.2564ZM519.843 70.5308C518.857 70.5308 518.344 70.3272 518.344 69.9036C518.344 69.4801 518.857 69.2764 519.843 69.2764C520.82 69.2764 521.334 69.4801 521.334 69.9036C521.334 70.3272 520.82 70.5308 519.843 70.5308ZM519.843 68.4619C518.246 68.4619 517.269 68.9913 517.269 69.9036C517.269 70.8159 518.246 71.3454 519.843 71.3454C521.431 71.3454 522.409 70.8159 522.409 69.9036C522.409 68.9913 521.431 68.4619 519.843 68.4619ZM528.468 68.2338H529.544V63.8353H528.468V65.2037H527.1V66.0753H528.468V68.2338ZM527.784 67.1505C526.595 66.7676 526.106 65.8553 526.106 64.8453V64.2262H525.015V64.8942C525.015 65.9286 524.485 66.9468 523.206 67.3541L523.768 68.2175C524.656 67.9161 525.251 67.3134 525.585 66.5477C525.903 67.2156 526.432 67.7288 527.222 67.9976L527.784 67.1505ZM527.01 70.5145C526.025 70.5145 525.512 70.3109 525.512 69.8873C525.512 69.4556 526.025 69.252 527.01 69.252C527.988 69.252 528.501 69.4556 528.501 69.8873C528.501 70.3109 527.988 70.5145 527.01 70.5145ZM527.01 68.4212C525.414 68.4212 524.436 68.9588 524.436 69.8873C524.436 70.7996 525.414 71.3372 527.01 71.3372C528.599 71.3372 529.576 70.7996 529.576 69.8873C529.576 68.9588 528.599 68.4212 527.01 68.4212ZM537.155 68.4212H538.231V63.8353H537.155V65.0408H536.276V65.9042H537.155V66.45H536.276V67.3052H537.155V68.4212ZM533.775 65.1874H534.475V67.2238C534.239 67.2319 534.003 67.2482 533.775 67.2482V65.1874ZM536.194 67.0934C535.974 67.1179 535.746 67.1423 535.51 67.1586V65.1874H536.105V64.3321H532.146V65.1874H532.74V67.2726C532.464 67.2726 532.203 67.2726 531.959 67.2726L532.073 68.1442C533.254 68.1442 534.866 68.1198 536.259 67.8836L536.194 67.0934ZM535.689 70.5308C534.704 70.5308 534.199 70.3353 534.199 69.9444C534.199 69.5452 534.704 69.3579 535.689 69.3579C536.683 69.3579 537.188 69.5452 537.188 69.9444C537.188 70.3353 536.683 70.5308 535.689 70.5308ZM535.689 68.5433C534.093 68.5433 533.123 69.0565 533.123 69.9444C533.123 70.8241 534.093 71.3454 535.689 71.3454C537.294 71.3454 538.263 70.8241 538.263 69.9444C538.263 69.0565 537.294 68.5433 535.689 68.5433ZM539.468 64.6009V65.4725H541.92C541.724 67.1342 540.796 68.3234 539.053 69.2194L539.655 70.0421C542.148 68.7796 543.003 66.8491 543.003 64.6009H539.468ZM546.05 66.6943H544.999V63.8271H543.924V71.3209H544.999V67.5822H546.05V66.6943Z" fill="#020072"/>
<circle cx="3.05455" cy="3.05455" r="3.05455" transform="matrix(-1 0 0 1 553.426 70.7637)" fill="#020072"/>
<path d="M187.391 241.819V43.7822" stroke="white" stroke-width="0.509091" stroke-dasharray="1.02 1.02"/>
<path d="M373.164 190.91L373.164 43.7822" stroke="white" stroke-width="0.509091" stroke-dasharray="1.02 1.02"/>
<path d="M0 26.4726C0 21.974 3.64684 18.3271 8.14545 18.3271H280V43.7817H0V26.4726Z" fill="#020072"/>
<path d="M126.415 29.8823C124.287 29.5871 123.207 28.3652 123.207 27.2758V26.8278H121.772V27.2758C121.772 28.3754 120.703 29.5871 118.564 29.8823L119.074 30.9616C120.713 30.7172 121.894 29.9536 122.495 28.9456C123.095 29.9536 124.266 30.7172 125.906 30.9616L126.415 29.8823ZM126.72 31.654H118.249V32.7434H121.782V35.9405H123.126V32.7434H126.72V31.654ZM134.997 28.8845H129.866V26.7158H128.522V29.9536H134.997V28.8845ZM131.668 34.8816C130.415 34.8816 129.774 34.6576 129.774 34.1689C129.774 33.6801 130.415 33.4561 131.668 33.4561C132.92 33.4561 133.562 33.6801 133.562 34.1689C133.562 34.6576 132.92 34.8816 131.668 34.8816ZM131.668 32.4278C129.642 32.4278 128.42 33.0692 128.42 34.1689C128.42 35.2685 129.642 35.91 131.668 35.91C133.694 35.91 134.926 35.2685 134.926 34.1689C134.926 33.0692 133.694 32.4278 131.668 32.4278ZM127.463 30.7478V31.8169H135.944V30.7478H127.463ZM138.611 37.1114L139.548 36.7143C138.692 35.2278 138.305 33.5172 138.305 31.8372C138.305 30.1776 138.692 28.4569 139.548 26.9703L138.611 26.5732C137.654 28.1412 137.094 29.8111 137.094 31.8372C137.094 33.8838 137.654 35.5332 138.611 37.1114ZM145.452 28.8132V29.9027H146.857V32.1325H148.201V26.5529H146.857V28.8132H145.452ZM146.012 30.8292C144.587 30.3609 143.935 29.2612 143.895 28.1921H145.717V27.1129H140.677V28.1921H142.52C142.479 29.3631 141.797 30.5543 140.311 31.0736L140.993 32.1325C142.082 31.766 142.825 31.0023 143.233 30.0554C143.64 30.8801 144.343 31.542 145.361 31.878L146.012 30.8292ZM145.035 34.9223C143.803 34.9223 143.161 34.6678 143.161 34.1383C143.161 33.6089 143.803 33.3543 145.035 33.3543C146.257 33.3543 146.898 33.6089 146.898 34.1383C146.898 34.6678 146.257 34.9223 145.035 34.9223ZM145.035 32.3361C143.039 32.3361 141.817 32.998 141.817 34.1383C141.817 35.2787 143.039 35.9405 145.035 35.9405C147.02 35.9405 148.242 35.2787 148.242 34.1383C148.242 32.998 147.02 32.3361 145.035 32.3361ZM153.21 27.2758H151.866V28.6401C151.866 30.4627 151.092 32.2751 149.453 32.9776L150.257 34.0874C151.377 33.558 152.141 32.55 152.558 31.2976C152.976 32.4481 153.699 33.3747 154.778 33.8634L155.542 32.774C153.953 32.0918 153.21 30.3812 153.21 28.6401V27.2758ZM156 26.5427V35.9507H157.344V26.5427H156ZM159.807 37.1114C160.774 35.5332 161.334 33.8838 161.334 31.8372C161.334 29.8111 160.774 28.1412 159.807 26.5732L158.881 26.9703C159.736 28.4569 160.123 30.1776 160.123 31.8372C160.123 33.5172 159.736 35.2278 158.881 36.7143L159.807 37.1114Z" fill="white"/>
<path d="M279.98 18.3271H559.98V43.7817H279.98V18.3271Z" fill="#970707"/>
<path d="M388.84 27.3776H386.753V26.502H385.399V27.3776H383.321V28.4365H388.84V27.3776ZM385.063 30.4525C385.063 29.9841 385.47 29.75 386.081 29.75C386.681 29.75 387.099 29.9841 387.099 30.4525C387.099 30.9311 386.681 31.1652 386.081 31.1652C385.47 31.1652 385.063 30.9311 385.063 30.4525ZM388.382 30.4525C388.382 29.4343 387.435 28.7318 386.081 28.7318C384.737 28.7318 383.78 29.4343 383.78 30.4525C383.78 31.4809 384.737 32.1834 386.081 32.1834C387.435 32.1834 388.382 31.4809 388.382 30.4525ZM384.452 33.894H389.359V35.9405H390.703V32.8147H384.452V33.894ZM391.945 28.966H390.703V26.5529H389.359V32.4278H390.703V30.0758H391.945V28.966ZM398.522 29.9129H399.255V32.2852H400.528V26.5529H399.255V28.8336H398.522V26.726H397.27V31.99H398.522V29.9129ZM397.26 30.7172C396.028 30.2183 395.518 29.2103 395.518 28.2023V27.1129H394.225V28.2023C394.225 29.2612 393.716 30.422 392.403 30.9921L393.116 32.0307C393.981 31.6641 394.561 30.9921 394.897 30.198C395.233 30.87 395.773 31.43 396.547 31.7354L397.26 30.7172ZM397.351 34.9223C396.129 34.9223 395.457 34.678 395.457 34.1791C395.457 33.6801 396.129 33.4358 397.351 33.4358C398.553 33.4358 399.225 33.6801 399.225 34.1791C399.225 34.678 398.553 34.9223 397.351 34.9223ZM397.351 32.4278C395.376 32.4278 394.113 33.0896 394.113 34.1791C394.113 35.2787 395.376 35.9405 397.351 35.9405C399.316 35.9405 400.569 35.2787 400.569 34.1791C400.569 33.0896 399.316 32.4278 397.351 32.4278ZM407.909 29.9943H404.05V29.0271H407.909V29.9943ZM409.233 26.9092H407.909V27.9783H404.05V26.9092H402.716V31.0634H409.233V26.9092ZM410.241 31.9492H401.749V33.0183H405.292V35.9405H406.636V33.0183H410.241V31.9492ZM413.931 30.4525C415.703 30.2794 416.854 29.6278 417.352 28.7318C417.841 29.6278 419.002 30.2794 420.763 30.4525L421.232 29.3936C419.48 29.2511 418.564 28.6401 418.33 28.0089H420.824V26.9398H413.891V28.0089H416.375C416.141 28.6401 415.224 29.2511 413.473 29.3936L413.931 30.4525ZM417.332 34.9325C416.07 34.9325 415.438 34.7391 415.438 34.2809C415.438 33.8329 416.07 33.6292 417.332 33.6292C418.595 33.6292 419.226 33.8329 419.226 34.2809C419.226 34.7391 418.595 34.9325 417.332 34.9325ZM417.332 32.6212C415.296 32.6212 414.084 33.222 414.084 34.2809C414.084 35.3398 415.296 35.9405 417.332 35.9405C419.368 35.9405 420.59 35.3398 420.59 34.2809C420.59 33.222 419.368 32.6212 417.332 32.6212ZM418.014 31.0431V29.9129H416.67V31.0431H413.117V32.1121H421.588V31.0431H418.014ZM427.859 27.3776H425.762V26.4816H424.408V27.3776H422.32V28.4263H427.849L427.859 27.3776ZM424.072 30.3405C424.072 29.8925 424.489 29.6583 425.09 29.6583C425.691 29.6583 426.108 29.8925 426.108 30.3405C426.108 30.7885 425.691 31.0227 425.09 31.0227C424.489 31.0227 424.072 30.7885 424.072 30.3405ZM427.391 30.3405C427.391 29.3427 426.444 28.6809 425.09 28.6809C423.736 28.6809 422.789 29.3427 422.789 30.3405C422.789 31.3281 423.736 32.0001 425.09 32.0001C426.444 32.0001 427.391 31.3281 427.391 30.3405ZM428.379 34.7798H424.947V34.1281H428.379V34.7798ZM428.379 33.11H424.947V32.3972H423.613V35.8285H429.712V32.3972H428.379V33.11ZM430.955 28.8031H429.712V26.5529H428.368V32.0409H429.712V29.9027H430.955V28.8031ZM433.489 37.1114L434.426 36.7143C433.57 35.2278 433.184 33.5172 433.184 31.8372C433.184 30.1776 433.57 28.4569 434.426 26.9703L433.489 26.5732C432.532 28.1412 431.972 29.8111 431.972 31.8372C431.972 33.8838 432.532 35.5332 433.489 37.1114ZM443.416 29.8823C441.288 29.5871 440.208 28.3652 440.208 27.2758V26.8278H438.773V27.2758C438.773 28.3754 437.704 29.5871 435.565 29.8823L436.075 30.9616C437.714 30.7172 438.895 29.9536 439.496 28.9456C440.096 29.9536 441.267 30.7172 442.907 30.9616L443.416 29.8823ZM443.721 31.654H435.25V32.7434H438.783V35.9405H440.127V32.7434H443.721V31.654ZM448.088 27.2758H446.744V28.6401C446.744 30.4627 445.97 32.2751 444.331 32.9776L445.136 34.0874C446.256 33.558 447.019 32.55 447.437 31.2976C447.854 32.4481 448.577 33.3747 449.656 33.8634L450.42 32.774C448.832 32.0918 448.088 30.3812 448.088 28.6401V27.2758ZM450.878 26.5427V35.9507H452.222V26.5427H450.878ZM454.685 37.1114C455.653 35.5332 456.213 33.8838 456.213 31.8372C456.213 29.8111 455.653 28.1412 454.685 26.5732L453.759 26.9703C454.614 28.4569 455.001 30.1776 455.001 31.8372C455.001 33.5172 454.614 35.2278 453.759 36.7143L454.685 37.1114Z" fill="white"/>
<rect width="186.327" height="18.3273" transform="translate(373.672)" fill="black"/>
<path d="M429.035 8.83509V11.3229C428.943 11.4452 428.798 11.5794 428.601 11.7256C428.407 11.8688 428.149 11.9925 427.827 12.0969C427.505 12.2013 427.104 12.2536 426.624 12.2536C426.215 12.2536 425.84 12.1849 425.5 12.0477C425.16 11.9075 424.867 11.7032 424.619 11.4347C424.374 11.1663 424.185 10.8396 424.051 10.4548C423.916 10.067 423.849 9.62557 423.849 9.1304V8.67848C423.849 8.18629 423.911 7.7478 424.033 7.363C424.158 6.97521 424.337 6.64709 424.57 6.37862C424.802 6.11016 425.083 5.90732 425.411 5.7701C425.742 5.6299 426.116 5.5598 426.534 5.5598C427.068 5.5598 427.509 5.64929 427.858 5.82827C428.21 6.00426 428.482 6.24886 428.673 6.56207C428.864 6.87528 428.985 7.23324 429.035 7.63594H427.935C427.899 7.40923 427.829 7.20639 427.724 7.02741C427.623 6.84844 427.477 6.70824 427.286 6.60682C427.098 6.50241 426.853 6.45021 426.552 6.45021C426.292 6.45021 426.064 6.49943 425.867 6.59787C425.67 6.69631 425.506 6.84098 425.375 7.03189C425.247 7.2228 425.15 7.45547 425.084 7.7299C425.019 8.00433 424.986 8.31754 424.986 8.66953V9.1304C424.986 9.48835 425.023 9.80604 425.098 10.0835C425.175 10.3609 425.286 10.595 425.429 10.7859C425.575 10.9768 425.752 11.1215 425.961 11.22C426.17 11.3154 426.406 11.3631 426.668 11.3631C426.925 11.3631 427.135 11.3423 427.299 11.3005C427.463 11.2558 427.593 11.2036 427.688 11.1439C427.787 11.0813 427.863 11.0216 427.917 10.9649V9.6718H426.561V8.83509H429.035ZM431.509 5.29134V12.1641H430.427V5.29134H431.509ZM432.668 9.79709V9.69418C432.668 9.34517 432.719 9.02152 432.82 8.72322C432.922 8.42195 433.068 8.16094 433.259 7.9402C433.453 7.71648 433.688 7.54347 433.966 7.42116C434.246 7.29588 434.562 7.23324 434.914 7.23324C435.269 7.23324 435.585 7.29588 435.863 7.42116C436.143 7.54347 436.38 7.71648 436.574 7.9402C436.768 8.16094 436.916 8.42195 437.017 8.72322C437.119 9.02152 437.169 9.34517 437.169 9.69418V9.79709C437.169 10.1461 437.119 10.4697 437.017 10.768C436.916 11.0663 436.768 11.3273 436.574 11.5511C436.38 11.7718 436.145 11.9448 435.867 12.0701C435.59 12.1924 435.275 12.2536 434.923 12.2536C434.568 12.2536 434.251 12.1924 433.97 12.0701C433.693 11.9448 433.457 11.7718 433.263 11.5511C433.069 11.3273 432.922 11.0663 432.82 10.768C432.719 10.4697 432.668 10.1461 432.668 9.79709ZM433.746 9.69418V9.79709C433.746 10.0148 433.769 10.2207 433.814 10.4146C433.858 10.6085 433.928 10.7785 434.024 10.9246C434.119 11.0708 434.242 11.1857 434.391 11.2692C434.54 11.3527 434.717 11.3945 434.923 11.3945C435.123 11.3945 435.296 11.3527 435.442 11.2692C435.591 11.1857 435.714 11.0708 435.809 10.9246C435.905 10.7785 435.975 10.6085 436.019 10.4146C436.067 10.2207 436.091 10.0148 436.091 9.79709V9.69418C436.091 9.4794 436.067 9.27656 436.019 9.08565C435.975 8.89176 435.903 8.72024 435.805 8.57109C435.709 8.42195 435.587 8.30561 435.438 8.22209C435.292 8.13558 435.117 8.09233 434.914 8.09233C434.711 8.09233 434.535 8.13558 434.386 8.22209C434.24 8.30561 434.119 8.42195 434.024 8.57109C433.928 8.72024 433.858 8.89176 433.814 9.08565C433.769 9.27656 433.746 9.4794 433.746 9.69418ZM438.261 5.29134H439.339V11.1305L439.236 12.1641H438.261V5.29134ZM442.498 9.69865V9.79261C442.498 10.1506 442.458 10.4802 442.377 10.7815C442.3 11.0798 442.181 11.3393 442.019 11.56C441.861 11.7808 441.665 11.9523 441.429 12.0746C441.196 12.1939 440.926 12.2536 440.619 12.2536C440.318 12.2536 440.055 12.1969 439.831 12.0835C439.608 11.9702 439.42 11.8091 439.268 11.6003C439.119 11.3915 438.998 11.1424 438.905 10.8531C438.813 10.5637 438.747 10.2445 438.708 9.89553V9.59574C438.747 9.24375 438.813 8.92457 438.905 8.63821C438.998 8.34886 439.119 8.09979 439.268 7.89098C439.42 7.67919 439.606 7.51662 439.827 7.40327C440.051 7.28991 440.312 7.23324 440.61 7.23324C440.92 7.23324 441.193 7.2929 441.429 7.41222C441.667 7.53153 441.866 7.70156 442.024 7.9223C442.182 8.14006 442.3 8.39957 442.377 8.70085C442.458 9.00213 442.498 9.33473 442.498 9.69865ZM441.42 9.79261V9.69865C441.42 9.48089 441.402 9.27656 441.366 9.08565C441.33 8.89176 441.271 8.72173 441.187 8.57557C441.107 8.4294 440.996 8.31456 440.856 8.23104C440.719 8.14453 440.547 8.10128 440.342 8.10128C440.151 8.10128 439.987 8.13409 439.849 8.19972C439.712 8.26534 439.597 8.35483 439.505 8.46818C439.412 8.58153 439.339 8.71278 439.286 8.86193C439.235 9.01108 439.201 9.17216 439.183 9.34517V10.155C439.21 10.3788 439.266 10.5846 439.353 10.7725C439.442 10.9575 439.567 11.1066 439.729 11.22C439.89 11.3303 440.097 11.3855 440.351 11.3855C440.55 11.3855 440.719 11.3452 440.856 11.2647C440.993 11.1842 441.102 11.0723 441.183 10.9291C441.266 10.783 441.326 10.6129 441.362 10.419C441.401 10.2251 441.42 10.0163 441.42 9.79261ZM446.324 11.1931V8.8843C446.324 8.71129 446.292 8.56214 446.23 8.43686C446.167 8.31158 446.072 8.21463 445.943 8.14602C445.818 8.07741 445.66 8.04311 445.469 8.04311C445.293 8.04311 445.141 8.07294 445.013 8.1326C444.884 8.19226 444.785 8.2728 444.713 8.37422C444.641 8.47564 444.606 8.59048 444.606 8.71875H443.532C443.532 8.52784 443.578 8.3429 443.67 8.16392C443.763 7.98494 443.897 7.82536 444.073 7.68516C444.249 7.54496 444.459 7.43459 444.704 7.35405C444.949 7.27351 445.223 7.23324 445.527 7.23324C445.891 7.23324 446.213 7.29439 446.494 7.41669C446.777 7.53899 446.999 7.72393 447.16 7.97152C447.324 8.21612 447.407 8.52337 447.407 8.89325V11.0455C447.407 11.2662 447.421 11.4646 447.451 11.6406C447.484 11.8136 447.53 11.9642 447.59 12.0925V12.1641H446.485C446.434 12.0477 446.394 11.9001 446.364 11.7211C446.337 11.5391 446.324 11.3631 446.324 11.1931ZM446.48 9.21989L446.489 9.88658H445.715C445.515 9.88658 445.339 9.90597 445.187 9.94474C445.035 9.98054 444.908 10.0342 444.807 10.1058C444.705 10.1774 444.629 10.2639 444.579 10.3653C444.528 10.4668 444.503 10.5816 444.503 10.7099C444.503 10.8381 444.532 10.956 444.592 11.0634C444.652 11.1678 444.738 11.2498 444.852 11.3094C444.968 11.3691 445.108 11.3989 445.272 11.3989C445.493 11.3989 445.685 11.3542 445.849 11.2647C446.016 11.1722 446.148 11.0604 446.243 10.9291C446.339 10.7949 446.389 10.6681 446.395 10.5488L446.744 11.0276C446.709 11.1499 446.647 11.2811 446.561 11.4213C446.474 11.5615 446.361 11.6957 446.221 11.824C446.084 11.9493 445.918 12.0522 445.724 12.1327C445.533 12.2133 445.312 12.2536 445.062 12.2536C444.746 12.2536 444.464 12.1909 444.216 12.0656C443.969 11.9374 443.775 11.7658 443.635 11.5511C443.494 11.3333 443.424 11.0872 443.424 10.8128C443.424 10.5563 443.472 10.3295 443.567 10.1327C443.666 9.93281 443.809 9.76577 443.997 9.63153C444.188 9.4973 444.421 9.39588 444.695 9.32727C444.969 9.25568 445.283 9.21989 445.635 9.21989H446.48ZM449.872 5.29134V12.1641H448.789V5.29134H449.872ZM457.236 10.4862C457.236 10.3519 457.215 10.2326 457.174 10.1282C457.135 10.0238 457.065 9.92834 456.963 9.84183C456.862 9.75533 456.719 9.6718 456.534 9.59126C456.352 9.50774 456.119 9.42273 455.836 9.33622C455.526 9.24077 455.239 9.13487 454.977 9.01854C454.717 8.89922 454.491 8.762 454.297 8.60689C454.103 8.44879 453.952 8.26832 453.845 8.06548C453.737 7.85966 453.684 7.62251 453.684 7.35405C453.684 7.08857 453.739 6.84695 453.849 6.62919C453.963 6.41143 454.122 6.22351 454.328 6.06541C454.537 5.90433 454.783 5.78054 455.066 5.69403C455.35 5.60455 455.663 5.5598 456.006 5.5598C456.489 5.5598 456.905 5.64929 457.254 5.82827C457.606 6.00724 457.876 6.24737 458.064 6.54865C458.255 6.84993 458.35 7.18253 458.35 7.54645H457.236C457.236 7.33168 457.19 7.14226 457.098 6.9782C457.008 6.81115 456.871 6.6799 456.686 6.58445C456.504 6.48899 456.273 6.44126 455.992 6.44126C455.727 6.44126 455.506 6.48153 455.33 6.56207C455.154 6.64261 455.023 6.75149 454.936 6.88871C454.85 7.02592 454.807 7.18104 454.807 7.35405C454.807 7.47635 454.835 7.58821 454.892 7.68963C454.948 7.78807 455.035 7.88054 455.151 7.96705C455.268 8.05057 455.414 8.12962 455.59 8.20419C455.766 8.27876 455.973 8.35036 456.212 8.41896C456.573 8.52635 456.887 8.64567 457.156 8.77692C457.424 8.90518 457.648 9.05135 457.827 9.21541C458.006 9.37947 458.14 9.56591 458.23 9.77472C458.319 9.98054 458.364 10.2147 458.364 10.4772C458.364 10.7516 458.309 10.9992 458.198 11.22C458.088 11.4377 457.93 11.6241 457.724 11.7793C457.521 11.9314 457.277 12.0492 456.99 12.1327C456.707 12.2133 456.391 12.2536 456.042 12.2536C455.728 12.2536 455.42 12.2118 455.115 12.1283C454.814 12.0447 454.54 11.918 454.292 11.7479C454.045 11.5749 453.848 11.3602 453.702 11.1036C453.555 10.8441 453.482 10.5413 453.482 10.1953H454.605C454.605 10.4071 454.641 10.5876 454.713 10.7367C454.787 10.8859 454.89 11.0082 455.021 11.1036C455.153 11.1961 455.305 11.2647 455.478 11.3094C455.654 11.3542 455.842 11.3766 456.042 11.3766C456.304 11.3766 456.523 11.3393 456.699 11.2647C456.878 11.1901 457.013 11.0857 457.102 10.9515C457.192 10.8173 457.236 10.6621 457.236 10.4862ZM462.221 5.64929V12.1641H461.107V5.64929H462.221ZM464.265 5.64929V6.54418H459.08V5.64929H464.265ZM469.572 11.2737V12.1641H466.113V11.2737H469.572ZM466.431 5.64929V12.1641H465.308V5.64929H466.431ZM469.12 8.36974V9.24673H466.113V8.36974H469.12ZM469.55 5.64929V6.54418H466.113V5.64929H469.55ZM473.209 6.51733L471.263 12.1641H470.086L472.538 5.64929H473.29L473.209 6.51733ZM474.838 12.1641L472.887 6.51733L472.802 5.64929H473.559L476.019 12.1641H474.838ZM474.744 9.74787V10.6383H471.2V9.74787H474.744ZM477.388 5.64929H478.391L480.274 10.6741L482.154 5.64929H483.156L480.668 12.1641H479.872L477.388 5.64929ZM476.932 5.64929H477.885L478.051 9.99844V12.1641H476.932V5.64929ZM482.659 5.64929H483.617V12.1641H482.494V9.99844L482.659 5.64929ZM490.064 5.64929V12.1641H488.95V5.64929H490.064ZM492.109 5.64929V6.54418H486.923V5.64929H492.109ZM493.805 8.24446V12.1641H492.726V7.32273H493.755L493.805 8.24446ZM495.286 7.29141L495.277 8.29368C495.211 8.28175 495.139 8.2728 495.062 8.26683C494.987 8.26087 494.913 8.25788 494.838 8.25788C494.653 8.25788 494.491 8.28473 494.35 8.33842C494.21 8.38913 494.092 8.46371 493.997 8.56214C493.905 8.6576 493.833 8.77393 493.782 8.91115C493.732 9.04837 493.702 9.20199 493.693 9.37202L493.447 9.38991C493.447 9.08565 493.476 8.80376 493.536 8.54425C493.596 8.28473 493.685 8.05653 493.805 7.85966C493.927 7.66278 494.079 7.50916 494.261 7.39879C494.446 7.28842 494.659 7.23324 494.901 7.23324C494.966 7.23324 495.037 7.2392 495.111 7.25114C495.189 7.26307 495.247 7.27649 495.286 7.29141ZM498.713 11.1931V8.8843C498.713 8.71129 498.682 8.56214 498.619 8.43686C498.556 8.31158 498.461 8.21463 498.333 8.14602C498.207 8.07741 498.049 8.04311 497.858 8.04311C497.682 8.04311 497.53 8.07294 497.402 8.1326C497.274 8.19226 497.174 8.2728 497.102 8.37422C497.03 8.47564 496.995 8.59048 496.995 8.71875H495.921C495.921 8.52784 495.967 8.3429 496.06 8.16392C496.152 7.98494 496.286 7.82536 496.462 7.68516C496.638 7.54496 496.849 7.43459 497.093 7.35405C497.338 7.27351 497.612 7.23324 497.916 7.23324C498.28 7.23324 498.602 7.29439 498.883 7.41669C499.166 7.53899 499.388 7.72393 499.55 7.97152C499.714 8.21612 499.796 8.52337 499.796 8.89325V11.0455C499.796 11.2662 499.811 11.4646 499.84 11.6406C499.873 11.8136 499.919 11.9642 499.979 12.0925V12.1641H498.874C498.823 12.0477 498.783 11.9001 498.753 11.7211C498.726 11.5391 498.713 11.3631 498.713 11.1931ZM498.869 9.21989L498.878 9.88658H498.104C497.904 9.88658 497.728 9.90597 497.576 9.94474C497.424 9.98054 497.297 10.0342 497.196 10.1058C497.095 10.1774 497.019 10.2639 496.968 10.3653C496.917 10.4668 496.892 10.5816 496.892 10.7099C496.892 10.8381 496.922 10.956 496.981 11.0634C497.041 11.1678 497.127 11.2498 497.241 11.3094C497.357 11.3691 497.497 11.3989 497.661 11.3989C497.882 11.3989 498.075 11.3542 498.239 11.2647C498.406 11.1722 498.537 11.0604 498.632 10.9291C498.728 10.7949 498.778 10.6681 498.784 10.5488L499.133 11.0276C499.098 11.1499 499.037 11.2811 498.95 11.4213C498.863 11.5615 498.75 11.6957 498.61 11.824C498.473 11.9493 498.307 12.0522 498.113 12.1327C497.922 12.2133 497.702 12.2536 497.451 12.2536C497.135 12.2536 496.853 12.1909 496.605 12.0656C496.358 11.9374 496.164 11.7658 496.024 11.5511C495.884 11.3333 495.813 11.0872 495.813 10.8128C495.813 10.5563 495.861 10.3295 495.957 10.1327C496.055 9.93281 496.198 9.76577 496.386 9.63153C496.577 9.4973 496.81 9.39588 497.084 9.32727C497.359 9.25568 497.672 9.21989 498.024 9.21989H498.869ZM503.084 11.3945C503.26 11.3945 503.418 11.3602 503.558 11.2915C503.702 11.22 503.817 11.1215 503.903 10.9962C503.993 10.871 504.042 10.7263 504.051 10.5622H505.066C505.06 10.8754 504.968 11.1603 504.789 11.4168C504.61 11.6734 504.373 11.8777 504.078 12.0298C503.782 12.179 503.456 12.2536 503.098 12.2536C502.728 12.2536 502.406 12.1909 502.131 12.0656C501.857 11.9374 501.629 11.7614 501.447 11.5376C501.265 11.3139 501.127 11.0559 501.035 10.7636C500.945 10.4712 500.901 10.158 500.901 9.82393V9.66733C500.901 9.33324 500.945 9.02003 501.035 8.7277C501.127 8.43239 501.265 8.17287 501.447 7.94915C501.629 7.72543 501.857 7.55092 502.131 7.42564C502.406 7.29737 502.726 7.23324 503.093 7.23324C503.481 7.23324 503.821 7.3108 504.113 7.46591C504.406 7.61804 504.635 7.83132 504.802 8.10575C504.972 8.3772 505.06 8.69339 505.066 9.05433H504.051C504.042 8.87536 503.997 8.71428 503.916 8.57109C503.839 8.42493 503.729 8.30859 503.585 8.22209C503.445 8.13558 503.277 8.09233 503.08 8.09233C502.862 8.09233 502.682 8.13707 502.538 8.22656C502.395 8.31307 502.283 8.43239 502.203 8.58452C502.122 8.73366 502.064 8.9022 502.028 9.09013C501.995 9.27507 501.979 9.46747 501.979 9.66733V9.82393C501.979 10.0238 501.995 10.2177 502.028 10.4056C502.061 10.5935 502.118 10.7621 502.198 10.9112C502.282 11.0574 502.395 11.1752 502.538 11.2647C502.682 11.3512 502.863 11.3945 503.084 11.3945ZM507.165 5.29134V12.1641H506.082V5.29134H507.165ZM510.172 7.32273L508.064 9.65838L506.91 10.8396L506.628 9.92685L507.5 8.84851L508.869 7.32273H510.172ZM509.102 12.1641L507.532 9.89105L508.212 9.13487L510.351 12.1641H509.102Z" fill="white"/>
<defs>
<linearGradient id="paint0_linear_1543_17540" x1="-13.7004" y1="165.201" x2="512.7" y2="165.201" gradientUnits="userSpaceOnUse">
<stop stop-color="#970707"/>
<stop offset="1" stop-color="#020072"/>
</linearGradient>
</defs>
</svg>
