<svg width="1194" height="640" viewBox="0 0 1194 640" fill="none" xmlns="http://www.w3.org/2000/svg">
<g clip-path="url(#clip0_586_25869)">
<rect width="1194" height="640" fill="url(#paint0_radial_586_25869)"/>
<g opacity="0.4">
<path opacity="0.3" d="M-494.341 274.498C-515.597 353.636 -500.111 447.62 -445.323 508.56C-402.513 556.175 -335.869 572.796 -281.222 606.167C-199.65 655.989 -147.148 741.656 -74.0756 803.278C-17.3285 851.139 53.7604 884.409 127.956 886.489C202.161 888.573 278.808 856.482 321.503 795.76C363.31 736.288 369.541 657.331 411.446 597.93C469.116 516.172 584.57 484.904 629.382 395.448C668.815 316.736 634.874 214.241 565.306 160.299C495.738 106.358 399.601 95.8705 313.71 115.186C255.874 128.19 199.409 153.682 140.21 150.471C64.1017 146.35 -0.735953 96.039 -72.6021 70.6513C-163.911 38.3933 -269.232 48.4815 -352.757 97.4799C-436.279 146.468 -476.946 209.738 -494.341 274.498Z" fill="url(#paint1_linear_586_25869)"/>
<path opacity="0.6" d="M-506.656 292.727C-524.288 372.751 -504.541 465.932 -447.038 524.317C-402.106 569.934 -334.774 583.506 -278.665 614.356C-194.91 660.414 -138.565 743.603 -62.7643 801.836C-3.8981 847.066 68.631 877.066 142.844 875.768C217.068 874.473 292.174 838.928 332.062 776.326C371.12 715.013 373.752 635.855 412.911 574.608C466.8 490.311 580.712 453.822 621.407 362.419C657.217 281.994 618.648 181.15 546.698 130.43C474.747 79.7102 378.233 73.6079 293.309 96.812C236.125 112.434 180.878 140.469 121.595 139.955C45.3778 139.301 -21.682 91.9928 -94.6289 69.9015C-187.312 41.8317 -292.063 56.7018 -373.273 109.45C-454.48 162.188 -492.225 227.243 -506.656 292.727Z" fill="url(#paint2_linear_586_25869)"/>
<g style="mix-blend-mode:overlay" opacity="0.8">
<path d="M-470.677 395.842C-479.015 477.36 -448.711 567.662 -384.891 619.066C-335.023 659.228 -266.579 664.988 -207.302 689.199C-118.817 725.348 -53.3023 801.525 28.6769 850.679C92.3422 888.859 167.834 910.343 241.408 900.542C314.993 890.742 385.528 846.817 417.972 780.054C449.74 714.666 443.275 635.728 475.151 570.394C519.017 480.473 627.992 431.159 657.935 335.692C684.284 251.691 634.404 155.935 557.111 113.802C479.817 71.6696 383.24 76.6773 301.539 109.468C246.523 131.547 194.857 165.732 135.906 172.022C60.1166 180.114 -11.9267 140.809 -86.926 127.23C-182.216 109.975 -284.571 136.762 -359.195 198.476C-433.817 260.181 -463.852 329.135 -470.677 395.842Z" fill="url(#paint3_linear_586_25869)"/>
</g>
<g style="mix-blend-mode:overlay">
<path d="M-470.677 395.842C-479.015 477.36 -448.711 567.662 -384.891 619.066C-335.023 659.228 -266.579 664.988 -207.302 689.199C-118.817 725.348 -53.3023 801.525 28.6769 850.679C92.3422 888.859 167.834 910.343 241.408 900.542C314.993 890.742 385.528 846.817 417.972 780.054C449.74 714.666 443.275 635.728 475.151 570.394C519.017 480.473 627.992 431.159 657.935 335.692C684.284 251.691 634.404 155.935 557.111 113.802C479.817 71.6696 383.24 76.6773 301.539 109.468C246.523 131.547 194.857 165.732 135.906 172.022C60.1166 180.114 -11.9267 140.809 -86.926 127.23C-182.216 109.975 -284.571 136.762 -359.195 198.476C-433.817 260.181 -463.852 329.135 -470.677 395.842Z" fill="url(#paint4_linear_586_25869)"/>
</g>
<g style="mix-blend-mode:overlay">
<path d="M-515.983 273.305C-536.862 352.543 -520.93 446.453 -465.854 507.132C-422.818 554.543 -356.095 570.847 -301.29 603.958C-219.482 653.392 -166.574 738.808 -93.2097 800.082C-36.2359 847.673 35.0103 880.605 109.215 882.332C183.429 884.064 259.922 851.609 302.328 790.685C343.853 731.015 349.708 652.029 391.331 592.429C448.611 510.399 563.915 478.582 608.302 388.914C647.36 310.015 612.933 207.683 543.109 154.073C473.286 100.463 377.1 90.4319 291.302 110.156C233.528 123.434 177.185 149.194 117.972 146.265C41.8444 142.505 -23.2315 92.5028 -95.2175 67.4568C-186.679 35.6331 -291.95 46.2217 -375.242 95.6165C-458.53 145.001 -498.896 208.463 -515.983 273.305Z" fill="url(#paint5_linear_586_25869)"/>
</g>
</g>
<g opacity="0.5">
<path opacity="0.3" d="M996.133 934.352C1077.03 890.505 1157.99 843.399 1218.59 777.974C1279.19 712.54 1317.29 625.178 1298.65 543.087C1285.88 486.832 1248.03 438.078 1203.73 397.469C1156.89 354.537 1097.22 317.373 1029.64 316.774C984.541 316.377 940.831 332.305 895.917 337.347C805.758 347.471 718.798 313.561 629.834 300.101C601.761 295.854 572.537 293.686 544.776 300.476C479.644 316.398 439.223 376.947 421.417 435.688C370.779 602.798 450.87 782.099 581.787 904.337C605.933 926.884 632.032 948.141 662.439 963.417C786.691 1025.83 940.59 964.47 996.123 934.364L996.133 934.352Z" fill="url(#paint6_linear_586_25869)"/>
<path opacity="0.3" d="M1029.37 915.535C1108.35 868.861 1187.24 818.933 1244.98 751.448C1302.7 683.956 1336.96 595.382 1314.7 514.107C1299.44 458.411 1259.43 411.104 1213.33 372.159C1164.59 330.985 1103.27 296.031 1035.65 297.86C990.522 299.083 947.505 316.552 902.804 323.198C813.073 336.542 724.599 305.815 635.024 295.574C606.757 292.343 577.432 291.228 549.964 299.003C485.521 317.235 447.761 379.127 432.541 438.403C389.262 607.032 477.275 783.135 613.609 900.454C638.755 922.093 665.796 942.374 696.883 956.531C823.913 1014.37 975.138 947.593 1029.36 915.547L1029.37 915.535Z" fill="url(#paint7_linear_586_25869)"/>
<g style="mix-blend-mode:overlay">
<path d="M1023.45 914.891C1102.43 868.218 1181.32 818.289 1239.06 750.805C1296.78 683.312 1331.04 594.738 1308.78 513.463C1293.52 457.767 1253.51 410.46 1207.41 371.515C1158.67 330.342 1097.35 295.387 1029.73 297.216C984.604 298.44 941.587 315.909 896.886 322.555C807.155 335.898 718.681 305.172 629.106 294.93C600.839 291.7 571.514 290.584 544.046 298.359C479.603 316.592 441.843 378.484 426.623 437.759C383.344 606.389 471.357 782.492 607.691 899.81C632.837 921.45 659.878 941.731 690.965 955.888C817.995 1013.73 969.22 946.95 1023.44 914.904L1023.45 914.891Z" fill="url(#paint8_linear_586_25869)"/>
</g>
<g style="mix-blend-mode:overlay">
<path d="M1023.45 914.891C1102.43 868.218 1181.32 818.289 1239.06 750.805C1296.78 683.312 1331.04 594.738 1308.78 513.463C1293.52 457.767 1253.51 410.46 1207.41 371.515C1158.67 330.342 1097.35 295.387 1029.73 297.216C984.602 298.44 941.585 315.909 896.884 322.555C807.153 335.898 718.679 305.172 629.104 294.93C600.837 291.7 571.512 290.584 544.044 298.359C479.601 316.592 441.841 378.484 426.621 437.759C383.342 606.389 471.355 782.492 607.689 899.81C632.835 921.45 659.876 941.731 690.963 955.888C817.993 1013.73 969.218 946.95 1023.44 914.904L1023.45 914.891Z" fill="url(#paint9_linear_586_25869)"/>
</g>
<g style="mix-blend-mode:overlay">
<path d="M1008.46 915.573C1087.44 868.899 1166.33 818.971 1224.07 751.487C1281.79 683.994 1316.05 595.42 1293.79 514.145C1278.53 458.449 1238.52 411.142 1192.42 372.197C1143.68 331.024 1082.36 296.069 1014.74 297.898C969.612 299.121 926.595 316.59 881.893 323.236C792.163 336.58 703.689 305.853 614.113 295.612C585.847 292.381 556.522 291.266 529.054 299.041C464.611 317.273 426.851 379.165 411.631 438.441C368.351 607.07 456.365 783.174 592.699 900.492C617.845 922.131 644.886 942.412 675.973 956.569C803.003 1014.41 954.228 947.631 1008.45 915.585L1008.46 915.573Z" fill="url(#paint10_linear_586_25869)"/>
</g>
</g>
<g opacity="0.5">
<path opacity="0.3" d="M650.517 375.063C490.925 326.133 432.029 188.219 448.175 46.7466C454.738 -10.6792 482.006 -156.768 513.012 -211.547C632.438 -422.6 715.442 -558.654 875.49 -754.88C942.958 -837.606 1045.19 -877.268 1100.28 -890.786C1164.41 -906.506 1220.93 -905.296 1274.11 -890.757C1355.88 -868.428 1400.41 -801.344 1424.99 -733.895C1449.57 -666.446 1460.73 -593.333 1503.07 -533.669C1610.61 -382.172 1902.67 -335.707 1918.99 -152.622C1931.32 -14.3502 1765.55 116.569 1598.02 174.797C1430.49 233.024 1250.56 245.971 1082.86 303.737C1003.79 330.959 927.566 368.096 845.88 384.779C764.173 401.468 676.413 382.989 650.512 375.046L650.517 375.063Z" fill="url(#paint11_linear_586_25869)"/>
<path opacity="0.6" d="M666.769 388.769C507.177 339.839 448.281 201.925 464.427 60.4527C470.99 3.02685 498.258 -143.062 529.264 -197.841C648.69 -408.894 731.694 -544.948 891.742 -741.173C959.21 -823.9 1061.44 -863.562 1116.54 -877.08C1180.66 -892.8 1237.18 -891.59 1290.37 -877.051C1372.13 -854.722 1416.66 -787.638 1441.24 -720.189C1465.82 -652.74 1476.98 -579.627 1519.33 -519.963C1626.86 -368.466 1918.92 -322 1935.24 -138.916C1947.57 -0.64414 1781.8 130.275 1614.27 188.503C1446.74 246.73 1266.81 259.677 1099.11 317.443C1020.04 344.665 943.818 381.802 862.132 398.485C780.425 415.174 692.665 396.695 666.764 388.752L666.769 388.769Z" fill="url(#paint12_linear_586_25869)"/>
<g style="mix-blend-mode:overlay" opacity="0.7">
<path d="M683.878 395.027C524.286 346.097 465.39 208.182 481.537 66.7105C488.1 9.28466 515.367 -136.804 546.373 -191.583C665.799 -402.636 748.804 -538.69 908.852 -734.916C976.32 -817.642 1078.55 -857.304 1133.65 -870.822C1197.77 -886.542 1254.29 -885.332 1307.48 -870.793C1389.24 -848.464 1433.77 -781.38 1458.35 -713.931C1482.93 -646.482 1494.09 -573.369 1536.43 -513.705C1643.97 -362.209 1936.03 -315.743 1952.35 -132.659C1964.68 5.61367 1798.91 136.533 1631.38 194.761C1463.85 252.988 1283.92 265.935 1116.22 323.7C1037.15 350.922 960.927 388.06 879.242 404.743C797.535 421.432 709.774 402.953 683.873 395.01L683.878 395.027Z" fill="url(#paint13_linear_586_25869)"/>
</g>
<g style="mix-blend-mode:overlay">
<path d="M683.878 395.027C524.286 346.097 465.39 208.182 481.537 66.7105C488.1 9.28466 515.367 -136.804 546.373 -191.583C665.799 -402.636 748.804 -538.69 908.852 -734.916C976.32 -817.642 1078.55 -857.304 1133.65 -870.822C1197.77 -886.542 1254.29 -885.332 1307.48 -870.793C1389.24 -848.464 1433.77 -781.38 1458.35 -713.931C1482.93 -646.482 1494.09 -573.369 1536.43 -513.705C1643.97 -362.209 1936.03 -315.743 1952.35 -132.659C1964.68 5.61367 1798.91 136.533 1631.38 194.761C1463.85 252.988 1283.92 265.935 1116.22 323.7C1037.15 350.922 960.927 388.06 879.242 404.743C797.535 421.432 709.774 402.953 683.873 395.01L683.878 395.027Z" fill="url(#paint14_linear_586_25869)"/>
</g>
<g style="mix-blend-mode:overlay">
<path d="M677.509 392.492C517.917 343.562 459.021 205.648 475.167 64.1763C481.731 6.75048 508.998 -139.339 540.004 -194.117C659.43 -405.17 742.435 -541.224 902.482 -737.45C969.951 -820.176 1072.18 -859.838 1127.28 -873.356C1191.4 -889.076 1247.92 -887.866 1301.11 -873.327C1382.87 -850.998 1427.4 -783.914 1451.98 -716.465C1476.56 -649.016 1487.72 -575.904 1530.07 -516.239C1637.6 -364.743 1929.66 -318.277 1945.98 -135.193C1958.31 3.07949 1792.55 133.999 1625.01 192.226C1457.48 250.454 1277.55 263.401 1109.85 321.166C1030.78 348.388 954.558 385.526 872.873 402.209C791.165 418.898 703.405 400.419 677.504 392.476L677.509 392.492Z" fill="url(#paint15_linear_586_25869)"/>
</g>
</g>
<path d="M632.413 266.554C472.095 220.055 411.11 83.0521 425.104 -58.6489C430.794 -116.168 455.837 -262.654 486.007 -317.898C602.211 -530.742 683.138 -668.042 840.185 -866.677C906.388 -950.42 1008.01 -991.631 1062.89 -1005.98C1126.76 -1022.68 1183.3 -1022.33 1236.7 -1008.6C1318.79 -987.515 1364.34 -921.115 1389.94 -854.047C1415.54 -786.98 1427.81 -714.045 1471.06 -655.031C1580.88 -505.187 1873.62 -463.166 1892.72 -280.351C1907.15 -142.282 1743.39 -8.85812 1576.76 51.9092C1410.14 112.677 1230.42 128.357 1063.62 188.664C984.974 217.085 909.324 255.377 827.901 273.299C746.457 291.229 658.426 274.086 632.407 266.537L632.413 266.554Z" stroke="url(#paint16_linear_586_25869)" stroke-width="2" stroke-miterlimit="10" stroke-linecap="round"/>
<circle cx="880.127" cy="252.126" r="44" transform="rotate(-80.3514 880.127 252.126)" fill="#FF8B00"/>
<path d="M871.522 238.103C871.77 238.296 872.015 238.279 872.221 238.064L873.154 237.084C873.36 236.869 873.36 236.619 873.145 236.412C871.611 235.095 869.259 234.655 866.96 235.546C863.066 237.055 862.083 241.046 863.462 244.604C864.847 248.179 868.164 250.562 872.142 249.02C874.475 248.116 875.955 246.307 876.147 243.762C876.167 243.465 875.988 243.303 875.691 243.283L874.31 243.258C874.013 243.238 873.851 243.416 873.831 243.714C873.698 245.213 873.036 246.396 871.475 247.001C868.555 248.132 866.6 245.628 865.891 243.798C865.098 241.75 864.724 238.594 867.838 237.465C869.318 236.949 870.451 237.282 871.522 238.103ZM879.296 245.341C879.407 245.626 879.616 245.719 879.902 245.608L881.245 245.088C881.53 244.977 881.622 244.768 881.512 244.482L879.463 239.195L886.391 242.727C886.647 242.84 886.968 242.87 887.236 242.766L889.267 241.979C889.536 241.875 889.534 241.721 889.278 241.608L881.112 237.572L883.928 229.744C884.028 229.454 883.932 229.356 883.647 229.467L881.784 230.189C881.498 230.299 881.292 230.514 881.192 230.804L878.839 237.584L876.901 232.583C876.79 232.297 876.581 232.205 876.295 232.315L874.953 232.836C874.667 232.946 874.575 233.156 874.685 233.441L879.296 245.341ZM869.183 274.998C869.293 275.284 869.503 275.376 869.788 275.266L871.232 274.706C871.517 274.596 871.61 274.386 871.499 274.101L867.447 263.644L870.67 262.396C870.955 262.285 871.048 262.076 870.937 261.79L870.547 260.783C870.436 260.498 870.227 260.405 869.941 260.516L861.197 263.904C860.912 264.015 860.819 264.224 860.93 264.51L861.32 265.517C861.43 265.802 861.64 265.895 861.925 265.784L865.131 264.542L869.183 274.998ZM875.984 262.769C875.874 262.484 875.664 262.391 875.379 262.502L874.103 262.996C873.818 263.106 873.725 263.316 873.836 263.601L877.081 271.977C877.192 272.262 877.401 272.354 877.687 272.244L878.962 271.75C879.248 271.639 879.34 271.429 879.23 271.144L875.984 262.769ZM874.974 259.415C874.682 258.66 873.86 258.283 873.105 258.576C872.366 258.862 871.996 259.7 872.289 260.456C872.582 261.211 873.413 261.564 874.152 261.278C874.907 260.986 875.267 260.17 874.974 259.415ZM881.696 270.188C881.806 270.474 882.016 270.566 882.301 270.456L883.577 269.961C883.862 269.851 883.955 269.641 883.844 269.356L881.939 264.438C881.594 263.549 881.29 261.717 882.901 261.093C884.26 260.566 884.849 261.786 885.142 262.541L887.268 268.029C887.379 268.315 887.588 268.407 887.874 268.297L889.149 267.802C889.435 267.692 889.527 267.482 889.417 267.197L887.446 262.111C887.101 261.222 886.896 259.545 888.49 258.927C889.883 258.387 890.488 259.6 890.781 260.356L892.908 265.844C893.018 266.129 893.228 266.222 893.513 266.111L894.789 265.617C895.074 265.507 895.167 265.297 895.056 265.012L892.721 258.986C892.181 257.593 890.695 255.949 888.329 256.866C886.902 257.419 886.264 258.264 885.941 259.374C885.149 258.774 884.149 258.485 882.874 258.98C881.615 259.467 880.9 260.362 880.685 261.353C880.601 261.135 880.506 260.94 880.411 260.745C880.284 260.466 880.057 260.38 879.772 260.49L878.547 260.965C878.261 261.076 878.186 261.279 878.313 261.558C878.479 261.937 878.646 262.317 878.802 262.72L881.696 270.188ZM904.513 257.139C904.781 257.035 904.894 256.779 904.797 256.527C903.711 253.724 901.124 252.082 898.019 253.285C895.082 254.423 893.949 257.178 895.1 260.149C896.18 262.935 898.801 264.468 902.023 263.219C903.836 262.517 905.048 261.063 905.366 259.492C905.416 259.221 905.247 259.036 904.95 259.016L903.934 258.985C903.654 258.958 903.485 259.12 903.415 259.437C903.237 260.124 902.635 261.013 901.343 261.514C899.547 262.21 898.094 261.248 897.497 259.858L904.513 257.139ZM896.889 258.24C896.575 257.03 897.058 255.588 898.619 254.983C900.214 254.365 901.484 254.954 902.119 256.194L896.889 258.24Z" fill="white"/>
<circle cx="444.032" cy="101.031" r="5" transform="rotate(-0.308686 444.032 101.031)" fill="#FF8B00" stroke="#FF8B00" stroke-width="2"/>
<path d="M1024.73 165.814C1027.64 161.511 1033 159.575 1037.99 161.019L1066.41 169.237C1071.41 170.681 1074.91 175.177 1075.08 180.373L1076.04 209.943C1076.21 215.138 1073.02 219.853 1068.13 221.62L1040.3 231.677C1035.41 233.444 1029.94 231.862 1026.75 227.759L1008.59 204.404C1005.4 200.301 1005.21 194.609 1008.13 190.305L1024.73 165.814Z" fill="#FF8B00"/>
<path d="M1035.71 182.979C1035.95 183.178 1036.2 183.166 1036.41 182.956L1037.36 181.998C1037.58 181.788 1037.58 181.537 1037.37 181.326C1035.87 179.974 1033.53 179.481 1031.21 180.319C1027.28 181.739 1026.21 185.706 1027.5 189.294C1028.81 192.9 1032.07 195.358 1036.08 193.908C1038.43 193.057 1039.95 191.282 1040.2 188.742C1040.23 188.445 1040.06 188.279 1039.76 188.252L1038.38 188.196C1038.08 188.169 1037.92 188.344 1037.89 188.641C1037.72 190.137 1037.03 191.304 1035.46 191.873C1032.51 192.938 1030.62 190.389 1029.95 188.544C1029.2 186.479 1028.9 183.315 1032.04 182.257C1033.53 181.775 1034.66 182.134 1035.71 182.979ZM1043.32 190.392C1043.42 190.68 1043.63 190.777 1043.92 190.673L1045.27 190.184C1045.56 190.08 1045.66 189.873 1045.55 189.585L1043.62 184.252L1050.47 187.941C1050.72 188.06 1051.04 188.097 1051.31 188L1053.36 187.259C1053.63 187.161 1053.63 187.007 1053.38 186.889L1045.31 182.667L1048.3 174.905C1048.41 174.618 1048.32 174.518 1048.03 174.622L1046.15 175.301C1045.86 175.405 1045.65 175.615 1045.54 175.903L1043.04 182.627L1041.21 177.583C1041.11 177.295 1040.9 177.198 1040.61 177.302L1039.26 177.791C1038.97 177.895 1038.87 178.103 1038.98 178.39L1043.32 190.392ZM1035.99 206.271C1036.23 206.47 1036.48 206.458 1036.69 206.248L1037.64 205.29C1037.85 205.08 1037.86 204.829 1037.65 204.618C1036.15 203.266 1033.81 202.773 1031.49 203.611C1027.56 205.031 1026.49 208.998 1027.78 212.587C1029.09 216.192 1032.35 218.65 1036.36 217.2C1038.71 216.349 1040.23 214.574 1040.48 212.034C1040.51 211.738 1040.34 211.571 1040.04 211.544L1038.66 211.488C1038.36 211.461 1038.2 211.636 1038.17 211.933C1038 213.429 1037.31 214.596 1035.74 215.166C1032.79 216.23 1030.9 213.681 1030.23 211.836C1029.48 209.771 1029.18 206.607 1032.32 205.549C1033.81 205.067 1034.94 205.426 1035.99 206.271ZM1041.06 200.686C1040.96 200.399 1040.75 200.301 1040.46 200.405L1039.17 200.87C1038.89 200.974 1038.79 201.182 1038.89 201.47L1043.35 213.81C1043.46 214.098 1043.67 214.195 1043.95 214.091L1045.24 213.626C1045.53 213.522 1045.63 213.315 1045.52 213.027L1041.06 200.686ZM1055.66 209.859C1055.92 209.767 1056.02 209.537 1055.91 209.272C1055.75 208.889 1055.61 208.556 1055.48 208.201L1052.73 200.583C1052.63 200.296 1052.42 200.198 1052.13 200.302L1050.84 200.767C1050.56 200.871 1050.46 201.079 1050.56 201.366L1052.26 206.073C1052.84 207.664 1052.64 209.229 1051.23 209.737C1050.05 210.165 1049.19 209.651 1048.66 208.179L1046.7 202.762C1046.6 202.474 1046.39 202.377 1046.1 202.481L1044.82 202.946C1044.53 203.05 1044.43 203.257 1044.54 203.545L1046.72 209.588C1047.45 211.603 1049.08 212.564 1051.2 211.799C1052.28 211.407 1053.2 210.502 1053.51 209.452C1053.58 209.655 1053.67 209.852 1053.76 210.049C1053.9 210.325 1054.12 210.416 1054.41 210.312L1055.66 209.859ZM1055.84 195.344C1055.74 195.057 1055.53 194.959 1055.24 195.063L1053.95 195.528C1053.67 195.632 1053.57 195.84 1053.67 196.128L1057.65 207.131C1057.82 207.588 1057.95 208.017 1058.1 208.48C1058.2 208.768 1058.39 208.872 1058.68 208.768L1059.93 208.315C1060.21 208.217 1060.32 207.963 1060.25 207.703C1060.22 207.562 1060.16 207.41 1060.12 207.291L1060.25 207.242C1061.04 207.723 1062.43 207.814 1063.47 207.44C1066.63 206.296 1067.36 203.391 1066.41 200.75C1065.53 198.313 1063.17 196.254 1059.94 197.422C1058.67 197.881 1057.82 198.819 1057.51 199.601L1057.39 199.644L1055.84 195.344ZM1064.22 201.523C1064.73 202.945 1064.72 204.978 1062.64 205.73C1060.64 206.452 1059.25 205.058 1058.7 203.517C1058.05 201.723 1058.49 199.935 1060.31 199.281C1062.1 198.632 1063.56 199.695 1064.22 201.523Z" fill="white"/>
<circle cx="1109" cy="174" r="6" fill="white" stroke="#FEAC49" stroke-width="2"/>
<path d="M459.154 842.092C488.167 873.857 528.759 892.95 570.233 904.423C723.798 946.923 840.137 890.315 933.363 761.096C957.685 727.39 994.981 679.788 1047.44 663.721C1067.54 657.567 1137.75 657.491 1157.79 651.171C1232.27 627.692 1263.13 532.464 1230.49 461.52C1205.3 406.752 1126.52 364.601 1066.67 357.442C1006.82 350.283 961.603 373.203 901.778 365.893C794.184 352.725 615.188 279.79 512.837 315.474C433.619 343.097 385.874 441.184 385.362 637.57C385.131 726.599 412.818 791.343 459.156 842.08L459.154 842.092Z" stroke="url(#paint17_linear_586_25869)" stroke-width="2" stroke-miterlimit="10" stroke-linecap="round"/>
<path d="M1096.2 361.366C1096.51 364.274 1094.41 366.884 1091.5 367.197C1088.59 367.509 1085.98 365.405 1085.67 362.498C1085.36 359.59 1087.46 356.98 1090.37 356.667C1093.28 356.355 1095.89 358.458 1096.2 361.366Z" fill="#E85298" stroke="#E85298" stroke-width="2"/>
<path d="M398.435 523.58C398.807 527.037 396.306 530.14 392.849 530.512C389.393 530.884 386.289 528.383 385.917 524.926C385.546 521.469 388.047 518.366 391.504 517.994C394.96 517.623 398.064 520.124 398.435 523.58Z" fill="white" stroke="url(#paint18_linear_586_25869)" stroke-width="2" stroke-miterlimit="10" stroke-linecap="round"/>
<path d="M827.082 341.159C833.88 347.414 831.357 358.682 822.541 361.442L778.969 375.081C770.153 377.84 761.656 370.022 763.674 361.007L773.648 316.453C775.666 307.438 786.686 303.989 793.484 310.244L827.082 341.159Z" fill="#E85298"/>
<path d="M793.554 336.499L791.324 335.851L784.448 345.587L783.857 333.682L781.627 333.034L782.497 347.72L784.952 348.433L793.554 336.499ZM793.62 350.951L797.486 337.641L795.343 337.018L791.477 350.328L793.62 350.951ZM808.301 345.131C809.139 342.244 807.582 340.573 804.972 339.815L800.304 338.459L796.438 351.769L798.582 352.392L800.118 347.102L802.642 347.835C805.252 348.594 807.462 348.017 808.301 345.131ZM806.158 344.508C805.625 346.34 804.132 346.319 802.524 345.852L800.64 345.305L801.926 340.88L803.81 341.427C805.417 341.894 806.69 342.676 806.158 344.508Z" fill="white"/>
<rect x="932.559" y="305.037" width="115.409" height="115.409" rx="57.7046" transform="rotate(-7.20819 932.559 305.037)" fill="#E85298"/>
<path d="M984.027 351.353L982.288 337.603L979.092 338.007L976.607 350.06L971.199 339.005L968.002 339.409L969.741 353.16L971.92 352.884L970.531 341.902L975.623 352.325L978.123 352.009L980.46 340.646L981.849 351.629L984.027 351.353ZM995.678 347.648L993.556 347.082C993.203 348.015 992.487 348.668 991.237 348.826C989.63 349.03 988.407 348.114 987.925 346.596L995.979 345.578C995.96 345.29 995.924 345.004 995.895 344.772C995.488 341.558 993.193 339.761 990.139 340.148C987.05 340.538 985.131 342.867 985.537 346.082C985.944 349.296 988.382 351.074 991.472 350.684C993.757 350.395 995.031 349.272 995.678 347.648ZM990.374 342.005C991.856 341.817 993.009 342.615 993.422 344.014L987.743 344.732C987.904 343.279 988.856 342.197 990.374 342.005ZM1008.34 348.187L1006.57 334.169L1004.35 334.449L1005 339.592C1004.13 338.868 1002.91 338.532 1001.5 338.711C998.82 339.05 996.952 341.354 997.361 344.586C997.77 347.819 1000.15 349.586 1002.83 349.247C1004.24 349.069 1005.34 348.44 1006.02 347.501L1006.18 348.461L1008.34 348.187ZM1005.49 343.559C1005.78 345.88 1004.47 347.153 1002.88 347.354C1001.4 347.541 999.862 346.574 999.575 344.306C999.289 342.038 1000.54 340.719 1002.02 340.532C1003.61 340.331 1005.19 341.237 1005.49 343.559ZM1013.41 347.637L1012.15 337.636L1009.93 337.916L1011.2 347.917L1013.41 347.637ZM1012.08 334.488C1011.98 333.703 1011.25 333.141 1010.47 333.24C1009.68 333.34 1009.12 334.064 1009.22 334.85C1009.32 335.635 1010.04 336.197 1010.83 336.098C1011.61 335.998 1012.18 335.274 1012.08 334.488ZM1024.87 346.006L1024.08 339.81C1023.71 336.881 1021.19 336.293 1019.27 336.463C1017.66 336.613 1016.19 337.18 1014.89 338.722L1016.34 339.973C1017.2 339.029 1018.27 338.423 1019.36 338.338C1020.42 338.259 1021.67 338.482 1021.89 340.25L1021.92 340.5C1018.87 339.871 1014.95 341.073 1015.37 344.377C1015.64 346.484 1017.25 347.424 1019.73 347.11C1021.03 346.945 1022.05 346.381 1022.7 345.536L1022.83 346.264L1024.87 346.006ZM1019.87 345.241C1018.75 345.383 1017.72 345.168 1017.59 344.115C1017.37 342.365 1019.49 341.915 1022.14 342.197L1022.25 343.126C1022.38 344.161 1021.23 345.069 1019.87 345.241ZM972.618 371.578L970.46 371.017C969.985 372.71 968.892 373.828 967.196 374.042C964.571 374.374 962.434 372.395 962.045 369.323C961.657 366.252 963.234 363.802 965.859 363.47C967.555 363.256 968.889 364.049 969.762 365.499L971.712 364.418C970.304 362.182 968.231 361.284 965.624 361.613C961.713 362.108 959.307 365.46 959.831 369.603C960.355 373.746 963.52 376.394 967.431 375.899C970.038 375.57 971.82 374.165 972.618 371.578ZM979.954 363.702C977.753 363.654 976.687 364.405 976.061 365.482L975.899 364.487L973.738 364.76L974.991 374.671L977.206 374.391L976.483 368.677C976.241 366.766 977.635 365.737 979.859 365.818L979.954 363.702ZM991.097 370.403L988.975 369.836C988.621 370.77 987.905 371.423 986.655 371.581C985.048 371.784 983.826 370.869 983.343 369.351L991.397 368.332C991.379 368.044 991.343 367.759 991.313 367.527C990.907 364.312 988.611 362.516 985.558 362.902C982.468 363.293 980.549 365.622 980.956 368.837C981.362 372.051 983.801 373.829 986.89 373.438C989.176 373.149 990.449 372.027 991.097 370.403ZM985.793 364.759C987.275 364.572 988.428 365.37 988.841 366.769L983.162 367.487C983.323 366.033 984.275 364.951 985.793 364.759ZM1002.57 371.002L1001.78 364.805C1001.41 361.877 998.89 361.289 996.971 361.459C995.357 361.609 993.886 362.175 992.594 363.718L994.04 364.968C994.9 364.025 995.967 363.418 997.063 363.334C998.123 363.254 999.367 363.478 999.591 365.246L999.622 365.496C996.567 364.866 992.655 366.069 993.073 369.372C993.339 371.48 994.946 372.419 997.428 372.106C998.732 371.941 999.749 371.377 1000.4 370.532L1000.53 371.259L1002.57 371.002ZM997.573 370.237C996.448 370.379 995.423 370.164 995.289 369.11C995.068 367.36 997.188 366.911 999.837 367.193L999.954 368.121C1000.09 369.157 998.93 370.065 997.573 370.237ZM1010.59 370.205L1010.16 368.373C1009.79 368.51 1009.41 368.613 1009.08 368.654C1008.28 368.755 1007.9 368.459 1007.78 367.548L1007.12 362.334L1009.43 362.042L1009.19 360.185L1006.89 360.477L1006.47 357.191L1004.26 357.471L1004.67 360.757L1002.76 360.998L1003 362.856L1004.91 362.614L1005.63 368.293C1005.85 370.061 1007.02 370.802 1008.94 370.558C1009.53 370.484 1010.12 370.356 1010.59 370.205ZM1015 369.61L1013.74 359.61L1011.53 359.89L1012.79 369.891L1015 369.61ZM1013.67 356.462C1013.57 355.676 1012.84 355.115 1012.06 355.214C1011.27 355.314 1010.71 356.038 1010.81 356.824C1010.91 357.609 1011.63 358.171 1012.42 358.072C1013.21 357.972 1013.77 357.248 1013.67 356.462ZM1027.21 362.987C1026.8 359.773 1024.36 357.994 1021.27 358.385C1018.18 358.776 1016.26 361.105 1016.67 364.319C1017.08 367.534 1019.52 369.312 1022.61 368.921C1025.7 368.531 1027.61 366.201 1027.21 362.987ZM1024.99 363.267C1025.24 365.249 1024.23 366.829 1022.37 367.064C1020.51 367.299 1019.14 366.022 1018.89 364.039C1018.64 362.057 1019.65 360.477 1021.51 360.242C1023.37 360.007 1024.74 361.285 1024.99 363.267ZM1038.91 366.587L1038.13 360.444C1037.79 357.694 1035.95 356.384 1033.45 356.863C1032.28 357.083 1031.4 357.667 1030.87 358.387L1030.73 357.552L1028.55 357.828L1029.8 367.739L1032.02 367.459L1031.31 361.869C1031.11 360.298 1032 359.006 1033.51 358.725C1035.03 358.441 1035.74 359.313 1035.97 361.135L1036.7 366.867L1038.91 366.587Z" fill="white"/>
<rect x="444.82" y="316.815" width="100.721" height="54.557" rx="27.2785" transform="rotate(-24.9538 444.82 316.815)" fill="#E85298"/>
<path d="M478.368 337.321L474.116 328.182L472.092 329.123L476.345 338.262L478.368 337.321ZM473.088 325.205C472.754 324.487 471.893 324.173 471.175 324.507C470.457 324.841 470.143 325.702 470.477 326.42C470.811 327.138 471.672 327.453 472.39 327.118C473.108 326.784 473.422 325.923 473.088 325.205ZM486.271 327.052L485.466 325.322L478.612 328.511L479.417 330.241L486.271 327.052ZM496.778 318.073C495.51 315.347 493.238 315.114 490.773 316.261L486.367 318.311L492.214 330.878L494.238 329.936L491.914 324.942L494.297 323.833C496.761 322.687 498.047 320.798 496.778 318.073ZM494.755 319.014C495.56 320.744 494.421 321.711 492.903 322.417L491.125 323.245L489.181 319.067L490.959 318.239C492.477 317.533 493.95 317.285 494.755 319.014ZM510.662 322.293L509.872 320.596L504.063 323.3L499.005 312.431L496.981 313.372L502.829 325.939L510.662 322.293ZM522.903 316.597L512.421 306.188L510.104 307.266L511.316 321.989L513.421 321.009L513.064 317.126L518.057 314.802L520.798 317.577L522.903 316.597ZM512.318 308.995L516.647 313.393L512.878 315.148L512.318 308.995ZM527.43 299.204L525.194 300.244L524.59 307.394L518.732 303.251L516.496 304.292L524.467 309.775L526.798 314.785L528.822 313.843L526.491 308.833L527.43 299.204Z" fill="white"/>
<path d="M-486.697 321.207C-500.471 401.984 -476.279 494.111 -416.042 549.671C-368.973 593.081 -301.068 603.408 -243.545 631.531C-157.678 673.521 -97.4073 753.912 -18.9014 808.442C42.066 850.797 115.95 877.285 190.016 872.429C264.092 867.577 337.408 828.47 374.247 764.028C410.32 700.912 409.152 621.719 445.329 558.664C495.114 471.88 607.145 429.97 643.41 336.721C675.322 254.671 631.961 155.792 557.661 108.581C483.361 61.3703 386.665 59.9035 302.952 87.1536C246.583 105.5 192.744 136.152 133.504 138.482C57.3436 141.484 -11.9077 97.4457 -85.8301 78.878C-179.752 55.2853 -283.67 75.1618 -362.257 131.744C-440.841 188.316 -475.424 255.106 -486.697 321.207Z" stroke="url(#paint19_linear_586_25869)" stroke-width="2" stroke-miterlimit="10" stroke-linecap="round"/>
<circle cx="527.101" cy="93.0968" r="43" transform="rotate(22.4148 527.101 93.0968)" fill="url(#paint20_radial_586_25869)"/>
<path d="M532.288 78.4722C532.3 78.7869 532.471 78.9626 532.768 78.9821L534.118 79.0664C534.415 79.0859 534.607 78.9241 534.626 78.6268C534.648 76.6057 533.472 74.5222 531.31 73.3352C527.65 71.3251 523.963 73.1405 522.126 76.4854C520.28 79.846 520.591 83.9181 524.33 85.9715C526.523 87.1758 528.86 87.1451 530.932 85.6541C531.172 85.4781 531.181 85.2367 531.005 84.9963L530.137 83.9236C529.961 83.6832 529.719 83.6739 529.479 83.8499C528.245 84.7127 526.914 84.9675 525.447 84.1617C522.702 82.6542 523.361 79.5459 524.306 77.8261C525.363 75.9013 527.538 73.5845 530.407 75.2418C531.753 76.0429 532.227 77.1246 532.288 78.4722ZM531.75 89.0808C531.602 89.349 531.666 89.569 531.935 89.7163L533.197 90.4094C533.465 90.5567 533.685 90.4927 533.832 90.2245L536.561 85.2545L538.316 92.8302C538.394 93.099 538.577 93.3639 538.829 93.5025L540.739 94.5509C540.991 94.6895 541.108 94.5893 541.029 94.3204L538.865 85.4722L546.669 82.5911C546.956 82.4813 546.969 82.3448 546.701 82.1975L544.949 81.2358C544.681 81.0885 544.384 81.069 544.098 81.1788L537.393 83.7399L539.975 79.0381C540.122 78.7699 540.058 78.55 539.79 78.4027L538.528 77.7095C538.26 77.5622 538.04 77.6263 537.892 77.8945L531.75 89.0808ZM506.173 86.3756C506.274 85.6303 505.931 84.9081 505.284 84.5529C504.148 83.9291 503.04 84.265 502.442 85.3536L497.07 95.1358C496.923 95.404 496.987 95.624 497.255 95.7713L498.423 96.4124C498.691 96.5597 498.911 96.4957 499.058 96.2274L503.867 87.4709C503.979 87.2658 504.019 87.2673 503.986 87.5157L502.242 97.6472C502.173 97.9587 502.293 98.1889 502.562 98.3362L503.571 98.8907C503.84 99.038 504.098 99.0157 504.324 98.7908L511.906 91.8651C512.049 91.7175 512.096 91.7435 511.992 91.9329L507.184 100.689C507.036 100.958 507.1 101.178 507.368 101.325L508.568 101.983C508.836 102.131 509.056 102.067 509.203 101.798L514.575 92.0163C515.173 90.9277 514.845 89.8034 513.757 89.2055C513.078 88.833 512.285 88.9313 511.71 89.4167L504.574 95.8681L506.173 86.3756ZM517.948 103.397C518.847 103.891 519.654 103.841 520.2 103.258C520.218 103.227 520.251 103.204 520.293 103.165L519.553 107.503C519.485 107.814 519.605 108.045 519.873 108.192L521.309 108.98C521.562 109.119 521.734 109.029 521.785 108.749L523.723 96.0954C523.843 95.2783 523.455 94.49 522.713 94.0828C522.003 93.6929 521.129 93.7881 520.504 94.3279L510.836 102.736C510.627 102.929 510.643 103.123 510.896 103.262L512.347 104.059C512.616 104.206 512.858 104.175 513.116 103.968L515.328 101.959L517.948 103.397ZM521.246 96.6041C521.372 96.4881 521.435 96.5228 521.404 96.6908L520.437 102.341C520.227 102.349 520.012 102.292 519.775 102.162C518.908 101.686 517.875 101.098 516.944 100.587L516.881 100.552L521.246 96.6041ZM525.265 110.619C525.118 110.887 525.182 111.107 525.45 111.254L526.807 112C527.075 112.147 527.295 112.083 527.443 111.815L532.84 101.985L535.87 103.649C536.138 103.796 536.358 103.732 536.505 103.464L537.025 102.517C537.172 102.249 537.108 102.029 536.84 101.882L528.62 97.3675C528.352 97.2202 528.132 97.2842 527.984 97.5525L527.465 98.4991C527.317 98.7673 527.381 98.9873 527.65 99.1346L530.663 100.789L525.265 110.619ZM532.662 114.681C532.515 114.949 532.579 115.169 532.847 115.316L534.109 116.009C534.378 116.157 534.598 116.093 534.745 115.824L537.552 110.712L542.333 113.338L539.525 118.45C539.378 118.718 539.442 118.938 539.71 119.085L540.973 119.778C541.241 119.926 541.461 119.862 541.608 119.593L547.751 108.407C547.898 108.139 547.834 107.919 547.566 107.771L546.304 107.078C546.036 106.931 545.816 106.995 545.668 107.263L543.303 111.571L538.522 108.945L540.888 104.638C541.035 104.37 540.971 104.15 540.703 104.003L539.44 103.309C539.172 103.162 538.952 103.226 538.805 103.494L532.662 114.681Z" fill="white"/>
<circle cx="201.112" cy="125.107" r="56" transform="rotate(-17.2818 201.112 125.107)" fill="url(#paint21_radial_586_25869)"/>
<path d="M194.649 111.334C194.884 111.544 195.129 111.543 195.349 111.343L196.347 110.429C196.567 110.228 196.584 109.978 196.383 109.758C194.943 108.34 192.626 107.741 190.272 108.473C186.284 109.714 185.032 113.629 186.166 117.272C187.305 120.933 190.452 123.536 194.526 122.268C196.915 121.525 198.515 119.821 198.879 117.295C198.919 117 198.751 116.825 198.456 116.785L197.081 116.667C196.786 116.626 196.611 116.794 196.571 117.089C196.336 118.576 195.596 119.711 193.998 120.208C191.007 121.139 189.227 118.507 188.644 116.633C187.992 114.536 187.834 111.362 191.017 110.447C192.529 110.033 193.636 110.443 194.649 111.334ZM201.913 119.084C202.004 119.376 202.207 119.483 202.499 119.392L203.874 118.964C204.167 118.873 204.273 118.67 204.182 118.378L202.498 112.964L209.17 116.958C209.418 117.089 209.735 117.141 210.01 117.055L212.09 116.408C212.365 116.323 212.374 116.169 212.126 116.039L204.253 111.457L207.595 103.838C207.714 103.556 207.625 103.451 207.333 103.542L205.425 104.136C205.133 104.227 204.913 104.427 204.793 104.71L201.984 111.314L200.391 106.192C200.3 105.9 200.097 105.794 199.805 105.884L198.43 106.312C198.138 106.403 198.031 106.606 198.122 106.898L201.913 119.084ZM172.975 151.127C173.066 151.42 173.269 151.526 173.561 151.435L174.97 150.997C175.262 150.906 175.369 150.703 175.278 150.411L173.658 145.203L178.092 143.824C178.384 143.733 178.491 143.53 178.4 143.238L178.079 142.206C177.988 141.914 177.785 141.808 177.493 141.899L173.059 143.278L171.947 139.703L176.742 138.211C177.034 138.12 177.141 137.918 177.05 137.625L176.729 136.594C176.638 136.302 176.435 136.195 176.143 136.286L169.491 138.356C169.199 138.447 169.093 138.649 169.184 138.942L172.975 151.127ZM182.186 138.893C182.095 138.601 181.892 138.494 181.6 138.585L180.293 138.991C180.001 139.082 179.895 139.285 179.986 139.577L182.654 148.154C182.745 148.446 182.948 148.553 183.24 148.462L184.546 148.055C184.838 147.964 184.945 147.762 184.854 147.469L182.186 138.893ZM181.406 135.478C181.165 134.705 180.371 134.273 179.598 134.514C178.842 134.749 178.415 135.56 178.656 136.334C178.897 137.107 179.703 137.516 180.459 137.281C181.232 137.04 181.647 136.252 181.406 135.478ZM186.803 137.438C186.705 137.185 186.457 137.055 186.182 137.14L184.945 137.525C184.687 137.606 184.569 137.831 184.671 138.101C184.825 138.411 184.914 138.76 185.016 139.087L187.379 146.684C187.47 146.976 187.673 147.082 187.965 146.991L189.272 146.585C189.564 146.494 189.67 146.291 189.579 145.999L188.168 141.462C187.66 139.829 188.027 138.282 189.539 137.811C190.846 137.405 191.8 138.051 192.271 139.563L193.859 144.668C193.95 144.96 194.153 145.066 194.445 144.976L195.751 144.569C196.043 144.478 196.15 144.275 196.059 143.983L194.278 138.26C193.642 136.215 191.941 135.047 189.672 135.753C188.434 136.138 187.523 137.025 187.104 138.041L187.018 138.068C186.948 137.845 186.884 137.638 186.803 137.438ZM205.459 141.059C205.59 141.301 205.838 141.431 206.113 141.345L207.385 140.95C207.677 140.859 207.767 140.661 207.676 140.369C207.469 139.887 207.314 139.388 207.186 138.976L204.913 131.671C204.822 131.379 204.619 131.272 204.327 131.363L203.021 131.77C202.729 131.861 202.622 132.063 202.713 132.356L202.927 133.043L202.893 133.054C202.008 132.575 200.764 132.453 199.613 132.811C196.622 133.742 195.605 136.471 196.482 139.29C197.204 141.61 199.362 143.823 202.869 142.732C204.055 142.363 204.948 141.538 205.264 140.554C205.301 140.674 205.383 140.875 205.459 141.059ZM198.699 138.6C198.186 136.95 198.586 135.148 200.288 134.618C202.488 133.934 203.801 135.429 204.245 136.856C204.684 138.265 204.479 140.214 202.314 140.887C200.543 141.438 199.234 140.319 198.699 138.6ZM209.294 130.44C209.197 130.188 208.949 130.057 208.674 130.143L207.436 130.528C207.178 130.608 207.06 130.834 207.163 131.103C207.316 131.414 207.406 131.763 207.507 132.089L209.871 139.686C209.962 139.978 210.165 140.085 210.457 139.994L211.763 139.588C212.055 139.497 212.162 139.294 212.071 139.002L210.659 134.464C210.151 132.831 210.518 131.285 212.031 130.814C213.337 130.408 214.292 131.053 214.762 132.566L216.35 137.67C216.441 137.962 216.644 138.069 216.936 137.978L218.243 137.572C218.535 137.481 218.641 137.278 218.55 136.986L216.77 131.262C216.133 129.217 214.432 128.05 212.163 128.756C210.926 129.141 210.014 130.028 209.595 131.044L209.509 131.071C209.44 130.847 209.375 130.641 209.294 130.44ZM227.448 131.541C227.164 131.535 227.002 131.68 226.961 131.975C226.785 132.803 226.155 133.564 225.124 133.885C223.216 134.479 221.749 133.276 221.166 131.403C220.61 129.615 221.16 127.748 223.016 127.17C224.121 126.845 224.957 127.169 225.593 127.82C225.794 128.04 226.027 128.062 226.258 127.896L227.23 127.141C227.461 126.975 227.494 126.719 227.294 126.499C226.063 125.148 224.224 124.872 222.35 125.454C219.274 126.412 218.032 129.267 218.92 132.121C219.786 134.905 222.426 136.666 225.554 135.693C227.737 135.014 228.749 133.662 229.066 132.074C229.117 131.813 228.967 131.634 228.671 131.594L227.448 131.541ZM239.094 126.485C239.369 126.399 239.5 126.151 239.419 125.894C238.526 123.023 236.058 121.209 232.878 122.198C229.87 123.134 228.553 125.806 229.499 128.848C230.387 131.701 232.897 133.408 236.197 132.382C238.054 131.804 239.362 130.436 239.786 128.89C239.854 128.624 239.699 128.427 239.403 128.387L238.392 128.287C238.114 128.241 237.934 128.391 237.843 128.703C237.619 129.376 236.958 130.222 235.635 130.634C233.796 131.206 232.411 130.148 231.91 128.72L239.094 126.485ZM231.414 127.065C231.182 125.836 231.763 124.43 233.361 123.933C234.994 123.425 236.222 124.098 236.771 125.379L231.414 127.065Z" fill="white"/>
<path d="M674.342 191.189C682.302 195.877 682.201 207.424 674.161 211.973L625.92 239.265C617.88 243.814 607.931 237.953 608.012 228.716L608.496 173.292C608.577 164.055 618.627 158.369 626.586 163.058L674.342 191.189Z" fill="url(#paint22_radial_586_25869)"/>
<path d="M626.464 189.773C626.738 189.928 626.977 189.875 627.15 189.633L627.932 188.529C628.105 188.286 628.068 188.038 627.825 187.865C626.117 186.784 623.727 186.689 621.58 187.903C617.946 189.959 617.551 194.05 619.43 197.371C621.318 200.708 624.944 202.586 628.657 200.485C630.835 199.253 632.038 197.249 631.859 194.703C631.836 194.406 631.636 194.271 631.338 194.295L629.969 194.47C629.672 194.493 629.537 194.693 629.561 194.99C629.646 196.493 629.162 197.759 627.705 198.584C624.979 200.126 622.683 197.93 621.716 196.223C620.635 194.311 619.809 191.242 622.727 189.674C624.116 188.95 625.286 189.116 626.464 189.773ZM635.204 195.81C635.355 196.076 635.575 196.137 635.842 195.986L637.095 195.277C637.361 195.127 637.423 194.906 637.272 194.64L634.48 189.705L641.846 192.197C642.116 192.271 642.437 192.255 642.688 192.113L644.584 191.041C644.834 190.899 644.81 190.747 644.541 190.672L635.877 187.86L637.53 179.707C637.587 179.405 637.478 179.322 637.212 179.473L635.473 180.457C635.207 180.608 635.034 180.85 634.976 181.151L633.629 188.201L630.988 183.532C630.837 183.266 630.616 183.205 630.35 183.355L629.097 184.064C628.83 184.215 628.769 184.436 628.92 184.702L635.204 195.81ZM637.405 213.389C637.671 213.238 637.733 213.017 637.582 212.751L637.077 211.858C636.926 211.592 636.705 211.53 636.439 211.681L632.303 214.021L630.513 210.856L634.884 208.383C635.15 208.233 635.211 208.012 635.06 207.746L634.529 206.806C634.378 206.539 634.157 206.478 633.891 206.629L627.828 210.059C627.562 210.21 627.5 210.43 627.651 210.697L633.935 221.804C634.086 222.071 634.307 222.132 634.573 221.981L640.73 218.498C640.996 218.347 641.057 218.126 640.907 217.86L640.375 216.92C640.224 216.654 640.004 216.592 639.737 216.743L635.272 219.269L633.269 215.729L637.405 213.389ZM643.471 204.911C643.682 205.101 643.932 205.105 644.141 204.925L645.17 203.929C645.369 203.733 645.388 203.474 645.193 203.275C643.67 201.862 641.578 201.783 639.724 202.894C637.215 204.417 636.699 206.612 637.736 208.445C638.667 210.09 640.225 210.614 642.564 210.18L644.774 209.736C645.997 209.521 646.818 209.656 647.323 210.549C647.899 211.567 647.675 212.707 646.25 213.514C644.887 214.285 643.712 213.853 642.796 212.82C642.599 212.58 642.38 212.559 642.165 212.764L640.97 213.833C640.771 214.028 640.752 214.287 640.932 214.496C642.596 216.304 644.742 216.662 647.202 215.27C650.116 213.622 650.548 211.206 649.378 209.138C648.457 207.508 646.856 206.946 644.552 207.443L642.136 207.961C641.044 208.187 640.23 207.882 639.813 207.145C639.353 206.331 639.556 205.264 640.675 204.611C641.669 204.028 642.67 204.226 643.471 204.911ZM648.828 198.716C648.677 198.449 648.456 198.388 648.19 198.539L646.937 199.248C646.67 199.399 646.609 199.619 646.76 199.886L653.044 210.993C653.195 211.26 653.416 211.321 653.682 211.17L660.215 207.474C660.481 207.323 660.542 207.103 660.392 206.836L659.824 205.834C659.674 205.567 659.453 205.506 659.187 205.657L654.314 208.413L648.828 198.716Z" fill="white"/>
<rect x="291.004" y="42.5059" width="80" height="80" rx="20" transform="rotate(-12.64 291.004 42.5059)" fill="url(#paint23_radial_586_25869)"/>
<path d="M332.799 58.4877C333.017 58.7157 333.261 58.7347 333.497 58.5527L334.565 57.7228C334.801 57.5408 334.837 57.2928 334.655 57.0569C333.334 55.5268 331.074 54.7424 328.668 55.2821C324.593 56.1959 323.029 59.9963 323.864 63.7198C324.703 67.4609 327.629 70.3096 331.792 69.3761C334.233 68.8286 335.966 67.2594 336.533 64.771C336.597 64.48 336.444 64.2928 336.153 64.229L334.792 63.9993C334.501 63.9354 334.314 64.0881 334.25 64.3791C333.895 65.8421 333.066 66.9136 331.432 67.2799C328.376 67.9653 326.815 65.1979 326.385 63.2834C325.905 61.1407 326.004 57.9639 329.252 57.3095C330.791 57.0195 331.862 57.5172 332.799 58.4877ZM339.413 66.7999C339.48 67.0985 339.673 67.2211 339.972 67.1542L341.377 66.8391C341.676 66.7721 341.798 66.5786 341.731 66.28L340.491 60.7474L346.817 65.2686C347.054 65.4184 347.366 65.4959 347.647 65.4329L349.773 64.9563C350.054 64.8933 350.075 64.7409 349.838 64.5911L342.362 59.3869L346.309 52.0637C346.451 51.792 346.371 51.6809 346.073 51.7478L344.123 52.185C343.824 52.252 343.589 52.434 343.447 52.7057L340.112 59.0613L338.939 53.8273C338.872 53.5287 338.678 53.4061 338.38 53.473L336.975 53.7882C336.676 53.8551 336.553 54.0486 336.62 54.3472L339.413 66.7999ZM317.897 84.3761C318.114 84.6041 318.358 84.6231 318.594 84.4411L319.663 83.6112C319.899 83.4292 319.935 83.1812 319.753 82.9453C318.432 81.4152 316.172 80.6308 313.766 81.1705C309.691 82.0843 308.127 85.8847 308.962 89.6082C309.801 93.3493 312.727 96.198 316.889 95.2645C319.331 94.717 321.063 93.1478 321.631 90.6594C321.695 90.3683 321.542 90.1812 321.251 90.1174L319.89 89.8877C319.599 89.8238 319.411 89.9764 319.348 90.2675C318.993 91.7305 318.163 92.802 316.53 93.1683C313.474 93.8537 311.913 91.0863 311.483 89.1718C311.003 87.0291 311.102 83.8523 314.349 83.1978C315.889 82.9079 316.96 83.4056 317.897 84.3761ZM332.948 86.2028C332.243 83.0589 329.702 81.4336 326.611 82.1268C323.467 82.8319 321.898 85.3789 322.603 88.5228C323.3 91.6316 325.814 93.2999 328.958 92.5948C332.049 91.9016 333.645 89.3116 332.948 86.2028ZM330.683 86.7109C331.135 88.7307 330.453 90.3779 328.557 90.8033C326.642 91.2326 325.322 90.0345 324.869 88.0147C324.416 85.9948 325.098 84.3477 327.012 83.9183C328.909 83.4929 330.23 84.6911 330.683 86.7109ZM345.191 88.567C345.49 88.5001 345.595 88.3105 345.528 88.0119C345.404 87.5416 345.288 87.1064 345.182 86.6322L342.621 75.2158C342.555 74.9172 342.361 74.7946 342.062 74.8615L340.728 75.1609C340.429 75.2278 340.306 75.4214 340.373 75.72L341.413 80.3568L341.273 80.3883C340.573 79.8996 339.354 79.5642 338.037 79.8596C334.717 80.6041 333.825 83.5344 334.388 86.046C334.99 88.7332 337.177 90.7517 340.409 90.0269C341.515 89.7788 342.57 88.9704 343.027 88.13L343.168 88.0985C343.195 88.2214 343.231 88.3795 343.28 88.5161C343.364 88.8107 343.575 88.9294 343.874 88.8624L345.191 88.567ZM342.34 84.2441C342.687 85.7897 342.261 87.6746 340.206 88.1354C338.098 88.6081 336.973 86.9605 336.65 85.5203C336.24 83.6937 336.918 82.0289 338.745 81.6193C340.554 81.2136 341.935 82.4351 342.34 84.2441ZM348.437 78.1544C348.37 77.8558 348.177 77.7331 347.878 77.8001L346.543 78.0995C346.245 78.1664 346.122 78.3599 346.189 78.6585L348.155 87.4228C348.222 87.7214 348.415 87.844 348.714 87.7771L350.049 87.4777C350.347 87.4108 350.47 87.2173 350.403 86.9187L348.437 78.1544ZM347.937 74.6879C347.759 73.8975 347.003 73.4031 346.212 73.5803C345.44 73.7537 344.949 74.5277 345.126 75.3181C345.304 76.1085 346.074 76.5814 346.847 76.4081C347.637 76.2309 348.114 75.4783 347.937 74.6879ZM353.157 77.0775C353.08 76.8179 352.844 76.6681 352.563 76.7311L351.298 77.0147C351.035 77.0738 350.899 77.2888 350.979 77.5659C351.107 77.8878 351.168 78.243 351.243 78.5767L352.984 86.3399C353.051 86.6385 353.244 86.7611 353.543 86.6941L354.878 86.3948C355.176 86.3278 355.299 86.1343 355.232 85.8357L354.192 81.1989C353.818 79.5303 354.309 78.0182 355.854 77.6716C357.189 77.3723 358.089 78.0929 358.435 79.6385L359.605 84.8549C359.672 85.1535 359.866 85.2761 360.164 85.2092L361.499 84.9098C361.798 84.8429 361.92 84.6493 361.853 84.3508L360.542 78.502C360.073 76.4119 358.472 75.1109 356.153 75.6308C354.889 75.9144 353.908 76.7246 353.408 77.7037L353.32 77.7234C353.269 77.495 353.222 77.2843 353.157 77.0775ZM369.988 72.6758C369.707 72.7389 369.539 72.9793 369.581 73.2467C369.614 73.479 369.666 73.7073 369.709 73.9005L369.604 73.9241C368.818 73.381 367.655 73.0513 366.303 73.3546C363.141 74.0636 362.024 76.7308 362.623 79.4004C363.233 82.1228 365.334 84.0867 368.653 83.3423C369.848 83.0745 370.752 82.3367 371.297 81.4766L371.367 81.4608L371.517 82.1282C371.895 83.8144 371.4 85.3089 369.31 85.7776C368.186 86.0297 367.172 85.7037 366.552 85.1601C366.3 84.94 366.07 84.8995 365.851 85.0776L364.909 85.7315C364.674 85.9135 364.637 86.1615 364.829 86.3583C365.938 87.6038 367.684 87.9869 369.704 87.534C372.936 86.8092 374.494 84.8734 373.726 81.4484L372.076 74.0892C371.985 73.6852 371.9 73.2246 371.811 72.7465C371.744 72.4479 371.568 72.3213 371.27 72.3883L369.988 72.6758ZM370.579 77.6162C370.993 79.4603 370.326 81.0118 368.464 81.4293C366.567 81.8547 365.286 80.6663 364.888 78.8923C364.487 77.1008 365.202 75.52 367.046 75.1064C368.943 74.681 370.185 75.8598 370.579 77.6162Z" fill="white"/>
<circle cx="554" cy="445.999" r="6" fill="#74D1F1"/>
<circle cx="112.004" cy="138" r="6" fill="white" stroke="#54BDE8" stroke-width="2"/>
<path d="M226.165 324.232V313.192H207.029V324.232H226.165ZM219.253 335.368V329.992H230.613V326.792H202.581V329.992H215.221V335.368H219.253ZM226.805 341V337.704H211.061V332.712H207.029V341H226.805ZM222.197 320.968H210.997V316.456H222.197V320.968ZM251.695 339.4V325.704H254.159V340.36H257.967V312.552H254.159V322.376H251.695V312.872H247.887V339.4H251.695ZM246.415 327.304C246.415 323.176 243.631 320.392 239.855 320.392C236.079 320.392 233.295 323.176 233.295 327.304C233.295 331.432 236.079 334.216 239.855 334.216C243.631 334.216 246.415 331.432 246.415 327.304ZM246.863 319.208V316.008H241.871V312.488H237.839V316.008H232.527V319.208H246.863ZM242.575 327.304C242.575 329.48 241.423 330.92 239.855 330.92C238.287 330.92 237.135 329.48 237.135 327.304C237.135 325.128 238.287 323.656 239.855 323.656C241.423 323.656 242.575 325.128 242.575 327.304ZM280.842 328.68C275.882 329.096 269.802 329.448 263.882 329.672V319.752H272.874V316.744H263.882V313.512H276.874V322.888H267.882V326.248C272.074 326.152 276.106 325.928 280.842 325.544V328.68ZM287.05 330.152V312.552H283.082V315.624H278.538V318.888H283.082V320.968H278.538V324.232H283.082V330.152H287.05ZM287.05 341.64V331.528H268.554V334.824H283.082V341.64H287.05Z" fill="#111921"/>
<path d="M123.916 371.768V370.552H117.708L121.532 367.08C122.812 365.912 123.596 364.376 123.596 362.952C123.596 360.856 121.9 359.32 119.756 359.368C117.436 359.416 116.012 360.936 115.58 363.16L116.94 363.528C117.244 362.024 117.932 360.664 119.676 360.584C121.244 360.536 122.188 361.64 122.188 362.968C122.188 364.12 121.484 365.32 120.444 366.28L115.756 370.552V371.768H123.916ZM130.958 371.768V359.608H129.55L126.478 362.12L127.342 363.144L129.55 361.336V371.768H130.958ZM142.032 369.4C142.032 367.832 140.784 367.256 139.408 366.824C137.856 366.328 136.928 366.04 136.928 365.112C136.928 364.344 137.712 363.88 138.736 363.928C139.712 363.976 140.464 364.536 140.624 365.496L142 365.144C141.648 363.624 140.448 362.776 138.784 362.712C137.072 362.648 135.52 363.608 135.52 365.16C135.52 366.552 136.944 367.288 138.288 367.72C140.064 368.296 140.704 368.536 140.704 369.384C140.704 370.248 139.904 370.824 138.784 370.792C137.648 370.76 136.672 370.088 136.56 368.776L135.152 368.984C135.408 370.84 136.768 371.976 138.784 372.008C140.496 372.04 142.032 370.984 142.032 369.4ZM148.055 370.616C147.735 370.68 147.431 370.712 147.159 370.712C146.311 370.712 146.007 370.392 146.007 369.432V364.184H148.119V362.968H146.007V360.024H144.599V362.968H142.839V364.184H144.599V369.64C144.599 371.24 145.431 371.928 146.983 371.928C147.447 371.928 147.863 371.896 148.215 371.832L148.055 370.616ZM160.349 368.984C159.917 370.12 159.101 370.792 157.821 370.792C156.029 370.792 154.829 369.352 154.829 367.368C154.829 365.384 156.029 363.944 157.821 363.944C159.037 363.944 159.837 364.584 160.285 365.608L161.581 365.08C160.893 363.544 159.629 362.728 157.821 362.728C155.261 362.728 153.421 364.536 153.421 367.368C153.421 370.2 155.261 372.008 157.821 372.008C159.677 372.008 161.005 371.096 161.645 369.512L160.349 368.984ZM171.565 367.368C171.565 364.536 169.725 362.728 167.165 362.728C164.605 362.728 162.765 364.536 162.765 367.368C162.765 370.2 164.605 372.008 167.165 372.008C169.021 372.008 170.381 371.176 171.069 369.752L169.773 369.224C169.245 370.264 168.381 370.776 167.165 370.776C165.501 370.776 164.365 369.608 164.189 367.864H171.549C171.565 367.688 171.565 367.544 171.565 367.368ZM167.165 363.944C168.749 363.944 169.901 365.112 170.077 366.648H164.221C164.477 365.048 165.581 363.944 167.165 363.944ZM180.874 371.768V366.328C180.874 363.896 179.514 362.616 177.29 362.728C176.202 362.776 175.274 363.272 174.762 363.912L174.714 363.048H173.354V371.768H174.762V366.68C174.762 365.128 175.786 364.024 177.226 363.944C178.714 363.864 179.466 364.744 179.466 366.552V371.768H180.874ZM187.384 370.616C187.064 370.68 186.76 370.712 186.488 370.712C185.64 370.712 185.336 370.392 185.336 369.432V364.184H187.448V362.968H185.336V360.024H183.928V362.968H182.168V364.184H183.928V369.64C183.928 371.24 184.76 371.928 186.312 371.928C186.776 371.928 187.192 371.896 187.544 371.832L187.384 370.616ZM196.749 371.688V362.968H195.341V368.056C195.341 369.576 194.317 370.744 192.877 370.792C191.389 370.872 190.637 369.992 190.637 368.184V362.968H189.229V368.408C189.229 370.84 190.589 372.12 192.813 372.008C193.901 371.96 194.829 371.464 195.341 370.824L195.389 371.688H196.749ZM203.955 362.776C202.147 362.536 201.027 363.096 200.403 364.072L200.355 363.048H198.995V371.768H200.403V366.568C200.403 364.792 201.827 363.896 203.635 364.152L203.955 362.776ZM212.669 362.968H211.213L208.557 369.768L205.805 362.968H204.349L207.885 371.512L207.821 371.672C207.293 373.032 206.525 373.704 205.309 373.88L205.469 375.16C207.277 374.92 208.285 374.024 208.973 372.312L212.669 362.968ZM222.762 359.704C222.41 359.64 221.994 359.608 221.53 359.608C219.978 359.608 219.146 360.296 219.146 361.896V362.968H217.386V364.184H219.146V371.768H220.554V364.184H222.666V362.968H220.554V362.104C220.554 361.144 220.858 360.824 221.706 360.824C221.978 360.824 222.282 360.856 222.602 360.92L222.762 359.704ZM232.518 367.368C232.518 364.536 230.678 362.728 228.118 362.728C225.558 362.728 223.718 364.536 223.718 367.368C223.718 370.2 225.558 372.008 228.118 372.008C230.678 372.008 232.518 370.2 232.518 367.368ZM231.11 367.368C231.11 369.352 229.91 370.792 228.118 370.792C226.326 370.792 225.126 369.352 225.126 367.368C225.126 365.384 226.326 363.944 228.118 363.944C229.91 363.944 231.11 365.384 231.11 367.368ZM241.796 371.688V362.968H240.388V368.056C240.388 369.576 239.364 370.744 237.924 370.792C236.436 370.872 235.684 369.992 235.684 368.184V362.968H234.276V368.408C234.276 370.84 235.636 372.12 237.86 372.008C238.948 371.96 239.876 371.464 240.388 370.824L240.436 371.688H241.796ZM251.562 371.768V366.328C251.562 363.896 250.202 362.616 247.978 362.728C246.89 362.776 245.962 363.272 245.45 363.912L245.402 363.048H244.042V371.768H245.45V366.68C245.45 365.128 246.474 364.024 247.914 363.944C249.402 363.864 250.154 364.744 250.154 366.552V371.768H251.562ZM261.808 371.688V359.288H260.4V364.232C259.84 363.336 258.736 362.728 257.456 362.728C255.216 362.728 253.328 364.52 253.328 367.368C253.328 370.216 255.216 372.008 257.456 372.008C258.736 372.008 259.84 371.4 260.4 370.504L260.448 371.688H261.808ZM260.384 367.368C260.384 369.704 258.928 370.792 257.44 370.792C256.032 370.792 254.736 369.624 254.736 367.368C254.736 365.112 256.032 363.944 257.44 363.944C258.928 363.944 260.384 365.032 260.384 367.368ZM271.322 371.608V366.136C271.322 363.56 269.45 362.808 267.802 362.728C266.474 362.68 265.162 363.032 263.834 364.232L264.714 365.096C265.594 364.28 266.746 363.896 267.722 363.944C268.794 363.992 269.914 364.344 269.914 365.992V366.696C267.226 365.8 263.594 366.376 263.594 369.272C263.594 371.016 264.922 372.008 267.114 372.008C268.33 372.008 269.338 371.624 270.042 370.84L270.074 371.608H271.322ZM267.226 370.792C266.122 370.792 265.002 370.328 265.002 369.304C265.002 367.368 267.562 367.256 269.914 367.816V368.856C269.914 370.088 268.714 370.792 267.226 370.792ZM277.821 370.616C277.501 370.68 277.197 370.712 276.925 370.712C276.077 370.712 275.773 370.392 275.773 369.432V364.184H277.885V362.968H275.773V360.024H274.365V362.968H272.605V364.184H274.365V369.64C274.365 371.24 275.197 371.928 276.749 371.928C277.213 371.928 277.629 371.896 277.981 371.832L277.821 370.616ZM281.619 360.408C281.619 359.848 281.219 359.448 280.659 359.448C280.099 359.448 279.699 359.848 279.699 360.408C279.699 360.968 280.099 361.368 280.659 361.368C281.219 361.368 281.619 360.968 281.619 360.408ZM281.363 371.768V362.968H279.955V371.768H281.363ZM292.206 367.368C292.206 364.536 290.366 362.728 287.806 362.728C285.246 362.728 283.406 364.536 283.406 367.368C283.406 370.2 285.246 372.008 287.806 372.008C290.366 372.008 292.206 370.2 292.206 367.368ZM290.798 367.368C290.798 369.352 289.598 370.792 287.806 370.792C286.014 370.792 284.814 369.352 284.814 367.368C284.814 365.384 286.014 363.944 287.806 363.944C289.598 363.944 290.798 365.384 290.798 367.368ZM301.484 371.768V366.328C301.484 363.896 300.124 362.616 297.9 362.728C296.812 362.776 295.884 363.272 295.372 363.912L295.324 363.048H293.964V371.768H295.372V366.68C295.372 365.128 296.396 364.024 297.836 363.944C299.324 363.864 300.076 364.744 300.076 366.552V371.768H301.484ZM311.009 371.608V366.136C311.009 363.56 309.137 362.808 307.489 362.728C306.161 362.68 304.849 363.032 303.521 364.232L304.401 365.096C305.281 364.28 306.433 363.896 307.409 363.944C308.481 363.992 309.601 364.344 309.601 365.992V366.696C306.913 365.8 303.281 366.376 303.281 369.272C303.281 371.016 304.609 372.008 306.801 372.008C308.017 372.008 309.025 371.624 309.729 370.84L309.761 371.608H311.009ZM306.913 370.792C305.809 370.792 304.689 370.328 304.689 369.304C304.689 367.368 307.249 367.256 309.601 367.816V368.856C309.601 370.088 308.401 370.792 306.913 370.792ZM314.749 371.768V359.288H313.341V371.768H314.749ZM322.593 371.768V359.288H321.185V371.768H322.593ZM326.978 360.408C326.978 359.848 326.578 359.448 326.018 359.448C325.458 359.448 325.058 359.848 325.058 360.408C325.058 360.968 325.458 361.368 326.018 361.368C326.578 361.368 326.978 360.968 326.978 360.408ZM326.722 371.768V362.968H325.314V371.768H326.722ZM333.665 370.616C333.345 370.68 333.041 370.712 332.769 370.712C331.921 370.712 331.617 370.392 331.617 369.432V364.184H333.729V362.968H331.617V360.024H330.209V362.968H328.449V364.184H330.209V369.64C330.209 371.24 331.041 371.928 332.593 371.928C333.057 371.928 333.473 371.896 333.825 371.832L333.665 370.616ZM343.596 367.368C343.596 364.536 341.756 362.728 339.196 362.728C336.636 362.728 334.796 364.536 334.796 367.368C334.796 370.2 336.636 372.008 339.196 372.008C341.052 372.008 342.412 371.176 343.1 369.752L341.804 369.224C341.276 370.264 340.412 370.776 339.196 370.776C337.532 370.776 336.396 369.608 336.22 367.864H343.58C343.596 367.688 343.596 367.544 343.596 367.368ZM339.196 363.944C340.78 363.944 341.932 365.112 342.108 366.648H336.252C336.508 365.048 337.612 363.944 339.196 363.944ZM350.346 362.776C348.538 362.536 347.418 363.096 346.794 364.072L346.746 363.048H345.386V371.768H346.794V366.568C346.794 364.792 348.218 363.896 350.026 364.152L350.346 362.776ZM358.588 371.608V366.136C358.588 363.56 356.716 362.808 355.068 362.728C353.74 362.68 352.428 363.032 351.1 364.232L351.98 365.096C352.86 364.28 354.012 363.896 354.988 363.944C356.06 363.992 357.18 364.344 357.18 365.992V366.696C354.492 365.8 350.86 366.376 350.86 369.272C350.86 371.016 352.188 372.008 354.38 372.008C355.596 372.008 356.604 371.624 357.308 370.84L357.34 371.608H358.588ZM354.492 370.792C353.388 370.792 352.268 370.328 352.268 369.304C352.268 367.368 354.828 367.256 357.18 367.816V368.856C357.18 370.088 355.98 370.792 354.492 370.792ZM367.271 368.984C366.839 370.12 366.023 370.792 364.743 370.792C362.951 370.792 361.751 369.352 361.751 367.368C361.751 365.384 362.951 363.944 364.743 363.944C365.959 363.944 366.759 364.584 367.207 365.608L368.503 365.08C367.815 363.544 366.551 362.728 364.743 362.728C362.183 362.728 360.343 364.536 360.343 367.368C360.343 370.2 362.183 372.008 364.743 372.008C366.599 372.008 367.927 371.096 368.567 369.512L367.271 368.984ZM377.763 362.968H376.307L373.651 369.768L370.899 362.968H369.443L372.979 371.512L372.915 371.672C372.387 373.032 371.619 373.704 370.403 373.88L370.563 375.16C372.371 374.92 373.379 374.024 374.067 372.312L377.763 362.968Z" fill="#31718C"/>
<path d="M792.425 123.36V95.552H788.457V102.784H783.177V106.112H788.457V123.36H792.425ZM785.897 113.728L782.953 116.192C780.617 113.344 778.601 110.944 776.361 108.48C774.633 111.456 772.329 114.144 769.609 116.416L766.921 114.016C772.393 109.504 775.401 103.36 776.169 96.672L780.169 97.152C779.849 99.936 779.145 102.592 778.057 105.088C780.649 107.776 783.113 110.56 785.897 113.728ZM821.091 123.36V108.064H825.443V104.736H821.091V95.552H817.123V123.36H821.091ZM815.459 113.568L812.515 116.032C810.211 113.184 808.163 110.816 805.955 108.352C804.227 111.296 801.923 113.984 799.171 116.256L796.483 113.856C801.955 109.344 804.963 103.36 805.731 96.672L809.731 97.152C809.411 99.904 808.707 102.496 807.651 104.96C810.211 107.648 812.675 110.4 815.459 113.568ZM845.342 111.68C840.382 112.096 834.302 112.448 828.382 112.672V102.752H837.374V99.744H828.382V96.512H841.374V105.888H832.382V109.248C836.574 109.152 840.606 108.928 845.342 108.544V111.68ZM851.55 113.152V95.552H847.582V98.624H843.038V101.888H847.582V103.968H843.038V107.232H847.582V113.152H851.55ZM851.55 124.64V114.528H833.054V117.824H847.582V124.64H851.55Z" fill="#111921"/>
<path d="M707.591 151.712C707.591 149.792 706.295 148.672 704.087 148.096C701.943 147.536 700.583 146.88 700.615 145.52C700.631 144.544 701.399 143.616 703.079 143.616C704.487 143.616 705.735 144.416 706.039 145.84L707.399 145.472C706.967 143.536 705.175 142.384 703.127 142.368C700.791 142.352 699.207 143.744 699.207 145.552C699.207 147.44 700.823 148.544 703.079 149.104C704.823 149.536 706.183 150.24 706.183 151.632C706.183 153.12 704.967 153.76 703.479 153.76C701.655 153.76 700.503 152.672 700.311 151.008L698.887 151.248C699.095 153.408 700.807 155.008 703.511 155.008C705.623 155.008 707.591 153.872 707.591 151.712ZM717.674 150.368C717.674 147.536 715.834 145.728 713.274 145.728C710.714 145.728 708.874 147.536 708.874 150.368C708.874 153.2 710.714 155.008 713.274 155.008C715.834 155.008 717.674 153.2 717.674 150.368ZM716.266 150.368C716.266 152.352 715.066 153.792 713.274 153.792C711.482 153.792 710.282 152.352 710.282 150.368C710.282 148.384 711.482 146.944 713.274 146.944C715.066 146.944 716.266 148.384 716.266 150.368ZM725.881 151.984C725.449 153.12 724.633 153.792 723.353 153.792C721.561 153.792 720.361 152.352 720.361 150.368C720.361 148.384 721.561 146.944 723.353 146.944C724.569 146.944 725.369 147.584 725.817 148.608L727.113 148.08C726.425 146.544 725.161 145.728 723.353 145.728C720.793 145.728 718.953 147.536 718.953 150.368C718.953 153.2 720.793 155.008 723.353 155.008C725.209 155.008 726.536 154.096 727.177 152.512L725.881 151.984ZM730.728 143.408C730.728 142.848 730.328 142.448 729.768 142.448C729.208 142.448 728.808 142.848 728.808 143.408C728.808 143.968 729.208 144.368 729.768 144.368C730.328 144.368 730.728 143.968 730.728 143.408ZM730.472 154.768V145.968H729.064V154.768H730.472ZM741.315 150.368C741.315 147.536 739.475 145.728 736.915 145.728C734.355 145.728 732.515 147.536 732.515 150.368C732.515 153.2 734.355 155.008 736.915 155.008C739.475 155.008 741.315 153.2 741.315 150.368ZM739.907 150.368C739.907 152.352 738.707 153.792 736.915 153.792C735.123 153.792 733.923 152.352 733.923 150.368C733.923 148.384 735.123 146.944 736.915 146.944C738.707 146.944 739.907 148.384 739.907 150.368ZM750.753 149.296V148.08H744.033V149.296H750.753ZM762.268 150.368C762.268 147.536 760.428 145.728 757.868 145.728C755.308 145.728 753.468 147.536 753.468 150.368C753.468 153.2 755.308 155.008 757.868 155.008C759.724 155.008 761.084 154.176 761.772 152.752L760.476 152.224C759.948 153.264 759.084 153.776 757.868 153.776C756.204 153.776 755.068 152.608 754.892 150.864H762.252C762.268 150.688 762.268 150.544 762.268 150.368ZM757.868 146.944C759.452 146.944 760.604 148.112 760.78 149.648H754.924C755.18 148.048 756.284 146.944 757.868 146.944ZM776.858 154.768V149.328C776.858 146.896 775.626 145.616 773.626 145.728C772.65 145.792 771.626 146.144 770.794 147.36C770.282 146.208 769.274 145.648 767.93 145.728C766.842 145.792 765.978 146.272 765.466 146.912L765.418 146.048H764.058V154.768H765.466V149.68C765.466 148.144 766.522 147.024 767.866 146.944C769.21 146.864 769.754 147.744 769.754 149.552V154.768H771.161V149.68C771.161 148.144 772.218 147.024 773.562 146.944C774.906 146.864 775.45 147.744 775.45 149.552V154.768H776.858ZM787.424 150.368C787.424 147.536 785.584 145.728 783.024 145.728C780.464 145.728 778.624 147.536 778.624 150.368C778.624 153.2 780.464 155.008 783.024 155.008C785.584 155.008 787.424 153.2 787.424 150.368ZM786.016 150.368C786.016 152.352 784.816 153.792 783.024 153.792C781.232 153.792 780.032 152.352 780.032 150.368C780.032 148.384 781.232 146.944 783.024 146.944C784.816 146.944 786.016 148.384 786.016 150.368ZM793.446 153.616C793.126 153.68 792.822 153.712 792.55 153.712C791.702 153.712 791.398 153.392 791.398 152.432V147.184H793.51V145.968H791.398V143.024H789.99V145.968H788.23V147.184H789.99V152.64C789.99 154.24 790.822 154.928 792.374 154.928C792.838 154.928 793.254 154.896 793.606 154.832L793.446 153.616ZM797.244 143.408C797.244 142.848 796.844 142.448 796.284 142.448C795.724 142.448 795.324 142.848 795.324 143.408C795.324 143.968 795.724 144.368 796.284 144.368C796.844 144.368 797.244 143.968 797.244 143.408ZM796.988 154.768V145.968H795.58V154.768H796.988ZM807.831 150.368C807.831 147.536 805.991 145.728 803.431 145.728C800.871 145.728 799.031 147.536 799.031 150.368C799.031 153.2 800.871 155.008 803.431 155.008C805.991 155.008 807.831 153.2 807.831 150.368ZM806.423 150.368C806.423 152.352 805.223 153.792 803.431 153.792C801.639 153.792 800.439 152.352 800.439 150.368C800.439 148.384 801.639 146.944 803.431 146.944C805.223 146.944 806.423 148.384 806.423 150.368ZM817.109 154.768V149.328C817.109 146.896 815.749 145.616 813.525 145.728C812.437 145.776 811.509 146.272 810.997 146.912L810.949 146.048H809.589V154.768H810.997V149.68C810.997 148.128 812.021 147.024 813.461 146.944C814.949 146.864 815.701 147.744 815.701 149.552V154.768H817.109ZM826.634 154.608V149.136C826.634 146.56 824.762 145.808 823.114 145.728C821.786 145.68 820.474 146.032 819.146 147.232L820.026 148.096C820.906 147.28 822.058 146.896 823.034 146.944C824.106 146.992 825.226 147.344 825.226 148.992V149.696C822.538 148.8 818.906 149.376 818.906 152.272C818.906 154.016 820.234 155.008 822.426 155.008C823.642 155.008 824.65 154.624 825.354 153.84L825.386 154.608H826.634ZM822.538 153.792C821.434 153.792 820.314 153.328 820.314 152.304C820.314 150.368 822.874 150.256 825.226 150.816V151.856C825.226 153.088 824.026 153.792 822.538 153.792ZM830.374 154.768V142.288H828.966V154.768H830.374ZM842.954 152.4C842.954 150.832 841.706 150.256 840.33 149.824C838.778 149.328 837.85 149.04 837.85 148.112C837.85 147.344 838.634 146.88 839.658 146.928C840.634 146.976 841.386 147.536 841.546 148.496L842.922 148.144C842.57 146.624 841.37 145.776 839.706 145.712C837.994 145.648 836.442 146.608 836.442 148.16C836.442 149.552 837.866 150.288 839.21 150.72C840.986 151.296 841.626 151.536 841.626 152.384C841.626 153.248 840.826 153.824 839.706 153.792C838.57 153.76 837.594 153.088 837.482 151.776L836.074 151.984C836.33 153.84 837.69 154.976 839.706 155.008C841.418 155.04 842.954 153.984 842.954 152.4ZM848.977 153.616C848.657 153.68 848.353 153.712 848.081 153.712C847.233 153.712 846.929 153.392 846.929 152.432V147.184H849.041V145.968H846.929V143.024H845.521V145.968H843.761V147.184H845.521V152.64C845.521 154.24 846.353 154.928 847.905 154.928C848.369 154.928 848.785 154.896 849.137 154.832L848.977 153.616ZM858.909 150.368C858.909 147.536 857.069 145.728 854.509 145.728C851.949 145.728 850.109 147.536 850.109 150.368C850.109 153.2 851.949 155.008 854.509 155.008C857.069 155.008 858.909 153.2 858.909 150.368ZM857.501 150.368C857.501 152.352 856.301 153.792 854.509 153.792C852.717 153.792 851.517 152.352 851.517 150.368C851.517 148.384 852.717 146.944 854.509 146.944C856.301 146.944 857.501 148.384 857.501 150.368ZM865.627 145.776C863.819 145.536 862.699 146.096 862.075 147.072L862.027 146.048H860.667V154.768H862.075V149.568C862.075 147.792 863.499 146.896 865.307 147.152L865.627 145.776ZM874.341 145.968H872.885L870.229 152.768L867.477 145.968H866.021L869.557 154.512L869.493 154.672C868.965 156.032 868.197 156.704 866.981 156.88L867.141 158.16C868.949 157.92 869.957 157.024 870.645 155.312L874.341 145.968ZM880.274 153.616C879.954 153.68 879.65 153.712 879.378 153.712C878.53 153.712 878.226 153.392 878.226 152.432V147.184H880.338V145.968H878.226V143.024H876.818V145.968H875.058V147.184H876.818V152.64C876.818 154.24 877.65 154.928 879.202 154.928C879.666 154.928 880.082 154.896 880.434 154.832L880.274 153.616ZM890.206 150.368C890.206 147.536 888.366 145.728 885.806 145.728C883.246 145.728 881.406 147.536 881.406 150.368C881.406 153.2 883.246 155.008 885.806 155.008C887.662 155.008 889.022 154.176 889.71 152.752L888.414 152.224C887.886 153.264 887.022 153.776 885.806 153.776C884.142 153.776 883.006 152.608 882.83 150.864H890.19C890.206 150.688 890.206 150.544 890.206 150.368ZM885.806 146.944C887.39 146.944 888.542 148.112 888.718 149.648H882.862C883.118 148.048 884.222 146.944 885.806 146.944ZM893.499 154.768V142.288H892.091V154.768H893.499ZM897.468 154.768V142.288H896.06V154.768H897.468ZM901.853 143.408C901.853 142.848 901.453 142.448 900.893 142.448C900.333 142.448 899.933 142.848 899.933 143.408C899.933 143.968 900.333 144.368 900.893 144.368C901.453 144.368 901.853 143.968 901.853 143.408ZM901.597 154.768V145.968H900.189V154.768H901.597ZM911.64 154.768V149.328C911.64 146.896 910.28 145.616 908.056 145.728C906.968 145.776 906.04 146.272 905.528 146.912L905.48 146.048H904.12V154.768H905.528V149.68C905.528 148.128 906.552 147.024 907.992 146.944C909.48 146.864 910.232 147.744 910.232 149.552V154.768H911.64ZM921.886 146.128H920.526L920.478 147.168C919.918 146.32 918.814 145.728 917.534 145.728C915.294 145.728 913.406 147.44 913.406 150.208C913.406 152.976 915.294 154.688 917.534 154.688C918.814 154.688 919.918 154.096 920.478 153.248V154.112C920.478 155.84 919.518 157.104 917.662 157.104C916.318 157.104 915.262 156.464 914.702 155.52L913.646 156.256C914.494 157.616 915.79 158.32 917.758 158.32C920.398 158.32 921.886 156.608 921.886 154.192V146.128ZM920.462 150.208C920.462 152.448 919.006 153.472 917.518 153.472C916.11 153.472 914.814 152.4 914.814 150.208C914.814 148.048 916.11 146.944 917.518 146.944C919.006 146.944 920.462 147.968 920.462 150.208Z" fill="#BD6700"/>
<path d="M769.785 504.04C769.785 500.072 766.425 497.288 761.944 497.288C757.465 497.288 754.105 500.072 754.105 504.04C754.105 508.008 757.465 510.792 761.944 510.792C766.425 510.792 769.785 508.008 769.785 504.04ZM758.009 481.512C757.657 483.528 757.049 485.416 756.185 487.176C758.681 489.096 760.985 490.984 763.257 492.936L760.697 495.592C758.649 493.672 756.633 491.944 754.425 490.12C752.697 492.52 750.457 494.536 747.801 496.136L745.561 493.704C750.457 490.472 753.177 486.568 754.009 481.032L758.009 481.512ZM769.785 497.128V490.184H773.945V486.856H769.785V480.552H765.817V497.128H769.785ZM765.849 504.04C765.849 506.12 764.185 507.56 761.944 507.56C759.705 507.56 758.041 506.12 758.041 504.04C758.041 501.96 759.705 500.52 761.944 500.52C764.185 500.52 765.849 501.96 765.849 504.04ZM799.347 504.04C799.347 500.072 795.987 497.288 791.507 497.288C787.027 497.288 783.667 500.072 783.667 504.04C783.667 508.008 787.027 510.792 791.507 510.792C795.987 510.792 799.347 508.008 799.347 504.04ZM787.571 481.512C787.219 483.528 786.611 485.416 785.747 487.176C788.243 489.096 790.547 490.984 792.819 492.936L790.259 495.592C788.211 493.672 786.195 491.944 783.987 490.12C782.259 492.52 780.019 494.536 777.363 496.136L775.123 493.704C780.019 490.472 782.739 486.568 783.571 481.032L787.571 481.512ZM799.347 497.128V490.184H803.507V486.856H799.347V480.552H795.379V497.128H799.347ZM795.411 504.04C795.411 506.12 793.747 507.56 791.507 507.56C789.267 507.56 787.603 506.12 787.603 504.04C787.603 501.96 789.267 500.52 791.507 500.52C793.747 500.52 795.411 501.96 795.411 504.04ZM823.342 496.68C818.382 497.096 812.302 497.448 806.382 497.672V487.752H815.374V484.744H806.382V481.512H819.374V490.888H810.382V494.248C814.574 494.152 818.606 493.928 823.342 493.544V496.68ZM829.55 498.152V480.552H825.582V483.624H821.038V486.888H825.582V488.968H821.038V492.232H825.582V498.152H829.55ZM829.55 509.64V499.528H811.054V502.824H825.582V509.64H829.55Z" fill="#111921"/>
<path d="M705.395 536.36C704.707 537.944 703.491 538.792 701.779 538.792C699.219 538.792 697.427 536.632 697.427 533.688C697.427 530.744 699.219 528.584 701.779 528.584C703.491 528.584 704.707 529.432 705.395 531.016L706.659 530.504C705.763 528.472 704.067 527.368 701.779 527.368C698.403 527.368 696.019 530.024 696.019 533.688C696.019 537.352 698.403 540.008 701.779 540.008C704.067 540.008 705.763 538.904 706.659 536.872L705.395 536.36ZM713.455 530.776C711.647 530.536 710.527 531.096 709.903 532.072L709.855 531.048H708.495V539.768H709.903V534.568C709.903 532.792 711.327 531.896 713.135 532.152L713.455 530.776ZM722.565 535.368C722.565 532.536 720.725 530.728 718.165 530.728C715.605 530.728 713.765 532.536 713.765 535.368C713.765 538.2 715.605 540.008 718.165 540.008C720.725 540.008 722.565 538.2 722.565 535.368ZM721.157 535.368C721.157 537.352 719.957 538.792 718.165 538.792C716.373 538.792 715.173 537.352 715.173 535.368C715.173 533.384 716.373 531.944 718.165 531.944C719.957 531.944 721.157 533.384 721.157 535.368ZM730.563 537.4C730.563 535.832 729.315 535.256 727.939 534.824C726.387 534.328 725.459 534.04 725.459 533.112C725.459 532.344 726.243 531.88 727.267 531.928C728.243 531.976 728.995 532.536 729.155 533.496L730.531 533.144C730.179 531.624 728.979 530.776 727.315 530.712C725.603 530.648 724.051 531.608 724.051 533.16C724.051 534.552 725.475 535.288 726.819 535.72C728.595 536.296 729.235 536.536 729.235 537.384C729.235 538.248 728.435 538.824 727.315 538.792C726.179 538.76 725.203 538.088 725.091 536.776L723.683 536.984C723.939 538.84 725.299 539.976 727.315 540.008C729.027 540.04 730.563 538.984 730.563 537.4ZM738.563 537.4C738.563 535.832 737.315 535.256 735.939 534.824C734.387 534.328 733.459 534.04 733.459 533.112C733.459 532.344 734.243 531.88 735.267 531.928C736.243 531.976 736.995 532.536 737.155 533.496L738.531 533.144C738.179 531.624 736.979 530.776 735.315 530.712C733.603 530.648 732.051 531.608 732.051 533.16C732.051 534.552 733.475 535.288 734.819 535.72C736.595 536.296 737.235 536.536 737.235 537.384C737.235 538.248 736.435 538.824 735.315 538.792C734.179 538.76 733.203 538.088 733.091 536.776L731.683 536.984C731.939 538.84 733.299 539.976 735.315 540.008C737.027 540.04 738.563 538.984 738.563 537.4ZM748.003 534.296V533.08H741.283V534.296H748.003ZM759.518 535.368C759.518 532.536 757.678 530.728 755.118 530.728C752.558 530.728 750.718 532.536 750.718 535.368C750.718 538.2 752.558 540.008 755.118 540.008C757.678 540.008 759.518 538.2 759.518 535.368ZM758.11 535.368C758.11 537.352 756.91 538.792 755.118 538.792C753.326 538.792 752.126 537.352 752.126 535.368C752.126 533.384 753.326 531.944 755.118 531.944C756.91 531.944 758.11 533.384 758.11 535.368ZM768.88 530.968H767.424L764.56 538.312L761.696 530.968H760.24L763.728 539.768H765.392L768.88 530.968ZM778.409 535.368C778.409 532.536 776.569 530.728 774.009 530.728C771.449 530.728 769.609 532.536 769.609 535.368C769.609 538.2 771.449 540.008 774.009 540.008C775.865 540.008 777.225 539.176 777.913 537.752L776.617 537.224C776.089 538.264 775.225 538.776 774.009 538.776C772.345 538.776 771.209 537.608 771.033 535.864H778.393C778.409 535.688 778.409 535.544 778.409 535.368ZM774.009 531.944C775.593 531.944 776.745 533.112 776.921 534.648H771.065C771.321 533.048 772.425 531.944 774.009 531.944ZM785.158 530.776C783.35 530.536 782.23 531.096 781.606 532.072L781.558 531.048H780.198V539.768H781.606V534.568C781.606 532.792 783.03 531.896 784.838 532.152L785.158 530.776ZM792.385 528.408C792.385 527.848 791.985 527.448 791.424 527.448C790.865 527.448 790.465 527.848 790.465 528.408C790.465 528.968 790.865 529.368 791.424 529.368C791.985 529.368 792.385 528.968 792.385 528.408ZM792.129 539.768V530.968H790.721V539.768H792.129ZM807.451 539.768V534.328C807.451 531.896 806.219 530.616 804.219 530.728C803.243 530.792 802.219 531.144 801.387 532.36C800.875 531.208 799.867 530.648 798.523 530.728C797.435 530.792 796.571 531.272 796.059 531.912L796.011 531.048H794.651V539.768H796.059V534.68C796.059 533.144 797.115 532.024 798.459 531.944C799.803 531.864 800.347 532.744 800.347 534.552V539.768H801.755V534.68C801.755 533.144 802.811 532.024 804.155 531.944C805.499 531.864 806.043 532.744 806.043 534.552V539.768H807.451ZM816.978 539.608V534.136C816.978 531.56 815.106 530.808 813.458 530.728C812.13 530.68 810.818 531.032 809.49 532.232L810.37 533.096C811.25 532.28 812.402 531.896 813.378 531.944C814.45 531.992 815.57 532.344 815.57 533.992V534.696C812.882 533.8 809.25 534.376 809.25 537.272C809.25 539.016 810.578 540.008 812.77 540.008C813.986 540.008 814.994 539.624 815.698 538.84L815.73 539.608H816.978ZM812.882 538.792C811.778 538.792 810.658 538.328 810.658 537.304C810.658 535.368 813.218 535.256 815.57 535.816V536.856C815.57 538.088 814.37 538.792 812.882 538.792ZM827.214 531.128H825.854L825.806 532.168C825.246 531.32 824.142 530.728 822.862 530.728C820.622 530.728 818.734 532.44 818.734 535.208C818.734 537.976 820.622 539.688 822.862 539.688C824.142 539.688 825.246 539.096 825.806 538.248V539.112C825.806 540.84 824.846 542.104 822.99 542.104C821.646 542.104 820.59 541.464 820.03 540.52L818.974 541.256C819.822 542.616 821.118 543.32 823.086 543.32C825.726 543.32 827.214 541.608 827.214 539.192V531.128ZM825.79 535.208C825.79 537.448 824.334 538.472 822.846 538.472C821.438 538.472 820.142 537.4 820.142 535.208C820.142 533.048 821.438 531.944 822.846 531.944C824.334 531.944 825.79 532.968 825.79 535.208ZM831.4 528.408C831.4 527.848 831 527.448 830.44 527.448C829.88 527.448 829.48 527.848 829.48 528.408C829.48 528.968 829.88 529.368 830.44 529.368C831 529.368 831.4 528.968 831.4 528.408ZM831.144 539.768V530.968H829.736V539.768H831.144ZM841.187 539.768V534.328C841.187 531.896 839.827 530.616 837.603 530.728C836.515 530.776 835.587 531.272 835.075 531.912L835.027 531.048H833.667V539.768H835.075V534.68C835.075 533.128 836.099 532.024 837.539 531.944C839.027 531.864 839.779 532.744 839.779 534.552V539.768H841.187ZM850.713 539.608V534.136C850.713 531.56 848.841 530.808 847.193 530.728C845.865 530.68 844.553 531.032 843.225 532.232L844.105 533.096C844.985 532.28 846.137 531.896 847.113 531.944C848.185 531.992 849.305 532.344 849.305 533.992V534.696C846.617 533.8 842.985 534.376 842.985 537.272C842.985 539.016 844.312 540.008 846.505 540.008C847.721 540.008 848.729 539.624 849.433 538.84L849.465 539.608H850.713ZM846.617 538.792C845.513 538.792 844.393 538.328 844.393 537.304C844.393 535.368 846.953 535.256 849.305 535.816V536.856C849.305 538.088 848.105 538.792 846.617 538.792ZM857.212 538.616C856.892 538.68 856.588 538.712 856.316 538.712C855.468 538.712 855.164 538.392 855.164 537.432V532.184H857.276V530.968H855.164V528.024H853.756V530.968H851.996V532.184H853.756V537.64C853.756 539.24 854.588 539.928 856.14 539.928C856.604 539.928 857.02 539.896 857.372 539.832L857.212 538.616ZM861.01 528.408C861.01 527.848 860.61 527.448 860.049 527.448C859.49 527.448 859.09 527.848 859.09 528.408C859.09 528.968 859.49 529.368 860.049 529.368C860.61 529.368 861.01 528.968 861.01 528.408ZM860.754 539.768V530.968H859.346V539.768H860.754ZM871.596 535.368C871.596 532.536 869.756 530.728 867.196 530.728C864.636 530.728 862.796 532.536 862.796 535.368C862.796 538.2 864.636 540.008 867.196 540.008C869.756 540.008 871.596 538.2 871.596 535.368ZM870.188 535.368C870.188 537.352 868.988 538.792 867.196 538.792C865.404 538.792 864.204 537.352 864.204 535.368C864.204 533.384 865.404 531.944 867.196 531.944C868.988 531.944 870.188 533.384 870.188 535.368ZM880.874 539.768V534.328C880.874 531.896 879.514 530.616 877.29 530.728C876.202 530.776 875.274 531.272 874.762 531.912L874.714 531.048H873.354V539.768H874.762V534.68C874.762 533.128 875.786 532.024 877.226 531.944C878.714 531.864 879.466 532.744 879.466 534.552V539.768H880.874Z" fill="#AB3C70"/>
</g>
<defs>
<radialGradient id="paint0_radial_586_25869" cx="0" cy="0" r="1" gradientUnits="userSpaceOnUse" gradientTransform="translate(579.003 303.5) rotate(-149.462) scale(680.954 1270.4)">
<stop stop-color="white"/>
<stop offset="1" stop-color="#F2F2F2"/>
</radialGradient>
<linearGradient id="paint1_linear_586_25869" x1="568.039" y1="130.748" x2="126.539" y2="691.248" gradientUnits="userSpaceOnUse">
<stop stop-color="#45B6E6"/>
<stop offset="1" stop-color="#54C3F1" stop-opacity="0.1"/>
</linearGradient>
<linearGradient id="paint2_linear_586_25869" x1="504.578" y1="50.6727" x2="128.078" y2="630.673" gradientUnits="userSpaceOnUse">
<stop stop-color="#45B6E6"/>
<stop offset="1" stop-color="#54C3F1" stop-opacity="0.1"/>
</linearGradient>
<linearGradient id="paint3_linear_586_25869" x1="565.077" y1="132.173" x2="43.5771" y2="604.673" gradientUnits="userSpaceOnUse">
<stop stop-color="#45B6E6"/>
<stop offset="1" stop-color="#54C3F1" stop-opacity="0.3"/>
</linearGradient>
<linearGradient id="paint4_linear_586_25869" x1="565.077" y1="132.173" x2="43.5771" y2="604.673" gradientUnits="userSpaceOnUse">
<stop stop-color="#45B6E6"/>
<stop offset="1" stop-color="#54C3F1" stop-opacity="0.3"/>
</linearGradient>
<linearGradient id="paint5_linear_586_25869" x1="565.04" y1="163.248" x2="112.04" y2="670.248" gradientUnits="userSpaceOnUse">
<stop stop-color="#45B6E6"/>
<stop offset="1" stop-color="#54C3F1" stop-opacity="0.3"/>
</linearGradient>
<linearGradient id="paint6_linear_586_25869" x1="476.325" y1="309.447" x2="1000.75" y2="775.489" gradientUnits="userSpaceOnUse">
<stop stop-color="#E85298"/>
<stop offset="1" stop-color="#E85298" stop-opacity="0"/>
</linearGradient>
<linearGradient id="paint7_linear_586_25869" x1="481.894" y1="310.416" x2="1026.67" y2="757.166" gradientUnits="userSpaceOnUse">
<stop stop-color="#E85298"/>
<stop offset="1" stop-color="#E85298" stop-opacity="0"/>
</linearGradient>
<linearGradient id="paint8_linear_586_25869" x1="475.976" y1="309.772" x2="1020.75" y2="756.523" gradientUnits="userSpaceOnUse">
<stop stop-color="#E85298"/>
<stop offset="1" stop-color="#E85298" stop-opacity="0"/>
</linearGradient>
<linearGradient id="paint9_linear_586_25869" x1="475.975" y1="309.772" x2="1020.75" y2="756.523" gradientUnits="userSpaceOnUse">
<stop stop-color="#E85298"/>
<stop offset="1" stop-color="#E85298" stop-opacity="0"/>
</linearGradient>
<linearGradient id="paint10_linear_586_25869" x1="547.731" y1="285.326" x2="829.449" y2="718.594" gradientUnits="userSpaceOnUse">
<stop stop-color="#E85298"/>
<stop offset="1" stop-color="#E85298" stop-opacity="0"/>
</linearGradient>
<linearGradient id="paint11_linear_586_25869" x1="662.969" y1="411.512" x2="795.034" y2="-102.557" gradientUnits="userSpaceOnUse">
<stop stop-color="#FF8B00"/>
<stop offset="1" stop-color="#FF8B00" stop-opacity="0"/>
</linearGradient>
<linearGradient id="paint12_linear_586_25869" x1="633.873" y1="406.545" x2="659.703" y2="73.9218" gradientUnits="userSpaceOnUse">
<stop stop-color="#FF8B00"/>
<stop offset="1" stop-color="#FF8B00" stop-opacity="0"/>
</linearGradient>
<linearGradient id="paint13_linear_586_25869" x1="592.207" y1="398.379" x2="907.768" y2="86.5081" gradientUnits="userSpaceOnUse">
<stop stop-color="#FF8B00"/>
<stop offset="1" stop-color="#FF8B00" stop-opacity="0"/>
</linearGradient>
<linearGradient id="paint14_linear_586_25869" x1="592.207" y1="398.379" x2="907.768" y2="86.5081" gradientUnits="userSpaceOnUse">
<stop stop-color="#FF8B00"/>
<stop offset="1" stop-color="#FF8B00" stop-opacity="0"/>
</linearGradient>
<linearGradient id="paint15_linear_586_25869" x1="592.563" y1="366.322" x2="826.539" y2="25.1469" gradientUnits="userSpaceOnUse">
<stop stop-color="#FF8B00"/>
<stop offset="1" stop-color="#FF8B00" stop-opacity="0"/>
</linearGradient>
<linearGradient id="paint16_linear_586_25869" x1="464.165" y1="252.263" x2="1824.12" y2="-392.013" gradientUnits="userSpaceOnUse">
<stop stop-color="#FF8B00"/>
<stop offset="1" stop-color="#FF8B00" stop-opacity="0"/>
</linearGradient>
<linearGradient id="paint17_linear_586_25869" x1="943.452" y1="226.977" x2="301.337" y2="798.83" gradientUnits="userSpaceOnUse">
<stop stop-color="#E85298"/>
<stop offset="1" stop-color="#E85298" stop-opacity="0"/>
</linearGradient>
<linearGradient id="paint18_linear_586_25869" x1="1037.22" y1="426.751" x2="395.1" y2="998.604" gradientUnits="userSpaceOnUse">
<stop stop-color="#E85298"/>
<stop offset="1" stop-color="#E85298" stop-opacity="0"/>
</linearGradient>
<linearGradient id="paint19_linear_586_25869" x1="261.005" y1="17.964" x2="411.296" y2="643.472" gradientUnits="userSpaceOnUse">
<stop stop-color="#45B6E6"/>
<stop offset="0.473958" stop-color="#58CCFC"/>
<stop offset="1" stop-color="#54C3F1" stop-opacity="0.3"/>
</linearGradient>
<radialGradient id="paint20_radial_586_25869" cx="0" cy="0" r="1" gradientUnits="userSpaceOnUse" gradientTransform="translate(527.101 93.0968) rotate(90) scale(43)">
<stop stop-color="#59CEFF"/>
<stop offset="1" stop-color="#54C3F1"/>
</radialGradient>
<radialGradient id="paint21_radial_586_25869" cx="0" cy="0" r="1" gradientUnits="userSpaceOnUse" gradientTransform="translate(201.112 125.107) rotate(90) scale(56)">
<stop stop-color="#54C4F2"/>
<stop offset="1" stop-color="#59CEFF"/>
</radialGradient>
<radialGradient id="paint22_radial_586_25869" cx="0" cy="0" r="1" gradientUnits="userSpaceOnUse" gradientTransform="translate(636.253 201.249) rotate(-177.127) scale(30.1886)">
<stop stop-color="#59CEFF"/>
<stop offset="1" stop-color="#54C3F1"/>
</radialGradient>
<radialGradient id="paint23_radial_586_25869" cx="0" cy="0" r="1" gradientUnits="userSpaceOnUse" gradientTransform="translate(331.004 82.5059) rotate(90) scale(40)">
<stop stop-color="#59CEFF"/>
<stop offset="1" stop-color="#54C4F2"/>
</radialGradient>
<clipPath id="clip0_586_25869">
<rect width="1194" height="640" rx="30" fill="white"/>
</clipPath>
</defs>
</svg>
