<svg width="944" height="506" viewBox="0 0 944 506" fill="none" xmlns="http://www.w3.org/2000/svg">
<mask id="mask0_586_25871" style="mask-type:luminance" maskUnits="userSpaceOnUse" x="0" y="0" width="944" height="506">
<path d="M920.281 0H23.7186C10.6192 0 0 10.6192 0 23.7186V482.278C0 495.377 10.6192 505.997 23.7186 505.997H920.281C933.381 505.997 944 495.377 944 482.278V23.7186C944 10.6192 933.381 0 920.281 0Z" fill="white"/>
</mask>
<g mask="url(#mask0_586_25871)">
<path d="M944 0H0V505.997H944V0Z" fill="url(#paint0_radial_586_25871)"/>
<g opacity="0.4">
<path opacity="0.3" d="M-390.837 217.024C-407.642 279.592 -395.399 353.897 -352.082 402.078C-318.236 439.723 -265.546 452.864 -222.341 479.248C-157.848 518.638 -116.339 586.368 -58.5665 635.087C-13.7011 672.928 42.5032 699.231 101.164 700.876C159.832 702.524 220.43 677.152 254.186 629.144C287.239 582.124 292.166 519.699 325.296 472.735C370.892 408.096 462.172 383.375 497.601 312.649C528.778 250.418 501.943 169.383 446.941 126.736C391.939 84.089 315.932 75.7972 248.024 91.0686C202.298 101.35 157.656 121.504 110.852 118.966C50.6792 115.707 -0.582726 75.9305 -57.4015 55.8584C-129.593 30.3547 -212.861 38.3306 -278.898 77.0697C-344.932 115.801 -377.084 165.823 -390.837 217.024Z" fill="url(#paint1_linear_586_25871)"/>
<path opacity="0.6" d="M-400.574 231.436C-414.515 294.704 -398.902 368.376 -353.439 414.535C-317.914 450.602 -264.681 461.331 -220.32 485.722C-154.102 522.137 -109.554 587.908 -49.6246 633.947C-3.08388 669.707 54.2591 693.426 112.933 692.4C171.616 691.376 230.997 663.273 262.533 613.779C293.413 565.304 295.494 502.719 326.453 454.297C369.06 387.65 459.12 358.801 491.294 286.536C519.607 222.951 489.114 143.22 432.228 103.12C375.342 63.0205 299.036 58.196 231.894 76.5416C186.683 88.893 143.004 111.057 96.1332 110.652C35.8746 110.135 -17.1442 72.7313 -74.8174 55.2655C-148.094 33.0731 -230.913 44.8297 -295.119 86.5338C-359.322 128.23 -389.165 179.662 -400.574 231.436Z" fill="url(#paint2_linear_586_25871)"/>
<g style="mix-blend-mode:overlay" opacity="0.8">
<path d="M-372.127 312.961C-378.719 377.41 -354.76 448.804 -304.303 489.445C-264.877 521.199 -210.763 525.753 -163.899 544.894C-93.9406 573.474 -42.143 633.701 22.6714 672.564C73.0064 702.75 132.691 719.734 190.861 711.986C249.039 704.238 304.805 669.51 330.455 616.726C355.573 565.028 350.461 502.618 375.663 450.964C410.344 379.871 496.501 340.883 520.175 265.405C541.008 198.991 501.571 123.285 440.461 89.9742C379.352 56.6632 302.996 60.6223 238.401 86.5477C194.905 104.003 154.056 131.031 107.448 136.003C47.5283 142.401 -9.43059 111.326 -68.7264 100.59C-144.065 86.9485 -224.989 108.126 -283.988 156.919C-342.986 205.704 -366.732 260.22 -372.127 312.961Z" fill="url(#paint3_linear_586_25871)"/>
</g>
<g style="mix-blend-mode:overlay">
<path d="M-372.127 312.961C-378.719 377.41 -354.76 448.804 -304.303 489.445C-264.877 521.199 -210.763 525.753 -163.898 544.894C-93.9406 573.474 -42.1427 633.701 22.6717 672.564C73.0066 702.75 132.691 719.734 190.861 711.986C249.039 704.238 304.805 669.51 330.456 616.726C355.573 565.028 350.461 502.618 375.663 450.964C410.344 379.871 496.501 340.883 520.175 265.405C541.008 198.991 501.572 123.285 440.461 89.9742C379.352 56.6632 302.996 60.6223 238.401 86.5477C194.905 104.003 154.057 131.031 107.449 136.003C47.5284 142.401 -9.43034 111.326 -68.7263 100.59C-144.065 86.9485 -224.989 108.126 -283.988 156.919C-342.985 205.704 -366.732 260.22 -372.127 312.961Z" fill="url(#paint4_linear_586_25871)"/>
</g>
<g style="mix-blend-mode:overlay">
<path d="M-407.947 216.081C-424.454 278.728 -411.858 352.974 -368.314 400.949C-334.289 438.433 -281.537 451.323 -238.207 477.502C-173.528 516.585 -131.697 584.117 -73.6942 632.561C-28.6496 670.187 27.679 696.223 86.3467 697.59C145.022 698.959 205.499 673.299 239.026 625.132C271.856 577.955 276.485 515.507 309.393 468.387C354.68 403.531 445.842 378.377 480.935 307.484C511.815 245.104 484.596 164.199 429.392 121.813C374.188 79.4277 298.142 71.4975 230.308 87.0911C184.631 97.5898 140.085 117.956 93.2702 115.64C33.0822 112.668 -18.368 73.1348 -75.2816 53.333C-147.593 28.1726 -230.822 36.5441 -296.674 75.5966C-362.524 114.641 -394.438 164.815 -407.947 216.081Z" fill="url(#paint5_linear_586_25871)"/>
</g>
</g>
<g opacity="0.5">
<path opacity="0.3" d="M787.563 738.718C851.529 704.051 915.53 666.808 963.441 615.082C1011.35 563.349 1041.48 494.279 1026.74 429.375C1016.64 384.899 986.717 346.353 951.693 314.247C914.66 280.305 867.484 250.922 814.054 250.448C778.399 250.134 743.84 262.727 708.33 266.714C637.049 274.718 568.296 247.908 497.96 237.266C475.765 233.909 452.66 232.195 430.711 237.563C379.217 250.151 347.259 298.022 333.181 344.464C293.146 476.585 356.467 618.343 459.972 714.987C479.064 732.813 499.697 749.62 523.738 761.697C621.974 811.042 743.649 762.53 787.555 738.727L787.563 738.718Z" fill="url(#paint6_linear_586_25871)"/>
<path opacity="0.3" d="M813.841 723.84C876.284 686.939 938.656 647.465 984.306 594.11C1029.94 540.748 1057.03 470.721 1039.43 406.462C1027.36 362.429 995.73 325.026 959.283 294.236C920.748 261.683 872.267 234.048 818.806 235.493C783.127 236.461 749.116 250.272 713.775 255.527C642.832 266.077 572.883 241.783 502.063 233.687C479.715 231.132 456.529 230.251 434.813 236.398C383.863 250.812 354.01 299.745 341.976 346.61C307.758 479.931 377.343 619.162 485.132 711.917C505.013 729.025 526.393 745.059 550.97 756.252C651.403 801.981 770.964 749.186 813.833 723.85L813.841 723.84Z" fill="url(#paint7_linear_586_25871)"/>
<g style="mix-blend-mode:overlay">
<path d="M809.16 723.331C871.603 686.43 933.975 646.956 979.626 593.601C1025.26 540.24 1052.35 470.212 1034.75 405.954C1022.68 361.92 991.05 324.518 954.603 293.727C916.068 261.175 867.587 233.539 814.125 234.985C778.448 235.953 744.437 249.764 709.095 255.018C638.152 265.568 568.204 241.275 497.383 233.178C475.035 230.624 451.85 229.741 430.133 235.889C379.183 250.304 349.33 299.237 337.297 346.101C303.079 479.423 372.664 618.654 480.453 711.408C500.333 728.517 521.713 744.551 546.291 755.744C646.723 801.475 766.285 748.677 809.152 723.341L809.16 723.331Z" fill="url(#paint8_linear_586_25871)"/>
</g>
<g style="mix-blend-mode:overlay">
<path d="M809.16 723.331C871.603 686.43 933.975 646.956 979.626 593.601C1025.26 540.24 1052.35 470.212 1034.75 405.954C1022.68 361.92 991.05 324.518 954.603 293.727C916.068 261.175 867.587 233.539 814.125 234.985C778.448 235.953 744.437 249.764 709.095 255.018C638.152 265.568 568.204 241.275 497.383 233.178C475.035 230.624 451.85 229.741 430.133 235.889C379.183 250.304 349.33 299.237 337.297 346.101C303.079 479.423 372.664 618.654 480.453 711.408C500.333 728.517 521.713 744.551 546.291 755.744C646.723 801.475 766.285 748.677 809.152 723.341L809.16 723.331Z" fill="url(#paint9_linear_586_25871)"/>
</g>
<g style="mix-blend-mode:overlay">
<path d="M797.308 723.87C859.751 686.969 922.123 647.494 967.773 594.14C1013.41 540.779 1040.49 470.751 1022.9 406.493C1010.83 362.459 979.198 325.056 942.75 294.267C904.215 261.714 855.735 234.078 802.273 235.524C766.595 236.491 732.584 250.303 697.242 255.557C626.299 266.107 556.35 241.814 485.53 233.717C463.182 231.162 439.997 230.281 418.28 236.427C367.33 250.843 337.476 299.776 325.443 346.64C291.226 479.962 360.811 619.192 468.599 711.946C488.48 729.055 509.859 745.09 534.437 756.283C634.869 802.013 754.431 749.216 797.3 723.88L797.308 723.87Z" fill="url(#paint10_linear_586_25871)"/>
</g>
</g>
<g opacity="0.5">
<path opacity="0.3" d="M514.31 296.532C388.133 257.847 341.568 148.81 354.334 36.959C359.523 -8.44309 381.081 -123.944 405.596 -167.253C500.016 -334.115 565.641 -441.683 692.178 -596.822C745.52 -662.228 826.346 -693.585 869.902 -704.273C920.604 -716.702 965.29 -715.744 1007.33 -704.25C1071.98 -686.596 1107.19 -633.558 1126.62 -580.232C1146.06 -526.905 1154.88 -469.101 1188.36 -421.929C1273.38 -302.153 1504.29 -265.416 1517.19 -120.666C1526.94 -11.3454 1395.88 92.1617 1263.42 138.198C1130.97 184.234 988.716 194.469 856.129 240.14C793.615 261.663 733.35 291.024 668.768 304.214C604.169 317.409 534.784 302.799 514.305 296.519L514.31 296.532Z" fill="url(#paint11_linear_586_25871)"/>
<path opacity="0.6" d="M527.159 307.368C400.983 268.683 354.418 159.645 367.184 47.7949C372.373 2.39292 393.931 -113.108 418.445 -156.417C512.866 -323.28 578.49 -430.847 705.027 -585.987C758.369 -651.392 839.194 -682.749 882.757 -693.437C933.452 -705.865 978.138 -704.909 1020.19 -693.414C1084.83 -675.76 1120.04 -622.722 1139.47 -569.396C1158.9 -516.069 1167.73 -458.265 1201.21 -411.093C1286.23 -291.317 1517.13 -254.58 1530.04 -109.83C1539.79 -0.509424 1408.72 102.998 1276.27 149.034C1143.82 195.07 1001.56 205.306 868.977 250.977C806.462 272.498 746.2 301.86 681.617 315.05C617.018 328.245 547.633 313.635 527.155 307.355L527.159 307.368Z" fill="url(#paint12_linear_586_25871)"/>
<g style="mix-blend-mode:overlay" opacity="0.7">
<path d="M540.684 312.315C414.508 273.63 367.943 164.592 380.709 52.742C385.898 7.34004 407.456 -108.161 431.97 -151.47C526.391 -318.332 592.016 -425.899 718.553 -581.04C771.895 -646.444 852.721 -677.802 896.277 -688.49C946.979 -700.918 991.665 -699.961 1033.71 -688.467C1098.36 -670.813 1133.57 -617.775 1153 -564.448C1172.43 -511.122 1181.26 -453.318 1214.73 -406.146C1299.75 -286.37 1530.66 -249.633 1543.56 -104.883C1553.31 4.43771 1422.25 107.945 1289.8 153.981C1157.35 200.017 1015.09 210.253 882.504 255.923C819.99 277.445 759.725 306.808 695.143 319.997C630.544 333.192 561.158 318.582 540.68 312.302L540.684 312.315Z" fill="url(#paint13_linear_586_25871)"/>
</g>
<g style="mix-blend-mode:overlay">
<path d="M540.684 312.315C414.508 273.63 367.943 164.592 380.709 52.742C385.898 7.34004 407.456 -108.161 431.97 -151.47C526.391 -318.332 592.016 -425.899 718.553 -581.04C771.895 -646.444 852.721 -677.802 896.277 -688.49C946.979 -700.918 991.665 -699.961 1033.71 -688.467C1098.36 -670.813 1133.57 -617.775 1153 -564.448C1172.43 -511.122 1181.26 -453.318 1214.73 -406.146C1299.75 -286.37 1530.66 -249.633 1543.56 -104.883C1553.31 4.43771 1422.25 107.945 1289.8 153.981C1157.35 200.017 1015.09 210.253 882.504 255.923C819.99 277.445 759.725 306.808 695.143 319.997C630.544 333.192 561.158 318.582 540.68 312.302L540.684 312.315Z" fill="url(#paint14_linear_586_25871)"/>
</g>
<g style="mix-blend-mode:overlay">
<path d="M535.65 310.312C409.472 271.627 362.909 162.589 375.674 50.7384C380.863 5.33636 402.421 -110.164 426.936 -153.474C521.356 -320.336 586.981 -427.903 713.518 -583.043C766.859 -648.448 847.684 -679.806 891.248 -690.493C941.942 -702.922 986.628 -701.965 1028.68 -690.471C1093.32 -672.817 1128.53 -619.779 1147.96 -566.452C1167.4 -513.126 1176.22 -455.321 1209.7 -408.15C1294.72 -288.373 1525.63 -251.636 1538.53 -106.886C1548.28 2.43404 1417.22 105.941 1284.76 151.977C1152.31 198.014 1010.05 208.249 877.467 253.92C814.953 275.442 754.69 304.803 690.108 317.993C625.508 331.188 556.124 316.578 535.646 310.298L535.65 310.312Z" fill="url(#paint15_linear_586_25871)"/>
</g>
</g>
<path d="M499.996 210.743C373.246 173.98 325.029 65.6626 336.094 -46.369C340.592 -91.8448 360.392 -207.66 384.245 -251.337C476.118 -419.615 540.101 -528.167 664.265 -685.212C716.607 -751.421 796.951 -784.003 840.34 -795.348C890.837 -808.551 935.539 -808.274 977.758 -797.419C1042.66 -780.748 1078.67 -728.252 1098.91 -675.227C1119.15 -622.202 1128.85 -564.538 1163.05 -517.881C1249.87 -399.411 1481.32 -366.187 1496.42 -221.65C1507.83 -112.491 1378.36 -7.00337 1246.62 41.0405C1114.88 89.0846 972.793 101.481 840.917 149.162C778.738 171.632 718.927 201.906 654.553 216.075C590.162 230.251 520.563 216.698 499.992 210.729L499.996 210.743Z" stroke="url(#paint16_linear_586_25871)" stroke-width="2" stroke-miterlimit="10" stroke-linecap="round"/>
<path d="M730.142 205.166C733.362 186.225 720.618 168.26 701.677 165.04C682.736 161.82 664.771 174.564 661.551 193.505C658.331 212.445 671.075 230.41 690.016 233.63C708.957 236.85 726.921 224.106 730.142 205.166Z" fill="#FF8B00"/>
<path d="M689.041 188.249C689.238 188.402 689.431 188.387 689.593 188.217L690.332 187.443C690.495 187.273 690.494 187.075 690.324 186.912C689.112 185.871 687.252 185.523 685.434 186.227C682.356 187.421 681.579 190.575 682.669 193.389C683.764 196.215 686.387 198.099 689.532 196.88C691.376 196.166 692.546 194.735 692.697 192.723C692.713 192.488 692.572 192.36 692.337 192.344L691.246 192.324C691.011 192.308 690.882 192.45 690.866 192.684C690.761 193.87 690.239 194.806 689.004 195.283C686.695 196.178 685.149 194.198 684.59 192.752C683.962 191.132 683.667 188.637 686.129 187.744C687.299 187.337 688.194 187.6 689.041 188.249ZM695.188 193.972C695.275 194.197 695.441 194.27 695.666 194.183L696.728 193.772C696.953 193.684 697.027 193.518 696.939 193.292L695.32 189.112L700.797 191.905C701 191.994 701.253 192.018 701.465 191.936L703.071 191.314C703.283 191.231 703.282 191.11 703.08 191.02L696.624 187.829L698.849 181.639C698.929 181.411 698.853 181.334 698.627 181.42L697.154 181.991C696.929 182.079 696.766 182.249 696.687 182.478L694.826 187.839L693.294 183.884C693.207 183.659 693.04 183.585 692.815 183.673L691.753 184.084C691.528 184.172 691.455 184.337 691.542 184.563L695.188 193.972ZM687.192 217.419C687.279 217.644 687.445 217.718 687.671 217.63L688.811 217.188C689.038 217.1 689.11 216.935 689.023 216.709L685.82 208.442L688.367 207.455C688.593 207.368 688.666 207.202 688.579 206.976L688.27 206.18C688.183 205.954 688.017 205.881 687.792 205.969L680.878 208.648C680.652 208.735 680.58 208.901 680.667 209.126L680.975 209.922C681.063 210.148 681.229 210.221 681.454 210.134L683.989 209.151L687.192 217.419ZM692.569 207.75C692.482 207.524 692.316 207.452 692.09 207.539L691.082 207.929C690.856 208.017 690.783 208.183 690.87 208.408L693.437 215.03C693.524 215.255 693.69 215.329 693.915 215.241L694.924 214.85C695.149 214.763 695.223 214.597 695.135 214.372L692.569 207.75ZM691.771 205.099C691.539 204.501 690.89 204.204 690.292 204.435C689.709 204.662 689.416 205.324 689.647 205.921C689.879 206.519 690.537 206.798 691.12 206.572C691.718 206.34 692.002 205.696 691.771 205.099ZM697.085 213.616C697.172 213.841 697.338 213.915 697.564 213.827L698.572 213.437C698.798 213.35 698.871 213.184 698.784 212.958L697.277 209.07C697.005 208.366 696.764 206.919 698.037 206.425C699.112 206.008 699.577 206.973 699.809 207.569L701.491 211.909C701.578 212.134 701.744 212.208 701.969 212.12L702.978 211.73C703.203 211.642 703.277 211.477 703.189 211.251L701.631 207.23C701.359 206.527 701.196 205.201 702.457 204.713C703.558 204.286 704.036 205.245 704.268 205.842L705.949 210.182C706.037 210.407 706.202 210.48 706.428 210.393L707.436 210.002C707.662 209.914 707.735 209.749 707.647 209.523L705.802 204.76C705.375 203.658 704.2 202.358 702.329 203.083C701.2 203.52 700.697 204.189 700.441 205.066C699.815 204.591 699.025 204.363 698.016 204.754C697.02 205.14 696.455 205.847 696.286 206.63C696.219 206.458 696.144 206.304 696.069 206.149C695.968 205.929 695.789 205.861 695.563 205.949L694.595 206.324C694.37 206.411 694.309 206.572 694.411 206.792C694.542 207.093 694.673 207.392 694.796 207.711L697.085 213.616ZM715.124 203.299C715.337 203.217 715.426 203.015 715.349 202.815C714.49 200.599 712.445 199.3 709.991 200.251C707.669 201.152 706.773 203.33 707.683 205.679C708.536 207.882 710.608 209.094 713.156 208.106C714.589 207.551 715.548 206.401 715.799 205.159C715.838 204.945 715.705 204.798 715.47 204.783L714.667 204.758C714.445 204.737 714.311 204.866 714.256 205.116C714.115 205.659 713.64 206.362 712.619 206.757C711.199 207.308 710.049 206.548 709.577 205.448L715.124 203.299ZM709.097 204.169C708.848 203.212 709.231 202.072 710.465 201.594C711.725 201.106 712.73 201.571 713.232 202.552L709.097 204.169Z" fill="white"/>
<path d="M351.082 83.8311C353.265 83.8193 355.025 82.0399 355.013 79.8567C355.002 77.6735 353.222 75.9132 351.039 75.925C348.856 75.9368 347.095 77.7161 347.107 79.8993C347.119 82.0825 348.898 83.8428 351.082 83.8311Z" fill="#FF8B00" stroke="#FF8B00" stroke-width="2"/>
<path d="M810.171 131.096C812.472 127.694 816.71 126.163 820.655 127.305L843.124 133.802C847.077 134.944 849.844 138.498 849.979 142.606L850.738 165.985C850.872 170.093 848.35 173.82 844.484 175.217L822.481 183.168C818.615 184.566 814.29 183.315 811.768 180.071L797.411 161.607C794.889 158.362 794.738 153.862 797.047 150.459L810.171 131.096Z" fill="#FF8B00"/>
<path d="M818.853 144.666C819.042 144.824 819.24 144.814 819.406 144.648L820.157 143.891C820.323 143.725 820.331 143.526 820.165 143.359C818.979 142.29 817.129 141.901 815.295 142.563C812.188 143.685 811.342 146.822 812.362 149.659C813.397 152.51 815.975 154.453 819.145 153.307C821.003 152.634 822.205 151.231 822.402 149.223C822.426 148.988 822.292 148.857 822.055 148.835L820.964 148.791C820.726 148.77 820.6 148.908 820.576 149.143C820.442 150.325 819.896 151.248 818.655 151.698C816.323 152.54 814.828 150.525 814.299 149.066C813.706 147.433 813.468 144.932 815.951 144.095C817.129 143.714 818.022 143.998 818.853 144.666ZM824.869 150.527C824.948 150.755 825.114 150.831 825.344 150.749L826.411 150.363C826.64 150.28 826.711 150.116 826.632 149.889L825.106 145.673L830.522 148.589C830.72 148.683 830.973 148.713 831.186 148.635L832.807 148.05C833.02 147.973 833.02 147.851 832.823 147.758L826.443 144.42L828.806 138.283C828.893 138.056 828.822 137.977 828.593 138.059L827.107 138.596C826.877 138.678 826.711 138.844 826.624 139.071L824.648 144.388L823.201 140.4C823.122 140.172 822.956 140.096 822.727 140.178L821.659 140.564C821.43 140.647 821.351 140.811 821.438 141.038L824.869 150.527ZM819.074 163.081C819.264 163.239 819.461 163.229 819.627 163.063L820.378 162.306C820.544 162.14 820.552 161.941 820.386 161.774C819.2 160.706 817.342 160.316 815.516 160.978C812.409 162.101 811.555 165.237 812.583 168.075C813.619 170.925 816.196 172.868 819.366 171.722C821.224 171.049 822.426 169.646 822.624 167.638C822.648 167.404 822.505 167.272 822.276 167.25L821.185 167.206C820.948 167.185 820.813 167.323 820.798 167.558C820.663 168.741 820.118 169.663 818.876 170.113C816.544 170.955 815.05 168.94 814.52 167.481C813.927 165.849 813.69 163.347 816.172 162.511C817.35 162.129 818.244 162.413 819.074 163.081ZM823.082 158.666C823.003 158.439 822.837 158.361 822.608 158.444L821.588 158.811C821.367 158.893 821.288 159.058 821.367 159.286L824.893 169.042C824.98 169.27 825.138 169.346 825.367 169.264L826.387 168.896C826.616 168.814 826.688 168.65 826.609 168.423L823.082 158.666ZM834.625 165.918C834.831 165.845 834.91 165.664 834.823 165.454C834.697 165.151 834.586 164.888 834.483 164.607L832.309 158.584C832.23 158.357 832.064 158.28 831.835 158.362L830.815 158.73C830.593 158.812 830.514 158.976 830.593 159.203L831.937 162.924C832.396 164.183 832.238 165.42 831.123 165.822C830.19 166.16 829.51 165.754 829.091 164.589L827.541 160.306C827.462 160.079 827.296 160.002 827.067 160.084L826.055 160.452C825.826 160.534 825.747 160.698 825.834 160.926L827.557 165.704C828.134 167.296 829.423 168.057 831.091 167.452C831.953 167.142 832.673 166.426 832.918 165.596C832.981 165.757 833.052 165.913 833.123 166.068C833.234 166.287 833.408 166.358 833.637 166.276L834.625 165.918ZM834.768 154.442C834.681 154.215 834.523 154.138 834.293 154.22L833.273 154.588C833.052 154.67 832.973 154.834 833.052 155.062L836.199 163.761C836.325 164.123 836.436 164.462 836.555 164.828C836.634 165.056 836.784 165.138 837.013 165.056L838.001 164.697C838.215 164.62 838.31 164.419 838.254 164.214C838.231 164.102 838.183 163.981 838.152 163.888L838.254 163.849C838.879 164.229 839.978 164.301 840.792 164.006C843.298 163.101 843.876 160.804 843.125 158.716C842.421 156.79 840.563 155.162 838.009 156.085C837.005 156.448 836.333 157.19 836.088 157.808L835.993 157.842L834.768 154.442ZM841.393 159.327C841.796 160.452 841.788 162.059 840.144 162.654C838.563 163.224 837.464 162.122 837.029 160.904C836.515 159.486 836.863 158.072 838.294 157.555C839.717 157.042 840.863 157.881 841.393 159.327Z" fill="white"/>
<path d="M876.796 142.312C879.416 142.312 881.54 140.188 881.54 137.568C881.54 134.948 879.416 132.824 876.796 132.824C874.177 132.824 872.053 134.948 872.053 137.568C872.053 140.188 874.177 142.312 876.796 142.312Z" fill="white" stroke="#FEAC49" stroke-width="2"/>
<path d="M363.016 665.773C385.955 690.887 418.047 705.982 450.838 715.054C572.248 748.654 664.229 703.899 737.935 601.737C757.164 575.087 786.652 537.452 828.127 524.749C844.01 519.884 899.528 519.824 915.372 514.827C974.257 496.264 998.656 420.975 972.85 364.885C952.934 321.585 890.649 288.259 843.331 282.599C796.012 276.939 760.262 295.06 712.963 289.281C627.898 278.87 486.379 221.206 405.458 249.418C342.827 271.258 305.08 348.808 304.675 504.074C304.492 574.462 326.381 625.65 363.018 665.763L363.016 665.773Z" stroke="url(#paint17_linear_586_25871)" stroke-width="2" stroke-miterlimit="10" stroke-linecap="round"/>
<path d="M866.677 285.703C866.922 288.002 865.262 290.066 862.961 290.313C860.661 290.56 858.597 288.897 858.352 286.598C858.107 284.299 859.767 282.236 862.068 281.988C864.369 281.741 866.432 283.404 866.677 285.703Z" fill="#E85298" stroke="#E85298" stroke-width="2"/>
<path d="M315.01 413.952C315.304 416.685 313.327 419.139 310.593 419.433C307.861 419.726 305.407 417.749 305.113 415.016C304.82 412.283 306.797 409.829 309.53 409.536C312.262 409.242 314.716 411.219 315.01 413.952Z" fill="white" stroke="url(#paint18_linear_586_25871)" stroke-width="2" stroke-miterlimit="10" stroke-linecap="round"/>
<path d="M653.906 269.726C659.281 274.671 657.286 283.58 650.316 285.762L615.867 296.545C608.897 298.727 602.179 292.546 603.774 285.418L611.66 250.193C613.256 243.065 621.968 240.339 627.343 245.284L653.906 269.726Z" fill="#E85298"/>
<path d="M627.398 266.042L625.635 265.53L620.198 273.227L619.732 263.815L617.969 263.303L618.657 274.914L620.598 275.478L627.398 266.042ZM627.451 277.468L630.507 266.945L628.812 266.453L625.756 276.976L627.451 277.468ZM639.057 272.867C639.72 270.584 638.488 269.263 636.425 268.664L632.735 267.592L629.679 278.115L631.373 278.608L632.588 274.426L634.583 275.005C636.647 275.605 638.394 275.149 639.057 272.867ZM637.363 272.374C636.942 273.823 635.762 273.806 634.49 273.437L633.001 273.004L634.017 269.506L635.506 269.938C636.778 270.308 637.783 270.926 637.363 272.374Z" fill="white"/>
<path d="M833.547 274.981C830.385 249.983 807.558 232.282 782.561 235.444C757.563 238.605 739.862 261.432 743.023 286.43C746.185 311.427 769.012 329.129 794.009 325.967C819.007 322.806 836.708 299.978 833.547 274.981Z" fill="#E85298"/>
<path d="M777.99 277.786L776.614 266.915L774.087 267.235L772.123 276.764L767.847 268.024L765.319 268.343L766.694 279.215L768.417 278.997L767.319 270.314L771.345 278.555L773.321 278.305L775.169 269.321L776.267 278.004L777.99 277.786ZM787.2 274.857L785.523 274.409C785.244 275.147 784.678 275.664 783.689 275.789C782.419 275.95 781.452 275.226 781.071 274.026L787.438 273.221C787.423 272.993 787.395 272.767 787.372 272.583C787.05 270.042 785.236 268.622 782.821 268.927C780.379 269.236 778.862 271.077 779.183 273.619C779.505 276.16 781.432 277.566 783.875 277.257C785.682 277.028 786.689 276.141 787.2 274.857ZM783.007 270.396C784.179 270.247 785.09 270.878 785.417 271.984L780.927 272.552C781.054 271.403 781.807 270.548 783.007 270.396ZM797.212 275.283L795.813 264.2L794.057 264.422L794.571 268.488C793.884 267.916 792.919 267.65 791.804 267.791C789.685 268.059 788.208 269.881 788.531 272.436C788.854 274.992 790.737 276.389 792.856 276.121C793.971 275.98 794.84 275.483 795.378 274.741L795.504 275.499L797.212 275.283ZM794.959 271.624C795.188 273.459 794.152 274.465 792.895 274.624C791.725 274.773 790.508 274.008 790.281 272.215C790.055 270.422 791.045 269.379 792.215 269.231C793.472 269.072 794.722 269.789 794.959 271.624ZM801.221 274.848L800.224 266.942L798.469 267.163L799.473 275.069L801.221 274.848ZM800.169 264.453C800.09 263.831 799.513 263.388 798.896 263.466C798.271 263.545 797.829 264.117 797.908 264.738C797.987 265.36 798.556 265.804 799.181 265.725C799.797 265.647 800.24 265.074 800.169 264.453ZM810.281 273.559L809.656 268.66C809.364 266.345 807.372 265.88 805.854 266.014C804.581 266.133 803.411 266.581 802.391 267.8L803.537 268.789C804.217 268.043 805.063 267.563 805.925 267.497C806.763 267.434 807.751 267.61 807.925 269.008L807.949 269.206C805.537 268.709 802.438 269.659 802.77 272.271C802.984 273.937 804.249 274.68 806.217 274.432C807.245 274.301 808.051 273.856 808.565 273.187L808.668 273.763L810.281 273.559ZM806.328 272.954C805.442 273.066 804.628 272.897 804.525 272.063C804.351 270.68 806.028 270.325 808.123 270.548L808.21 271.281C808.312 272.1 807.403 272.818 806.328 272.954ZM768.969 293.777L767.263 293.333C766.887 294.672 766.023 295.556 764.682 295.725C762.607 295.987 760.917 294.423 760.61 291.994C760.303 289.566 761.55 287.629 763.625 287.366C764.966 287.197 766.021 287.824 766.711 288.971L768.252 288.115C767.139 286.348 765.5 285.637 763.439 285.898C760.347 286.29 758.445 288.94 758.859 292.215C759.273 295.491 761.776 297.584 764.868 297.193C766.929 296.933 768.338 295.822 768.969 293.777ZM774.769 287.549C773.029 287.511 772.186 288.106 771.691 288.957L771.563 288.17L769.854 288.386L770.845 296.222L772.596 296.001L772.025 291.482C771.833 289.972 772.935 289.159 774.694 289.223L774.769 287.549ZM783.579 292.847L781.901 292.4C781.621 293.138 781.055 293.654 780.067 293.779C778.796 293.94 777.83 293.215 777.448 292.016L783.816 291.21C783.802 290.983 783.773 290.757 783.749 290.573C783.428 288.032 781.613 286.612 779.199 286.917C776.756 287.226 775.239 289.068 775.561 291.609C775.882 294.151 777.81 295.556 780.252 295.247C782.06 295.019 783.066 294.131 783.579 292.847ZM779.385 288.386C780.557 288.238 781.468 288.868 781.795 289.975L777.305 290.542C777.432 289.393 778.185 288.537 779.385 288.386ZM792.65 293.321L792.026 288.422C791.733 286.106 789.741 285.641 788.223 285.777C786.947 285.894 785.784 286.343 784.762 287.562L785.905 288.551C786.585 287.805 787.429 287.325 788.295 287.259C789.134 287.196 790.117 287.373 790.294 288.771L790.319 288.968C787.903 288.47 784.81 289.421 785.141 292.033C785.351 293.699 786.622 294.442 788.584 294.193C789.615 294.063 790.419 293.617 790.935 292.95L791.037 293.525L792.65 293.321ZM788.699 292.716C787.809 292.829 786.999 292.659 786.893 291.826C786.718 290.442 788.394 290.086 790.489 290.309L790.581 291.044C790.682 291.863 789.772 292.581 788.699 292.716ZM798.991 292.691L798.643 291.243C798.359 291.351 798.05 291.433 797.797 291.465C797.165 291.545 796.864 291.311 796.769 290.591L796.248 286.468L798.074 286.237L797.884 284.769L796.066 284.999L795.734 282.402L793.986 282.624L794.311 285.221L792.8 285.412L792.99 286.88L794.5 286.69L795.07 291.179C795.243 292.577 796.161 293.163 797.686 292.97C798.153 292.912 798.612 292.811 798.991 292.691ZM802.478 292.221L801.481 284.315L799.726 284.536L800.73 292.442L802.478 292.221ZM801.426 281.826C801.347 281.204 800.77 280.761 800.153 280.839C799.529 280.917 799.086 281.491 799.165 282.111C799.244 282.733 799.813 283.177 800.438 283.098C801.054 283.02 801.505 282.447 801.426 281.826ZM812.131 286.985C811.807 284.443 809.878 283.037 807.435 283.346C804.992 283.655 803.474 285.497 803.798 288.038C804.122 290.58 806.051 291.985 808.486 291.676C810.929 291.367 812.447 289.526 812.131 286.985ZM810.376 287.206C810.574 288.773 809.775 290.022 808.304 290.208C806.834 290.394 805.751 289.383 805.545 287.816C805.348 286.249 806.154 285 807.625 284.814C809.087 284.629 810.178 285.639 810.376 287.206ZM821.381 289.831L820.765 284.974C820.488 282.8 819.041 281.764 817.065 282.143C816.139 282.317 815.436 282.778 815.025 283.348L814.914 282.688L813.191 282.906L814.179 290.742L815.934 290.52L815.373 286.101C815.215 284.859 815.918 283.837 817.112 283.615C818.314 283.39 818.875 284.08 819.057 285.52L819.626 290.052L821.381 289.831Z" fill="white"/>
<path d="M404.328 225.984L371.237 241.382C360.438 246.407 355.757 259.235 360.782 270.034C365.808 280.833 378.636 285.514 389.435 280.489L422.526 265.091C433.325 260.066 438.006 247.238 432.981 236.438C427.956 225.639 415.127 220.958 404.328 225.984Z" fill="#E85298"/>
<path d="M378.206 266.692L374.844 259.466L373.244 260.211L376.606 267.436L378.206 266.692ZM374.031 257.113C373.767 256.546 373.086 256.297 372.519 256.561C371.951 256.826 371.703 257.506 371.967 258.074C372.231 258.642 372.912 258.89 373.479 258.626C374.047 258.362 374.295 257.681 374.031 257.113ZM384.454 258.573L383.818 257.206L378.399 259.727L379.035 261.095L384.454 258.573ZM392.761 251.474C391.759 249.319 389.962 249.135 388.013 250.042L384.53 251.663L389.153 261.598L390.753 260.854L388.915 256.905L390.8 256.029C392.748 255.122 393.764 253.629 392.761 251.474ZM391.162 252.219C391.798 253.586 390.898 254.35 389.697 254.909L388.292 255.563L386.755 252.261L388.16 251.606C389.361 251.048 390.525 250.851 391.162 252.219ZM403.738 254.811L403.113 253.469L398.521 255.606L394.522 247.013L392.922 247.758L397.545 257.693L403.738 254.811ZM413.416 250.308L405.129 242.077L403.297 242.93L404.255 254.571L405.919 253.796L405.637 250.725L409.585 248.889L411.752 251.083L413.416 250.308ZM405.047 244.297L408.47 247.775L405.49 249.161L405.047 244.297ZM416.995 236.556L415.227 237.379L414.75 243.032L410.118 239.756L408.35 240.578L414.653 244.913L416.495 248.874L418.096 248.13L416.253 244.169L416.995 236.556Z" fill="white"/>
<path d="M-384.793 253.952C-395.683 317.816 -376.557 390.654 -328.932 434.581C-291.718 468.901 -238.031 477.066 -192.553 499.301C-124.664 532.499 -77.0132 596.058 -14.9449 639.17C33.2571 672.657 91.6713 693.599 150.229 689.759C208.795 685.923 266.76 655.005 295.886 604.055C324.406 554.155 323.483 491.543 352.085 441.691C391.446 373.078 480.02 339.943 508.692 266.218C533.922 201.348 499.64 123.172 440.897 85.8462C382.154 48.5205 305.704 47.3608 239.519 68.9052C194.952 83.4103 152.386 107.644 105.55 109.486C45.3359 111.86 -9.41554 77.0424 -67.8601 62.3624C-142.117 43.7095 -224.276 59.4243 -286.409 104.159C-348.539 148.886 -375.881 201.692 -384.793 253.952Z" stroke="url(#paint19_linear_586_25871)" stroke-width="2" stroke-miterlimit="10" stroke-linecap="round"/>
<path d="M403.771 105.032C421.128 112.192 441.003 103.925 448.163 86.5675C455.322 69.2102 447.055 49.3355 429.698 42.1761C412.34 35.0167 392.466 43.2837 385.306 60.641C378.147 77.9983 386.414 97.873 403.771 105.032Z" fill="url(#paint20_radial_586_25871)"/>
<path d="M420.835 62.0417C420.845 62.2905 420.979 62.4294 421.214 62.4448L422.282 62.5115C422.517 62.5269 422.668 62.399 422.684 62.1639C422.701 60.5659 421.771 58.9187 420.062 57.9803C417.168 56.391 414.253 57.8263 412.8 60.4709C411.341 63.1278 411.587 66.3473 414.543 67.9708C416.277 68.9229 418.125 68.8986 419.762 67.7198C419.953 67.5807 419.96 67.3898 419.821 67.1998L419.134 66.3517C418.995 66.1616 418.804 66.1542 418.614 66.2934C417.639 66.9755 416.586 67.177 415.426 66.5399C413.256 65.348 413.777 62.8906 414.524 61.5309C415.359 60.0091 417.08 58.1774 419.347 59.4877C420.412 60.121 420.787 60.9762 420.835 62.0417ZM420.409 70.429C420.293 70.6411 420.343 70.815 420.555 70.9315L421.553 71.4795C421.766 71.5959 421.94 71.5453 422.056 71.3333L424.214 67.4039L425.6 73.3934C425.662 73.6059 425.807 73.8153 426.007 73.9249L427.516 74.7538C427.715 74.8634 427.808 74.7842 427.746 74.5716L426.035 67.576L432.205 65.2982C432.431 65.2113 432.442 65.1034 432.23 64.987L430.845 64.2266C430.633 64.1102 430.398 64.0948 430.172 64.1816L424.871 66.2064L426.913 62.4891C427.029 62.277 426.978 62.1031 426.766 61.9867L425.768 61.4387C425.556 61.3222 425.382 61.3729 425.266 61.5849L420.409 70.429ZM400.187 68.2902C400.267 67.701 399.997 67.13 399.485 66.8492C398.587 66.356 397.71 66.6216 397.238 67.4823L392.991 75.2162C392.874 75.4283 392.925 75.6022 393.137 75.7186L394.06 76.2256C394.272 76.342 394.446 76.2914 394.563 76.0793L398.364 69.1562C398.454 68.994 398.485 68.9953 398.458 69.1916L397.079 77.2018C397.026 77.4481 397.121 77.6301 397.332 77.7465L398.131 78.1849C398.343 78.3014 398.548 78.2838 398.726 78.106L404.721 72.6304C404.833 72.5137 404.871 72.5342 404.789 72.684L400.987 79.6071C400.871 79.819 400.921 79.9929 401.133 80.1092L402.081 80.6302C402.293 80.7464 402.467 80.6958 402.584 80.4839L406.83 72.7499C407.303 71.8892 407.044 71.0003 406.183 70.5276C405.647 70.2331 405.02 70.3108 404.566 70.6945L398.924 75.7952L400.187 68.2902ZM409.497 81.7473C410.208 82.1379 410.847 82.0991 411.278 81.6382C411.292 81.6129 411.318 81.5947 411.351 81.5647L410.767 84.9936C410.713 85.2403 410.808 85.4221 411.02 85.5383L412.155 86.1621C412.354 86.2712 412.491 86.2001 412.531 85.9787L414.064 75.9749C414.158 75.3289 413.851 74.7057 413.265 74.3837C412.704 74.0755 412.013 74.1507 411.519 74.5775L403.874 81.2255C403.709 81.3781 403.722 81.5315 403.922 81.6406L405.069 82.2715C405.281 82.3877 405.473 82.3632 405.677 82.1988L407.426 80.6104L409.497 81.7473ZM412.105 76.3771C412.204 76.2854 412.254 76.3128 412.23 76.4456L411.466 80.9124C411.3 80.9188 411.13 80.8745 410.942 80.7717C410.256 80.3946 409.44 79.9305 408.704 79.5257L408.654 79.4988L412.105 76.3771ZM415.283 87.4572C415.166 87.6699 415.217 87.8438 415.429 87.96L416.502 88.549C416.714 88.6652 416.888 88.6146 417.004 88.4028L421.272 80.6318L423.666 81.9466C423.878 82.0628 424.052 82.0122 424.169 81.8003L424.58 81.0516C424.697 80.8397 424.646 80.6658 424.434 80.5495L417.935 76.9807C417.723 76.8642 417.549 76.9148 417.432 77.1269L417.021 77.8753C416.905 78.0874 416.956 78.2613 417.168 78.3778L419.55 79.6862L415.283 87.4572ZM421.131 90.6687C421.014 90.8806 421.065 91.0545 421.277 91.1715L422.275 91.7194C422.487 91.8356 422.661 91.785 422.777 91.5731L424.996 87.5315L428.776 89.6069L426.557 93.6485C426.441 93.8604 426.491 94.0343 426.703 94.1514L427.701 94.6993C427.913 94.8155 428.087 94.7649 428.204 94.553L433.06 85.7083C433.177 85.4964 433.126 85.3225 432.914 85.2063L431.916 84.6584C431.704 84.5422 431.53 84.5928 431.414 84.8046L429.543 88.2098L425.764 86.1345L427.634 82.7293C427.75 82.5166 427.699 82.3427 427.488 82.2264L426.49 81.6785C426.278 81.5623 426.104 81.6129 425.988 81.8248L421.131 90.6687Z" fill="white"/>
<path d="M172.154 141.188C195.502 133.924 208.541 109.108 201.277 85.7595C194.013 62.4111 169.197 49.3722 145.848 56.6363C122.5 63.9004 109.461 88.7166 116.725 112.065C123.989 135.413 148.805 148.452 172.154 141.188Z" fill="url(#paint21_radial_586_25871)"/>
<path d="M153.891 88.0233C154.076 88.1893 154.27 88.1886 154.444 88.0304L155.233 87.3078C155.407 87.1497 155.42 86.9512 155.262 86.7773C154.123 85.6562 152.291 85.1826 150.43 85.7621C147.277 86.7425 146.288 89.8378 147.184 92.718C148.084 95.6125 150.572 97.6705 153.793 96.6687C155.682 96.0805 156.947 94.7333 157.235 92.7362C157.267 92.503 157.134 92.3646 156.9 92.333L155.813 92.2397C155.58 92.2081 155.442 92.3401 155.41 92.5733C155.225 93.749 154.639 94.6463 153.376 95.0393C151.011 95.7753 149.604 93.6944 149.143 92.2128C148.627 90.5557 148.503 88.0455 151.02 87.322C152.214 86.9947 153.09 87.3189 153.891 88.0233ZM159.634 94.1506C159.706 94.3815 159.866 94.4661 160.097 94.3941L161.184 94.0557C161.416 93.9838 161.499 93.8233 161.428 93.5924L160.096 89.312L165.371 92.4706C165.567 92.5733 165.818 92.6144 166.035 92.5465L167.68 92.0349C167.897 91.9677 167.904 91.846 167.708 91.7432L161.484 88.1206L164.126 82.0968C164.22 81.8739 164.15 81.7917 163.919 81.8628L162.41 82.3324C162.179 82.4044 162.005 82.5625 161.911 82.7863L159.691 88.0075L158.43 83.958C158.358 83.7271 158.198 83.6433 157.967 83.7152L156.88 84.0528C156.649 84.1248 156.564 84.2853 156.636 84.5161L159.634 94.1506ZM136.755 119.485C136.827 119.716 136.987 119.8 137.218 119.728L138.332 119.382C138.563 119.31 138.647 119.149 138.575 118.918L137.295 114.801L140.8 113.711C141.031 113.639 141.116 113.478 141.044 113.247L140.79 112.431C140.718 112.2 140.558 112.117 140.327 112.189L136.821 113.279L135.942 110.452L139.733 109.273C139.964 109.201 140.048 109.041 139.976 108.81L139.723 107.994C139.651 107.764 139.49 107.679 139.259 107.751L134.001 109.387C133.769 109.459 133.685 109.619 133.757 109.851L136.755 119.485ZM144.037 109.812C143.965 109.581 143.805 109.497 143.574 109.569L142.54 109.89C142.31 109.961 142.226 110.122 142.298 110.353L144.407 117.134C144.479 117.365 144.64 117.449 144.87 117.377L145.903 117.056C146.134 116.984 146.218 116.824 146.146 116.592L144.037 109.812ZM143.42 107.112C143.23 106.501 142.602 106.159 141.991 106.35C141.393 106.536 141.056 107.178 141.246 107.789C141.437 108.4 142.074 108.723 142.672 108.538C143.283 108.348 143.611 107.724 143.42 107.112ZM147.687 108.662C147.61 108.462 147.414 108.359 147.196 108.427L146.218 108.731C146.014 108.794 145.921 108.972 146.002 109.186C146.124 109.431 146.194 109.707 146.275 109.965L148.144 115.972C148.215 116.203 148.375 116.286 148.606 116.215L149.639 115.893C149.87 115.822 149.954 115.661 149.882 115.43L148.767 111.843C148.365 110.552 148.655 109.329 149.851 108.957C150.884 108.636 151.638 109.146 152.01 110.342L153.266 114.378C153.338 114.609 153.498 114.693 153.729 114.621L154.762 114.3C154.993 114.228 155.077 114.068 155.005 113.836L153.598 109.312C153.094 107.695 151.75 106.771 149.956 107.329C148.977 107.634 148.257 108.335 147.925 109.139L147.857 109.16C147.802 108.983 147.751 108.821 147.687 108.662ZM162.437 111.524C162.541 111.716 162.737 111.819 162.954 111.751L163.96 111.438C164.191 111.366 164.262 111.21 164.19 110.979C164.026 110.598 163.904 110.203 163.803 109.878L162.005 104.102C161.934 103.871 161.773 103.787 161.542 103.859L160.51 104.18C160.279 104.252 160.194 104.413 160.266 104.644L160.435 105.187L160.408 105.196C159.71 104.817 158.725 104.72 157.815 105.003C155.45 105.74 154.646 107.897 155.34 110.126C155.911 111.96 157.617 113.71 160.389 112.847C161.327 112.555 162.033 111.903 162.283 111.125C162.312 111.22 162.377 111.379 162.437 111.524ZM157.093 109.58C156.687 108.276 157.003 106.851 158.349 106.432C160.088 105.891 161.126 107.073 161.477 108.202C161.824 109.315 161.662 110.856 159.951 111.389C158.55 111.824 157.516 110.939 157.093 109.58ZM165.469 103.129C165.393 102.93 165.196 102.827 164.979 102.894L164 103.198C163.796 103.262 163.703 103.44 163.784 103.653C163.905 103.899 163.977 104.175 164.056 104.433L165.925 110.439C165.997 110.67 166.158 110.754 166.389 110.682L167.421 110.361C167.652 110.29 167.737 110.129 167.665 109.898L166.548 106.31C166.147 105.02 166.437 103.797 167.633 103.425C168.666 103.104 169.421 103.614 169.792 104.81L171.048 108.845C171.12 109.077 171.28 109.161 171.511 109.089L172.544 108.768C172.775 108.696 172.859 108.535 172.787 108.304L171.38 103.78C170.877 102.162 169.531 101.239 167.737 101.797C166.759 102.102 166.038 102.803 165.707 103.606L165.639 103.628C165.585 103.451 165.533 103.288 165.469 103.129ZM179.822 103.999C179.598 103.995 179.469 104.109 179.437 104.343C179.298 104.997 178.8 105.599 177.985 105.853C176.476 106.322 175.316 105.371 174.855 103.89C174.416 102.477 174.851 101.001 176.318 100.544C177.192 100.287 177.853 100.543 178.356 101.057C178.514 101.231 178.699 101.249 178.881 101.118L179.65 100.521C179.832 100.389 179.858 100.188 179.7 100.013C178.727 98.9449 177.273 98.7267 175.792 99.1877C173.36 99.9443 172.378 102.202 173.08 104.458C173.764 106.659 175.852 108.051 178.325 107.282C180.051 106.745 180.851 105.676 181.101 104.421C181.142 104.214 181.023 104.073 180.789 104.041L179.822 103.999ZM189.03 100.002C189.247 99.934 189.351 99.7379 189.287 99.5347C188.581 97.2649 186.629 95.8307 184.115 96.6126C181.738 97.3526 180.696 99.4652 181.444 101.87C182.146 104.126 184.13 105.475 186.739 104.664C188.207 104.207 189.242 103.126 189.577 101.903C189.631 101.693 189.508 101.537 189.274 101.506L188.475 101.427C188.255 101.39 188.113 101.51 188.041 101.756C187.864 102.288 187.341 102.957 186.295 103.282C184.841 103.735 183.746 102.898 183.35 101.769L189.03 100.002ZM182.958 100.461C182.775 99.4889 183.234 98.3773 184.497 97.9843C185.788 97.5827 186.759 98.1148 187.193 99.1276L182.958 100.461Z" fill="white"/>
<path d="M533.146 151.158C539.439 154.864 539.359 163.994 533.002 167.59L494.863 189.168C488.506 192.764 480.64 188.13 480.704 180.827L481.087 137.008C481.15 129.705 489.097 125.21 495.389 128.917L533.146 151.158Z" fill="url(#paint22_radial_586_25871)"/>
<path d="M495.293 150.037C495.51 150.16 495.699 150.118 495.836 149.926L496.454 149.053C496.591 148.861 496.562 148.665 496.37 148.528C495.019 147.674 493.13 147.599 491.432 148.559C488.559 150.185 488.247 153.418 489.732 156.045C491.225 158.683 494.092 160.167 497.027 158.507C498.749 157.533 499.7 155.948 499.559 153.935C499.541 153.7 499.383 153.594 499.148 153.612L498.065 153.751C497.83 153.769 497.723 153.928 497.742 154.162C497.809 155.351 497.427 156.352 496.275 157.003C494.12 158.222 492.304 156.487 491.54 155.136C490.685 153.626 490.032 151.199 492.339 149.959C493.437 149.386 494.362 149.518 495.293 150.037ZM502.204 154.81C502.323 155.02 502.497 155.068 502.708 154.95L503.699 154.389C503.909 154.27 503.958 154.095 503.839 153.885L501.631 149.983L507.455 151.953C507.668 152.013 507.922 151.999 508.12 151.888L509.619 151.039C509.817 150.927 509.798 150.807 509.586 150.748L502.736 148.525L504.042 142.079C504.088 141.841 504.001 141.775 503.791 141.894L502.416 142.672C502.206 142.791 502.069 142.982 502.024 143.221L500.958 148.794L498.87 145.103C498.751 144.892 498.576 144.844 498.366 144.964L497.375 145.524C497.164 145.643 497.116 145.817 497.235 146.028L502.204 154.81ZM503.944 168.708C504.154 168.589 504.203 168.415 504.084 168.204L503.684 167.498C503.565 167.288 503.39 167.239 503.18 167.358L499.91 169.208L498.495 166.706L501.951 164.751C502.161 164.632 502.209 164.457 502.09 164.247L501.67 163.504C501.55 163.293 501.376 163.244 501.165 163.364L496.372 166.075C496.162 166.195 496.113 166.37 496.232 166.58L501.2 175.362C501.32 175.572 501.494 175.621 501.705 175.501L506.572 172.748C506.783 172.628 506.832 172.454 506.712 172.243L506.292 171.5C506.172 171.29 505.998 171.241 505.787 171.36L502.257 173.358L500.674 170.558L503.944 168.708ZM508.74 162.005C508.906 162.156 509.104 162.159 509.269 162.016L510.083 161.229C510.241 161.074 510.255 160.87 510.101 160.712C508.897 159.595 507.243 159.533 505.778 160.411C503.793 161.615 503.385 163.35 504.205 164.799C504.941 166.1 506.173 166.515 508.022 166.172L509.77 165.821C510.737 165.65 511.386 165.757 511.785 166.463C512.24 167.269 512.063 168.169 510.937 168.807C509.859 169.417 508.93 169.076 508.206 168.258C508.05 168.069 507.877 168.053 507.707 168.214L506.762 169.059C506.605 169.214 506.59 169.419 506.732 169.583C508.048 171.014 509.745 171.296 511.689 170.196C513.993 168.892 514.335 166.982 513.41 165.347C512.682 164.059 511.416 163.614 509.594 164.007L507.684 164.418C506.821 164.595 506.177 164.354 505.847 163.772C505.484 163.128 505.644 162.285 506.529 161.768C507.315 161.307 508.106 161.464 508.74 162.005ZM512.975 157.107C512.856 156.897 512.681 156.849 512.47 156.968L511.48 157.528C511.269 157.647 511.221 157.822 511.34 158.033L516.308 166.815C516.428 167.025 516.602 167.073 516.813 166.954L521.978 164.032C522.188 163.913 522.236 163.738 522.118 163.528L521.669 162.735C521.55 162.525 521.375 162.476 521.165 162.595L517.312 164.775L512.975 157.107Z" fill="white"/>
<path d="M276.36 23.2251L245.501 30.1453C236.98 32.0563 231.621 40.5133 233.532 49.0346L240.453 79.893C242.364 88.4143 250.821 93.773 259.342 91.862L290.2 84.9417C298.722 83.0307 304.08 74.5737 302.169 66.0524L295.249 35.1941C293.338 26.6728 284.881 21.3141 276.36 23.2251Z" fill="url(#paint23_radial_586_25871)"/>
<path d="M263.116 46.2421C263.288 46.4224 263.481 46.4375 263.667 46.2935L264.512 45.6374C264.698 45.4935 264.728 45.2974 264.584 45.1109C263.539 43.9012 261.752 43.2811 259.849 43.7077C256.628 44.4302 255.391 47.4348 256.051 50.3788C256.715 53.3365 259.029 55.5887 262.319 54.8507C264.25 54.4178 265.619 53.1773 266.068 51.2098C266.118 50.9797 265.998 50.8318 265.768 50.7813L264.691 50.5997C264.461 50.5492 264.313 50.6699 264.263 50.9C263.983 52.0566 263.327 52.9039 262.036 53.1935C259.619 53.7353 258.384 51.5473 258.045 50.0337C257.665 48.3396 257.744 45.828 260.311 45.3106C261.529 45.0813 262.376 45.4748 263.116 46.2421ZM268.345 52.814C268.398 53.05 268.551 53.147 268.787 53.094L269.898 52.8449C270.134 52.7919 270.231 52.6389 270.178 52.4028L269.197 48.0287L274.199 51.6032C274.386 51.7217 274.633 51.783 274.855 51.7331L276.536 51.3563C276.758 51.3065 276.774 51.1861 276.588 51.0676L270.677 46.953L273.798 41.1632C273.91 40.9483 273.847 40.8605 273.61 40.9135L272.069 41.2591C271.833 41.312 271.646 41.456 271.534 41.6707L268.898 46.6956L267.97 42.5575C267.917 42.3215 267.764 42.2245 267.528 42.2775L266.417 42.5266C266.181 42.5796 266.084 42.7325 266.137 42.9686L268.345 52.814ZM251.335 66.71C251.506 66.8902 251.699 66.9053 251.886 66.7614L252.73 66.1052C252.917 65.9613 252.946 65.7653 252.802 65.5788C251.757 64.3691 249.97 63.7489 248.068 64.1756C244.846 64.898 243.609 67.9027 244.27 70.8466C244.933 73.8044 247.246 76.0566 250.538 75.3186C252.467 74.8857 253.838 73.6451 254.286 71.6777C254.336 71.4476 254.216 71.2997 253.985 71.2492L252.909 71.0676C252.679 71.017 252.531 71.1378 252.481 71.3678C252.201 72.5245 251.545 73.3717 250.254 73.6613C247.837 74.2032 246.603 72.0152 246.263 70.5016C245.883 68.8075 245.961 66.2959 248.529 65.7785C249.747 65.5492 250.594 65.9427 251.335 66.71ZM263.234 68.1542C262.677 65.6686 260.667 64.3836 258.223 64.9317C255.737 65.4891 254.498 67.5028 255.055 69.9884C255.606 72.4463 257.594 73.7653 260.08 73.2079C262.523 72.6598 263.785 70.6121 263.234 68.1542ZM261.443 68.556C261.801 70.1529 261.262 71.4552 259.762 71.7915C258.248 72.1309 257.204 71.1836 256.846 69.5867C256.488 67.9898 257.028 66.6875 258.541 66.3481C260.041 66.0118 261.084 66.959 261.443 68.556ZM272.914 70.0235C273.149 69.9705 273.232 69.8206 273.18 69.5845C273.082 69.2127 272.99 68.8687 272.906 68.4938L270.882 59.4677C270.829 59.2316 270.676 59.1347 270.44 59.1876L269.384 59.4243C269.148 59.4772 269.051 59.6302 269.104 59.8663L269.927 63.5322L269.815 63.5571C269.262 63.1708 268.298 62.9057 267.257 63.1392C264.633 63.7278 263.927 66.0445 264.372 68.0302C264.849 70.1549 266.578 71.7506 269.132 71.1777C270.007 70.9815 270.841 70.3423 271.203 69.6779L271.313 69.653C271.336 69.7502 271.363 69.8751 271.402 69.9831C271.469 70.2161 271.636 70.3099 271.872 70.257L272.914 70.0235ZM270.66 66.6057C270.933 67.8277 270.597 69.3178 268.972 69.6822C267.306 70.056 266.416 68.7533 266.16 67.6146C265.836 66.1705 266.373 64.8543 267.817 64.5304C269.247 64.2096 270.339 65.1754 270.66 66.6057ZM275.48 61.791C275.427 61.5549 275.274 61.458 275.038 61.5109L273.983 61.7476C273.746 61.8005 273.65 61.9535 273.703 62.1896L275.256 69.1188C275.309 69.3549 275.463 69.4518 275.698 69.3989L276.754 69.1622C276.99 69.1093 277.087 68.9563 277.034 68.7202L275.48 61.791ZM275.084 59.0503C274.944 58.4255 274.345 58.0345 273.721 58.1747C273.11 58.3117 272.722 58.9237 272.862 59.5486C273.002 60.1734 273.611 60.5474 274.222 60.4104C274.848 60.2702 275.224 59.6752 275.084 59.0503ZM279.212 60.9396C279.151 60.7344 278.964 60.6159 278.741 60.6657L277.742 60.8899C277.533 60.9366 277.426 61.1066 277.49 61.3257C277.59 61.5802 277.638 61.861 277.698 62.1249L279.074 68.2626C279.127 68.4987 279.281 68.5956 279.516 68.5427L280.572 68.306C280.808 68.2531 280.904 68.1 280.851 67.864L280.03 64.198C279.734 62.8789 280.122 61.6834 281.344 61.4093C282.4 61.1726 283.11 61.7424 283.385 62.9643L284.31 67.0886C284.363 67.3247 284.515 67.4216 284.752 67.3686L285.807 67.132C286.043 67.079 286.14 66.926 286.087 66.69L285.05 62.0659C284.68 60.4134 283.413 59.3847 281.58 59.7958C280.58 60.02 279.806 60.6606 279.41 61.4346L279.341 61.4502C279.3 61.2697 279.262 61.1031 279.212 60.9396ZM292.518 57.4596C292.296 57.5094 292.164 57.6995 292.196 57.9109C292.223 58.0945 292.263 58.2751 292.297 58.4278L292.214 58.4465C291.593 58.017 290.674 57.7564 289.604 57.9962C287.105 58.5567 286.221 60.6655 286.695 62.7762C287.178 64.9286 288.838 66.4812 291.463 65.8927C292.407 65.6809 293.123 65.0976 293.554 64.4176L293.609 64.4051L293.728 64.9328C294.026 66.2659 293.635 67.4475 291.983 67.818C291.094 68.0173 290.292 67.7596 289.802 67.3299C289.603 67.1559 289.42 67.1238 289.248 67.2646L288.503 67.7816C288.317 67.9255 288.287 68.1216 288.439 68.2772C289.317 69.2619 290.697 69.5648 292.294 69.2067C294.849 68.6337 296.081 67.1032 295.473 64.3954L294.169 58.577C294.097 58.2576 294.03 57.8935 293.96 57.5154C293.907 57.2793 293.768 57.1793 293.531 57.2322L292.518 57.4596ZM292.986 61.3655C293.312 62.8235 292.785 64.0502 291.314 64.3803C289.814 64.7166 288.801 63.7769 288.487 62.3745C288.169 60.9581 288.735 59.7082 290.193 59.3812C291.692 59.0448 292.674 59.9768 292.986 61.3655Z" fill="white"/>
<path d="M438.003 357.359C440.623 357.359 442.747 355.235 442.747 352.615C442.747 349.995 440.623 347.871 438.003 347.871C435.384 347.871 433.26 349.995 433.26 352.615C433.26 355.235 435.384 357.359 438.003 357.359Z" fill="#74D1F1"/>
<path d="M88.5504 113.849C91.1702 113.849 93.2941 111.725 93.2941 109.105C93.2941 106.485 91.1702 104.361 88.5504 104.361C85.9305 104.361 83.8066 106.485 83.8066 109.105C83.8066 111.725 85.9305 113.849 88.5504 113.849Z" fill="white" stroke="#54BDE8" stroke-width="2"/>
<path d="M178.81 256.344V247.615H163.681V256.344H178.81ZM173.345 265.148V260.898H182.327V258.368H160.164V260.898H170.157V265.148H173.345ZM179.316 269.601V266.995H166.869V263.048H163.681V269.601H179.316ZM175.673 253.763H166.818V250.196H175.673V253.763ZM198.995 268.336V257.507H200.943V269.095H203.953V247.109H200.943V254.876H198.995V247.362H195.984V268.336H198.995ZM194.82 258.772C194.82 255.509 192.619 253.308 189.634 253.308C186.648 253.308 184.447 255.509 184.447 258.772C184.447 262.036 186.648 264.237 189.634 264.237C192.619 264.237 194.82 262.036 194.82 258.772ZM195.174 252.372V249.842H191.228V247.059H188.04V249.842H183.84V252.372H195.174ZM191.784 258.772C191.784 260.493 190.873 261.631 189.634 261.631C188.394 261.631 187.483 260.493 187.483 258.772C187.483 257.052 188.394 255.888 189.634 255.888C190.873 255.888 191.784 257.052 191.784 258.772ZM222.039 259.86C218.117 260.189 213.31 260.467 208.63 260.645V252.802H215.739V250.423H208.63V247.868H218.902V255.281H211.792V257.938C215.107 257.862 218.294 257.685 222.039 257.381V259.86ZM226.947 261.024V247.109H223.81V249.538H220.217V252.119H223.81V253.763H220.217V256.344H223.81V261.024H226.947ZM226.947 270.107V262.112H212.324V264.718H223.81V270.107H226.947Z" fill="#111921"/>
<path d="M97.9695 293.927V292.966H93.0613L96.0847 290.221C97.0967 289.298 97.7165 288.083 97.7165 286.957C97.7165 285.3 96.3756 284.086 94.6805 284.124C92.8463 284.162 91.7205 285.363 91.3789 287.122L92.4541 287.413C92.6945 286.224 93.2384 285.148 94.6173 285.085C95.857 285.047 96.6033 285.92 96.6033 286.97C96.6033 287.881 96.0467 288.83 95.2245 289.589L91.5181 292.966V293.927H97.9695ZM103.537 293.927V284.314H102.424L99.9951 286.3L100.678 287.109L102.424 285.68V293.927H103.537ZM112.292 292.055C112.292 290.816 111.306 290.36 110.218 290.019C108.991 289.627 108.257 289.399 108.257 288.665C108.257 288.058 108.877 287.691 109.686 287.729C110.458 287.767 111.053 288.21 111.179 288.969L112.267 288.69C111.989 287.489 111.04 286.818 109.724 286.768C108.371 286.717 107.144 287.476 107.144 288.703C107.144 289.804 108.27 290.386 109.332 290.727C110.736 291.182 111.242 291.372 111.242 292.043C111.242 292.726 110.61 293.181 109.724 293.156C108.826 293.131 108.055 292.599 107.966 291.562L106.853 291.726C107.055 293.194 108.131 294.092 109.724 294.117C111.078 294.143 112.292 293.308 112.292 292.055ZM117.054 293.017C116.801 293.067 116.561 293.093 116.346 293.093C115.675 293.093 115.435 292.84 115.435 292.081V287.931H117.105V286.97H115.435V284.642H114.322V286.97H112.93V287.931H114.322V292.245C114.322 293.51 114.98 294.054 116.207 294.054C116.574 294.054 116.902 294.029 117.181 293.978L117.054 293.017ZM126.774 291.726C126.433 292.625 125.787 293.156 124.775 293.156C123.359 293.156 122.41 292.017 122.41 290.449C122.41 288.88 123.359 287.742 124.775 287.742C125.737 287.742 126.369 288.248 126.724 289.057L127.748 288.64C127.204 287.425 126.205 286.78 124.775 286.78C122.751 286.78 121.297 288.21 121.297 290.449C121.297 292.688 122.751 294.117 124.775 294.117C126.243 294.117 127.293 293.396 127.799 292.144L126.774 291.726ZM135.642 290.449C135.642 288.21 134.187 286.78 132.163 286.78C130.139 286.78 128.684 288.21 128.684 290.449C128.684 292.688 130.139 294.117 132.163 294.117C133.63 294.117 134.706 293.459 135.25 292.334L134.225 291.916C133.808 292.738 133.124 293.143 132.163 293.143C130.847 293.143 129.949 292.22 129.81 290.841H135.629C135.642 290.702 135.642 290.588 135.642 290.449ZM132.163 287.742C133.415 287.742 134.326 288.665 134.465 289.88H129.835C130.038 288.615 130.911 287.742 132.163 287.742ZM143.002 293.927V289.627C143.002 287.704 141.926 286.692 140.168 286.78C139.308 286.818 138.574 287.21 138.169 287.716L138.131 287.033H137.056V293.927H138.169V289.905C138.169 288.678 138.979 287.805 140.117 287.742C141.294 287.678 141.888 288.374 141.888 289.804V293.927H143.002ZM148.149 293.017C147.896 293.067 147.655 293.093 147.44 293.093C146.77 293.093 146.529 292.84 146.529 292.081V287.931H148.199V286.97H146.529V284.642H145.416V286.97H144.025V287.931H145.416V292.245C145.416 293.51 146.074 294.054 147.301 294.054C147.668 294.054 147.997 294.029 148.275 293.978L148.149 293.017ZM155.553 293.864V286.97H154.44V290.993C154.44 292.194 153.63 293.118 152.491 293.156C151.315 293.219 150.72 292.523 150.72 291.094V286.97H149.607V291.271C149.607 293.194 150.683 294.206 152.441 294.117C153.301 294.079 154.035 293.687 154.44 293.181L154.477 293.864H155.553ZM161.25 286.818C159.82 286.628 158.935 287.071 158.442 287.843L158.404 287.033H157.328V293.927H158.442V289.816C158.442 288.412 159.567 287.704 160.997 287.906L161.25 286.818ZM168.139 286.97H166.988L164.888 292.346L162.713 286.97H161.561L164.357 293.725L164.306 293.852C163.889 294.927 163.282 295.458 162.32 295.597L162.447 296.609C163.876 296.42 164.673 295.711 165.217 294.358L168.139 286.97ZM176.119 284.389C175.841 284.339 175.512 284.314 175.145 284.314C173.918 284.314 173.26 284.857 173.26 286.122V286.97H171.869V287.931H173.26V293.927H174.373V287.931H176.043V286.97H174.373V286.287C174.373 285.528 174.614 285.275 175.284 285.275C175.499 285.275 175.74 285.3 175.993 285.351L176.119 284.389ZM183.832 290.449C183.832 288.21 182.378 286.78 180.354 286.78C178.33 286.78 176.875 288.21 176.875 290.449C176.875 292.688 178.33 294.117 180.354 294.117C182.378 294.117 183.832 292.688 183.832 290.449ZM182.719 290.449C182.719 292.017 181.77 293.156 180.354 293.156C178.937 293.156 177.988 292.017 177.988 290.449C177.988 288.88 178.937 287.742 180.354 287.742C181.77 287.742 182.719 288.88 182.719 290.449ZM191.168 293.864V286.97H190.055V290.993C190.055 292.194 189.245 293.118 188.106 293.156C186.93 293.219 186.336 292.523 186.336 291.094V286.97H185.222V291.271C185.222 293.194 186.298 294.206 188.056 294.117C188.916 294.079 189.65 293.687 190.055 293.181L190.093 293.864H191.168ZM198.889 293.927V289.627C198.889 287.704 197.814 286.692 196.055 286.78C195.195 286.818 194.461 287.21 194.057 287.716L194.019 287.033H192.944V293.927H194.057V289.905C194.057 288.678 194.866 287.805 196.005 287.742C197.181 287.678 197.776 288.374 197.776 289.804V293.927H198.889ZM206.99 293.864V284.061H205.876V287.969C205.434 287.261 204.561 286.78 203.549 286.78C201.778 286.78 200.285 288.197 200.285 290.449C200.285 292.7 201.778 294.117 203.549 294.117C204.561 294.117 205.434 293.637 205.876 292.928L205.914 293.864H206.99ZM205.864 290.449C205.864 292.296 204.713 293.156 203.536 293.156C202.423 293.156 201.398 292.232 201.398 290.449C201.398 288.665 202.423 287.742 203.536 287.742C204.713 287.742 205.864 288.602 205.864 290.449ZM214.512 293.801V289.475C214.512 287.438 213.032 286.844 211.729 286.78C210.679 286.742 209.641 287.021 208.591 287.969L209.287 288.652C209.983 288.007 210.894 287.704 211.665 287.742C212.513 287.78 213.398 288.058 213.398 289.361V289.917C211.273 289.209 208.402 289.664 208.402 291.954C208.402 293.333 209.452 294.117 211.185 294.117C212.146 294.117 212.943 293.814 213.5 293.194L213.525 293.801H214.512ZM211.273 293.156C210.4 293.156 209.515 292.789 209.515 291.979C209.515 290.449 211.539 290.36 213.398 290.803V291.625C213.398 292.599 212.45 293.156 211.273 293.156ZM219.65 293.017C219.397 293.067 219.156 293.093 218.941 293.093C218.271 293.093 218.031 292.84 218.031 292.081V287.931H219.7V286.97H218.031V284.642H216.917V286.97H215.526V287.931H216.917V292.245C216.917 293.51 217.575 294.054 218.802 294.054C219.169 294.054 219.498 294.029 219.776 293.978L219.65 293.017ZM222.653 284.946C222.653 284.503 222.336 284.187 221.894 284.187C221.451 284.187 221.135 284.503 221.135 284.946C221.135 285.389 221.451 285.705 221.894 285.705C222.336 285.705 222.653 285.389 222.653 284.946ZM222.45 293.927V286.97H221.337V293.927H222.45ZM231.023 290.449C231.023 288.21 229.568 286.78 227.544 286.78C225.52 286.78 224.065 288.21 224.065 290.449C224.065 292.688 225.52 294.117 227.544 294.117C229.568 294.117 231.023 292.688 231.023 290.449ZM229.91 290.449C229.91 292.017 228.961 293.156 227.544 293.156C226.127 293.156 225.179 292.017 225.179 290.449C225.179 288.88 226.127 287.742 227.544 287.742C228.961 287.742 229.91 288.88 229.91 290.449ZM238.358 293.927V289.627C238.358 287.704 237.283 286.692 235.525 286.78C234.665 286.818 233.931 287.21 233.526 287.716L233.488 287.033H232.413V293.927H233.526V289.905C233.526 288.678 234.336 287.805 235.474 287.742C236.651 287.678 237.245 288.374 237.245 289.804V293.927H238.358ZM245.889 293.801V289.475C245.889 287.438 244.409 286.844 243.106 286.78C242.056 286.742 241.019 287.021 239.969 287.969L240.665 288.652C241.36 288.007 242.271 287.704 243.043 287.742C243.89 287.78 244.776 288.058 244.776 289.361V289.917C242.651 289.209 239.779 289.664 239.779 291.954C239.779 293.333 240.829 294.117 242.562 294.117C243.523 294.117 244.32 293.814 244.877 293.194L244.902 293.801H245.889ZM242.651 293.156C241.778 293.156 240.892 292.789 240.892 291.979C240.892 290.449 242.916 290.36 244.776 290.803V291.625C244.776 292.599 243.827 293.156 242.651 293.156ZM248.846 293.927V284.061H247.733V293.927H248.846ZM255.047 293.927V284.061H253.934V293.927H255.047ZM258.514 284.946C258.514 284.503 258.198 284.187 257.755 284.187C257.313 284.187 256.996 284.503 256.996 284.946C256.996 285.389 257.313 285.705 257.755 285.705C258.198 285.705 258.514 285.389 258.514 284.946ZM258.312 293.927V286.97H257.199V293.927H258.312ZM263.801 293.017C263.548 293.067 263.308 293.093 263.093 293.093C262.422 293.093 262.182 292.84 262.182 292.081V287.931H263.852V286.97H262.182V284.642H261.069V286.97H259.677V287.931H261.069V292.245C261.069 293.51 261.727 294.054 262.954 294.054C263.321 294.054 263.649 294.029 263.928 293.978L263.801 293.017ZM271.653 290.449C271.653 288.21 270.198 286.78 268.174 286.78C266.15 286.78 264.695 288.21 264.695 290.449C264.695 292.688 266.15 294.117 268.174 294.117C269.642 294.117 270.717 293.459 271.261 292.334L270.236 291.916C269.819 292.738 269.136 293.143 268.174 293.143C266.859 293.143 265.96 292.22 265.821 290.841H271.64C271.653 290.702 271.653 290.588 271.653 290.449ZM268.174 287.742C269.426 287.742 270.337 288.665 270.476 289.88H265.847C266.049 288.615 266.922 287.742 268.174 287.742ZM276.99 286.818C275.56 286.628 274.675 287.071 274.181 287.843L274.143 287.033H273.068V293.927H274.181V289.816C274.181 288.412 275.307 287.704 276.737 287.906L276.99 286.818ZM283.506 293.801V289.475C283.506 287.438 282.026 286.844 280.723 286.78C279.673 286.742 278.636 287.021 277.586 287.969L278.281 288.652C278.977 288.007 279.888 287.704 280.66 287.742C281.507 287.78 282.393 288.058 282.393 289.361V289.917C280.267 289.209 277.396 289.664 277.396 291.954C277.396 293.333 278.446 294.117 280.179 294.117C281.14 294.117 281.937 293.814 282.494 293.194L282.519 293.801H283.506ZM280.267 293.156C279.395 293.156 278.509 292.789 278.509 291.979C278.509 290.449 280.533 290.36 282.393 290.803V291.625C282.393 292.599 281.444 293.156 280.267 293.156ZM290.371 291.726C290.029 292.625 289.384 293.156 288.372 293.156C286.955 293.156 286.007 292.017 286.007 290.449C286.007 288.88 286.955 287.742 288.372 287.742C289.334 287.742 289.966 288.248 290.32 289.057L291.345 288.64C290.801 287.425 289.802 286.78 288.372 286.78C286.348 286.78 284.893 288.21 284.893 290.449C284.893 292.688 286.348 294.117 288.372 294.117C289.84 294.117 290.889 293.396 291.395 292.144L290.371 291.726ZM298.666 286.97H297.515L295.415 292.346L293.239 286.97H292.088L294.884 293.725L294.833 293.852C294.416 294.927 293.808 295.458 292.847 295.597L292.974 296.609C294.403 296.42 295.2 295.711 295.744 294.358L298.666 286.97Z" fill="#31718C"/>
<path d="M626.506 97.5305V75.5449H623.369V81.2627H619.194V83.8939H623.369V97.5305H626.506ZM621.345 89.9152L619.017 91.8633C617.17 89.6116 615.576 87.7141 613.805 85.7661C612.439 88.1189 610.617 90.2441 608.467 92.0404L606.342 90.1429C610.668 86.5756 613.046 81.7181 613.653 76.4304L616.816 76.8099C616.563 79.011 616.006 81.1109 615.146 83.0843C617.195 85.2095 619.143 87.4105 621.345 89.9152ZM649.17 97.5305V85.4372H652.61V82.806H649.17V75.5449H646.032V97.5305H649.17ZM644.717 89.7887L642.389 91.7368C640.568 89.4851 638.949 87.6129 637.203 85.6649C635.837 87.9924 634.015 90.1176 631.839 91.9139L629.714 90.0164C634.04 86.4491 636.419 81.7181 637.026 76.4304L640.188 76.8099C639.935 78.9857 639.379 81.035 638.544 82.9831C640.568 85.1083 642.516 87.284 644.717 89.7887ZM668.343 88.296C664.421 88.6249 659.615 88.9032 654.934 89.0803V81.2374H662.043V78.8592H654.934V76.3039H665.206V83.7168H658.097V86.3732C661.411 86.2973 664.599 86.1202 668.343 85.8167V88.296ZM673.251 89.4598V75.5449H670.114V77.9737H666.521V80.5543H670.114V82.1988H666.521V84.7794H670.114V89.4598H673.251ZM673.251 98.5425V90.5477H658.628V93.1536H670.114V98.5425H673.251Z" fill="#111921"/>
<path d="M559.434 119.947C559.434 118.429 558.41 117.543 556.664 117.088C554.969 116.645 553.894 116.127 553.919 115.051C553.932 114.28 554.539 113.546 555.867 113.546C556.98 113.546 557.967 114.179 558.207 115.304L559.282 115.013C558.941 113.483 557.524 112.572 555.905 112.559C554.058 112.547 552.806 113.647 552.806 115.077C552.806 116.569 554.083 117.442 555.867 117.885C557.246 118.227 558.321 118.783 558.321 119.884C558.321 121.06 557.36 121.566 556.183 121.566C554.741 121.566 553.83 120.706 553.679 119.39L552.553 119.58C552.717 121.288 554.071 122.553 556.209 122.553C557.878 122.553 559.434 121.655 559.434 119.947ZM567.406 118.884C567.406 116.645 565.951 115.216 563.927 115.216C561.903 115.216 560.449 116.645 560.449 118.884C560.449 121.123 561.903 122.553 563.927 122.553C565.951 122.553 567.406 121.123 567.406 118.884ZM566.293 118.884C566.293 120.453 565.344 121.591 563.927 121.591C562.511 121.591 561.562 120.453 561.562 118.884C561.562 117.316 562.511 116.177 563.927 116.177C565.344 116.177 566.293 117.316 566.293 118.884ZM573.895 120.162C573.553 121.06 572.908 121.591 571.896 121.591C570.479 121.591 569.531 120.453 569.531 118.884C569.531 117.316 570.479 116.177 571.896 116.177C572.857 116.177 573.49 116.683 573.844 117.493L574.869 117.075C574.325 115.861 573.325 115.216 571.896 115.216C569.872 115.216 568.417 116.645 568.417 118.884C568.417 121.123 569.872 122.553 571.896 122.553C573.363 122.553 574.413 121.832 574.919 120.579L573.895 120.162ZM577.727 113.382C577.727 112.939 577.411 112.623 576.968 112.623C576.525 112.623 576.209 112.939 576.209 113.382C576.209 113.824 576.525 114.141 576.968 114.141C577.411 114.141 577.727 113.824 577.727 113.382ZM577.524 122.363V115.406H576.411V122.363H577.524ZM586.097 118.884C586.097 116.645 584.642 115.216 582.618 115.216C580.594 115.216 579.14 116.645 579.14 118.884C579.14 121.123 580.594 122.553 582.618 122.553C584.642 122.553 586.097 121.123 586.097 118.884ZM584.984 118.884C584.984 120.453 584.035 121.591 582.618 121.591C581.202 121.591 580.253 120.453 580.253 118.884C580.253 117.316 581.202 116.177 582.618 116.177C584.035 116.177 584.984 117.316 584.984 118.884ZM593.559 118.037V117.075H588.246V118.037H593.559ZM602.663 118.884C602.663 116.645 601.208 115.216 599.184 115.216C597.16 115.216 595.706 116.645 595.706 118.884C595.706 121.123 597.16 122.553 599.184 122.553C600.652 122.553 601.727 121.895 602.271 120.769L601.246 120.352C600.829 121.174 600.146 121.579 599.184 121.579C597.869 121.579 596.971 120.655 596.831 119.276H602.65C602.663 119.137 602.663 119.023 602.663 118.884ZM599.184 116.177C600.437 116.177 601.347 117.101 601.487 118.315H596.857C597.059 117.05 597.932 116.177 599.184 116.177ZM614.198 122.363V118.062C614.198 116.139 613.224 115.127 611.643 115.216C610.871 115.266 610.062 115.545 609.404 116.506C608.999 115.595 608.202 115.153 607.139 115.216C606.279 115.266 605.596 115.646 605.191 116.152L605.153 115.469H604.078V122.363H605.191V118.34C605.191 117.126 606.026 116.24 607.089 116.177C608.151 116.114 608.582 116.81 608.582 118.239V122.363H609.694V118.34C609.694 117.126 610.53 116.24 611.592 116.177C612.655 116.114 613.085 116.81 613.085 118.239V122.363H614.198ZM622.552 118.884C622.552 116.645 621.097 115.216 619.073 115.216C617.049 115.216 615.594 116.645 615.594 118.884C615.594 121.123 617.049 122.553 619.073 122.553C621.097 122.553 622.552 121.123 622.552 118.884ZM621.439 118.884C621.439 120.453 620.49 121.591 619.073 121.591C617.656 121.591 616.708 120.453 616.708 118.884C616.708 117.316 617.656 116.177 619.073 116.177C620.49 116.177 621.439 117.316 621.439 118.884ZM627.313 121.452C627.06 121.503 626.82 121.528 626.605 121.528C625.934 121.528 625.694 121.275 625.694 120.516V116.367H627.364V115.406H625.694V113.078H624.581V115.406H623.189V116.367H624.581V120.681C624.581 121.946 625.238 122.49 626.465 122.49C626.832 122.49 627.161 122.464 627.439 122.414L627.313 121.452ZM630.316 113.382C630.316 112.939 629.999 112.623 629.557 112.623C629.114 112.623 628.798 112.939 628.798 113.382C628.798 113.824 629.114 114.141 629.557 114.141C629.999 114.141 630.316 113.824 630.316 113.382ZM630.113 122.363V115.406H629V122.363H630.113ZM638.686 118.884C638.686 116.645 637.231 115.216 635.207 115.216C633.183 115.216 631.729 116.645 631.729 118.884C631.729 121.123 633.183 122.553 635.207 122.553C637.231 122.553 638.686 121.123 638.686 118.884ZM637.573 118.884C637.573 120.453 636.624 121.591 635.207 121.591C633.791 121.591 632.842 120.453 632.842 118.884C632.842 117.316 633.791 116.177 635.207 116.177C636.624 116.177 637.573 117.316 637.573 118.884ZM646.021 122.363V118.062C646.021 116.139 644.946 115.127 643.188 115.216C642.328 115.254 641.594 115.646 641.189 116.152L641.151 115.469H640.076V122.363H641.189V118.34C641.189 117.113 641.999 116.24 643.137 116.177C644.314 116.114 644.908 116.81 644.908 118.239V122.363H646.021ZM653.552 122.237V117.91C653.552 115.874 652.072 115.279 650.769 115.216C649.719 115.178 648.682 115.456 647.632 116.405L648.328 117.088C649.023 116.443 649.934 116.139 650.706 116.177C651.553 116.215 652.439 116.493 652.439 117.796V118.353C650.314 117.645 647.442 118.1 647.442 120.39C647.442 121.768 648.492 122.553 650.225 122.553C651.187 122.553 651.983 122.249 652.54 121.629L652.565 122.237H653.552ZM650.314 121.591C649.441 121.591 648.555 121.225 648.555 120.415C648.555 118.884 650.579 118.796 652.439 119.238V120.061C652.439 121.035 651.49 121.591 650.314 121.591ZM656.509 122.363V112.496H655.396V122.363H656.509ZM666.455 120.491C666.455 119.251 665.468 118.796 664.38 118.454C663.153 118.062 662.42 117.834 662.42 117.101C662.42 116.493 663.039 116.127 663.849 116.165C664.621 116.203 665.215 116.645 665.342 117.404L666.43 117.126C666.151 115.924 665.203 115.254 663.887 115.203C662.533 115.153 661.306 115.912 661.306 117.139C661.306 118.239 662.432 118.821 663.495 119.163C664.899 119.618 665.405 119.808 665.405 120.478C665.405 121.161 664.772 121.617 663.887 121.591C662.989 121.566 662.217 121.035 662.129 119.997L661.015 120.162C661.218 121.629 662.293 122.527 663.887 122.553C665.241 122.578 666.455 121.743 666.455 120.491ZM671.217 121.452C670.964 121.503 670.723 121.528 670.508 121.528C669.838 121.528 669.598 121.275 669.598 120.516V116.367H671.267V115.406H669.598V113.078H668.484V115.406H667.093V116.367H668.484V120.681C668.484 121.946 669.142 122.49 670.369 122.49C670.736 122.49 671.065 122.464 671.343 122.414L671.217 121.452ZM679.069 118.884C679.069 116.645 677.615 115.216 675.591 115.216C673.567 115.216 672.112 116.645 672.112 118.884C672.112 121.123 673.567 122.553 675.591 122.553C677.615 122.553 679.069 121.123 679.069 118.884ZM677.956 118.884C677.956 120.453 677.007 121.591 675.591 121.591C674.174 121.591 673.225 120.453 673.225 118.884C673.225 117.316 674.174 116.177 675.591 116.177C677.007 116.177 677.956 117.316 677.956 118.884ZM684.381 115.254C682.951 115.064 682.066 115.507 681.572 116.278L681.534 115.469H680.459V122.363H681.572V118.252C681.572 116.848 682.698 116.139 684.128 116.342L684.381 115.254ZM691.27 115.406H690.119L688.019 120.782L685.843 115.406H684.692L687.488 122.161L687.437 122.287C687.02 123.362 686.413 123.894 685.451 124.033L685.578 125.045C687.007 124.855 687.804 124.147 688.348 122.793L691.27 115.406ZM695.961 121.452C695.708 121.503 695.468 121.528 695.252 121.528C694.582 121.528 694.342 121.275 694.342 120.516V116.367H696.011V115.406H694.342V113.078H693.228V115.406H691.837V116.367H693.228V120.681C693.228 121.946 693.886 122.49 695.113 122.49C695.48 122.49 695.809 122.464 696.087 122.414L695.961 121.452ZM703.813 118.884C703.813 116.645 702.359 115.216 700.335 115.216C698.311 115.216 696.856 116.645 696.856 118.884C696.856 121.123 698.311 122.553 700.335 122.553C701.802 122.553 702.877 121.895 703.421 120.769L702.397 120.352C701.979 121.174 701.296 121.579 700.335 121.579C699.019 121.579 698.121 120.655 697.982 119.276H703.801C703.813 119.137 703.813 119.023 703.813 118.884ZM700.335 116.177C701.587 116.177 702.498 117.101 702.637 118.315H698.007C698.209 117.05 699.082 116.177 700.335 116.177ZM706.417 122.363V112.496H705.304V122.363H706.417ZM709.555 122.363V112.496H708.442V122.363H709.555ZM713.022 113.382C713.022 112.939 712.705 112.623 712.263 112.623C711.82 112.623 711.504 112.939 711.504 113.382C711.504 113.824 711.82 114.141 712.263 114.141C712.705 114.141 713.022 113.824 713.022 113.382ZM712.819 122.363V115.406H711.706V122.363H712.819ZM720.759 122.363V118.062C720.759 116.139 719.684 115.127 717.926 115.216C717.066 115.254 716.332 115.646 715.927 116.152L715.889 115.469H714.814V122.363H715.927V118.34C715.927 117.113 716.737 116.24 717.875 116.177C719.052 116.114 719.646 116.81 719.646 118.239V122.363H720.759ZM728.86 115.532H727.785L727.747 116.354C727.304 115.684 726.431 115.216 725.419 115.216C723.648 115.216 722.156 116.569 722.156 118.758C722.156 120.946 723.648 122.3 725.419 122.3C726.431 122.3 727.304 121.832 727.747 121.161V121.844C727.747 123.211 726.988 124.21 725.521 124.21C724.458 124.21 723.623 123.704 723.18 122.958L722.345 123.539C723.016 124.615 724.041 125.171 725.596 125.171C727.684 125.171 728.86 123.818 728.86 121.908V115.532ZM727.734 118.758C727.734 120.529 726.583 121.338 725.407 121.338C724.294 121.338 723.269 120.491 723.269 118.758C723.269 117.05 724.294 116.177 725.407 116.177C726.583 116.177 727.734 116.987 727.734 118.758Z" fill="#BD6700"/>
<path d="M608.607 398.504C608.607 395.366 605.951 393.165 602.408 393.165C598.867 393.165 596.21 395.366 596.21 398.504C596.21 401.641 598.867 403.842 602.408 403.842C605.951 403.842 608.607 401.641 608.607 398.504ZM599.297 380.693C599.018 382.286 598.538 383.779 597.855 385.171C599.828 386.689 601.65 388.181 603.446 389.725L601.422 391.825C599.803 390.307 598.209 388.94 596.463 387.498C595.097 389.396 593.326 390.99 591.226 392.255L589.455 390.332C593.326 387.777 595.476 384.69 596.134 380.313L599.297 380.693ZM608.607 393.039V387.549H611.896V384.918H608.607V379.934H605.47V393.039H608.607ZM605.495 398.504C605.495 400.148 604.18 401.287 602.408 401.287C600.638 401.287 599.322 400.148 599.322 398.504C599.322 396.859 600.638 395.721 602.408 395.721C604.18 395.721 605.495 396.859 605.495 398.504ZM631.979 398.504C631.979 395.366 629.323 393.165 625.781 393.165C622.239 393.165 619.582 395.366 619.582 398.504C619.582 401.641 622.239 403.842 625.781 403.842C629.323 403.842 631.979 401.641 631.979 398.504ZM622.669 380.693C622.391 382.286 621.91 383.779 621.227 385.171C623.2 386.689 625.022 388.181 626.818 389.725L624.794 391.825C623.175 390.307 621.581 388.94 619.835 387.498C618.469 389.396 616.698 390.99 614.598 392.255L612.827 390.332C616.698 387.777 618.849 384.69 619.507 380.313L622.669 380.693ZM631.979 393.039V387.549H635.268V384.918H631.979V379.934H628.842V393.039H631.979ZM628.868 398.504C628.868 400.148 627.552 401.287 625.781 401.287C624.01 401.287 622.694 400.148 622.694 398.504C622.694 396.859 624.01 395.721 625.781 395.721C627.552 395.721 628.868 396.859 628.868 398.504ZM650.95 392.685C647.029 393.014 642.222 393.292 637.541 393.469V385.626H644.651V383.248H637.541V380.693H647.813V388.105H640.704V390.762C644.018 390.686 647.206 390.509 650.95 390.205V392.685ZM655.858 393.849V379.934H652.721V382.362H649.129V384.943H652.721V386.587H649.129V389.168H652.721V393.849H655.858ZM655.858 402.931V394.936H641.235V397.542H652.721V402.931H655.858Z" fill="#111921"/>
<path d="M557.698 424.057C557.154 425.309 556.193 425.979 554.839 425.979C552.815 425.979 551.398 424.272 551.398 421.944C551.398 419.616 552.815 417.909 554.839 417.909C556.193 417.909 557.154 418.579 557.698 419.831L558.697 419.427C557.989 417.82 556.648 416.947 554.839 416.947C552.17 416.947 550.285 419.047 550.285 421.944C550.285 424.841 552.17 426.941 554.839 426.941C556.648 426.941 557.989 426.068 558.697 424.461L557.698 424.057ZM564.07 419.642C562.641 419.452 561.755 419.895 561.262 420.666L561.224 419.857H560.149V426.751H561.262V422.64C561.262 421.236 562.388 420.527 563.817 420.73L564.07 419.642ZM571.273 423.272C571.273 421.033 569.818 419.604 567.794 419.604C565.77 419.604 564.316 421.033 564.316 423.272C564.316 425.511 565.77 426.941 567.794 426.941C569.818 426.941 571.273 425.511 571.273 423.272ZM570.16 423.272C570.16 424.841 569.211 425.979 567.794 425.979C566.377 425.979 565.429 424.841 565.429 423.272C565.429 421.704 566.377 420.565 567.794 420.565C569.211 420.565 570.16 421.704 570.16 423.272ZM577.596 424.879C577.596 423.639 576.61 423.184 575.522 422.842C574.295 422.45 573.561 422.222 573.561 421.489C573.561 420.881 574.181 420.515 574.99 420.552C575.762 420.59 576.357 421.033 576.483 421.792L577.571 421.514C577.293 420.312 576.344 419.642 575.028 419.591C573.675 419.54 572.448 420.299 572.448 421.527C572.448 422.627 573.574 423.209 574.636 423.551C576.04 424.006 576.546 424.196 576.546 424.866C576.546 425.549 575.914 426.005 575.028 425.979C574.13 425.954 573.359 425.423 573.27 424.385L572.157 424.55C572.359 426.017 573.435 426.915 575.028 426.941C576.382 426.966 577.596 426.131 577.596 424.879ZM583.921 424.879C583.921 423.639 582.935 423.184 581.847 422.842C580.62 422.45 579.886 422.222 579.886 421.489C579.886 420.881 580.506 420.515 581.315 420.552C582.087 420.59 582.682 421.033 582.808 421.792L583.896 421.514C583.618 420.312 582.669 419.642 581.353 419.591C580 419.54 578.773 420.299 578.773 421.527C578.773 422.627 579.899 423.209 580.961 423.551C582.365 424.006 582.871 424.196 582.871 424.866C582.871 425.549 582.239 426.005 581.353 425.979C580.455 425.954 579.684 425.423 579.595 424.385L578.482 424.55C578.684 426.017 579.759 426.915 581.353 426.941C582.707 426.966 583.921 426.131 583.921 424.879ZM591.385 422.425V421.463H586.072V422.425H591.385ZM600.489 423.272C600.489 421.033 599.034 419.604 597.01 419.604C594.986 419.604 593.531 421.033 593.531 423.272C593.531 425.511 594.986 426.941 597.01 426.941C599.034 426.941 600.489 425.511 600.489 423.272ZM599.376 423.272C599.376 424.841 598.427 425.979 597.01 425.979C595.593 425.979 594.644 424.841 594.644 423.272C594.644 421.704 595.593 420.565 597.01 420.565C598.427 420.565 599.376 421.704 599.376 423.272ZM607.891 419.794H606.739L604.475 425.6L602.211 419.794H601.06L603.817 426.751H605.133L607.891 419.794ZM615.424 423.272C615.424 421.033 613.97 419.604 611.946 419.604C609.922 419.604 608.467 421.033 608.467 423.272C608.467 425.511 609.922 426.941 611.946 426.941C613.413 426.941 614.488 426.283 615.032 425.157L614.008 424.74C613.59 425.562 612.907 425.967 611.946 425.967C610.63 425.967 609.732 425.043 609.593 423.664H615.412C615.424 423.525 615.424 423.411 615.424 423.272ZM611.946 420.565C613.198 420.565 614.109 421.489 614.248 422.703H609.618C609.82 421.438 610.693 420.565 611.946 420.565ZM620.76 419.642C619.331 419.452 618.445 419.895 617.952 420.666L617.914 419.857H616.839V426.751H617.952V422.64C617.952 421.236 619.078 420.527 620.507 420.73L620.76 419.642ZM626.474 417.77C626.474 417.327 626.158 417.011 625.714 417.011C625.272 417.011 624.956 417.327 624.956 417.77C624.956 418.212 625.272 418.529 625.714 418.529C626.158 418.529 626.474 418.212 626.474 417.77ZM626.272 426.751V419.794H625.158V426.751H626.272ZM638.386 426.751V422.45C638.386 420.527 637.411 419.515 635.83 419.604C635.059 419.654 634.249 419.933 633.591 420.894C633.186 419.983 632.389 419.541 631.327 419.604C630.467 419.654 629.784 420.034 629.379 420.54L629.341 419.857H628.266V426.751H629.379V422.728C629.379 421.514 630.214 420.628 631.276 420.565C632.339 420.502 632.769 421.198 632.769 422.627V426.751H633.882V422.728C633.882 421.514 634.717 420.628 635.78 420.565C636.842 420.502 637.272 421.198 637.272 422.627V426.751H638.386ZM645.918 426.624V422.298C645.918 420.262 644.438 419.667 643.135 419.604C642.085 419.566 641.048 419.844 639.998 420.793L640.693 421.476C641.389 420.831 642.3 420.527 643.072 420.565C643.919 420.603 644.805 420.881 644.805 422.184V422.741C642.679 422.033 639.808 422.488 639.808 424.778C639.808 426.156 640.858 426.941 642.591 426.941C643.552 426.941 644.349 426.637 644.906 426.017L644.931 426.624H645.918ZM642.679 425.979C641.807 425.979 640.921 425.612 640.921 424.803C640.921 423.272 642.945 423.184 644.805 423.626V424.449C644.805 425.423 643.856 425.979 642.679 425.979ZM654.011 419.92H652.935L652.897 420.742C652.455 420.072 651.582 419.604 650.57 419.604C648.799 419.604 647.306 420.957 647.306 423.146C647.306 425.334 648.799 426.688 650.57 426.688C651.582 426.688 652.455 426.22 652.897 425.549V426.232C652.897 427.599 652.138 428.598 650.671 428.598C649.608 428.598 648.773 428.092 648.331 427.346L647.496 427.927C648.166 429.003 649.191 429.559 650.747 429.559C652.834 429.559 654.011 428.206 654.011 426.296V419.92ZM652.885 423.146C652.885 424.917 651.734 425.726 650.557 425.726C649.444 425.726 648.419 424.879 648.419 423.146C648.419 421.438 649.444 420.565 650.557 420.565C651.734 420.565 652.885 421.375 652.885 423.146ZM657.32 417.77C657.32 417.327 657.004 417.011 656.561 417.011C656.118 417.011 655.802 417.327 655.802 417.77C655.802 418.212 656.118 418.529 656.561 418.529C657.004 418.529 657.32 418.212 657.32 417.77ZM657.118 426.751V419.794H656.004V426.751H657.118ZM665.058 426.751V422.45C665.058 420.527 663.983 419.515 662.224 419.604C661.364 419.642 660.63 420.034 660.226 420.54L660.188 419.857H659.112V426.751H660.226V422.728C660.226 421.501 661.035 420.628 662.174 420.565C663.35 420.502 663.945 421.198 663.945 422.627V426.751H665.058ZM672.589 426.624V422.298C672.589 420.262 671.109 419.667 669.806 419.604C668.756 419.566 667.719 419.844 666.669 420.793L667.365 421.476C668.061 420.831 668.971 420.527 669.743 420.565C670.591 420.603 671.476 420.881 671.476 422.184V422.741C669.351 422.033 666.479 422.488 666.479 424.778C666.479 426.156 667.529 426.941 669.262 426.941C670.224 426.941 671.021 426.637 671.577 426.017L671.603 426.624H672.589ZM669.351 425.979C668.478 425.979 667.593 425.612 667.593 424.803C667.593 423.272 669.617 423.184 671.476 423.626V424.449C671.476 425.423 670.527 425.979 669.351 425.979ZM677.728 425.84C677.475 425.891 677.234 425.916 677.019 425.916C676.349 425.916 676.108 425.663 676.108 424.904V420.755H677.778V419.794H676.108V417.466H674.995V419.794H673.604V420.755H674.995V425.069C674.995 426.334 675.653 426.877 676.88 426.877C677.247 426.877 677.576 426.852 677.854 426.802L677.728 425.84ZM680.73 417.77C680.73 417.327 680.414 417.011 679.971 417.011C679.529 417.011 679.212 417.327 679.212 417.77C679.212 418.212 679.529 418.529 679.971 418.529C680.414 418.529 680.73 418.212 680.73 417.77ZM680.528 426.751V419.794H679.415V426.751H680.528ZM689.1 423.272C689.1 421.033 687.645 419.604 685.621 419.604C683.597 419.604 682.142 421.033 682.142 423.272C682.142 425.511 683.597 426.941 685.621 426.941C687.645 426.941 689.1 425.511 689.1 423.272ZM687.987 423.272C687.987 424.841 687.038 425.979 685.621 425.979C684.204 425.979 683.256 424.841 683.256 423.272C683.256 421.704 684.204 420.565 685.621 420.565C687.038 420.565 687.987 421.704 687.987 423.272ZM696.435 426.751V422.45C696.435 420.527 695.36 419.515 693.602 419.604C692.741 419.642 692.008 420.034 691.603 420.54L691.565 419.857H690.49V426.751H691.603V422.728C691.603 421.501 692.413 420.628 693.551 420.565C694.727 420.502 695.322 421.198 695.322 422.627V426.751H696.435Z" fill="#AB3C70"/>
</g>
<defs>
<radialGradient id="paint0_radial_586_25871" cx="0" cy="0" r="1" gradientUnits="userSpaceOnUse" gradientTransform="translate(457.771 239.953) rotate(-149.462) scale(538.376 1004.4)">
<stop stop-color="white"/>
<stop offset="1" stop-color="#F2F2F2"/>
</radialGradient>
<linearGradient id="paint1_linear_586_25871" x1="449.102" y1="103.372" x2="100.043" y2="546.515" gradientUnits="userSpaceOnUse">
<stop stop-color="#45B6E6"/>
<stop offset="1" stop-color="#54C3F1" stop-opacity="0.1"/>
</linearGradient>
<linearGradient id="paint2_linear_586_25871" x1="398.927" y1="40.0629" x2="101.259" y2="498.622" gradientUnits="userSpaceOnUse">
<stop stop-color="#45B6E6"/>
<stop offset="1" stop-color="#54C3F1" stop-opacity="0.1"/>
</linearGradient>
<linearGradient id="paint3_linear_586_25871" x1="446.76" y1="104.498" x2="34.4518" y2="478.066" gradientUnits="userSpaceOnUse">
<stop stop-color="#45B6E6"/>
<stop offset="1" stop-color="#54C3F1" stop-opacity="0.3"/>
</linearGradient>
<linearGradient id="paint4_linear_586_25871" x1="446.76" y1="104.498" x2="34.4521" y2="478.066" gradientUnits="userSpaceOnUse">
<stop stop-color="#45B6E6"/>
<stop offset="1" stop-color="#54C3F1" stop-opacity="0.3"/>
</linearGradient>
<linearGradient id="paint5_linear_586_25871" x1="446.731" y1="129.068" x2="88.5803" y2="529.912" gradientUnits="userSpaceOnUse">
<stop stop-color="#45B6E6"/>
<stop offset="1" stop-color="#54C3F1" stop-opacity="0.3"/>
</linearGradient>
<linearGradient id="paint6_linear_586_25871" x1="376.592" y1="244.656" x2="791.213" y2="613.118" gradientUnits="userSpaceOnUse">
<stop stop-color="#E85298"/>
<stop offset="1" stop-color="#E85298" stop-opacity="0"/>
</linearGradient>
<linearGradient id="paint7_linear_586_25871" x1="380.996" y1="245.421" x2="811.706" y2="598.63" gradientUnits="userSpaceOnUse">
<stop stop-color="#E85298"/>
<stop offset="1" stop-color="#E85298" stop-opacity="0"/>
</linearGradient>
<linearGradient id="paint8_linear_586_25871" x1="376.316" y1="244.913" x2="807.025" y2="598.122" gradientUnits="userSpaceOnUse">
<stop stop-color="#E85298"/>
<stop offset="1" stop-color="#E85298" stop-opacity="0"/>
</linearGradient>
<linearGradient id="paint9_linear_586_25871" x1="376.316" y1="244.913" x2="807.025" y2="598.122" gradientUnits="userSpaceOnUse">
<stop stop-color="#E85298"/>
<stop offset="1" stop-color="#E85298" stop-opacity="0"/>
</linearGradient>
<linearGradient id="paint10_linear_586_25871" x1="433.046" y1="225.584" x2="655.778" y2="568.134" gradientUnits="userSpaceOnUse">
<stop stop-color="#E85298"/>
<stop offset="1" stop-color="#E85298" stop-opacity="0"/>
</linearGradient>
<linearGradient id="paint11_linear_586_25871" x1="524.155" y1="325.349" x2="628.567" y2="-81.0837" gradientUnits="userSpaceOnUse">
<stop stop-color="#FF8B00"/>
<stop offset="1" stop-color="#FF8B00" stop-opacity="0"/>
</linearGradient>
<linearGradient id="paint12_linear_586_25871" x1="501.151" y1="321.422" x2="521.573" y2="58.4439" gradientUnits="userSpaceOnUse">
<stop stop-color="#FF8B00"/>
<stop offset="1" stop-color="#FF8B00" stop-opacity="0"/>
</linearGradient>
<linearGradient id="paint13_linear_586_25871" x1="468.207" y1="314.966" x2="717.696" y2="68.3944" gradientUnits="userSpaceOnUse">
<stop stop-color="#FF8B00"/>
<stop offset="1" stop-color="#FF8B00" stop-opacity="0"/>
</linearGradient>
<linearGradient id="paint14_linear_586_25871" x1="468.207" y1="314.966" x2="717.696" y2="68.3944" gradientUnits="userSpaceOnUse">
<stop stop-color="#FF8B00"/>
<stop offset="1" stop-color="#FF8B00" stop-opacity="0"/>
</linearGradient>
<linearGradient id="paint15_linear_586_25871" x1="468.49" y1="289.62" x2="653.476" y2="19.881" gradientUnits="userSpaceOnUse">
<stop stop-color="#FF8B00"/>
<stop offset="1" stop-color="#FF8B00" stop-opacity="0"/>
</linearGradient>
<linearGradient id="paint16_linear_586_25871" x1="366.977" y1="199.444" x2="1442.18" y2="-309.933" gradientUnits="userSpaceOnUse">
<stop stop-color="#FF8B00"/>
<stop offset="1" stop-color="#FF8B00" stop-opacity="0"/>
</linearGradient>
<linearGradient id="paint17_linear_586_25871" x1="745.911" y1="179.451" x2="238.242" y2="631.569" gradientUnits="userSpaceOnUse">
<stop stop-color="#E85298"/>
<stop offset="1" stop-color="#E85298" stop-opacity="0"/>
</linearGradient>
<linearGradient id="paint18_linear_586_25871" x1="820.046" y1="337.397" x2="312.373" y2="789.516" gradientUnits="userSpaceOnUse">
<stop stop-color="#E85298"/>
<stop offset="1" stop-color="#E85298" stop-opacity="0"/>
</linearGradient>
<linearGradient id="paint19_linear_586_25871" x1="206.355" y1="14.2026" x2="325.178" y2="508.742" gradientUnits="userSpaceOnUse">
<stop stop-color="#45B6E6"/>
<stop offset="0.473958" stop-color="#58CCFC"/>
<stop offset="1" stop-color="#54C3F1" stop-opacity="0.3"/>
</linearGradient>
<radialGradient id="paint20_radial_586_25871" cx="0" cy="0" r="1" gradientUnits="userSpaceOnUse" gradientTransform="translate(416.734 73.6042) rotate(112.415) scale(33.9967 33.9966)">
<stop stop-color="#59CEFF"/>
<stop offset="1" stop-color="#54C3F1"/>
</radialGradient>
<radialGradient id="paint21_radial_586_25871" cx="0" cy="0" r="1" gradientUnits="userSpaceOnUse" gradientTransform="translate(159.001 98.9122) rotate(72.7182) scale(44.2747)">
<stop stop-color="#54C4F2"/>
<stop offset="1" stop-color="#59CEFF"/>
</radialGradient>
<radialGradient id="paint22_radial_586_25871" cx="0" cy="0" r="1" gradientUnits="userSpaceOnUse" gradientTransform="translate(503.032 159.111) rotate(-177.127) scale(23.8677 23.8677)">
<stop stop-color="#59CEFF"/>
<stop offset="1" stop-color="#54C3F1"/>
</radialGradient>
<radialGradient id="paint23_radial_586_25871" cx="0" cy="0" r="1" gradientUnits="userSpaceOnUse" gradientTransform="translate(267.851 57.5435) rotate(77.36) scale(31.6248)">
<stop stop-color="#59CEFF"/>
<stop offset="1" stop-color="#54C4F2"/>
</radialGradient>
</defs>
</svg>
