<svg width="1194" height="376" viewBox="0 0 1194 376" fill="none" xmlns="http://www.w3.org/2000/svg">
<path d="M488.317 365.348L489.265 364.208L490.213 365.348L490.741 364.964L489.973 363.716L491.281 363.176L491.077 362.564L489.709 362.888L489.589 361.448H488.941L488.821 362.9L487.453 362.564L487.237 363.176L488.545 363.716L487.789 364.964L488.317 365.348ZM495.898 362.144H494.95V364.196C494.95 366.044 494.062 367.976 492.586 368.84L493.198 369.584C494.266 368.924 495.046 367.7 495.43 366.272C495.814 367.58 496.534 368.72 497.554 369.344L498.118 368.576C496.702 367.712 495.898 365.888 495.898 364.16V362.144ZM498.73 364.988H496.954V365.804H498.73V371.36H499.654V361.364H498.73V364.988ZM500.914 361.124V371.888H501.85V361.124H500.914ZM511.281 365.408H505.941V363.824H511.281V365.408ZM512.265 361.556H511.281V363.032H505.941V361.556H504.969V366.212H512.265V361.556ZM513.501 367.508H503.733V368.3H508.101V371.9H509.085V368.3H513.501V367.508ZM523.66 366.74H520.984V362.996H523.66V366.74ZM520 366.74H518.356V367.544H526.288V366.74H524.644V362.996H526.312V362.204H518.332V362.996H520V366.74ZM517.468 369.692V370.508H527.224V369.692H517.468ZM533.871 369.752V367.724H537.315V366.932H530.691V365.192H537.063V361.916H529.695V362.72H536.103V364.4H529.719V367.724H532.875V369.752H528.495V370.556H538.275V369.752H533.871ZM547.01 363.344C547.01 364.676 547.01 366.284 546.578 368.48L547.562 368.588C547.982 366.26 547.982 364.712 547.982 363.344V362.276H547.526V362.264H540.602V363.068H547.01V363.344ZM539.558 369.5V370.316H549.29V369.5H539.558ZM555.733 365.972C554.473 366.224 553.417 366.284 552.025 366.284V364.76H555.097V361.832H551.053V362.624H554.149V364.016H551.077V367.076H551.785C553.333 367.076 554.461 367.016 555.829 366.764L555.733 365.972ZM553.561 368.852H558.709V370.952H553.561V368.852ZM552.601 371.744H559.669V368.072H552.601V371.744ZM558.721 361.124V363.86H557.281V361.328H556.345V367.412H557.281V364.664H558.721V367.556H559.669V361.124H558.721ZM566.484 362.288C568.176 362.288 569.256 362.792 569.256 363.644C569.256 364.496 568.176 364.988 566.484 364.988C564.792 364.988 563.712 364.496 563.712 363.644C563.712 362.792 564.792 362.288 566.484 362.288ZM566.484 365.78C568.788 365.78 570.264 364.988 570.264 363.644C570.264 362.3 568.788 361.496 566.484 361.496C564.18 361.496 562.704 362.3 562.704 363.644C562.704 364.988 564.18 365.78 566.484 365.78ZM563.856 368.528H562.872V371.648H570.276V370.844H563.856V368.528ZM561.612 366.788V367.58H571.344V366.788H561.612ZM584.431 361.124H583.483V369.2H584.431V361.124ZM581.383 368.888H582.307V361.34H581.383V363.836H579.703V364.64H581.383V368.888ZM580.639 366.62C579.295 366.008 578.527 364.736 578.527 363.464V361.88H577.579V363.464C577.579 364.748 576.763 366.224 575.371 366.896L575.923 367.652C576.931 367.148 577.675 366.212 578.059 365.156C578.431 366.116 579.127 366.92 580.099 367.376L580.639 366.62ZM578.395 370.844V368.216H577.411V371.648H584.743V370.844H578.395ZM587.862 365.924H591.39V365.132H587.862V362.912H591.858V362.096H586.878V369.308H587.706C589.758 369.308 591.066 369.248 592.626 368.972L592.518 368.168C591.054 368.432 589.806 368.504 587.862 368.504V365.924ZM594.27 361.112V365.18H592.05V365.996H594.27V371.9H595.254V361.112H594.27ZM605.297 363.428V364.616H602.813V363.428H605.297ZM601.841 365.528H598.937V363.932H601.841V365.528ZM602.813 365.384H605.297V366.752H606.281V361.136H605.297V362.66H602.813V361.64H601.841V363.164H598.937V361.628H597.965V366.32H602.813V365.384ZM600.341 370.964V369.824H606.281V367.268H599.345V368.048H605.309V369.08H599.369V371.744H606.689V370.964H600.341ZM613.828 369.752V367.724H617.272V366.932H610.648V365.192H617.02V361.916H609.652V362.72H616.06V364.4H609.676V367.724H612.832V369.752H608.452V370.556H618.232V369.752H613.828ZM623.627 362.972H627.647V362.156H622.643V369.224H623.495C625.523 369.224 626.939 369.152 628.583 368.84L628.475 368.024C626.915 368.3 625.535 368.384 623.627 368.384V362.972ZM632.243 365.372H630.467V361.124H629.483V371.912H630.467V366.188H632.243V365.372ZM640.762 363.008H634.474V365.312H641.926V364.604H635.446V363.68H641.734V361.436H634.45V362.132H640.762V363.008ZM635.386 370.04H641.77V367.748H634.39V368.456H640.798V369.356H634.414V371.744H642.106V371.036H635.386V370.04ZM633.226 366.128V366.872H642.982V366.128H633.226ZM656.213 365.228C654.257 364.94 652.337 363.608 652.337 362.108V361.508H651.305V362.108C651.305 363.644 649.409 364.94 647.453 365.228L647.849 366.02C649.529 365.732 651.149 364.808 651.821 363.5C652.517 364.796 654.137 365.732 655.805 366.02L656.213 365.228ZM656.681 367.184H646.961V368H651.305V371.9H652.289V368H656.693L656.681 367.184ZM669.503 361.136H668.519V367.28H669.503V361.136ZM663.719 362.576C664.787 362.576 665.579 363.284 665.579 364.268C665.579 365.264 664.787 365.96 663.719 365.96C662.651 365.96 661.883 365.264 661.883 364.268C661.883 363.284 662.651 362.576 663.719 362.576ZM663.719 366.776C665.351 366.776 666.539 365.756 666.539 364.268C666.539 362.78 665.351 361.76 663.719 361.76C662.099 361.76 660.923 362.78 660.923 364.268C660.923 365.756 662.099 366.776 663.719 366.776ZM668.303 367.748H667.343V368.324C667.343 369.164 666.827 370.244 665.795 370.88C664.799 370.292 664.307 369.272 664.307 368.324V367.748H663.359V368.324C663.359 369.356 662.555 370.52 661.199 371L661.691 371.744C662.699 371.36 663.431 370.616 663.815 369.752C664.139 370.652 664.787 371.432 665.819 371.84C666.815 371.408 667.475 370.592 667.811 369.716C668.171 370.616 668.915 371.36 669.971 371.744L670.463 371C669.095 370.544 668.303 369.44 668.303 368.324V367.748ZM680.89 364.484C678.982 364.244 677.086 363.056 677.086 361.724V361.244H676.078V361.724C676.078 363.092 674.194 364.244 672.262 364.484L672.622 365.276C674.302 365.012 675.91 364.172 676.582 362.972C677.266 364.172 678.862 365.012 680.53 365.276L680.89 364.484ZM679.198 370.952H673.906V369.584H679.198V370.952ZM679.198 368.828H673.906V367.568H672.934V371.744H680.17V367.568H679.198V368.828ZM671.698 366.032V366.824H681.442V366.032H671.698ZM684.405 362.168H683.421V369.104H684.309C686.025 369.104 687.717 368.984 689.589 368.6L689.481 367.76C687.693 368.12 686.025 368.264 684.405 368.264V362.168ZM690.585 361.124V371.876H691.569V361.124H690.585ZM695.228 362.972H699.248V362.156H694.244V369.224H695.096C697.124 369.224 698.54 369.152 700.184 368.84L700.076 368.024C698.516 368.3 697.136 368.384 695.228 368.384V362.972ZM703.844 365.372H702.068V361.124H701.084V371.912H702.068V366.188H703.844V365.372ZM705.859 371.156C706.291 371.156 706.651 370.82 706.651 370.328C706.651 369.836 706.291 369.476 705.859 369.476C705.427 369.476 705.067 369.836 705.067 370.328C705.067 370.82 705.427 371.156 705.859 371.156Z" fill="#111921" fill-opacity="0.8"/>
<rect opacity="0.12" x="647" y="274" width="220" height="68" fill="#46D2EB"/>
<rect opacity="0.15" x="647" y="172" width="220" height="102" fill="#41B0FF"/>
<rect x="647" y="36" width="220" height="136" fill="#DBE8FB"/>
<path d="M647 70H867" stroke="#BFBFBF" stroke-width="0.7"/>
<path d="M647 172H867" stroke="#BFBFBF" stroke-width="0.7"/>
<path d="M647 308H867" stroke="#BFBFBF" stroke-width="0.7"/>
<path d="M647 240H867" stroke="#BFBFBF" stroke-width="0.7"/>
<path d="M647 274H867" stroke="#BFBFBF" stroke-width="0.7"/>
<path d="M647 135H867" stroke="#BFBFBF" stroke-width="0.7" stroke-dasharray="2 2"/>
<path d="M647 104H867" stroke="#BFBFBF" stroke-width="0.7" stroke-dasharray="2 2"/>
<path d="M647 206H867" stroke="#BFBFBF" stroke-width="0.7" stroke-dasharray="2 2"/>
<path d="M647 70H867" stroke="#BFBFBF" stroke-width="0.7" stroke-dasharray="2 2"/>
<path d="M673.324 48.942H676.866V48.004H672.19V55.942H673.016C674.892 55.942 676.166 55.886 677.664 55.564L677.566 54.612C676.194 54.906 675.004 54.976 673.324 54.99V48.942ZM681.304 46.478V51.518H679.526V46.758H678.448V58.406H679.526V52.456H681.304V59.036H682.41V46.478H681.304ZM693.777 46.492V53.226H694.925V46.492H693.777ZM686.833 53.842V58.868H694.925V53.842H693.791V55.382H687.967V53.842H686.833ZM687.967 56.278H693.791V57.944H687.967V56.278ZM688.177 47.08C686.287 47.08 684.915 48.256 684.915 49.964C684.915 51.7 686.287 52.862 688.177 52.862C690.081 52.862 691.467 51.7 691.467 49.964C691.467 48.256 690.081 47.08 688.177 47.08ZM688.177 48.032C689.451 48.032 690.347 48.83 690.347 49.964C690.347 51.112 689.451 51.91 688.177 51.91C686.931 51.91 686.035 51.112 686.035 49.964C686.035 48.83 686.931 48.032 688.177 48.032ZM707.183 53.52C707.533 51.182 707.533 49.544 707.533 48.536V47.85H701.191V48.788H706.413C706.413 49.796 706.385 51.322 706.035 53.408L707.183 53.52ZM704.299 51.434H703.165V55.298C702.227 55.326 701.303 55.34 700.505 55.34L700.631 56.292C702.857 56.292 705.811 56.236 708.415 55.816L708.345 54.976C707.071 55.144 705.671 55.214 704.299 55.27V51.434ZM712.265 51.728H710.263V46.478H709.115V59.036H710.263V52.694H712.265V51.728ZM720.216 49.74V50.678H722.694V53.968H723.856V46.492H722.694V49.74H720.216ZM720.916 52.596C719.096 51.952 717.864 50.37 717.864 48.76V48.326H720.622V47.402H713.916V48.326H716.716V48.76C716.716 50.566 715.428 52.26 713.552 52.946L714.154 53.856C715.624 53.296 716.786 52.12 717.318 50.664C717.864 51.952 718.942 52.988 720.342 53.492L720.916 52.596ZM719.712 58.14C717.822 58.14 716.674 57.608 716.674 56.698C716.674 55.788 717.822 55.242 719.712 55.242C721.602 55.242 722.75 55.788 722.75 56.698C722.75 57.608 721.602 58.14 719.712 58.14ZM719.712 54.36C717.136 54.36 715.526 55.214 715.526 56.698C715.526 58.182 717.136 59.036 719.712 59.036C722.288 59.036 723.884 58.182 723.884 56.698C723.884 55.214 722.288 54.36 719.712 54.36Z" fill="#333333"/>
<path d="M673.03 84.202C673.03 83.04 673.954 82.2 675.172 82.2C676.404 82.2 677.3 83.04 677.3 84.202C677.3 85.378 676.404 86.218 675.172 86.218C673.954 86.218 673.03 85.378 673.03 84.202ZM680.926 83.222V85.182H678.224C678.336 84.874 678.392 84.552 678.392 84.202C678.392 83.838 678.336 83.516 678.238 83.222H680.926ZM680.926 86.12V87.912H682.088V80.478H680.926V82.284H677.706C677.132 81.64 676.236 81.234 675.172 81.234C673.31 81.234 671.938 82.452 671.938 84.202C671.938 85.966 673.31 87.198 675.172 87.198C676.236 87.198 677.132 86.792 677.706 86.12H680.926ZM677.93 92.112C676.04 92.112 674.892 91.552 674.892 90.614C674.892 89.662 676.04 89.102 677.93 89.102C679.848 89.102 680.996 89.662 680.996 90.614C680.996 91.552 679.848 92.112 677.93 92.112ZM677.93 88.206C675.354 88.206 673.758 89.088 673.758 90.614C673.758 92.14 675.354 93.022 677.93 93.022C680.52 93.022 682.13 92.14 682.13 90.614C682.13 89.088 680.52 88.206 677.93 88.206ZM688.331 82.9H690.613V81.962H684.789V82.9H687.225V83.88C687.225 86.428 686.287 88.57 684.495 89.578L685.195 90.446C686.497 89.69 687.379 88.332 687.799 86.624C688.247 88.108 689.115 89.326 690.347 90.012L691.019 89.13C689.241 88.206 688.331 86.176 688.331 83.88V82.9ZM694.225 80.464V85.546H692.573V80.758H691.495V92.42H692.573V86.498H694.225V93.036H695.331V80.464H694.225ZM704.948 81.808H701.812V80.408H700.664V81.808H697.542V82.732H704.948V81.808ZM699.334 85.658C699.334 84.818 700.09 84.272 701.238 84.272C702.386 84.272 703.156 84.818 703.156 85.644C703.156 86.484 702.386 87.03 701.238 87.03C700.09 87.03 699.334 86.498 699.334 85.658ZM704.248 85.658C704.248 84.272 703.03 83.376 701.238 83.376C699.46 83.376 698.242 84.272 698.242 85.644C698.242 87.03 699.46 87.912 701.238 87.912C703.03 87.912 704.248 87.03 704.248 85.658ZM699.096 89.956H706.096V93.05H707.244V89.018H699.096V89.956ZM709.106 83.95H707.244V80.492H706.096V88.332H707.244V84.902H709.106V83.95ZM719.255 83.124C719.255 84.678 719.255 86.33 718.821 88.57L719.955 88.71C720.403 86.358 720.403 84.72 720.403 83.124V81.738H711.555V82.676H719.255V83.124ZM717.407 90.334V86.176H716.273V90.334H714.299V86.176H713.165V90.334H710.379V91.272H721.733V90.334H717.407ZM727.97 82.942H731.512V82.004H726.836V89.942H727.662C729.538 89.942 730.812 89.886 732.31 89.564L732.212 88.612C730.84 88.906 729.65 88.976 727.97 88.99V82.942ZM735.95 80.478V85.518H734.172V80.758H733.094V92.406H734.172V86.456H735.95V93.036H737.056V80.478H735.95ZM748.395 80.478V93.05H749.543V80.478H748.395ZM739.981 81.542V90.012H745.889V81.542H744.755V84.86H741.115V81.542H739.981ZM741.115 85.77H744.755V89.074H741.115V85.77ZM757.354 86.68H753.798V84.384H757.354V86.68ZM758.474 81.388H757.354V83.488H753.798V81.388H752.664V87.604H758.474V81.388ZM755.226 88.822H754.078V92.756H762.45V91.818H755.226V88.822ZM761.89 84.286V80.492H760.742V89.704H761.89V85.252H763.752V84.286H761.89Z" fill="#333333"/>
<path d="M680.604 150.984C680.604 152.496 680.604 154.26 680.128 156.668L681.276 156.794C681.752 154.26 681.752 152.538 681.752 150.984V149.738H672.946V150.676H680.604V150.984ZM677.314 158.334V153.84H676.166V158.334H671.756V159.272H683.11V158.334H677.314ZM694.659 152.328H687.197V149.906H694.575V148.982H686.049V153.252H694.659V152.328ZM690.291 160.126C688.317 160.126 687.155 159.636 687.155 158.754C687.155 157.872 688.317 157.382 690.291 157.382C692.265 157.382 693.427 157.872 693.427 158.754C693.427 159.636 692.251 160.126 690.291 160.126ZM690.291 156.486C687.617 156.486 685.993 157.298 685.993 158.754C685.993 160.21 687.617 161.022 690.291 161.022C692.965 161.022 694.589 160.21 694.589 158.754C694.589 157.298 692.965 156.486 690.291 156.486ZM684.621 154.456V155.408H695.989V154.456H684.621ZM710.921 148.492H709.773V154.988H710.921V148.492ZM708.233 153.728C706.371 153.112 705.055 151.544 705.055 149.808V148.856H703.907V149.808C703.907 151.628 702.605 153.308 700.715 153.966L701.303 154.862C702.787 154.33 703.949 153.182 704.495 151.74C705.069 153.07 706.217 154.12 707.659 154.624L708.233 153.728ZM703.963 159.986V158.642H710.935V155.618H702.801V156.528H709.801V157.774H702.829V160.896H711.355V159.986H703.963ZM720.174 151.95V152.888H722.694V157.69H723.856V148.492H722.694V151.95H720.174ZM720.916 154.904C719.096 154.26 717.864 152.692 717.864 151.054V150.438H720.622V149.5H713.916V150.438H716.716V151.068C716.716 152.846 715.414 154.512 713.552 155.184L714.154 156.08C715.624 155.548 716.772 154.386 717.318 152.958C717.864 154.246 718.942 155.296 720.342 155.8L720.916 154.904ZM716.982 159.818V156.878H715.82V160.756H724.206V159.818H716.982ZM732.94 155.52C733.29 153.182 733.29 151.544 733.29 150.536V149.85H726.948V150.788H732.17C732.17 151.796 732.142 153.322 731.792 155.408L732.94 155.52ZM730.056 153.434H728.922V157.298C727.984 157.326 727.06 157.34 726.262 157.34L726.388 158.292C728.614 158.292 731.568 158.236 734.172 157.816L734.102 156.976C732.828 157.144 731.428 157.214 730.056 157.27V153.434ZM738.022 153.728H736.02V148.478H734.872V161.036H736.02V154.694H738.022V153.728ZM745.973 151.74V152.678H748.451V155.968H749.613V148.492H748.451V151.74H745.973ZM746.673 154.596C744.853 153.952 743.621 152.37 743.621 150.76V150.326H746.379V149.402H739.673V150.326H742.473V150.76C742.473 152.566 741.185 154.26 739.309 154.946L739.911 155.856C741.381 155.296 742.543 154.12 743.075 152.664C743.621 153.952 744.699 154.988 746.099 155.492L746.673 154.596ZM745.469 160.14C743.579 160.14 742.431 159.608 742.431 158.698C742.431 157.788 743.579 157.242 745.469 157.242C747.359 157.242 748.507 157.788 748.507 158.698C748.507 159.608 747.359 160.14 745.469 160.14ZM745.469 156.36C742.893 156.36 741.283 157.214 741.283 158.698C741.283 160.182 742.893 161.036 745.469 161.036C748.045 161.036 749.641 160.182 749.641 158.698C749.641 157.214 748.045 156.36 745.469 156.36Z" fill="#333333"/>
<path d="M681.766 119.028H674.374V117.768H681.36V116.9H674.374V115.71H681.696V114.814H673.226V119.924H681.766V119.028ZM673.002 124.166H680.478V127.05H681.626V123.256H673.002V124.166ZM671.728 121.114V122.038H683.096V121.114H671.728ZM685.881 123.998H693.427V127.05H694.575V123.074H685.881V123.998ZM687.197 115.906H693.385V118.342H687.197V115.906ZM690.879 120.848V119.252H694.519V114.996H686.077V119.252H689.731V120.848H684.607V121.772H695.975V120.848H690.879ZM706.362 116.984C706.362 118.496 706.362 120.26 705.886 122.668L707.034 122.794C707.51 120.26 707.51 118.538 707.51 116.984V115.738H698.704V116.676H706.362V116.984ZM703.072 124.334V119.84H701.924V124.334H697.514V125.272H708.868V124.334H703.072ZM715.092 116.942H718.634V116.004H713.958V123.942H714.784C716.66 123.942 717.934 123.886 719.432 123.564L719.334 122.612C717.962 122.906 716.772 122.976 715.092 122.99V116.942ZM723.072 114.478V119.518H721.294V114.758H720.216V126.406H721.294V120.456H723.072V127.036H724.178V114.478H723.072ZM735.516 114.478V127.05H736.664V114.478H735.516ZM727.102 115.542V124.012H733.01V115.542H731.876V118.86H728.236V115.542H727.102ZM728.236 119.77H731.876V123.074H728.236V119.77ZM744.475 120.68H740.919V118.384H744.475V120.68ZM745.595 115.388H744.475V117.488H740.919V115.388H739.785V121.604H745.595V115.388ZM742.347 122.822H741.199V126.756H749.571V125.818H742.347V122.822ZM749.011 118.286V114.492H747.863V123.704H749.011V119.252H750.873V118.286H749.011Z" fill="#333333"/>
<path d="M678.294 189.52C678.644 187.182 678.644 185.544 678.644 184.536V183.85H672.302V184.788H677.524C677.524 185.796 677.496 187.322 677.146 189.408L678.294 189.52ZM675.41 187.434H674.276V191.298C673.338 191.326 672.414 191.34 671.616 191.34L671.742 192.292C673.968 192.292 676.922 192.236 679.526 191.816L679.456 190.976C678.182 191.144 676.782 191.214 675.41 191.27V187.434ZM683.376 187.728H681.374V182.478H680.226V195.036H681.374V188.694H683.376V187.728ZM692.069 183.808H688.933V182.408H687.785V183.808H684.663V184.732H692.069V183.808ZM686.455 187.658C686.455 186.818 687.211 186.272 688.359 186.272C689.507 186.272 690.277 186.818 690.277 187.644C690.277 188.484 689.507 189.03 688.359 189.03C687.211 189.03 686.455 188.498 686.455 187.658ZM691.369 187.658C691.369 186.272 690.151 185.376 688.359 185.376C686.581 185.376 685.363 186.272 685.363 187.644C685.363 189.03 686.581 189.912 688.359 189.912C690.151 189.912 691.369 189.03 691.369 187.658ZM686.217 191.956H693.217V195.05H694.365V191.018H686.217V191.956ZM696.227 185.95H694.365V182.492H693.217V190.332H694.365V186.902H696.227V185.95ZM709.815 185.726V187.406H706.525V188.344H709.815V189.996H710.977V182.492H709.815V184.788H706.973C707.057 184.354 707.113 183.892 707.113 183.43H701.443V184.354H705.867C705.657 186.524 703.795 188.19 700.799 189.086L701.261 189.996C703.963 189.212 705.867 187.742 706.679 185.726H709.815ZM706.875 194.084C705.027 194.084 703.851 193.51 703.851 192.558C703.851 191.62 705.027 191.046 706.875 191.046C708.723 191.046 709.899 191.62 709.899 192.558C709.899 193.51 708.723 194.084 706.875 194.084ZM706.875 190.136C704.341 190.136 702.717 191.046 702.717 192.558C702.717 194.07 704.341 194.98 706.875 194.98C709.409 194.98 711.033 194.07 711.033 192.558C711.033 191.046 709.409 190.136 706.875 190.136ZM717.962 183.57H716.828V185.824C716.828 188.204 715.302 190.612 713.454 191.494L714.154 192.432C715.624 191.676 716.828 190.108 717.402 188.218C718.004 190.01 719.208 191.494 720.636 192.194L721.322 191.27C719.46 190.43 717.962 188.12 717.962 185.824V183.57ZM722.638 182.478V195.064H723.786V182.478H722.638ZM739.809 182.492H738.661V188.988H739.809V182.492ZM737.121 187.728C735.259 187.112 733.943 185.544 733.943 183.808V182.856H732.795V183.808C732.795 185.628 731.493 187.308 729.603 187.966L730.191 188.862C731.675 188.33 732.837 187.182 733.383 185.74C733.957 187.07 735.105 188.12 736.547 188.624L737.121 187.728ZM732.851 193.986V192.642H739.823V189.618H731.689V190.528H738.689V191.774H731.717V194.896H740.243V193.986H732.851ZM749.062 185.95V186.888H751.582V191.69H752.744V182.492H751.582V185.95H749.062ZM749.804 188.904C747.984 188.26 746.752 186.692 746.752 185.054V184.438H749.51V183.5H742.804V184.438H745.604V185.068C745.604 186.846 744.302 188.512 742.44 189.184L743.042 190.08C744.512 189.548 745.66 188.386 746.206 186.958C746.752 188.246 747.83 189.296 749.23 189.8L749.804 188.904ZM745.87 193.818V190.878H744.708V194.756H753.094V193.818H745.87Z" fill="#333333"/>
<path d="M682.55 221.266C680.268 220.93 678.028 219.376 678.028 217.626V216.926H676.824V217.626C676.824 219.418 674.612 220.93 672.33 221.266L672.792 222.19C674.752 221.854 676.642 220.776 677.426 219.25C678.238 220.762 680.128 221.854 682.074 222.19L682.55 221.266ZM683.096 223.548H671.756V224.5H676.824V229.05H677.972V224.5H683.11L683.096 223.548ZM692.069 217.808H688.933V216.408H687.785V217.808H684.663V218.732H692.069V217.808ZM686.455 221.658C686.455 220.818 687.211 220.272 688.359 220.272C689.507 220.272 690.277 220.818 690.277 221.644C690.277 222.484 689.507 223.03 688.359 223.03C687.211 223.03 686.455 222.498 686.455 221.658ZM691.369 221.658C691.369 220.272 690.151 219.376 688.359 219.376C686.581 219.376 685.363 220.272 685.363 221.644C685.363 223.03 686.581 223.912 688.359 223.912C690.151 223.912 691.369 223.03 691.369 221.658ZM686.217 225.956H693.217V229.05H694.365V225.018H686.217V225.956ZM696.227 219.95H694.365V216.492H693.217V224.332H694.365V220.902H696.227V219.95ZM709.815 219.726V221.406H706.525V222.344H709.815V223.996H710.977V216.492H709.815V218.788H706.973C707.057 218.354 707.113 217.892 707.113 217.43H701.443V218.354H705.867C705.657 220.524 703.795 222.19 700.799 223.086L701.261 223.996C703.963 223.212 705.867 221.742 706.679 219.726H709.815ZM706.875 228.084C705.027 228.084 703.851 227.51 703.851 226.558C703.851 225.62 705.027 225.046 706.875 225.046C708.723 225.046 709.899 225.62 709.899 226.558C709.899 227.51 708.723 228.084 706.875 228.084ZM706.875 224.136C704.341 224.136 702.717 225.046 702.717 226.558C702.717 228.07 704.341 228.98 706.875 228.98C709.409 228.98 711.033 228.07 711.033 226.558C711.033 225.046 709.409 224.136 706.875 224.136ZM717.962 217.57H716.828V219.824C716.828 222.204 715.302 224.612 713.454 225.494L714.154 226.432C715.624 225.676 716.828 224.108 717.402 222.218C718.004 224.01 719.208 225.494 720.636 226.194L721.322 225.27C719.46 224.43 717.962 222.12 717.962 219.824V217.57ZM722.638 216.478V229.064H723.786V216.478H722.638ZM739.809 216.492H738.661V222.988H739.809V216.492ZM737.121 221.728C735.259 221.112 733.943 219.544 733.943 217.808V216.856H732.795V217.808C732.795 219.628 731.493 221.308 729.603 221.966L730.191 222.862C731.675 222.33 732.837 221.182 733.383 219.74C733.957 221.07 735.105 222.12 736.547 222.624L737.121 221.728ZM732.851 227.986V226.642H739.823V223.618H731.689V224.528H738.689V225.774H731.717V228.896H740.243V227.986H732.851ZM749.062 219.95V220.888H751.582V225.69H752.744V216.492H751.582V219.95H749.062ZM749.804 222.904C747.984 222.26 746.752 220.692 746.752 219.054V218.438H749.51V217.5H742.804V218.438H745.604V219.068C745.604 220.846 744.302 222.512 742.44 223.184L743.042 224.08C744.512 223.548 745.66 222.386 746.206 220.958C746.752 222.246 747.83 223.296 749.23 223.8L749.804 222.904ZM745.87 227.818V224.878H744.708V228.756H753.094V227.818H745.87Z" fill="#333333"/>
<path d="M680.604 252.984C680.604 254.496 680.604 256.26 680.128 258.668L681.276 258.794C681.752 256.26 681.752 254.538 681.752 252.984V251.738H672.946V252.676H680.604V252.984ZM677.314 260.334V255.84H676.166V260.334H671.756V261.272H683.11V260.334H677.314ZM694.659 254.328H687.197V251.906H694.575V250.982H686.049V255.252H694.659V254.328ZM690.291 262.126C688.317 262.126 687.155 261.636 687.155 260.754C687.155 259.872 688.317 259.382 690.291 259.382C692.265 259.382 693.427 259.872 693.427 260.754C693.427 261.636 692.251 262.126 690.291 262.126ZM690.291 258.486C687.617 258.486 685.993 259.298 685.993 260.754C685.993 262.21 687.617 263.022 690.291 263.022C692.965 263.022 694.589 262.21 694.589 260.754C694.589 259.298 692.965 258.486 690.291 258.486ZM684.621 256.456V257.408H695.989V256.456H684.621ZM701.373 251.836V252.76H706.091C705.853 255.742 704.173 258.15 700.799 259.76L701.415 260.698C705.587 258.654 707.253 255.462 707.253 251.836H701.373ZM709.787 250.478V263.036H710.935V250.478H709.787ZM716.114 259.284H714.966V262.756H723.604V261.818H716.114V259.284ZM716.142 253.46H722.246V255.07H716.142V253.46ZM719.768 257.338V255.994H723.38V250.982H722.246V252.564H716.142V250.982H715.008V255.994H718.62V257.338H713.496V258.276H724.864V257.338H719.768ZM740.327 255.266C738.045 254.93 735.805 253.376 735.805 251.626V250.926H734.601V251.626C734.601 253.418 732.389 254.93 730.107 255.266L730.569 256.19C732.529 255.854 734.419 254.776 735.203 253.25C736.015 254.762 737.905 255.854 739.851 256.19L740.327 255.266ZM740.873 257.548H729.533V258.5H734.601V263.05H735.749V258.5H740.887L740.873 257.548ZM749.846 251.808H746.71V250.408H745.562V251.808H742.44V252.732H749.846V251.808ZM744.232 255.658C744.232 254.818 744.988 254.272 746.136 254.272C747.284 254.272 748.054 254.818 748.054 255.644C748.054 256.484 747.284 257.03 746.136 257.03C744.988 257.03 744.232 256.498 744.232 255.658ZM749.146 255.658C749.146 254.272 747.928 253.376 746.136 253.376C744.358 253.376 743.14 254.272 743.14 255.644C743.14 257.03 744.358 257.912 746.136 257.912C747.928 257.912 749.146 257.03 749.146 255.658ZM743.994 259.956H750.994V263.05H752.142V259.018H743.994V259.956ZM754.004 253.95H752.142V250.492H750.994V258.332H752.142V254.902H754.004V253.95ZM758.399 257.884C758.903 257.884 759.323 257.478 759.323 256.918C759.323 256.33 758.903 255.924 758.399 255.924C757.895 255.924 757.475 256.33 757.475 256.918C757.475 257.478 757.895 257.884 758.399 257.884ZM769.677 257.52C770.027 255.182 770.027 253.544 770.027 252.536V251.85H763.685V252.788H768.907C768.907 253.796 768.879 255.322 768.529 257.408L769.677 257.52ZM766.793 255.434H765.659V259.298C764.721 259.326 763.797 259.34 762.999 259.34L763.125 260.292C765.351 260.292 768.305 260.236 770.909 259.816L770.839 258.976C769.565 259.144 768.165 259.214 766.793 259.27V255.434ZM774.759 255.728H772.757V250.478H771.609V263.036H772.757V256.694H774.759V255.728ZM783.452 251.808H780.316V250.408H779.168V251.808H776.046V252.732H783.452V251.808ZM777.838 255.658C777.838 254.818 778.594 254.272 779.742 254.272C780.89 254.272 781.66 254.818 781.66 255.644C781.66 256.484 780.89 257.03 779.742 257.03C778.594 257.03 777.838 256.498 777.838 255.658ZM782.752 255.658C782.752 254.272 781.534 253.376 779.742 253.376C777.964 253.376 776.746 254.272 776.746 255.644C776.746 257.03 777.964 257.912 779.742 257.912C781.534 257.912 782.752 257.03 782.752 255.658ZM777.6 259.956H784.6V263.05H785.748V259.018H777.6V259.956ZM787.61 253.95H785.748V250.492H784.6V258.332H785.748V254.902H787.61V253.95Z" fill="#333333"/>
<path d="M672.792 289.602C674.85 289.35 676.74 288.426 677.426 287.04C678.126 288.426 680.002 289.35 682.06 289.602L682.466 288.692C680.268 288.44 678.266 287.362 678.168 285.976H682.074V285.052H672.792V285.976H676.684C676.586 287.362 674.584 288.44 672.386 288.692L672.792 289.602ZM680.548 294.81C680.548 295.65 679.372 296.14 677.412 296.14C675.438 296.14 674.276 295.65 674.276 294.81C674.276 293.97 675.438 293.494 677.412 293.494C679.372 293.494 680.548 293.97 680.548 294.81ZM683.096 291.282V290.358H671.742V291.282H676.838V292.626C674.5 292.738 673.114 293.508 673.114 294.81C673.114 296.238 674.738 297.022 677.426 297.022C680.1 297.022 681.71 296.238 681.71 294.81C681.71 293.508 680.338 292.738 678 292.626V291.282H683.096ZM694.659 288.328H687.197V285.906H694.575V284.982H686.049V289.252H694.659V288.328ZM690.291 296.126C688.317 296.126 687.155 295.636 687.155 294.754C687.155 293.872 688.317 293.382 690.291 293.382C692.265 293.382 693.427 293.872 693.427 294.754C693.427 295.636 692.251 296.126 690.291 296.126ZM690.291 292.486C687.617 292.486 685.993 293.298 685.993 294.754C685.993 296.21 687.617 297.022 690.291 297.022C692.965 297.022 694.589 296.21 694.589 294.754C694.589 293.298 692.965 292.486 690.291 292.486ZM684.621 290.456V291.408H695.989V290.456H684.621ZM707.183 291.52C707.533 289.182 707.533 287.544 707.533 286.536V285.85H701.191V286.788H706.413C706.413 287.796 706.385 289.322 706.035 291.408L707.183 291.52ZM704.299 289.434H703.165V293.298C702.227 293.326 701.303 293.34 700.505 293.34L700.631 294.292C702.857 294.292 705.811 294.236 708.415 293.816L708.345 292.976C707.071 293.144 705.671 293.214 704.299 293.27V289.434ZM712.265 289.728H710.263V284.478H709.115V297.036H710.263V290.694H712.265V289.728ZM720.216 287.74V288.678H722.694V291.968H723.856V284.492H722.694V287.74H720.216ZM720.916 290.596C719.096 289.952 717.864 288.37 717.864 286.76V286.326H720.622V285.402H713.916V286.326H716.716V286.76C716.716 288.566 715.428 290.26 713.552 290.946L714.154 291.856C715.624 291.296 716.786 290.12 717.318 288.664C717.864 289.952 718.942 290.988 720.342 291.492L720.916 290.596ZM719.712 296.14C717.822 296.14 716.674 295.608 716.674 294.698C716.674 293.788 717.822 293.242 719.712 293.242C721.602 293.242 722.75 293.788 722.75 294.698C722.75 295.608 721.602 296.14 719.712 296.14ZM719.712 292.36C717.136 292.36 715.526 293.214 715.526 294.698C715.526 296.182 717.136 297.036 719.712 297.036C722.288 297.036 723.884 296.182 723.884 294.698C723.884 293.214 722.288 292.36 719.712 292.36ZM740.327 289.266C738.045 288.93 735.805 287.376 735.805 285.626V284.926H734.601V285.626C734.601 287.418 732.389 288.93 730.107 289.266L730.569 290.19C732.529 289.854 734.419 288.776 735.203 287.25C736.015 288.762 737.905 289.854 739.851 290.19L740.327 289.266ZM740.873 291.548H729.533V292.5H734.601V297.05H735.749V292.5H740.887L740.873 291.548ZM749.846 285.808H746.71V284.408H745.562V285.808H742.44V286.732H749.846V285.808ZM744.232 289.658C744.232 288.818 744.988 288.272 746.136 288.272C747.284 288.272 748.054 288.818 748.054 289.644C748.054 290.484 747.284 291.03 746.136 291.03C744.988 291.03 744.232 290.498 744.232 289.658ZM749.146 289.658C749.146 288.272 747.928 287.376 746.136 287.376C744.358 287.376 743.14 288.272 743.14 289.644C743.14 291.03 744.358 291.912 746.136 291.912C747.928 291.912 749.146 291.03 749.146 289.658ZM743.994 293.956H750.994V297.05H752.142V293.018H743.994V293.956ZM754.004 287.95H752.142V284.492H750.994V292.332H752.142V288.902H754.004V287.95ZM758.399 291.884C758.903 291.884 759.323 291.478 759.323 290.918C759.323 290.33 758.903 289.924 758.399 289.924C757.895 289.924 757.475 290.33 757.475 290.918C757.475 291.478 757.895 291.884 758.399 291.884ZM769.677 291.52C770.027 289.182 770.027 287.544 770.027 286.536V285.85H763.685V286.788H768.907C768.907 287.796 768.879 289.322 768.529 291.408L769.677 291.52ZM766.793 289.434H765.659V293.298C764.721 293.326 763.797 293.34 762.999 293.34L763.125 294.292C765.351 294.292 768.305 294.236 770.909 293.816L770.839 292.976C769.565 293.144 768.165 293.214 766.793 293.27V289.434ZM774.759 289.728H772.757V284.478H771.609V297.036H772.757V290.694H774.759V289.728ZM783.452 285.808H780.316V284.408H779.168V285.808H776.046V286.732H783.452V285.808ZM777.838 289.658C777.838 288.818 778.594 288.272 779.742 288.272C780.89 288.272 781.66 288.818 781.66 289.644C781.66 290.484 780.89 291.03 779.742 291.03C778.594 291.03 777.838 290.498 777.838 289.658ZM782.752 289.658C782.752 288.272 781.534 287.376 779.742 287.376C777.964 287.376 776.746 288.272 776.746 289.644C776.746 291.03 777.964 291.912 779.742 291.912C781.534 291.912 782.752 291.03 782.752 289.658ZM777.6 293.956H784.6V297.05H785.748V293.018H777.6V293.956ZM787.61 287.95H785.748V284.492H784.6V292.332H785.748V288.902H787.61V287.95Z" fill="#333333"/>
<path d="M672.82 326.094C674.836 325.73 676.642 324.722 677.44 323.182C678.224 324.722 680.03 325.73 682.046 326.094L682.494 325.184C680.058 324.792 678.014 323.322 678.014 321.39H682.046V320.466H678.014V318.758H676.852V320.466H672.806V321.39H676.852C676.852 323.322 674.808 324.792 672.372 325.184L672.82 326.094ZM678.014 328.502V325.646H676.852V328.502H671.742V329.454H683.138V328.502H678.014ZM694.659 322.328H687.197V319.906H694.575V318.982H686.049V323.252H694.659V322.328ZM690.291 330.126C688.317 330.126 687.155 329.636 687.155 328.754C687.155 327.872 688.317 327.382 690.291 327.382C692.265 327.382 693.427 327.872 693.427 328.754C693.427 329.636 692.251 330.126 690.291 330.126ZM690.291 326.486C687.617 326.486 685.993 327.298 685.993 328.754C685.993 330.21 687.617 331.022 690.291 331.022C692.965 331.022 694.589 330.21 694.589 328.754C694.589 327.298 692.965 326.486 690.291 326.486ZM684.621 324.456V325.408H695.989V324.456H684.621ZM707.183 325.52C707.533 323.182 707.533 321.544 707.533 320.536V319.85H701.191V320.788H706.413C706.413 321.796 706.385 323.322 706.035 325.408L707.183 325.52ZM704.299 323.434H703.165V327.298C702.227 327.326 701.303 327.34 700.505 327.34L700.631 328.292C702.857 328.292 705.811 328.236 708.415 327.816L708.345 326.976C707.071 327.144 705.671 327.214 704.299 327.27V323.434ZM712.265 323.728H710.263V318.478H709.115V331.036H710.263V324.694H712.265V323.728ZM720.216 321.74V322.678H722.694V325.968H723.856V318.492H722.694V321.74H720.216ZM720.916 324.596C719.096 323.952 717.864 322.37 717.864 320.76V320.326H720.622V319.402H713.916V320.326H716.716V320.76C716.716 322.566 715.428 324.26 713.552 324.946L714.154 325.856C715.624 325.296 716.786 324.12 717.318 322.664C717.864 323.952 718.942 324.988 720.342 325.492L720.916 324.596ZM719.712 330.14C717.822 330.14 716.674 329.608 716.674 328.698C716.674 327.788 717.822 327.242 719.712 327.242C721.602 327.242 722.75 327.788 722.75 328.698C722.75 329.608 721.602 330.14 719.712 330.14ZM719.712 326.36C717.136 326.36 715.526 327.214 715.526 328.698C715.526 330.182 717.136 331.036 719.712 331.036C722.288 331.036 723.884 330.182 723.884 328.698C723.884 327.214 722.288 326.36 719.712 326.36ZM740.327 323.266C738.045 322.93 735.805 321.376 735.805 319.626V318.926H734.601V319.626C734.601 321.418 732.389 322.93 730.107 323.266L730.569 324.19C732.529 323.854 734.419 322.776 735.203 321.25C736.015 322.762 737.905 323.854 739.851 324.19L740.327 323.266ZM740.873 325.548H729.533V326.5H734.601V331.05H735.749V326.5H740.887L740.873 325.548ZM749.846 319.808H746.71V318.408H745.562V319.808H742.44V320.732H749.846V319.808ZM744.232 323.658C744.232 322.818 744.988 322.272 746.136 322.272C747.284 322.272 748.054 322.818 748.054 323.644C748.054 324.484 747.284 325.03 746.136 325.03C744.988 325.03 744.232 324.498 744.232 323.658ZM749.146 323.658C749.146 322.272 747.928 321.376 746.136 321.376C744.358 321.376 743.14 322.272 743.14 323.644C743.14 325.03 744.358 325.912 746.136 325.912C747.928 325.912 749.146 325.03 749.146 323.658ZM743.994 327.956H750.994V331.05H752.142V327.018H743.994V327.956ZM754.004 321.95H752.142V318.492H750.994V326.332H752.142V322.902H754.004V321.95Z" fill="#333333"/>
<rect opacity="0.12" x="327" y="274" width="220" height="68" fill="#46D2EB"/>
<rect opacity="0.15" x="327" y="172" width="220" height="102" fill="#41B0FF"/>
<rect x="327" y="36" width="220" height="136" fill="#DBE8FB"/>
<path d="M415.666 95.97V104.88H418.06V95.97H415.666ZM407.044 105.6V112.35H418.06V105.6H415.702V107.148H409.402V105.6H407.044ZM409.402 108.966H415.702V110.478H409.402V108.966ZM409.042 96.654C406.468 96.654 404.524 98.292 404.524 100.56C404.524 102.846 406.468 104.484 409.042 104.484C411.616 104.484 413.542 102.846 413.542 100.56C413.542 98.292 411.616 96.654 409.042 96.654ZM409.042 98.616C410.302 98.616 411.22 99.354 411.22 100.56C411.22 101.802 410.302 102.522 409.042 102.522C407.782 102.522 406.846 101.802 406.846 100.56C406.846 99.354 407.782 98.616 409.042 98.616ZM427.275 97.248H424.899V99.66C424.899 102.882 423.531 106.086 420.633 107.328L422.055 109.29C424.035 108.354 425.385 106.572 426.123 104.358C426.861 106.392 428.139 108.03 430.047 108.894L431.397 106.968C428.589 105.762 427.275 102.738 427.275 99.66V97.248ZM432.207 95.952V112.584H434.583V95.952H432.207ZM451.537 95.97H449.287V108.372H451.537V95.97ZM445.975 107.886H448.189V96.258H445.975V99.75H444.013V101.676H445.975V107.886ZM445.489 104.034C443.419 103.026 442.627 101.154 442.627 99.21V97.086H440.323V99.21C440.323 101.19 439.459 103.332 437.191 104.448L438.487 106.248C439.945 105.564 440.917 104.376 441.511 102.972C442.033 104.214 442.897 105.24 444.193 105.852L445.489 104.034ZM442.753 110.37V106.932H440.377V112.26H451.951V110.37H442.753ZM457.08 103.818H461.832V101.964H457.08V99.264H462.39V97.356H454.722V108.822H456.072C458.862 108.822 460.986 108.768 463.38 108.39L463.164 106.482C461.13 106.806 459.312 106.896 457.08 106.914V103.818ZM465.504 95.952V101.802H462.66V103.71H465.504V112.584H467.88V95.952H465.504Z" fill="#3C68A7"/>
<path d="M424.053 219.488V221.018H420.399V222.926H424.053V224.51H426.429V214.97H424.053V217.598H421.083C421.155 217.112 421.191 216.608 421.191 216.086H413.595V217.994H418.599C418.293 220.244 416.475 222.026 412.695 223.034L413.613 224.906C417.267 223.88 419.589 222.098 420.615 219.488H424.053ZM420.957 229.622C418.905 229.622 417.699 229.1 417.699 228.092C417.699 227.084 418.905 226.562 420.957 226.562C422.991 226.562 424.197 227.084 424.197 228.092C424.197 229.1 422.991 229.622 420.957 229.622ZM420.957 224.726C417.573 224.726 415.359 226.022 415.359 228.092C415.359 230.162 417.573 231.458 420.957 231.458C424.323 231.458 426.537 230.162 426.537 228.092C426.537 226.022 424.323 224.726 420.957 224.726ZM435.554 216.248H433.178V218.66C433.178 221.882 431.81 225.086 428.912 226.328L430.334 228.29C432.314 227.354 433.664 225.572 434.402 223.358C435.14 225.392 436.418 227.03 438.326 227.894L439.676 225.968C436.868 224.762 435.554 221.738 435.554 218.66V216.248ZM440.486 214.952V231.584H442.862V214.952H440.486ZM454.543 222.08C454.921 219.992 454.921 218.354 454.921 217.202V216.176H446.407V218.066H452.581C452.563 219.056 452.491 220.262 452.221 221.81L454.543 222.08ZM455.641 222.746C454.093 222.962 452.437 223.088 450.799 223.16V220.028H448.477V223.25C447.397 223.268 446.371 223.268 445.453 223.268L445.669 225.158C448.513 225.14 452.365 225.068 455.785 224.438L455.641 222.746ZM450.241 226.274H447.865V231.26H459.439V229.37H450.241V226.274ZM458.917 220.01V214.952H456.541V227.372H458.917V221.972H460.897V220.01H458.917Z" fill="#5E91DC"/>
<path d="M415.035 304.92C415.035 303.624 415.917 302.868 417.141 302.868C418.365 302.868 419.265 303.624 419.265 304.92C419.265 306.198 418.365 306.972 417.141 306.972C415.917 306.972 415.035 306.198 415.035 304.92ZM424.053 304.02V305.82H421.407C421.479 305.514 421.515 305.226 421.515 304.92C421.515 304.596 421.479 304.308 421.425 304.02H424.053ZM424.053 307.71V309.69H426.429V299.97H424.053V302.13H420.399C419.607 301.338 418.473 300.852 417.141 300.852C414.693 300.852 412.785 302.562 412.785 304.92C412.785 307.26 414.693 308.97 417.141 308.97C418.437 308.97 419.571 308.502 420.363 307.71H424.053ZM420.813 314.73C418.635 314.73 417.483 314.262 417.483 313.29C417.483 312.318 418.635 311.85 420.813 311.85C422.991 311.85 424.161 312.318 424.161 313.29C424.161 314.262 422.991 314.73 420.813 314.73ZM420.813 310.014C417.321 310.014 415.143 311.22 415.143 313.29C415.143 315.342 417.321 316.566 420.813 316.566C424.323 316.566 426.501 315.342 426.501 313.29C426.501 311.22 424.323 310.014 420.813 310.014ZM441.224 299.952V306.306H439.874V300.222H437.66V310.95C435.212 309.672 434.384 306.918 434.384 304.02V303.57H436.868V301.644H429.362V303.57H432.08V304.02C432.08 307.206 431.288 310.14 428.822 311.58L430.244 313.38C431.792 312.462 432.764 310.896 433.304 308.988C433.898 310.644 434.852 311.976 436.328 312.768L437.66 310.986V315.792H439.874V308.25H441.224V316.53H443.474V299.952H441.224ZM454.543 307.08C454.921 304.992 454.921 303.354 454.921 302.202V301.176H446.407V303.066H452.581C452.563 304.056 452.491 305.262 452.221 306.81L454.543 307.08ZM455.641 307.746C454.093 307.962 452.437 308.088 450.799 308.16V305.028H448.477V308.25C447.397 308.268 446.371 308.268 445.453 308.268L445.669 310.158C448.513 310.14 452.365 310.068 455.785 309.438L455.641 307.746ZM450.241 311.274H447.865V316.26H459.439V314.37H450.241V311.274ZM458.917 305.01V299.952H456.541V312.372H458.917V306.972H460.897V305.01H458.917Z" fill="#6BB9C7"/>
<rect x="547" y="274" width="100" height="34" fill="#67BBCF"/>
<rect x="547" y="308" width="100" height="34" fill="#6FC4D9"/>
<rect x="547" y="240" width="100" height="34" fill="#549EC1"/>
<rect x="547" y="172" width="100" height="68" fill="#3E7CA8"/>
<rect x="547" y="70" width="100" height="102" fill="#02578A"/>
<rect x="547" y="36" width="100" height="34" fill="#024873"/>
<path d="M596.335 46.625V58H593.992V46.625H596.335ZM600.867 51.4844V53.3125H595.695V51.4844H600.867ZM601.414 46.625V48.4609H595.695V46.625H601.414Z" fill="white"/>
<path d="M597.632 320.57L594.539 330H592.046L596.273 318.625H597.859L597.632 320.57ZM600.203 330L597.101 320.57L596.851 318.625H598.453L602.703 330H600.203ZM600.062 325.766V327.602H594.054V325.766H600.062Z" fill="white"/>
<path d="M597.726 291.008H594.804L594.789 289.398H597.242C597.674 289.398 598.028 289.344 598.304 289.234C598.58 289.12 598.786 288.956 598.921 288.742C599.062 288.523 599.132 288.258 599.132 287.945C599.132 287.591 599.065 287.305 598.929 287.086C598.799 286.867 598.593 286.708 598.312 286.609C598.036 286.51 597.679 286.461 597.242 286.461H595.617V296H593.273V284.625H597.242C597.903 284.625 598.494 284.688 599.015 284.812C599.541 284.938 599.986 285.128 600.351 285.383C600.716 285.638 600.994 285.961 601.187 286.352C601.38 286.737 601.476 287.195 601.476 287.727C601.476 288.195 601.369 288.628 601.156 289.023C600.947 289.419 600.617 289.742 600.164 289.992C599.716 290.242 599.13 290.38 598.406 290.406L597.726 291.008ZM597.624 296H594.164L595.078 294.172H597.624C598.036 294.172 598.372 294.107 598.632 293.977C598.893 293.841 599.085 293.659 599.21 293.43C599.335 293.201 599.398 292.938 599.398 292.641C599.398 292.307 599.341 292.018 599.226 291.773C599.117 291.529 598.94 291.341 598.695 291.211C598.45 291.076 598.127 291.008 597.726 291.008H595.468L595.484 289.398H598.296L598.835 290.031C599.528 290.021 600.085 290.143 600.507 290.398C600.934 290.648 601.244 290.974 601.437 291.375C601.635 291.776 601.734 292.206 601.734 292.664C601.734 293.393 601.575 294.008 601.257 294.508C600.94 295.003 600.473 295.375 599.859 295.625C599.249 295.875 598.505 296 597.624 296Z" fill="white"/>
<path d="M599.742 258.227H602.078C602.031 258.992 601.82 259.672 601.445 260.266C601.075 260.859 600.557 261.323 599.89 261.656C599.229 261.99 598.432 262.156 597.499 262.156C596.77 262.156 596.117 262.031 595.539 261.781C594.96 261.526 594.466 261.161 594.054 260.688C593.648 260.214 593.338 259.641 593.124 258.969C592.911 258.297 592.804 257.544 592.804 256.711V255.922C592.804 255.089 592.914 254.336 593.132 253.664C593.356 252.987 593.674 252.411 594.085 251.938C594.502 251.464 594.999 251.099 595.578 250.844C596.156 250.589 596.802 250.461 597.515 250.461C598.463 250.461 599.262 250.633 599.914 250.977C600.57 251.32 601.078 251.794 601.437 252.398C601.802 253.003 602.02 253.69 602.093 254.461H599.749C599.723 254.003 599.632 253.615 599.476 253.297C599.32 252.974 599.083 252.732 598.765 252.57C598.453 252.404 598.036 252.32 597.515 252.32C597.124 252.32 596.783 252.393 596.492 252.539C596.2 252.685 595.955 252.906 595.757 253.203C595.559 253.5 595.411 253.875 595.312 254.328C595.218 254.776 595.171 255.302 595.171 255.906V256.711C595.171 257.299 595.216 257.818 595.304 258.266C595.393 258.708 595.528 259.083 595.71 259.391C595.898 259.693 596.137 259.922 596.429 260.078C596.726 260.229 597.083 260.305 597.499 260.305C597.989 260.305 598.393 260.227 598.71 260.07C599.028 259.914 599.27 259.682 599.437 259.375C599.609 259.068 599.71 258.685 599.742 258.227Z" fill="white"/>
<path d="M588.921 228H586.445L586.46 226.172H588.921C589.536 226.172 590.054 226.034 590.476 225.758C590.898 225.477 591.216 225.068 591.429 224.531C591.648 223.995 591.757 223.346 591.757 222.586V222.031C591.757 221.448 591.695 220.935 591.57 220.492C591.45 220.049 591.27 219.677 591.031 219.375C590.791 219.073 590.497 218.846 590.148 218.695C589.799 218.539 589.398 218.461 588.945 218.461H586.398V216.625H588.945C589.705 216.625 590.401 216.755 591.031 217.016C591.666 217.271 592.216 217.638 592.679 218.117C593.143 218.596 593.499 219.169 593.749 219.836C594.005 220.497 594.132 221.234 594.132 222.047V222.586C594.132 223.393 594.005 224.13 593.749 224.797C593.499 225.464 593.143 226.036 592.679 226.516C592.221 226.99 591.671 227.357 591.031 227.617C590.395 227.872 589.692 228 588.921 228ZM587.773 216.625V228H585.429V216.625H587.773ZM600.132 222.234V224H595.718V222.234H600.132ZM607.398 216.602V228H605.148V219.195L602.445 220.055V218.281L607.156 216.602H607.398Z" fill="white"/>
<path d="M588.921 194H586.445L586.46 192.172H588.921C589.536 192.172 590.054 192.034 590.476 191.758C590.898 191.477 591.216 191.068 591.429 190.531C591.648 189.995 591.757 189.346 591.757 188.586V188.031C591.757 187.448 591.695 186.935 591.57 186.492C591.45 186.049 591.27 185.677 591.031 185.375C590.791 185.073 590.497 184.846 590.148 184.695C589.799 184.539 589.398 184.461 588.945 184.461H586.398V182.625H588.945C589.705 182.625 590.401 182.755 591.031 183.016C591.666 183.271 592.216 183.638 592.679 184.117C593.143 184.596 593.499 185.169 593.749 185.836C594.005 186.497 594.132 187.234 594.132 188.047V188.586C594.132 189.393 594.005 190.13 593.749 190.797C593.499 191.464 593.143 192.036 592.679 192.516C592.221 192.99 591.671 193.357 591.031 193.617C590.395 193.872 589.692 194 588.921 194ZM587.773 182.625V194H585.429V182.625H587.773ZM600.132 188.234V190H595.718V188.234H600.132ZM609.695 192.242V194H601.914V192.5L605.593 188.555C605.963 188.143 606.255 187.781 606.468 187.469C606.682 187.151 606.835 186.867 606.929 186.617C607.028 186.362 607.078 186.12 607.078 185.891C607.078 185.547 607.02 185.253 606.906 185.008C606.791 184.758 606.622 184.565 606.398 184.43C606.179 184.294 605.908 184.227 605.585 184.227C605.242 184.227 604.945 184.31 604.695 184.477C604.45 184.643 604.262 184.875 604.132 185.172C604.007 185.469 603.945 185.805 603.945 186.18H601.687C601.687 185.503 601.848 184.883 602.171 184.32C602.494 183.753 602.95 183.302 603.539 182.969C604.127 182.63 604.825 182.461 605.632 182.461C606.429 182.461 607.101 182.591 607.648 182.852C608.2 183.107 608.617 183.477 608.898 183.961C609.184 184.44 609.328 185.013 609.328 185.68C609.328 186.055 609.268 186.422 609.148 186.781C609.028 187.135 608.856 187.49 608.632 187.844C608.414 188.193 608.148 188.547 607.835 188.906C607.523 189.266 607.177 189.638 606.796 190.023L604.82 192.242H609.695Z" fill="white"/>
<path d="M593.765 158.172V160H587.71V158.172H593.765ZM588.476 148.625V160H586.132V148.625H588.476ZM592.976 153.258V155.039H587.71V153.258H592.976ZM593.757 148.625V150.461H587.71V148.625H593.757ZM599.429 154.234V156H595.015V154.234H599.429ZM606.695 148.602V160H604.445V151.195L601.742 152.055V150.281L606.453 148.602H606.695Z" fill="white"/>
<path d="M593.765 124.172V126H587.71V124.172H593.765ZM588.476 114.625V126H586.132V114.625H588.476ZM592.976 119.258V121.039H587.71V119.258H592.976ZM593.757 114.625V116.461H587.71V114.625H593.757ZM599.429 120.234V122H595.015V120.234H599.429ZM608.992 124.242V126H601.21V124.5L604.89 120.555C605.26 120.143 605.552 119.781 605.765 119.469C605.979 119.151 606.132 118.867 606.226 118.617C606.325 118.362 606.374 118.12 606.374 117.891C606.374 117.547 606.317 117.253 606.203 117.008C606.088 116.758 605.919 116.565 605.695 116.43C605.476 116.294 605.205 116.227 604.882 116.227C604.539 116.227 604.242 116.31 603.992 116.477C603.747 116.643 603.559 116.875 603.429 117.172C603.304 117.469 603.242 117.805 603.242 118.18H600.984C600.984 117.503 601.145 116.883 601.468 116.32C601.791 115.753 602.247 115.302 602.835 114.969C603.424 114.63 604.122 114.461 604.929 114.461C605.726 114.461 606.398 114.591 606.945 114.852C607.497 115.107 607.914 115.477 608.195 115.961C608.481 116.44 608.624 117.013 608.624 117.68C608.624 118.055 608.565 118.422 608.445 118.781C608.325 119.135 608.153 119.49 607.929 119.844C607.71 120.193 607.445 120.547 607.132 120.906C606.82 121.266 606.473 121.638 606.093 122.023L604.117 124.242H608.992Z" fill="white"/>
<path d="M593.765 90.1719V92H587.71V90.1719H593.765ZM588.476 80.625V92H586.132V80.625H588.476ZM592.976 85.2578V87.0391H587.71V85.2578H592.976ZM593.757 80.625V82.4609H587.71V80.625H593.757ZM599.429 86.2344V88H595.015V86.2344H599.429ZM603.515 85.3359H604.718C605.104 85.3359 605.421 85.2708 605.671 85.1406C605.921 85.0052 606.106 84.8177 606.226 84.5781C606.351 84.3333 606.414 84.0495 606.414 83.7266C606.414 83.4349 606.356 83.1771 606.242 82.9531C606.132 82.724 605.963 82.5469 605.734 82.4219C605.505 82.2917 605.216 82.2266 604.867 82.2266C604.591 82.2266 604.335 82.2812 604.101 82.3906C603.867 82.5 603.679 82.6536 603.539 82.8516C603.398 83.0495 603.328 83.2891 603.328 83.5703H601.07C601.07 82.9453 601.236 82.401 601.57 81.9375C601.908 81.474 602.361 81.112 602.929 80.8516C603.497 80.5911 604.122 80.4609 604.804 80.4609C605.575 80.4609 606.249 80.5859 606.828 80.8359C607.406 81.0807 607.856 81.4427 608.179 81.9219C608.502 82.401 608.664 82.9948 608.664 83.7031C608.664 84.0625 608.58 84.4115 608.414 84.75C608.247 85.0833 608.007 85.3854 607.695 85.6562C607.387 85.9219 607.012 86.1354 606.57 86.2969C606.127 86.4531 605.63 86.5312 605.078 86.5312H603.515V85.3359ZM603.515 87.0469V85.8828H605.078C605.697 85.8828 606.242 85.9531 606.71 86.0938C607.179 86.2344 607.572 86.4375 607.89 86.7031C608.208 86.9635 608.447 87.2734 608.609 87.6328C608.77 87.987 608.851 88.3802 608.851 88.8125C608.851 89.3438 608.749 89.8177 608.546 90.2344C608.343 90.6458 608.057 90.9948 607.687 91.2812C607.322 91.5677 606.895 91.7865 606.406 91.9375C605.916 92.0833 605.382 92.1562 604.804 92.1562C604.325 92.1562 603.854 92.0911 603.39 91.9609C602.932 91.8255 602.515 91.625 602.14 91.3594C601.77 91.0885 601.473 90.75 601.249 90.3438C601.031 89.9323 600.921 89.4453 600.921 88.8828H603.179C603.179 89.1745 603.252 89.4349 603.398 89.6641C603.544 89.8932 603.744 90.0729 603.999 90.2031C604.26 90.3333 604.549 90.3984 604.867 90.3984C605.226 90.3984 605.533 90.3333 605.789 90.2031C606.049 90.0677 606.247 89.8802 606.382 89.6406C606.523 89.3958 606.593 89.112 606.593 88.7891C606.593 88.3724 606.518 88.0391 606.367 87.7891C606.216 87.5339 605.999 87.3464 605.718 87.2266C605.437 87.1068 605.104 87.0469 604.718 87.0469H603.515Z" fill="white"/>
<path opacity="0.2" d="M547 206H647" stroke="white" stroke-width="0.7" stroke-dasharray="2 2"/>
<path opacity="0.2" d="M547 135H647" stroke="white" stroke-width="0.7" stroke-dasharray="2 2"/>
<path opacity="0.2" d="M547 104H647" stroke="white" stroke-width="0.7" stroke-dasharray="2 2"/>
<path opacity="0.2" d="M547 70H647" stroke="white" stroke-width="0.7"/>
<path opacity="0.2" d="M547 172H647" stroke="white" stroke-width="0.7"/>
<path opacity="0.2" d="M547 240H647" stroke="white" stroke-width="0.7"/>
<path opacity="0.2" d="M547 274H647" stroke="white" stroke-width="0.7"/>
<path opacity="0.2" d="M547 308H647" stroke="white" stroke-width="0.7"/>
<path d="M597 0L674.076 36H519.924L597 0Z" fill="#024873"/>
</svg>
