<svg width="560" height="389" viewBox="0 0 560 389" fill="none" xmlns="http://www.w3.org/2000/svg">
<path d="M171.317 377.657L172.265 376.517L173.213 377.657L173.741 377.273L172.973 376.025L174.281 375.485L174.077 374.873L172.709 375.197L172.589 373.757H171.941L171.821 375.209L170.453 374.873L170.237 375.485L171.545 376.025L170.789 377.273L171.317 377.657ZM178.898 374.453H177.95V376.505C177.95 378.353 177.062 380.285 175.586 381.149L176.198 381.893C177.266 381.233 178.046 380.009 178.43 378.581C178.814 379.889 179.534 381.029 180.554 381.653L181.118 380.885C179.702 380.021 178.898 378.197 178.898 376.469V374.453ZM181.73 377.297H179.954V378.113H181.73V383.669H182.654V373.673H181.73V377.297ZM183.914 373.433V384.197H184.85V373.433H183.914ZM194.281 377.717H188.941V376.133H194.281V377.717ZM195.265 373.865H194.281V375.341H188.941V373.865H187.969V378.521H195.265V373.865ZM196.501 379.817H186.733V380.609H191.101V384.209H192.085V380.609H196.501V379.817ZM206.66 379.049H203.984V375.305H206.66V379.049ZM203 379.049H201.356V379.853H209.288V379.049H207.644V375.305H209.312V374.513H201.332V375.305H203V379.049ZM200.468 382.001V382.817H210.224V382.001H200.468ZM216.871 382.061V380.033H220.315V379.241H213.691V377.501H220.063V374.225H212.695V375.029H219.103V376.709H212.719V380.033H215.875V382.061H211.495V382.865H221.275V382.061H216.871ZM230.01 375.653C230.01 376.985 230.01 378.593 229.578 380.789L230.562 380.897C230.982 378.569 230.982 377.021 230.982 375.653V374.585H230.526V374.573H223.602V375.377H230.01V375.653ZM222.558 381.809V382.625H232.29V381.809H222.558ZM238.733 378.281C237.473 378.533 236.417 378.593 235.025 378.593V377.069H238.097V374.141H234.053V374.933H237.149V376.325H234.077V379.385H234.785C236.333 379.385 237.461 379.325 238.829 379.073L238.733 378.281ZM236.561 381.161H241.709V383.261H236.561V381.161ZM235.601 384.053H242.669V380.381H235.601V384.053ZM241.721 373.433V376.169H240.281V373.637H239.345V379.721H240.281V376.973H241.721V379.865H242.669V373.433H241.721ZM249.484 374.597C251.176 374.597 252.256 375.101 252.256 375.953C252.256 376.805 251.176 377.297 249.484 377.297C247.792 377.297 246.712 376.805 246.712 375.953C246.712 375.101 247.792 374.597 249.484 374.597ZM249.484 378.089C251.788 378.089 253.264 377.297 253.264 375.953C253.264 374.609 251.788 373.805 249.484 373.805C247.18 373.805 245.704 374.609 245.704 375.953C245.704 377.297 247.18 378.089 249.484 378.089ZM246.856 380.837H245.872V383.957H253.276V383.153H246.856V380.837ZM244.612 379.097V379.889H254.344V379.097H244.612ZM267.431 373.433H266.483V381.509H267.431V373.433ZM264.383 381.197H265.307V373.649H264.383V376.145H262.703V376.949H264.383V381.197ZM263.639 378.929C262.295 378.317 261.527 377.045 261.527 375.773V374.189H260.579V375.773C260.579 377.057 259.763 378.533 258.371 379.205L258.923 379.961C259.931 379.457 260.675 378.521 261.059 377.465C261.431 378.425 262.127 379.229 263.099 379.685L263.639 378.929ZM261.395 383.153V380.525H260.411V383.957H267.743V383.153H261.395ZM270.862 378.233H274.39V377.441H270.862V375.221H274.858V374.405H269.878V381.617H270.706C272.758 381.617 274.066 381.557 275.626 381.281L275.518 380.477C274.054 380.741 272.806 380.813 270.862 380.813V378.233ZM277.27 373.421V377.489H275.05V378.305H277.27V384.209H278.254V373.421H277.27ZM288.297 375.737V376.925H285.813V375.737H288.297ZM284.841 377.837H281.937V376.241H284.841V377.837ZM285.813 377.693H288.297V379.061H289.281V373.445H288.297V374.969H285.813V373.949H284.841V375.473H281.937V373.937H280.965V378.629H285.813V377.693ZM283.341 383.273V382.133H289.281V379.577H282.345V380.357H288.309V381.389H282.369V384.053H289.689V383.273H283.341ZM296.828 382.061V380.033H300.272V379.241H293.648V377.501H300.02V374.225H292.652V375.029H299.06V376.709H292.676V380.033H295.832V382.061H291.452V382.865H301.232V382.061H296.828ZM306.627 375.281H310.647V374.465H305.643V381.533H306.495C308.523 381.533 309.939 381.461 311.583 381.149L311.475 380.333C309.915 380.609 308.535 380.693 306.627 380.693V375.281ZM315.243 377.681H313.467V373.433H312.483V384.221H313.467V378.497H315.243V377.681ZM323.762 375.317H317.474V377.621H324.926V376.913H318.446V375.989H324.734V373.745H317.45V374.441H323.762V375.317ZM318.386 382.349H324.77V380.057H317.39V380.765H323.798V381.665H317.414V384.053H325.106V383.345H318.386V382.349ZM316.226 378.437V379.181H325.982V378.437H316.226ZM339.212 377.537C337.256 377.249 335.336 375.917 335.336 374.417V373.817H334.304V374.417C334.304 375.953 332.408 377.249 330.452 377.537L330.848 378.329C332.528 378.041 334.148 377.117 334.82 375.809C335.516 377.105 337.136 378.041 338.804 378.329L339.212 377.537ZM339.68 379.493H329.96V380.309H334.304V384.209H335.288V380.309H339.692L339.68 379.493ZM352.503 373.445H351.519V379.589H352.503V373.445ZM346.719 374.885C347.787 374.885 348.579 375.593 348.579 376.577C348.579 377.573 347.787 378.269 346.719 378.269C345.651 378.269 344.883 377.573 344.883 376.577C344.883 375.593 345.651 374.885 346.719 374.885ZM346.719 379.085C348.351 379.085 349.539 378.065 349.539 376.577C349.539 375.089 348.351 374.069 346.719 374.069C345.099 374.069 343.923 375.089 343.923 376.577C343.923 378.065 345.099 379.085 346.719 379.085ZM351.303 380.057H350.343V380.633C350.343 381.473 349.827 382.553 348.795 383.189C347.799 382.601 347.307 381.581 347.307 380.633V380.057H346.359V380.633C346.359 381.665 345.555 382.829 344.199 383.309L344.691 384.053C345.699 383.669 346.431 382.925 346.815 382.061C347.139 382.961 347.787 383.741 348.819 384.149C349.815 383.717 350.475 382.901 350.811 382.025C351.171 382.925 351.915 383.669 352.971 384.053L353.463 383.309C352.095 382.853 351.303 381.749 351.303 380.633V380.057ZM363.89 376.793C361.982 376.553 360.086 375.365 360.086 374.033V373.553H359.078V374.033C359.078 375.401 357.194 376.553 355.262 376.793L355.622 377.585C357.302 377.321 358.91 376.481 359.582 375.281C360.266 376.481 361.862 377.321 363.53 377.585L363.89 376.793ZM362.198 383.261H356.906V381.893H362.198V383.261ZM362.198 381.137H356.906V379.877H355.934V384.053H363.17V379.877H362.198V381.137ZM354.698 378.341V379.133H364.442V378.341H354.698ZM367.405 374.477H366.421V381.413H367.309C369.025 381.413 370.717 381.293 372.589 380.909L372.481 380.069C370.693 380.429 369.025 380.573 367.405 380.573V374.477ZM373.585 373.433V384.185H374.569V373.433H373.585ZM378.228 375.281H382.248V374.465H377.244V381.533H378.096C380.124 381.533 381.54 381.461 383.184 381.149L383.076 380.333C381.516 380.609 380.136 380.693 378.228 380.693V375.281ZM386.844 377.681H385.068V373.433H384.084V384.221H385.068V378.497H386.844V377.681ZM388.859 383.465C389.291 383.465 389.651 383.129 389.651 382.637C389.651 382.145 389.291 381.785 388.859 381.785C388.427 381.785 388.067 382.145 388.067 382.637C388.067 383.129 388.427 383.465 388.859 383.465Z" fill="#111921" fill-opacity="0.8"/>
<rect opacity="0.12" x="331.852" y="283.473" width="228.148" height="70.3511" fill="#46D2EB"/>
<rect opacity="0.15" x="331.852" y="177.947" width="228.148" height="105.527" fill="#41B0FF"/>
<rect x="331.852" y="37.2441" width="228.148" height="140.702" fill="#DBE8FB"/>
<path d="M331.852 72.4199H560" stroke="#BFBFBF" stroke-width="0.7"/>
<path d="M331.852 177.947H560" stroke="#BFBFBF" stroke-width="0.7"/>
<path d="M331.852 318.648H560" stroke="#BFBFBF" stroke-width="0.7"/>
<path d="M331.852 248.297H560" stroke="#BFBFBF" stroke-width="0.7"/>
<path d="M331.852 283.473H560" stroke="#BFBFBF" stroke-width="0.7"/>
<path d="M331.852 139.668H560" stroke="#BFBFBF" stroke-width="0.7" stroke-dasharray="2 2"/>
<path d="M331.852 107.596H560" stroke="#BFBFBF" stroke-width="0.7" stroke-dasharray="2 2"/>
<path d="M331.852 213.123H560" stroke="#BFBFBF" stroke-width="0.7" stroke-dasharray="2 2"/>
<path d="M331.852 72.4199H560" stroke="#BFBFBF" stroke-width="0.7" stroke-dasharray="2 2"/>
<path d="M359.065 51.1861H362.607V50.2481H357.931V58.1861H358.757C360.633 58.1861 361.907 58.1301 363.405 57.8081L363.307 56.8561C361.935 57.1501 360.745 57.2201 359.065 57.2341V51.1861ZM367.045 48.7221V53.7621H365.267V49.0021H364.189V60.6501H365.267V54.7001H367.045V61.2801H368.151V48.7221H367.045ZM379.518 48.7361V55.4701H380.666V48.7361H379.518ZM372.574 56.0861V61.1121H380.666V56.0861H379.532V57.6261H373.708V56.0861H372.574ZM373.708 58.5221H379.532V60.1881H373.708V58.5221ZM373.918 49.3241C372.028 49.3241 370.656 50.5001 370.656 52.2081C370.656 53.9441 372.028 55.1061 373.918 55.1061C375.822 55.1061 377.208 53.9441 377.208 52.2081C377.208 50.5001 375.822 49.3241 373.918 49.3241ZM373.918 50.2761C375.192 50.2761 376.088 51.0741 376.088 52.2081C376.088 53.3561 375.192 54.1541 373.918 54.1541C372.672 54.1541 371.776 53.3561 371.776 52.2081C371.776 51.0741 372.672 50.2761 373.918 50.2761ZM392.924 55.7641C393.274 53.4261 393.274 51.7881 393.274 50.7801V50.0941H386.932V51.0321H392.154C392.154 52.0401 392.126 53.5661 391.776 55.6521L392.924 55.7641ZM390.04 53.6781H388.906V57.5421C387.968 57.5701 387.044 57.5841 386.246 57.5841L386.372 58.5361C388.598 58.5361 391.552 58.4801 394.156 58.0601L394.086 57.2201C392.812 57.3881 391.412 57.4581 390.04 57.5141V53.6781ZM398.006 53.9721H396.004V48.7221H394.856V61.2801H396.004V54.9381H398.006V53.9721ZM405.957 51.9841V52.9221H408.435V56.2121H409.597V48.7361H408.435V51.9841H405.957ZM406.657 54.8401C404.837 54.1961 403.605 52.6141 403.605 51.0041V50.5701H406.363V49.6461H399.657V50.5701H402.457V51.0041C402.457 52.8101 401.169 54.5041 399.293 55.1901L399.895 56.1001C401.365 55.5401 402.527 54.3641 403.059 52.9081C403.605 54.1961 404.683 55.2321 406.083 55.7361L406.657 54.8401ZM405.453 60.3841C403.563 60.3841 402.415 59.8521 402.415 58.9421C402.415 58.0321 403.563 57.4861 405.453 57.4861C407.343 57.4861 408.491 58.0321 408.491 58.9421C408.491 59.8521 407.343 60.3841 405.453 60.3841ZM405.453 56.6041C402.877 56.6041 401.267 57.4581 401.267 58.9421C401.267 60.4261 402.877 61.2801 405.453 61.2801C408.029 61.2801 409.625 60.4261 409.625 58.9421C409.625 57.4581 408.029 56.6041 405.453 56.6041Z" fill="#333333"/>
<path d="M358.771 87.6219C358.771 86.4599 359.695 85.6199 360.913 85.6199C362.145 85.6199 363.041 86.4599 363.041 87.6219C363.041 88.7979 362.145 89.6379 360.913 89.6379C359.695 89.6379 358.771 88.7979 358.771 87.6219ZM366.667 86.6419V88.6019H363.965C364.077 88.2939 364.133 87.9719 364.133 87.6219C364.133 87.2579 364.077 86.9359 363.979 86.6419H366.667ZM366.667 89.5399V91.3319H367.829V83.8979H366.667V85.7039H363.447C362.873 85.0599 361.977 84.6539 360.913 84.6539C359.051 84.6539 357.679 85.8719 357.679 87.6219C357.679 89.3859 359.051 90.6179 360.913 90.6179C361.977 90.6179 362.873 90.2119 363.447 89.5399H366.667ZM363.671 95.5319C361.781 95.5319 360.633 94.9719 360.633 94.0339C360.633 93.0819 361.781 92.5219 363.671 92.5219C365.589 92.5219 366.737 93.0819 366.737 94.0339C366.737 94.9719 365.589 95.5319 363.671 95.5319ZM363.671 91.6259C361.095 91.6259 359.499 92.5079 359.499 94.0339C359.499 95.5599 361.095 96.4419 363.671 96.4419C366.261 96.4419 367.871 95.5599 367.871 94.0339C367.871 92.5079 366.261 91.6259 363.671 91.6259ZM374.072 86.3199H376.354V85.3819H370.53V86.3199H372.966V87.2999C372.966 89.8479 372.028 91.9899 370.236 92.9979L370.936 93.8659C372.238 93.1099 373.12 91.7519 373.54 90.0439C373.988 91.5279 374.856 92.7459 376.088 93.4319L376.76 92.5499C374.982 91.6259 374.072 89.5959 374.072 87.2999V86.3199ZM379.966 83.8839V88.9659H378.314V84.1779H377.236V95.8399H378.314V89.9179H379.966V96.4559H381.072V83.8839H379.966ZM390.689 85.2279H387.553V83.8279H386.405V85.2279H383.283V86.1519H390.689V85.2279ZM385.075 89.0779C385.075 88.2379 385.831 87.6919 386.979 87.6919C388.127 87.6919 388.897 88.2379 388.897 89.0639C388.897 89.9039 388.127 90.4499 386.979 90.4499C385.831 90.4499 385.075 89.9179 385.075 89.0779ZM389.989 89.0779C389.989 87.6919 388.771 86.7959 386.979 86.7959C385.201 86.7959 383.983 87.6919 383.983 89.0639C383.983 90.4499 385.201 91.3319 386.979 91.3319C388.771 91.3319 389.989 90.4499 389.989 89.0779ZM384.837 93.3759H391.837V96.4699H392.985V92.4379H384.837V93.3759ZM394.847 87.3699H392.985V83.9119H391.837V91.7519H392.985V88.3219H394.847V87.3699ZM404.996 86.5439C404.996 88.0979 404.996 89.7499 404.562 91.9899L405.696 92.1299C406.144 89.7779 406.144 88.1399 406.144 86.5439V85.1579H397.296V86.0959H404.996V86.5439ZM403.148 93.7539V89.5959H402.014V93.7539H400.04V89.5959H398.906V93.7539H396.12V94.6919H407.474V93.7539H403.148ZM413.712 86.3619H417.254V85.4239H412.578V93.3619H413.404C415.28 93.3619 416.554 93.3059 418.052 92.9839L417.954 92.0319C416.582 92.3259 415.392 92.3959 413.712 92.4099V86.3619ZM421.692 83.8979V88.9379H419.914V84.1779H418.836V95.8259H419.914V89.8759H421.692V96.4559H422.798V83.8979H421.692ZM434.137 83.8979V96.4699H435.285V83.8979H434.137ZM425.723 84.9619V93.4319H431.631V84.9619H430.497V88.2799H426.857V84.9619H425.723ZM426.857 89.1899H430.497V92.4939H426.857V89.1899ZM443.096 90.0999H439.54V87.8039H443.096V90.0999ZM444.216 84.8079H443.096V86.9079H439.54V84.8079H438.406V91.0239H444.216V84.8079ZM440.968 92.2419H439.82V96.1759H448.192V95.2379H440.968V92.2419ZM447.632 87.7059V83.9119H446.484V93.1239H447.632V88.6719H449.494V87.7059H447.632Z" fill="#333333"/>
<path d="M366.345 156.755C366.345 158.267 366.345 160.031 365.869 162.439L367.017 162.565C367.493 160.031 367.493 158.309 367.493 156.755V155.509H358.687V156.447H366.345V156.755ZM363.055 164.105V159.611H361.907V164.105H357.497V165.043H368.851V164.105H363.055ZM380.4 158.099H372.938V155.677H380.316V154.753H371.79V159.023H380.4V158.099ZM376.032 165.897C374.058 165.897 372.896 165.407 372.896 164.525C372.896 163.643 374.058 163.153 376.032 163.153C378.006 163.153 379.168 163.643 379.168 164.525C379.168 165.407 377.992 165.897 376.032 165.897ZM376.032 162.257C373.358 162.257 371.734 163.069 371.734 164.525C371.734 165.981 373.358 166.793 376.032 166.793C378.706 166.793 380.33 165.981 380.33 164.525C380.33 163.069 378.706 162.257 376.032 162.257ZM370.362 160.227V161.179H381.73V160.227H370.362ZM396.662 154.263H395.514V160.759H396.662V154.263ZM393.974 159.499C392.112 158.883 390.796 157.315 390.796 155.579V154.627H389.648V155.579C389.648 157.399 388.346 159.079 386.456 159.737L387.044 160.633C388.528 160.101 389.69 158.953 390.236 157.511C390.81 158.841 391.958 159.891 393.4 160.395L393.974 159.499ZM389.704 165.757V164.413H396.676V161.389H388.542V162.299H395.542V163.545H388.57V166.667H397.096V165.757H389.704ZM405.915 157.721V158.659H408.435V163.461H409.597V154.263H408.435V157.721H405.915ZM406.657 160.675C404.837 160.031 403.605 158.463 403.605 156.825V156.209H406.363V155.271H399.657V156.209H402.457V156.839C402.457 158.617 401.155 160.283 399.293 160.955L399.895 161.851C401.365 161.319 402.513 160.157 403.059 158.729C403.605 160.017 404.683 161.067 406.083 161.571L406.657 160.675ZM402.723 165.589V162.649H401.561V166.527H409.947V165.589H402.723ZM418.682 161.291C419.032 158.953 419.032 157.315 419.032 156.307V155.621H412.69V156.559H417.912C417.912 157.567 417.884 159.093 417.534 161.179L418.682 161.291ZM415.798 159.205H414.664V163.069C413.726 163.097 412.802 163.111 412.004 163.111L412.13 164.063C414.356 164.063 417.31 164.007 419.914 163.587L419.844 162.747C418.57 162.915 417.17 162.985 415.798 163.041V159.205ZM423.764 159.499H421.762V154.249H420.614V166.807H421.762V160.465H423.764V159.499ZM431.715 157.511V158.449H434.193V161.739H435.355V154.263H434.193V157.511H431.715ZM432.415 160.367C430.595 159.723 429.363 158.141 429.363 156.531V156.097H432.121V155.173H425.415V156.097H428.215V156.531C428.215 158.337 426.927 160.031 425.051 160.717L425.653 161.627C427.123 161.067 428.285 159.891 428.817 158.435C429.363 159.723 430.441 160.759 431.841 161.263L432.415 160.367ZM431.211 165.911C429.321 165.911 428.173 165.379 428.173 164.469C428.173 163.559 429.321 163.013 431.211 163.013C433.101 163.013 434.249 163.559 434.249 164.469C434.249 165.379 433.101 165.911 431.211 165.911ZM431.211 162.131C428.635 162.131 427.025 162.985 427.025 164.469C427.025 165.953 428.635 166.807 431.211 166.807C433.787 166.807 435.383 165.953 435.383 164.469C435.383 162.985 433.787 162.131 431.211 162.131Z" fill="#333333"/>
<path d="M367.507 123.624H360.115V122.364H367.101V121.496H360.115V120.306H367.437V119.41H358.967V124.52H367.507V123.624ZM358.743 128.762H366.219V131.646H367.367V127.852H358.743V128.762ZM357.469 125.71V126.634H368.837V125.71H357.469ZM371.622 128.594H379.168V131.646H380.316V127.67H371.622V128.594ZM372.938 120.502H379.126V122.938H372.938V120.502ZM376.62 125.444V123.848H380.26V119.592H371.818V123.848H375.472V125.444H370.348V126.368H381.716V125.444H376.62ZM392.103 121.58C392.103 123.092 392.103 124.856 391.627 127.264L392.775 127.39C393.251 124.856 393.251 123.134 393.251 121.58V120.334H384.445V121.272H392.103V121.58ZM388.813 128.93V124.436H387.665V128.93H383.255V129.868H394.609V128.93H388.813ZM400.833 121.538H404.375V120.6H399.699V128.538H400.525C402.401 128.538 403.675 128.482 405.173 128.16L405.075 127.208C403.703 127.502 402.513 127.572 400.833 127.586V121.538ZM408.813 119.074V124.114H407.035V119.354H405.957V131.002H407.035V125.052H408.813V131.632H409.919V119.074H408.813ZM421.258 119.074V131.646H422.406V119.074H421.258ZM412.844 120.138V128.608H418.752V120.138H417.618V123.456H413.978V120.138H412.844ZM413.978 124.366H417.618V127.67H413.978V124.366ZM430.217 125.276H426.661V122.98H430.217V125.276ZM431.337 119.984H430.217V122.084H426.661V119.984H425.527V126.2H431.337V119.984ZM428.089 127.418H426.941V131.352H435.313V130.414H428.089V127.418ZM434.753 122.882V119.088H433.605V128.3H434.753V123.848H436.615V122.882H434.753Z" fill="#333333"/>
<path d="M364.035 196.465C364.385 194.127 364.385 192.489 364.385 191.481V190.795H358.043V191.733H363.265C363.265 192.741 363.237 194.267 362.887 196.353L364.035 196.465ZM361.151 194.379H360.017V198.243C359.079 198.271 358.155 198.285 357.357 198.285L357.483 199.237C359.709 199.237 362.663 199.181 365.267 198.761L365.197 197.921C363.923 198.089 362.523 198.159 361.151 198.215V194.379ZM369.117 194.673H367.115V189.423H365.967V201.981H367.115V195.639H369.117V194.673ZM377.81 190.753H374.674V189.353H373.526V190.753H370.404V191.677H377.81V190.753ZM372.196 194.603C372.196 193.763 372.952 193.217 374.1 193.217C375.248 193.217 376.018 193.763 376.018 194.589C376.018 195.429 375.248 195.975 374.1 195.975C372.952 195.975 372.196 195.443 372.196 194.603ZM377.11 194.603C377.11 193.217 375.892 192.321 374.1 192.321C372.322 192.321 371.104 193.217 371.104 194.589C371.104 195.975 372.322 196.857 374.1 196.857C375.892 196.857 377.11 195.975 377.11 194.603ZM371.958 198.901H378.958V201.995H380.106V197.963H371.958V198.901ZM381.968 192.895H380.106V189.437H378.958V197.277H380.106V193.847H381.968V192.895ZM395.556 192.671V194.351H392.266V195.289H395.556V196.941H396.718V189.437H395.556V191.733H392.714C392.798 191.299 392.854 190.837 392.854 190.375H387.184V191.299H391.608C391.398 193.469 389.536 195.135 386.54 196.031L387.002 196.941C389.704 196.157 391.608 194.687 392.42 192.671H395.556ZM392.616 201.029C390.768 201.029 389.592 200.455 389.592 199.503C389.592 198.565 390.768 197.991 392.616 197.991C394.464 197.991 395.64 198.565 395.64 199.503C395.64 200.455 394.464 201.029 392.616 201.029ZM392.616 197.081C390.082 197.081 388.458 197.991 388.458 199.503C388.458 201.015 390.082 201.925 392.616 201.925C395.15 201.925 396.774 201.015 396.774 199.503C396.774 197.991 395.15 197.081 392.616 197.081ZM403.703 190.515H402.569V192.769C402.569 195.149 401.043 197.557 399.195 198.439L399.895 199.377C401.365 198.621 402.569 197.053 403.143 195.163C403.745 196.955 404.949 198.439 406.377 199.139L407.063 198.215C405.201 197.375 403.703 195.065 403.703 192.769V190.515ZM408.379 189.423V202.009H409.527V189.423H408.379ZM425.551 189.437H424.403V195.933H425.551V189.437ZM422.863 194.673C421.001 194.057 419.685 192.489 419.685 190.753V189.801H418.537V190.753C418.537 192.573 417.235 194.253 415.345 194.911L415.933 195.807C417.417 195.275 418.579 194.127 419.125 192.685C419.699 194.015 420.847 195.065 422.289 195.569L422.863 194.673ZM418.593 200.931V199.587H425.565V196.563H417.431V197.473H424.431V198.719H417.459V201.841H425.985V200.931H418.593ZM434.803 192.895V193.833H437.323V198.635H438.485V189.437H437.323V192.895H434.803ZM435.545 195.849C433.725 195.205 432.493 193.637 432.493 191.999V191.383H435.251V190.445H428.545V191.383H431.345V192.013C431.345 193.791 430.043 195.457 428.181 196.129L428.783 197.025C430.253 196.493 431.401 195.331 431.947 193.903C432.493 195.191 433.571 196.241 434.971 196.745L435.545 195.849ZM431.611 200.763V197.823H430.449V201.701H438.835V200.763H431.611Z" fill="#333333"/>
<path d="M368.291 229.387C366.009 229.051 363.769 227.497 363.769 225.747V225.047H362.565V225.747C362.565 227.539 360.353 229.051 358.071 229.387L358.533 230.311C360.493 229.975 362.383 228.897 363.167 227.371C363.979 228.883 365.869 229.975 367.815 230.311L368.291 229.387ZM368.837 231.669H357.497V232.621H362.565V237.171H363.713V232.621H368.851L368.837 231.669ZM377.81 225.929H374.674V224.529H373.526V225.929H370.404V226.853H377.81V225.929ZM372.196 229.779C372.196 228.939 372.952 228.393 374.1 228.393C375.248 228.393 376.018 228.939 376.018 229.765C376.018 230.605 375.248 231.151 374.1 231.151C372.952 231.151 372.196 230.619 372.196 229.779ZM377.11 229.779C377.11 228.393 375.892 227.497 374.1 227.497C372.322 227.497 371.104 228.393 371.104 229.765C371.104 231.151 372.322 232.033 374.1 232.033C375.892 232.033 377.11 231.151 377.11 229.779ZM371.958 234.077H378.958V237.171H380.106V233.139H371.958V234.077ZM381.968 228.071H380.106V224.613H378.958V232.453H380.106V229.023H381.968V228.071ZM395.556 227.847V229.527H392.266V230.465H395.556V232.117H396.718V224.613H395.556V226.909H392.714C392.798 226.475 392.854 226.013 392.854 225.551H387.184V226.475H391.608C391.398 228.645 389.536 230.311 386.54 231.207L387.002 232.117C389.704 231.333 391.608 229.863 392.42 227.847H395.556ZM392.616 236.205C390.768 236.205 389.592 235.631 389.592 234.679C389.592 233.741 390.768 233.167 392.616 233.167C394.464 233.167 395.64 233.741 395.64 234.679C395.64 235.631 394.464 236.205 392.616 236.205ZM392.616 232.257C390.082 232.257 388.458 233.167 388.458 234.679C388.458 236.191 390.082 237.101 392.616 237.101C395.15 237.101 396.774 236.191 396.774 234.679C396.774 233.167 395.15 232.257 392.616 232.257ZM403.703 225.691H402.569V227.945C402.569 230.325 401.043 232.733 399.195 233.615L399.895 234.553C401.365 233.797 402.569 232.229 403.143 230.339C403.745 232.131 404.949 233.615 406.377 234.315L407.063 233.391C405.201 232.551 403.703 230.241 403.703 227.945V225.691ZM408.379 224.599V237.185H409.527V224.599H408.379ZM425.551 224.613H424.403V231.109H425.551V224.613ZM422.863 229.849C421.001 229.233 419.685 227.665 419.685 225.929V224.977H418.537V225.929C418.537 227.749 417.235 229.429 415.345 230.087L415.933 230.983C417.417 230.451 418.579 229.303 419.125 227.861C419.699 229.191 420.847 230.241 422.289 230.745L422.863 229.849ZM418.593 236.107V234.763H425.565V231.739H417.431V232.649H424.431V233.895H417.459V237.017H425.985V236.107H418.593ZM434.803 228.071V229.009H437.323V233.811H438.485V224.613H437.323V228.071H434.803ZM435.545 231.025C433.725 230.381 432.493 228.813 432.493 227.175V226.559H435.251V225.621H428.545V226.559H431.345V227.189C431.345 228.967 430.043 230.633 428.181 231.305L428.783 232.201C430.253 231.669 431.401 230.507 431.947 229.079C432.493 230.367 433.571 231.417 434.971 231.921L435.545 231.025ZM431.611 235.939V232.999H430.449V236.877H438.835V235.939H431.611Z" fill="#333333"/>
<path d="M366.345 262.281C366.345 263.793 366.345 265.557 365.869 267.965L367.017 268.091C367.493 265.557 367.493 263.835 367.493 262.281V261.035H358.687V261.973H366.345V262.281ZM363.055 269.631V265.137H361.907V269.631H357.497V270.569H368.851V269.631H363.055ZM380.4 263.625H372.938V261.203H380.316V260.279H371.79V264.549H380.4V263.625ZM376.032 271.423C374.058 271.423 372.896 270.933 372.896 270.051C372.896 269.169 374.058 268.679 376.032 268.679C378.006 268.679 379.168 269.169 379.168 270.051C379.168 270.933 377.992 271.423 376.032 271.423ZM376.032 267.783C373.358 267.783 371.734 268.595 371.734 270.051C371.734 271.507 373.358 272.319 376.032 272.319C378.706 272.319 380.33 271.507 380.33 270.051C380.33 268.595 378.706 267.783 376.032 267.783ZM370.362 265.753V266.705H381.73V265.753H370.362ZM387.114 261.133V262.057H391.832C391.594 265.039 389.914 267.447 386.54 269.057L387.156 269.995C391.328 267.951 392.994 264.759 392.994 261.133H387.114ZM395.528 259.775V272.333H396.676V259.775H395.528ZM401.855 268.581H400.707V272.053H409.345V271.115H401.855V268.581ZM401.883 262.757H407.987V264.367H401.883V262.757ZM405.509 266.635V265.291H409.121V260.279H407.987V261.861H401.883V260.279H400.749V265.291H404.361V266.635H399.237V267.573H410.605V266.635H405.509ZM426.069 264.563C423.787 264.227 421.547 262.673 421.547 260.923V260.223H420.343V260.923C420.343 262.715 418.131 264.227 415.849 264.563L416.311 265.487C418.271 265.151 420.161 264.073 420.945 262.547C421.757 264.059 423.647 265.151 425.593 265.487L426.069 264.563ZM426.615 266.845H415.275V267.797H420.343V272.347H421.491V267.797H426.629L426.615 266.845ZM435.587 261.105H432.451V259.705H431.303V261.105H428.181V262.029H435.587V261.105ZM429.973 264.955C429.973 264.115 430.729 263.569 431.877 263.569C433.025 263.569 433.795 264.115 433.795 264.941C433.795 265.781 433.025 266.327 431.877 266.327C430.729 266.327 429.973 265.795 429.973 264.955ZM434.887 264.955C434.887 263.569 433.669 262.673 431.877 262.673C430.099 262.673 428.881 263.569 428.881 264.941C428.881 266.327 430.099 267.209 431.877 267.209C433.669 267.209 434.887 266.327 434.887 264.955ZM429.735 269.253H436.735V272.347H437.883V268.315H429.735V269.253ZM439.745 263.247H437.883V259.789H436.735V267.629H437.883V264.199H439.745V263.247ZM444.14 267.181C444.644 267.181 445.064 266.775 445.064 266.215C445.064 265.627 444.644 265.221 444.14 265.221C443.636 265.221 443.216 265.627 443.216 266.215C443.216 266.775 443.636 267.181 444.14 267.181ZM455.418 266.817C455.768 264.479 455.768 262.841 455.768 261.833V261.147H449.426V262.085H454.648C454.648 263.093 454.62 264.619 454.27 266.705L455.418 266.817ZM452.534 264.731H451.4V268.595C450.462 268.623 449.538 268.637 448.74 268.637L448.866 269.589C451.092 269.589 454.046 269.533 456.65 269.113L456.58 268.273C455.306 268.441 453.906 268.511 452.534 268.567V264.731ZM460.5 265.025H458.498V259.775H457.35V272.333H458.498V265.991H460.5V265.025ZM469.193 261.105H466.057V259.705H464.909V261.105H461.787V262.029H469.193V261.105ZM463.579 264.955C463.579 264.115 464.335 263.569 465.483 263.569C466.631 263.569 467.401 264.115 467.401 264.941C467.401 265.781 466.631 266.327 465.483 266.327C464.335 266.327 463.579 265.795 463.579 264.955ZM468.493 264.955C468.493 263.569 467.275 262.673 465.483 262.673C463.705 262.673 462.487 263.569 462.487 264.941C462.487 266.327 463.705 267.209 465.483 267.209C467.275 267.209 468.493 266.327 468.493 264.955ZM463.341 269.253H470.341V272.347H471.489V268.315H463.341V269.253ZM473.351 263.247H471.489V259.789H470.341V267.629H471.489V264.199H473.351V263.247Z" fill="#333333"/>
<path d="M358.533 300.075C360.591 299.823 362.481 298.899 363.167 297.513C363.867 298.899 365.743 299.823 367.801 300.075L368.207 299.165C366.009 298.913 364.007 297.835 363.909 296.449H367.815V295.525H358.533V296.449H362.425C362.327 297.835 360.325 298.913 358.127 299.165L358.533 300.075ZM366.289 305.283C366.289 306.123 365.113 306.613 363.153 306.613C361.179 306.613 360.017 306.123 360.017 305.283C360.017 304.443 361.179 303.967 363.153 303.967C365.113 303.967 366.289 304.443 366.289 305.283ZM368.837 301.755V300.831H357.483V301.755H362.579V303.099C360.241 303.211 358.855 303.981 358.855 305.283C358.855 306.711 360.479 307.495 363.167 307.495C365.841 307.495 367.451 306.711 367.451 305.283C367.451 303.981 366.079 303.211 363.741 303.099V301.755H368.837ZM380.4 298.801H372.938V296.379H380.316V295.455H371.79V299.725H380.4V298.801ZM376.032 306.599C374.058 306.599 372.896 306.109 372.896 305.227C372.896 304.345 374.058 303.855 376.032 303.855C378.006 303.855 379.168 304.345 379.168 305.227C379.168 306.109 377.992 306.599 376.032 306.599ZM376.032 302.959C373.358 302.959 371.734 303.771 371.734 305.227C371.734 306.683 373.358 307.495 376.032 307.495C378.706 307.495 380.33 306.683 380.33 305.227C380.33 303.771 378.706 302.959 376.032 302.959ZM370.362 300.929V301.881H381.73V300.929H370.362ZM392.924 301.993C393.274 299.655 393.274 298.017 393.274 297.009V296.323H386.932V297.261H392.154C392.154 298.269 392.126 299.795 391.776 301.881L392.924 301.993ZM390.04 299.907H388.906V303.771C387.968 303.799 387.044 303.813 386.246 303.813L386.372 304.765C388.598 304.765 391.552 304.709 394.156 304.289L394.086 303.449C392.812 303.617 391.412 303.687 390.04 303.743V299.907ZM398.006 300.201H396.004V294.951H394.856V307.509H396.004V301.167H398.006V300.201ZM405.957 298.213V299.151H408.435V302.441H409.597V294.965H408.435V298.213H405.957ZM406.657 301.069C404.837 300.425 403.605 298.843 403.605 297.233V296.799H406.363V295.875H399.657V296.799H402.457V297.233C402.457 299.039 401.169 300.733 399.293 301.419L399.895 302.329C401.365 301.769 402.527 300.593 403.059 299.137C403.605 300.425 404.683 301.461 406.083 301.965L406.657 301.069ZM405.453 306.613C403.563 306.613 402.415 306.081 402.415 305.171C402.415 304.261 403.563 303.715 405.453 303.715C407.343 303.715 408.491 304.261 408.491 305.171C408.491 306.081 407.343 306.613 405.453 306.613ZM405.453 302.833C402.877 302.833 401.267 303.687 401.267 305.171C401.267 306.655 402.877 307.509 405.453 307.509C408.029 307.509 409.625 306.655 409.625 305.171C409.625 303.687 408.029 302.833 405.453 302.833ZM426.069 299.739C423.787 299.403 421.547 297.849 421.547 296.099V295.399H420.343V296.099C420.343 297.891 418.131 299.403 415.849 299.739L416.311 300.663C418.271 300.327 420.161 299.249 420.945 297.723C421.757 299.235 423.647 300.327 425.593 300.663L426.069 299.739ZM426.615 302.021H415.275V302.973H420.343V307.523H421.491V302.973H426.629L426.615 302.021ZM435.587 296.281H432.451V294.881H431.303V296.281H428.181V297.205H435.587V296.281ZM429.973 300.131C429.973 299.291 430.729 298.745 431.877 298.745C433.025 298.745 433.795 299.291 433.795 300.117C433.795 300.957 433.025 301.503 431.877 301.503C430.729 301.503 429.973 300.971 429.973 300.131ZM434.887 300.131C434.887 298.745 433.669 297.849 431.877 297.849C430.099 297.849 428.881 298.745 428.881 300.117C428.881 301.503 430.099 302.385 431.877 302.385C433.669 302.385 434.887 301.503 434.887 300.131ZM429.735 304.429H436.735V307.523H437.883V303.491H429.735V304.429ZM439.745 298.423H437.883V294.965H436.735V302.805H437.883V299.375H439.745V298.423ZM444.14 302.357C444.644 302.357 445.064 301.951 445.064 301.391C445.064 300.803 444.644 300.397 444.14 300.397C443.636 300.397 443.216 300.803 443.216 301.391C443.216 301.951 443.636 302.357 444.14 302.357ZM455.418 301.993C455.768 299.655 455.768 298.017 455.768 297.009V296.323H449.426V297.261H454.648C454.648 298.269 454.62 299.795 454.27 301.881L455.418 301.993ZM452.534 299.907H451.4V303.771C450.462 303.799 449.538 303.813 448.74 303.813L448.866 304.765C451.092 304.765 454.046 304.709 456.65 304.289L456.58 303.449C455.306 303.617 453.906 303.687 452.534 303.743V299.907ZM460.5 300.201H458.498V294.951H457.35V307.509H458.498V301.167H460.5V300.201ZM469.193 296.281H466.057V294.881H464.909V296.281H461.787V297.205H469.193V296.281ZM463.579 300.131C463.579 299.291 464.335 298.745 465.483 298.745C466.631 298.745 467.401 299.291 467.401 300.117C467.401 300.957 466.631 301.503 465.483 301.503C464.335 301.503 463.579 300.971 463.579 300.131ZM468.493 300.131C468.493 298.745 467.275 297.849 465.483 297.849C463.705 297.849 462.487 298.745 462.487 300.117C462.487 301.503 463.705 302.385 465.483 302.385C467.275 302.385 468.493 301.503 468.493 300.131ZM463.341 304.429H470.341V307.523H471.489V303.491H463.341V304.429ZM473.351 298.423H471.489V294.965H470.341V302.805H471.489V299.375H473.351V298.423Z" fill="#333333"/>
<path d="M358.561 337.742C360.577 337.378 362.383 336.37 363.181 334.83C363.965 336.37 365.771 337.378 367.787 337.742L368.235 336.832C365.799 336.44 363.755 334.97 363.755 333.038H367.787V332.114H363.755V330.406H362.593V332.114H358.547V333.038H362.593C362.593 334.97 360.549 336.44 358.113 336.832L358.561 337.742ZM363.755 340.15V337.294H362.593V340.15H357.483V341.102H368.879V340.15H363.755ZM380.4 333.976H372.938V331.554H380.316V330.63H371.79V334.9H380.4V333.976ZM376.032 341.774C374.058 341.774 372.896 341.284 372.896 340.402C372.896 339.52 374.058 339.03 376.032 339.03C378.006 339.03 379.168 339.52 379.168 340.402C379.168 341.284 377.992 341.774 376.032 341.774ZM376.032 338.134C373.358 338.134 371.734 338.946 371.734 340.402C371.734 341.858 373.358 342.67 376.032 342.67C378.706 342.67 380.33 341.858 380.33 340.402C380.33 338.946 378.706 338.134 376.032 338.134ZM370.362 336.104V337.056H381.73V336.104H370.362ZM392.924 337.168C393.274 334.83 393.274 333.192 393.274 332.184V331.498H386.932V332.436H392.154C392.154 333.444 392.126 334.97 391.776 337.056L392.924 337.168ZM390.04 335.082H388.906V338.946C387.968 338.974 387.044 338.988 386.246 338.988L386.372 339.94C388.598 339.94 391.552 339.884 394.156 339.464L394.086 338.624C392.812 338.792 391.412 338.862 390.04 338.918V335.082ZM398.006 335.376H396.004V330.126H394.856V342.684H396.004V336.342H398.006V335.376ZM405.957 333.388V334.326H408.435V337.616H409.597V330.14H408.435V333.388H405.957ZM406.657 336.244C404.837 335.6 403.605 334.018 403.605 332.408V331.974H406.363V331.05H399.657V331.974H402.457V332.408C402.457 334.214 401.169 335.908 399.293 336.594L399.895 337.504C401.365 336.944 402.527 335.768 403.059 334.312C403.605 335.6 404.683 336.636 406.083 337.14L406.657 336.244ZM405.453 341.788C403.563 341.788 402.415 341.256 402.415 340.346C402.415 339.436 403.563 338.89 405.453 338.89C407.343 338.89 408.491 339.436 408.491 340.346C408.491 341.256 407.343 341.788 405.453 341.788ZM405.453 338.008C402.877 338.008 401.267 338.862 401.267 340.346C401.267 341.83 402.877 342.684 405.453 342.684C408.029 342.684 409.625 341.83 409.625 340.346C409.625 338.862 408.029 338.008 405.453 338.008ZM426.069 334.914C423.787 334.578 421.547 333.024 421.547 331.274V330.574H420.343V331.274C420.343 333.066 418.131 334.578 415.849 334.914L416.311 335.838C418.271 335.502 420.161 334.424 420.945 332.898C421.757 334.41 423.647 335.502 425.593 335.838L426.069 334.914ZM426.615 337.196H415.275V338.148H420.343V342.698H421.491V338.148H426.629L426.615 337.196ZM435.587 331.456H432.451V330.056H431.303V331.456H428.181V332.38H435.587V331.456ZM429.973 335.306C429.973 334.466 430.729 333.92 431.877 333.92C433.025 333.92 433.795 334.466 433.795 335.292C433.795 336.132 433.025 336.678 431.877 336.678C430.729 336.678 429.973 336.146 429.973 335.306ZM434.887 335.306C434.887 333.92 433.669 333.024 431.877 333.024C430.099 333.024 428.881 333.92 428.881 335.292C428.881 336.678 430.099 337.56 431.877 337.56C433.669 337.56 434.887 336.678 434.887 335.306ZM429.735 339.604H436.735V342.698H437.883V338.666H429.735V339.604ZM439.745 333.598H437.883V330.14H436.735V337.98H437.883V334.55H439.745V333.598Z" fill="#333333"/>
<rect opacity="0.12" y="283.473" width="228.148" height="70.3511" fill="#46D2EB"/>
<rect opacity="0.15" y="177.947" width="228.148" height="105.527" fill="#41B0FF"/>
<rect y="37.2441" width="228.148" height="140.702" fill="#DBE8FB"/>
<path d="M92.7268 99.1165V108.026H95.1208V99.1165H92.7268ZM84.1048 108.746V115.496H95.1208V108.746H92.7628V110.294H86.4628V108.746H84.1048ZM86.4628 112.112H92.7628V113.624H86.4628V112.112ZM86.1028 99.8005C83.5288 99.8005 81.5848 101.438 81.5848 103.706C81.5848 105.992 83.5288 107.63 86.1028 107.63C88.6768 107.63 90.6028 105.992 90.6028 103.706C90.6028 101.438 88.6768 99.8005 86.1028 99.8005ZM86.1028 101.762C87.3628 101.762 88.2808 102.5 88.2808 103.706C88.2808 104.948 87.3628 105.668 86.1028 105.668C84.8428 105.668 83.9068 104.948 83.9068 103.706C83.9068 102.5 84.8428 101.762 86.1028 101.762ZM104.335 100.394H101.959V102.806C101.959 106.028 100.591 109.232 97.6934 110.474L99.1154 112.436C101.095 111.5 102.445 109.718 103.183 107.504C103.921 109.538 105.199 111.176 107.107 112.04L108.457 110.114C105.649 108.908 104.335 105.884 104.335 102.806V100.394ZM109.267 99.0985V115.73H111.643V99.0985H109.267ZM128.598 99.1165H126.348V111.518H128.598V99.1165ZM123.036 111.032H125.25V99.4045H123.036V102.896H121.074V104.822H123.036V111.032ZM122.55 107.18C120.48 106.172 119.688 104.3 119.688 102.356V100.232H117.384V102.356C117.384 104.336 116.52 106.478 114.252 107.594L115.548 109.394C117.006 108.71 117.978 107.522 118.572 106.118C119.094 107.36 119.958 108.386 121.254 108.998L122.55 107.18ZM119.814 113.516V110.078H117.438V115.406H129.012V113.516H119.814ZM134.141 106.964H138.893V105.11H134.141V102.41H139.451V100.502H131.783V111.968H133.133C135.923 111.968 138.047 111.914 140.441 111.536L140.225 109.628C138.191 109.952 136.373 110.042 134.141 110.06V106.964ZM142.565 99.0985V104.948H139.721V106.856H142.565V115.73H144.941V99.0985H142.565Z" fill="#3C68A7"/>
<path d="M101.114 226.748V228.278H97.4601V230.186H101.114V231.77H103.49V222.23H101.114V224.858H98.1441C98.2161 224.372 98.2521 223.868 98.2521 223.346H90.6561V225.254H95.6601C95.3541 227.504 93.5361 229.286 89.7561 230.294L90.6741 232.166C94.3281 231.14 96.6501 229.358 97.6761 226.748H101.114ZM98.0181 236.882C95.9661 236.882 94.7601 236.36 94.7601 235.352C94.7601 234.344 95.9661 233.822 98.0181 233.822C100.052 233.822 101.258 234.344 101.258 235.352C101.258 236.36 100.052 236.882 98.0181 236.882ZM98.0181 231.986C94.6341 231.986 92.4201 233.282 92.4201 235.352C92.4201 237.422 94.6341 238.718 98.0181 238.718C101.384 238.718 103.598 237.422 103.598 235.352C103.598 233.282 101.384 231.986 98.0181 231.986ZM112.615 223.508H110.239V225.92C110.239 229.142 108.871 232.346 105.973 233.588L107.395 235.55C109.375 234.614 110.725 232.832 111.463 230.618C112.201 232.652 113.479 234.29 115.387 235.154L116.737 233.228C113.929 232.022 112.615 228.998 112.615 225.92V223.508ZM117.547 222.212V238.844H119.923V222.212H117.547ZM131.603 229.34C131.981 227.252 131.981 225.614 131.981 224.462V223.436H123.467V225.326H129.641C129.623 226.316 129.551 227.522 129.281 229.07L131.603 229.34ZM132.701 230.006C131.153 230.222 129.497 230.348 127.859 230.42V227.288H125.537V230.51C124.457 230.528 123.431 230.528 122.513 230.528L122.729 232.418C125.573 232.4 129.425 232.328 132.845 231.698L132.701 230.006ZM127.301 233.534H124.925V238.52H136.499V236.63H127.301V233.534ZM135.977 227.27V222.212H133.601V234.632H135.977V229.232H137.957V227.27H135.977Z" fill="#5E91DC"/>
<path d="M92.0961 315.119C92.0961 313.823 92.9781 313.067 94.2021 313.067C95.4261 313.067 96.3261 313.823 96.3261 315.119C96.3261 316.397 95.4261 317.171 94.2021 317.171C92.9781 317.171 92.0961 316.397 92.0961 315.119ZM101.114 314.219V316.019H98.4681C98.5401 315.713 98.5761 315.425 98.5761 315.119C98.5761 314.795 98.5401 314.507 98.4861 314.219H101.114ZM101.114 317.909V319.889H103.49V310.169H101.114V312.329H97.4601C96.6681 311.537 95.5341 311.051 94.2021 311.051C91.7541 311.051 89.8461 312.761 89.8461 315.119C89.8461 317.459 91.7541 319.169 94.2021 319.169C95.4981 319.169 96.6321 318.701 97.4241 317.909H101.114ZM97.8741 324.929C95.6961 324.929 94.5441 324.461 94.5441 323.489C94.5441 322.517 95.6961 322.049 97.8741 322.049C100.052 322.049 101.222 322.517 101.222 323.489C101.222 324.461 100.052 324.929 97.8741 324.929ZM97.8741 320.213C94.3821 320.213 92.2041 321.419 92.2041 323.489C92.2041 325.541 94.3821 326.765 97.8741 326.765C101.384 326.765 103.562 325.541 103.562 323.489C103.562 321.419 101.384 320.213 97.8741 320.213ZM118.285 310.151V316.505H116.935V310.421H114.721V321.149C112.273 319.871 111.445 317.117 111.445 314.219V313.769H113.929V311.843H106.423V313.769H109.141V314.219C109.141 317.405 108.349 320.339 105.883 321.779L107.305 323.579C108.853 322.661 109.825 321.095 110.365 319.187C110.959 320.843 111.913 322.175 113.389 322.967L114.721 321.185V325.991H116.935V318.449H118.285V326.729H120.535V310.151H118.285ZM131.603 317.279C131.981 315.191 131.981 313.553 131.981 312.401V311.375H123.467V313.265H129.641C129.623 314.255 129.551 315.461 129.281 317.009L131.603 317.279ZM132.701 317.945C131.153 318.161 129.497 318.287 127.859 318.359V315.227H125.537V318.449C124.457 318.467 123.431 318.467 122.513 318.467L122.729 320.357C125.573 320.339 129.425 320.267 132.845 319.637L132.701 317.945ZM127.301 321.473H124.925V326.459H136.499V324.569H127.301V321.473ZM135.977 315.209V310.151H133.601V322.571H135.977V317.171H137.957V315.209H135.977Z" fill="#6BB9C7"/>
<rect x="228.148" y="283.473" width="103.704" height="35.1755" fill="#67BBCF"/>
<rect x="228.148" y="318.648" width="103.704" height="35.1755" fill="#6FC4D9"/>
<rect x="228.148" y="248.297" width="103.704" height="35.1755" fill="#549EC1"/>
<rect x="228.148" y="177.945" width="103.704" height="70.3511" fill="#3E7CA8"/>
<rect x="228.148" y="72.4199" width="103.704" height="105.527" fill="#02578A"/>
<rect x="228.148" y="37.2441" width="103.704" height="35.1755" fill="#024873"/>
<path d="M279.348 49.0078V60.3828H277.005V49.0078H279.348ZM283.88 53.8672V55.6953H278.708V53.8672H283.88ZM284.427 49.0078V50.8438H278.708V49.0078H284.427Z" fill="white"/>
<path d="M280.645 332.357L277.552 341.787H275.059L279.286 330.412H280.872L280.645 332.357ZM283.216 341.787L280.114 332.357L279.864 330.412H281.466L285.716 341.787H283.216ZM283.075 337.553V339.389H277.067V337.553H283.075Z" fill="white"/>
<path d="M280.739 301.619H277.817L277.802 300.01H280.255C280.687 300.01 281.041 299.955 281.317 299.846C281.593 299.731 281.799 299.567 281.934 299.354C282.075 299.135 282.145 298.869 282.145 298.557C282.145 298.202 282.078 297.916 281.942 297.697C281.812 297.479 281.606 297.32 281.325 297.221C281.049 297.122 280.692 297.072 280.255 297.072H278.63V306.611H276.286V295.236H280.255C280.916 295.236 281.507 295.299 282.028 295.424C282.554 295.549 283 295.739 283.364 295.994C283.729 296.249 284.007 296.572 284.2 296.963C284.393 297.348 284.489 297.807 284.489 298.338C284.489 298.807 284.382 299.239 284.169 299.635C283.96 300.031 283.63 300.354 283.177 300.604C282.729 300.854 282.143 300.992 281.419 301.018L280.739 301.619ZM280.638 306.611H277.177L278.091 304.783H280.638C281.049 304.783 281.385 304.718 281.645 304.588C281.906 304.452 282.098 304.27 282.223 304.041C282.348 303.812 282.411 303.549 282.411 303.252C282.411 302.919 282.354 302.63 282.239 302.385C282.13 302.14 281.953 301.952 281.708 301.822C281.463 301.687 281.14 301.619 280.739 301.619H278.481L278.497 300.01H281.309L281.848 300.643C282.541 300.632 283.098 300.755 283.52 301.01C283.947 301.26 284.257 301.585 284.45 301.986C284.648 302.387 284.747 302.817 284.747 303.275C284.747 304.005 284.588 304.619 284.27 305.119C283.953 305.614 283.487 305.986 282.872 306.236C282.263 306.486 281.518 306.611 280.638 306.611Z" fill="white"/>
<path d="M282.755 267.662H285.091C285.044 268.428 284.833 269.107 284.458 269.701C284.088 270.295 283.57 270.758 282.903 271.092C282.242 271.425 281.445 271.592 280.513 271.592C279.783 271.592 279.13 271.467 278.552 271.217C277.973 270.962 277.479 270.597 277.067 270.123C276.661 269.649 276.351 269.076 276.138 268.404C275.924 267.732 275.817 266.98 275.817 266.146V265.357C275.817 264.524 275.927 263.771 276.145 263.1C276.369 262.423 276.687 261.847 277.098 261.373C277.515 260.899 278.013 260.535 278.591 260.279C279.169 260.024 279.815 259.896 280.528 259.896C281.476 259.896 282.276 260.068 282.927 260.412C283.583 260.756 284.091 261.23 284.45 261.834C284.815 262.438 285.033 263.126 285.106 263.896H282.763C282.737 263.438 282.645 263.05 282.489 262.732C282.333 262.41 282.096 262.167 281.778 262.006C281.466 261.839 281.049 261.756 280.528 261.756C280.138 261.756 279.796 261.829 279.505 261.975C279.213 262.12 278.968 262.342 278.77 262.639C278.572 262.936 278.424 263.311 278.325 263.764C278.231 264.212 278.184 264.738 278.184 265.342V266.146C278.184 266.735 278.229 267.253 278.317 267.701C278.406 268.144 278.541 268.519 278.723 268.826C278.911 269.128 279.151 269.357 279.442 269.514C279.739 269.665 280.096 269.74 280.513 269.74C281.002 269.74 281.406 269.662 281.723 269.506C282.041 269.35 282.283 269.118 282.45 268.811C282.622 268.503 282.723 268.12 282.755 267.662Z" fill="white"/>
<path d="M271.934 236.26H269.458L269.473 234.432H271.934C272.549 234.432 273.067 234.294 273.489 234.018C273.911 233.736 274.229 233.327 274.442 232.791C274.661 232.255 274.77 231.606 274.77 230.846V230.291C274.77 229.708 274.708 229.195 274.583 228.752C274.463 228.309 274.283 227.937 274.044 227.635C273.804 227.333 273.51 227.106 273.161 226.955C272.812 226.799 272.411 226.721 271.958 226.721H269.411V224.885H271.958C272.718 224.885 273.414 225.015 274.044 225.275C274.679 225.531 275.229 225.898 275.692 226.377C276.156 226.856 276.513 227.429 276.763 228.096C277.018 228.757 277.145 229.494 277.145 230.307V230.846C277.145 231.653 277.018 232.39 276.763 233.057C276.513 233.723 276.156 234.296 275.692 234.775C275.234 235.249 274.684 235.617 274.044 235.877C273.408 236.132 272.705 236.26 271.934 236.26ZM270.786 224.885V236.26H268.442V224.885H270.786ZM283.145 230.494V232.26H278.731V230.494H283.145ZM290.411 224.861V236.26H288.161V227.455L285.458 228.314V226.541L290.169 224.861H290.411Z" fill="white"/>
<path d="M271.934 201.084H269.458L269.473 199.256H271.934C272.549 199.256 273.067 199.118 273.489 198.842C273.911 198.561 274.229 198.152 274.442 197.615C274.661 197.079 274.77 196.43 274.77 195.67V195.115C274.77 194.532 274.708 194.019 274.583 193.576C274.463 193.133 274.283 192.761 274.044 192.459C273.804 192.157 273.51 191.93 273.161 191.779C272.812 191.623 272.411 191.545 271.958 191.545H269.411V189.709H271.958C272.718 189.709 273.414 189.839 274.044 190.1C274.679 190.355 275.229 190.722 275.692 191.201C276.156 191.68 276.513 192.253 276.763 192.92C277.018 193.581 277.145 194.318 277.145 195.131V195.67C277.145 196.477 277.018 197.214 276.763 197.881C276.513 198.548 276.156 199.12 275.692 199.6C275.234 200.074 274.684 200.441 274.044 200.701C273.408 200.956 272.705 201.084 271.934 201.084ZM270.786 189.709V201.084H268.442V189.709H270.786ZM283.145 195.318V197.084H278.731V195.318H283.145ZM292.708 199.326V201.084H284.927V199.584L288.606 195.639C288.976 195.227 289.268 194.865 289.481 194.553C289.695 194.235 289.848 193.951 289.942 193.701C290.041 193.446 290.091 193.204 290.091 192.975C290.091 192.631 290.033 192.337 289.919 192.092C289.804 191.842 289.635 191.649 289.411 191.514C289.192 191.378 288.921 191.311 288.598 191.311C288.255 191.311 287.958 191.394 287.708 191.561C287.463 191.727 287.276 191.959 287.145 192.256C287.02 192.553 286.958 192.889 286.958 193.264H284.7C284.7 192.587 284.862 191.967 285.184 191.404C285.507 190.837 285.963 190.386 286.552 190.053C287.14 189.714 287.838 189.545 288.645 189.545C289.442 189.545 290.114 189.675 290.661 189.936C291.213 190.191 291.63 190.561 291.911 191.045C292.197 191.524 292.341 192.097 292.341 192.764C292.341 193.139 292.281 193.506 292.161 193.865C292.041 194.219 291.869 194.574 291.645 194.928C291.427 195.277 291.161 195.631 290.848 195.99C290.536 196.35 290.19 196.722 289.809 197.107L287.833 199.326H292.708Z" fill="white"/>
<path d="M276.778 164.082V165.91H270.723V164.082H276.778ZM271.489 154.535V165.91H269.145V154.535H271.489ZM275.989 159.168V160.949H270.723V159.168H275.989ZM276.77 154.535V156.371H270.723V154.535H276.77ZM282.442 160.145V161.91H278.028V160.145H282.442ZM289.708 154.512V165.91H287.458V157.105L284.755 157.965V156.191L289.466 154.512H289.708Z" fill="white"/>
<path d="M276.778 128.906V130.734H270.723V128.906H276.778ZM271.489 119.359V130.734H269.145V119.359H271.489ZM275.989 123.992V125.773H270.723V123.992H275.989ZM276.77 119.359V121.195H270.723V119.359H276.77ZM282.442 124.969V126.734H278.028V124.969H282.442ZM292.005 128.977V130.734H284.223V129.234L287.903 125.289C288.273 124.878 288.565 124.516 288.778 124.203C288.992 123.885 289.145 123.602 289.239 123.352C289.338 123.096 289.388 122.854 289.388 122.625C289.388 122.281 289.33 121.987 289.216 121.742C289.101 121.492 288.932 121.299 288.708 121.164C288.489 121.029 288.218 120.961 287.895 120.961C287.552 120.961 287.255 121.044 287.005 121.211C286.76 121.378 286.572 121.609 286.442 121.906C286.317 122.203 286.255 122.539 286.255 122.914H283.997C283.997 122.237 284.158 121.617 284.481 121.055C284.804 120.487 285.26 120.036 285.848 119.703C286.437 119.365 287.135 119.195 287.942 119.195C288.739 119.195 289.411 119.326 289.958 119.586C290.51 119.841 290.927 120.211 291.208 120.695C291.494 121.174 291.638 121.747 291.638 122.414C291.638 122.789 291.578 123.156 291.458 123.516C291.338 123.87 291.166 124.224 290.942 124.578C290.723 124.927 290.458 125.281 290.145 125.641C289.833 126 289.487 126.372 289.106 126.758L287.13 128.977H292.005Z" fill="white"/>
<path d="M276.778 93.7305V95.5586H270.723V93.7305H276.778ZM271.489 84.1836V95.5586H269.145V84.1836H271.489ZM275.989 88.8164V90.5977H270.723V88.8164H275.989ZM276.77 84.1836V86.0195H270.723V84.1836H276.77ZM282.442 89.793V91.5586H278.028V89.793H282.442ZM286.528 88.8945H287.731C288.117 88.8945 288.434 88.8294 288.684 88.6992C288.934 88.5638 289.119 88.3763 289.239 88.1367C289.364 87.8919 289.427 87.6081 289.427 87.2852C289.427 86.9935 289.369 86.7357 289.255 86.5117C289.145 86.2826 288.976 86.1055 288.747 85.9805C288.518 85.8503 288.229 85.7852 287.88 85.7852C287.604 85.7852 287.348 85.8398 287.114 85.9492C286.88 86.0586 286.692 86.2122 286.552 86.4102C286.411 86.6081 286.341 86.8477 286.341 87.1289H284.083C284.083 86.5039 284.25 85.9596 284.583 85.4961C284.921 85.0326 285.375 84.6706 285.942 84.4102C286.51 84.1497 287.135 84.0195 287.817 84.0195C288.588 84.0195 289.263 84.1445 289.841 84.3945C290.419 84.6393 290.869 85.0013 291.192 85.4805C291.515 85.9596 291.677 86.5534 291.677 87.2617C291.677 87.6211 291.593 87.9701 291.427 88.3086C291.26 88.6419 291.02 88.944 290.708 89.2148C290.401 89.4805 290.026 89.694 289.583 89.8555C289.14 90.0117 288.643 90.0898 288.091 90.0898H286.528V88.8945ZM286.528 90.6055V89.4414H288.091C288.71 89.4414 289.255 89.5117 289.723 89.6523C290.192 89.793 290.585 89.9961 290.903 90.2617C291.221 90.5221 291.46 90.832 291.622 91.1914C291.783 91.5456 291.864 91.9388 291.864 92.3711C291.864 92.9023 291.763 93.3763 291.559 93.793C291.356 94.2044 291.07 94.5534 290.7 94.8398C290.335 95.1263 289.908 95.3451 289.419 95.4961C288.929 95.6419 288.395 95.7148 287.817 95.7148C287.338 95.7148 286.867 95.6497 286.403 95.5195C285.945 95.3841 285.528 95.1836 285.153 94.918C284.783 94.6471 284.487 94.3086 284.263 93.9023C284.044 93.4909 283.934 93.0039 283.934 92.4414H286.192C286.192 92.7331 286.265 92.9935 286.411 93.2227C286.557 93.4518 286.757 93.6315 287.013 93.7617C287.273 93.8919 287.562 93.957 287.88 93.957C288.239 93.957 288.546 93.8919 288.802 93.7617C289.062 93.6263 289.26 93.4388 289.395 93.1992C289.536 92.9544 289.606 92.6706 289.606 92.3477C289.606 91.931 289.531 91.5977 289.38 91.3477C289.229 91.0924 289.013 90.9049 288.731 90.7852C288.45 90.6654 288.117 90.6055 287.731 90.6055H286.528Z" fill="white"/>
<path opacity="0.2" d="M228.148 213.121H331.852" stroke="white" stroke-width="0.7" stroke-dasharray="2 2"/>
<path opacity="0.2" d="M228.148 139.668H331.852" stroke="white" stroke-width="0.7" stroke-dasharray="2 2"/>
<path opacity="0.2" d="M228.148 107.596H331.852" stroke="white" stroke-width="0.7" stroke-dasharray="2 2"/>
<path opacity="0.2" d="M228.148 72.4199H331.852" stroke="white" stroke-width="0.7"/>
<path opacity="0.2" d="M228.148 177.945H331.852" stroke="white" stroke-width="0.7"/>
<path opacity="0.2" d="M228.148 248.297H331.852" stroke="white" stroke-width="0.7"/>
<path opacity="0.2" d="M228.148 283.473H331.852" stroke="white" stroke-width="0.7"/>
<path opacity="0.2" d="M228.148 318.648H331.852" stroke="white" stroke-width="0.7"/>
<path d="M280 0L359.931 37.2447H200.069L280 0Z" fill="#024873"/>
</svg>
