<svg width="944" height="376" viewBox="0 0 944 376" fill="none" xmlns="http://www.w3.org/2000/svg">
<path d="M363.317 365.348L364.265 364.208L365.213 365.348L365.741 364.964L364.973 363.716L366.281 363.176L366.077 362.564L364.709 362.888L364.589 361.448H363.941L363.821 362.9L362.453 362.564L362.237 363.176L363.545 363.716L362.789 364.964L363.317 365.348ZM370.898 362.144H369.95V364.196C369.95 366.044 369.062 367.976 367.586 368.84L368.198 369.584C369.266 368.924 370.046 367.7 370.43 366.272C370.814 367.58 371.534 368.72 372.554 369.344L373.118 368.576C371.702 367.712 370.898 365.888 370.898 364.16V362.144ZM373.73 364.988H371.954V365.804H373.73V371.36H374.654V361.364H373.73V364.988ZM375.914 361.124V371.888H376.85V361.124H375.914ZM386.281 365.408H380.941V363.824H386.281V365.408ZM387.265 361.556H386.281V363.032H380.941V361.556H379.969V366.212H387.265V361.556ZM388.501 367.508H378.733V368.3H383.101V371.9H384.085V368.3H388.501V367.508ZM398.66 366.74H395.984V362.996H398.66V366.74ZM395 366.74H393.356V367.544H401.288V366.74H399.644V362.996H401.312V362.204H393.332V362.996H395V366.74ZM392.468 369.692V370.508H402.224V369.692H392.468ZM408.871 369.752V367.724H412.315V366.932H405.691V365.192H412.063V361.916H404.695V362.72H411.103V364.4H404.719V367.724H407.875V369.752H403.495V370.556H413.275V369.752H408.871ZM422.01 363.344C422.01 364.676 422.01 366.284 421.578 368.48L422.562 368.588C422.982 366.26 422.982 364.712 422.982 363.344V362.276H422.526V362.264H415.602V363.068H422.01V363.344ZM414.558 369.5V370.316H424.29V369.5H414.558ZM430.733 365.972C429.473 366.224 428.417 366.284 427.025 366.284V364.76H430.097V361.832H426.053V362.624H429.149V364.016H426.077V367.076H426.785C428.333 367.076 429.461 367.016 430.829 366.764L430.733 365.972ZM428.561 368.852H433.709V370.952H428.561V368.852ZM427.601 371.744H434.669V368.072H427.601V371.744ZM433.721 361.124V363.86H432.281V361.328H431.345V367.412H432.281V364.664H433.721V367.556H434.669V361.124H433.721ZM441.484 362.288C443.176 362.288 444.256 362.792 444.256 363.644C444.256 364.496 443.176 364.988 441.484 364.988C439.792 364.988 438.712 364.496 438.712 363.644C438.712 362.792 439.792 362.288 441.484 362.288ZM441.484 365.78C443.788 365.78 445.264 364.988 445.264 363.644C445.264 362.3 443.788 361.496 441.484 361.496C439.18 361.496 437.704 362.3 437.704 363.644C437.704 364.988 439.18 365.78 441.484 365.78ZM438.856 368.528H437.872V371.648H445.276V370.844H438.856V368.528ZM436.612 366.788V367.58H446.344V366.788H436.612ZM459.431 361.124H458.483V369.2H459.431V361.124ZM456.383 368.888H457.307V361.34H456.383V363.836H454.703V364.64H456.383V368.888ZM455.639 366.62C454.295 366.008 453.527 364.736 453.527 363.464V361.88H452.579V363.464C452.579 364.748 451.763 366.224 450.371 366.896L450.923 367.652C451.931 367.148 452.675 366.212 453.059 365.156C453.431 366.116 454.127 366.92 455.099 367.376L455.639 366.62ZM453.395 370.844V368.216H452.411V371.648H459.743V370.844H453.395ZM462.862 365.924H466.39V365.132H462.862V362.912H466.858V362.096H461.878V369.308H462.706C464.758 369.308 466.066 369.248 467.626 368.972L467.518 368.168C466.054 368.432 464.806 368.504 462.862 368.504V365.924ZM469.27 361.112V365.18H467.05V365.996H469.27V371.9H470.254V361.112H469.27ZM480.297 363.428V364.616H477.813V363.428H480.297ZM476.841 365.528H473.937V363.932H476.841V365.528ZM477.813 365.384H480.297V366.752H481.281V361.136H480.297V362.66H477.813V361.64H476.841V363.164H473.937V361.628H472.965V366.32H477.813V365.384ZM475.341 370.964V369.824H481.281V367.268H474.345V368.048H480.309V369.08H474.369V371.744H481.689V370.964H475.341ZM488.828 369.752V367.724H492.272V366.932H485.648V365.192H492.02V361.916H484.652V362.72H491.06V364.4H484.676V367.724H487.832V369.752H483.452V370.556H493.232V369.752H488.828ZM498.627 362.972H502.647V362.156H497.643V369.224H498.495C500.523 369.224 501.939 369.152 503.583 368.84L503.475 368.024C501.915 368.3 500.535 368.384 498.627 368.384V362.972ZM507.243 365.372H505.467V361.124H504.483V371.912H505.467V366.188H507.243V365.372ZM515.762 363.008H509.474V365.312H516.926V364.604H510.446V363.68H516.734V361.436H509.45V362.132H515.762V363.008ZM510.386 370.04H516.77V367.748H509.39V368.456H515.798V369.356H509.414V371.744H517.106V371.036H510.386V370.04ZM508.226 366.128V366.872H517.982V366.128H508.226ZM531.213 365.228C529.257 364.94 527.337 363.608 527.337 362.108V361.508H526.305V362.108C526.305 363.644 524.409 364.94 522.453 365.228L522.849 366.02C524.529 365.732 526.149 364.808 526.821 363.5C527.517 364.796 529.137 365.732 530.805 366.02L531.213 365.228ZM531.681 367.184H521.961V368H526.305V371.9H527.289V368H531.693L531.681 367.184ZM544.503 361.136H543.519V367.28H544.503V361.136ZM538.719 362.576C539.787 362.576 540.579 363.284 540.579 364.268C540.579 365.264 539.787 365.96 538.719 365.96C537.651 365.96 536.883 365.264 536.883 364.268C536.883 363.284 537.651 362.576 538.719 362.576ZM538.719 366.776C540.351 366.776 541.539 365.756 541.539 364.268C541.539 362.78 540.351 361.76 538.719 361.76C537.099 361.76 535.923 362.78 535.923 364.268C535.923 365.756 537.099 366.776 538.719 366.776ZM543.303 367.748H542.343V368.324C542.343 369.164 541.827 370.244 540.795 370.88C539.799 370.292 539.307 369.272 539.307 368.324V367.748H538.359V368.324C538.359 369.356 537.555 370.52 536.199 371L536.691 371.744C537.699 371.36 538.431 370.616 538.815 369.752C539.139 370.652 539.787 371.432 540.819 371.84C541.815 371.408 542.475 370.592 542.811 369.716C543.171 370.616 543.915 371.36 544.971 371.744L545.463 371C544.095 370.544 543.303 369.44 543.303 368.324V367.748ZM555.89 364.484C553.982 364.244 552.086 363.056 552.086 361.724V361.244H551.078V361.724C551.078 363.092 549.194 364.244 547.262 364.484L547.622 365.276C549.302 365.012 550.91 364.172 551.582 362.972C552.266 364.172 553.862 365.012 555.53 365.276L555.89 364.484ZM554.198 370.952H548.906V369.584H554.198V370.952ZM554.198 368.828H548.906V367.568H547.934V371.744H555.17V367.568H554.198V368.828ZM546.698 366.032V366.824H556.442V366.032H546.698ZM559.405 362.168H558.421V369.104H559.309C561.025 369.104 562.717 368.984 564.589 368.6L564.481 367.76C562.693 368.12 561.025 368.264 559.405 368.264V362.168ZM565.585 361.124V371.876H566.569V361.124H565.585ZM570.228 362.972H574.248V362.156H569.244V369.224H570.096C572.124 369.224 573.54 369.152 575.184 368.84L575.076 368.024C573.516 368.3 572.136 368.384 570.228 368.384V362.972ZM578.844 365.372H577.068V361.124H576.084V371.912H577.068V366.188H578.844V365.372ZM580.859 371.156C581.291 371.156 581.651 370.82 581.651 370.328C581.651 369.836 581.291 369.476 580.859 369.476C580.427 369.476 580.067 369.836 580.067 370.328C580.067 370.82 580.427 371.156 580.859 371.156Z" fill="#111921" fill-opacity="0.8"/>
<rect opacity="0.12" x="522" y="274" width="220" height="68" fill="#46D2EB"/>
<rect opacity="0.15" x="522" y="172" width="220" height="102" fill="#41B0FF"/>
<rect x="522" y="36" width="220" height="136" fill="#DBE8FB"/>
<path d="M522 70H742" stroke="#BFBFBF" stroke-width="0.7"/>
<path d="M522 172H742" stroke="#BFBFBF" stroke-width="0.7"/>
<path d="M522 308H742" stroke="#BFBFBF" stroke-width="0.7"/>
<path d="M522 240H742" stroke="#BFBFBF" stroke-width="0.7"/>
<path d="M522 274H742" stroke="#BFBFBF" stroke-width="0.7"/>
<path d="M522 135H742" stroke="#BFBFBF" stroke-width="0.7" stroke-dasharray="2 2"/>
<path d="M522 104H742" stroke="#BFBFBF" stroke-width="0.7" stroke-dasharray="2 2"/>
<path d="M522 206H742" stroke="#BFBFBF" stroke-width="0.7" stroke-dasharray="2 2"/>
<path d="M522 70H742" stroke="#BFBFBF" stroke-width="0.7" stroke-dasharray="2 2"/>
<path d="M548.324 48.942H551.866V48.004H547.19V55.942H548.016C549.892 55.942 551.166 55.886 552.664 55.564L552.566 54.612C551.194 54.906 550.004 54.976 548.324 54.99V48.942ZM556.304 46.478V51.518H554.526V46.758H553.448V58.406H554.526V52.456H556.304V59.036H557.41V46.478H556.304ZM568.777 46.492V53.226H569.925V46.492H568.777ZM561.833 53.842V58.868H569.925V53.842H568.791V55.382H562.967V53.842H561.833ZM562.967 56.278H568.791V57.944H562.967V56.278ZM563.177 47.08C561.287 47.08 559.915 48.256 559.915 49.964C559.915 51.7 561.287 52.862 563.177 52.862C565.081 52.862 566.467 51.7 566.467 49.964C566.467 48.256 565.081 47.08 563.177 47.08ZM563.177 48.032C564.451 48.032 565.347 48.83 565.347 49.964C565.347 51.112 564.451 51.91 563.177 51.91C561.931 51.91 561.035 51.112 561.035 49.964C561.035 48.83 561.931 48.032 563.177 48.032ZM582.183 53.52C582.533 51.182 582.533 49.544 582.533 48.536V47.85H576.191V48.788H581.413C581.413 49.796 581.385 51.322 581.035 53.408L582.183 53.52ZM579.299 51.434H578.165V55.298C577.227 55.326 576.303 55.34 575.505 55.34L575.631 56.292C577.857 56.292 580.811 56.236 583.415 55.816L583.345 54.976C582.071 55.144 580.671 55.214 579.299 55.27V51.434ZM587.265 51.728H585.263V46.478H584.115V59.036H585.263V52.694H587.265V51.728ZM595.216 49.74V50.678H597.694V53.968H598.856V46.492H597.694V49.74H595.216ZM595.916 52.596C594.096 51.952 592.864 50.37 592.864 48.76V48.326H595.622V47.402H588.916V48.326H591.716V48.76C591.716 50.566 590.428 52.26 588.552 52.946L589.154 53.856C590.624 53.296 591.786 52.12 592.318 50.664C592.864 51.952 593.942 52.988 595.342 53.492L595.916 52.596ZM594.712 58.14C592.822 58.14 591.674 57.608 591.674 56.698C591.674 55.788 592.822 55.242 594.712 55.242C596.602 55.242 597.75 55.788 597.75 56.698C597.75 57.608 596.602 58.14 594.712 58.14ZM594.712 54.36C592.136 54.36 590.526 55.214 590.526 56.698C590.526 58.182 592.136 59.036 594.712 59.036C597.288 59.036 598.884 58.182 598.884 56.698C598.884 55.214 597.288 54.36 594.712 54.36Z" fill="#333333"/>
<path d="M548.03 84.202C548.03 83.04 548.954 82.2 550.172 82.2C551.404 82.2 552.3 83.04 552.3 84.202C552.3 85.378 551.404 86.218 550.172 86.218C548.954 86.218 548.03 85.378 548.03 84.202ZM555.926 83.222V85.182H553.224C553.336 84.874 553.392 84.552 553.392 84.202C553.392 83.838 553.336 83.516 553.238 83.222H555.926ZM555.926 86.12V87.912H557.088V80.478H555.926V82.284H552.706C552.132 81.64 551.236 81.234 550.172 81.234C548.31 81.234 546.938 82.452 546.938 84.202C546.938 85.966 548.31 87.198 550.172 87.198C551.236 87.198 552.132 86.792 552.706 86.12H555.926ZM552.93 92.112C551.04 92.112 549.892 91.552 549.892 90.614C549.892 89.662 551.04 89.102 552.93 89.102C554.848 89.102 555.996 89.662 555.996 90.614C555.996 91.552 554.848 92.112 552.93 92.112ZM552.93 88.206C550.354 88.206 548.758 89.088 548.758 90.614C548.758 92.14 550.354 93.022 552.93 93.022C555.52 93.022 557.13 92.14 557.13 90.614C557.13 89.088 555.52 88.206 552.93 88.206ZM563.331 82.9H565.613V81.962H559.789V82.9H562.225V83.88C562.225 86.428 561.287 88.57 559.495 89.578L560.195 90.446C561.497 89.69 562.379 88.332 562.799 86.624C563.247 88.108 564.115 89.326 565.347 90.012L566.019 89.13C564.241 88.206 563.331 86.176 563.331 83.88V82.9ZM569.225 80.464V85.546H567.573V80.758H566.495V92.42H567.573V86.498H569.225V93.036H570.331V80.464H569.225ZM579.948 81.808H576.812V80.408H575.664V81.808H572.542V82.732H579.948V81.808ZM574.334 85.658C574.334 84.818 575.09 84.272 576.238 84.272C577.386 84.272 578.156 84.818 578.156 85.644C578.156 86.484 577.386 87.03 576.238 87.03C575.09 87.03 574.334 86.498 574.334 85.658ZM579.248 85.658C579.248 84.272 578.03 83.376 576.238 83.376C574.46 83.376 573.242 84.272 573.242 85.644C573.242 87.03 574.46 87.912 576.238 87.912C578.03 87.912 579.248 87.03 579.248 85.658ZM574.096 89.956H581.096V93.05H582.244V89.018H574.096V89.956ZM584.106 83.95H582.244V80.492H581.096V88.332H582.244V84.902H584.106V83.95ZM594.255 83.124C594.255 84.678 594.255 86.33 593.821 88.57L594.955 88.71C595.403 86.358 595.403 84.72 595.403 83.124V81.738H586.555V82.676H594.255V83.124ZM592.407 90.334V86.176H591.273V90.334H589.299V86.176H588.165V90.334H585.379V91.272H596.733V90.334H592.407ZM602.97 82.942H606.512V82.004H601.836V89.942H602.662C604.538 89.942 605.812 89.886 607.31 89.564L607.212 88.612C605.84 88.906 604.65 88.976 602.97 88.99V82.942ZM610.95 80.478V85.518H609.172V80.758H608.094V92.406H609.172V86.456H610.95V93.036H612.056V80.478H610.95ZM623.395 80.478V93.05H624.543V80.478H623.395ZM614.981 81.542V90.012H620.889V81.542H619.755V84.86H616.115V81.542H614.981ZM616.115 85.77H619.755V89.074H616.115V85.77ZM632.354 86.68H628.798V84.384H632.354V86.68ZM633.474 81.388H632.354V83.488H628.798V81.388H627.664V87.604H633.474V81.388ZM630.226 88.822H629.078V92.756H637.45V91.818H630.226V88.822ZM636.89 84.286V80.492H635.742V89.704H636.89V85.252H638.752V84.286H636.89Z" fill="#333333"/>
<path d="M555.604 150.984C555.604 152.496 555.604 154.26 555.128 156.668L556.276 156.794C556.752 154.26 556.752 152.538 556.752 150.984V149.738H547.946V150.676H555.604V150.984ZM552.314 158.334V153.84H551.166V158.334H546.756V159.272H558.11V158.334H552.314ZM569.659 152.328H562.197V149.906H569.575V148.982H561.049V153.252H569.659V152.328ZM565.291 160.126C563.317 160.126 562.155 159.636 562.155 158.754C562.155 157.872 563.317 157.382 565.291 157.382C567.265 157.382 568.427 157.872 568.427 158.754C568.427 159.636 567.251 160.126 565.291 160.126ZM565.291 156.486C562.617 156.486 560.993 157.298 560.993 158.754C560.993 160.21 562.617 161.022 565.291 161.022C567.965 161.022 569.589 160.21 569.589 158.754C569.589 157.298 567.965 156.486 565.291 156.486ZM559.621 154.456V155.408H570.989V154.456H559.621ZM585.921 148.492H584.773V154.988H585.921V148.492ZM583.233 153.728C581.371 153.112 580.055 151.544 580.055 149.808V148.856H578.907V149.808C578.907 151.628 577.605 153.308 575.715 153.966L576.303 154.862C577.787 154.33 578.949 153.182 579.495 151.74C580.069 153.07 581.217 154.12 582.659 154.624L583.233 153.728ZM578.963 159.986V158.642H585.935V155.618H577.801V156.528H584.801V157.774H577.829V160.896H586.355V159.986H578.963ZM595.174 151.95V152.888H597.694V157.69H598.856V148.492H597.694V151.95H595.174ZM595.916 154.904C594.096 154.26 592.864 152.692 592.864 151.054V150.438H595.622V149.5H588.916V150.438H591.716V151.068C591.716 152.846 590.414 154.512 588.552 155.184L589.154 156.08C590.624 155.548 591.772 154.386 592.318 152.958C592.864 154.246 593.942 155.296 595.342 155.8L595.916 154.904ZM591.982 159.818V156.878H590.82V160.756H599.206V159.818H591.982ZM607.94 155.52C608.29 153.182 608.29 151.544 608.29 150.536V149.85H601.948V150.788H607.17C607.17 151.796 607.142 153.322 606.792 155.408L607.94 155.52ZM605.056 153.434H603.922V157.298C602.984 157.326 602.06 157.34 601.262 157.34L601.388 158.292C603.614 158.292 606.568 158.236 609.172 157.816L609.102 156.976C607.828 157.144 606.428 157.214 605.056 157.27V153.434ZM613.022 153.728H611.02V148.478H609.872V161.036H611.02V154.694H613.022V153.728ZM620.973 151.74V152.678H623.451V155.968H624.613V148.492H623.451V151.74H620.973ZM621.673 154.596C619.853 153.952 618.621 152.37 618.621 150.76V150.326H621.379V149.402H614.673V150.326H617.473V150.76C617.473 152.566 616.185 154.26 614.309 154.946L614.911 155.856C616.381 155.296 617.543 154.12 618.075 152.664C618.621 153.952 619.699 154.988 621.099 155.492L621.673 154.596ZM620.469 160.14C618.579 160.14 617.431 159.608 617.431 158.698C617.431 157.788 618.579 157.242 620.469 157.242C622.359 157.242 623.507 157.788 623.507 158.698C623.507 159.608 622.359 160.14 620.469 160.14ZM620.469 156.36C617.893 156.36 616.283 157.214 616.283 158.698C616.283 160.182 617.893 161.036 620.469 161.036C623.045 161.036 624.641 160.182 624.641 158.698C624.641 157.214 623.045 156.36 620.469 156.36Z" fill="#333333"/>
<path d="M556.766 119.028H549.374V117.768H556.36V116.9H549.374V115.71H556.696V114.814H548.226V119.924H556.766V119.028ZM548.002 124.166H555.478V127.05H556.626V123.256H548.002V124.166ZM546.728 121.114V122.038H558.096V121.114H546.728ZM560.881 123.998H568.427V127.05H569.575V123.074H560.881V123.998ZM562.197 115.906H568.385V118.342H562.197V115.906ZM565.879 120.848V119.252H569.519V114.996H561.077V119.252H564.731V120.848H559.607V121.772H570.975V120.848H565.879ZM581.362 116.984C581.362 118.496 581.362 120.26 580.886 122.668L582.034 122.794C582.51 120.26 582.51 118.538 582.51 116.984V115.738H573.704V116.676H581.362V116.984ZM578.072 124.334V119.84H576.924V124.334H572.514V125.272H583.868V124.334H578.072ZM590.092 116.942H593.634V116.004H588.958V123.942H589.784C591.66 123.942 592.934 123.886 594.432 123.564L594.334 122.612C592.962 122.906 591.772 122.976 590.092 122.99V116.942ZM598.072 114.478V119.518H596.294V114.758H595.216V126.406H596.294V120.456H598.072V127.036H599.178V114.478H598.072ZM610.516 114.478V127.05H611.664V114.478H610.516ZM602.102 115.542V124.012H608.01V115.542H606.876V118.86H603.236V115.542H602.102ZM603.236 119.77H606.876V123.074H603.236V119.77ZM619.475 120.68H615.919V118.384H619.475V120.68ZM620.595 115.388H619.475V117.488H615.919V115.388H614.785V121.604H620.595V115.388ZM617.347 122.822H616.199V126.756H624.571V125.818H617.347V122.822ZM624.011 118.286V114.492H622.863V123.704H624.011V119.252H625.873V118.286H624.011Z" fill="#333333"/>
<path d="M553.294 189.52C553.644 187.182 553.644 185.544 553.644 184.536V183.85H547.302V184.788H552.524C552.524 185.796 552.496 187.322 552.146 189.408L553.294 189.52ZM550.41 187.434H549.276V191.298C548.338 191.326 547.414 191.34 546.616 191.34L546.742 192.292C548.968 192.292 551.922 192.236 554.526 191.816L554.456 190.976C553.182 191.144 551.782 191.214 550.41 191.27V187.434ZM558.376 187.728H556.374V182.478H555.226V195.036H556.374V188.694H558.376V187.728ZM567.069 183.808H563.933V182.408H562.785V183.808H559.663V184.732H567.069V183.808ZM561.455 187.658C561.455 186.818 562.211 186.272 563.359 186.272C564.507 186.272 565.277 186.818 565.277 187.644C565.277 188.484 564.507 189.03 563.359 189.03C562.211 189.03 561.455 188.498 561.455 187.658ZM566.369 187.658C566.369 186.272 565.151 185.376 563.359 185.376C561.581 185.376 560.363 186.272 560.363 187.644C560.363 189.03 561.581 189.912 563.359 189.912C565.151 189.912 566.369 189.03 566.369 187.658ZM561.217 191.956H568.217V195.05H569.365V191.018H561.217V191.956ZM571.227 185.95H569.365V182.492H568.217V190.332H569.365V186.902H571.227V185.95ZM584.815 185.726V187.406H581.525V188.344H584.815V189.996H585.977V182.492H584.815V184.788H581.973C582.057 184.354 582.113 183.892 582.113 183.43H576.443V184.354H580.867C580.657 186.524 578.795 188.19 575.799 189.086L576.261 189.996C578.963 189.212 580.867 187.742 581.679 185.726H584.815ZM581.875 194.084C580.027 194.084 578.851 193.51 578.851 192.558C578.851 191.62 580.027 191.046 581.875 191.046C583.723 191.046 584.899 191.62 584.899 192.558C584.899 193.51 583.723 194.084 581.875 194.084ZM581.875 190.136C579.341 190.136 577.717 191.046 577.717 192.558C577.717 194.07 579.341 194.98 581.875 194.98C584.409 194.98 586.033 194.07 586.033 192.558C586.033 191.046 584.409 190.136 581.875 190.136ZM592.962 183.57H591.828V185.824C591.828 188.204 590.302 190.612 588.454 191.494L589.154 192.432C590.624 191.676 591.828 190.108 592.402 188.218C593.004 190.01 594.208 191.494 595.636 192.194L596.322 191.27C594.46 190.43 592.962 188.12 592.962 185.824V183.57ZM597.638 182.478V195.064H598.786V182.478H597.638ZM614.809 182.492H613.661V188.988H614.809V182.492ZM612.121 187.728C610.259 187.112 608.943 185.544 608.943 183.808V182.856H607.795V183.808C607.795 185.628 606.493 187.308 604.603 187.966L605.191 188.862C606.675 188.33 607.837 187.182 608.383 185.74C608.957 187.07 610.105 188.12 611.547 188.624L612.121 187.728ZM607.851 193.986V192.642H614.823V189.618H606.689V190.528H613.689V191.774H606.717V194.896H615.243V193.986H607.851ZM624.062 185.95V186.888H626.582V191.69H627.744V182.492H626.582V185.95H624.062ZM624.804 188.904C622.984 188.26 621.752 186.692 621.752 185.054V184.438H624.51V183.5H617.804V184.438H620.604V185.068C620.604 186.846 619.302 188.512 617.44 189.184L618.042 190.08C619.512 189.548 620.66 188.386 621.206 186.958C621.752 188.246 622.83 189.296 624.23 189.8L624.804 188.904ZM620.87 193.818V190.878H619.708V194.756H628.094V193.818H620.87Z" fill="#333333"/>
<path d="M557.55 221.266C555.268 220.93 553.028 219.376 553.028 217.626V216.926H551.824V217.626C551.824 219.418 549.612 220.93 547.33 221.266L547.792 222.19C549.752 221.854 551.642 220.776 552.426 219.25C553.238 220.762 555.128 221.854 557.074 222.19L557.55 221.266ZM558.096 223.548H546.756V224.5H551.824V229.05H552.972V224.5H558.11L558.096 223.548ZM567.069 217.808H563.933V216.408H562.785V217.808H559.663V218.732H567.069V217.808ZM561.455 221.658C561.455 220.818 562.211 220.272 563.359 220.272C564.507 220.272 565.277 220.818 565.277 221.644C565.277 222.484 564.507 223.03 563.359 223.03C562.211 223.03 561.455 222.498 561.455 221.658ZM566.369 221.658C566.369 220.272 565.151 219.376 563.359 219.376C561.581 219.376 560.363 220.272 560.363 221.644C560.363 223.03 561.581 223.912 563.359 223.912C565.151 223.912 566.369 223.03 566.369 221.658ZM561.217 225.956H568.217V229.05H569.365V225.018H561.217V225.956ZM571.227 219.95H569.365V216.492H568.217V224.332H569.365V220.902H571.227V219.95ZM584.815 219.726V221.406H581.525V222.344H584.815V223.996H585.977V216.492H584.815V218.788H581.973C582.057 218.354 582.113 217.892 582.113 217.43H576.443V218.354H580.867C580.657 220.524 578.795 222.19 575.799 223.086L576.261 223.996C578.963 223.212 580.867 221.742 581.679 219.726H584.815ZM581.875 228.084C580.027 228.084 578.851 227.51 578.851 226.558C578.851 225.62 580.027 225.046 581.875 225.046C583.723 225.046 584.899 225.62 584.899 226.558C584.899 227.51 583.723 228.084 581.875 228.084ZM581.875 224.136C579.341 224.136 577.717 225.046 577.717 226.558C577.717 228.07 579.341 228.98 581.875 228.98C584.409 228.98 586.033 228.07 586.033 226.558C586.033 225.046 584.409 224.136 581.875 224.136ZM592.962 217.57H591.828V219.824C591.828 222.204 590.302 224.612 588.454 225.494L589.154 226.432C590.624 225.676 591.828 224.108 592.402 222.218C593.004 224.01 594.208 225.494 595.636 226.194L596.322 225.27C594.46 224.43 592.962 222.12 592.962 219.824V217.57ZM597.638 216.478V229.064H598.786V216.478H597.638ZM614.809 216.492H613.661V222.988H614.809V216.492ZM612.121 221.728C610.259 221.112 608.943 219.544 608.943 217.808V216.856H607.795V217.808C607.795 219.628 606.493 221.308 604.603 221.966L605.191 222.862C606.675 222.33 607.837 221.182 608.383 219.74C608.957 221.07 610.105 222.12 611.547 222.624L612.121 221.728ZM607.851 227.986V226.642H614.823V223.618H606.689V224.528H613.689V225.774H606.717V228.896H615.243V227.986H607.851ZM624.062 219.95V220.888H626.582V225.69H627.744V216.492H626.582V219.95H624.062ZM624.804 222.904C622.984 222.26 621.752 220.692 621.752 219.054V218.438H624.51V217.5H617.804V218.438H620.604V219.068C620.604 220.846 619.302 222.512 617.44 223.184L618.042 224.08C619.512 223.548 620.66 222.386 621.206 220.958C621.752 222.246 622.83 223.296 624.23 223.8L624.804 222.904ZM620.87 227.818V224.878H619.708V228.756H628.094V227.818H620.87Z" fill="#333333"/>
<path d="M555.604 252.984C555.604 254.496 555.604 256.26 555.128 258.668L556.276 258.794C556.752 256.26 556.752 254.538 556.752 252.984V251.738H547.946V252.676H555.604V252.984ZM552.314 260.334V255.84H551.166V260.334H546.756V261.272H558.11V260.334H552.314ZM569.659 254.328H562.197V251.906H569.575V250.982H561.049V255.252H569.659V254.328ZM565.291 262.126C563.317 262.126 562.155 261.636 562.155 260.754C562.155 259.872 563.317 259.382 565.291 259.382C567.265 259.382 568.427 259.872 568.427 260.754C568.427 261.636 567.251 262.126 565.291 262.126ZM565.291 258.486C562.617 258.486 560.993 259.298 560.993 260.754C560.993 262.21 562.617 263.022 565.291 263.022C567.965 263.022 569.589 262.21 569.589 260.754C569.589 259.298 567.965 258.486 565.291 258.486ZM559.621 256.456V257.408H570.989V256.456H559.621ZM576.373 251.836V252.76H581.091C580.853 255.742 579.173 258.15 575.799 259.76L576.415 260.698C580.587 258.654 582.253 255.462 582.253 251.836H576.373ZM584.787 250.478V263.036H585.935V250.478H584.787ZM591.114 259.284H589.966V262.756H598.604V261.818H591.114V259.284ZM591.142 253.46H597.246V255.07H591.142V253.46ZM594.768 257.338V255.994H598.38V250.982H597.246V252.564H591.142V250.982H590.008V255.994H593.62V257.338H588.496V258.276H599.864V257.338H594.768ZM615.327 255.266C613.045 254.93 610.805 253.376 610.805 251.626V250.926H609.601V251.626C609.601 253.418 607.389 254.93 605.107 255.266L605.569 256.19C607.529 255.854 609.419 254.776 610.203 253.25C611.015 254.762 612.905 255.854 614.851 256.19L615.327 255.266ZM615.873 257.548H604.533V258.5H609.601V263.05H610.749V258.5H615.887L615.873 257.548ZM624.846 251.808H621.71V250.408H620.562V251.808H617.44V252.732H624.846V251.808ZM619.232 255.658C619.232 254.818 619.988 254.272 621.136 254.272C622.284 254.272 623.054 254.818 623.054 255.644C623.054 256.484 622.284 257.03 621.136 257.03C619.988 257.03 619.232 256.498 619.232 255.658ZM624.146 255.658C624.146 254.272 622.928 253.376 621.136 253.376C619.358 253.376 618.14 254.272 618.14 255.644C618.14 257.03 619.358 257.912 621.136 257.912C622.928 257.912 624.146 257.03 624.146 255.658ZM618.994 259.956H625.994V263.05H627.142V259.018H618.994V259.956ZM629.004 253.95H627.142V250.492H625.994V258.332H627.142V254.902H629.004V253.95ZM633.399 257.884C633.903 257.884 634.323 257.478 634.323 256.918C634.323 256.33 633.903 255.924 633.399 255.924C632.895 255.924 632.475 256.33 632.475 256.918C632.475 257.478 632.895 257.884 633.399 257.884ZM644.677 257.52C645.027 255.182 645.027 253.544 645.027 252.536V251.85H638.685V252.788H643.907C643.907 253.796 643.879 255.322 643.529 257.408L644.677 257.52ZM641.793 255.434H640.659V259.298C639.721 259.326 638.797 259.34 637.999 259.34L638.125 260.292C640.351 260.292 643.305 260.236 645.909 259.816L645.839 258.976C644.565 259.144 643.165 259.214 641.793 259.27V255.434ZM649.759 255.728H647.757V250.478H646.609V263.036H647.757V256.694H649.759V255.728ZM658.452 251.808H655.316V250.408H654.168V251.808H651.046V252.732H658.452V251.808ZM652.838 255.658C652.838 254.818 653.594 254.272 654.742 254.272C655.89 254.272 656.66 254.818 656.66 255.644C656.66 256.484 655.89 257.03 654.742 257.03C653.594 257.03 652.838 256.498 652.838 255.658ZM657.752 255.658C657.752 254.272 656.534 253.376 654.742 253.376C652.964 253.376 651.746 254.272 651.746 255.644C651.746 257.03 652.964 257.912 654.742 257.912C656.534 257.912 657.752 257.03 657.752 255.658ZM652.6 259.956H659.6V263.05H660.748V259.018H652.6V259.956ZM662.61 253.95H660.748V250.492H659.6V258.332H660.748V254.902H662.61V253.95Z" fill="#333333"/>
<path d="M547.792 289.602C549.85 289.35 551.74 288.426 552.426 287.04C553.126 288.426 555.002 289.35 557.06 289.602L557.466 288.692C555.268 288.44 553.266 287.362 553.168 285.976H557.074V285.052H547.792V285.976H551.684C551.586 287.362 549.584 288.44 547.386 288.692L547.792 289.602ZM555.548 294.81C555.548 295.65 554.372 296.14 552.412 296.14C550.438 296.14 549.276 295.65 549.276 294.81C549.276 293.97 550.438 293.494 552.412 293.494C554.372 293.494 555.548 293.97 555.548 294.81ZM558.096 291.282V290.358H546.742V291.282H551.838V292.626C549.5 292.738 548.114 293.508 548.114 294.81C548.114 296.238 549.738 297.022 552.426 297.022C555.1 297.022 556.71 296.238 556.71 294.81C556.71 293.508 555.338 292.738 553 292.626V291.282H558.096ZM569.659 288.328H562.197V285.906H569.575V284.982H561.049V289.252H569.659V288.328ZM565.291 296.126C563.317 296.126 562.155 295.636 562.155 294.754C562.155 293.872 563.317 293.382 565.291 293.382C567.265 293.382 568.427 293.872 568.427 294.754C568.427 295.636 567.251 296.126 565.291 296.126ZM565.291 292.486C562.617 292.486 560.993 293.298 560.993 294.754C560.993 296.21 562.617 297.022 565.291 297.022C567.965 297.022 569.589 296.21 569.589 294.754C569.589 293.298 567.965 292.486 565.291 292.486ZM559.621 290.456V291.408H570.989V290.456H559.621ZM582.183 291.52C582.533 289.182 582.533 287.544 582.533 286.536V285.85H576.191V286.788H581.413C581.413 287.796 581.385 289.322 581.035 291.408L582.183 291.52ZM579.299 289.434H578.165V293.298C577.227 293.326 576.303 293.34 575.505 293.34L575.631 294.292C577.857 294.292 580.811 294.236 583.415 293.816L583.345 292.976C582.071 293.144 580.671 293.214 579.299 293.27V289.434ZM587.265 289.728H585.263V284.478H584.115V297.036H585.263V290.694H587.265V289.728ZM595.216 287.74V288.678H597.694V291.968H598.856V284.492H597.694V287.74H595.216ZM595.916 290.596C594.096 289.952 592.864 288.37 592.864 286.76V286.326H595.622V285.402H588.916V286.326H591.716V286.76C591.716 288.566 590.428 290.26 588.552 290.946L589.154 291.856C590.624 291.296 591.786 290.12 592.318 288.664C592.864 289.952 593.942 290.988 595.342 291.492L595.916 290.596ZM594.712 296.14C592.822 296.14 591.674 295.608 591.674 294.698C591.674 293.788 592.822 293.242 594.712 293.242C596.602 293.242 597.75 293.788 597.75 294.698C597.75 295.608 596.602 296.14 594.712 296.14ZM594.712 292.36C592.136 292.36 590.526 293.214 590.526 294.698C590.526 296.182 592.136 297.036 594.712 297.036C597.288 297.036 598.884 296.182 598.884 294.698C598.884 293.214 597.288 292.36 594.712 292.36ZM615.327 289.266C613.045 288.93 610.805 287.376 610.805 285.626V284.926H609.601V285.626C609.601 287.418 607.389 288.93 605.107 289.266L605.569 290.19C607.529 289.854 609.419 288.776 610.203 287.25C611.015 288.762 612.905 289.854 614.851 290.19L615.327 289.266ZM615.873 291.548H604.533V292.5H609.601V297.05H610.749V292.5H615.887L615.873 291.548ZM624.846 285.808H621.71V284.408H620.562V285.808H617.44V286.732H624.846V285.808ZM619.232 289.658C619.232 288.818 619.988 288.272 621.136 288.272C622.284 288.272 623.054 288.818 623.054 289.644C623.054 290.484 622.284 291.03 621.136 291.03C619.988 291.03 619.232 290.498 619.232 289.658ZM624.146 289.658C624.146 288.272 622.928 287.376 621.136 287.376C619.358 287.376 618.14 288.272 618.14 289.644C618.14 291.03 619.358 291.912 621.136 291.912C622.928 291.912 624.146 291.03 624.146 289.658ZM618.994 293.956H625.994V297.05H627.142V293.018H618.994V293.956ZM629.004 287.95H627.142V284.492H625.994V292.332H627.142V288.902H629.004V287.95ZM633.399 291.884C633.903 291.884 634.323 291.478 634.323 290.918C634.323 290.33 633.903 289.924 633.399 289.924C632.895 289.924 632.475 290.33 632.475 290.918C632.475 291.478 632.895 291.884 633.399 291.884ZM644.677 291.52C645.027 289.182 645.027 287.544 645.027 286.536V285.85H638.685V286.788H643.907C643.907 287.796 643.879 289.322 643.529 291.408L644.677 291.52ZM641.793 289.434H640.659V293.298C639.721 293.326 638.797 293.34 637.999 293.34L638.125 294.292C640.351 294.292 643.305 294.236 645.909 293.816L645.839 292.976C644.565 293.144 643.165 293.214 641.793 293.27V289.434ZM649.759 289.728H647.757V284.478H646.609V297.036H647.757V290.694H649.759V289.728ZM658.452 285.808H655.316V284.408H654.168V285.808H651.046V286.732H658.452V285.808ZM652.838 289.658C652.838 288.818 653.594 288.272 654.742 288.272C655.89 288.272 656.66 288.818 656.66 289.644C656.66 290.484 655.89 291.03 654.742 291.03C653.594 291.03 652.838 290.498 652.838 289.658ZM657.752 289.658C657.752 288.272 656.534 287.376 654.742 287.376C652.964 287.376 651.746 288.272 651.746 289.644C651.746 291.03 652.964 291.912 654.742 291.912C656.534 291.912 657.752 291.03 657.752 289.658ZM652.6 293.956H659.6V297.05H660.748V293.018H652.6V293.956ZM662.61 287.95H660.748V284.492H659.6V292.332H660.748V288.902H662.61V287.95Z" fill="#333333"/>
<path d="M547.82 326.094C549.836 325.73 551.642 324.722 552.44 323.182C553.224 324.722 555.03 325.73 557.046 326.094L557.494 325.184C555.058 324.792 553.014 323.322 553.014 321.39H557.046V320.466H553.014V318.758H551.852V320.466H547.806V321.39H551.852C551.852 323.322 549.808 324.792 547.372 325.184L547.82 326.094ZM553.014 328.502V325.646H551.852V328.502H546.742V329.454H558.138V328.502H553.014ZM569.659 322.328H562.197V319.906H569.575V318.982H561.049V323.252H569.659V322.328ZM565.291 330.126C563.317 330.126 562.155 329.636 562.155 328.754C562.155 327.872 563.317 327.382 565.291 327.382C567.265 327.382 568.427 327.872 568.427 328.754C568.427 329.636 567.251 330.126 565.291 330.126ZM565.291 326.486C562.617 326.486 560.993 327.298 560.993 328.754C560.993 330.21 562.617 331.022 565.291 331.022C567.965 331.022 569.589 330.21 569.589 328.754C569.589 327.298 567.965 326.486 565.291 326.486ZM559.621 324.456V325.408H570.989V324.456H559.621ZM582.183 325.52C582.533 323.182 582.533 321.544 582.533 320.536V319.85H576.191V320.788H581.413C581.413 321.796 581.385 323.322 581.035 325.408L582.183 325.52ZM579.299 323.434H578.165V327.298C577.227 327.326 576.303 327.34 575.505 327.34L575.631 328.292C577.857 328.292 580.811 328.236 583.415 327.816L583.345 326.976C582.071 327.144 580.671 327.214 579.299 327.27V323.434ZM587.265 323.728H585.263V318.478H584.115V331.036H585.263V324.694H587.265V323.728ZM595.216 321.74V322.678H597.694V325.968H598.856V318.492H597.694V321.74H595.216ZM595.916 324.596C594.096 323.952 592.864 322.37 592.864 320.76V320.326H595.622V319.402H588.916V320.326H591.716V320.76C591.716 322.566 590.428 324.26 588.552 324.946L589.154 325.856C590.624 325.296 591.786 324.12 592.318 322.664C592.864 323.952 593.942 324.988 595.342 325.492L595.916 324.596ZM594.712 330.14C592.822 330.14 591.674 329.608 591.674 328.698C591.674 327.788 592.822 327.242 594.712 327.242C596.602 327.242 597.75 327.788 597.75 328.698C597.75 329.608 596.602 330.14 594.712 330.14ZM594.712 326.36C592.136 326.36 590.526 327.214 590.526 328.698C590.526 330.182 592.136 331.036 594.712 331.036C597.288 331.036 598.884 330.182 598.884 328.698C598.884 327.214 597.288 326.36 594.712 326.36ZM615.327 323.266C613.045 322.93 610.805 321.376 610.805 319.626V318.926H609.601V319.626C609.601 321.418 607.389 322.93 605.107 323.266L605.569 324.19C607.529 323.854 609.419 322.776 610.203 321.25C611.015 322.762 612.905 323.854 614.851 324.19L615.327 323.266ZM615.873 325.548H604.533V326.5H609.601V331.05H610.749V326.5H615.887L615.873 325.548ZM624.846 319.808H621.71V318.408H620.562V319.808H617.44V320.732H624.846V319.808ZM619.232 323.658C619.232 322.818 619.988 322.272 621.136 322.272C622.284 322.272 623.054 322.818 623.054 323.644C623.054 324.484 622.284 325.03 621.136 325.03C619.988 325.03 619.232 324.498 619.232 323.658ZM624.146 323.658C624.146 322.272 622.928 321.376 621.136 321.376C619.358 321.376 618.14 322.272 618.14 323.644C618.14 325.03 619.358 325.912 621.136 325.912C622.928 325.912 624.146 325.03 624.146 323.658ZM618.994 327.956H625.994V331.05H627.142V327.018H618.994V327.956ZM629.004 321.95H627.142V318.492H625.994V326.332H627.142V322.902H629.004V321.95Z" fill="#333333"/>
<rect opacity="0.12" x="202" y="274" width="220" height="68" fill="#46D2EB"/>
<rect opacity="0.15" x="202" y="172" width="220" height="102" fill="#41B0FF"/>
<rect x="202" y="36" width="220" height="136" fill="#DBE8FB"/>
<path d="M290.666 95.97V104.88H293.06V95.97H290.666ZM282.044 105.6V112.35H293.06V105.6H290.702V107.148H284.402V105.6H282.044ZM284.402 108.966H290.702V110.478H284.402V108.966ZM284.042 96.654C281.468 96.654 279.524 98.292 279.524 100.56C279.524 102.846 281.468 104.484 284.042 104.484C286.616 104.484 288.542 102.846 288.542 100.56C288.542 98.292 286.616 96.654 284.042 96.654ZM284.042 98.616C285.302 98.616 286.22 99.354 286.22 100.56C286.22 101.802 285.302 102.522 284.042 102.522C282.782 102.522 281.846 101.802 281.846 100.56C281.846 99.354 282.782 98.616 284.042 98.616ZM302.275 97.248H299.899V99.66C299.899 102.882 298.531 106.086 295.633 107.328L297.055 109.29C299.035 108.354 300.385 106.572 301.123 104.358C301.861 106.392 303.139 108.03 305.047 108.894L306.397 106.968C303.589 105.762 302.275 102.738 302.275 99.66V97.248ZM307.207 95.952V112.584H309.583V95.952H307.207ZM326.537 95.97H324.287V108.372H326.537V95.97ZM320.975 107.886H323.189V96.258H320.975V99.75H319.013V101.676H320.975V107.886ZM320.489 104.034C318.419 103.026 317.627 101.154 317.627 99.21V97.086H315.323V99.21C315.323 101.19 314.459 103.332 312.191 104.448L313.487 106.248C314.945 105.564 315.917 104.376 316.511 102.972C317.033 104.214 317.897 105.24 319.193 105.852L320.489 104.034ZM317.753 110.37V106.932H315.377V112.26H326.951V110.37H317.753ZM332.08 103.818H336.832V101.964H332.08V99.264H337.39V97.356H329.722V108.822H331.072C333.862 108.822 335.986 108.768 338.38 108.39L338.164 106.482C336.13 106.806 334.312 106.896 332.08 106.914V103.818ZM340.504 95.952V101.802H337.66V103.71H340.504V112.584H342.88V95.952H340.504Z" fill="#3C68A7"/>
<path d="M299.053 219.488V221.018H295.399V222.926H299.053V224.51H301.429V214.97H299.053V217.598H296.083C296.155 217.112 296.191 216.608 296.191 216.086H288.595V217.994H293.599C293.293 220.244 291.475 222.026 287.695 223.034L288.613 224.906C292.267 223.88 294.589 222.098 295.615 219.488H299.053ZM295.957 229.622C293.905 229.622 292.699 229.1 292.699 228.092C292.699 227.084 293.905 226.562 295.957 226.562C297.991 226.562 299.197 227.084 299.197 228.092C299.197 229.1 297.991 229.622 295.957 229.622ZM295.957 224.726C292.573 224.726 290.359 226.022 290.359 228.092C290.359 230.162 292.573 231.458 295.957 231.458C299.323 231.458 301.537 230.162 301.537 228.092C301.537 226.022 299.323 224.726 295.957 224.726ZM310.554 216.248H308.178V218.66C308.178 221.882 306.81 225.086 303.912 226.328L305.334 228.29C307.314 227.354 308.664 225.572 309.402 223.358C310.14 225.392 311.418 227.03 313.326 227.894L314.676 225.968C311.868 224.762 310.554 221.738 310.554 218.66V216.248ZM315.486 214.952V231.584H317.862V214.952H315.486ZM329.542 222.08C329.92 219.992 329.92 218.354 329.92 217.202V216.176H321.406V218.066H327.58C327.562 219.056 327.49 220.262 327.22 221.81L329.542 222.08ZM330.64 222.746C329.092 222.962 327.436 223.088 325.798 223.16V220.028H323.476V223.25C322.396 223.268 321.37 223.268 320.452 223.268L320.668 225.158C323.512 225.14 327.364 225.068 330.784 224.438L330.64 222.746ZM325.24 226.274H322.864V231.26H334.438V229.37H325.24V226.274ZM333.916 220.01V214.952H331.54V227.372H333.916V221.972H335.896V220.01H333.916Z" fill="#5E91DC"/>
<path d="M290.035 304.92C290.035 303.624 290.917 302.868 292.141 302.868C293.365 302.868 294.265 303.624 294.265 304.92C294.265 306.198 293.365 306.972 292.141 306.972C290.917 306.972 290.035 306.198 290.035 304.92ZM299.053 304.02V305.82H296.407C296.479 305.514 296.515 305.226 296.515 304.92C296.515 304.596 296.479 304.308 296.425 304.02H299.053ZM299.053 307.71V309.69H301.429V299.97H299.053V302.13H295.399C294.607 301.338 293.473 300.852 292.141 300.852C289.693 300.852 287.785 302.562 287.785 304.92C287.785 307.26 289.693 308.97 292.141 308.97C293.437 308.97 294.571 308.502 295.363 307.71H299.053ZM295.813 314.73C293.635 314.73 292.483 314.262 292.483 313.29C292.483 312.318 293.635 311.85 295.813 311.85C297.991 311.85 299.161 312.318 299.161 313.29C299.161 314.262 297.991 314.73 295.813 314.73ZM295.813 310.014C292.321 310.014 290.143 311.22 290.143 313.29C290.143 315.342 292.321 316.566 295.813 316.566C299.323 316.566 301.501 315.342 301.501 313.29C301.501 311.22 299.323 310.014 295.813 310.014ZM316.224 299.952V306.306H314.874V300.222H312.66V310.95C310.212 309.672 309.384 306.918 309.384 304.02V303.57H311.868V301.644H304.362V303.57H307.08V304.02C307.08 307.206 306.288 310.14 303.822 311.58L305.244 313.38C306.792 312.462 307.764 310.896 308.304 308.988C308.898 310.644 309.852 311.976 311.328 312.768L312.66 310.986V315.792H314.874V308.25H316.224V316.53H318.474V299.952H316.224ZM329.542 307.08C329.92 304.992 329.92 303.354 329.92 302.202V301.176H321.406V303.066H327.58C327.562 304.056 327.49 305.262 327.22 306.81L329.542 307.08ZM330.64 307.746C329.092 307.962 327.436 308.088 325.798 308.16V305.028H323.476V308.25C322.396 308.268 321.37 308.268 320.452 308.268L320.668 310.158C323.512 310.14 327.364 310.068 330.784 309.438L330.64 307.746ZM325.24 311.274H322.864V316.26H334.438V314.37H325.24V311.274ZM333.916 305.01V299.952H331.54V312.372H333.916V306.972H335.896V305.01H333.916Z" fill="#6BB9C7"/>
<rect x="422" y="274" width="100" height="34" fill="#67BBCF"/>
<rect x="422" y="308" width="100" height="34" fill="#6FC4D9"/>
<rect x="422" y="240" width="100" height="34" fill="#549EC1"/>
<rect x="422" y="172" width="100" height="68" fill="#3E7CA8"/>
<rect x="422" y="70" width="100" height="102" fill="#02578A"/>
<rect x="422" y="36" width="100" height="34" fill="#024873"/>
<path d="M471.335 46.625V58H468.992V46.625H471.335ZM475.867 51.4844V53.3125H470.695V51.4844H475.867ZM476.414 46.625V48.4609H470.695V46.625H476.414Z" fill="white"/>
<path d="M472.632 320.57L469.539 330H467.046L471.273 318.625H472.859L472.632 320.57ZM475.203 330L472.101 320.57L471.851 318.625H473.453L477.703 330H475.203ZM475.062 325.766V327.602H469.054V325.766H475.062Z" fill="white"/>
<path d="M472.726 291.008H469.804L469.789 289.398H472.242C472.674 289.398 473.028 289.344 473.304 289.234C473.58 289.12 473.786 288.956 473.921 288.742C474.062 288.523 474.132 288.258 474.132 287.945C474.132 287.591 474.065 287.305 473.929 287.086C473.799 286.867 473.593 286.708 473.312 286.609C473.036 286.51 472.679 286.461 472.242 286.461H470.617V296H468.273V284.625H472.242C472.903 284.625 473.494 284.688 474.015 284.812C474.541 284.938 474.986 285.128 475.351 285.383C475.716 285.638 475.994 285.961 476.187 286.352C476.38 286.737 476.476 287.195 476.476 287.727C476.476 288.195 476.369 288.628 476.156 289.023C475.947 289.419 475.617 289.742 475.164 289.992C474.716 290.242 474.13 290.38 473.406 290.406L472.726 291.008ZM472.624 296H469.164L470.078 294.172H472.624C473.036 294.172 473.372 294.107 473.632 293.977C473.893 293.841 474.085 293.659 474.21 293.43C474.335 293.201 474.398 292.938 474.398 292.641C474.398 292.307 474.341 292.018 474.226 291.773C474.117 291.529 473.94 291.341 473.695 291.211C473.45 291.076 473.127 291.008 472.726 291.008H470.468L470.484 289.398H473.296L473.835 290.031C474.528 290.021 475.085 290.143 475.507 290.398C475.934 290.648 476.244 290.974 476.437 291.375C476.635 291.776 476.734 292.206 476.734 292.664C476.734 293.393 476.575 294.008 476.257 294.508C475.94 295.003 475.473 295.375 474.859 295.625C474.249 295.875 473.505 296 472.624 296Z" fill="white"/>
<path d="M474.742 258.227H477.078C477.031 258.992 476.82 259.672 476.445 260.266C476.075 260.859 475.557 261.323 474.89 261.656C474.229 261.99 473.432 262.156 472.499 262.156C471.77 262.156 471.117 262.031 470.539 261.781C469.96 261.526 469.466 261.161 469.054 260.688C468.648 260.214 468.338 259.641 468.124 258.969C467.911 258.297 467.804 257.544 467.804 256.711V255.922C467.804 255.089 467.914 254.336 468.132 253.664C468.356 252.987 468.674 252.411 469.085 251.938C469.502 251.464 469.999 251.099 470.578 250.844C471.156 250.589 471.802 250.461 472.515 250.461C473.463 250.461 474.262 250.633 474.914 250.977C475.57 251.32 476.078 251.794 476.437 252.398C476.802 253.003 477.02 253.69 477.093 254.461H474.749C474.723 254.003 474.632 253.615 474.476 253.297C474.32 252.974 474.083 252.732 473.765 252.57C473.453 252.404 473.036 252.32 472.515 252.32C472.124 252.32 471.783 252.393 471.492 252.539C471.2 252.685 470.955 252.906 470.757 253.203C470.559 253.5 470.411 253.875 470.312 254.328C470.218 254.776 470.171 255.302 470.171 255.906V256.711C470.171 257.299 470.216 257.818 470.304 258.266C470.393 258.708 470.528 259.083 470.71 259.391C470.898 259.693 471.137 259.922 471.429 260.078C471.726 260.229 472.083 260.305 472.499 260.305C472.989 260.305 473.393 260.227 473.71 260.07C474.028 259.914 474.27 259.682 474.437 259.375C474.609 259.068 474.71 258.685 474.742 258.227Z" fill="white"/>
<path d="M463.921 228H461.445L461.46 226.172H463.921C464.536 226.172 465.054 226.034 465.476 225.758C465.898 225.477 466.216 225.068 466.429 224.531C466.648 223.995 466.757 223.346 466.757 222.586V222.031C466.757 221.448 466.695 220.935 466.57 220.492C466.45 220.049 466.27 219.677 466.031 219.375C465.791 219.073 465.497 218.846 465.148 218.695C464.799 218.539 464.398 218.461 463.945 218.461H461.398V216.625H463.945C464.705 216.625 465.401 216.755 466.031 217.016C466.666 217.271 467.216 217.638 467.679 218.117C468.143 218.596 468.499 219.169 468.749 219.836C469.005 220.497 469.132 221.234 469.132 222.047V222.586C469.132 223.393 469.005 224.13 468.749 224.797C468.499 225.464 468.143 226.036 467.679 226.516C467.221 226.99 466.671 227.357 466.031 227.617C465.395 227.872 464.692 228 463.921 228ZM462.773 216.625V228H460.429V216.625H462.773ZM475.132 222.234V224H470.718V222.234H475.132ZM482.398 216.602V228H480.148V219.195L477.445 220.055V218.281L482.156 216.602H482.398Z" fill="white"/>
<path d="M463.921 194H461.445L461.46 192.172H463.921C464.536 192.172 465.054 192.034 465.476 191.758C465.898 191.477 466.216 191.068 466.429 190.531C466.648 189.995 466.757 189.346 466.757 188.586V188.031C466.757 187.448 466.695 186.935 466.57 186.492C466.45 186.049 466.27 185.677 466.031 185.375C465.791 185.073 465.497 184.846 465.148 184.695C464.799 184.539 464.398 184.461 463.945 184.461H461.398V182.625H463.945C464.705 182.625 465.401 182.755 466.031 183.016C466.666 183.271 467.216 183.638 467.679 184.117C468.143 184.596 468.499 185.169 468.749 185.836C469.005 186.497 469.132 187.234 469.132 188.047V188.586C469.132 189.393 469.005 190.13 468.749 190.797C468.499 191.464 468.143 192.036 467.679 192.516C467.221 192.99 466.671 193.357 466.031 193.617C465.395 193.872 464.692 194 463.921 194ZM462.773 182.625V194H460.429V182.625H462.773ZM475.132 188.234V190H470.718V188.234H475.132ZM484.695 192.242V194H476.914V192.5L480.593 188.555C480.963 188.143 481.255 187.781 481.468 187.469C481.682 187.151 481.835 186.867 481.929 186.617C482.028 186.362 482.078 186.12 482.078 185.891C482.078 185.547 482.02 185.253 481.906 185.008C481.791 184.758 481.622 184.565 481.398 184.43C481.179 184.294 480.908 184.227 480.585 184.227C480.242 184.227 479.945 184.31 479.695 184.477C479.45 184.643 479.262 184.875 479.132 185.172C479.007 185.469 478.945 185.805 478.945 186.18H476.687C476.687 185.503 476.848 184.883 477.171 184.32C477.494 183.753 477.95 183.302 478.539 182.969C479.127 182.63 479.825 182.461 480.632 182.461C481.429 182.461 482.101 182.591 482.648 182.852C483.2 183.107 483.617 183.477 483.898 183.961C484.184 184.44 484.328 185.013 484.328 185.68C484.328 186.055 484.268 186.422 484.148 186.781C484.028 187.135 483.856 187.49 483.632 187.844C483.414 188.193 483.148 188.547 482.835 188.906C482.523 189.266 482.177 189.638 481.796 190.023L479.82 192.242H484.695Z" fill="white"/>
<path d="M468.765 158.172V160H462.71V158.172H468.765ZM463.476 148.625V160H461.132V148.625H463.476ZM467.976 153.258V155.039H462.71V153.258H467.976ZM468.757 148.625V150.461H462.71V148.625H468.757ZM474.429 154.234V156H470.015V154.234H474.429ZM481.695 148.602V160H479.445V151.195L476.742 152.055V150.281L481.453 148.602H481.695Z" fill="white"/>
<path d="M468.765 124.172V126H462.71V124.172H468.765ZM463.476 114.625V126H461.132V114.625H463.476ZM467.976 119.258V121.039H462.71V119.258H467.976ZM468.757 114.625V116.461H462.71V114.625H468.757ZM474.429 120.234V122H470.015V120.234H474.429ZM483.992 124.242V126H476.21V124.5L479.89 120.555C480.26 120.143 480.552 119.781 480.765 119.469C480.979 119.151 481.132 118.867 481.226 118.617C481.325 118.362 481.374 118.12 481.374 117.891C481.374 117.547 481.317 117.253 481.203 117.008C481.088 116.758 480.919 116.565 480.695 116.43C480.476 116.294 480.205 116.227 479.882 116.227C479.539 116.227 479.242 116.31 478.992 116.477C478.747 116.643 478.559 116.875 478.429 117.172C478.304 117.469 478.242 117.805 478.242 118.18H475.984C475.984 117.503 476.145 116.883 476.468 116.32C476.791 115.753 477.247 115.302 477.835 114.969C478.424 114.63 479.122 114.461 479.929 114.461C480.726 114.461 481.398 114.591 481.945 114.852C482.497 115.107 482.914 115.477 483.195 115.961C483.481 116.44 483.624 117.013 483.624 117.68C483.624 118.055 483.565 118.422 483.445 118.781C483.325 119.135 483.153 119.49 482.929 119.844C482.71 120.193 482.445 120.547 482.132 120.906C481.82 121.266 481.473 121.638 481.093 122.023L479.117 124.242H483.992Z" fill="white"/>
<path d="M468.765 90.1719V92H462.71V90.1719H468.765ZM463.476 80.625V92H461.132V80.625H463.476ZM467.976 85.2578V87.0391H462.71V85.2578H467.976ZM468.757 80.625V82.4609H462.71V80.625H468.757ZM474.429 86.2344V88H470.015V86.2344H474.429ZM478.515 85.3359H479.718C480.104 85.3359 480.421 85.2708 480.671 85.1406C480.921 85.0052 481.106 84.8177 481.226 84.5781C481.351 84.3333 481.414 84.0495 481.414 83.7266C481.414 83.4349 481.356 83.1771 481.242 82.9531C481.132 82.724 480.963 82.5469 480.734 82.4219C480.505 82.2917 480.216 82.2266 479.867 82.2266C479.591 82.2266 479.335 82.2812 479.101 82.3906C478.867 82.5 478.679 82.6536 478.539 82.8516C478.398 83.0495 478.328 83.2891 478.328 83.5703H476.07C476.07 82.9453 476.236 82.401 476.57 81.9375C476.908 81.474 477.361 81.112 477.929 80.8516C478.497 80.5911 479.122 80.4609 479.804 80.4609C480.575 80.4609 481.249 80.5859 481.828 80.8359C482.406 81.0807 482.856 81.4427 483.179 81.9219C483.502 82.401 483.664 82.9948 483.664 83.7031C483.664 84.0625 483.58 84.4115 483.414 84.75C483.247 85.0833 483.007 85.3854 482.695 85.6562C482.387 85.9219 482.012 86.1354 481.57 86.2969C481.127 86.4531 480.63 86.5312 480.078 86.5312H478.515V85.3359ZM478.515 87.0469V85.8828H480.078C480.697 85.8828 481.242 85.9531 481.71 86.0938C482.179 86.2344 482.572 86.4375 482.89 86.7031C483.208 86.9635 483.447 87.2734 483.609 87.6328C483.77 87.987 483.851 88.3802 483.851 88.8125C483.851 89.3438 483.749 89.8177 483.546 90.2344C483.343 90.6458 483.057 90.9948 482.687 91.2812C482.322 91.5677 481.895 91.7865 481.406 91.9375C480.916 92.0833 480.382 92.1562 479.804 92.1562C479.325 92.1562 478.854 92.0911 478.39 91.9609C477.932 91.8255 477.515 91.625 477.14 91.3594C476.77 91.0885 476.473 90.75 476.249 90.3438C476.031 89.9323 475.921 89.4453 475.921 88.8828H478.179C478.179 89.1745 478.252 89.4349 478.398 89.6641C478.544 89.8932 478.744 90.0729 478.999 90.2031C479.26 90.3333 479.549 90.3984 479.867 90.3984C480.226 90.3984 480.533 90.3333 480.789 90.2031C481.049 90.0677 481.247 89.8802 481.382 89.6406C481.523 89.3958 481.593 89.112 481.593 88.7891C481.593 88.3724 481.518 88.0391 481.367 87.7891C481.216 87.5339 480.999 87.3464 480.718 87.2266C480.437 87.1068 480.104 87.0469 479.718 87.0469H478.515Z" fill="white"/>
<path opacity="0.2" d="M422 206H522" stroke="white" stroke-width="0.7" stroke-dasharray="2 2"/>
<path opacity="0.2" d="M422 135H522" stroke="white" stroke-width="0.7" stroke-dasharray="2 2"/>
<path opacity="0.2" d="M422 104H522" stroke="white" stroke-width="0.7" stroke-dasharray="2 2"/>
<path opacity="0.2" d="M422 70H522" stroke="white" stroke-width="0.7"/>
<path opacity="0.2" d="M422 172H522" stroke="white" stroke-width="0.7"/>
<path opacity="0.2" d="M422 240H522" stroke="white" stroke-width="0.7"/>
<path opacity="0.2" d="M422 274H522" stroke="white" stroke-width="0.7"/>
<path opacity="0.2" d="M422 308H522" stroke="white" stroke-width="0.7"/>
<path d="M472 0L549.076 36H394.924L472 0Z" fill="#024873"/>
</svg>
